<svg width="100%" height="100%" viewBox="0 0 32 32" fill="none" xmlns="http://www.w3.org/2000/svg">
<path d="M12 9.5C12 10.6935 11.5259 11.8381 10.682 12.682C9.83807 13.5259 8.69347 14 7.5 14C6.30653 14 5.16193 13.5259 4.31802 12.682C3.47411 11.8381 3 10.6935 3 9.5C3 8.30653 3.47411 7.16193 4.31802 6.31802C5.16193 5.47411 6.30653 5 7.5 5C8.69347 5 9.83807 5.47411 10.682 6.31802C11.5259 7.16193 12 8.30653 12 9.5ZM29 9.5C29 10.0909 28.8836 10.6761 28.6575 11.2221C28.4313 11.768 28.0998 12.2641 27.682 12.682C27.2641 13.0998 26.768 13.4313 26.2221 13.6575C25.6761 13.8836 25.0909 14 24.5 14C23.9091 14 23.3239 13.8836 22.7779 13.6575C22.232 13.4313 21.7359 13.0998 21.318 12.682C20.9002 12.2641 20.5687 11.768 20.3425 11.2221C20.1164 10.6761 20 10.0909 20 9.5C20 8.30653 20.4741 7.16193 21.318 6.31802C22.1619 5.47411 23.3065 5 24.5 5C25.6935 5 26.8381 5.47411 27.682 6.31802C28.5259 7.16193 29 8.30653 29 9.5Z" fill="#8C5543"/>
<path d="M30.002 20.0695V20.0435C29.9989 19.5118 29.9487 18.9814 29.852 18.4585C29.543 16.3865 28.596 12.7025 25.689 9.72054C21.517 5.44054 16.001 5.72055 16.001 5.72055C16.001 5.72055 10.485 5.44054 6.312 9.72054C3.407 12.7025 2.46 16.3865 2.15 18.4595C2.0518 18.9906 2.00159 19.5295 2 20.0695C1.99898 21.6988 2.45549 23.2956 3.31754 24.6782C4.17959 26.0607 5.41255 27.1734 6.876 27.8895C6.876 27.8895 10 29.7195 16 29.7195C22 29.7195 25.125 27.8895 25.125 27.8895C26.5885 27.1734 27.8214 26.0607 28.6835 24.6782C29.5455 23.2956 30.002 21.6988 30.001 20.0695" fill="#A56953"/>
<path d="M6.31299 9.7207C7.13361 8.87845 8.06638 8.15329 9.08499 7.5657C8.62841 7.19091 8.05388 6.9899 7.46324 6.9983C6.8726 7.0067 6.30401 7.22397 5.85828 7.61159C5.41254 7.99921 5.11846 8.53214 5.02817 9.11589C4.93787 9.69965 5.0572 10.2965 5.36499 10.8007C5.65432 10.4334 5.96999 10.0734 6.31199 9.7207M25.69 9.7207C26.0307 10.0727 26.346 10.432 26.636 10.7987C26.9431 10.2945 27.0619 9.69792 26.9714 9.11455C26.8808 8.53117 26.5867 7.99867 26.1412 7.61134C25.6957 7.22401 25.1274 7.00685 24.5371 6.99831C23.9468 6.98977 23.3725 7.19041 22.916 7.5647C23.935 8.15252 24.8681 8.87802 25.689 9.7207M11 21.0527C11 20.2987 11.373 19.5977 11.988 19.1977C13.1803 18.4163 14.5749 18 16.0005 18C17.4261 18 18.8207 18.4163 20.013 19.1977C20.627 19.5977 21 20.2977 21 21.0527V21.7927C21 24.6697 18.761 26.9997 16 26.9997C13.239 26.9997 11 24.6687 11 21.7927V21.0527Z" fill="#F3AD61"/>
<path d="M11 15.9688C11 15.7035 11.1054 15.4492 11.2929 15.2616C11.4804 15.0741 11.7348 14.9688 12 14.9688C12.2652 14.9688 12.5196 15.0741 12.7071 15.2616C12.8946 15.4492 13 15.7035 13 15.9688V16.9688C13 17.234 12.8946 17.4883 12.7071 17.6759C12.5196 17.8634 12.2652 17.9688 12 17.9688C11.7348 17.9688 11.4804 17.8634 11.2929 17.6759C11.1054 17.4883 11 17.234 11 16.9688V15.9688ZM19 15.9688C19 15.7035 19.1054 15.4492 19.2929 15.2616C19.4804 15.0741 19.7348 14.9688 20 14.9688C20.2652 14.9688 20.5196 15.0741 20.7071 15.2616C20.8946 15.4492 21 15.7035 21 15.9688V16.9688C21 17.234 20.8946 17.4883 20.7071 17.6759C20.5196 17.8634 20.2652 17.9688 20 17.9688C19.7348 17.9688 19.4804 17.8634 19.2929 17.6759C19.1054 17.4883 19 17.234 19 16.9688V15.9688ZM15.526 20.8197L14.512 19.9858C14.3995 19.8919 14.3186 19.7658 14.2801 19.6245C14.2417 19.4831 14.2475 19.3334 14.297 19.1955C14.3464 19.0576 14.437 18.9382 14.5564 18.8535C14.6759 18.7688 14.8185 18.7228 14.965 18.7218H17.039C17.186 18.7216 17.3294 18.767 17.4497 18.8516C17.5699 18.9361 17.6611 19.0558 17.7107 19.1942C17.7603 19.3326 17.7659 19.4829 17.7267 19.6246C17.6876 19.7663 17.6056 19.8925 17.492 19.9858L16.479 20.8188C16.3448 20.9292 16.1763 20.9896 16.0025 20.9896C15.8287 20.9896 15.6602 20.9302 15.526 20.8197ZM16 21.9998C16.1134 21.9996 16.2235 22.0381 16.3121 22.1088C16.4008 22.1795 16.4628 22.2782 16.488 22.3888C16.572 22.7258 16.684 23.1338 16.915 23.4618C17.127 23.7638 17.441 23.9998 18 23.9998C18.654 23.9998 19 23.4658 19 22.9998C19 22.8671 19.0527 22.74 19.1464 22.6462C19.2402 22.5524 19.3674 22.4998 19.5 22.4998C19.6326 22.4998 19.7598 22.5524 19.8536 22.6462C19.9473 22.74 20 22.8671 20 22.9998C20 23.8678 19.346 24.9998 18 24.9998C17.075 24.9998 16.472 24.5698 16.097 24.0378C16.0632 23.9894 16.0309 23.94 16 23.8897C15.97 23.9404 15.9377 23.9898 15.903 24.0378C15.528 24.5698 14.925 24.9998 14 24.9998C12.654 24.9998 12 23.8678 12 22.9998C12 22.8671 12.0527 22.74 12.1464 22.6462C12.2402 22.5524 12.3674 22.4998 12.5 22.4998C12.6326 22.4998 12.7598 22.5524 12.8536 22.6462C12.9473 22.74 13 22.8671 13 22.9998C13 23.4658 13.346 23.9998 14 23.9998C14.56 23.9998 14.873 23.7638 15.085 23.4618C15.316 23.1338 15.428 22.7258 15.512 22.3888C15.5305 22.308 15.5688 22.233 15.6234 22.1707C15.6781 22.1084 15.7473 22.0607 15.825 22.0317C15.881 22.0107 15.9402 21.9999 16 21.9998Z" fill="#402A32"/>
</svg>
