<svg width="32" height="32" viewBox="0 0 32 32" fill="none" xmlns="http://www.w3.org/2000/svg">
<path d="M19.7021 3.25886C9.84706 5.11986 7.50806 13.8699 7.59406 17.1639L9.46106 17.1049C9.63306 13.9149 10.8291 11.3459 12.4311 9.44486L12.4371 9.43786C12.9301 8.85286 13.2711 8.44786 13.7701 9.21486L19.6881 18.3089L21.3591 17.4149L15.3091 8.09686C14.8161 7.33186 14.9841 7.13286 15.5861 6.73686C16.3464 6.26773 17.1581 5.88726 18.0051 5.60286C18.6991 5.37886 18.8671 5.73086 18.9401 5.90486C20.7001 10.1309 22.7661 11.7769 23.9441 12.2609C25.7741 12.9529 27.1371 13.1879 29.5671 12.3609C29.8011 12.2809 29.8831 12.0159 29.6961 11.7139C29.6961 11.7139 28.0561 9.14686 26.4601 6.29286C26.4601 6.29286 24.6381 2.48586 19.7021 3.25886Z" fill="#9AD02B"/>
<path fill-rule="evenodd" clip-rule="evenodd" d="M15 23.5C15 25.2239 14.3152 26.8772 13.0962 28.0962C11.8772 29.3152 10.2239 30 8.5 30C6.77609 30 5.12279 29.3152 3.90381 28.0962C2.68482 26.8772 2 25.2239 2 23.5C2 21.7761 2.68482 20.1228 3.90381 18.9038C5.12279 17.6848 6.77609 17 8.5 17C10.2239 17 11.8772 17.6848 13.0962 18.9038C14.3152 20.1228 15 21.7761 15 23.5ZM30.03 23.5C30.03 25.2239 29.3452 26.8772 28.1262 28.0962C26.9072 29.3152 25.2539 30 23.53 30C21.8061 30 20.1528 29.3152 18.9338 28.0962C17.7148 26.8772 17.03 25.2239 17.03 23.5C17.03 21.7761 17.7148 20.1228 18.9338 18.9038C20.1528 17.6848 21.8061 17 23.53 17C25.2539 17 26.9072 17.6848 28.1262 18.9038C29.3452 20.1228 30.03 21.7761 30.03 23.5Z" fill="#F8312F"/>
</svg>
