<svg width="100%" height="100%" viewBox="0 0 32 32" fill="none" xmlns="http://www.w3.org/2000/svg">
<path d="M21.0141 4.1602C18.1721 4.6632 16.0001 8.0172 16.0001 8.0172C16.0001 8.0172 13.8281 4.6632 10.9861 4.1602C3.98106 2.9252 1.08806 9.0922 2.25006 13.6822C3.90006 20.1582 11.5801 26.6252 14.6901 29.0242C15.0645 29.3166 15.526 29.4755 16.0011 29.4755C16.4762 29.4755 16.9376 29.3166 17.3121 29.0242C20.4201 26.6262 28.0931 20.1652 29.7521 13.6822C30.9121 9.0922 28.0191 2.9252 21.0141 4.1602Z" fill="#FFB2FF"/>
<path d="M19.9401 7.1212C17.7101 7.5012 16.0021 10.0482 16.0021 10.0482C16.0021 10.0482 14.2931 7.4922 12.0621 7.1212C6.55611 6.1852 4.2751 10.8682 5.2001 14.3612C6.4601 19.1412 12.1741 24.0472 14.7431 26.0552C15.4891 26.6392 16.5131 26.6392 17.2591 26.0552C19.8291 24.0442 25.5431 19.1352 26.8031 14.3612C27.7181 10.8682 25.4471 6.1852 19.9401 7.1212Z" fill="#FF6DC6"/>
<path d="M18.4951 11.084C17.0731 11.34 15.9941 13.092 15.9941 13.092C15.9941 13.092 14.9051 11.35 13.4921 11.084C9.99108 10.439 8.53908 13.644 9.12708 16.031C9.86508 19.046 13.0141 21.791 14.7841 23.135C15.1338 23.4039 15.5626 23.5495 16.0038 23.5493C16.4449 23.5492 16.8736 23.4031 17.2231 23.134C18.9911 21.791 22.1361 19.044 22.8801 16.031C23.4491 13.645 21.9971 10.439 18.4951 11.084Z" fill="#F92F60"/>
</svg>
