<?xml version="1.0" encoding="UTF-8"?>
<!DOCTYPE svg PUBLIC "-//W3C//DTD SVG 1.1//EN" "http://www.w3.org/Graphics/SVG/1.1/DTD/svg11.dtd">
<svg xmlns="http://www.w3.org/2000/svg" version="1.1" width="512px" height="512px" style="shape-rendering:geometricPrecision; text-rendering:geometricPrecision; image-rendering:optimizeQuality; fill-rule:evenodd; clip-rule:evenodd" xmlns:xlink="http://www.w3.org/1999/xlink">
<g><path style="opacity:0.994" fill="#d6443d" d="M 511.5,169.5 C 511.5,179.833 511.5,190.167 511.5,200.5C 506.152,229.539 494.985,256.206 478,280.5C 458.965,306.642 437.465,330.809 413.5,353C 365.144,396.517 312.478,434.017 255.5,465.5C 191.169,429.35 132.336,385.683 79,334.5C 58.3853,313.23 40.0519,290.23 24,265.5C 11.7455,244.891 3.5788,222.891 -0.5,199.5C -0.5,189.167 -0.5,178.833 -0.5,168.5C 9.18039,109.312 42.5137,70.145 99.5,51C 163.67,35.9428 215.67,54.4428 255.5,106.5C 291.431,58.8832 339.098,39.3832 398.5,48C 462.688,64.0157 500.355,104.516 511.5,169.5 Z"/></g>
</svg>
