<?xml version="1.0" encoding="UTF-8"?>
<!DOCTYPE svg PUBLIC "-//W3C//DTD SVG 1.1//EN" "http://www.w3.org/Graphics/SVG/1.1/DTD/svg11.dtd">
<svg xmlns="http://www.w3.org/2000/svg" version="1.1" width="512px" height="512px" style="shape-rendering:geometricPrecision; text-rendering:geometricPrecision; image-rendering:optimizeQuality; fill-rule:evenodd; clip-rule:evenodd" xmlns:xlink="http://www.w3.org/1999/xlink">
<g><path style="opacity:0.934" fill="#000000" d="M 253.5,7.5 C 257.182,6.72531 259.682,8.05864 261,11.5C 268.275,32.1967 268.275,52.8634 261,73.5C 257.333,77.5 253.667,77.5 250,73.5C 242.713,52.4608 242.713,31.4608 250,10.5C 251.145,9.36362 252.312,8.36362 253.5,7.5 Z"/></g>
<g><path style="opacity:0.922" fill="#000000" d="M 46.5,41.5 C 48.6547,41.372 50.6547,41.872 52.5,43C 75.3836,56.2169 93.217,74.3836 106,97.5C 106.444,103.723 103.611,106.556 97.5,106C 74,93.1667 55.8333,75 43,51.5C 41.7563,47.191 42.9229,43.8577 46.5,41.5 Z"/></g>
<g><path style="opacity:0.925" fill="#000000" d="M 463.5,41.5 C 467.873,42.9086 469.707,45.9086 469,50.5C 455.883,73.9502 437.717,92.4502 414.5,106C 406.805,107.509 403.972,104.342 406,96.5C 419.868,72.4619 439.035,54.1285 463.5,41.5 Z"/></g>
<g><path style="opacity:0.935" fill="#000000" d="M 324.5,106.5 C 360.208,106.1 387.708,120.767 407,150.5C 417.867,172.83 420.534,196.163 415,220.5C 411.011,237.139 404.677,252.805 396,267.5C 361.262,325.572 315.095,372.405 257.5,408C 255.167,408.667 252.833,408.667 250.5,408C 232.697,396.868 216.03,384.202 200.5,370C 183.605,353.773 167.438,336.94 152,319.5C 127.416,291.339 110.416,259.006 101,222.5C 96.9111,204.554 96.5778,186.554 100,168.5C 108.871,137.963 128.704,118.463 159.5,110C 203.547,102.523 235.547,118.69 255.5,158.5C 268.849,128.127 291.849,110.794 324.5,106.5 Z M 177.5,126.5 C 206.215,126.406 227.715,138.739 242,163.5C 246.296,172.393 249.796,181.56 252.5,191C 254.441,191.743 256.274,191.576 258,190.5C 261.967,170.724 271.467,154.224 286.5,141C 312.839,122.842 339.839,121.842 367.5,138C 385.963,152.184 394.963,171.017 394.5,194.5C 393.819,211.892 389.985,228.559 383,244.5C 367.372,277.433 347.039,307.099 322,333.5C 300.523,356.484 277.689,377.817 253.5,397.5C 221.331,368.17 191.831,336.503 165,302.5C 146.897,279.3 133.231,253.633 124,225.5C 116.418,201.28 118.418,177.947 130,155.5C 141.691,138.962 157.524,129.295 177.5,126.5 Z"/></g>
<g><path style="opacity:0.933" fill="#000000" d="M 32.5,244.5 C 44.7011,243.766 56.7011,244.933 68.5,248C 74.554,249.043 77.054,252.543 76,258.5C 74.764,260.538 72.9306,261.705 70.5,262C 53.34,267.122 36.0067,267.788 18.5,264C 10.2891,263.474 7.12246,259.307 9,251.5C 16.6362,248.137 24.4696,245.804 32.5,244.5 Z"/></g>
<g><path style="opacity:0.935" fill="#000000" d="M 458.5,244.5 C 473.188,243.141 487.355,245.141 501,250.5C 503.601,255.502 502.434,259.335 497.5,262C 479.262,267.556 460.928,267.89 442.5,263C 432.75,259.526 432.083,254.859 440.5,249C 446.581,247.29 452.581,245.79 458.5,244.5 Z"/></g>
<g><path style="opacity:0.92" fill="#000000" d="M 98.5,404.5 C 103.39,403.887 106.056,406.054 106.5,411C 93.9364,436.564 74.9364,455.898 49.5,469C 43.2423,469.702 40.7423,466.868 42,460.5C 55.4079,436.258 74.2413,417.592 98.5,404.5 Z"/></g>
<g><path style="opacity:0.924" fill="#000000" d="M 406.5,404.5 C 408.527,404.338 410.527,404.505 412.5,405C 435.95,418.117 454.45,436.283 468,459.5C 469.493,464.515 467.826,467.848 463,469.5C 437.786,456.953 418.452,438.286 405,413.5C 404.207,410.259 404.707,407.259 406.5,404.5 Z"/></g>
<g><path style="opacity:0.93" fill="#000000" d="M 252.5,435.5 C 255.187,435.336 257.854,435.503 260.5,436C 269.833,457.667 269.833,479.333 260.5,501C 255.129,504.898 251.296,503.731 249,497.5C 242.772,477.721 243.106,458.054 250,438.5C 251.045,437.627 251.878,436.627 252.5,435.5 Z"/></g>
</svg>
