<?xml version="1.0" encoding="UTF-8"?>
<!DOCTYPE svg PUBLIC "-//W3C//DTD SVG 1.1//EN" "http://www.w3.org/Graphics/SVG/1.1/DTD/svg11.dtd">
<svg xmlns="http://www.w3.org/2000/svg" version="1.1" width="512px" height="512px" style="shape-rendering:geometricPrecision; text-rendering:geometricPrecision; image-rendering:optimizeQuality; fill-rule:evenodd; clip-rule:evenodd" xmlns:xlink="http://www.w3.org/1999/xlink">
<g><path style="opacity:0.983" fill="#000000" d="M 213.5,113.5 C 203.833,113.5 194.167,113.5 184.5,113.5C 184.5,104.5 184.5,95.5 184.5,86.5C 156.338,85.502 128.005,85.1687 99.5,85.5C 99.5,76.1667 99.5,66.8333 99.5,57.5C 128.167,57.5 156.833,57.5 185.5,57.5C 185.5,66.8333 185.5,76.1667 185.5,85.5C 194.833,85.5 204.167,85.5 213.5,85.5C 213.5,94.8333 213.5,104.167 213.5,113.5 Z"/></g>
<g><path style="opacity:0.983" fill="#000000" d="M 411.5,85.5 C 382.995,85.1687 354.662,85.502 326.5,86.5C 326.5,95.5 326.5,104.5 326.5,113.5C 316.833,113.5 307.167,113.5 297.5,113.5C 297.5,104.167 297.5,94.8333 297.5,85.5C 306.833,85.5 316.167,85.5 325.5,85.5C 325.5,76.1667 325.5,66.8333 325.5,57.5C 354.167,57.5 382.833,57.5 411.5,57.5C 411.5,66.8333 411.5,76.1667 411.5,85.5 Z"/></g>
<g><path style="opacity:0.982" fill="#000000" d="M 99.5,85.5 C 99.5,94.8333 99.5,104.167 99.5,113.5C 90.1667,113.5 80.8333,113.5 71.5,113.5C 71.5,104.167 71.5,94.8333 71.5,85.5C 80.8333,85.5 90.1667,85.5 99.5,85.5 Z"/></g>
<g><path style="opacity:0.784" fill="#d52d3a" d="M 99.5,85.5 C 128.005,85.1687 156.338,85.502 184.5,86.5C 156.5,86.5 128.5,86.5 100.5,86.5C 100.5,95.5 100.5,104.5 100.5,113.5C 100.167,113.5 99.8333,113.5 99.5,113.5C 99.5,104.167 99.5,94.8333 99.5,85.5 Z"/></g>
<g><path style="opacity:0.784" fill="#98202a" d="M 326.5,86.5 C 354.662,85.502 382.995,85.1687 411.5,85.5C 411.5,94.8333 411.5,104.167 411.5,113.5C 420.833,113.5 430.167,113.5 439.5,113.5C 439.5,113.833 439.5,114.167 439.5,114.5C 429.833,114.5 420.167,114.5 410.5,114.5C 410.5,105.167 410.5,95.8333 410.5,86.5C 382.5,86.5 354.5,86.5 326.5,86.5 Z"/></g>
<g><path style="opacity:0.982" fill="#000000" d="M 411.5,85.5 C 420.833,85.5 430.167,85.5 439.5,85.5C 439.5,94.8333 439.5,104.167 439.5,113.5C 439.5,104.167 439.5,94.8333 439.5,85.5C 430.167,85.5 420.833,85.5 411.5,85.5 Z"/></g>
<g><path style="opacity:0.99" fill="#fe3545" d="M 184.5,86.5 C 184.5,95.5 184.5,104.5 184.5,113.5C 193.652,114.494 202.985,114.827 212.5,114.5C 212.173,124.015 212.506,133.348 213.5,142.5C 222.833,142.5 232.167,142.5 241.5,142.5C 241.5,151.833 241.5,161.167 241.5,170.5C 250.833,170.5 260.167,170.5 269.5,170.5C 269.5,161.167 269.5,151.833 269.5,142.5C 278.833,142.5 288.167,142.5 297.5,142.5C 298.494,133.348 298.827,124.015 298.5,114.5C 308.015,114.827 317.348,114.494 326.5,113.5C 326.5,104.5 326.5,95.5 326.5,86.5C 354.5,86.5 382.5,86.5 410.5,86.5C 410.5,95.8333 410.5,105.167 410.5,114.5C 420.167,114.5 429.833,114.5 439.5,114.5C 439.5,152.167 439.5,189.833 439.5,227.5C 430.167,227.5 420.833,227.5 411.5,227.5C 411.5,246.167 411.5,264.833 411.5,283.5C 401.833,283.5 392.167,283.5 382.5,283.5C 382.5,293.167 382.5,302.833 382.5,312.5C 373.167,312.5 363.833,312.5 354.5,312.5C 354.5,321.833 354.5,331.167 354.5,340.5C 345.167,340.5 335.833,340.5 326.5,340.5C 326.5,349.833 326.5,359.167 326.5,368.5C 317.167,368.5 307.833,368.5 298.5,368.5C 297.506,377.652 297.173,386.985 297.5,396.5C 287.985,396.173 278.652,396.506 269.5,397.5C 269.5,406.833 269.5,416.167 269.5,425.5C 260.167,425.5 250.833,425.5 241.5,425.5C 241.5,416.167 241.5,406.833 241.5,397.5C 232.348,396.506 223.015,396.173 213.5,396.5C 213.827,386.985 213.494,377.652 212.5,368.5C 203.167,368.5 193.833,368.5 184.5,368.5C 184.5,359.167 184.5,349.833 184.5,340.5C 175.167,340.5 165.833,340.5 156.5,340.5C 156.5,331.167 156.5,321.833 156.5,312.5C 147.167,312.5 137.833,312.5 128.5,312.5C 128.5,302.833 128.5,293.167 128.5,283.5C 118.833,283.5 109.167,283.5 99.5,283.5C 99.5,264.833 99.5,246.167 99.5,227.5C 90.1667,227.5 80.8333,227.5 71.5,227.5C 71.5,189.5 71.5,151.5 71.5,113.5C 80.8333,113.5 90.1667,113.5 99.5,113.5C 99.1697,132.674 99.503,151.674 100.5,170.5C 109.833,170.5 119.167,170.5 128.5,170.5C 128.5,161.167 128.5,151.833 128.5,142.5C 137.833,142.5 147.167,142.5 156.5,142.5C 156.5,133.167 156.5,123.833 156.5,114.5C 138.007,113.503 119.341,113.17 100.5,113.5C 100.5,104.5 100.5,95.5 100.5,86.5C 128.5,86.5 156.5,86.5 184.5,86.5 Z"/></g>
<g><path style="opacity:0.958" fill="#000000" d="M 71.5,113.5 C 71.5,151.5 71.5,189.5 71.5,227.5C 61.8333,227.5 52.1667,227.5 42.5,227.5C 42.5,189.5 42.5,151.5 42.5,113.5C 52.1667,113.5 61.8333,113.5 71.5,113.5 Z"/></g>
<g><path style="opacity:0.958" fill="#000000" d="M 439.5,113.5 C 449.167,113.5 458.833,113.5 468.5,113.5C 468.5,151.5 468.5,189.5 468.5,227.5C 458.833,227.5 449.167,227.5 439.5,227.5C 439.5,189.833 439.5,152.167 439.5,114.5C 439.5,114.167 439.5,113.833 439.5,113.5 Z"/></g>
<g><path style="opacity:0.997" fill="#fffefe" d="M 156.5,114.5 C 156.5,123.833 156.5,133.167 156.5,142.5C 147.167,142.5 137.833,142.5 128.5,142.5C 128.5,151.833 128.5,161.167 128.5,170.5C 119.167,170.5 109.833,170.5 100.5,170.5C 100.5,151.833 100.5,133.167 100.5,114.5C 119.167,114.5 137.833,114.5 156.5,114.5 Z"/></g>
<g><path style="opacity:0.757" fill="#771921" d="M 184.5,113.5 C 194.167,113.5 203.833,113.5 213.5,113.5C 213.5,123.167 213.5,132.833 213.5,142.5C 212.506,133.348 212.173,124.015 212.5,114.5C 202.985,114.827 193.652,114.494 184.5,113.5 Z"/></g>
<g><path style="opacity:0.757" fill="#5c141a" d="M 297.5,113.5 C 307.167,113.5 316.833,113.5 326.5,113.5C 317.348,114.494 308.015,114.827 298.5,114.5C 298.827,124.015 298.494,133.348 297.5,142.5C 297.5,132.833 297.5,123.167 297.5,113.5 Z"/></g>
<g><path style="opacity:0.97" fill="#000000" d="M 213.5,113.5 C 222.833,113.5 232.167,113.5 241.5,113.5C 241.5,122.833 241.5,132.167 241.5,141.5C 250.833,141.5 260.167,141.5 269.5,141.5C 269.5,132.167 269.5,122.833 269.5,113.5C 278.833,113.5 288.167,113.5 297.5,113.5C 297.5,123.167 297.5,132.833 297.5,142.5C 288.167,142.5 278.833,142.5 269.5,142.5C 269.5,151.833 269.5,161.167 269.5,170.5C 260.167,170.5 250.833,170.5 241.5,170.5C 241.5,161.167 241.5,151.833 241.5,142.5C 232.167,142.5 222.833,142.5 213.5,142.5C 213.5,132.833 213.5,123.167 213.5,113.5 Z"/></g>
<g><path style="opacity:0.753" fill="#ffb8be" d="M 99.5,113.5 C 99.8333,113.5 100.167,113.5 100.5,113.5C 119.341,113.17 138.007,113.503 156.5,114.5C 137.833,114.5 119.167,114.5 100.5,114.5C 100.5,133.167 100.5,151.833 100.5,170.5C 99.503,151.674 99.1697,132.674 99.5,113.5 Z"/></g>
<g><path style="opacity:0.981" fill="#000000" d="M 71.5,227.5 C 80.8333,227.5 90.1667,227.5 99.5,227.5C 99.5,246.167 99.5,264.833 99.5,283.5C 99.5,283.833 99.5,284.167 99.5,284.5C 90.1667,284.5 80.8333,284.5 71.5,284.5C 71.5,265.5 71.5,246.5 71.5,227.5 Z"/></g>
<g><path style="opacity:0.981" fill="#000000" d="M 439.5,227.5 C 439.5,246.5 439.5,265.5 439.5,284.5C 430.167,284.5 420.833,284.5 411.5,284.5C 411.5,284.167 411.5,283.833 411.5,283.5C 411.5,264.833 411.5,246.167 411.5,227.5C 420.833,227.5 430.167,227.5 439.5,227.5 Z"/></g>
<g><path style="opacity:0.968" fill="#000000" d="M 99.5,284.5 C 108.833,284.5 118.167,284.5 127.5,284.5C 127.5,293.833 127.5,303.167 127.5,312.5C 127.5,303.167 127.5,293.833 127.5,284.5C 118.167,284.5 108.833,284.5 99.5,284.5 Z"/></g>
<g><path style="opacity:0.808" fill="#551116" d="M 99.5,284.5 C 99.5,284.167 99.5,283.833 99.5,283.5C 109.167,283.5 118.833,283.5 128.5,283.5C 128.5,293.167 128.5,302.833 128.5,312.5C 128.167,312.5 127.833,312.5 127.5,312.5C 127.5,303.167 127.5,293.833 127.5,284.5C 118.167,284.5 108.833,284.5 99.5,284.5 Z"/></g>
<g><path style="opacity:0.808" fill="#551116" d="M 411.5,283.5 C 411.5,283.833 411.5,284.167 411.5,284.5C 402.167,284.5 392.833,284.5 383.5,284.5C 383.5,293.833 383.5,303.167 383.5,312.5C 383.167,312.5 382.833,312.5 382.5,312.5C 382.5,302.833 382.5,293.167 382.5,283.5C 392.167,283.5 401.833,283.5 411.5,283.5 Z"/></g>
<g><path style="opacity:0.968" fill="#000000" d="M 411.5,284.5 C 411.5,293.833 411.5,303.167 411.5,312.5C 402.167,312.5 392.833,312.5 383.5,312.5C 383.5,303.167 383.5,293.833 383.5,284.5C 392.833,284.5 402.167,284.5 411.5,284.5 Z"/></g>
<g><path style="opacity:0.969" fill="#000000" d="M 127.5,312.5 C 127.833,312.5 128.167,312.5 128.5,312.5C 137.833,312.5 147.167,312.5 156.5,312.5C 156.5,321.833 156.5,331.167 156.5,340.5C 146.833,340.5 137.167,340.5 127.5,340.5C 127.5,331.167 127.5,321.833 127.5,312.5 Z"/></g>
<g><path style="opacity:0.969" fill="#000000" d="M 382.5,312.5 C 382.833,312.5 383.167,312.5 383.5,312.5C 383.5,321.833 383.5,331.167 383.5,340.5C 373.833,340.5 364.167,340.5 354.5,340.5C 354.5,331.167 354.5,321.833 354.5,312.5C 363.833,312.5 373.167,312.5 382.5,312.5 Z"/></g>
<g><path style="opacity:0.968" fill="#000000" d="M 156.5,340.5 C 165.833,340.5 175.167,340.5 184.5,340.5C 184.5,349.833 184.5,359.167 184.5,368.5C 193.833,368.5 203.167,368.5 212.5,368.5C 212.5,378.167 212.5,387.833 212.5,397.5C 203.167,397.5 193.833,397.5 184.5,397.5C 184.5,388.167 184.5,378.833 184.5,369.5C 175.167,369.5 165.833,369.5 156.5,369.5C 156.5,359.833 156.5,350.167 156.5,340.5 Z"/></g>
<g><path style="opacity:0.968" fill="#000000" d="M 354.5,340.5 C 354.5,350.167 354.5,359.833 354.5,369.5C 345.167,369.5 335.833,369.5 326.5,369.5C 326.5,378.833 326.5,388.167 326.5,397.5C 317.167,397.5 307.833,397.5 298.5,397.5C 298.5,387.833 298.5,378.167 298.5,368.5C 307.833,368.5 317.167,368.5 326.5,368.5C 326.5,359.167 326.5,349.833 326.5,340.5C 335.833,340.5 345.167,340.5 354.5,340.5 Z"/></g>
<g><path style="opacity:0.761" fill="#511217" d="M 212.5,368.5 C 213.494,377.652 213.827,386.985 213.5,396.5C 223.015,396.173 232.348,396.506 241.5,397.5C 231.833,397.5 222.167,397.5 212.5,397.5C 212.5,387.833 212.5,378.167 212.5,368.5 Z"/></g>
<g><path style="opacity:0.761" fill="#511217" d="M 298.5,368.5 C 298.5,378.167 298.5,387.833 298.5,397.5C 288.833,397.5 279.167,397.5 269.5,397.5C 278.652,396.506 287.985,396.173 297.5,396.5C 297.173,386.985 297.506,377.652 298.5,368.5 Z"/></g>
<g><path style="opacity:0.942" fill="#000000" d="M 212.5,397.5 C 222.167,397.5 231.833,397.5 241.5,397.5C 241.5,406.833 241.5,416.167 241.5,425.5C 250.833,425.5 260.167,425.5 269.5,425.5C 269.5,416.167 269.5,406.833 269.5,397.5C 279.167,397.5 288.833,397.5 298.5,397.5C 298.5,406.833 298.5,416.167 298.5,425.5C 289.167,425.5 279.833,425.5 270.5,425.5C 270.5,434.833 270.5,444.167 270.5,453.5C 260.5,453.5 250.5,453.5 240.5,453.5C 240.5,444.167 240.5,434.833 240.5,425.5C 231.167,425.5 221.833,425.5 212.5,425.5C 212.5,416.167 212.5,406.833 212.5,397.5 Z"/></g>
</svg>
