<?xml version="1.0" encoding="UTF-8"?>
<!DOCTYPE svg PUBLIC "-//W3C//DTD SVG 1.1//EN" "http://www.w3.org/Graphics/SVG/1.1/DTD/svg11.dtd">
<svg xmlns="http://www.w3.org/2000/svg" version="1.1" width="512px" height="512px" style="shape-rendering:geometricPrecision; text-rendering:geometricPrecision; image-rendering:optimizeQuality; fill-rule:evenodd; clip-rule:evenodd" xmlns:xlink="http://www.w3.org/1999/xlink">
<g><path style="opacity:0.995" fill="#f28276" d="M 55.5,39.5 C 85.5973,36.7929 107.431,48.7929 121,75.5C 146.4,57.0987 171.9,56.932 197.5,75C 212.953,90.7004 218.786,109.534 215,131.5C 211.219,151.393 202.885,169.059 190,184.5C 167.099,207.867 140.932,226.701 111.5,241C 100.73,246.386 89.7295,251.219 78.5,255.5C 76.6171,255.124 75.1171,254.124 74,252.5C 53.1869,227.662 35.5202,200.662 21,171.5C 5.94048,141.373 3.27382,110.373 13,78.5C 20.3804,57.9472 34.5471,44.9472 55.5,39.5 Z"/></g>
<g><path style="opacity:0.99" fill="#f28276" d="M 364.5,200.5 C 382.115,199.723 393.615,207.723 399,224.5C 402.301,236.825 402.301,249.158 399,261.5C 391.947,282.64 381.113,301.307 366.5,317.5C 345.724,310.448 326.724,300.282 309.5,287C 293.534,272.911 287.367,255.411 291,234.5C 298.948,218.282 311.782,212.449 329.5,217C 332.864,218.099 336.03,219.599 339,221.5C 344.355,210.586 352.855,203.586 364.5,200.5 Z"/></g>
<g><path style="opacity:0.992" fill="#edb6b1" d="M 163.5,295.5 C 180.672,294.999 192.505,302.665 199,318.5C 210.335,312.039 221.835,311.873 233.5,318C 245.737,327.754 249.571,340.254 245,355.5C 241.025,367.271 234.192,377.105 224.5,385C 206.426,397.368 186.759,406.534 165.5,412.5C 151.473,395.113 141.64,375.447 136,353.5C 132.593,338.382 134.593,324.048 142,310.5C 147.091,302.383 154.257,297.383 163.5,295.5 Z"/></g>
<g><path style="opacity:0.987" fill="#f28276" d="M 360.5,372.5 C 379.196,371.36 388.863,380.194 389.5,399C 389.132,407.971 386.966,416.471 383,424.5C 376.17,436.167 367.67,446.501 357.5,455.5C 343.518,448.929 331.018,440.263 320,429.5C 310.516,418.392 307.183,405.725 310,391.5C 316.59,379.633 326.423,375.799 339.5,380C 342.102,380.883 344.269,382.383 346,384.5C 349.541,378.78 354.374,374.78 360.5,372.5 Z"/></g>
<g><path style="opacity:0.986" fill="#edb6b1" d="M 482.5,415.5 C 500.442,414.972 507.276,423.638 503,441.5C 499.655,450.841 494.655,459.174 488,466.5C 486.235,468.774 484.068,470.441 481.5,471.5C 471.751,467.25 462.918,461.583 455,454.5C 450.255,448.673 447.422,442.007 446.5,434.5C 447.301,424.864 452.468,419.864 462,419.5C 466.035,419.291 469.701,420.291 473,422.5C 476.079,419.903 479.246,417.57 482.5,415.5 Z"/></g>
</svg>
