<?xml version="1.0" encoding="UTF-8"?>
<!DOCTYPE svg PUBLIC "-//W3C//DTD SVG 1.1//EN" "http://www.w3.org/Graphics/SVG/1.1/DTD/svg11.dtd">
<svg xmlns="http://www.w3.org/2000/svg" version="1.1" width="512px" height="512px" style="shape-rendering:geometricPrecision; text-rendering:geometricPrecision; image-rendering:optimizeQuality; fill-rule:evenodd; clip-rule:evenodd" xmlns:xlink="http://www.w3.org/1999/xlink">
<g><path style="opacity:0.957" fill="#010000" d="M 149.5,21.5 C 166.318,18.9924 180.318,23.9924 191.5,36.5C 206.317,20.6556 223.65,17.1556 243.5,26C 252.322,31.8019 257.489,39.9686 259,50.5C 261.27,77.1276 252.103,98.9609 231.5,116C 219.587,125.375 206.421,132.541 192,137.5C 164.652,129.507 143.985,113.174 130,88.5C 122.772,72.8549 121.772,56.8549 127,40.5C 131.657,30.6666 139.157,24.3332 149.5,21.5 Z"/></g>
<g><path style="opacity:1" fill="#e5384c" d="M 159.5,36.5 C 146.739,52.0368 145.239,68.7035 155,86.5C 161.454,95.289 168.287,103.789 175.5,112C 175.272,112.399 174.938,112.565 174.5,112.5C 150.876,99.918 139.043,80.2513 139,53.5C 141.18,42.1491 148.013,36.4824 159.5,36.5 Z"/></g>
<g><path style="opacity:1" fill="#ec586a" d="M 159.5,36.5 C 166.264,37.1443 172.264,39.6443 177.5,44C 181.079,48.4906 184.412,53.1573 187.5,58C 190.167,58.6667 192.833,58.6667 195.5,58C 199.115,52.1166 203.448,46.7833 208.5,42C 217.415,35.5533 226.748,34.8866 236.5,40C 243.837,47.3572 246.337,56.1906 244,66.5C 239.048,87.2317 227.214,102.732 208.5,113C 203.166,115.918 197.666,118.418 192,120.5C 185.671,118.749 179.837,116.083 174.5,112.5C 174.938,112.565 175.272,112.399 175.5,112C 168.287,103.789 161.454,95.289 155,86.5C 145.239,68.7035 146.739,52.0368 159.5,36.5 Z"/></g>
<g><path style="opacity:0.966" fill="#020101" d="M 511.5,97.5 C 511.5,106.5 511.5,115.5 511.5,124.5C 507.077,150.179 496.077,172.679 478.5,192C 474.91,193.822 471.243,193.989 467.5,192.5C 465.809,189.355 465.309,186.021 466,182.5C 491.186,155.747 500.186,124.413 493,88.5C 483.265,68.0481 467.098,59.8814 444.5,64C 424.431,70.0704 409.931,82.5704 401,101.5C 396.86,104.392 393.026,104.058 389.5,100.5C 380.63,81.4004 365.963,69.4004 345.5,64.5C 327.677,60.6566 313.177,65.9899 302,80.5C 293.999,96.8029 292.333,113.803 297,131.5C 305.65,161.481 322.817,185.315 348.5,203C 358.908,210.204 369.908,216.371 381.5,221.5C 386.336,224.75 391.669,226.583 397.5,227C 415.881,219.98 432.881,210.647 448.5,199C 450.167,198.333 451.833,198.333 453.5,199C 455.078,200.094 456.745,200.928 458.5,201.5C 458.286,203.144 458.62,204.644 459.5,206C 458.773,207.399 458.273,208.899 458,210.5C 450.379,216.783 442.213,222.283 433.5,227C 432.148,299.72 404.815,361.053 351.5,411C 312.593,445.16 268.593,471.16 219.5,489C 216.5,489.667 213.5,489.667 210.5,489C 177.5,476.835 146.5,461.001 117.5,441.5C 113.382,451.684 109.548,462.018 106,472.5C 97.3216,484.627 86.8216,486.46 74.5,478C 72.6227,475.749 71.1227,473.249 70,470.5C 66.1974,458.759 62.1974,447.092 58,435.5C 44.5503,430.348 31.0503,425.181 17.5,420C 6.34043,409.677 6.00709,399.011 16.5,388C 26.7884,383.794 37.1217,379.794 47.5,376C 40.2145,366.709 33.7145,356.876 28,346.5C 26.9586,342.59 28.1252,339.59 31.5,337.5C 35.4211,335.848 38.9211,336.515 42,339.5C 47.2558,349.016 53.2558,358.016 60,366.5C 64.1274,355.122 68.4608,343.789 73,332.5C 75.612,328.781 79.112,326.448 83.5,325.5C 91.0272,323.952 97.5272,325.952 103,331.5C 109.084,345.414 114.584,359.58 119.5,374C 131.215,377.846 142.882,381.846 154.5,386C 168.573,393.106 171.24,403.273 162.5,416.5C 160.382,418.642 158.048,420.308 155.5,421.5C 146.697,424.101 138.031,427.101 129.5,430.5C 152.035,445.77 176.035,458.436 201.5,468.5C 206.454,471.484 211.787,472.984 217.5,473C 268.657,454.526 313.491,426.359 352,388.5C 386.835,352.827 407.835,310.161 415,260.5C 415.667,252.167 415.667,243.833 415,235.5C 408.632,238.457 402.132,241.123 395.5,243.5C 362.809,232.415 334.642,214.415 311,189.5C 301.719,178.059 293.886,165.726 287.5,152.5C 257.554,165.945 235.721,187.612 222,217.5C 217.959,222.313 213.625,222.646 209,218.5C 193.069,184.063 167.236,160.73 131.5,148.5C 93.4254,136.808 60.9254,145.475 34,174.5C 20.5551,194.008 14.0551,215.675 14.5,239.5C 14.61,251.933 15.7766,264.266 18,276.5C 21.4341,290.133 25.2674,303.633 29.5,317C 29.3333,318.167 29.1667,319.333 29,320.5C 27.6244,321.705 26.4577,323.038 25.5,324.5C 21.0464,325.383 17.5464,324.05 15,320.5C 7.45699,301.322 2.29033,281.655 -0.5,261.5C -0.5,249.167 -0.5,236.833 -0.5,224.5C 1.76813,199.63 10.9348,177.63 27,158.5C 57.8955,130.18 93.7288,121.68 134.5,133C 169.273,144.107 196.107,165.274 215,196.5C 231.118,169.711 253.452,150.045 282,137.5C 279.712,124.657 279.045,111.657 280,98.5C 286.151,63.5066 306.984,46.6732 342.5,48C 364.812,50.8374 382.479,61.3374 395.5,79.5C 419.1,49.2438 448.767,41.0771 484.5,55C 499.847,65.1712 508.847,79.3379 511.5,97.5 Z"/></g>
<g><path style="opacity:1" fill="#ea394e" d="M 345.5,64.5 C 330.901,74.6646 322.067,88.6646 319,106.5C 315.916,128.838 321.25,148.838 335,166.5C 349.209,185.879 364.709,204.213 381.5,221.5C 369.908,216.371 358.908,210.204 348.5,203C 322.817,185.315 305.65,161.481 297,131.5C 292.333,113.803 293.999,96.8029 302,80.5C 313.177,65.9899 327.677,60.6566 345.5,64.5 Z"/></g>
<g><path style="opacity:1" fill="#ed586a" d="M 467.5,192.5 C 464.194,195.14 461.194,198.14 458.5,201.5C 456.745,200.928 455.078,200.094 453.5,199C 451.833,198.333 450.167,198.333 448.5,199C 432.881,210.647 415.881,219.98 397.5,227C 391.669,226.583 386.336,224.75 381.5,221.5C 364.709,204.213 349.209,185.879 335,166.5C 321.25,148.838 315.916,128.838 319,106.5C 322.067,88.6646 330.901,74.6646 345.5,64.5C 365.963,69.4004 380.63,81.4004 389.5,100.5C 393.026,104.058 396.86,104.392 401,101.5C 409.931,82.5704 424.431,70.0704 444.5,64C 467.098,59.8814 483.265,68.0481 493,88.5C 500.186,124.413 491.186,155.747 466,182.5C 465.309,186.021 465.809,189.355 467.5,192.5 Z"/></g>
<g><path style="opacity:1" fill="#eb394e" d="M 131.5,148.5 C 116.548,153.911 104.048,162.911 94,175.5C 67.6094,211.456 59.9427,251.122 71,294.5C 74.0755,305.311 78.2422,315.645 83.5,325.5C 79.112,326.448 75.612,328.781 73,332.5C 68.4608,343.789 64.1274,355.122 60,366.5C 53.2558,358.016 47.2558,349.016 42,339.5C 38.9211,336.515 35.4211,335.848 31.5,337.5C 29.2288,333.291 27.2288,328.958 25.5,324.5C 26.4577,323.038 27.6244,321.705 29,320.5C 29.1667,319.333 29.3333,318.167 29.5,317C 25.2674,303.633 21.4341,290.133 18,276.5C 15.7766,264.266 14.61,251.933 14.5,239.5C 14.0551,215.675 20.5551,194.008 34,174.5C 60.9254,145.475 93.4254,136.808 131.5,148.5 Z"/></g>
<g><path style="opacity:1" fill="#ed586a" d="M 131.5,148.5 C 167.236,160.73 193.069,184.063 209,218.5C 213.625,222.646 217.959,222.313 222,217.5C 235.721,187.612 257.554,165.945 287.5,152.5C 293.886,165.726 301.719,178.059 311,189.5C 334.642,214.415 362.809,232.415 395.5,243.5C 402.132,241.123 408.632,238.457 415,235.5C 415.667,243.833 415.667,252.167 415,260.5C 407.835,310.161 386.835,352.827 352,388.5C 313.491,426.359 268.657,454.526 217.5,473C 211.787,472.984 206.454,471.484 201.5,468.5C 187.505,453.67 173.671,438.67 160,423.5C 158.89,421.963 157.39,421.297 155.5,421.5C 158.048,420.308 160.382,418.642 162.5,416.5C 171.24,403.273 168.573,393.106 154.5,386C 142.882,381.846 131.215,377.846 119.5,374C 114.584,359.58 109.084,345.414 103,331.5C 97.5272,325.952 91.0272,323.952 83.5,325.5C 78.2422,315.645 74.0755,305.311 71,294.5C 59.9427,251.122 67.6094,211.456 94,175.5C 104.048,162.911 116.548,153.911 131.5,148.5 Z"/></g>
<g><path style="opacity:1" fill="#eef1f3" d="M 86.5,339.5 C 88.7224,339.178 90.5557,339.845 92,341.5C 96.3333,354.167 100.667,366.833 105,379.5C 107.222,383.388 110.388,386.221 114.5,388C 126.081,392.194 137.748,396.194 149.5,400C 153.037,401.826 153.371,404.16 150.5,407C 137.424,411.47 124.424,416.136 111.5,421C 108.238,423.592 105.738,426.759 104,430.5C 99.8026,442.092 95.8026,453.759 92,465.5C 89.6667,468.167 87.3333,468.167 85,465.5C 80.5303,452.424 75.8636,439.424 71,426.5C 68.2924,422.896 64.7924,420.396 60.5,419C 49.7586,415.531 39.0919,411.864 28.5,408C 24.2052,406.155 23.5385,403.488 26.5,400C 39.2412,395.864 51.9079,391.531 64.5,387C 66.6089,385.859 68.4422,384.359 70,382.5C 75.4196,368.065 80.9196,353.732 86.5,339.5 Z"/></g>
<g><path style="opacity:1" fill="#e8394d" d="M 155.5,421.5 C 157.39,421.297 158.89,421.963 160,423.5C 173.671,438.67 187.505,453.67 201.5,468.5C 176.035,458.436 152.035,445.77 129.5,430.5C 138.031,427.101 146.697,424.101 155.5,421.5 Z"/></g>
</svg>
