<?xml version="1.0" encoding="UTF-8"?>
<!DOCTYPE svg PUBLIC "-//W3C//DTD SVG 1.1//EN" "http://www.w3.org/Graphics/SVG/1.1/DTD/svg11.dtd">
<svg xmlns="http://www.w3.org/2000/svg" version="1.1" width="512px" height="512px" style="shape-rendering:geometricPrecision; text-rendering:geometricPrecision; image-rendering:optimizeQuality; fill-rule:evenodd; clip-rule:evenodd" xmlns:xlink="http://www.w3.org/1999/xlink">
<g><path style="opacity:0.974" fill="#010000" d="M 89.5,-0.5 C 199.833,-0.5 310.167,-0.5 420.5,-0.5C 465.615,8.11113 493.781,34.7778 505,79.5C 506.646,156.473 506.979,233.473 506,310.5C 498.504,353.328 474.004,381.162 432.5,394C 425.606,395.718 418.606,396.718 411.5,397C 367.833,397.333 324.167,397.667 280.5,398C 245.833,434.667 211.167,471.333 176.5,508C 174.273,508.941 172.273,510.108 170.5,511.5C 166.167,511.5 161.833,511.5 157.5,511.5C 151.213,508.711 146.713,504.044 144,497.5C 143.5,464.168 143.333,430.835 143.5,397.5C 125.139,397.833 106.806,397.333 88.5,396C 49.1673,388.671 22.6673,366.171 9,328.5C 7.15657,322.617 5.82324,316.617 5,310.5C 4.33333,235.5 4.33333,160.5 5,85.5C 6.89919,68.5434 13.0659,53.3767 23.5,40C 26.4563,38.3374 29.4563,38.1707 32.5,39.5C 33.0722,41.2554 33.9055,42.9221 35,44.5C 35.6667,46.1667 35.6667,47.8333 35,49.5C 27.0475,61.6868 22.0475,75.0201 20,89.5C 19.3333,162.167 19.3333,234.833 20,307.5C 27.6328,347.799 51.4661,372.299 91.5,381C 110.833,381.333 130.167,381.667 149.5,382C 154,383.167 156.833,386 158,390.5C 158.333,424.833 158.667,459.167 159,493.5C 160.864,496.207 163.364,497.041 166.5,496C 173.672,487.996 181.005,480.162 188.5,472.5C 216.629,442.536 244.962,412.703 273.5,383C 321.788,381.686 370.121,381.019 418.5,381C 459.08,372.753 483.247,348.253 491,307.5C 491.667,234.5 491.667,161.5 491,88.5C 483.058,46.8916 458.225,22.3916 416.5,15C 308.5,14.3333 200.5,14.3333 92.5,15C 78.597,16.79 66.2637,21.9567 55.5,30.5C 53.3927,31.3004 51.2261,31.9671 49,32.5C 46.735,31.7406 44.5683,30.7406 42.5,29.5C 41.0985,26.123 41.2652,22.7897 43,19.5C 56.9458,9.10764 72.4458,2.44097 89.5,-0.5 Z"/></g>
<g><path style="opacity:1" fill="#eb5468" d="M 188.5,472.5 C 188.667,432.832 188.5,393.165 188,353.5C 187.5,353 187,352.5 186.5,352C 167.833,351.667 149.167,351.333 130.5,351C 98.7456,344.241 76.2456,326.074 63,296.5C 58.8447,286.907 56.178,276.907 55,266.5C 54.1962,187.824 54.3629,109.157 55.5,30.5C 66.2637,21.9567 78.597,16.79 92.5,15C 200.5,14.3333 308.5,14.3333 416.5,15C 458.225,22.3916 483.058,46.8916 491,88.5C 491.667,161.5 491.667,234.5 491,307.5C 483.247,348.253 459.08,372.753 418.5,381C 370.121,381.019 321.788,381.686 273.5,383C 244.962,412.703 216.629,442.536 188.5,472.5 Z"/></g>
<g><path style="opacity:1" fill="#e4384f" d="M 42.5,29.5 C 44.5683,30.7406 46.735,31.7406 49,32.5C 51.2261,31.9671 53.3927,31.3004 55.5,30.5C 54.3629,109.157 54.1962,187.824 55,266.5C 56.178,276.907 58.8447,286.907 63,296.5C 76.2456,326.074 98.7456,344.241 130.5,351C 149.167,351.333 167.833,351.667 186.5,352C 187,352.5 187.5,353 188,353.5C 188.5,393.165 188.667,432.832 188.5,472.5C 181.005,480.162 173.672,487.996 166.5,496C 163.364,497.041 160.864,496.207 159,493.5C 158.667,459.167 158.333,424.833 158,390.5C 156.833,386 154,383.167 149.5,382C 130.167,381.667 110.833,381.333 91.5,381C 51.4661,372.299 27.6328,347.799 20,307.5C 19.3333,234.833 19.3333,162.167 20,89.5C 22.0475,75.0201 27.0475,61.6868 35,49.5C 35.6667,47.8333 35.6667,46.1667 35,44.5C 33.9055,42.9221 33.0722,41.2554 32.5,39.5C 36.1667,36.5 39.5,33.1667 42.5,29.5 Z"/></g>
<g><path style="opacity:1" fill="#040303" d="M 330.5,237.5 C 328.039,234.358 327.872,231.025 330,227.5C 339,218.5 348,209.5 357,200.5C 367.825,184.863 370.492,167.863 365,149.5C 353.201,124.18 333.368,113.347 305.5,117C 296.899,118.801 289.233,122.468 282.5,128C 276.5,134 270.5,140 264.5,146C 258.472,149.265 252.472,149.265 246.5,146C 239.1,137.93 231.1,130.596 222.5,124C 214.052,119.348 205.052,116.848 195.5,116.5C 168.602,117.224 151.435,130.558 144,156.5C 141.165,172.642 144.498,187.309 154,200.5C 187.5,234 221,267.5 254.5,301C 258.817,298.869 262.484,295.702 265.5,291.5C 280.299,277.202 294.965,262.702 309.5,248C 313.313,245.974 316.98,246.14 320.5,248.5C 321.468,251.445 321.634,254.445 321,257.5C 302.167,276.333 283.333,295.167 264.5,314C 258.435,317.284 252.435,317.284 246.5,314C 211.667,279.167 176.833,244.333 142,209.5C 122.754,181.821 122.754,154.155 142,126.5C 164.27,101.576 191.103,95.076 222.5,107C 228.17,109.833 233.503,113.166 238.5,117C 244.015,122.682 249.681,128.182 255.5,133.5C 262.683,126.483 270.016,119.65 277.5,113C 300.397,99.1755 324.064,97.8422 348.5,109C 379.795,129.546 389.628,157.713 378,193.5C 375.423,199.66 372.09,205.327 368,210.5C 358.5,220 349,229.5 339.5,239C 336.177,239.932 333.177,239.432 330.5,237.5 Z"/></g>
<g><path style="opacity:1" fill="#dae4e9" d="M 195.5,116.5 C 162.516,141.397 157.016,171.397 179,206.5C 207.417,235.419 236.251,263.752 265.5,291.5C 262.484,295.702 258.817,298.869 254.5,301C 221,267.5 187.5,234 154,200.5C 144.498,187.309 141.165,172.642 144,156.5C 151.435,130.558 168.602,117.224 195.5,116.5 Z"/></g>
<g><path style="opacity:1" fill="#fef4f4" d="M 195.5,116.5 C 205.052,116.848 214.052,119.348 222.5,124C 231.1,130.596 239.1,137.93 246.5,146C 252.472,149.265 258.472,149.265 264.5,146C 270.5,140 276.5,134 282.5,128C 289.233,122.468 296.899,118.801 305.5,117C 333.368,113.347 353.201,124.18 365,149.5C 370.492,167.863 367.825,184.863 357,200.5C 348,209.5 339,218.5 330,227.5C 327.872,231.025 328.039,234.358 330.5,237.5C 327.167,241.167 323.833,244.833 320.5,248.5C 316.98,246.14 313.313,245.974 309.5,248C 294.965,262.702 280.299,277.202 265.5,291.5C 236.251,263.752 207.417,235.419 179,206.5C 157.016,171.397 162.516,141.397 195.5,116.5 Z"/></g>
</svg>
