<?xml version="1.0" encoding="UTF-8"?>
<!DOCTYPE svg PUBLIC "-//W3C//DTD SVG 1.1//EN" "http://www.w3.org/Graphics/SVG/1.1/DTD/svg11.dtd">
<svg xmlns="http://www.w3.org/2000/svg" version="1.1" width="512px" height="512px" style="shape-rendering:geometricPrecision; text-rendering:geometricPrecision; image-rendering:optimizeQuality; fill-rule:evenodd; clip-rule:evenodd" xmlns:xlink="http://www.w3.org/1999/xlink">
<g><path style="opacity:0.959" fill="#020101" d="M 435.5,-0.5 C 439.167,-0.5 442.833,-0.5 446.5,-0.5C 452.266,2.44548 456.099,7.11215 458,13.5C 460.524,23.595 463.357,33.595 466.5,43.5C 468.925,45.1445 471.592,46.3112 474.5,47C 485.306,48.9498 495.64,52.2832 505.5,57C 508.121,59.1141 510.121,61.6141 511.5,64.5C 511.5,68.1667 511.5,71.8333 511.5,75.5C 509.353,79.811 506.02,82.9777 501.5,85C 490.269,88.6416 478.936,91.9749 467.5,95C 466.54,96.4194 465.707,97.9194 465,99.5C 462.837,112.171 458.837,124.171 453,135.5C 447.31,140.691 440.81,141.858 433.5,139C 428.98,135.464 425.814,130.964 424,125.5C 421.489,115.789 418.822,106.123 416,96.5C 413.808,94.7647 411.308,93.598 408.5,93C 397.694,91.0502 387.36,87.7168 377.5,83C 370.087,76.7451 368.587,69.2451 373,60.5C 374.558,58.6411 376.391,57.1411 378.5,56C 390.956,51.5969 403.456,47.4302 416,43.5C 419.025,32.0644 422.358,20.7311 426,9.5C 428.022,4.98004 431.189,1.6467 435.5,-0.5 Z"/></g>
<g><path style="opacity:1" fill="#ef99b7" d="M 440.5,16.5 C 442.163,18.4927 443.33,20.8261 444,23.5C 445.955,32.2757 448.288,40.9424 451,49.5C 454.864,57.0278 461.031,61.5278 469.5,63C 477.978,64.8691 486.311,67.2024 494.5,70C 485.916,72.646 477.249,74.9794 468.5,77C 458.86,79.305 452.36,85.1384 449,94.5C 447.125,104.117 444.459,113.45 441,122.5C 437.597,112.291 434.597,101.957 432,91.5C 429.755,86.5006 426.255,82.6673 421.5,80C 410.384,76.808 399.384,73.4747 388.5,70C 390.221,68.4728 392.221,67.4728 394.5,67C 404.889,65.237 414.889,62.237 424.5,58C 429.059,53.7196 432.226,48.5529 434,42.5C 435.544,33.6584 437.71,24.9918 440.5,16.5 Z"/></g>
<g><path style="opacity:0.971" fill="#020202" d="M 94.5,29.5 C 130.108,27.8261 165.108,31.6594 199.5,41C 220.346,48.5447 241.68,54.2114 263.5,58C 272.848,59.7185 282.181,59.7185 291.5,58C 296.519,57.3268 301.186,55.6601 305.5,53C 322.666,48.3722 334.499,54.2056 341,70.5C 343.385,81.3418 340.552,90.5085 332.5,98C 319.285,105.889 304.952,110.222 289.5,111C 270.606,111.977 251.939,110.311 233.5,106C 217.655,101.94 201.988,97.2738 186.5,92C 153.688,82.35 120.354,79.6833 86.5,84C 75.2568,85.5378 65.7568,90.3711 58,98.5C 51.8653,108.95 52.1987,119.284 59,129.5C 69.7765,143.456 82.9431,154.456 98.5,162.5C 129.522,131.111 166.522,120.944 209.5,132C 224.634,136.23 237.967,143.563 249.5,154C 253.5,156 257.5,156 261.5,154C 295.955,126.439 333.955,120.439 375.5,136C 423.382,159.908 445.215,198.742 441,252.5C 457.745,259.04 472.079,269.04 484,282.5C 504.428,317.555 496.928,345.055 461.5,365C 433.752,378.138 404.752,387.471 374.5,393C 353.984,397.53 333.317,401.197 312.5,404C 300.167,415.667 287.833,427.333 275.5,439C 264.751,448.282 253.085,449.616 240.5,443C 232.833,436 225.167,429 217.5,422C 201.929,423.413 187.595,428.413 174.5,437C 169.913,441.228 168.413,446.394 170,452.5C 173.26,460.737 176.927,468.737 181,476.5C 183.22,489.54 178.72,499.373 167.5,506C 150.11,512.053 137.277,506.886 129,490.5C 104.53,438.575 118.696,401.408 171.5,379C 149.467,357.966 127.134,337.299 104.5,317C 74.5455,286.705 63.7121,250.538 72,208.5C 52.9758,198.146 36.3092,184.812 22,168.5C -0.222636,140.819 -4.55597,110.486 9,77.5C 21.8009,55.4959 40.6342,41.3292 65.5,35C 75.2262,32.7155 84.8928,30.8822 94.5,29.5 Z M 386.5,335.5 C 398.355,324.479 409.688,312.979 420.5,301C 428.932,302.302 436.099,306.135 442,312.5C 442.711,314.367 442.211,315.867 440.5,317C 423.381,325.651 405.381,331.818 386.5,335.5 Z"/></g>
<g><path style="opacity:1" fill="#c7eaef" d="M 97.5,45.5 C 142.945,44.4631 186.945,51.9631 229.5,68C 249.774,73.9845 270.441,76.3178 291.5,75C 299.672,73.4981 307.505,70.9981 315,67.5C 326.535,70.9217 328.369,77.0884 320.5,86C 306.331,92.9303 291.331,95.7637 275.5,94.5C 262.292,94.8276 249.292,93.3276 236.5,90C 221.046,85.7377 205.713,81.071 190.5,76C 153.334,64.9974 115.668,62.6641 77.5,69C 40.7807,78.938 29.6141,101.438 44,136.5C 54.8745,151.851 68.3745,164.351 84.5,174C 122.046,195.628 162.046,210.962 204.5,220C 246.743,227.541 289.076,234.541 331.5,241C 368.62,246.564 404.62,256.231 439.5,270C 450.642,274.985 460.475,281.818 469,290.5C 480.416,304.829 481.416,319.829 472,335.5C 460.132,347.675 445.965,356.175 429.5,361C 398.413,371.033 366.747,378.367 334.5,383C 343.025,375.23 351.359,367.23 359.5,359C 387.924,353.644 415.59,345.644 442.5,335C 463.936,323.264 464.936,309.931 445.5,295C 437.563,290.198 429.23,286.198 420.5,283C 402.761,277.065 384.761,272.065 366.5,268C 315.975,258.468 265.309,249.801 214.5,242C 166.482,232.995 121.149,216.662 78.5,193C 62.2584,183.437 47.7584,171.604 35,157.5C 13.7378,131.307 12.0712,103.973 30,75.5C 40.6978,63.3987 53.8645,55.2321 69.5,51C 78.8686,48.6093 88.202,46.776 97.5,45.5 Z"/></g>
<g><path style="opacity:1" fill="#f0698b" d="M 163.5,144.5 C 184.237,142.178 203.903,145.678 222.5,155C 230.5,160.333 238.5,165.667 246.5,171C 254.095,173.34 261.428,172.673 268.5,169C 298.984,142.839 332.984,137.173 370.5,152C 408.957,171.663 426.957,203.163 424.5,246.5C 397.885,238.597 370.885,232.097 343.5,227C 299.1,220.075 254.766,212.742 210.5,205C 176.504,198.225 144.171,186.891 113.5,171C 127.55,157.143 144.217,148.309 163.5,144.5 Z"/></g>
<g><path style="opacity:1" fill="#f1698c" d="M 87.5,216.5 C 122.892,233.798 159.892,246.632 198.5,255C 247.808,263.462 297.141,271.795 346.5,280C 365.766,283.925 384.766,288.758 403.5,294.5C 398.72,300.783 393.387,306.616 387.5,312C 345.199,350.633 303.199,389.633 261.5,429C 258.298,430.483 254.964,430.817 251.5,430C 208.833,390.667 166.167,351.333 123.5,312C 93.8515,286.895 81.8515,255.062 87.5,216.5 Z"/></g>
<g><path style="opacity:0.958" fill="#010001" d="M -0.5,379.5 C -0.5,375.5 -0.5,371.5 -0.5,367.5C 2.42424,363.086 6.42424,359.92 11.5,358C 19.5,355.667 27.5,353.333 35.5,351C 39.2034,339.522 43.0367,328.022 47,316.5C 51.5297,310.829 57.363,308.996 64.5,311C 70.6912,315.198 74.5245,321.032 76,328.5C 77.3786,336.015 79.3786,343.349 82,350.5C 92.3925,353.308 102.559,356.808 112.5,361C 121.987,370.067 121.654,378.734 111.5,387C 101.459,390.506 91.4594,394.006 81.5,397.5C 78.8996,408.336 75.7329,419.002 72,429.5C 64.0684,439.619 55.7351,439.952 47,430.5C 46,428.5 45,426.5 44,424.5C 41.7489,415.234 39.2489,406.067 36.5,397C 27.1667,394 17.8333,391 8.5,388C 4.97345,385.638 1.97345,382.804 -0.5,379.5 Z"/></g>
<g><path style="opacity:1" fill="#ed97b6" d="M 58.5,330.5 C 61.2187,340.188 64.3853,349.854 68,359.5C 70.592,362.762 73.7587,365.262 77.5,367C 85.4611,368.571 93.1278,370.904 100.5,374C 90.9463,376.375 81.613,379.375 72.5,383C 68.2789,386.605 65.4455,391.105 64,396.5C 62.5464,403.223 60.8797,409.89 59,416.5C 57.2269,409.53 55.5603,402.53 54,395.5C 52.2633,388.5 48.0967,383.667 41.5,381C 33.5,378.667 25.5,376.333 17.5,374C 25.6342,370.88 33.9675,368.213 42.5,366C 48.6219,362.613 52.4552,357.446 54,350.5C 55.5039,343.819 57.0039,337.153 58.5,330.5 Z"/></g>
<g><path style="opacity:1" fill="#c7eaee" d="M 184.5,391.5 C 190.997,395.941 196.997,401.108 202.5,407C 185.286,410.521 170.453,418.355 158,430.5C 151.109,441.899 150.775,453.566 157,465.5C 159.898,471.038 162.731,476.538 165.5,482C 164.27,489.442 159.936,492.775 152.5,492C 144.098,484.716 138.598,475.549 136,464.5C 128.89,436.225 138.057,415.058 163.5,401C 170.56,397.714 177.56,394.547 184.5,391.5 Z"/></g>
<g><path style="opacity:0.958" fill="#010101" d="M 432.5,511.5 C 428.833,511.5 425.167,511.5 421.5,511.5C 417.811,508.971 414.978,505.638 413,501.5C 410.354,492.916 408.021,484.249 406,475.5C 396.786,472.54 387.619,469.373 378.5,466C 371.456,460.667 369.623,453.833 373,445.5C 374.833,443.667 376.667,441.833 378.5,440C 387.709,436.908 396.875,433.741 406,430.5C 408.121,420.22 411.121,410.22 415,400.5C 419.53,394.829 425.363,392.996 432.5,395C 438.119,399.052 441.619,404.552 443,411.5C 444.2,417.969 445.867,424.303 448,430.5C 457.574,433.609 467.074,437.109 476.5,441C 484.5,449 484.5,457 476.5,465C 467.074,468.891 457.574,472.391 448,475.5C 445.668,483.822 443.335,492.155 441,500.5C 439.418,505.235 436.585,508.902 432.5,511.5 Z"/></g>
<g><path style="opacity:1" fill="#ed97b5" d="M 426.5,416.5 C 428.601,424.969 431.435,433.302 435,441.5C 437.234,443.7 439.734,445.533 442.5,447C 449.25,448.749 455.916,450.749 462.5,453C 455.742,454.69 449.075,456.69 442.5,459C 436.508,461.659 432.675,466.159 431,472.5C 429.559,478.149 428.226,483.816 427,489.5C 425.228,483.21 423.561,476.876 422,470.5C 420.167,464.667 416.333,460.833 410.5,459C 403.822,456.998 397.155,454.998 390.5,453C 397.155,451.002 403.822,449.002 410.5,447C 416.731,445.037 420.564,440.87 422,434.5C 423.505,428.481 425.005,422.481 426.5,416.5 Z"/></g>
</svg>
