<?xml version="1.0" encoding="UTF-8"?>
<!DOCTYPE svg PUBLIC "-//W3C//DTD SVG 1.1//EN" "http://www.w3.org/Graphics/SVG/1.1/DTD/svg11.dtd">
<svg xmlns="http://www.w3.org/2000/svg" version="1.1" width="512px" height="512px" style="shape-rendering:geometricPrecision; text-rendering:geometricPrecision; image-rendering:optimizeQuality; fill-rule:evenodd; clip-rule:evenodd" xmlns:xlink="http://www.w3.org/1999/xlink">
<g><path style="opacity:0.997" fill="#feb2c7" d="M 511.5,169.5 C 511.5,182.167 511.5,194.833 511.5,207.5C 504.335,260.827 482.835,307.493 447,347.5C 394.31,404.645 330.477,443.978 255.5,465.5C 180.458,444.076 116.624,404.743 64,347.5C 28.4581,307.746 6.95808,261.413 -0.5,208.5C -0.5,195.5 -0.5,182.5 -0.5,169.5C 9.42852,102.398 47.7619,61.8983 114.5,48C 170.613,39.2012 217.613,55.7012 255.5,97.5C 301.94,48.1667 357.607,34 422.5,55C 475.265,75.2593 504.931,113.426 511.5,169.5 Z"/></g>
<g><path style="opacity:1" fill="#080606" d="M 191.5,151.5 C 200.307,149.321 206.474,152.321 210,160.5C 210.667,175.167 210.667,189.833 210,204.5C 206.748,213.044 200.581,216.211 191.5,214C 187.698,211.913 185.198,208.746 184,204.5C 183.333,189.833 183.333,175.167 184,160.5C 185.642,156.7 188.142,153.7 191.5,151.5 Z"/></g>
<g><path style="opacity:1" fill="#080506" d="M 308.5,151.5 C 317.663,149.53 323.83,152.863 327,161.5C 327.667,175.833 327.667,190.167 327,204.5C 323.711,213.062 317.545,216.229 308.5,214C 304.942,212.108 302.442,209.275 301,205.5C 300.333,190.5 300.333,175.5 301,160.5C 302.642,156.7 305.142,153.7 308.5,151.5 Z"/></g>
<g><path style="opacity:1" fill="#ff5f7f" d="M 113.5,200.5 C 124.586,199.357 134.92,201.524 144.5,207C 152.336,213.865 153.502,221.699 148,230.5C 140.316,237.175 131.316,240.508 121,240.5C 112.182,240.275 104.349,237.442 97.5,232C 89.0906,220.103 91.4239,210.77 104.5,204C 107.79,203.275 110.79,202.108 113.5,200.5 Z"/></g>
<g><path style="opacity:1" fill="#ff5f7f" d="M 380.5,201.5 C 391.552,200.347 401.885,202.514 411.5,208C 419.806,215.424 420.64,223.591 414,232.5C 398.192,243.895 382.026,244.395 365.5,234C 357.203,225.007 357.536,216.34 366.5,208C 370.877,204.975 375.544,202.808 380.5,201.5 Z"/></g>
<g><path style="opacity:1" fill="#050404" d="M 182.5,248.5 C 186.909,247.618 190.409,248.952 193,252.5C 199.319,287.154 219.986,306.154 255,309.5C 282.173,307.969 301.506,294.969 313,270.5C 314.942,263.556 317.109,256.723 319.5,250C 326.575,246.871 330.909,249.037 332.5,256.5C 323.56,298.775 297.56,321.442 254.5,324.5C 212.521,320.524 187.187,297.858 178.5,256.5C 178.782,253.269 180.115,250.602 182.5,248.5 Z"/></g>
</svg>
