<?xml version="1.0" encoding="UTF-8"?>
<!DOCTYPE svg PUBLIC "-//W3C//DTD SVG 1.1//EN" "http://www.w3.org/Graphics/SVG/1.1/DTD/svg11.dtd">
<svg xmlns="http://www.w3.org/2000/svg" version="1.1" width="512px" height="512px" style="shape-rendering:geometricPrecision; text-rendering:geometricPrecision; image-rendering:optimizeQuality; fill-rule:evenodd; clip-rule:evenodd" xmlns:xlink="http://www.w3.org/1999/xlink">
<g><path style="opacity:0.966" fill="#020000" d="M 56.5,-0.5 C 64.8333,-0.5 73.1667,-0.5 81.5,-0.5C 104.544,4.45366 122.711,16.787 136,36.5C 149.289,16.787 167.456,4.45366 190.5,-0.5C 198.833,-0.5 207.167,-0.5 215.5,-0.5C 234.13,4.61628 248.297,15.6163 258,32.5C 267.896,51.979 273.23,72.6456 274,94.5C 290.969,84.1341 309.136,81.6341 328.5,87C 348.321,93.1521 363.821,104.985 375,122.5C 394.618,92.7788 422.118,80.6121 457.5,86C 470.712,89.5409 481.545,96.7076 490,107.5C 501.609,124.173 508.776,142.506 511.5,162.5C 511.5,171.833 511.5,181.167 511.5,190.5C 508.507,202.291 504.007,213.624 498,224.5C 480.373,251.132 458.873,274.298 433.5,294C 418.853,305.323 403.853,316.157 388.5,326.5C 396.398,353.233 393.231,378.567 379,402.5C 363.45,426.395 344.617,447.561 322.5,466C 302.436,482.579 281.436,497.746 259.5,511.5C 256.833,511.5 254.167,511.5 251.5,511.5C 215.681,489.62 183.181,463.287 154,432.5C 138.022,415.22 126.689,395.22 120,372.5C 115.821,341.554 122.487,313.221 140,287.5C 158.105,265.922 180.939,258.755 208.5,266C 217.504,268.669 225.837,272.669 233.5,278C 241.712,284.712 249.046,292.212 255.5,300.5C 260.252,294.243 265.585,288.41 271.5,283C 277.326,278.587 283.326,274.42 289.5,270.5C 271.39,252.896 256.557,232.896 245,210.5C 239.121,196.361 236.788,181.694 238,166.5C 209.319,197.398 177.152,223.898 141.5,246C 138.634,247.457 135.634,247.79 132.5,247C 96.8001,225.033 64.3001,198.867 35,168.5C 22.6085,154.766 12.6085,139.432 5,122.5C 2.83236,116.469 0.999023,110.469 -0.5,104.5C -0.5,95.5 -0.5,86.5 -0.5,77.5C 2.42952,53.8069 11.7629,32.9735 27.5,15C 36.0947,7.70434 45.7614,2.53767 56.5,-0.5 Z"/></g>
<g><path style="opacity:1" fill="#f78b95" d="M 60.5,16.5 C 81.8082,14.7672 99.6416,21.7672 114,37.5C 119.459,44.6275 125.292,51.4608 131.5,58C 134.5,60 137.5,60 140.5,58C 148.599,48.4783 156.932,39.145 165.5,30C 183.54,15.3128 203.206,12.6461 224.5,22C 236.11,30.6153 244.276,41.7819 249,55.5C 259.367,81.9011 257.367,107.234 243,131.5C 230.705,149.804 216.205,166.304 199.5,181C 179.464,198.373 158.297,214.206 136,228.5C 99.4462,205.96 67.1128,178.293 39,145.5C 10.357,109.255 9.02368,71.922 35,33.5C 41.8444,25.1219 50.3444,19.4553 60.5,16.5 Z"/></g>
<g><path style="opacity:1" fill="#040404" d="M 229.5,58.5 C 223.537,59.0454 217.87,58.3787 212.5,56.5C 211.294,52.6349 208.627,50.6349 204.5,50.5C 204.5,44.8333 204.5,39.1667 204.5,33.5C 219.88,34.88 228.213,43.2133 229.5,58.5 Z"/></g>
<g><path style="opacity:1" fill="#453d3e" d="M 212.5,56.5 C 217.87,58.3787 223.537,59.0454 229.5,58.5C 224.025,59.4889 218.358,59.8222 212.5,59.5C 212.5,58.5 212.5,57.5 212.5,56.5 Z"/></g>
<g><path style="opacity:1" fill="#544748" d="M 229.5,85.5 C 223.537,84.9546 217.87,85.6213 212.5,87.5C 212.5,86.5 212.5,85.5 212.5,84.5C 218.358,84.1778 224.025,84.5111 229.5,85.5 Z"/></g>
<g><path style="opacity:1" fill="#050404" d="M 229.5,85.5 C 228.881,100.194 224.715,113.861 217,126.5C 199.321,153.512 176.988,175.846 150,193.5C 146.88,190.628 144.213,187.295 142,183.5C 141.018,182.241 140.685,180.908 141,179.5C 163.168,163.753 182.502,145.086 199,123.5C 206.572,112.614 211.072,100.614 212.5,87.5C 217.87,85.6213 223.537,84.9546 229.5,85.5 Z"/></g>
<g><path style="opacity:1" fill="#db3d45" d="M 300.5,101.5 C 319.091,100.529 335.258,106.196 349,118.5C 355.5,126.333 362,134.167 368.5,142C 371.919,144.846 375.586,145.18 379.5,143C 386.373,135.795 392.873,128.295 399,120.5C 415.732,103.42 435.565,98.2537 458.5,105C 472.077,112.629 481.577,123.795 487,138.5C 498.467,165.443 496.8,191.443 482,216.5C 472.481,230.679 461.647,243.846 449.5,256C 428.457,275.217 406.124,292.717 382.5,308.5C 374.761,290.264 362.094,276.764 344.5,268C 340.58,266.687 336.58,265.687 332.5,265C 324.833,264.667 317.167,264.333 309.5,264C 288.45,246.295 271.95,225.128 260,200.5C 251.765,171.002 256.432,143.668 274,118.5C 281.058,109.898 289.892,104.231 300.5,101.5 Z"/></g>
<g><path style="opacity:1" fill="#9b5256" d="M 448.5,119.5 C 446.833,119.5 445.167,119.5 443.5,119.5C 442.955,125.463 443.621,131.13 445.5,136.5C 444.5,136.5 443.5,136.5 442.5,136.5C 442.5,130.5 442.5,124.5 442.5,118.5C 444.735,118.205 446.735,118.539 448.5,119.5 Z"/></g>
<g><path style="opacity:1" fill="#050303" d="M 448.5,119.5 C 461.597,122.696 468.264,131.029 468.5,144.5C 462.833,144.5 457.167,144.5 451.5,144.5C 451.428,140.346 449.428,137.68 445.5,136.5C 443.621,131.13 442.955,125.463 443.5,119.5C 445.167,119.5 446.833,119.5 448.5,119.5 Z"/></g>
<g><path style="opacity:1" fill="#070505" d="M 451.5,170.5 C 457.167,170.5 462.833,170.5 468.5,170.5C 467.334,189.832 460.834,207.165 449,222.5C 431.859,244.81 411.693,263.81 388.5,279.5C 384.56,274.934 381.726,269.934 380,264.5C 399.733,250.456 417.4,234.122 433,215.5C 443.585,202.329 449.751,187.329 451.5,170.5 Z"/></g>
<g><path style="opacity:1" fill="#f78b95" d="M 177.5,281.5 C 199.518,278.781 218.018,285.448 233,301.5C 238.793,308.961 244.959,316.128 251.5,323C 254.634,323.79 257.634,323.457 260.5,322C 266.708,315.461 272.541,308.627 278,301.5C 298.117,279.682 321.283,275.515 347.5,289C 362.285,303.402 371.118,320.902 374,341.5C 375.95,355.995 374.283,369.995 369,383.5C 362.906,396.249 355.239,407.916 346,418.5C 319.216,446.447 289.716,470.947 257.5,492C 254.983,492.257 252.65,491.59 250.5,490C 217.715,468.897 188.215,443.731 162,414.5C 130.816,377.97 128.149,339.304 154,298.5C 160.433,290.718 168.267,285.052 177.5,281.5 Z"/></g>
<g><path style="opacity:1" fill="#080707" d="M 323.5,298.5 C 339.342,299.342 348.009,307.675 349.5,323.5C 343.833,323.5 338.167,323.5 332.5,323.5C 332.026,318.027 329.026,315.36 323.5,315.5C 323.5,309.833 323.5,304.167 323.5,298.5 Z"/></g>
<g><path style="opacity:1" fill="#040404" d="M 332.5,349.5 C 338.167,349.5 343.833,349.5 349.5,349.5C 348.093,367.971 341.927,384.638 331,399.5C 313.874,422.961 293.207,442.628 269,458.5C 265.71,454.088 262.544,449.588 259.5,445C 279.241,430.594 297.074,414.094 313,395.5C 324.165,382.168 330.665,366.834 332.5,349.5 Z"/></g>
</svg>
