<?xml version="1.0" encoding="UTF-8"?>
<!DOCTYPE svg PUBLIC "-//W3C//DTD SVG 1.1//EN" "http://www.w3.org/Graphics/SVG/1.1/DTD/svg11.dtd">
<svg xmlns="http://www.w3.org/2000/svg" version="1.1" width="512px" height="512px" style="shape-rendering:geometricPrecision; text-rendering:geometricPrecision; image-rendering:optimizeQuality; fill-rule:evenodd; clip-rule:evenodd" xmlns:xlink="http://www.w3.org/1999/xlink">
<g><path style="opacity:0.99" fill="#ffdd00" d="M 401.5,46.5 C 304.167,46.5 206.833,46.5 109.5,46.5C 135.908,28.9807 164.908,17.4807 196.5,12C 235.833,6 275.167,6 314.5,12C 346.218,17.1724 375.218,28.6724 401.5,46.5 Z"/></g>
<g><path style="opacity:0.996" fill="#fed700" d="M 109.5,46.5 C 206.833,46.5 304.167,46.5 401.5,46.5C 416.308,55.9643 429.641,67.2976 441.5,80.5C 420.167,80.5 398.833,80.5 377.5,80.5C 366.448,75.1537 354.782,72.1537 342.5,71.5C 334.192,71.1599 326.526,73.1599 319.5,77.5C 317.999,78.7515 316.332,79.7515 314.5,80.5C 275.167,80.5 235.833,80.5 196.5,80.5C 194.668,79.7515 193.001,78.7515 191.5,77.5C 179.805,71.3796 167.471,69.8796 154.5,73C 147.363,75.2117 140.363,77.7117 133.5,80.5C 112.327,80.8306 91.3267,80.4973 70.5,79.5C 82.0277,66.6291 95.0277,55.6291 109.5,46.5 Z"/></g>
<g><path style="opacity:1" fill="#ff6d7a" d="M 191.5,77.5 C 167.491,83.3692 143.158,88.3692 118.5,92.5C 119.625,90.8712 120.959,89.3712 122.5,88C 126.345,85.637 130.011,83.137 133.5,80.5C 140.363,77.7117 147.363,75.2117 154.5,73C 167.471,69.8796 179.805,71.3796 191.5,77.5 Z"/></g>
<g><path style="opacity:1" fill="#fe6d7a" d="M 377.5,80.5 C 382.757,83.7486 387.757,87.4153 392.5,91.5C 391.903,92.1386 391.07,92.472 390,92.5C 366.222,88.0465 342.722,83.0465 319.5,77.5C 326.526,73.1599 334.192,71.1599 342.5,71.5C 354.782,72.1537 366.448,75.1537 377.5,80.5 Z"/></g>
<g><path style="opacity:1" fill="#ff6271" d="M 191.5,77.5 C 193.001,78.7515 194.668,79.7515 196.5,80.5C 199.167,83.5 201.833,86.5 204.5,89.5C 206.678,92.5231 208.345,95.8564 209.5,99.5C 206.786,96.7846 203.786,94.4512 200.5,92.5C 187.285,85.043 173.285,83.543 158.5,88C 150.906,90.2287 143.572,93.062 136.5,96.5C 128.09,97.7819 119.757,99.4486 111.5,101.5C 110.893,101.376 110.56,101.043 110.5,100.5C 112.288,96.8962 114.955,94.2295 118.5,92.5C 143.158,88.3692 167.491,83.3692 191.5,77.5 Z"/></g>
<g><path style="opacity:1" fill="#fe6171" d="M 319.5,77.5 C 342.722,83.0465 366.222,88.0465 390,92.5C 391.07,92.472 391.903,92.1386 392.5,91.5C 395.881,93.8797 398.547,96.8797 400.5,100.5C 400.44,101.043 400.107,101.376 399.5,101.5C 390.931,99.3195 382.264,97.6529 373.5,96.5C 360.837,89.9581 347.337,86.2914 333,85.5C 324.634,85.3458 317.134,87.6791 310.5,92.5C 307.214,94.4512 304.214,96.7846 301.5,99.5C 302.655,95.8564 304.322,92.5231 306.5,89.5C 309.167,86.5 311.833,83.5 314.5,80.5C 316.332,79.7515 317.999,78.7515 319.5,77.5 Z"/></g>
<g><path style="opacity:0.994" fill="#fed101" d="M 70.5,79.5 C 91.3267,80.4973 112.327,80.8306 133.5,80.5C 130.011,83.137 126.345,85.637 122.5,88C 120.959,89.3712 119.625,90.8712 118.5,92.5C 114.955,94.2295 112.288,96.8962 110.5,100.5C 107.842,103.803 105.175,107.136 102.5,110.5C 99.2593,107.713 95.5927,105.713 91.5,104.5C 86.5397,102.09 81.2063,100.59 75.5,100C 68.5079,99.5004 61.5079,99.3337 54.5,99.5C 59.3636,92.429 64.6969,85.7624 70.5,79.5 Z"/></g>
<g><path style="opacity:1" fill="#fdd100" d="M 196.5,80.5 C 235.833,80.5 275.167,80.5 314.5,80.5C 311.833,83.5 309.167,86.5 306.5,89.5C 298.766,96.2465 293.432,104.58 290.5,114.5C 267.167,114.5 243.833,114.5 220.5,114.5C 217.568,104.58 212.234,96.2465 204.5,89.5C 201.833,86.5 199.167,83.5 196.5,80.5 Z"/></g>
<g><path style="opacity:0.992" fill="#fed101" d="M 377.5,80.5 C 398.833,80.5 420.167,80.5 441.5,80.5C 446.85,86.5216 451.85,92.8549 456.5,99.5C 448.826,99.3336 441.159,99.5003 433.5,100C 428.508,100.832 423.841,102.332 419.5,104.5C 415.327,105.837 411.493,107.837 408,110.5C 405.723,106.92 403.223,103.586 400.5,100.5C 398.547,96.8797 395.881,93.8797 392.5,91.5C 387.757,87.4153 382.757,83.7486 377.5,80.5 Z"/></g>
<g><path style="opacity:1" fill="#ff3d51" d="M 373.5,96.5 C 379.305,100.242 384.971,104.242 390.5,108.5C 394.075,112.653 397.409,116.986 400.5,121.5C 396.777,120.703 393.11,119.703 389.5,118.5C 387.312,115.819 384.646,113.652 381.5,112C 378.66,111.034 376.66,111.867 375.5,114.5C 354.324,105.997 332.658,98.6632 310.5,92.5C 317.134,87.6791 324.634,85.3458 333,85.5C 347.337,86.2914 360.837,89.9581 373.5,96.5 Z"/></g>
<g><path style="opacity:1" fill="#ed8d06" d="M 204.5,89.5 C 212.234,96.2465 217.568,104.58 220.5,114.5C 224.159,127.029 224.492,139.696 221.5,152.5C 217.531,164.07 213.531,175.737 209.5,187.5C 204.108,198.618 198.441,209.618 192.5,220.5C 184.971,232.372 176.637,243.705 167.5,254.5C 162.208,260.293 156.708,265.96 151,271.5C 135.658,267.076 120.825,261.409 106.5,254.5C 89.1092,245.475 73.1092,234.475 58.5,221.5C 59.609,221.557 60.609,221.89 61.5,222.5C 76.6282,234.586 93.2949,244.253 111.5,251.5C 121.578,256.363 132.078,260.363 143,263.5C 152.815,253.863 161.649,243.53 169.5,232.5C 183.56,215.062 194.56,195.729 202.5,174.5C 206.473,165.914 209.473,156.914 211.5,147.5C 213.245,143.8 214.245,139.8 214.5,135.5C 216.043,127.619 215.71,119.953 213.5,112.5C 212.943,107.835 211.61,103.502 209.5,99.5C 208.345,95.8564 206.678,92.5231 204.5,89.5 Z"/></g>
<g><path style="opacity:1" fill="#ed8c07" d="M 306.5,89.5 C 304.322,92.5231 302.655,95.8564 301.5,99.5C 299.102,103.403 297.769,107.736 297.5,112.5C 296.549,113.919 296.216,115.585 296.5,117.5C 295.083,127.484 295.749,137.484 298.5,147.5C 301.064,156.868 304.398,165.868 308.5,174.5C 316.44,195.729 327.44,215.062 341.5,232.5C 348.896,243.887 357.729,254.22 368,263.5C 378.922,260.363 389.422,256.363 399.5,251.5C 417.769,244.373 434.435,234.707 449.5,222.5C 451.85,221.139 454.184,219.806 456.5,218.5C 456.167,219.167 455.833,219.833 455.5,220.5C 439.565,233.436 422.565,244.769 404.5,254.5C 390.175,261.409 375.342,267.076 360,271.5C 354.292,265.96 348.792,260.293 343.5,254.5C 334.363,243.705 326.029,232.372 318.5,220.5C 312.559,209.618 306.892,198.618 301.5,187.5C 297.471,175.744 293.471,164.077 289.5,152.5C 286.509,139.709 286.842,127.043 290.5,114.5C 293.432,104.58 298.766,96.2465 306.5,89.5 Z"/></g>
<g><path style="opacity:1" fill="#ff585b" d="M 187.5,97.5 C 191.027,99.2716 193.693,101.938 195.5,105.5C 193.239,107.255 190.572,108.422 187.5,109C 177.189,111.661 166.856,114.161 156.5,116.5C 155.167,115.833 154.167,114.833 153.5,113.5C 150.277,105.438 152.944,99.9381 161.5,97C 170.25,94.8401 178.917,95.0068 187.5,97.5 Z"/></g>
<g><path style="opacity:1" fill="#fe6474" d="M 456.5,99.5 C 469.086,100.97 480.419,105.47 490.5,113C 492.464,114.451 493.797,116.284 494.5,118.5C 493.903,119.139 493.07,119.472 492,119.5C 467.637,114.795 443.47,109.795 419.5,104.5C 423.841,102.332 428.508,100.832 433.5,100C 441.159,99.5003 448.826,99.3336 456.5,99.5 Z"/></g>
<g><path style="opacity:1" fill="#ff6373" d="M 54.5,99.5 C 61.5079,99.3337 68.5079,99.5004 75.5,100C 81.2063,100.59 86.5397,102.09 91.5,104.5C 67.5301,109.795 43.3634,114.795 19,119.5C 17.9302,119.472 17.0968,119.139 16.5,118.5C 17.2026,116.284 18.5359,114.451 20.5,113C 30.5811,105.47 41.9144,100.97 54.5,99.5 Z"/></g>
<g><path style="opacity:1" fill="#fd2f45" d="M 200.5,92.5 C 203.786,94.4512 206.786,96.7846 209.5,99.5C 211.61,103.502 212.943,107.835 213.5,112.5C 213.389,113.117 213.056,113.617 212.5,114C 207.835,115.611 203.168,117.111 198.5,118.5C 199.161,113.644 198.161,109.31 195.5,105.5C 193.693,101.938 191.027,99.2716 187.5,97.5C 191.126,94.5048 195.459,92.8381 200.5,92.5 Z"/></g>
<g><path style="opacity:1" fill="#ff586a" d="M 136.5,96.5 C 131.205,100.488 125.872,104.488 120.5,108.5C 107.999,110.767 95.4992,113.1 83,115.5C 66.6524,113.242 50.819,115.075 35.5,121C 30.358,124.238 25.0246,126.904 19.5,129C 17.1526,129.436 14.8193,129.936 12.5,130.5C 11.2867,130.253 10.62,129.586 10.5,128.5C 11.4977,124.495 13.4977,121.161 16.5,118.5C 17.0968,119.139 17.9302,119.472 19,119.5C 43.3634,114.795 67.5301,109.795 91.5,104.5C 95.5927,105.713 99.2593,107.713 102.5,110.5C 105.175,107.136 107.842,103.803 110.5,100.5C 110.56,101.043 110.893,101.376 111.5,101.5C 119.757,99.4486 128.09,97.7819 136.5,96.5 Z"/></g>
<g><path style="opacity:1" fill="#fe5869" d="M 373.5,96.5 C 382.264,97.6529 390.931,99.3195 399.5,101.5C 400.107,101.376 400.44,101.043 400.5,100.5C 403.223,103.586 405.723,106.92 408,110.5C 411.493,107.837 415.327,105.837 419.5,104.5C 443.47,109.795 467.637,114.795 492,119.5C 493.07,119.472 493.903,119.139 494.5,118.5C 498.121,122.071 500.454,126.404 501.5,131.5C 501.66,133.199 501.494,134.866 501,136.5C 499.266,135.751 497.433,135.251 495.5,135C 480.251,120.91 462.084,114.077 441,114.5C 436.648,114.624 432.315,114.957 428,115.5C 415.501,113.1 403.001,110.767 390.5,108.5C 384.971,104.242 379.305,100.242 373.5,96.5 Z"/></g>
<g><path style="opacity:1" fill="#f62a40" d="M 297.5,112.5 C 301.152,114.787 305.152,116.621 309.5,118C 335.372,126.512 361.038,135.179 386.5,144C 407.241,150.802 427.908,157.802 448.5,165C 450.728,169.473 454.062,172.807 458.5,175C 463.317,175.78 467.984,175.28 472.5,173.5C 479.529,175.511 486.529,177.511 493.5,179.5C 491.518,182.81 489.185,185.81 486.5,188.5C 423.745,167.637 361.079,146.471 298.5,125C 296.709,122.894 296.042,120.394 296.5,117.5C 296.216,115.585 296.549,113.919 297.5,112.5 Z"/></g>
<g><path style="opacity:0.994" fill="#ff485b" d="M 120.5,108.5 C 115.809,114.023 111.309,119.69 107,125.5C 98.2265,119.02 88.3931,116.187 77.5,117C 53.6488,124.999 30.3155,133.166 7.5,141.5C 7.42493,136.808 8.42493,132.474 10.5,128.5C 10.62,129.586 11.2867,130.253 12.5,130.5C 14.8193,129.936 17.1526,129.436 19.5,129C 25.0246,126.904 30.358,124.238 35.5,121C 50.819,115.075 66.6524,113.242 83,115.5C 95.4992,113.1 107.999,110.767 120.5,108.5 Z"/></g>
<g><path style="opacity:1" fill="#fdca00" d="M 220.5,114.5 C 243.833,114.5 267.167,114.5 290.5,114.5C 286.842,127.043 286.509,139.709 289.5,152.5C 266.833,153.833 244.167,153.833 221.5,152.5C 224.492,139.696 224.159,127.029 220.5,114.5 Z"/></g>
<g><path style="opacity:0.998" fill="#fe485b" d="M 390.5,108.5 C 403.001,110.767 415.501,113.1 428,115.5C 432.315,114.957 436.648,114.624 441,114.5C 462.084,114.077 480.251,120.91 495.5,135C 497.433,135.251 499.266,135.751 501,136.5C 501.494,134.866 501.66,133.199 501.5,131.5C 502.768,133.905 503.435,136.572 503.5,139.5C 499.472,141.325 496.306,140.325 494,136.5C 474.08,129.193 453.913,122.693 433.5,117C 423.437,115.969 414.437,118.469 406.5,124.5C 403.547,125.771 401.547,124.771 400.5,121.5C 397.409,116.986 394.075,112.653 390.5,108.5 Z"/></g>
<g><path style="opacity:1" fill="#ff4651" d="M 195.5,105.5 C 198.161,109.31 199.161,113.644 198.5,118.5C 198.167,119.833 197.833,121.167 197.5,122.5C 187.811,124.672 178.144,127.006 168.5,129.5C 164.534,125.198 160.534,120.865 156.5,116.5C 166.856,114.161 177.189,111.661 187.5,109C 190.572,108.422 193.239,107.255 195.5,105.5 Z"/></g>
<g><path style="opacity:0.997" fill="#ff3c51" d="M 200.5,92.5 C 195.459,92.8381 191.126,94.5048 187.5,97.5C 178.917,95.0068 170.25,94.8401 161.5,97C 152.944,99.9381 150.277,105.438 153.5,113.5C 134.622,119.459 115.955,125.792 97.5,132.5C 92.6123,128.639 87.4457,127.973 82,130.5C 81.51,131.793 81.3433,133.127 81.5,134.5C 80.8485,133.909 80.1818,133.243 79.5,132.5C 55.81,140.508 32.1433,148.508 8.5,156.5C 7.51283,151.695 7.17949,146.695 7.5,141.5C 30.3155,133.166 53.6488,124.999 77.5,117C 88.3931,116.187 98.2265,119.02 107,125.5C 111.309,119.69 115.809,114.023 120.5,108.5C 125.872,104.488 131.205,100.488 136.5,96.5C 143.572,93.062 150.906,90.2287 158.5,88C 173.285,83.543 187.285,85.043 200.5,92.5 Z"/></g>
<g><path style="opacity:1" fill="#fb2d43" d="M 153.5,113.5 C 154.167,114.833 155.167,115.833 156.5,116.5C 160.534,120.865 164.534,125.198 168.5,129.5C 178.144,127.006 187.811,124.672 197.5,122.5C 193.509,135.33 184.843,140.83 171.5,139C 122.44,155.185 73.7735,172.018 25.5,189.5C 22.5,186.167 19.5,182.833 16.5,179.5C 14.3136,174.95 12.3136,170.283 10.5,165.5C 35.4127,157.209 60.4127,149.209 85.5,141.5C 88.297,143.761 90.6304,146.427 92.5,149.5C 96.429,148.184 100.429,147.184 104.5,146.5C 104.772,140.462 102.438,135.795 97.5,132.5C 115.955,125.792 134.622,119.459 153.5,113.5 Z"/></g>
<g><path style="opacity:1" fill="#f0283e" d="M 213.5,112.5 C 215.71,119.953 216.043,127.619 214.5,135.5C 153.693,156.436 92.6925,176.769 31.5,196.5C 29.5293,194.192 27.5293,191.858 25.5,189.5C 73.7735,172.018 122.44,155.185 171.5,139C 184.843,140.83 193.509,135.33 197.5,122.5C 197.833,121.167 198.167,119.833 198.5,118.5C 203.168,117.111 207.835,115.611 212.5,114C 213.056,113.617 213.389,113.117 213.5,112.5 Z"/></g>
<g><path style="opacity:1" fill="#ff4d55" d="M 389.5,118.5 C 391.844,124.1 392.011,129.766 390,135.5C 389.612,136.428 388.945,137.095 388,137.5C 384.383,136.461 380.883,135.128 377.5,133.5C 376.239,127.228 375.573,120.895 375.5,114.5C 376.66,111.867 378.66,111.034 381.5,112C 384.646,113.652 387.312,115.819 389.5,118.5 Z"/></g>
<g><path style="opacity:1" fill="#ff585b" d="M 487.5,151.5 C 487.5,152.167 487.5,152.833 487.5,153.5C 486.778,153.918 486.278,154.584 486,155.5C 473.681,150.671 461.181,146.338 448.5,142.5C 447.699,140.958 447.366,139.292 447.5,137.5C 448.799,128.837 453.799,125.67 462.5,128C 475.607,130.945 483.94,138.778 487.5,151.5 Z"/></g>
<g><path style="opacity:1" fill="#fe3f53" d="M 503.5,139.5 C 503.822,145.358 503.489,151.025 502.5,156.5C 497.421,155.029 492.421,153.363 487.5,151.5C 483.94,138.778 475.607,130.945 462.5,128C 453.799,125.67 448.799,128.837 447.5,137.5C 433.761,133.365 420.094,129.031 406.5,124.5C 414.437,118.469 423.437,115.969 433.5,117C 453.913,122.693 474.08,129.193 494,136.5C 496.306,140.325 499.472,141.325 503.5,139.5 Z"/></g>
<g><path style="opacity:0.995" fill="#ff354b" d="M 81.5,134.5 C 82.8611,136.85 84.1944,139.184 85.5,141.5C 60.4127,149.209 35.4127,157.209 10.5,165.5C 9.07209,162.697 8.40542,159.697 8.5,156.5C 32.1433,148.508 55.81,140.508 79.5,132.5C 80.1818,133.243 80.8485,133.909 81.5,134.5 Z"/></g>
<g><path style="opacity:1" fill="#fd2f45" d="M 310.5,92.5 C 332.658,98.6632 354.324,105.997 375.5,114.5C 375.573,120.895 376.239,127.228 377.5,133.5C 380.883,135.128 384.383,136.461 388,137.5C 388.945,137.095 389.612,136.428 390,135.5C 392.011,129.766 391.844,124.1 389.5,118.5C 393.11,119.703 396.777,120.703 400.5,121.5C 401.547,124.771 403.547,125.771 406.5,124.5C 420.094,129.031 433.761,133.365 447.5,137.5C 447.366,139.292 447.699,140.958 448.5,142.5C 449.696,148.113 450.696,153.78 451.5,159.5C 460.998,163.281 470.665,166.115 480.5,168C 484.646,164.073 486.979,159.239 487.5,153.5C 487.5,152.833 487.5,152.167 487.5,151.5C 492.421,153.363 497.421,155.029 502.5,156.5C 501.237,164.684 498.571,172.351 494.5,179.5C 494.167,179.5 493.833,179.5 493.5,179.5C 486.529,177.511 479.529,175.511 472.5,173.5C 467.984,175.28 463.317,175.78 458.5,175C 454.062,172.807 450.728,169.473 448.5,165C 427.908,157.802 407.241,150.802 386.5,144C 361.038,135.179 335.372,126.512 309.5,118C 305.152,116.621 301.152,114.787 297.5,112.5C 297.769,107.736 299.102,103.403 301.5,99.5C 304.214,96.7846 307.214,94.4512 310.5,92.5 Z"/></g>
<g><path style="opacity:1" fill="#ea263b" d="M 214.5,135.5 C 214.245,139.8 213.245,143.8 211.5,147.5C 155.745,166.029 100.079,184.863 44.5,204C 42.8659,204.494 41.1992,204.66 39.5,204.5C 36.5,202.167 33.8333,199.5 31.5,196.5C 92.6925,176.769 153.693,156.436 214.5,135.5 Z"/></g>
<g><path style="opacity:1" fill="#ec263c" d="M 296.5,117.5 C 296.042,120.394 296.709,122.894 298.5,125C 361.079,146.471 423.745,167.637 486.5,188.5C 481.871,194.797 476.538,200.463 470.5,205.5C 413.382,185.572 356.049,166.238 298.5,147.5C 295.749,137.484 295.083,127.484 296.5,117.5 Z"/></g>
<g><path style="opacity:1" fill="#ff4d55" d="M 97.5,132.5 C 102.438,135.795 104.772,140.462 104.5,146.5C 100.429,147.184 96.429,148.184 92.5,149.5C 90.6304,146.427 88.297,143.761 85.5,141.5C 84.1944,139.184 82.8611,136.85 81.5,134.5C 81.3433,133.127 81.51,131.793 82,130.5C 87.4457,127.973 92.6123,128.639 97.5,132.5 Z"/></g>
<g><path style="opacity:1" fill="#fcc400" d="M 221.5,152.5 C 244.167,153.833 266.833,153.833 289.5,152.5C 293.471,164.077 297.471,175.744 301.5,187.5C 270.833,187.5 240.167,187.5 209.5,187.5C 213.531,175.737 217.531,164.07 221.5,152.5 Z"/></g>
<g><path style="opacity:1" fill="#ff4651" d="M 448.5,142.5 C 461.181,146.338 473.681,150.671 486,155.5C 486.278,154.584 486.778,153.918 487.5,153.5C 486.979,159.239 484.646,164.073 480.5,168C 470.665,166.115 460.998,163.281 451.5,159.5C 450.696,153.78 449.696,148.113 448.5,142.5 Z"/></g>
<g><path style="opacity:1" fill="#df2236" d="M 211.5,147.5 C 209.473,156.914 206.473,165.914 202.5,174.5C 155.14,189.731 108.14,205.731 61.5,222.5C 60.609,221.89 59.609,221.557 58.5,221.5C 57.5,219.833 56.1667,218.5 54.5,217.5C 49.1793,213.511 44.1793,209.178 39.5,204.5C 41.1992,204.66 42.8659,204.494 44.5,204C 100.079,184.863 155.745,166.029 211.5,147.5 Z"/></g>
<g><path style="opacity:1" fill="#df2236" d="M 298.5,147.5 C 356.049,166.238 413.382,185.572 470.5,205.5C 465.833,209.833 461.167,214.167 456.5,218.5C 454.184,219.806 451.85,221.139 449.5,222.5C 402.86,205.731 355.86,189.731 308.5,174.5C 304.398,165.868 301.064,156.868 298.5,147.5 Z"/></g>
<g><path style="opacity:0.985" fill="#fcbd00" d="M 16.5,179.5 C 19.5,182.833 22.5,186.167 25.5,189.5C 27.5293,191.858 29.5293,194.192 31.5,196.5C 33.8333,199.5 36.5,202.167 39.5,204.5C 44.1793,209.178 49.1793,213.511 54.5,217.5C 54.5394,218.583 54.8728,219.583 55.5,220.5C 39.7701,221.181 24.1034,221.848 8.5,222.5C 10.3959,208.021 13.0626,193.687 16.5,179.5 Z"/></g>
<g><path style="opacity:1" fill="#fcbe00" d="M 209.5,187.5 C 240.167,187.5 270.833,187.5 301.5,187.5C 306.892,198.618 312.559,209.618 318.5,220.5C 276.5,221.833 234.5,221.833 192.5,220.5C 198.441,209.618 204.108,198.618 209.5,187.5 Z"/></g>
<g><path style="opacity:0.984" fill="#fcbd00" d="M 493.5,179.5 C 493.833,179.5 494.167,179.5 494.5,179.5C 497.81,193.382 500.476,207.382 502.5,221.5C 486.658,221.83 470.991,221.496 455.5,220.5C 455.833,219.833 456.167,219.167 456.5,218.5C 461.167,214.167 465.833,209.833 470.5,205.5C 476.538,200.463 481.871,194.797 486.5,188.5C 489.185,185.81 491.518,182.81 493.5,179.5 Z"/></g>
<g><path style="opacity:1" fill="#d51f32" d="M 202.5,174.5 C 194.56,195.729 183.56,215.062 169.5,232.5C 150.178,238.829 130.845,245.163 111.5,251.5C 93.2949,244.253 76.6282,234.586 61.5,222.5C 108.14,205.731 155.14,189.731 202.5,174.5 Z"/></g>
<g><path style="opacity:1" fill="#d51f32" d="M 308.5,174.5 C 355.86,189.731 402.86,205.731 449.5,222.5C 434.435,234.707 417.769,244.373 399.5,251.5C 380.155,245.163 360.822,238.829 341.5,232.5C 327.44,215.062 316.44,195.729 308.5,174.5 Z"/></g>
<g><path style="opacity:0.997" fill="#fbb700" d="M 54.5,217.5 C 56.1667,218.5 57.5,219.833 58.5,221.5C 73.1092,234.475 89.1092,245.475 106.5,254.5C 73.6709,255.498 40.6709,255.832 7.5,255.5C 7.28672,244.473 7.62006,233.473 8.5,222.5C 24.1034,221.848 39.7701,221.181 55.5,220.5C 54.8728,219.583 54.5394,218.583 54.5,217.5 Z"/></g>
<g><path style="opacity:0.997" fill="#fbb700" d="M 455.5,220.5 C 470.991,221.496 486.658,221.83 502.5,221.5C 503.356,232.81 503.69,244.143 503.5,255.5C 470.329,255.832 437.329,255.498 404.5,254.5C 422.565,244.769 439.565,233.436 455.5,220.5 Z"/></g>
<g><path style="opacity:1" fill="#fbb800" d="M 192.5,220.5 C 234.5,221.833 276.5,221.833 318.5,220.5C 326.029,232.372 334.363,243.705 343.5,254.5C 284.833,255.833 226.167,255.833 167.5,254.5C 176.637,243.705 184.971,232.372 192.5,220.5 Z"/></g>
<g><path style="opacity:1" fill="#df2537" d="M 169.5,232.5 C 161.649,243.53 152.815,253.863 143,263.5C 132.078,260.363 121.578,256.363 111.5,251.5C 130.845,245.163 150.178,238.829 169.5,232.5 Z"/></g>
<g><path style="opacity:1" fill="#df2437" d="M 341.5,232.5 C 360.822,238.829 380.155,245.163 399.5,251.5C 389.422,256.363 378.922,260.363 368,263.5C 357.729,254.22 348.896,243.887 341.5,232.5 Z"/></g>
<g><path style="opacity:0.999" fill="#fbb100" d="M 106.5,254.5 C 120.825,261.409 135.658,267.076 151,271.5C 156.708,265.96 162.208,260.293 167.5,254.5C 226.167,255.833 284.833,255.833 343.5,254.5C 348.792,260.293 354.292,265.96 360,271.5C 375.342,267.076 390.175,261.409 404.5,254.5C 437.329,255.498 470.329,255.832 503.5,255.5C 503.902,268.576 503.236,281.576 501.5,294.5C 467.5,294.5 433.5,294.5 399.5,294.5C 398.646,289.816 395.813,287.483 391,287.5C 381.191,289.911 371.357,292.244 361.5,294.5C 290.833,294.5 220.167,294.5 149.5,294.5C 139.204,292.718 129.037,290.384 119,287.5C 114.715,287.952 112.215,290.285 111.5,294.5C 77.5,294.5 43.5,294.5 9.5,294.5C 7.76429,281.576 7.09762,268.576 7.5,255.5C 40.6709,255.832 73.6709,255.498 106.5,254.5 Z"/></g>
<g><path style="opacity:1" fill="#ec8e09" d="M 149.5,294.5 C 220.163,310.396 290.829,310.396 361.5,294.5C 371.357,292.244 381.191,289.911 391,287.5C 395.813,287.483 398.646,289.816 399.5,294.5C 399.5,296.5 399.5,298.5 399.5,300.5C 397.859,297.339 395.193,295.672 391.5,295.5C 373.813,300.008 356.147,304.008 338.5,307.5C 287.922,315.884 237.255,316.55 186.5,309.5C 163.783,305.862 141.283,301.195 119,295.5C 115.52,295.831 113.02,297.498 111.5,300.5C 111.5,298.5 111.5,296.5 111.5,294.5C 112.215,290.285 114.715,287.952 119,287.5C 129.037,290.384 139.204,292.718 149.5,294.5 Z"/></g>
<g><path style="opacity:0.996" fill="#fbab00" d="M 9.5,294.5 C 43.5,294.5 77.5,294.5 111.5,294.5C 111.5,296.5 111.5,298.5 111.5,300.5C 111.5,302.833 111.5,305.167 111.5,307.5C 111.216,315.024 112.216,322.357 114.5,329.5C 81.6835,327.838 49.0168,328.171 16.5,330.5C 13.3976,318.654 11.0642,306.654 9.5,294.5 Z"/></g>
<g><path style="opacity:1" fill="#fbad00" d="M 149.5,294.5 C 220.167,294.5 290.833,294.5 361.5,294.5C 290.829,310.396 220.163,310.396 149.5,294.5 Z"/></g>
<g><path style="opacity:0.996" fill="#fbab00" d="M 399.5,294.5 C 433.5,294.5 467.5,294.5 501.5,294.5C 500.186,306.072 497.852,317.406 494.5,328.5C 461.76,328.174 429.093,328.508 396.5,329.5C 398.794,322.359 399.794,315.026 399.5,307.5C 399.5,305.167 399.5,302.833 399.5,300.5C 399.5,298.5 399.5,296.5 399.5,294.5 Z"/></g>
<g><path style="opacity:1" fill="#b5b0ab" d="M 399.5,300.5 C 399.5,302.833 399.5,305.167 399.5,307.5C 399.167,307.5 398.833,307.5 398.5,307.5C 378.5,307.5 358.5,307.5 338.5,307.5C 356.147,304.008 373.813,300.008 391.5,295.5C 395.193,295.672 397.859,297.339 399.5,300.5 Z"/></g>
<g><path style="opacity:1" fill="#b7b4b2" d="M 186.5,309.5 C 162.006,310.498 137.339,310.831 112.5,310.5C 112.737,309.209 112.404,308.209 111.5,307.5C 111.5,305.167 111.5,302.833 111.5,300.5C 113.02,297.498 115.52,295.831 119,295.5C 141.283,301.195 163.783,305.862 186.5,309.5 Z"/></g>
<g><path style="opacity:1" fill="#f6bb07" d="M 111.5,307.5 C 112.404,308.209 112.737,309.209 112.5,310.5C 112.325,312.621 112.659,314.621 113.5,316.5C 113.433,317.959 113.766,319.292 114.5,320.5C 114.392,322.514 115.058,324.18 116.5,325.5C 120.786,345.058 130.12,362.058 144.5,376.5C 150.554,382.887 157.221,388.554 164.5,393.5C 175.234,402.206 187.234,408.873 200.5,413.5C 237.067,426.795 273.734,426.795 310.5,413.5C 323.766,408.873 335.766,402.206 346.5,393.5C 353.779,388.554 360.446,382.887 366.5,376.5C 380.52,362.145 390.186,345.145 395.5,325.5C 396.301,323.958 396.634,322.292 396.5,320.5C 397.234,319.292 397.567,317.959 397.5,316.5C 398.403,313.609 398.736,310.609 398.5,307.5C 398.833,307.5 399.167,307.5 399.5,307.5C 399.794,315.026 398.794,322.359 396.5,329.5C 394.116,341.268 389.783,352.268 383.5,362.5C 375.709,375.401 366.043,386.735 354.5,396.5C 308.958,431.659 258.625,440.492 203.5,423C 186.447,416.406 170.78,407.573 156.5,396.5C 145.393,386.393 135.726,375.06 127.5,362.5C 121.396,352.188 117.063,341.188 114.5,329.5C 112.216,322.357 111.216,315.024 111.5,307.5 Z"/></g>
<g><path style="opacity:1" fill="#410a10" d="M 116.5,325.5 C 118.05,326.441 119.716,327.107 121.5,327.5C 132.96,333.893 144.96,339.227 157.5,343.5C 169.439,348.235 181.773,351.568 194.5,353.5C 213.905,358.303 233.738,360.303 254,359.5C 275.247,360.273 296.08,358.273 316.5,353.5C 329.227,351.568 341.561,348.235 353.5,343.5C 366.04,339.227 378.04,333.893 389.5,327.5C 391.5,326.833 393.5,326.167 395.5,325.5C 390.186,345.145 380.52,362.145 366.5,376.5C 292.5,376.5 218.5,376.5 144.5,376.5C 130.12,362.058 120.786,345.058 116.5,325.5 Z"/></g>
<g><path style="opacity:1" fill="#ddd9d7" d="M 114.5,320.5 C 208.5,320.5 302.5,320.5 396.5,320.5C 396.634,322.292 396.301,323.958 395.5,325.5C 393.5,326.167 391.5,326.833 389.5,327.5C 300.167,326.167 210.833,326.167 121.5,327.5C 119.716,327.107 118.05,326.441 116.5,325.5C 115.058,324.18 114.392,322.514 114.5,320.5 Z"/></g>
<g><path style="opacity:1" fill="#d1cecc" d="M 113.5,316.5 C 208.167,316.5 302.833,316.5 397.5,316.5C 397.567,317.959 397.234,319.292 396.5,320.5C 302.5,320.5 208.5,320.5 114.5,320.5C 113.766,319.292 113.433,317.959 113.5,316.5 Z"/></g>
<g><path style="opacity:1" fill="#c6c2be" d="M 338.5,307.5 C 358.5,307.5 378.5,307.5 398.5,307.5C 398.736,310.609 398.403,313.609 397.5,316.5C 302.833,316.5 208.167,316.5 113.5,316.5C 112.659,314.621 112.325,312.621 112.5,310.5C 137.339,310.831 162.006,310.498 186.5,309.5C 237.255,316.55 287.922,315.884 338.5,307.5 Z"/></g>
<g><path style="opacity:0.995" fill="#fba500" d="M 114.5,329.5 C 117.063,341.188 121.396,352.188 127.5,362.5C 94.3291,362.168 61.3291,362.502 28.5,363.5C 23.7305,352.865 19.7305,341.865 16.5,330.5C 49.0168,328.171 81.6835,327.838 114.5,329.5 Z"/></g>
<g><path style="opacity:0.997" fill="#fba500" d="M 494.5,328.5 C 491.804,339.921 488.138,350.921 483.5,361.5C 450.24,362.493 416.906,362.826 383.5,362.5C 389.783,352.268 394.116,341.268 396.5,329.5C 429.093,328.508 461.76,328.174 494.5,328.5 Z"/></g>
<g><path style="opacity:1" fill="#eeeae6" d="M 389.5,327.5 C 378.04,333.893 366.04,339.227 353.5,343.5C 288.167,342.167 222.833,342.167 157.5,343.5C 144.96,339.227 132.96,333.893 121.5,327.5C 210.833,326.167 300.167,326.167 389.5,327.5 Z"/></g>
<g><path style="opacity:1" fill="#e6e2e0" d="M 157.5,343.5 C 222.833,342.167 288.167,342.167 353.5,343.5C 341.561,348.235 329.227,351.568 316.5,353.5C 275.833,353.5 235.167,353.5 194.5,353.5C 181.773,351.568 169.439,348.235 157.5,343.5 Z"/></g>
<g><path style="opacity:1" fill="#d4d0cb" d="M 194.5,353.5 C 235.167,353.5 275.833,353.5 316.5,353.5C 296.08,358.273 275.247,360.273 254,359.5C 233.738,360.303 213.905,358.303 194.5,353.5 Z"/></g>
<g><path style="opacity:0.996" fill="#fa9f00" d="M 483.5,361.5 C 479.34,373.684 473.674,385.017 466.5,395.5C 429.239,396.493 391.906,396.827 354.5,396.5C 366.043,386.735 375.709,375.401 383.5,362.5C 416.906,362.826 450.24,362.493 483.5,361.5 Z"/></g>
<g><path style="opacity:0.997" fill="#fa9f00" d="M 127.5,362.5 C 135.726,375.06 145.393,386.393 156.5,396.5C 119.33,396.168 82.3296,396.502 45.5,397.5C 38.3262,387.017 32.6596,375.684 28.5,363.5C 61.3291,362.502 94.3291,362.168 127.5,362.5 Z"/></g>
<g><path style="opacity:1" fill="#490b12" d="M 144.5,376.5 C 218.5,376.5 292.5,376.5 366.5,376.5C 360.446,382.887 353.779,388.554 346.5,393.5C 329.5,393.5 312.5,393.5 295.5,393.5C 278.985,384.524 261.319,381.357 242.5,384C 232.852,385.498 223.852,388.665 215.5,393.5C 198.5,393.5 181.5,393.5 164.5,393.5C 157.221,388.554 150.554,382.887 144.5,376.5 Z"/></g>
<g><path style="opacity:1" fill="#8f070e" d="M 295.5,393.5 C 298.771,396.268 301.938,399.268 305,402.5C 307.393,405.952 309.226,409.619 310.5,413.5C 273.734,426.795 237.067,426.795 200.5,413.5C 201.621,409.526 203.454,405.86 206,402.5C 209.062,399.268 212.229,396.268 215.5,393.5C 223.852,388.665 232.852,385.498 242.5,384C 261.319,381.357 278.985,384.524 295.5,393.5 Z"/></g>
<g><path style="opacity:1" fill="#570e15" d="M 164.5,393.5 C 181.5,393.5 198.5,393.5 215.5,393.5C 212.229,396.268 209.062,399.268 206,402.5C 203.454,405.86 201.621,409.526 200.5,413.5C 187.234,408.873 175.234,402.206 164.5,393.5 Z"/></g>
<g><path style="opacity:1" fill="#560e15" d="M 295.5,393.5 C 312.5,393.5 329.5,393.5 346.5,393.5C 335.766,402.206 323.766,408.873 310.5,413.5C 309.226,409.619 307.393,405.952 305,402.5C 301.938,399.268 298.771,396.268 295.5,393.5 Z"/></g>
<g><path style="opacity:0.997" fill="#fa9800" d="M 466.5,395.5 C 458.08,410.59 447.747,424.257 435.5,436.5C 315.431,435.832 195.264,435.166 75,434.5C 74.6012,434.728 74.4346,435.062 74.5,435.5C 70.4521,431.766 66.6187,427.766 63,423.5C 56.4032,415.294 50.5698,406.627 45.5,397.5C 82.3296,396.502 119.33,396.168 156.5,396.5C 170.78,407.573 186.447,416.406 203.5,423C 258.625,440.492 308.958,431.659 354.5,396.5C 391.906,396.827 429.239,396.493 466.5,395.5 Z"/></g>
<g><path style="opacity:0.997" fill="#f99200" d="M 435.5,436.5 C 423.227,449.781 409.227,460.781 393.5,469.5C 301.665,469.167 209.998,469.501 118.5,470.5C 102.08,461.085 87.4138,449.419 74.5,435.5C 74.4346,435.062 74.6012,434.728 75,434.5C 195.264,435.166 315.431,435.832 435.5,436.5 Z"/></g>
<g><path style="opacity:0.989" fill="#f98d00" d="M 393.5,469.5 C 372.334,482.843 349.334,492.009 324.5,497C 278.5,505.667 232.5,505.667 186.5,497C 162.305,491.722 139.638,482.889 118.5,470.5C 209.998,469.501 301.665,469.167 393.5,469.5 Z"/></g>
</svg>
