<?xml version="1.0" encoding="UTF-8"?>
<!DOCTYPE svg PUBLIC "-//W3C//DTD SVG 1.1//EN" "http://www.w3.org/Graphics/SVG/1.1/DTD/svg11.dtd">
<svg xmlns="http://www.w3.org/2000/svg" version="1.1" width="512px" height="512px" style="shape-rendering:geometricPrecision; text-rendering:geometricPrecision; image-rendering:optimizeQuality; fill-rule:evenodd; clip-rule:evenodd" xmlns:xlink="http://www.w3.org/1999/xlink">
<g><path style="opacity:0.99" fill="#ffdd00" d="M 401.5,46.5 C 304.167,46.5 206.833,46.5 109.5,46.5C 135.908,28.9807 164.908,17.4807 196.5,12C 235.833,6 275.167,6 314.5,12C 346.218,17.1724 375.218,28.6724 401.5,46.5 Z"/></g>
<g><path style="opacity:0.996" fill="#fed700" d="M 109.5,46.5 C 206.833,46.5 304.167,46.5 401.5,46.5C 416.308,55.9643 429.641,67.2976 441.5,80.5C 317.666,80.8329 193.999,80.4995 70.5,79.5C 82.0277,66.6291 95.0277,55.6291 109.5,46.5 Z"/></g>
<g><path style="opacity:0.998" fill="#fed100" d="M 70.5,79.5 C 193.999,80.4995 317.666,80.8329 441.5,80.5C 450.721,90.6059 458.721,101.606 465.5,113.5C 325.5,114.833 185.5,114.833 45.5,113.5C 52.3709,101.092 60.7042,89.7582 70.5,79.5 Z"/></g>
<g><path style="opacity:0.998" fill="#fdca00" d="M 45.5,113.5 C 185.5,114.833 325.5,114.833 465.5,113.5C 473.677,126.324 480.343,139.991 485.5,154.5C 440.905,153.506 396.239,153.172 351.5,153.5C 346.105,150.985 340.771,150.985 335.5,153.5C 282.167,153.5 228.833,153.5 175.5,153.5C 170.105,150.985 164.771,150.985 159.5,153.5C 114.833,153.5 70.1667,153.5 25.5,153.5C 30.8504,139.409 37.5171,126.076 45.5,113.5 Z"/></g>
<g><path style="opacity:1" fill="#e9a205" d="M 175.5,153.5 C 185.26,161.403 190.26,171.736 190.5,184.5C 188.281,175.58 183.615,168.08 176.5,162C 166.498,157.115 158.332,159.282 152,168.5C 148.267,174.888 145.434,181.555 143.5,188.5C 143.5,188.167 143.5,187.833 143.5,187.5C 143.681,173.573 149.014,162.239 159.5,153.5C 164.771,150.985 170.105,150.985 175.5,153.5 Z"/></g>
<g><path style="opacity:1" fill="#e9a205" d="M 351.5,153.5 C 361.26,161.403 366.26,171.736 366.5,184.5C 364.277,175.569 359.61,168.069 352.5,162C 342.498,157.115 334.332,159.282 328,168.5C 324.267,174.888 321.434,181.555 319.5,188.5C 319.5,188.167 319.5,187.833 319.5,187.5C 319.681,173.573 325.014,162.239 335.5,153.5C 340.771,150.985 346.105,150.985 351.5,153.5 Z"/></g>
<g><path style="opacity:0.997" fill="#fcc400" d="M 25.5,153.5 C 70.1667,153.5 114.833,153.5 159.5,153.5C 149.014,162.239 143.681,173.573 143.5,187.5C 100.833,187.5 58.1667,187.5 15.5,187.5C 17.8224,175.866 21.1558,164.533 25.5,153.5 Z"/></g>
<g><path style="opacity:1" fill="#fcc400" d="M 175.5,153.5 C 228.833,153.5 282.167,153.5 335.5,153.5C 325.014,162.239 319.681,173.573 319.5,187.5C 276.833,187.5 234.167,187.5 191.5,187.5C 191.737,186.209 191.404,185.209 190.5,184.5C 190.26,171.736 185.26,161.403 175.5,153.5 Z"/></g>
<g><path style="opacity:0.997" fill="#fcc400" d="M 351.5,153.5 C 396.239,153.172 440.905,153.506 485.5,154.5C 490.04,165.12 493.373,176.12 495.5,187.5C 452.833,187.5 410.167,187.5 367.5,187.5C 367.737,186.209 367.404,185.209 366.5,184.5C 366.26,171.736 361.26,161.403 351.5,153.5 Z"/></g>
<g><path style="opacity:1" fill="#040301" d="M 190.5,184.5 C 191.276,191.137 191.609,197.804 191.5,204.5C 184.66,184.328 171.66,178.995 152.5,188.5C 148.431,193.313 145.431,198.646 143.5,204.5C 143.5,199.167 143.5,193.833 143.5,188.5C 145.434,181.555 148.267,174.888 152,168.5C 158.332,159.282 166.498,157.115 176.5,162C 183.615,168.08 188.281,175.58 190.5,184.5 Z"/></g>
<g><path style="opacity:1" fill="#040301" d="M 366.5,184.5 C 367.276,191.137 367.609,197.804 367.5,204.5C 366.833,204.5 366.5,204.167 366.5,203.5C 362.064,186.777 351.398,180.61 334.5,185C 326.682,188.666 322.016,194.833 320.5,203.5C 320.5,204.167 320.167,204.5 319.5,204.5C 319.5,199.167 319.5,193.833 319.5,188.5C 321.434,181.555 324.267,174.888 328,168.5C 334.332,159.282 342.498,157.115 352.5,162C 359.61,168.069 364.277,175.569 366.5,184.5 Z"/></g>
<g><path style="opacity:0.997" fill="#fcbe00" d="M 15.5,187.5 C 58.1667,187.5 100.833,187.5 143.5,187.5C 143.5,187.833 143.5,188.167 143.5,188.5C 143.5,193.833 143.5,199.167 143.5,204.5C 143.833,205.167 144.167,205.833 144.5,206.5C 144.5,208.167 144.5,209.833 144.5,211.5C 144.323,215.234 144.656,218.901 145.5,222.5C 99.8333,221.167 54.1667,221.167 8.5,222.5C 9.70228,210.488 12.0356,198.822 15.5,187.5 Z"/></g>
<g><path style="opacity:1" fill="#fcbe00" d="M 190.5,184.5 C 191.404,185.209 191.737,186.209 191.5,187.5C 234.167,187.5 276.833,187.5 319.5,187.5C 319.5,187.833 319.5,188.167 319.5,188.5C 319.5,193.833 319.5,199.167 319.5,204.5C 320.369,206.717 320.702,209.05 320.5,211.5C 320.323,215.234 320.656,218.901 321.5,222.5C 277.906,221.506 234.239,221.172 190.5,221.5C 190.5,218.167 190.5,214.833 190.5,211.5C 190.5,209.833 190.5,208.167 190.5,206.5C 190.833,205.833 191.167,205.167 191.5,204.5C 191.609,197.804 191.276,191.137 190.5,184.5 Z"/></g>
<g><path style="opacity:0.997" fill="#fcbe00" d="M 366.5,184.5 C 367.404,185.209 367.737,186.209 367.5,187.5C 410.167,187.5 452.833,187.5 495.5,187.5C 498.679,198.546 501.012,209.88 502.5,221.5C 457.167,221.5 411.833,221.5 366.5,221.5C 366.5,218.167 366.5,214.833 366.5,211.5C 366.298,209.05 366.631,206.717 367.5,204.5C 367.609,197.804 367.276,191.137 366.5,184.5 Z"/></g>
<g><path style="opacity:1" fill="#252c2c" d="M 366.5,203.5 C 351.167,203.5 335.833,203.5 320.5,203.5C 322.016,194.833 326.682,188.666 334.5,185C 351.398,180.61 362.064,186.777 366.5,203.5 Z"/></g>
<g><path style="opacity:1" fill="#232929" d="M 191.5,204.5 C 191.167,205.167 190.833,205.833 190.5,206.5C 175.167,206.5 159.833,206.5 144.5,206.5C 144.167,205.833 143.833,205.167 143.5,204.5C 145.431,198.646 148.431,193.313 152.5,188.5C 171.66,178.995 184.66,184.328 191.5,204.5 Z"/></g>
<g><path style="opacity:1" fill="#303939" d="M 320.5,203.5 C 335.833,203.5 351.167,203.5 366.5,203.5C 366.5,204.167 366.833,204.5 367.5,204.5C 366.631,206.717 366.298,209.05 366.5,211.5C 365.596,212.209 365.263,213.209 365.5,214.5C 350.833,214.5 336.167,214.5 321.5,214.5C 321.737,213.209 321.404,212.209 320.5,211.5C 320.702,209.05 320.369,206.717 319.5,204.5C 320.167,204.5 320.5,204.167 320.5,203.5 Z"/></g>
<g><path style="opacity:1" fill="#323b3b" d="M 144.5,206.5 C 159.833,206.5 175.167,206.5 190.5,206.5C 190.5,208.167 190.5,209.833 190.5,211.5C 189.511,214.726 188.511,218.06 187.5,221.5C 174.167,221.5 160.833,221.5 147.5,221.5C 146.489,218.06 145.489,214.726 144.5,211.5C 144.5,209.833 144.5,208.167 144.5,206.5 Z"/></g>
<g><path style="opacity:1" fill="#f8ca04" d="M 144.5,211.5 C 145.489,214.726 146.489,218.06 147.5,221.5C 150.676,231.179 157.176,237.179 167,239.5C 177.385,237.619 184.218,231.619 187.5,221.5C 188.511,218.06 189.511,214.726 190.5,211.5C 190.5,214.833 190.5,218.167 190.5,221.5C 188.568,230.294 184.235,237.794 177.5,244C 167.383,249.839 158.883,248.005 152,238.5C 148.953,233.526 146.786,228.193 145.5,222.5C 144.656,218.901 144.323,215.234 144.5,211.5 Z"/></g>
<g><path style="opacity:1" fill="#f8cb04" d="M 320.5,211.5 C 321.404,212.209 321.737,213.209 321.5,214.5C 323.293,222.921 327.293,230.088 333.5,236C 342.862,241.443 351.029,239.943 358,231.5C 361.594,226.312 364.094,220.646 365.5,214.5C 365.263,213.209 365.596,212.209 366.5,211.5C 366.5,214.833 366.5,218.167 366.5,221.5C 364.568,230.294 360.235,237.794 353.5,244C 343.383,249.839 334.883,248.005 328,238.5C 324.953,233.526 322.786,228.193 321.5,222.5C 320.656,218.901 320.323,215.234 320.5,211.5 Z"/></g>
<g><path style="opacity:0.999" fill="#fcb800" d="M 145.5,222.5 C 146.786,228.193 148.953,233.526 152,238.5C 158.883,248.005 167.383,249.839 177.5,244C 184.235,237.794 188.568,230.294 190.5,221.5C 234.239,221.172 277.906,221.506 321.5,222.5C 322.786,228.193 324.953,233.526 328,238.5C 334.883,248.005 343.383,249.839 353.5,244C 360.235,237.794 364.568,230.294 366.5,221.5C 411.833,221.5 457.167,221.5 502.5,221.5C 503.356,232.81 503.69,244.143 503.5,255.5C 338.167,255.5 172.833,255.5 7.5,255.5C 7.28672,244.473 7.62006,233.473 8.5,222.5C 54.1667,221.167 99.8333,221.167 145.5,222.5 Z"/></g>
<g><path style="opacity:1" fill="#3c4746" d="M 321.5,214.5 C 336.167,214.5 350.833,214.5 365.5,214.5C 364.094,220.646 361.594,226.312 358,231.5C 351.029,239.943 342.862,241.443 333.5,236C 327.293,230.088 323.293,222.921 321.5,214.5 Z"/></g>
<g><path style="opacity:1" fill="#3e4847" d="M 147.5,221.5 C 160.833,221.5 174.167,221.5 187.5,221.5C 184.218,231.619 177.385,237.619 167,239.5C 157.176,237.179 150.676,231.179 147.5,221.5 Z"/></g>
<g><path style="opacity:0.999" fill="#fcb100" d="M 7.5,255.5 C 172.833,255.5 338.167,255.5 503.5,255.5C 503.902,268.576 503.236,281.576 501.5,294.5C 337.5,294.5 173.5,294.5 9.5,294.5C 7.76429,281.576 7.09762,268.576 7.5,255.5 Z"/></g>
<g><path style="opacity:0.997" fill="#fbab00" d="M 9.5,294.5 C 173.5,294.5 337.5,294.5 501.5,294.5C 500.186,306.072 497.852,317.406 494.5,328.5C 462.5,328.5 430.5,328.5 398.5,328.5C 398.998,323.848 399.331,319.181 399.5,314.5C 399.5,312.5 399.5,310.5 399.5,308.5C 401.065,301.611 398.565,297.278 392,295.5C 313.033,315.078 233.533,317.578 153.5,303C 141.793,300.656 130.126,298.156 118.5,295.5C 112.629,297.22 110.296,301.22 111.5,307.5C 111.5,310.5 111.5,313.5 111.5,316.5C 112.021,320.481 112.354,324.481 112.5,328.5C 80.2768,327.852 48.2768,328.519 16.5,330.5C 13.3976,318.654 11.0642,306.654 9.5,294.5 Z"/></g>
<g><path style="opacity:1" fill="#ec8e0e" d="M 399.5,308.5 C 397.728,305.192 394.895,303.525 391,303.5C 374.718,306.922 358.551,310.256 342.5,313.5C 301.027,319.257 259.361,321.257 217.5,319.5C 198.938,317.44 180.271,315.107 161.5,312.5C 147.329,309.379 132.996,306.379 118.5,303.5C 115.689,303.974 113.355,305.307 111.5,307.5C 110.296,301.22 112.629,297.22 118.5,295.5C 130.126,298.156 141.793,300.656 153.5,303C 233.533,317.578 313.033,315.078 392,295.5C 398.565,297.278 401.065,301.611 399.5,308.5 Z"/></g>
<g><path style="opacity:1" fill="#c5c2c0" d="M 399.5,308.5 C 399.5,310.5 399.5,312.5 399.5,314.5C 398.48,319.244 397.147,323.911 395.5,328.5C 392,328.39 388.666,327.557 385.5,326C 386.167,325.667 386.833,325.333 387.5,325C 381.351,324.254 375.351,322.921 369.5,321C 370.5,320.667 371.5,320.333 372.5,320C 364.049,319.952 355.716,319.118 347.5,317.5C 347.5,316.167 347.5,314.833 347.5,313.5C 345.833,313.5 344.167,313.5 342.5,313.5C 358.551,310.256 374.718,306.922 391,303.5C 394.895,303.525 397.728,305.192 399.5,308.5 Z"/></g>
<g><path style="opacity:1" fill="#bab7b4" d="M 161.5,312.5 C 161.5,314.5 161.5,316.5 161.5,318.5C 156.455,319.499 152.122,320.666 148.5,322C 149.167,322.333 149.833,322.667 150.5,323C 147.211,323.882 143.877,324.548 140.5,325C 141.167,325.333 141.833,325.667 142.5,326C 141.167,326.333 139.833,326.667 138.5,327C 139.167,327.333 139.833,327.667 140.5,328C 138.833,328.333 137.167,328.667 135.5,329C 138.668,329.582 139.001,330.582 136.5,332C 137.167,332.333 137.833,332.667 138.5,333C 136.5,334 134.5,335 132.5,336C 134.931,337.092 134.931,338.259 132.5,339.5C 126.702,336.767 121.035,333.767 115.5,330.5C 114.456,325.644 113.123,320.978 111.5,316.5C 111.5,313.5 111.5,310.5 111.5,307.5C 113.355,305.307 115.689,303.974 118.5,303.5C 132.996,306.379 147.329,309.379 161.5,312.5 Z"/></g>
<g><path style="opacity:1" fill="#c6c2c0" d="M 161.5,312.5 C 180.271,315.107 198.938,317.44 217.5,319.5C 211.491,319.334 205.491,319.501 199.5,320C 200.5,320.333 201.5,320.667 202.5,321C 196.912,322.624 191.246,323.958 185.5,325C 186.167,325.333 186.833,325.667 187.5,326C 183.12,326.554 179.453,327.554 176.5,329C 177.167,329.333 177.833,329.667 178.5,330C 176.527,330.495 174.527,330.662 172.5,330.5C 172.5,331.5 172.5,332.5 172.5,333.5C 170.801,333.34 169.134,333.506 167.5,334C 168.5,334.333 169.5,334.667 170.5,335C 167.498,335.434 164.831,336.601 162.5,338.5C 159.654,340.92 157.321,343.753 155.5,347C 156.167,347.333 156.833,347.667 157.5,348C 156.584,348.278 155.918,348.778 155.5,349.5C 147.479,346.989 139.812,343.656 132.5,339.5C 134.931,338.259 134.931,337.092 132.5,336C 134.5,335 136.5,334 138.5,333C 137.833,332.667 137.167,332.333 136.5,332C 139.001,330.582 138.668,329.582 135.5,329C 137.167,328.667 138.833,328.333 140.5,328C 139.833,327.667 139.167,327.333 138.5,327C 139.833,326.667 141.167,326.333 142.5,326C 141.833,325.667 141.167,325.333 140.5,325C 143.877,324.548 147.211,323.882 150.5,323C 149.833,322.667 149.167,322.333 148.5,322C 152.122,320.666 156.455,319.499 161.5,318.5C 161.5,316.5 161.5,314.5 161.5,312.5 Z"/></g>
<g><path style="opacity:1" fill="#f6bb07" d="M 399.5,314.5 C 399.331,319.181 398.998,323.848 398.5,328.5C 395.49,340.519 390.823,351.853 384.5,362.5C 374.792,375.875 363.125,387.208 349.5,396.5C 304.855,423.409 257.189,430.243 206.5,417C 190.656,411.785 175.656,404.952 161.5,396.5C 147.875,387.208 136.208,375.875 126.5,362.5C 120.188,351.871 115.521,340.538 112.5,328.5C 112.354,324.481 112.021,320.481 111.5,316.5C 113.123,320.978 114.456,325.644 115.5,330.5C 118.132,338.43 121.798,345.763 126.5,352.5C 129.69,359.026 134.024,364.692 139.5,369.5C 143.589,374.925 148.589,379.258 154.5,382.5C 159.648,386.911 165.314,390.578 171.5,393.5C 174.914,396.54 178.914,398.54 183.5,399.5C 205.661,410.935 229.327,416.269 254.5,415.5C 280.307,416.261 304.64,410.928 327.5,399.5C 332.098,398.535 336.098,396.535 339.5,393.5C 345.686,390.578 351.352,386.911 356.5,382.5C 362.411,379.258 367.411,374.925 371.5,369.5C 376.976,364.692 381.31,359.026 384.5,352.5C 389.202,345.763 392.868,338.43 395.5,330.5C 395.5,329.833 395.5,329.167 395.5,328.5C 397.147,323.911 398.48,319.244 399.5,314.5 Z"/></g>
<g><path style="opacity:1" fill="#e0ddda" d="M 363.5,346.5 C 359.5,348.167 355.5,349.833 351.5,351.5C 346.299,353.567 340.966,355.233 335.5,356.5C 334.653,355.034 333.32,354.2 331.5,354C 332.5,353.667 333.5,353.333 334.5,353C 327.481,350.217 320.648,347.05 314,343.5C 308.201,342.456 302.701,340.622 297.5,338C 282.011,334.354 266.345,333.188 250.5,334.5C 244.226,336.926 238.226,339.926 232.5,343.5C 226.856,347.2 222.189,351.2 218.5,355.5C 217.462,358.328 216.129,360.995 214.5,363.5C 215.243,364.182 215.909,364.849 216.5,365.5C 207.568,364.579 198.901,362.913 190.5,360.5C 190.082,359.778 189.416,359.278 188.5,359C 192.361,358.431 192.361,357.598 188.5,356.5C 189.246,355.264 189.579,353.93 189.5,352.5C 191.655,352.628 193.655,352.128 195.5,351C 194.833,350.667 194.167,350.333 193.5,350C 194.833,349.333 196.167,348.667 197.5,348C 196.833,347.667 196.167,347.333 195.5,347C 197.246,346.529 198.913,345.862 200.5,345C 199.167,344.333 199.167,343.667 200.5,343C 208.628,338.485 216.295,334.485 223.5,331C 232.602,328.466 241.602,325.632 250.5,322.5C 254.667,322.167 258.833,321.833 263,321.5C 274.484,322.574 285.984,323.408 297.5,324C 312.043,327.975 326.71,331.308 341.5,334C 340.5,334.333 339.5,334.667 338.5,335C 343.409,335.294 348.075,336.461 352.5,338.5C 355.888,340.861 359.554,342.694 363.5,344C 362.833,344.333 362.167,344.667 361.5,345C 362.416,345.278 363.082,345.778 363.5,346.5 Z"/></g>
<g><path style="opacity:0.995" fill="#fba500" d="M 112.5,328.5 C 115.521,340.538 120.188,351.871 126.5,362.5C 93.6624,362.168 60.9957,362.502 28.5,363.5C 23.7305,352.865 19.7305,341.865 16.5,330.5C 48.2768,328.519 80.2768,327.852 112.5,328.5 Z"/></g>
<g><path style="opacity:0.997" fill="#fba500" d="M 398.5,328.5 C 430.5,328.5 462.5,328.5 494.5,328.5C 491.804,339.921 488.138,350.921 483.5,361.5C 450.573,362.492 417.573,362.826 384.5,362.5C 390.823,351.853 395.49,340.519 398.5,328.5 Z"/></g>
<g><path style="opacity:1" fill="#460e12" d="M 115.5,330.5 C 121.035,333.767 126.702,336.767 132.5,339.5C 139.812,343.656 147.479,346.989 155.5,349.5C 157.261,350.313 158.928,351.313 160.5,352.5C 149.167,352.5 137.833,352.5 126.5,352.5C 121.798,345.763 118.132,338.43 115.5,330.5 Z"/></g>
<g><path style="opacity:1" fill="#470f13" d="M 395.5,330.5 C 392.868,338.43 389.202,345.763 384.5,352.5C 373.321,352.828 362.321,352.495 351.5,351.5C 355.5,349.833 359.5,348.167 363.5,346.5C 374.45,341.692 385.117,336.358 395.5,330.5 Z"/></g>
<g><path style="opacity:1" fill="#d4d1ce" d="M 342.5,313.5 C 344.167,313.5 345.833,313.5 347.5,313.5C 347.5,314.833 347.5,316.167 347.5,317.5C 355.716,319.118 364.049,319.952 372.5,320C 371.5,320.333 370.5,320.667 369.5,321C 375.351,322.921 381.351,324.254 387.5,325C 386.833,325.333 386.167,325.667 385.5,326C 388.666,327.557 392,328.39 395.5,328.5C 395.5,329.167 395.5,329.833 395.5,330.5C 385.117,336.358 374.45,341.692 363.5,346.5C 363.082,345.778 362.416,345.278 361.5,345C 362.167,344.667 362.833,344.333 363.5,344C 359.554,342.694 355.888,340.861 352.5,338.5C 348.075,336.461 343.409,335.294 338.5,335C 339.5,334.667 340.5,334.333 341.5,334C 326.71,331.308 312.043,327.975 297.5,324C 285.984,323.408 274.484,322.574 263,321.5C 258.833,321.833 254.667,322.167 250.5,322.5C 241.602,325.632 232.602,328.466 223.5,331C 216.295,334.485 208.628,338.485 200.5,343C 199.167,343.667 199.167,344.333 200.5,345C 198.913,345.862 197.246,346.529 195.5,347C 196.167,347.333 196.833,347.667 197.5,348C 196.167,348.667 194.833,349.333 193.5,350C 194.167,350.333 194.833,350.667 195.5,351C 193.655,352.128 191.655,352.628 189.5,352.5C 189.579,353.93 189.246,355.264 188.5,356.5C 192.361,357.598 192.361,358.431 188.5,359C 189.416,359.278 190.082,359.778 190.5,360.5C 180.419,358.146 170.419,355.48 160.5,352.5C 158.928,351.313 157.261,350.313 155.5,349.5C 155.918,348.778 156.584,348.278 157.5,348C 156.833,347.667 156.167,347.333 155.5,347C 157.321,343.753 159.654,340.92 162.5,338.5C 164.831,336.601 167.498,335.434 170.5,335C 169.5,334.667 168.5,334.333 167.5,334C 169.134,333.506 170.801,333.34 172.5,333.5C 172.5,332.5 172.5,331.5 172.5,330.5C 174.527,330.662 176.527,330.495 178.5,330C 177.833,329.667 177.167,329.333 176.5,329C 179.453,327.554 183.12,326.554 187.5,326C 186.833,325.667 186.167,325.333 185.5,325C 191.246,323.958 196.912,322.624 202.5,321C 201.5,320.667 200.5,320.333 199.5,320C 205.491,319.501 211.491,319.334 217.5,319.5C 259.361,321.257 301.027,319.257 342.5,313.5 Z"/></g>
<g><path style="opacity:1" fill="#eeeae6" d="M 335.5,356.5 C 296.489,367.603 256.822,370.603 216.5,365.5C 215.909,364.849 215.243,364.182 214.5,363.5C 216.129,360.995 217.462,358.328 218.5,355.5C 222.189,351.2 226.856,347.2 232.5,343.5C 238.226,339.926 244.226,336.926 250.5,334.5C 266.345,333.188 282.011,334.354 297.5,338C 302.701,340.622 308.201,342.456 314,343.5C 320.648,347.05 327.481,350.217 334.5,353C 333.5,353.333 332.5,353.667 331.5,354C 333.32,354.2 334.653,355.034 335.5,356.5 Z"/></g>
<g><path style="opacity:0.996" fill="#fa9f00" d="M 483.5,361.5 C 479.34,373.684 473.674,385.017 466.5,395.5C 427.573,396.494 388.573,396.827 349.5,396.5C 363.125,387.208 374.792,375.875 384.5,362.5C 417.573,362.826 450.573,362.492 483.5,361.5 Z"/></g>
<g><path style="opacity:0.997" fill="#fa9f00" d="M 126.5,362.5 C 136.208,375.875 147.875,387.208 161.5,396.5C 122.663,396.168 83.9964,396.501 45.5,397.5C 38.3262,387.017 32.6596,375.684 28.5,363.5C 60.9957,362.502 93.6624,362.168 126.5,362.5 Z"/></g>
<g><path style="opacity:1" fill="#580f16" d="M 351.5,351.5 C 362.321,352.495 373.321,352.828 384.5,352.5C 381.31,359.026 376.976,364.692 371.5,369.5C 294.167,369.5 216.833,369.5 139.5,369.5C 134.024,364.692 129.69,359.026 126.5,352.5C 137.833,352.5 149.167,352.5 160.5,352.5C 170.419,355.48 180.419,358.146 190.5,360.5C 198.901,362.913 207.568,364.579 216.5,365.5C 256.822,370.603 296.489,367.603 335.5,356.5C 340.966,355.233 346.299,353.567 351.5,351.5 Z"/></g>
<g><path style="opacity:1" fill="#650f19" d="M 139.5,369.5 C 216.833,369.5 294.167,369.5 371.5,369.5C 367.411,374.925 362.411,379.258 356.5,382.5C 289.167,382.5 221.833,382.5 154.5,382.5C 148.589,379.258 143.589,374.925 139.5,369.5 Z"/></g>
<g><path style="opacity:1" fill="#72111c" d="M 154.5,382.5 C 221.833,382.5 289.167,382.5 356.5,382.5C 351.352,386.911 345.686,390.578 339.5,393.5C 283.5,393.5 227.5,393.5 171.5,393.5C 165.314,390.578 159.648,386.911 154.5,382.5 Z"/></g>
<g><path style="opacity:0.998" fill="#fa9800" d="M 466.5,395.5 C 458.08,410.59 447.747,424.257 435.5,436.5C 315.431,435.832 195.264,435.166 75,434.5C 74.6012,434.728 74.4346,435.062 74.5,435.5C 70.4521,431.766 66.6187,427.766 63,423.5C 56.4032,415.294 50.5698,406.627 45.5,397.5C 83.9964,396.501 122.663,396.168 161.5,396.5C 175.656,404.952 190.656,411.785 206.5,417C 257.189,430.243 304.855,423.409 349.5,396.5C 388.573,396.827 427.573,396.494 466.5,395.5 Z"/></g>
<g><path style="opacity:1" fill="#7a131e" d="M 171.5,393.5 C 227.5,393.5 283.5,393.5 339.5,393.5C 336.098,396.535 332.098,398.535 327.5,399.5C 279.5,399.5 231.5,399.5 183.5,399.5C 178.914,398.54 174.914,396.54 171.5,393.5 Z"/></g>
<g><path style="opacity:1" fill="#831521" d="M 183.5,399.5 C 231.5,399.5 279.5,399.5 327.5,399.5C 304.64,410.928 280.307,416.261 254.5,415.5C 229.327,416.269 205.661,410.935 183.5,399.5 Z"/></g>
<g><path style="opacity:0.997" fill="#f99200" d="M 435.5,436.5 C 423.227,449.781 409.227,460.781 393.5,469.5C 301.665,469.167 209.998,469.501 118.5,470.5C 102.08,461.085 87.4138,449.419 74.5,435.5C 74.4346,435.062 74.6012,434.728 75,434.5C 195.264,435.166 315.431,435.832 435.5,436.5 Z"/></g>
<g><path style="opacity:0.989" fill="#f98d00" d="M 393.5,469.5 C 372.334,482.843 349.334,492.009 324.5,497C 278.5,505.667 232.5,505.667 186.5,497C 162.305,491.722 139.638,482.889 118.5,470.5C 209.998,469.501 301.665,469.167 393.5,469.5 Z"/></g>
</svg>
