<?xml version="1.0" encoding="UTF-8"?>
<!DOCTYPE svg PUBLIC "-//W3C//DTD SVG 1.1//EN" "http://www.w3.org/Graphics/SVG/1.1/DTD/svg11.dtd">
<svg xmlns="http://www.w3.org/2000/svg" version="1.1" width="512px" height="512px" style="shape-rendering:geometricPrecision; text-rendering:geometricPrecision; image-rendering:optimizeQuality; fill-rule:evenodd; clip-rule:evenodd" xmlns:xlink="http://www.w3.org/1999/xlink">
<g><path style="opacity:0.99" fill="#ffdd00" d="M 401.5,46.5 C 304.167,46.5 206.833,46.5 109.5,46.5C 135.908,28.9807 164.908,17.4807 196.5,12C 235.833,6 275.167,6 314.5,12C 346.218,17.1724 375.218,28.6724 401.5,46.5 Z"/></g>
<g><path style="opacity:0.996" fill="#fed700" d="M 109.5,46.5 C 206.833,46.5 304.167,46.5 401.5,46.5C 416.308,55.9643 429.641,67.2976 441.5,80.5C 317.666,80.8329 193.999,80.4995 70.5,79.5C 82.0277,66.6291 95.0277,55.6291 109.5,46.5 Z"/></g>
<g><path style="opacity:0.998" fill="#fed100" d="M 70.5,79.5 C 193.999,80.4995 317.666,80.8329 441.5,80.5C 450.721,90.6059 458.721,101.606 465.5,113.5C 325.5,114.833 185.5,114.833 45.5,113.5C 52.3709,101.092 60.7042,89.7582 70.5,79.5 Z"/></g>
<g><path style="opacity:0.998" fill="#fdca00" d="M 45.5,113.5 C 185.5,114.833 325.5,114.833 465.5,113.5C 473.677,126.324 480.343,139.991 485.5,154.5C 453.24,153.508 420.907,153.174 388.5,153.5C 390.527,150.806 392.861,148.473 395.5,146.5C 395.918,145.778 396.584,145.278 397.5,145C 397,144.833 396.5,144.667 396,144.5C 387.758,147.374 379.591,150.374 371.5,153.5C 293.833,153.5 216.167,153.5 138.5,153.5C 129.926,149.811 121.259,146.645 112.5,144C 113.693,145.095 115.027,145.928 116.5,146.5C 118.448,148.789 120.448,151.122 122.5,153.5C 90.1667,153.5 57.8333,153.5 25.5,153.5C 30.8504,139.409 37.5171,126.076 45.5,113.5 Z"/></g>
<g><path style="opacity:1" fill="#f49905" d="M 116.5,146.5 C 129.968,154.297 142.301,163.63 153.5,174.5C 161.367,182.199 168.7,190.366 175.5,199C 173.19,199.497 170.857,199.663 168.5,199.5C 165.542,194.874 161.876,190.874 157.5,187.5C 147.109,174.775 135.443,163.442 122.5,153.5C 120.448,151.122 118.448,148.789 116.5,146.5 Z"/></g>
<g><path style="opacity:1" fill="#f49905" d="M 395.5,146.5 C 392.861,148.473 390.527,150.806 388.5,153.5C 375.557,163.442 363.891,174.775 353.5,187.5C 349.124,190.874 345.458,194.874 342.5,199.5C 340.143,199.663 337.81,199.497 335.5,199C 342.3,190.366 349.633,182.199 357.5,174.5C 368.779,163.212 381.446,153.879 395.5,146.5 Z"/></g>
<g><path style="opacity:0.997" fill="#fdc400" d="M 25.5,153.5 C 57.8333,153.5 90.1667,153.5 122.5,153.5C 135.443,163.442 147.109,174.775 157.5,187.5C 110.167,187.5 62.8333,187.5 15.5,187.5C 17.8224,175.866 21.1558,164.533 25.5,153.5 Z"/></g>
<g><path style="opacity:1" fill="#fcc400" d="M 138.5,153.5 C 216.167,153.5 293.833,153.5 371.5,153.5C 364.337,157.247 357.337,161.247 350.5,165.5C 339.009,171.662 328.342,178.995 318.5,187.5C 276.5,187.5 234.5,187.5 192.5,187.5C 182.64,178.97 171.973,171.637 160.5,165.5C 153.455,160.977 146.122,156.977 138.5,153.5 Z"/></g>
<g><path style="opacity:0.997" fill="#fcc400" d="M 388.5,153.5 C 420.907,153.174 453.24,153.508 485.5,154.5C 490.04,165.12 493.373,176.12 495.5,187.5C 448.167,187.5 400.833,187.5 353.5,187.5C 363.891,174.775 375.557,163.442 388.5,153.5 Z"/></g>
<g><path style="opacity:1" fill="#643302" d="M 138.5,153.5 C 146.122,156.977 153.455,160.977 160.5,165.5C 158.983,165.511 157.816,166.177 157,167.5C 155.295,169.577 154.128,171.91 153.5,174.5C 142.301,163.63 129.968,154.297 116.5,146.5C 115.027,145.928 113.693,145.095 112.5,144C 121.259,146.645 129.926,149.811 138.5,153.5 Z"/></g>
<g><path style="opacity:1" fill="#653302" d="M 395.5,146.5 C 381.446,153.879 368.779,163.212 357.5,174.5C 356.872,171.91 355.705,169.577 354,167.5C 353.184,166.177 352.017,165.511 350.5,165.5C 357.337,161.247 364.337,157.247 371.5,153.5C 379.591,150.374 387.758,147.374 396,144.5C 396.5,144.667 397,144.833 397.5,145C 396.584,145.278 395.918,145.778 395.5,146.5 Z"/></g>
<g><path style="opacity:1" fill="#472301" d="M 160.5,165.5 C 171.973,171.637 182.64,178.97 192.5,187.5C 193.5,188.833 194.5,190.167 195.5,191.5C 188.02,200.64 181.353,210.306 175.5,220.5C 166.187,217.616 156.854,214.949 147.5,212.5C 149.581,208.57 151.914,204.736 154.5,201C 158.025,200.821 161.359,200.321 164.5,199.5C 165.833,199.5 167.167,199.5 168.5,199.5C 170.857,199.663 173.19,199.497 175.5,199C 168.7,190.366 161.367,182.199 153.5,174.5C 154.128,171.91 155.295,169.577 157,167.5C 157.816,166.177 158.983,165.511 160.5,165.5 Z"/></g>
<g><path style="opacity:1" fill="#462301" d="M 350.5,165.5 C 352.017,165.511 353.184,166.177 354,167.5C 355.705,169.577 356.872,171.91 357.5,174.5C 349.633,182.199 342.3,190.366 335.5,199C 337.81,199.497 340.143,199.663 342.5,199.5C 343.833,199.5 345.167,199.5 346.5,199.5C 352.888,201.538 357.554,205.872 360.5,212.5C 352.262,215.134 343.929,217.8 335.5,220.5C 329.647,210.306 322.98,200.64 315.5,191.5C 316.5,190.167 317.5,188.833 318.5,187.5C 328.342,178.995 339.009,171.662 350.5,165.5 Z"/></g>
<g><path style="opacity:0.997" fill="#fcbe00" d="M 15.5,187.5 C 62.8333,187.5 110.167,187.5 157.5,187.5C 161.876,190.874 165.542,194.874 168.5,199.5C 167.167,199.5 165.833,199.5 164.5,199.5C 147.027,199.684 129.694,201.351 112.5,204.5C 109.42,205.408 107.087,206.408 105.5,207.5C 121.126,211.697 136.793,216.031 152.5,220.5C 104.598,221.171 56.5977,221.838 8.5,222.5C 9.70228,210.488 12.0356,198.822 15.5,187.5 Z"/></g>
<g><path style="opacity:1" fill="#fcbe00" d="M 192.5,187.5 C 234.5,187.5 276.5,187.5 318.5,187.5C 317.5,188.833 316.5,190.167 315.5,191.5C 310.489,196.349 305.989,201.683 302,207.5C 299.012,211.808 296.845,216.475 295.5,221.5C 268.833,221.5 242.167,221.5 215.5,221.5C 210.831,210.161 204.165,200.161 195.5,191.5C 194.5,190.167 193.5,188.833 192.5,187.5 Z"/></g>
<g><path style="opacity:0.997" fill="#fcbe00" d="M 353.5,187.5 C 400.833,187.5 448.167,187.5 495.5,187.5C 498.679,198.546 501.012,209.88 502.5,221.5C 454.33,221.832 406.33,221.499 358.5,220.5C 373.854,215.903 389.187,211.57 404.5,207.5C 405.239,207.631 405.906,207.464 406.5,207C 386.833,202.188 366.833,199.688 346.5,199.5C 345.167,199.5 343.833,199.5 342.5,199.5C 345.458,194.874 349.124,190.874 353.5,187.5 Z"/></g>
<g><path style="opacity:1" fill="#5c2f02" d="M 164.5,199.5 C 161.359,200.321 158.025,200.821 154.5,201C 151.914,204.736 149.581,208.57 147.5,212.5C 133.654,209.686 119.654,208.019 105.5,207.5C 107.087,206.408 109.42,205.408 112.5,204.5C 129.694,201.351 147.027,199.684 164.5,199.5 Z"/></g>
<g><path style="opacity:1" fill="#552b01" d="M 346.5,199.5 C 366.833,199.688 386.833,202.188 406.5,207C 405.906,207.464 405.239,207.631 404.5,207.5C 389.647,207.69 374.98,209.357 360.5,212.5C 357.554,205.872 352.888,201.538 346.5,199.5 Z"/></g>
<g><path style="opacity:1" fill="#391c01" d="M 195.5,191.5 C 204.165,200.161 210.831,210.161 215.5,221.5C 215.5,222.5 215.5,223.5 215.5,224.5C 213.661,228.769 210.327,231.102 205.5,231.5C 195.494,227.832 185.494,224.165 175.5,220.5C 181.353,210.306 188.02,200.64 195.5,191.5 Z"/></g>
<g><path style="opacity:1" fill="#391c01" d="M 315.5,191.5 C 322.98,200.64 329.647,210.306 335.5,220.5C 325.243,224.363 314.91,228.03 304.5,231.5C 300.14,230.83 297.14,228.497 295.5,224.5C 295.5,223.5 295.5,222.5 295.5,221.5C 296.845,216.475 299.012,211.808 302,207.5C 305.989,201.683 310.489,196.349 315.5,191.5 Z"/></g>
<g><path style="opacity:1" fill="#f69b05" d="M 105.5,207.5 C 119.654,208.019 133.654,209.686 147.5,212.5C 156.854,214.949 166.187,217.616 175.5,220.5C 185.494,224.165 195.494,227.832 205.5,231.5C 210.327,231.102 213.661,228.769 215.5,224.5C 217.366,233.125 214.033,238.125 205.5,239.5C 188.056,232.574 170.389,226.241 152.5,220.5C 136.793,216.031 121.126,211.697 105.5,207.5 Z"/></g>
<g><path style="opacity:1" fill="#f29805" d="M 404.5,207.5 C 389.187,211.57 373.854,215.903 358.5,220.5C 340.35,226.439 322.35,232.772 304.5,239.5C 296.703,237.597 293.703,232.597 295.5,224.5C 297.14,228.497 300.14,230.83 304.5,231.5C 314.91,228.03 325.243,224.363 335.5,220.5C 343.929,217.8 352.262,215.134 360.5,212.5C 374.98,209.357 389.647,207.69 404.5,207.5 Z"/></g>
<g><path style="opacity:0.999" fill="#fbb801" d="M 152.5,220.5 C 170.389,226.241 188.056,232.574 205.5,239.5C 214.033,238.125 217.366,233.125 215.5,224.5C 215.5,223.5 215.5,222.5 215.5,221.5C 242.167,221.5 268.833,221.5 295.5,221.5C 295.5,222.5 295.5,223.5 295.5,224.5C 293.703,232.597 296.703,237.597 304.5,239.5C 322.35,232.772 340.35,226.439 358.5,220.5C 406.33,221.499 454.33,221.832 502.5,221.5C 503.421,240.48 503.754,259.48 503.5,278.5C 501.35,269.867 497.35,262.201 491.5,255.5C 488.936,251.883 485.603,249.216 481.5,247.5C 477.584,244.743 473.25,242.743 468.5,241.5C 455.53,236.59 442.197,232.924 428.5,230.5C 416.373,227.726 404.04,225.392 391.5,223.5C 392.686,230.137 393.686,236.803 394.5,243.5C 394.505,247.534 394.838,251.534 395.5,255.5C 302.167,255.5 208.833,255.5 115.5,255.5C 116.162,251.534 116.495,247.534 116.5,243.5C 117.221,237.116 118.221,230.783 119.5,224.5C 118.667,224.167 117.833,223.833 117,223.5C 100.501,225.899 84.3339,229.232 68.5,233.5C 56.9427,235.797 45.9427,239.464 35.5,244.5C 33.1815,244.992 31.1815,245.992 29.5,247.5C 25.3972,249.216 22.0639,251.883 19.5,255.5C 13.6497,262.201 9.64972,269.867 7.5,278.5C 7.2325,259.81 7.56584,241.143 8.5,222.5C 56.5977,221.838 104.598,221.171 152.5,220.5 Z"/></g>
<g><path style="opacity:1" fill="#70def8" d="M 116.5,243.5 C 114.729,251.686 113.063,260.02 111.5,268.5C 111.167,268.5 110.833,268.5 110.5,268.5C 110.262,266.596 109.262,265.262 107.5,264.5C 108.704,257.811 110.038,251.145 111.5,244.5C 110.556,235.93 105.722,231.597 97,231.5C 91.1786,232.914 85.3453,234.247 79.5,235.5C 77.4214,235.971 75.4214,236.637 73.5,237.5C 73.0334,234.703 71.3667,233.369 68.5,233.5C 84.3339,229.232 100.501,225.899 117,223.5C 117.833,223.833 118.667,224.167 119.5,224.5C 118.221,230.783 117.221,237.116 116.5,243.5 Z"/></g>
<g><path style="opacity:1" fill="#6fdff9" d="M 428.5,230.5 C 426.067,230.273 424.401,231.273 423.5,233.5C 418.61,231.93 413.61,231.43 408.5,232C 403.32,234.357 400.32,238.357 399.5,244C 400.9,250.832 402.233,257.666 403.5,264.5C 401.738,265.262 400.738,266.596 400.5,268.5C 400.167,268.5 399.833,268.5 399.5,268.5C 397.937,260.02 396.271,251.686 394.5,243.5C 393.686,236.803 392.686,230.137 391.5,223.5C 404.04,225.392 416.373,227.726 428.5,230.5 Z"/></g>
<g><path style="opacity:1" fill="#b8e6ff" d="M 107.5,264.5 C 107.167,264.5 106.833,264.5 106.5,264.5C 97.035,255.536 87.7016,246.369 78.5,237C 79.056,236.617 79.3893,236.117 79.5,235.5C 85.3453,234.247 91.1786,232.914 97,231.5C 105.722,231.597 110.556,235.93 111.5,244.5C 110.038,251.145 108.704,257.811 107.5,264.5 Z"/></g>
<g><path style="opacity:1" fill="#b8e6ff" d="M 423.5,233.5 C 426.632,234.36 429.632,235.36 432.5,236.5C 423.5,246.167 414.167,255.5 404.5,264.5C 404.167,264.5 403.833,264.5 403.5,264.5C 402.233,257.666 400.9,250.832 399.5,244C 400.32,238.357 403.32,234.357 408.5,232C 413.61,231.43 418.61,231.93 423.5,233.5 Z"/></g>
<g><path style="opacity:1" fill="#9eddff" d="M 79.5,235.5 C 79.3893,236.117 79.056,236.617 78.5,237C 87.7016,246.369 97.035,255.536 106.5,264.5C 105.602,269.534 103.935,274.201 101.5,278.5C 88.1979,266.865 75.5312,254.532 63.5,241.5C 66.6035,239.616 69.9368,238.282 73.5,237.5C 75.4214,236.637 77.4214,235.971 79.5,235.5 Z"/></g>
<g><path style="opacity:1" fill="#97dbff" d="M 432.5,236.5 C 439.778,237.811 446.444,240.478 452.5,244.5C 439.5,258.167 426.167,271.5 412.5,284.5C 408.478,278.444 405.811,271.778 404.5,264.5C 414.167,255.5 423.5,246.167 432.5,236.5 Z"/></g>
<g><path style="opacity:1" fill="#86d5ff" d="M 63.5,241.5 C 75.5312,254.532 88.1979,266.865 101.5,278.5C 100.57,283.925 97.5696,287.092 92.5,288C 79.6258,274.959 66.6258,262.125 53.5,249.5C 55.9626,245.7 59.296,243.033 63.5,241.5 Z"/></g>
<g><path style="opacity:1" fill="#82d4ff" d="M 452.5,244.5 C 455.073,245.879 456.573,247.879 457,250.5C 443.862,262.637 431.029,275.137 418.5,288C 415.696,288.387 413.696,287.221 412.5,284.5C 426.167,271.5 439.5,258.167 452.5,244.5 Z"/></g>
<g><path style="opacity:1" fill="#44befe" d="M 29.5,247.5 C 35.4647,252.964 41.2981,258.63 47,264.5C 47.2414,267.289 47.908,269.956 49,272.5C 56.5302,280.365 64.3635,287.865 72.5,295C 74.8333,295.333 77.1667,295.667 79.5,296C 85.4306,301.424 90.7639,307.258 95.5,313.5C 93.7836,317.603 91.1169,320.936 87.5,323.5C 87.631,322.761 87.4643,322.094 87,321.5C 64.3269,299.66 41.8269,277.66 19.5,255.5C 22.0639,251.883 25.3972,249.216 29.5,247.5 Z"/></g>
<g><path style="opacity:1" fill="#44befe" d="M 481.5,247.5 C 485.603,249.216 488.936,251.883 491.5,255.5C 469.173,277.66 446.673,299.66 424,321.5C 423.536,322.094 423.369,322.761 423.5,323.5C 419.883,320.936 417.216,317.603 415.5,313.5C 420.236,307.258 425.569,301.424 431.5,296C 435.037,295.855 438.371,295.022 441.5,293.5C 447.833,286.5 454.5,279.833 461.5,273.5C 462.969,270.702 463.802,267.702 464,264.5C 469.702,258.63 475.535,252.964 481.5,247.5 Z"/></g>
<g><path style="opacity:1" fill="#68cdfe" d="M 428.5,230.5 C 442.197,232.924 455.53,236.59 468.5,241.5C 465.322,244.845 462.322,248.345 459.5,252C 461.408,254.954 462.242,258.12 462,261.5C 451.137,272.697 439.971,283.53 428.5,294C 425.185,294.011 422.019,293.178 419,291.5C 415.679,293.988 412.512,296.655 409.5,299.5C 408.833,299.5 408.5,299.167 408.5,298.5C 404.893,288.74 402.227,278.74 400.5,268.5C 400.738,266.596 401.738,265.262 403.5,264.5C 403.833,264.5 404.167,264.5 404.5,264.5C 405.811,271.778 408.478,278.444 412.5,284.5C 413.696,287.221 415.696,288.387 418.5,288C 431.029,275.137 443.862,262.637 457,250.5C 456.573,247.879 455.073,245.879 452.5,244.5C 446.444,240.478 439.778,237.811 432.5,236.5C 429.632,235.36 426.632,234.36 423.5,233.5C 424.401,231.273 426.067,230.273 428.5,230.5 Z"/></g>
<g><path style="opacity:1" fill="#3db6fd" d="M 19.5,255.5 C 41.8269,277.66 64.3269,299.66 87,321.5C 87.4643,322.094 87.631,322.761 87.5,323.5C 79.229,330.598 69.5624,334.598 58.5,335.5C 58.9175,334.778 59.5842,334.278 60.5,334C 58.5,332 56.5,330 54.5,328C 50.2036,327.924 46.2036,327.091 42.5,325.5C 43.6453,321.689 43.8119,317.689 43,313.5C 34.301,307.973 28.4677,300.307 25.5,290.5C 24.3769,282.164 24.2102,273.831 25,265.5C 18.8,272.3 15.6334,280.3 15.5,289.5C 13.0976,287.091 10.4309,285.091 7.5,283.5C 7.5,281.833 7.5,280.167 7.5,278.5C 9.64972,269.867 13.6497,262.201 19.5,255.5 Z"/></g>
<g><path style="opacity:1" fill="#65ccfe" d="M 68.5,233.5 C 71.3667,233.369 73.0334,234.703 73.5,237.5C 69.9368,238.282 66.6035,239.616 63.5,241.5C 59.296,243.033 55.9626,245.7 53.5,249.5C 66.6258,262.125 79.6258,274.959 92.5,288C 97.5696,287.092 100.57,283.925 101.5,278.5C 103.935,274.201 105.602,269.534 106.5,264.5C 106.833,264.5 107.167,264.5 107.5,264.5C 109.262,265.262 110.262,266.596 110.5,268.5C 108.773,278.74 106.107,288.74 102.5,298.5C 102.5,299.167 102.167,299.5 101.5,299.5C 98.7029,297.205 96.0362,294.705 93.5,292C 89.7597,292.377 86.0931,293.043 82.5,294C 71.0292,283.53 59.8625,272.697 49,261.5C 48.6948,259.443 48.6948,257.443 49,255.5C 45.5,252 42,248.5 38.5,245C 37.552,244.517 36.552,244.351 35.5,244.5C 45.9427,239.464 56.9427,235.797 68.5,233.5 Z"/></g>
<g><path style="opacity:1" fill="#ec8e0c" d="M 116.5,243.5 C 116.495,247.534 116.162,251.534 115.5,255.5C 114.735,258.096 114.401,260.763 114.5,263.5C 181.122,274.868 248.122,278.034 315.5,273C 342.59,270.484 369.59,267.318 396.5,263.5C 396.721,260.721 396.388,258.054 395.5,255.5C 394.838,251.534 394.505,247.534 394.5,243.5C 396.271,251.686 397.937,260.02 399.5,268.5C 399.119,269.931 398.119,270.764 396.5,271C 330.205,282.287 263.539,285.787 196.5,281.5C 177.968,279.571 159.301,277.571 140.5,275.5C 130.946,273.612 121.28,272.278 111.5,271.5C 111.5,270.5 111.5,269.5 111.5,268.5C 113.063,260.02 114.729,251.686 116.5,243.5 Z"/></g>
<g><path style="opacity:1" fill="#fbb300" d="M 115.5,255.5 C 208.833,255.5 302.167,255.5 395.5,255.5C 396.388,258.054 396.721,260.721 396.5,263.5C 369.59,267.318 342.59,270.484 315.5,273C 248.122,278.034 181.122,274.868 114.5,263.5C 114.401,260.763 114.735,258.096 115.5,255.5 Z"/></g>
<g><path style="opacity:1" fill="#3db6fd" d="M 491.5,255.5 C 497.35,262.201 501.35,269.867 503.5,278.5C 503.5,279.833 503.5,281.167 503.5,282.5C 500.833,284.833 498.167,287.167 495.5,289.5C 495.367,280.3 492.2,272.3 486,265.5C 487.459,276.8 486.292,287.8 482.5,298.5C 479.243,304.925 474.41,309.925 468,313.5C 467.501,317.486 467.334,321.486 467.5,325.5C 467.082,326.222 466.416,326.722 465.5,327C 462.5,327.333 459.5,327.667 456.5,328C 454.5,330 452.5,332 450.5,334C 452.058,334.21 453.391,334.71 454.5,335.5C 442.541,335.408 432.208,331.408 423.5,323.5C 423.369,322.761 423.536,322.094 424,321.5C 446.673,299.66 469.173,277.66 491.5,255.5 Z"/></g>
<g><path style="opacity:1" fill="#52c4fe" d="M 35.5,244.5 C 36.552,244.351 37.552,244.517 38.5,245C 42,248.5 45.5,252 49,255.5C 48.6948,257.443 48.6948,259.443 49,261.5C 59.8625,272.697 71.0292,283.53 82.5,294C 86.0931,293.043 89.7597,292.377 93.5,292C 96.0362,294.705 98.7029,297.205 101.5,299.5C 101.167,301.5 100.833,303.5 100.5,305.5C 99.5987,306.29 98.9321,307.29 98.5,308.5C 97.7368,310.368 96.7368,312.035 95.5,313.5C 90.7639,307.258 85.4306,301.424 79.5,296C 77.1667,295.667 74.8333,295.333 72.5,295C 64.3635,287.865 56.5302,280.365 49,272.5C 47.908,269.956 47.2414,267.289 47,264.5C 41.2981,258.63 35.4647,252.964 29.5,247.5C 31.1815,245.992 33.1815,244.992 35.5,244.5 Z"/></g>
<g><path style="opacity:1" fill="#7adbff" d="M 25.5,290.5 C 25.8254,298.352 25.492,306.018 24.5,313.5C 18.7691,306.655 15.7691,298.655 15.5,289.5C 15.6334,280.3 18.8,272.3 25,265.5C 24.2102,273.831 24.3769,282.164 25.5,290.5 Z"/></g>
<g><path style="opacity:1" fill="#b9b7b5" d="M 110.5,268.5 C 110.833,268.5 111.167,268.5 111.5,268.5C 111.5,269.5 111.5,270.5 111.5,271.5C 121.28,272.278 130.946,273.612 140.5,275.5C 140.988,278.711 140.321,281.544 138.5,284C 139.167,284.333 139.833,284.667 140.5,285C 134.277,285.659 129.61,286.992 126.5,289C 127.167,289.333 127.833,289.667 128.5,290C 124.679,291.412 121.012,293.079 117.5,295C 118.167,295.333 118.833,295.667 119.5,296C 116.721,296.889 114.055,298.056 111.5,299.5C 113.435,300.213 113.768,301.213 112.5,302.5C 109.167,301.167 105.833,299.833 102.5,298.5C 106.107,288.74 108.773,278.74 110.5,268.5 Z"/></g>
<g><path style="opacity:1" fill="#79dafe" d="M 495.5,289.5 C 495.342,300.343 491.342,309.343 483.5,316.5C 482.51,310.69 482.177,304.69 482.5,298.5C 486.292,287.8 487.459,276.8 486,265.5C 492.2,272.3 495.367,280.3 495.5,289.5 Z"/></g>
<g><path style="opacity:1" fill="#c5c2bf" d="M 140.5,275.5 C 159.301,277.571 177.968,279.571 196.5,281.5C 194.394,281.679 192.728,282.679 191.5,284.5C 187.216,285.565 182.883,286.398 178.5,287C 179.167,287.333 179.833,287.667 180.5,288C 172.102,290.133 163.769,292.466 155.5,295C 156.5,295.333 157.5,295.667 158.5,296C 156.167,296.333 153.833,296.667 151.5,297C 152.167,297.333 152.833,297.667 153.5,298C 151.122,298.511 148.788,299.178 146.5,300C 147.5,300.333 148.5,300.667 149.5,301C 142.823,302.407 138.489,306.24 136.5,312.5C 128.266,309.716 120.266,306.383 112.5,302.5C 113.768,301.213 113.435,300.213 111.5,299.5C 114.055,298.056 116.721,296.889 119.5,296C 118.833,295.667 118.167,295.333 117.5,295C 121.012,293.079 124.679,291.412 128.5,290C 127.833,289.667 127.167,289.333 126.5,289C 129.61,286.992 134.277,285.659 140.5,285C 139.833,284.667 139.167,284.333 138.5,284C 140.321,281.544 140.988,278.711 140.5,275.5 Z"/></g>
<g><path style="opacity:1" fill="#dbd8d6" d="M 384.5,308.5 C 377.401,311.756 370.068,314.422 362.5,316.5C 361.158,315.207 359.491,314.374 357.5,314C 358.5,313.667 359.5,313.333 360.5,313C 350.544,308.595 340.211,305.595 329.5,304C 325.584,302.657 321.917,300.991 318.5,299C 308.272,297.081 295.939,296.081 281.5,296C 283.833,295.667 286.167,295.333 288.5,295C 277.814,294.764 267.147,294.264 256.5,293.5C 251.519,294.165 246.519,294.665 241.5,295C 242.5,295.333 243.5,295.667 244.5,296C 238.256,297.726 229.922,299.06 219.5,300C 219.833,300.333 220.167,300.667 220.5,301C 212.056,302.815 204.056,305.815 196.5,310C 197.167,310.333 197.833,310.667 198.5,311C 196.913,311.862 195.246,312.529 193.5,313C 193.833,313.333 194.167,313.667 194.5,314C 193.167,314.667 191.833,315.333 190.5,316C 190.833,316.333 191.167,316.667 191.5,317C 189.283,318.275 186.949,319.275 184.5,320C 185.624,320.249 186.624,320.749 187.5,321.5C 185.922,322.298 184.256,322.798 182.5,323C 184.027,324.032 185.36,325.199 186.5,326.5C 181.908,326.118 177.575,325.118 173.5,323.5C 170.715,320.526 171.381,318.359 175.5,317C 174.833,316.667 174.167,316.333 173.5,316C 175.087,315.138 176.754,314.471 178.5,314C 178.167,313.667 177.833,313.333 177.5,313C 178.833,312.333 180.167,311.667 181.5,311C 180.167,310.333 180.167,309.667 181.5,309C 185.612,307.142 189.612,305.142 193.5,303C 192.167,302 190.833,301 189.5,300C 230.329,285.411 272.329,281.244 315.5,287.5C 335.822,290.329 355.822,294.496 375.5,300C 374.5,300.333 373.5,300.667 372.5,301C 375.167,301.333 377.833,301.667 380.5,302C 376.551,302.807 376.551,303.307 380.5,303.5C 380.5,304.5 380.5,305.5 380.5,306.5C 382.38,306.229 383.713,306.896 384.5,308.5 Z"/></g>
<g><path style="opacity:1" fill="#51c4fd" d="M 468.5,241.5 C 473.25,242.743 477.584,244.743 481.5,247.5C 475.535,252.964 469.702,258.63 464,264.5C 463.802,267.702 462.969,270.702 461.5,273.5C 454.5,279.833 447.833,286.5 441.5,293.5C 438.371,295.022 435.037,295.855 431.5,296C 425.569,301.424 420.236,307.258 415.5,313.5C 414.263,312.035 413.263,310.368 412.5,308.5C 412.068,307.29 411.401,306.29 410.5,305.5C 410.167,303.5 409.833,301.5 409.5,299.5C 412.512,296.655 415.679,293.988 419,291.5C 422.019,293.178 425.185,294.011 428.5,294C 439.971,283.53 451.137,272.697 462,261.5C 462.242,258.12 461.408,254.954 459.5,252C 462.322,248.345 465.322,244.845 468.5,241.5 Z"/></g>
<g><path style="opacity:1" fill="#d0ccc9" d="M 399.5,268.5 C 399.833,268.5 400.167,268.5 400.5,268.5C 402.227,278.74 404.893,288.74 408.5,298.5C 400.5,301.833 392.5,305.167 384.5,308.5C 383.713,306.896 382.38,306.229 380.5,306.5C 380.5,305.5 380.5,304.5 380.5,303.5C 376.551,303.307 376.551,302.807 380.5,302C 377.833,301.667 375.167,301.333 372.5,301C 373.5,300.667 374.5,300.333 375.5,300C 355.822,294.496 335.822,290.329 315.5,287.5C 272.329,281.244 230.329,285.411 189.5,300C 190.833,301 192.167,302 193.5,303C 189.612,305.142 185.612,307.142 181.5,309C 180.167,309.667 180.167,310.333 181.5,311C 180.167,311.667 178.833,312.333 177.5,313C 177.833,313.333 178.167,313.667 178.5,314C 176.754,314.471 175.087,315.138 173.5,316C 174.167,316.333 174.833,316.667 175.5,317C 171.381,318.359 170.715,320.526 173.5,323.5C 160.86,320.842 148.527,317.175 136.5,312.5C 138.489,306.24 142.823,302.407 149.5,301C 148.5,300.667 147.5,300.333 146.5,300C 148.788,299.178 151.122,298.511 153.5,298C 152.833,297.667 152.167,297.333 151.5,297C 153.833,296.667 156.167,296.333 158.5,296C 157.5,295.667 156.5,295.333 155.5,295C 163.769,292.466 172.102,290.133 180.5,288C 179.833,287.667 179.167,287.333 178.5,287C 182.883,286.398 187.216,285.565 191.5,284.5C 192.728,282.679 194.394,281.679 196.5,281.5C 263.539,285.787 330.205,282.287 396.5,271C 398.119,270.764 399.119,269.931 399.5,268.5 Z"/></g>
<g><path style="opacity:1" fill="#62ccfd" d="M 25.5,290.5 C 28.4677,300.307 34.301,307.973 43,313.5C 43.8119,317.689 43.6453,321.689 42.5,325.5C 35.1608,323.498 29.1608,319.498 24.5,313.5C 25.492,306.018 25.8254,298.352 25.5,290.5 Z"/></g>
<g><path style="opacity:1" fill="#e6e2df" d="M 362.5,316.5 C 354.298,319.301 345.964,321.634 337.5,323.5C 335.631,322.835 333.631,322.169 331.5,321.5C 332.729,320.719 334.062,320.219 335.5,320C 325.912,317.193 316.579,313.693 307.5,309.5C 292.517,307.613 277.517,305.946 262.5,304.5C 257.5,304.833 252.5,305.167 247.5,305.5C 243.251,307.627 238.751,308.96 234,309.5C 226.613,313.223 219.113,316.723 211.5,320C 212.624,320.249 213.624,320.749 214.5,321.5C 212.955,322.452 211.288,322.785 209.5,322.5C 209.64,324.124 208.973,325.29 207.5,326C 208.5,326.5 209.5,327 210.5,327.5C 212.252,325.123 214.252,324.956 216.5,327C 214.779,327.739 213.113,328.573 211.5,329.5C 213.969,330.168 216.302,330.835 218.5,331.5C 207.54,330.894 196.873,329.228 186.5,326.5C 185.36,325.199 184.027,324.032 182.5,323C 184.256,322.798 185.922,322.298 187.5,321.5C 186.624,320.749 185.624,320.249 184.5,320C 186.949,319.275 189.283,318.275 191.5,317C 191.167,316.667 190.833,316.333 190.5,316C 191.833,315.333 193.167,314.667 194.5,314C 194.167,313.667 193.833,313.333 193.5,313C 195.246,312.529 196.913,311.862 198.5,311C 197.833,310.667 197.167,310.333 196.5,310C 204.056,305.815 212.056,302.815 220.5,301C 220.167,300.667 219.833,300.333 219.5,300C 229.922,299.06 238.256,297.726 244.5,296C 243.5,295.667 242.5,295.333 241.5,295C 246.519,294.665 251.519,294.165 256.5,293.5C 267.147,294.264 277.814,294.764 288.5,295C 286.167,295.333 283.833,295.667 281.5,296C 295.939,296.081 308.272,297.081 318.5,299C 321.917,300.991 325.584,302.657 329.5,304C 340.211,305.595 350.544,308.595 360.5,313C 359.5,313.333 358.5,313.667 357.5,314C 359.491,314.374 361.158,315.207 362.5,316.5 Z"/></g>
<g><path style="opacity:1" fill="#490c12" d="M 102.5,298.5 C 105.833,299.833 109.167,301.167 112.5,302.5C 120.266,306.383 128.266,309.716 136.5,312.5C 148.527,317.175 160.86,320.842 173.5,323.5C 177.575,325.118 181.908,326.118 186.5,326.5C 196.873,329.228 207.54,330.894 218.5,331.5C 258.721,335.782 298.388,333.115 337.5,323.5C 345.964,321.634 354.298,319.301 362.5,316.5C 370.068,314.422 377.401,311.756 384.5,308.5C 392.5,305.167 400.5,301.833 408.5,298.5C 408.5,299.167 408.833,299.5 409.5,299.5C 409.833,301.5 410.167,303.5 410.5,305.5C 407.221,318.67 402.554,331.337 396.5,343.5C 302.174,342.008 207.84,341.008 113.5,340.5C 107.407,329.563 103.074,317.897 100.5,305.5C 100.833,303.5 101.167,301.5 101.5,299.5C 102.167,299.5 102.5,299.167 102.5,298.5 Z"/></g>
<g><path style="opacity:1" fill="#f5ba06" d="M 100.5,305.5 C 103.074,317.897 107.407,329.563 113.5,340.5C 116.374,347.915 120.041,354.915 124.5,361.5C 130.066,370.401 136.733,378.401 144.5,385.5C 158.482,400.496 175.149,411.496 194.5,418.5C 213.576,426.459 233.576,430.126 254.5,429.5C 276.051,430.092 296.717,426.426 316.5,418.5C 335.176,412.129 351.176,401.796 364.5,387.5C 372.337,380.809 379.004,373.142 384.5,364.5C 389.271,357.961 393.271,350.961 396.5,343.5C 402.554,331.337 407.221,318.67 410.5,305.5C 411.401,306.29 412.068,307.29 412.5,308.5C 411.388,310.599 410.721,312.933 410.5,315.5C 405.952,331.795 399.618,347.462 391.5,362.5C 383.955,374.887 374.955,386.22 364.5,396.5C 342.018,417.241 315.684,430.241 285.5,435.5C 265.166,438.148 244.832,438.148 224.5,435.5C 194.474,430.456 168.474,417.456 146.5,396.5C 136.045,386.22 127.045,374.887 119.5,362.5C 111.725,347.302 105.391,331.635 100.5,315.5C 100.279,312.933 99.6118,310.599 98.5,308.5C 98.9321,307.29 99.5987,306.29 100.5,305.5 Z"/></g>
<g><path style="opacity:1" fill="#f0ece8" d="M 337.5,323.5 C 298.388,333.115 258.721,335.782 218.5,331.5C 216.302,330.835 213.969,330.168 211.5,329.5C 213.113,328.573 214.779,327.739 216.5,327C 214.252,324.956 212.252,325.123 210.5,327.5C 209.5,327 208.5,326.5 207.5,326C 208.973,325.29 209.64,324.124 209.5,322.5C 211.288,322.785 212.955,322.452 214.5,321.5C 213.624,320.749 212.624,320.249 211.5,320C 219.113,316.723 226.613,313.223 234,309.5C 238.751,308.96 243.251,307.627 247.5,305.5C 252.5,305.167 257.5,304.833 262.5,304.5C 277.517,305.946 292.517,307.613 307.5,309.5C 316.579,313.693 325.912,317.193 335.5,320C 334.062,320.219 332.729,320.719 331.5,321.5C 333.631,322.169 335.631,322.835 337.5,323.5 Z"/></g>
<g><path style="opacity:1" fill="#ec8e09" d="M 11.5,307.5 C 21.6295,325.933 37.2962,335.267 58.5,335.5C 69.5624,334.598 79.229,330.598 87.5,323.5C 91.1169,320.936 93.7836,317.603 95.5,313.5C 96.7368,312.035 97.7368,310.368 98.5,308.5C 99.6118,310.599 100.279,312.933 100.5,315.5C 96.9541,333.548 86.2875,345.048 68.5,350C 47.3634,354.571 30.3634,348.404 17.5,331.5C 14.8987,323.762 12.8987,315.762 11.5,307.5 Z"/></g>
<g><path style="opacity:1" fill="#ec8d08" d="M 499.5,307.5 C 497.814,316.243 495.814,324.909 493.5,333.5C 478.192,350.495 459.526,355.662 437.5,349C 422.388,342.725 413.388,331.558 410.5,315.5C 410.721,312.933 411.388,310.599 412.5,308.5C 413.263,310.368 414.263,312.035 415.5,313.5C 417.216,317.603 419.883,320.936 423.5,323.5C 432.208,331.408 442.541,335.408 454.5,335.5C 475.161,335.015 490.161,325.681 499.5,307.5 Z"/></g>
<g><path style="opacity:1" fill="#59c7fd" d="M 482.5,298.5 C 482.177,304.69 482.51,310.69 483.5,316.5C 479.379,321.563 474.046,324.563 467.5,325.5C 467.334,321.486 467.501,317.486 468,313.5C 474.41,309.925 479.243,304.925 482.5,298.5 Z"/></g>
<g><path style="opacity:1" fill="#36aafb" d="M 7.5,283.5 C 10.4309,285.091 13.0976,287.091 15.5,289.5C 15.7691,298.655 18.7691,306.655 24.5,313.5C 29.1608,319.498 35.1608,323.498 42.5,325.5C 46.2036,327.091 50.2036,327.924 54.5,328C 56.5,330 58.5,332 60.5,334C 59.5842,334.278 58.9175,334.778 58.5,335.5C 37.2962,335.267 21.6295,325.933 11.5,307.5C 8.00085,299.922 6.66752,291.922 7.5,283.5 Z"/></g>
<g><path style="opacity:1" fill="#34aafb" d="M 503.5,282.5 C 504.367,291.252 503.034,299.585 499.5,307.5C 490.161,325.681 475.161,335.015 454.5,335.5C 453.391,334.71 452.058,334.21 450.5,334C 452.5,332 454.5,330 456.5,328C 459.5,327.667 462.5,327.333 465.5,327C 466.416,326.722 467.082,326.222 467.5,325.5C 474.046,324.563 479.379,321.563 483.5,316.5C 491.342,309.343 495.342,300.343 495.5,289.5C 498.167,287.167 500.833,284.833 503.5,282.5 Z"/></g>
<g><path style="opacity:0.992" fill="#faa400" d="M 100.5,315.5 C 105.391,331.635 111.725,347.302 119.5,362.5C 88.9954,362.169 58.6621,362.502 28.5,363.5C 23.6658,353.334 19.9992,342.667 17.5,331.5C 30.3634,348.404 47.3634,354.571 68.5,350C 86.2875,345.048 96.9541,333.548 100.5,315.5 Z"/></g>
<g><path style="opacity:0.994" fill="#faa400" d="M 410.5,315.5 C 413.388,331.558 422.388,342.725 437.5,349C 459.526,355.662 478.192,350.495 493.5,333.5C 490.74,343.12 487.406,352.453 483.5,361.5C 452.907,362.492 422.24,362.825 391.5,362.5C 399.618,347.462 405.952,331.795 410.5,315.5 Z"/></g>
<g><path style="opacity:1" fill="#4c0c13" d="M 113.5,340.5 C 207.84,341.008 302.174,342.008 396.5,343.5C 393.271,350.961 389.271,357.961 384.5,364.5C 297.826,363.883 211.16,362.883 124.5,361.5C 120.041,354.915 116.374,347.915 113.5,340.5 Z"/></g>
<g><path style="opacity:0.995" fill="#fa9f00" d="M 483.5,361.5 C 479.34,373.684 473.674,385.017 466.5,395.5C 432.573,396.493 398.573,396.826 364.5,396.5C 374.955,386.22 383.955,374.887 391.5,362.5C 422.24,362.825 452.907,362.492 483.5,361.5 Z"/></g>
<g><path style="opacity:0.997" fill="#fa9f00" d="M 119.5,362.5 C 127.045,374.887 136.045,386.22 146.5,396.5C 112.663,396.168 78.9959,396.502 45.5,397.5C 38.3262,387.017 32.6596,375.684 28.5,363.5C 58.6621,362.502 88.9954,362.169 119.5,362.5 Z"/></g>
<g><path style="opacity:1" fill="#530d15" d="M 124.5,361.5 C 211.16,362.883 297.826,363.883 384.5,364.5C 379.004,373.142 372.337,380.809 364.5,387.5C 337.827,387.564 311.16,387.231 284.5,386.5C 265.167,379.833 245.833,379.833 226.5,386.5C 199.183,385.562 171.85,385.229 144.5,385.5C 136.733,378.401 130.066,370.401 124.5,361.5 Z"/></g>
<g><path style="opacity:1" fill="#8f050e" d="M 284.5,386.5 C 290.872,390.024 296.872,394.191 302.5,399C 307.835,405.145 312.501,411.645 316.5,418.5C 296.717,426.426 276.051,430.092 254.5,429.5C 233.576,430.126 213.576,426.459 194.5,418.5C 197.994,412.149 202.161,406.149 207,400.5C 213.123,395.195 219.623,390.528 226.5,386.5C 245.833,379.833 265.167,379.833 284.5,386.5 Z"/></g>
<g><path style="opacity:1" fill="#5b0e17" d="M 144.5,385.5 C 171.85,385.229 199.183,385.562 226.5,386.5C 219.623,390.528 213.123,395.195 207,400.5C 202.161,406.149 197.994,412.149 194.5,418.5C 175.149,411.496 158.482,400.496 144.5,385.5 Z"/></g>
<g><path style="opacity:1" fill="#5b0e17" d="M 284.5,386.5 C 311.16,387.231 337.827,387.564 364.5,387.5C 351.176,401.796 335.176,412.129 316.5,418.5C 312.501,411.645 307.835,405.145 302.5,399C 296.872,394.191 290.872,390.024 284.5,386.5 Z"/></g>
<g><path style="opacity:0.996" fill="#fa9800" d="M 466.5,395.5 C 458.08,410.59 447.747,424.257 435.5,436.5C 385.669,435.501 335.669,435.168 285.5,435.5C 315.684,430.241 342.018,417.241 364.5,396.5C 398.573,396.826 432.573,396.493 466.5,395.5 Z"/></g>
<g><path style="opacity:0.997" fill="#fa9800" d="M 146.5,396.5 C 168.474,417.456 194.474,430.456 224.5,435.5C 174.195,435.491 124.195,435.491 74.5,435.5C 70.4521,431.766 66.6187,427.766 63,423.5C 56.4032,415.294 50.5698,406.627 45.5,397.5C 78.9959,396.502 112.663,396.168 146.5,396.5 Z"/></g>
<g><path style="opacity:0.997" fill="#f99200" d="M 224.5,435.5 C 244.832,438.148 265.166,438.148 285.5,435.5C 335.669,435.168 385.669,435.501 435.5,436.5C 423.227,449.781 409.227,460.781 393.5,469.5C 301.665,469.167 209.998,469.501 118.5,470.5C 102.08,461.085 87.4138,449.419 74.5,435.5C 124.195,435.491 174.195,435.491 224.5,435.5 Z"/></g>
<g><path style="opacity:0.989" fill="#f98d00" d="M 393.5,469.5 C 372.334,482.843 349.334,492.009 324.5,497C 278.5,505.667 232.5,505.667 186.5,497C 162.305,491.722 139.638,482.889 118.5,470.5C 209.998,469.501 301.665,469.167 393.5,469.5 Z"/></g>
</svg>
