<?xml version="1.0" encoding="UTF-8"?>
<!DOCTYPE svg PUBLIC "-//W3C//DTD SVG 1.1//EN" "http://www.w3.org/Graphics/SVG/1.1/DTD/svg11.dtd">
<svg xmlns="http://www.w3.org/2000/svg" version="1.1" width="512px" height="512px" style="shape-rendering:geometricPrecision; text-rendering:geometricPrecision; image-rendering:optimizeQuality; fill-rule:evenodd; clip-rule:evenodd" xmlns:xlink="http://www.w3.org/1999/xlink">
<g><path style="opacity:0.974" fill="#59ddfe" d="M 431.5,25.5 C 413.833,26.1667 396.167,26.8333 378.5,27.5C 375.518,27.0371 372.518,26.7038 369.5,26.5C 360.204,23.4569 350.537,21.7902 340.5,21.5C 285.346,13.9153 230.013,13.582 174.5,20.5C 153.833,19.8333 133.167,19.1667 112.5,18.5C 174.109,8.5117 236.109,5.0117 298.5,8C 343.402,9.6543 387.735,15.4876 431.5,25.5 Z"/></g>
<g><path style="opacity:1" fill="#53cbfd" d="M 340.5,21.5 C 283.5,21.5 226.5,21.5 169.5,21.5C 170.919,20.5489 172.585,20.2155 174.5,20.5C 230.013,13.582 285.346,13.9153 340.5,21.5 Z"/></g>
<g><path style="opacity:1" fill="#54c2fa" d="M 169.5,21.5 C 226.5,21.5 283.5,21.5 340.5,21.5C 350.537,21.7902 360.204,23.4569 369.5,26.5C 348.66,26.1695 327.993,26.5028 307.5,27.5C 272.828,22.1893 238.161,22.1893 203.5,27.5C 182.673,26.5027 161.673,26.1694 140.5,26.5C 142.877,25.1127 145.543,24.2794 148.5,24C 155.438,22.5784 162.438,21.7451 169.5,21.5 Z"/></g>
<g><path style="opacity:0.993" fill="#fedd01" d="M 307.5,27.5 C 322.152,30.8293 336.818,34.1626 351.5,37.5C 351.5,38.1667 351.833,38.5 352.5,38.5C 352.833,38.5 353.167,38.5 353.5,38.5C 368.487,44.4936 382.82,51.8269 396.5,60.5C 302.335,61.4994 208.001,61.8327 113.5,61.5C 127.315,52.2584 141.982,44.5918 157.5,38.5C 157.833,38.5 158.167,38.5 158.5,38.5C 159.167,38.5 159.5,38.1667 159.5,37.5C 174.161,34.1683 188.827,30.835 203.5,27.5C 238.161,22.1893 272.828,22.1893 307.5,27.5 Z"/></g>
<g><path style="opacity:1" fill="#50b6fb" d="M 140.5,26.5 C 161.673,26.1694 182.673,26.5027 203.5,27.5C 188.827,30.835 174.161,34.1683 159.5,37.5C 158.833,37.5 158.5,37.8333 158.5,38.5C 158.167,38.5 157.833,38.5 157.5,38.5C 135.482,40.8035 113.815,44.9702 92.5,51C 84.9253,53.4137 77.592,56.4137 70.5,60C 68.0038,61.331 66.0038,63.1644 64.5,65.5C 63.9569,65.44 63.6236,65.1067 63.5,64.5C 66.8466,57.3148 71.8466,51.4815 78.5,47C 97.9716,36.4538 118.638,29.6205 140.5,26.5 Z"/></g>
<g><path style="opacity:1" fill="#50b6fb" d="M 307.5,27.5 C 327.993,26.5028 348.66,26.1695 369.5,26.5C 372.518,26.7038 375.518,27.0371 378.5,27.5C 396.541,31.57 413.874,37.7366 430.5,46C 438.316,50.479 443.983,56.8124 447.5,65C 447.43,65.7648 447.097,66.2648 446.5,66.5C 445.409,63.5722 443.409,61.4055 440.5,60C 421.069,51.0574 400.735,45.0574 379.5,42C 370.892,40.3407 362.225,39.1741 353.5,38.5C 353.167,38.5 352.833,38.5 352.5,38.5C 351.833,38.5 351.5,38.1667 351.5,37.5C 336.818,34.1626 322.152,30.8293 307.5,27.5 Z"/></g>
<g><path style="opacity:0.985" fill="#69e1fe" d="M 112.5,18.5 C 133.167,19.1667 153.833,19.8333 174.5,20.5C 172.585,20.2155 170.919,20.5489 169.5,21.5C 162.438,21.7451 155.438,22.5784 148.5,24C 145.543,24.2794 142.877,25.1127 140.5,26.5C 118.638,29.6205 97.9716,36.4538 78.5,47C 71.8466,51.4815 66.8466,57.3148 63.5,64.5C 63.6236,65.1067 63.9569,65.44 64.5,65.5C 64.2471,67.8273 64.9137,69.8273 66.5,71.5C 70.7675,74.1309 75.1008,76.4643 79.5,78.5C 73.9738,78.1786 68.6405,78.5119 63.5,79.5C 58.9367,75.2887 54.4367,70.9553 50,66.5C 49.3333,65.1667 49.3333,63.8333 50,62.5C 53.8231,59.5209 56.6565,55.8542 58.5,51.5C 57.9615,48.7967 56.2948,47.2967 53.5,47C 39.3039,45.4317 27.1373,49.5984 17,59.5C 15.7114,62.3508 15.2114,65.3508 15.5,68.5C 14.5655,67.4324 14.2322,66.099 14.5,64.5C 12.5853,64.7845 10.9187,64.4511 9.5,63.5C 11.6147,57.7902 15.2813,53.2902 20.5,50C 38.46,38.8962 57.7933,30.8962 78.5,26C 89.7812,23.1792 101.114,20.6792 112.5,18.5 Z"/></g>
<g><path style="opacity:0.987" fill="#6be1fe" d="M 431.5,25.5 C 447.277,29.704 462.611,35.204 477.5,42C 483.844,45.5038 489.844,49.5038 495.5,54C 498.448,57.1099 500.781,60.6099 502.5,64.5C 500.167,64.5 497.833,64.5 495.5,64.5C 493.065,58.2604 488.731,53.7604 482.5,51C 473.75,47.819 464.75,46.4856 455.5,47C 450.774,49.4179 450.274,52.5846 454,56.5C 460.866,59.9604 462.033,64.6271 457.5,70.5C 453.388,68.9772 449.388,69.3105 445.5,71.5C 446.038,69.8828 446.371,68.2161 446.5,66.5C 447.097,66.2648 447.43,65.7648 447.5,65C 443.983,56.8124 438.316,50.479 430.5,46C 413.874,37.7366 396.541,31.57 378.5,27.5C 396.167,26.8333 413.833,26.1667 431.5,25.5 Z"/></g>
<g><path style="opacity:1" fill="#89ebff" d="M 63.5,79.5 C 63.9572,83.4196 62.2905,85.9196 58.5,87C 43.3619,88.676 29.8619,84.8426 18,75.5C 16.5886,73.3496 15.7553,71.0163 15.5,68.5C 15.2114,65.3508 15.7114,62.3508 17,59.5C 27.1373,49.5984 39.3039,45.4317 53.5,47C 56.2948,47.2967 57.9615,48.7967 58.5,51.5C 56.6565,55.8542 53.8231,59.5209 50,62.5C 49.3333,63.8333 49.3333,65.1667 50,66.5C 54.4367,70.9553 58.9367,75.2887 63.5,79.5 Z"/></g>
<g><path style="opacity:1" fill="#89ebff" d="M 495.5,64.5 C 494.79,74.0523 489.79,80.2189 480.5,83C 470.752,86.202 460.752,87.5354 450.5,87C 447.136,83.9738 446.636,80.4738 449,76.5C 451.599,74.1215 454.433,72.1215 457.5,70.5C 462.033,64.6271 460.866,59.9604 454,56.5C 450.274,52.5846 450.774,49.4179 455.5,47C 464.75,46.4856 473.75,47.819 482.5,51C 488.731,53.7604 493.065,58.2604 495.5,64.5 Z"/></g>
<g><path style="opacity:0.997" fill="#fdd703" d="M 396.5,60.5 C 405.527,66.6823 414.194,73.349 422.5,80.5C 409.838,84.0582 396.838,86.5582 383.5,88C 365.697,89.9798 348.03,91.8131 330.5,93.5C 279.833,96.1667 229.166,96.1667 178.5,93.5C 158.604,91.782 138.604,89.6153 118.5,87C 108.174,85.7013 98.1741,83.5346 88.5,80.5C 96.2944,73.4385 104.628,67.1052 113.5,61.5C 208.001,61.8327 302.335,61.4994 396.5,60.5 Z"/></g>
<g><path style="opacity:1" fill="#5bd6fd" d="M 9.5,63.5 C 10.9187,64.4511 12.5853,64.7845 14.5,64.5C 14.2322,66.099 14.5655,67.4324 15.5,68.5C 15.7553,71.0163 16.5886,73.3496 18,75.5C 29.8619,84.8426 43.3619,88.676 58.5,87C 62.2905,85.9196 63.9572,83.4196 63.5,79.5C 68.6405,78.5119 73.9738,78.1786 79.5,78.5C 82.5394,79.01 85.5394,79.6766 88.5,80.5C 98.1741,83.5346 108.174,85.7013 118.5,87C 138.604,89.6153 158.604,91.782 178.5,93.5C 127.166,93.3333 75.8323,93.5 24.5,94C 25.056,94.3826 25.3893,94.8826 25.5,95.5C 15.1399,90.7835 9.13988,82.7835 7.5,71.5C 7.28653,68.4733 7.9532,65.8066 9.5,63.5 Z"/></g>
<g><path style="opacity:1" fill="#5ed6fc" d="M 495.5,64.5 C 497.833,64.5 500.167,64.5 502.5,64.5C 505.298,74.0868 502.964,82.2535 495.5,89C 492.621,91.3852 489.621,93.5518 486.5,95.5C 434.844,93.5044 382.844,92.8377 330.5,93.5C 348.03,91.8131 365.697,89.9798 383.5,88C 396.838,86.5582 409.838,84.0582 422.5,80.5C 430.742,78.8658 438.409,75.8658 445.5,71.5C 449.388,69.3105 453.388,68.9772 457.5,70.5C 454.433,72.1215 451.599,74.1215 449,76.5C 446.636,80.4738 447.136,83.9738 450.5,87C 460.752,87.5354 470.752,86.202 480.5,83C 489.79,80.2189 494.79,74.0523 495.5,64.5 Z"/></g>
<g><path style="opacity:1" fill="#4bd0fe" d="M 178.5,93.5 C 229.166,96.1667 279.833,96.1667 330.5,93.5C 382.844,92.8377 434.844,93.5044 486.5,95.5C 482.783,98.0249 478.783,100.025 474.5,101.5C 328.5,100.167 182.5,100.167 36.5,101.5C 32.3447,100.258 28.678,98.2583 25.5,95.5C 25.3893,94.8826 25.056,94.3826 24.5,94C 75.8323,93.5 127.166,93.3333 178.5,93.5 Z"/></g>
<g><path style="opacity:1" fill="#44cbff" d="M 474.5,101.5 C 471.912,103.625 468.912,104.958 465.5,105.5C 325.5,104.167 185.5,104.167 45.5,105.5C 42.0878,104.958 39.0878,103.625 36.5,101.5C 182.5,100.167 328.5,100.167 474.5,101.5 Z"/></g>
<g><path style="opacity:1" fill="#43c4ff" d="M 465.5,105.5 C 461.556,107.964 457.223,109.63 452.5,110.5C 452.918,109.778 453.584,109.278 454.5,109C 321.833,108.333 189.167,108.333 56.5,109C 57.4158,109.278 58.0825,109.778 58.5,110.5C 53.7769,109.63 49.4436,107.964 45.5,105.5C 185.5,104.167 325.5,104.167 465.5,105.5 Z"/></g>
<g><path style="opacity:1" fill="#42befe" d="M 452.5,110.5 C 451.791,111.404 450.791,111.737 449.5,111.5C 448.167,111.833 446.833,112.167 445.5,112.5C 318.833,111.167 192.167,111.167 65.5,112.5C 64.0413,112.567 62.7079,112.234 61.5,111.5C 60.209,111.737 59.209,111.404 58.5,110.5C 58.0825,109.778 57.4158,109.278 56.5,109C 189.167,108.333 321.833,108.333 454.5,109C 453.584,109.278 452.918,109.778 452.5,110.5 Z"/></g>
<g><path style="opacity:1" fill="#42b8fe" d="M 65.5,112.5 C 192.167,111.167 318.833,111.167 445.5,112.5C 442.579,113.696 439.579,114.696 436.5,115.5C 433.461,116.01 430.461,116.677 427.5,117.5C 312.833,116.167 198.167,116.167 83.5,117.5C 80.5,116.833 77.5,116.167 74.5,115.5C 71.4214,114.696 68.4214,113.696 65.5,112.5 Z"/></g>
<g><path style="opacity:1" fill="#40b1fe" d="M 83.5,117.5 C 198.167,116.167 312.833,116.167 427.5,117.5C 423.127,118.343 418.793,119.343 414.5,120.5C 308.5,119.167 202.5,119.167 96.5,120.5C 92.1266,119.657 87.7933,118.657 83.5,117.5 Z"/></g>
<g><path style="opacity:1" fill="#40abfe" d="M 96.5,120.5 C 202.5,119.167 308.5,119.167 414.5,120.5C 409.752,121.249 405.085,122.249 400.5,123.5C 304.167,122.167 207.833,122.167 111.5,123.5C 106.531,122.373 101.531,121.373 96.5,120.5 Z"/></g>
<g><path style="opacity:1" fill="#40a5fe" d="M 111.5,123.5 C 207.833,122.167 304.167,122.167 400.5,123.5C 394.394,124.073 388.394,125.073 382.5,126.5C 297.833,125.167 213.167,125.167 128.5,126.5C 122.771,125.823 117.105,124.823 111.5,123.5 Z"/></g>
<g><path style="opacity:0.993" fill="#fdca00" d="M 61.5,111.5 C 62.7079,112.234 64.0413,112.567 65.5,112.5C 68.4214,113.696 71.4214,114.696 74.5,115.5C 79.3726,125.708 86.7059,133.708 96.5,139.5C 104.385,144.61 112.718,148.943 121.5,152.5C 123.741,153.621 126.075,154.787 128.5,156C 136.983,159.065 145.65,161.565 154.5,163.5C 114.337,164.499 74.0034,164.832 33.5,164.5C 40.4982,145.499 49.8315,127.833 61.5,111.5 Z"/></g>
<g><path style="opacity:1" fill="#419ffd" d="M 128.5,126.5 C 213.167,125.167 297.833,125.167 382.5,126.5C 375.088,127.211 367.755,128.211 360.5,129.5C 290.5,128.167 220.5,128.167 150.5,129.5C 143.163,128.5 135.83,127.5 128.5,126.5 Z"/></g>
<g><path style="opacity:0.993" fill="#fdca00" d="M 449.5,111.5 C 461.169,127.833 470.502,145.499 477.5,164.5C 436.997,164.832 396.663,164.499 356.5,163.5C 365.168,161.655 373.501,158.988 381.5,155.5C 389.574,152.926 397.241,149.593 404.5,145.5C 409.543,142.985 414.21,139.985 418.5,136.5C 426.682,131.322 432.682,124.322 436.5,115.5C 439.579,114.696 442.579,113.696 445.5,112.5C 446.833,112.167 448.167,111.833 449.5,111.5 Z"/></g>
<g><path style="opacity:1" fill="#f8aa10" d="M 436.5,115.5 C 432.682,124.322 426.682,131.322 418.5,136.5C 416.801,136.66 415.134,136.494 413.5,136C 414.167,135.667 414.833,135.333 415.5,135C 399.161,134.408 382.828,134.574 366.5,135.5C 362.167,135.333 357.833,135.167 353.5,135C 354.5,134.667 355.5,134.333 356.5,134C 345.172,133.5 333.838,133.333 322.5,133.5C 334.984,131.784 347.65,130.451 360.5,129.5C 367.755,128.211 375.088,127.211 382.5,126.5C 388.394,125.073 394.394,124.073 400.5,123.5C 405.085,122.249 409.752,121.249 414.5,120.5C 418.793,119.343 423.127,118.343 427.5,117.5C 430.461,116.677 433.461,116.01 436.5,115.5 Z"/></g>
<g><path style="opacity:1" fill="#fbb104" d="M 74.5,115.5 C 77.5,116.167 80.5,116.833 83.5,117.5C 87.7933,118.657 92.1266,119.657 96.5,120.5C 101.531,121.373 106.531,122.373 111.5,123.5C 117.105,124.823 122.771,125.823 128.5,126.5C 135.83,127.5 143.163,128.5 150.5,129.5C 207.699,135.852 265.033,137.186 322.5,133.5C 333.838,133.333 345.172,133.5 356.5,134C 355.5,134.333 354.5,134.667 353.5,135C 357.833,135.167 362.167,135.333 366.5,135.5C 382.828,134.574 399.161,134.408 415.5,135C 414.833,135.333 414.167,135.667 413.5,136C 415.134,136.494 416.801,136.66 418.5,136.5C 414.21,139.985 409.543,142.985 404.5,145.5C 377.16,146.008 349.827,145.341 322.5,143.5C 317.345,144.007 312.179,144.341 307,144.5C 296.88,142.964 284.713,141.964 270.5,141.5C 263.074,142.736 255.574,143.402 248,143.5C 237.546,141.958 225.046,140.958 210.5,140.5C 203.074,141.736 195.574,142.402 188,142.5C 177.88,140.964 165.713,139.964 151.5,139.5C 140.579,141.282 129.579,141.782 118.5,141C 119.5,140.667 120.5,140.333 121.5,140C 113.173,139.5 104.84,139.334 96.5,139.5C 86.7059,133.708 79.3726,125.708 74.5,115.5 Z"/></g>
<g><path style="opacity:1" fill="#4896f9" d="M 150.5,129.5 C 220.5,128.167 290.5,128.167 360.5,129.5C 347.65,130.451 334.984,131.784 322.5,133.5C 265.033,137.186 207.699,135.852 150.5,129.5 Z"/></g>
<g><path style="opacity:1" fill="#fcb800" d="M 96.5,139.5 C 104.84,139.334 113.173,139.5 121.5,140C 120.5,140.333 119.5,140.667 118.5,141C 129.579,141.782 140.579,141.282 151.5,139.5C 165.713,139.964 177.88,140.964 188,142.5C 195.574,142.402 203.074,141.736 210.5,140.5C 225.046,140.958 237.546,141.958 248,143.5C 255.574,143.402 263.074,142.736 270.5,141.5C 284.713,141.964 296.88,142.964 307,144.5C 312.179,144.341 317.345,144.007 322.5,143.5C 349.827,145.341 377.16,146.008 404.5,145.5C 397.241,149.593 389.574,152.926 381.5,155.5C 374.388,155.449 367.388,156.116 360.5,157.5C 347.833,156.167 335.167,154.833 322.5,153.5C 315.317,154.395 308.15,155.395 301,156.5C 298.5,156.333 296,156.167 293.5,156C 295.246,155.529 296.913,154.862 298.5,154C 286.494,153.643 274.494,153.143 262.5,152.5C 255.445,153.301 248.445,154.301 241.5,155.5C 238.833,155.333 236.167,155.167 233.5,155C 235.5,154.333 237.5,153.667 239.5,153C 227.494,152.643 215.494,152.143 203.5,151.5C 197.319,152.061 191.152,152.728 185,153.5C 182.5,153.333 180,153.167 177.5,153C 178.167,152.667 178.833,152.333 179.5,152C 167.494,151.643 155.494,151.143 143.5,150.5C 136.245,151.802 128.911,152.469 121.5,152.5C 112.718,148.943 104.385,144.61 96.5,139.5 Z"/></g>
<g><path style="opacity:1" fill="#fcbe00" d="M 381.5,155.5 C 373.501,158.988 365.168,161.655 356.5,163.5C 342.002,167.194 327.336,169.694 312.5,171C 313.167,170.667 313.833,170.333 314.5,170C 301.491,169.404 288.491,169.071 275.5,169C 281.464,170.216 287.464,171.216 293.5,172C 278.836,172.048 264.169,171.715 249.5,171C 251.5,170.333 253.5,169.667 255.5,169C 242.159,168.381 228.826,168.047 215.5,168C 217.5,168.333 219.5,168.667 221.5,169C 212.167,169.667 202.833,169.667 193.5,169C 194.5,168.667 195.5,168.333 196.5,168C 182.255,168.416 168.255,166.916 154.5,163.5C 145.65,161.565 136.983,159.065 128.5,156C 126.075,154.787 123.741,153.621 121.5,152.5C 128.911,152.469 136.245,151.802 143.5,150.5C 155.494,151.143 167.494,151.643 179.5,152C 178.833,152.333 178.167,152.667 177.5,153C 180,153.167 182.5,153.333 185,153.5C 191.152,152.728 197.319,152.061 203.5,151.5C 215.494,152.143 227.494,152.643 239.5,153C 237.5,153.667 235.5,154.333 233.5,155C 236.167,155.167 238.833,155.333 241.5,155.5C 248.445,154.301 255.445,153.301 262.5,152.5C 274.494,153.143 286.494,153.643 298.5,154C 296.913,154.862 295.246,155.529 293.5,156C 296,156.167 298.5,156.333 301,156.5C 308.15,155.395 315.317,154.395 322.5,153.5C 335.167,154.833 347.833,156.167 360.5,157.5C 367.388,156.116 374.388,155.449 381.5,155.5 Z"/></g>
<g><path style="opacity:0.998" fill="#fcc400" d="M 154.5,163.5 C 168.255,166.916 182.255,168.416 196.5,168C 195.5,168.333 194.5,168.667 193.5,169C 202.833,169.667 212.167,169.667 221.5,169C 219.5,168.667 217.5,168.333 215.5,168C 228.826,168.047 242.159,168.381 255.5,169C 253.5,169.667 251.5,170.333 249.5,171C 264.169,171.715 278.836,172.048 293.5,172C 287.464,171.216 281.464,170.216 275.5,169C 288.491,169.071 301.491,169.404 314.5,170C 313.833,170.333 313.167,170.667 312.5,171C 327.336,169.694 342.002,167.194 356.5,163.5C 396.663,164.499 436.997,164.832 477.5,164.5C 481.922,175.163 485.589,186.163 488.5,197.5C 450.5,197.5 412.5,197.5 374.5,197.5C 364.421,182.302 350.421,176.802 332.5,181C 324.025,184.392 317.358,189.892 312.5,197.5C 274.5,197.5 236.5,197.5 198.5,197.5C 188.421,182.302 174.421,176.802 156.5,181C 148.025,184.392 141.358,189.892 136.5,197.5C 98.5,197.5 60.5,197.5 22.5,197.5C 25.4111,186.163 29.0778,175.163 33.5,164.5C 74.0034,164.832 114.337,164.499 154.5,163.5 Z"/></g>
<g><path style="opacity:1" fill="#3c1d01" d="M 198.5,197.5 C 200.358,199.883 201.692,202.55 202.5,205.5C 179.167,205.5 155.833,205.5 132.5,205.5C 133.308,202.55 134.642,199.883 136.5,197.5C 141.358,189.892 148.025,184.392 156.5,181C 174.421,176.802 188.421,182.302 198.5,197.5 Z"/></g>
<g><path style="opacity:1" fill="#3c1d01" d="M 374.5,197.5 C 376.358,199.883 377.692,202.55 378.5,205.5C 355.167,205.5 331.833,205.5 308.5,205.5C 309.308,202.55 310.642,199.883 312.5,197.5C 317.358,189.892 324.025,184.392 332.5,181C 350.421,176.802 364.421,182.302 374.5,197.5 Z"/></g>
<g><path style="opacity:0.996" fill="#fcbe00" d="M 22.5,197.5 C 60.5,197.5 98.5,197.5 136.5,197.5C 134.642,199.883 133.308,202.55 132.5,205.5C 130.194,209.085 128.861,213.085 128.5,217.5C 127.515,221.634 127.182,225.968 127.5,230.5C 90.5,230.5 53.5,230.5 16.5,230.5C 17.9857,219.405 19.9857,208.405 22.5,197.5 Z"/></g>
<g><path style="opacity:1" fill="#fcbe00" d="M 198.5,197.5 C 236.5,197.5 274.5,197.5 312.5,197.5C 310.642,199.883 309.308,202.55 308.5,205.5C 306.194,209.085 304.861,213.085 304.5,217.5C 303.515,221.634 303.182,225.968 303.5,230.5C 271.5,230.5 239.5,230.5 207.5,230.5C 207.817,226.298 207.483,222.298 206.5,218.5C 206.346,213.711 205.013,209.378 202.5,205.5C 201.692,202.55 200.358,199.883 198.5,197.5 Z"/></g>
<g><path style="opacity:0.996" fill="#fcbe00" d="M 374.5,197.5 C 412.5,197.5 450.5,197.5 488.5,197.5C 491.014,208.405 493.014,219.405 494.5,230.5C 457.5,230.5 420.5,230.5 383.5,230.5C 383.817,226.298 383.483,222.298 382.5,218.5C 382.346,213.711 381.013,209.378 378.5,205.5C 377.692,202.55 376.358,199.883 374.5,197.5 Z"/></g>
<g><path style="opacity:1" fill="#4e2601" d="M 132.5,205.5 C 155.833,205.5 179.167,205.5 202.5,205.5C 205.013,209.378 206.346,213.711 206.5,218.5C 206.5,220.833 206.5,223.167 206.5,225.5C 200.167,225.5 193.833,225.5 187.5,225.5C 174.167,206.833 160.833,206.833 147.5,225.5C 141.167,225.5 134.833,225.5 128.5,225.5C 128.5,222.833 128.5,220.167 128.5,217.5C 128.861,213.085 130.194,209.085 132.5,205.5 Z"/></g>
<g><path style="opacity:1" fill="#4e2601" d="M 308.5,205.5 C 331.833,205.5 355.167,205.5 378.5,205.5C 381.013,209.378 382.346,213.711 382.5,218.5C 382.5,220.833 382.5,223.167 382.5,225.5C 376.167,225.5 369.833,225.5 363.5,225.5C 350.167,206.833 336.833,206.833 323.5,225.5C 317.167,225.5 310.833,225.5 304.5,225.5C 304.5,222.833 304.5,220.167 304.5,217.5C 304.861,213.085 306.194,209.085 308.5,205.5 Z"/></g>
<g><path style="opacity:1" fill="#e88a05" d="M 187.5,225.5 C 193.33,235.834 197.496,246.834 200,258.5C 203.67,252.515 206.17,246.181 207.5,239.5C 206.906,247.736 205.239,255.736 202.5,263.5C 200.855,267.211 199.522,267.211 198.5,263.5C 195.957,247.914 189.29,234.414 178.5,223C 167.176,216.79 157.676,218.957 150,229.5C 143.249,239.914 138.749,251.248 136.5,263.5C 135.478,267.211 134.145,267.211 132.5,263.5C 129.301,255.84 127.634,247.84 127.5,239.5C 128.83,246.181 131.33,252.515 135,258.5C 137.509,246.798 141.676,235.798 147.5,225.5C 160.833,206.833 174.167,206.833 187.5,225.5 Z"/></g>
<g><path style="opacity:1" fill="#e88a05" d="M 363.5,225.5 C 369.33,235.834 373.496,246.834 376,258.5C 379.67,252.515 382.17,246.181 383.5,239.5C 382.906,247.736 381.239,255.736 378.5,263.5C 376.855,267.211 375.522,267.211 374.5,263.5C 371.957,247.914 365.29,234.414 354.5,223C 343.176,216.79 333.676,218.957 326,229.5C 319.249,239.914 314.749,251.248 312.5,263.5C 311.478,267.211 310.145,267.211 308.5,263.5C 305.301,255.84 303.634,247.84 303.5,239.5C 304.83,246.181 307.33,252.515 311,258.5C 313.509,246.798 317.676,235.798 323.5,225.5C 336.833,206.833 350.167,206.833 363.5,225.5 Z"/></g>
<g><path style="opacity:1" fill="#6f3702" d="M 128.5,217.5 C 128.5,220.167 128.5,222.833 128.5,225.5C 134.833,225.5 141.167,225.5 147.5,225.5C 141.676,235.798 137.509,246.798 135,258.5C 131.33,252.515 128.83,246.181 127.5,239.5C 127.5,236.5 127.5,233.5 127.5,230.5C 127.182,225.968 127.515,221.634 128.5,217.5 Z"/></g>
<g><path style="opacity:1" fill="#6f3702" d="M 206.5,218.5 C 207.483,222.298 207.817,226.298 207.5,230.5C 207.5,233.5 207.5,236.5 207.5,239.5C 206.17,246.181 203.67,252.515 200,258.5C 197.496,246.834 193.33,235.834 187.5,225.5C 193.833,225.5 200.167,225.5 206.5,225.5C 206.5,223.167 206.5,220.833 206.5,218.5 Z"/></g>
<g><path style="opacity:1" fill="#6f3702" d="M 304.5,217.5 C 304.5,220.167 304.5,222.833 304.5,225.5C 310.833,225.5 317.167,225.5 323.5,225.5C 317.676,235.798 313.509,246.798 311,258.5C 307.33,252.515 304.83,246.181 303.5,239.5C 303.5,236.5 303.5,233.5 303.5,230.5C 303.182,225.968 303.515,221.634 304.5,217.5 Z"/></g>
<g><path style="opacity:1" fill="#6f3702" d="M 382.5,218.5 C 383.483,222.298 383.817,226.298 383.5,230.5C 383.5,233.5 383.5,236.5 383.5,239.5C 382.17,246.181 379.67,252.515 376,258.5C 373.496,246.834 369.33,235.834 363.5,225.5C 369.833,225.5 376.167,225.5 382.5,225.5C 382.5,223.167 382.5,220.833 382.5,218.5 Z"/></g>
<g><path style="opacity:0.998" fill="#fbb800" d="M 16.5,230.5 C 53.5,230.5 90.5,230.5 127.5,230.5C 127.5,233.5 127.5,236.5 127.5,239.5C 127.634,247.84 129.301,255.84 132.5,263.5C 93.5,263.5 54.5,263.5 15.5,263.5C 15.3157,252.477 15.6491,241.477 16.5,230.5 Z"/></g>
<g><path style="opacity:1" fill="#fbb800" d="M 198.5,263.5 C 177.833,263.5 157.167,263.5 136.5,263.5C 138.749,251.248 143.249,239.914 150,229.5C 157.676,218.957 167.176,216.79 178.5,223C 189.29,234.414 195.957,247.914 198.5,263.5 Z"/></g>
<g><path style="opacity:1" fill="#fbb800" d="M 207.5,230.5 C 239.5,230.5 271.5,230.5 303.5,230.5C 303.5,233.5 303.5,236.5 303.5,239.5C 303.634,247.84 305.301,255.84 308.5,263.5C 273.167,263.5 237.833,263.5 202.5,263.5C 205.239,255.736 206.906,247.736 207.5,239.5C 207.5,236.5 207.5,233.5 207.5,230.5 Z"/></g>
<g><path style="opacity:1" fill="#fbb800" d="M 374.5,263.5 C 353.833,263.5 333.167,263.5 312.5,263.5C 314.749,251.248 319.249,239.914 326,229.5C 333.676,218.957 343.176,216.79 354.5,223C 365.29,234.414 371.957,247.914 374.5,263.5 Z"/></g>
<g><path style="opacity:0.998" fill="#fbb800" d="M 383.5,230.5 C 420.5,230.5 457.5,230.5 494.5,230.5C 495.351,241.477 495.684,252.477 495.5,263.5C 456.5,263.5 417.5,263.5 378.5,263.5C 381.239,255.736 382.906,247.736 383.5,239.5C 383.5,236.5 383.5,233.5 383.5,230.5 Z"/></g>
<g><path style="opacity:0.999" fill="#fcb100" d="M 15.5,263.5 C 54.5,263.5 93.5,263.5 132.5,263.5C 134.145,267.211 135.478,267.211 136.5,263.5C 157.167,263.5 177.833,263.5 198.5,263.5C 199.522,267.211 200.855,267.211 202.5,263.5C 237.833,263.5 273.167,263.5 308.5,263.5C 310.145,267.211 311.478,267.211 312.5,263.5C 333.167,263.5 353.833,263.5 374.5,263.5C 375.522,267.211 376.855,267.211 378.5,263.5C 417.5,263.5 456.5,263.5 495.5,263.5C 495.892,276.253 495.226,288.92 493.5,301.5C 334.833,301.5 176.167,301.5 17.5,301.5C 15.7743,288.92 15.1077,276.253 15.5,263.5 Z"/></g>
<g><path style="opacity:0.999" fill="#fbab00" d="M 17.5,301.5 C 176.167,301.5 334.833,301.5 493.5,301.5C 492.243,312.845 489.909,323.845 486.5,334.5C 447.5,334.5 408.5,334.5 369.5,334.5C 373.025,328.783 376.025,322.783 378.5,316.5C 380.288,312.95 381.455,309.283 382,305.5C 379.35,309.975 376.183,313.975 372.5,317.5C 364.529,323.157 356.529,328.824 348.5,334.5C 286.833,334.5 225.167,334.5 163.5,334.5C 154.665,329.672 146.665,323.672 139.5,316.5C 138.583,315.873 137.583,315.539 136.5,315.5C 133.766,312.375 131.266,309.042 129,305.5C 129.545,309.283 130.712,312.95 132.5,316.5C 134.975,322.783 137.975,328.783 141.5,334.5C 102.5,334.5 63.5,334.5 24.5,334.5C 21.0367,323.857 18.7034,312.857 17.5,301.5 Z"/></g>
<g><path style="opacity:1" fill="#3b1e02" d="M 378.5,316.5 C 369.666,331.672 357.999,344.338 343.5,354.5C 336.646,354.824 329.979,354.491 323.5,353.5C 342.537,345.151 358.871,333.151 372.5,317.5C 376.183,313.975 379.35,309.975 382,305.5C 381.455,309.283 380.288,312.95 378.5,316.5 Z"/></g>
<g><path style="opacity:1" fill="#3b1e02" d="M 136.5,315.5 C 151.784,332.98 170.117,346.313 191.5,355.5C 184.687,356.491 177.687,356.825 170.5,356.5C 154.712,346.048 142.045,332.714 132.5,316.5C 130.712,312.95 129.545,309.283 129,305.5C 131.266,309.042 133.766,312.375 136.5,315.5 Z"/></g>
<g><path style="opacity:1" fill="#f6bb05" d="M 132.5,316.5 C 142.045,332.714 154.712,346.048 170.5,356.5C 177.391,362.115 185.058,366.448 193.5,369.5C 197.957,372.657 202.957,374.657 208.5,375.5C 222.69,381.006 237.523,383.672 253,383.5C 270.112,383.654 286.612,380.987 302.5,375.5C 307.895,374.262 312.895,372.262 317.5,369.5C 327.123,366.026 335.79,361.026 343.5,354.5C 357.999,344.338 369.666,331.672 378.5,316.5C 376.025,322.783 373.025,328.783 369.5,334.5C 361.21,347.124 350.877,357.79 338.5,366.5C 291.136,395.81 241.803,399.31 190.5,377C 184.308,373.741 178.308,370.241 172.5,366.5C 160.151,357.817 149.818,347.151 141.5,334.5C 137.975,328.783 134.975,322.783 132.5,316.5 Z"/></g>
<g><path style="opacity:1" fill="#e88a05" d="M 136.5,315.5 C 137.583,315.539 138.583,315.873 139.5,316.5C 146.665,323.672 154.665,329.672 163.5,334.5C 173.823,341.827 185.156,347.327 197.5,351C 241.098,363.706 284.098,362.039 326.5,346C 334.336,342.917 341.67,339.084 348.5,334.5C 356.529,328.824 364.529,323.157 372.5,317.5C 358.871,333.151 342.537,345.151 323.5,353.5C 279.756,371.375 235.756,372.042 191.5,355.5C 170.117,346.313 151.784,332.98 136.5,315.5 Z"/></g>
<g><path style="opacity:0.997" fill="#fba500" d="M 24.5,334.5 C 63.5,334.5 102.5,334.5 141.5,334.5C 149.818,347.151 160.151,357.817 172.5,366.5C 126.664,366.168 80.997,366.501 35.5,367.5C 30.4615,357.051 26.7948,346.051 24.5,334.5 Z"/></g>
<g><path style="opacity:1" fill="#faa600" d="M 163.5,334.5 C 225.167,334.5 286.833,334.5 348.5,334.5C 341.67,339.084 334.336,342.917 326.5,346C 284.098,362.039 241.098,363.706 197.5,351C 185.156,347.327 173.823,341.827 163.5,334.5 Z"/></g>
<g><path style="opacity:0.997" fill="#fba500" d="M 369.5,334.5 C 408.5,334.5 447.5,334.5 486.5,334.5C 483.775,345.343 480.442,356.009 476.5,366.5C 430.5,366.5 384.5,366.5 338.5,366.5C 350.877,357.79 361.21,347.124 369.5,334.5 Z"/></g>
<g><path style="opacity:1" fill="#502801" d="M 323.5,353.5 C 329.979,354.491 336.646,354.824 343.5,354.5C 335.79,361.026 327.123,366.026 317.5,369.5C 276.167,369.5 234.833,369.5 193.5,369.5C 185.058,366.448 177.391,362.115 170.5,356.5C 177.687,356.825 184.687,356.491 191.5,355.5C 235.756,372.042 279.756,371.375 323.5,353.5 Z"/></g>
<g><path style="opacity:0.998" fill="#fa9f00" d="M 172.5,366.5 C 178.308,370.241 184.308,373.741 190.5,377C 241.803,399.31 291.136,395.81 338.5,366.5C 384.5,366.5 430.5,366.5 476.5,366.5C 471.264,378.64 465.264,390.306 458.5,401.5C 323.171,399.502 187.504,398.835 51.5,399.5C 45.1316,389.43 39.7983,378.763 35.5,367.5C 80.997,366.501 126.664,366.168 172.5,366.5 Z"/></g>
<g><path style="opacity:1" fill="#5c2e01" d="M 193.5,369.5 C 234.833,369.5 276.167,369.5 317.5,369.5C 312.895,372.262 307.895,374.262 302.5,375.5C 271.167,375.5 239.833,375.5 208.5,375.5C 202.957,374.657 197.957,372.657 193.5,369.5 Z"/></g>
<g><path style="opacity:1" fill="#703802" d="M 208.5,375.5 C 239.833,375.5 271.167,375.5 302.5,375.5C 286.612,380.987 270.112,383.654 253,383.5C 237.523,383.672 222.69,381.006 208.5,375.5 Z"/></g>
<g><path style="opacity:0.998" fill="#fa9900" d="M 51.5,399.5 C 187.504,398.835 323.171,399.502 458.5,401.5C 451.046,414.955 441.713,426.955 430.5,437.5C 313.833,437.5 197.167,437.5 80.5,437.5C 68.8956,426.281 59.2289,413.614 51.5,399.5 Z"/></g>
<g><path style="opacity:0.997" fill="#f99200" d="M 80.5,437.5 C 197.167,437.5 313.833,437.5 430.5,437.5C 418.853,451.138 405.186,462.138 389.5,470.5C 300.167,470.5 210.833,470.5 121.5,470.5C 105.814,462.138 92.1469,451.138 80.5,437.5 Z"/></g>
<g><path style="opacity:0.99" fill="#f98d00" d="M 121.5,470.5 C 210.833,470.5 300.167,470.5 389.5,470.5C 359.666,488.219 327.333,498.719 292.5,502C 244.197,507.64 197.197,502.307 151.5,486C 140.999,481.585 130.999,476.418 121.5,470.5 Z"/></g>
</svg>
