<?xml version="1.0" encoding="UTF-8"?>
<!DOCTYPE svg PUBLIC "-//W3C//DTD SVG 1.1//EN" "http://www.w3.org/Graphics/SVG/1.1/DTD/svg11.dtd">
<svg xmlns="http://www.w3.org/2000/svg" version="1.1" width="512px" height="512px" style="shape-rendering:geometricPrecision; text-rendering:geometricPrecision; image-rendering:optimizeQuality; fill-rule:evenodd; clip-rule:evenodd" xmlns:xlink="http://www.w3.org/1999/xlink">
<g><path style="opacity:0.99" fill="#ffdd00" d="M 401.5,46.5 C 304.167,46.5 206.833,46.5 109.5,46.5C 135.908,28.9807 164.908,17.4807 196.5,12C 235.833,6 275.167,6 314.5,12C 346.218,17.1724 375.218,28.6724 401.5,46.5 Z"/></g>
<g><path style="opacity:0.996" fill="#fed700" d="M 109.5,46.5 C 206.833,46.5 304.167,46.5 401.5,46.5C 416.308,55.9643 429.641,67.2976 441.5,80.5C 317.666,80.8329 193.999,80.4995 70.5,79.5C 82.0277,66.6291 95.0277,55.6291 109.5,46.5 Z"/></g>
<g><path style="opacity:0.998" fill="#fed100" d="M 70.5,79.5 C 193.999,80.4995 317.666,80.8329 441.5,80.5C 450.721,90.6059 458.721,101.606 465.5,113.5C 325.5,114.833 185.5,114.833 45.5,113.5C 52.3709,101.092 60.7042,89.7582 70.5,79.5 Z"/></g>
<g><path style="opacity:0.998" fill="#fdca00" d="M 45.5,113.5 C 185.5,114.833 325.5,114.833 465.5,113.5C 473.677,126.324 480.343,139.991 485.5,154.5C 332.237,153.502 178.903,153.168 25.5,153.5C 30.8504,139.409 37.5171,126.076 45.5,113.5 Z"/></g>
<g><path style="opacity:0.998" fill="#fcc400" d="M 25.5,153.5 C 178.903,153.168 332.237,153.502 485.5,154.5C 490.04,165.12 493.373,176.12 495.5,187.5C 455.5,187.5 415.5,187.5 375.5,187.5C 373.324,182.472 370.657,177.806 367.5,173.5C 357.227,159.025 344.227,155.858 328.5,164C 325.296,167.036 322.296,170.203 319.5,173.5C 316.343,177.806 313.676,182.472 311.5,187.5C 274.167,187.5 236.833,187.5 199.5,187.5C 197.324,182.472 194.657,177.806 191.5,173.5C 181.227,159.025 168.227,155.858 152.5,164C 149.296,167.036 146.296,170.203 143.5,173.5C 140.343,177.806 137.676,182.472 135.5,187.5C 95.5,187.5 55.5,187.5 15.5,187.5C 17.8224,175.866 21.1558,164.533 25.5,153.5 Z"/></g>
<g><path style="opacity:1" fill="#3a1c01" d="M 191.5,173.5 C 183.862,174.831 175.862,175.498 167.5,175.5C 159.138,175.498 151.138,174.831 143.5,173.5C 146.296,170.203 149.296,167.036 152.5,164C 168.227,155.858 181.227,159.025 191.5,173.5 Z"/></g>
<g><path style="opacity:1" fill="#3a1c01" d="M 367.5,173.5 C 359.862,174.831 351.862,175.498 343.5,175.5C 335.138,175.498 327.138,174.831 319.5,173.5C 322.296,170.203 325.296,167.036 328.5,164C 344.227,155.858 357.227,159.025 367.5,173.5 Z"/></g>
<g><path style="opacity:1" fill="#482301" d="M 143.5,173.5 C 151.138,174.831 159.138,175.498 167.5,175.5C 175.862,175.498 183.862,174.831 191.5,173.5C 194.657,177.806 197.324,182.472 199.5,187.5C 199.5,187.833 199.5,188.167 199.5,188.5C 195.971,190.423 191.971,191.089 187.5,190.5C 174.123,181.271 160.789,181.271 147.5,190.5C 143.029,191.089 139.029,190.423 135.5,188.5C 135.5,188.167 135.5,187.833 135.5,187.5C 137.676,182.472 140.343,177.806 143.5,173.5 Z"/></g>
<g><path style="opacity:1" fill="#482301" d="M 319.5,173.5 C 327.138,174.831 335.138,175.498 343.5,175.5C 351.862,175.498 359.862,174.831 367.5,173.5C 370.657,177.806 373.324,182.472 375.5,187.5C 375.5,187.833 375.5,188.167 375.5,188.5C 371.971,190.423 367.971,191.089 363.5,190.5C 350.123,181.271 336.789,181.271 323.5,190.5C 319.029,191.089 315.029,190.423 311.5,188.5C 311.5,188.167 311.5,187.833 311.5,187.5C 313.676,182.472 316.343,177.806 319.5,173.5 Z"/></g>
<g><path style="opacity:1" fill="#e88a05" d="M 187.5,190.5 C 192.512,194.513 196.845,199.179 200.5,204.5C 201.6,205.605 202.267,206.938 202.5,208.5C 177.406,184.996 153.406,185.996 130.5,211.5C 131.569,209.031 132.902,206.698 134.5,204.5C 138.155,199.179 142.488,194.513 147.5,190.5C 160.789,181.271 174.123,181.271 187.5,190.5 Z"/></g>
<g><path style="opacity:1" fill="#e88a05" d="M 363.5,190.5 C 368.512,194.513 372.845,199.179 376.5,204.5C 377.6,205.605 378.267,206.938 378.5,208.5C 353.406,184.996 329.406,185.996 306.5,211.5C 307.569,209.031 308.902,206.698 310.5,204.5C 314.155,199.179 318.488,194.513 323.5,190.5C 336.789,181.271 350.123,181.271 363.5,190.5 Z"/></g>
<g><path style="opacity:0.998" fill="#fcbe00" d="M 15.5,187.5 C 55.5,187.5 95.5,187.5 135.5,187.5C 135.5,187.833 135.5,188.167 135.5,188.5C 133.065,192.799 131.398,197.466 130.5,202.5C 128.846,206.268 128.012,210.268 128,214.5C 128.852,213.429 129.685,212.429 130.5,211.5C 153.406,185.996 177.406,184.996 202.5,208.5C 204.223,210.253 205.723,212.253 207,214.5C 206.988,210.268 206.154,206.268 204.5,202.5C 203.602,197.466 201.935,192.799 199.5,188.5C 199.5,188.167 199.5,187.833 199.5,187.5C 236.833,187.5 274.167,187.5 311.5,187.5C 311.5,187.833 311.5,188.167 311.5,188.5C 309.065,192.799 307.398,197.466 306.5,202.5C 304.846,206.268 304.012,210.268 304,214.5C 304.852,213.429 305.685,212.429 306.5,211.5C 329.406,185.996 353.406,184.996 378.5,208.5C 380.223,210.253 381.723,212.253 383,214.5C 382.988,210.268 382.154,206.268 380.5,202.5C 379.602,197.466 377.935,192.799 375.5,188.5C 375.5,188.167 375.5,187.833 375.5,187.5C 415.5,187.5 455.5,187.5 495.5,187.5C 498.679,198.546 501.012,209.88 502.5,221.5C 337.763,221.168 173.097,221.501 8.5,222.5C 9.70228,210.488 12.0356,198.822 15.5,187.5 Z"/></g>
<g><path style="opacity:1" fill="#603002" d="M 135.5,188.5 C 139.029,190.423 143.029,191.089 147.5,190.5C 142.488,194.513 138.155,199.179 134.5,204.5C 132.517,204.843 131.183,204.176 130.5,202.5C 131.398,197.466 133.065,192.799 135.5,188.5 Z"/></g>
<g><path style="opacity:1" fill="#603002" d="M 199.5,188.5 C 201.935,192.799 203.602,197.466 204.5,202.5C 203.817,204.176 202.483,204.843 200.5,204.5C 196.845,199.179 192.512,194.513 187.5,190.5C 191.971,191.089 195.971,190.423 199.5,188.5 Z"/></g>
<g><path style="opacity:1" fill="#603002" d="M 311.5,188.5 C 315.029,190.423 319.029,191.089 323.5,190.5C 318.488,194.513 314.155,199.179 310.5,204.5C 308.517,204.843 307.183,204.176 306.5,202.5C 307.398,197.466 309.065,192.799 311.5,188.5 Z"/></g>
<g><path style="opacity:1" fill="#603002" d="M 375.5,188.5 C 377.935,192.799 379.602,197.466 380.5,202.5C 379.817,204.176 378.483,204.843 376.5,204.5C 372.845,199.179 368.512,194.513 363.5,190.5C 367.971,191.089 371.971,190.423 375.5,188.5 Z"/></g>
<g><path style="opacity:1" fill="#844702" d="M 130.5,202.5 C 131.183,204.176 132.517,204.843 134.5,204.5C 132.902,206.698 131.569,209.031 130.5,211.5C 129.685,212.429 128.852,213.429 128,214.5C 128.012,210.268 128.846,206.268 130.5,202.5 Z"/></g>
<g><path style="opacity:1" fill="#874902" d="M 204.5,202.5 C 206.154,206.268 206.988,210.268 207,214.5C 205.723,212.253 204.223,210.253 202.5,208.5C 202.267,206.938 201.6,205.605 200.5,204.5C 202.483,204.843 203.817,204.176 204.5,202.5 Z"/></g>
<g><path style="opacity:1" fill="#844702" d="M 306.5,202.5 C 307.183,204.176 308.517,204.843 310.5,204.5C 308.902,206.698 307.569,209.031 306.5,211.5C 305.685,212.429 304.852,213.429 304,214.5C 304.012,210.268 304.846,206.268 306.5,202.5 Z"/></g>
<g><path style="opacity:1" fill="#874902" d="M 380.5,202.5 C 382.154,206.268 382.988,210.268 383,214.5C 381.723,212.253 380.223,210.253 378.5,208.5C 378.267,206.938 377.6,205.605 376.5,204.5C 378.483,204.843 379.817,204.176 380.5,202.5 Z"/></g>
<g><path style="opacity:0.999" fill="#fcb800" d="M 502.5,221.5 C 503.356,232.81 503.69,244.143 503.5,255.5C 338.167,255.5 172.833,255.5 7.5,255.5C 7.28672,244.473 7.62006,233.473 8.5,222.5C 173.097,221.501 337.763,221.168 502.5,221.5 Z"/></g>
<g><path style="opacity:0.999" fill="#fbb200" d="M 7.5,255.5 C 172.833,255.5 338.167,255.5 503.5,255.5C 503.902,268.576 503.236,281.576 501.5,294.5C 460.5,294.5 419.5,294.5 378.5,294.5C 370.745,286.788 361.411,281.954 350.5,280C 286.5,279.333 222.5,279.333 158.5,280C 148.274,282.065 139.607,286.898 132.5,294.5C 91.5,294.5 50.5,294.5 9.5,294.5C 7.76429,281.576 7.09762,268.576 7.5,255.5 Z"/></g>
<g><path style="opacity:1" fill="#ec8d07" d="M 378.5,294.5 C 386.706,303.58 391.039,314.247 391.5,326.5C 386.318,307.984 374.651,295.484 356.5,289C 322.704,287.851 288.871,287.351 255,287.5C 221.454,287.347 187.954,287.847 154.5,289C 135.883,295.105 124.216,307.605 119.5,326.5C 119.961,314.247 124.294,303.58 132.5,294.5C 139.607,286.898 148.274,282.065 158.5,280C 222.5,279.333 286.5,279.333 350.5,280C 361.411,281.954 370.745,286.788 378.5,294.5 Z"/></g>
<g><path style="opacity:1" fill="#6a141d" d="M 391.5,326.5 C 391.5,327.167 391.5,327.833 391.5,328.5C 391.872,335.3 391.206,341.967 389.5,348.5C 381.467,371.691 365.134,383.358 340.5,383.5C 348.782,382.291 356.449,379.291 363.5,374.5C 375.333,365.836 381.666,354.169 382.5,339.5C 365.833,339.5 349.167,339.5 332.5,339.5C 295.167,339.5 257.833,339.5 220.5,339.5C 209.5,339.5 198.5,339.5 187.5,339.5C 178.167,339.5 168.833,339.5 159.5,339.5C 149.167,339.5 138.833,339.5 128.5,339.5C 129.322,355.15 136.322,367.15 149.5,375.5C 155.049,379.276 161.049,381.943 167.5,383.5C 142.461,381.794 126.794,368.794 120.5,344.5C 119.6,339.228 119.267,333.895 119.5,328.5C 119.5,327.833 119.5,327.167 119.5,326.5C 124.216,307.605 135.883,295.105 154.5,289C 187.954,287.847 221.454,287.347 255,287.5C 288.871,287.351 322.704,287.851 356.5,289C 374.651,295.484 386.318,307.984 391.5,326.5 Z"/></g>
<g><path style="opacity:0.996" fill="#fbab00" d="M 9.5,294.5 C 50.5,294.5 91.5,294.5 132.5,294.5C 124.294,303.58 119.961,314.247 119.5,326.5C 119.5,327.167 119.5,327.833 119.5,328.5C 84.9446,327.851 50.6113,328.517 16.5,330.5C 13.3976,318.654 11.0642,306.654 9.5,294.5 Z"/></g>
<g><path style="opacity:0.997" fill="#fbab00" d="M 378.5,294.5 C 419.5,294.5 460.5,294.5 501.5,294.5C 500.186,306.072 497.852,317.406 494.5,328.5C 460.167,328.5 425.833,328.5 391.5,328.5C 391.5,327.833 391.5,327.167 391.5,326.5C 391.039,314.247 386.706,303.58 378.5,294.5 Z"/></g>
<g><path style="opacity:1" fill="#bcbcbc" d="M 372.5,309.5 C 294.5,309.5 216.5,309.5 138.5,309.5C 145.312,302.424 153.645,297.924 163.5,296C 223.5,295.333 283.5,295.333 343.5,296C 354.875,297.164 364.542,301.664 372.5,309.5 Z"/></g>
<g><path style="opacity:1" fill="#c5c5c5" d="M 138.5,309.5 C 216.5,309.5 294.5,309.5 372.5,309.5C 379.648,316.586 383.314,325.253 383.5,335.5C 298.167,335.5 212.833,335.5 127.5,335.5C 127.686,325.253 131.352,316.586 138.5,309.5 Z"/></g>
<g><path style="opacity:0.995" fill="#faa500" d="M 119.5,328.5 C 119.267,333.895 119.6,339.228 120.5,344.5C 119.839,350.583 120.839,356.583 123.5,362.5C 91.6623,362.168 59.9956,362.502 28.5,363.5C 23.7305,352.865 19.7305,341.865 16.5,330.5C 50.6113,328.517 84.9446,327.851 119.5,328.5 Z"/></g>
<g><path style="opacity:0.997" fill="#faa500" d="M 391.5,328.5 C 425.833,328.5 460.167,328.5 494.5,328.5C 491.804,339.921 488.138,350.921 483.5,361.5C 451.573,362.492 419.573,362.826 387.5,362.5C 388.962,358.989 389.962,355.322 390.5,351.5C 390.48,350.274 390.147,349.274 389.5,348.5C 391.206,341.967 391.872,335.3 391.5,328.5 Z"/></g>
<g><path style="opacity:1" fill="#c5c2c0" d="M 159.5,339.5 C 159.082,340.222 158.416,340.722 157.5,341C 158.167,341.333 158.833,341.667 159.5,342C 158.167,343 156.833,344 155.5,345C 156.167,345.333 156.833,345.667 157.5,346C 154.649,347.742 153.982,350.075 155.5,353C 154.672,353.915 153.672,354.581 152.5,355C 153.167,355.333 153.833,355.667 154.5,356C 151.508,357.107 150.841,358.774 152.5,361C 152.129,365.238 151.129,369.238 149.5,373C 150.167,373.333 150.833,373.667 151.5,374C 150.584,374.278 149.918,374.778 149.5,375.5C 136.322,367.15 129.322,355.15 128.5,339.5C 138.833,339.5 149.167,339.5 159.5,339.5 Z"/></g>
<g><path style="opacity:1" fill="#cfcbc9" d="M 159.5,339.5 C 168.833,339.5 178.167,339.5 187.5,339.5C 185.696,341.467 183.696,343.301 181.5,345C 182.167,345.333 182.833,345.667 183.5,346C 181.35,347.649 179.35,349.482 177.5,351.5C 178.025,352.192 178.692,352.692 179.5,353C 176.865,354.311 174.531,355.978 172.5,358C 173.167,358.333 173.833,358.667 174.5,359C 173.167,360 171.833,361 170.5,362C 172.991,362.626 172.991,363.459 170.5,364.5C 171.025,365.192 171.692,365.692 172.5,366C 171.167,367.667 169.833,369.333 168.5,371C 169.167,371.333 169.833,371.667 170.5,372C 168.638,375.149 167.971,378.649 168.5,382.5C 171.059,382.198 173.393,382.532 175.5,383.5C 172.833,383.5 170.167,383.5 167.5,383.5C 161.049,381.943 155.049,379.276 149.5,375.5C 149.918,374.778 150.584,374.278 151.5,374C 150.833,373.667 150.167,373.333 149.5,373C 151.129,369.238 152.129,365.238 152.5,361C 150.841,358.774 151.508,357.107 154.5,356C 153.833,355.667 153.167,355.333 152.5,355C 153.672,354.581 154.672,353.915 155.5,353C 153.982,350.075 154.649,347.742 157.5,346C 156.833,345.667 156.167,345.333 155.5,345C 156.833,344 158.167,343 159.5,342C 158.833,341.667 158.167,341.333 157.5,341C 158.416,340.722 159.082,340.222 159.5,339.5 Z"/></g>
<g><path style="opacity:1" fill="#dcd8d6" d="M 187.5,339.5 C 198.5,339.5 209.5,339.5 220.5,339.5C 214.589,342.744 209.922,347.411 206.5,353.5C 203.539,354.183 203.205,355.016 205.5,356C 203.483,356.674 201.817,357.841 200.5,359.5C 198.025,365.783 195.025,371.783 191.5,377.5C 192.025,378.192 192.692,378.692 193.5,379C 191.893,380.049 191.227,381.549 191.5,383.5C 186.167,383.5 180.833,383.5 175.5,383.5C 173.393,382.532 171.059,382.198 168.5,382.5C 167.971,378.649 168.638,375.149 170.5,372C 169.833,371.667 169.167,371.333 168.5,371C 169.833,369.333 171.167,367.667 172.5,366C 171.692,365.692 171.025,365.192 170.5,364.5C 172.991,363.459 172.991,362.626 170.5,362C 171.833,361 173.167,360 174.5,359C 173.833,358.667 173.167,358.333 172.5,358C 174.531,355.978 176.865,354.311 179.5,353C 178.692,352.692 178.025,352.192 177.5,351.5C 179.35,349.482 181.35,347.649 183.5,346C 182.833,345.667 182.167,345.333 181.5,345C 183.696,343.301 185.696,341.467 187.5,339.5 Z"/></g>
<g><path style="opacity:1" fill="#e5e2e0" d="M 220.5,339.5 C 257.833,339.5 295.167,339.5 332.5,339.5C 336.899,341.876 341.233,344.542 345.5,347.5C 347.69,349.007 349.024,351.007 349.5,353.5C 351.308,353.491 352.975,353.991 354.5,355C 353.833,355.333 353.167,355.667 352.5,356C 354.757,357.45 357.09,358.617 359.5,359.5C 360.56,364.612 361.894,369.612 363.5,374.5C 356.449,379.291 348.782,382.291 340.5,383.5C 338.833,383.5 337.167,383.5 335.5,383.5C 335.119,382.069 334.119,381.236 332.5,381C 336.449,380.193 336.449,379.693 332.5,379.5C 332.5,378.5 332.5,377.5 332.5,376.5C 331.5,376.5 330.5,376.5 329.5,376.5C 329.5,375.167 329.5,373.833 329.5,372.5C 325.242,370.279 320.909,368.113 316.5,366C 317.938,365.781 319.271,365.281 320.5,364.5C 316.477,362.485 312.644,360.152 309,357.5C 305.404,355.451 301.571,354.117 297.5,353.5C 297.5,352.5 297.5,351.5 297.5,350.5C 283.814,348.163 270.314,344.83 257,340.5C 253.091,342.217 249.591,344.551 246.5,347.5C 243.833,348.634 241.167,349.634 238.5,350.5C 238.5,351.5 238.5,352.5 238.5,353.5C 231.501,355.385 225.501,359.052 220.5,364.5C 221.025,365.192 221.692,365.692 222.5,366C 217.388,369.774 213.388,374.441 210.5,380C 211.167,380.333 211.833,380.667 212.5,381C 211.244,381.417 210.577,382.25 210.5,383.5C 204.167,383.5 197.833,383.5 191.5,383.5C 191.227,381.549 191.893,380.049 193.5,379C 192.692,378.692 192.025,378.192 191.5,377.5C 195.025,371.783 198.025,365.783 200.5,359.5C 201.817,357.841 203.483,356.674 205.5,356C 203.205,355.016 203.539,354.183 206.5,353.5C 209.922,347.411 214.589,342.744 220.5,339.5 Z"/></g>
<g><path style="opacity:1" fill="#d7d5d4" d="M 332.5,339.5 C 349.167,339.5 365.833,339.5 382.5,339.5C 381.666,354.169 375.333,365.836 363.5,374.5C 361.894,369.612 360.56,364.612 359.5,359.5C 357.09,358.617 354.757,357.45 352.5,356C 353.167,355.667 353.833,355.333 354.5,355C 352.975,353.991 351.308,353.491 349.5,353.5C 349.024,351.007 347.69,349.007 345.5,347.5C 341.233,344.542 336.899,341.876 332.5,339.5 Z"/></g>
<g><path style="opacity:1" fill="#efebe8" d="M 335.5,383.5 C 325.5,383.5 315.5,383.5 305.5,383.5C 305.179,381.952 304.179,381.285 302.5,381.5C 302.5,379.833 302.5,378.167 302.5,376.5C 298.102,375.14 293.769,373.473 289.5,371.5C 284.531,370.174 279.531,369.008 274.5,368C 283.81,367.172 283.81,366.672 274.5,366.5C 274.5,365.5 274.5,364.5 274.5,363.5C 268.461,363.157 262.628,361.823 257,359.5C 254.207,361.038 251.374,362.371 248.5,363.5C 248.5,364.5 248.5,365.5 248.5,366.5C 244.551,366.693 244.551,367.193 248.5,368C 243.92,370.442 239.586,373.276 235.5,376.5C 234.548,378.045 234.215,379.712 234.5,381.5C 232.821,381.285 231.821,381.952 231.5,383.5C 224.5,383.5 217.5,383.5 210.5,383.5C 210.577,382.25 211.244,381.417 212.5,381C 211.833,380.667 211.167,380.333 210.5,380C 213.388,374.441 217.388,369.774 222.5,366C 221.692,365.692 221.025,365.192 220.5,364.5C 225.501,359.052 231.501,355.385 238.5,353.5C 238.5,352.5 238.5,351.5 238.5,350.5C 241.167,349.634 243.833,348.634 246.5,347.5C 249.591,344.551 253.091,342.217 257,340.5C 270.314,344.83 283.814,348.163 297.5,350.5C 297.5,351.5 297.5,352.5 297.5,353.5C 301.571,354.117 305.404,355.451 309,357.5C 312.644,360.152 316.477,362.485 320.5,364.5C 319.271,365.281 317.938,365.781 316.5,366C 320.909,368.113 325.242,370.279 329.5,372.5C 329.5,373.833 329.5,375.167 329.5,376.5C 330.5,376.5 331.5,376.5 332.5,376.5C 332.5,377.5 332.5,378.5 332.5,379.5C 336.449,379.693 336.449,380.193 332.5,381C 334.119,381.236 335.119,382.069 335.5,383.5 Z"/></g>
<g><path style="opacity:1" fill="#f8bd08" d="M 120.5,344.5 C 126.794,368.794 142.461,381.794 167.5,383.5C 170.167,383.5 172.833,383.5 175.5,383.5C 180.833,383.5 186.167,383.5 191.5,383.5C 197.833,383.5 204.167,383.5 210.5,383.5C 217.5,383.5 224.5,383.5 231.5,383.5C 256.167,383.5 280.833,383.5 305.5,383.5C 315.5,383.5 325.5,383.5 335.5,383.5C 337.167,383.5 338.833,383.5 340.5,383.5C 365.134,383.358 381.467,371.691 389.5,348.5C 390.147,349.274 390.48,350.274 390.5,351.5C 389.962,355.322 388.962,358.989 387.5,362.5C 380.904,376.928 369.904,386.095 354.5,390C 321.538,391.149 288.538,391.649 255.5,391.5C 224.167,391.333 192.833,391.167 161.5,391C 143.892,388.035 131.226,378.535 123.5,362.5C 120.839,356.583 119.839,350.583 120.5,344.5 Z"/></g>
<g><path style="opacity:1" fill="#f7f3f0" d="M 305.5,383.5 C 280.833,383.5 256.167,383.5 231.5,383.5C 231.821,381.952 232.821,381.285 234.5,381.5C 234.215,379.712 234.548,378.045 235.5,376.5C 239.586,373.276 243.92,370.442 248.5,368C 244.551,367.193 244.551,366.693 248.5,366.5C 248.5,365.5 248.5,364.5 248.5,363.5C 251.374,362.371 254.207,361.038 257,359.5C 262.628,361.823 268.461,363.157 274.5,363.5C 274.5,364.5 274.5,365.5 274.5,366.5C 283.81,366.672 283.81,367.172 274.5,368C 279.531,369.008 284.531,370.174 289.5,371.5C 293.769,373.473 298.102,375.14 302.5,376.5C 302.5,378.167 302.5,379.833 302.5,381.5C 304.179,381.285 305.179,381.952 305.5,383.5 Z"/></g>
<g><path style="opacity:0.997" fill="#fa9f00" d="M 483.5,361.5 C 479.34,373.684 473.674,385.017 466.5,395.5C 326.069,396.165 185.736,396.832 45.5,397.5C 38.3262,387.017 32.6596,375.684 28.5,363.5C 59.9956,362.502 91.6623,362.168 123.5,362.5C 131.226,378.535 143.892,388.035 161.5,391C 192.833,391.167 224.167,391.333 255.5,391.5C 288.538,391.649 321.538,391.149 354.5,390C 369.904,386.095 380.904,376.928 387.5,362.5C 419.573,362.826 451.573,362.492 483.5,361.5 Z"/></g>
<g><path style="opacity:0.998" fill="#fa9900" d="M 466.5,395.5 C 458.08,410.59 447.747,424.257 435.5,436.5C 315.431,435.832 195.264,435.166 75,434.5C 74.6012,434.728 74.4346,435.062 74.5,435.5C 70.4521,431.766 66.6187,427.766 63,423.5C 56.4032,415.294 50.5698,406.627 45.5,397.5C 185.736,396.832 326.069,396.165 466.5,395.5 Z"/></g>
<g><path style="opacity:0.997" fill="#f99200" d="M 435.5,436.5 C 423.227,449.781 409.227,460.781 393.5,469.5C 301.665,469.167 209.998,469.501 118.5,470.5C 102.08,461.085 87.4138,449.419 74.5,435.5C 74.4346,435.062 74.6012,434.728 75,434.5C 195.264,435.166 315.431,435.832 435.5,436.5 Z"/></g>
<g><path style="opacity:0.989" fill="#f98d00" d="M 393.5,469.5 C 372.334,482.843 349.334,492.009 324.5,497C 278.5,505.667 232.5,505.667 186.5,497C 162.305,491.722 139.638,482.889 118.5,470.5C 209.998,469.501 301.665,469.167 393.5,469.5 Z"/></g>
</svg>
