<?xml version="1.0" encoding="UTF-8"?>
<!DOCTYPE svg PUBLIC "-//W3C//DTD SVG 1.1//EN" "http://www.w3.org/Graphics/SVG/1.1/DTD/svg11.dtd">
<svg xmlns="http://www.w3.org/2000/svg" version="1.1" width="512px" height="512px" style="shape-rendering:geometricPrecision; text-rendering:geometricPrecision; image-rendering:optimizeQuality; fill-rule:evenodd; clip-rule:evenodd" xmlns:xlink="http://www.w3.org/1999/xlink">
<g><path style="opacity:0.99" fill="#ffdd00" d="M 401.5,46.5 C 304.167,46.5 206.833,46.5 109.5,46.5C 135.908,28.9807 164.908,17.4807 196.5,12C 235.833,6 275.167,6 314.5,12C 346.218,17.1724 375.218,28.6724 401.5,46.5 Z"/></g>
<g><path style="opacity:0.996" fill="#fed700" d="M 109.5,46.5 C 206.833,46.5 304.167,46.5 401.5,46.5C 416.308,55.9643 429.641,67.2976 441.5,80.5C 317.666,80.8329 193.999,80.4995 70.5,79.5C 82.0277,66.6291 95.0277,55.6291 109.5,46.5 Z"/></g>
<g><path style="opacity:0.998" fill="#fed100" d="M 70.5,79.5 C 193.999,80.4995 317.666,80.8329 441.5,80.5C 450.721,90.6059 458.721,101.606 465.5,113.5C 325.5,114.833 185.5,114.833 45.5,113.5C 52.3709,101.092 60.7042,89.7582 70.5,79.5 Z"/></g>
<g><path style="opacity:0.998" fill="#fdca00" d="M 45.5,113.5 C 185.5,114.833 325.5,114.833 465.5,113.5C 473.677,126.324 480.343,139.991 485.5,154.5C 452.402,153.84 419.402,153.173 386.5,152.5C 390.5,148.833 394.5,145.167 398.5,141.5C 400.769,140.024 403.102,138.524 405.5,137C 403.447,136.675 401.447,137.009 399.5,138C 387.863,142.703 376.529,147.87 365.5,153.5C 292.167,153.5 218.833,153.5 145.5,153.5C 132.982,147.159 120.149,141.492 107,136.5C 106.5,136.667 106,136.833 105.5,137C 109.58,139.029 113.246,141.529 116.5,144.5C 118.86,147.527 121.527,150.194 124.5,152.5C 91.6709,153.498 58.6709,153.832 25.5,153.5C 30.8504,139.409 37.5171,126.076 45.5,113.5 Z"/></g>
<g><path style="opacity:1" fill="#f59905" d="M 116.5,144.5 C 127.011,151.001 136.678,158.668 145.5,167.5C 153.571,176.231 161.238,185.231 168.5,194.5C 170.947,197.885 173.28,201.385 175.5,205C 171.514,205.499 167.514,205.666 163.5,205.5C 160.197,198.886 156.53,192.553 152.5,186.5C 145.025,173.687 135.692,162.353 124.5,152.5C 121.527,150.194 118.86,147.527 116.5,144.5 Z"/></g>
<g><path style="opacity:1" fill="#f49905" d="M 398.5,141.5 C 394.5,145.167 390.5,148.833 386.5,152.5C 375.308,162.353 365.975,173.687 358.5,186.5C 354.47,192.553 350.803,198.886 347.5,205.5C 343.486,205.666 339.486,205.499 335.5,205C 337.72,201.385 340.053,197.885 342.5,194.5C 349.445,184.982 357.112,175.982 365.5,167.5C 375.37,157.285 386.37,148.618 398.5,141.5 Z"/></g>
<g><path style="opacity:0.997" fill="#fdc400" d="M 124.5,152.5 C 135.692,162.353 145.025,173.687 152.5,186.5C 107.003,187.499 61.3364,187.832 15.5,187.5C 17.8224,175.866 21.1558,164.533 25.5,153.5C 58.6709,153.832 91.6709,153.498 124.5,152.5 Z"/></g>
<g><path style="opacity:1" fill="#fcc400" d="M 145.5,153.5 C 218.833,153.5 292.167,153.5 365.5,153.5C 363.5,155.167 361.5,156.833 359.5,158.5C 349.706,163.294 341.039,169.628 333.5,177.5C 329.183,180.152 325.516,183.485 322.5,187.5C 277.833,187.5 233.167,187.5 188.5,187.5C 185.484,183.485 181.817,180.152 177.5,177.5C 170.043,170.047 161.71,163.713 152.5,158.5C 149.991,157.079 147.657,155.412 145.5,153.5 Z"/></g>
<g><path style="opacity:0.997" fill="#fdc400" d="M 386.5,152.5 C 419.402,153.173 452.402,153.84 485.5,154.5C 490.04,165.12 493.373,176.12 495.5,187.5C 449.664,187.832 403.997,187.499 358.5,186.5C 365.975,173.687 375.308,162.353 386.5,152.5 Z"/></g>
<g><path style="opacity:1" fill="#653302" d="M 145.5,153.5 C 147.657,155.412 149.991,157.079 152.5,158.5C 151.504,158.414 150.671,158.748 150,159.5C 148.672,162.312 147.172,164.978 145.5,167.5C 136.678,158.668 127.011,151.001 116.5,144.5C 113.246,141.529 109.58,139.029 105.5,137C 106,136.833 106.5,136.667 107,136.5C 120.149,141.492 132.982,147.159 145.5,153.5 Z"/></g>
<g><path style="opacity:1" fill="#653302" d="M 398.5,141.5 C 386.37,148.618 375.37,157.285 365.5,167.5C 363.735,164.291 361.735,161.291 359.5,158.5C 361.5,156.833 363.5,155.167 365.5,153.5C 376.529,147.87 387.863,142.703 399.5,138C 401.447,137.009 403.447,136.675 405.5,137C 403.102,138.524 400.769,140.024 398.5,141.5 Z"/></g>
<g><path style="opacity:1" fill="#4c2601" d="M 152.5,158.5 C 161.71,163.713 170.043,170.047 177.5,177.5C 173.719,182.727 170.719,188.393 168.5,194.5C 161.238,185.231 153.571,176.231 145.5,167.5C 147.172,164.978 148.672,162.312 150,159.5C 150.671,158.748 151.504,158.414 152.5,158.5 Z"/></g>
<g><path style="opacity:1" fill="#4c2601" d="M 359.5,158.5 C 361.735,161.291 363.735,164.291 365.5,167.5C 357.112,175.982 349.445,184.982 342.5,194.5C 340.281,188.393 337.281,182.727 333.5,177.5C 341.039,169.628 349.706,163.294 359.5,158.5 Z"/></g>
<g><path style="opacity:1" fill="#3c1d01" d="M 333.5,177.5 C 337.281,182.727 340.281,188.393 342.5,194.5C 340.053,197.885 337.72,201.385 335.5,205C 339.486,205.499 343.486,205.666 347.5,205.5C 347.833,205.5 348.167,205.5 348.5,205.5C 350.304,206.381 351.804,207.714 353,209.5C 355.512,213.861 358.012,218.194 360.5,222.5C 344.438,224.371 328.605,227.371 313,231.5C 308.398,230.964 305.231,228.63 303.5,224.5C 303.5,223.167 303.5,221.833 303.5,220.5C 307.529,208.101 313.862,197.101 322.5,187.5C 325.516,183.485 329.183,180.152 333.5,177.5 Z"/></g>
<g><path style="opacity:1" fill="#3d1e01" d="M 177.5,177.5 C 181.817,180.152 185.484,183.485 188.5,187.5C 197.138,197.101 203.471,208.101 207.5,220.5C 207.5,221.833 207.5,223.167 207.5,224.5C 205.697,228.756 202.364,231.09 197.5,231.5C 181.971,227.7 166.304,224.7 150.5,222.5C 153.237,217.362 156.237,212.362 159.5,207.5C 160.949,206.828 162.282,206.161 163.5,205.5C 167.514,205.666 171.514,205.499 175.5,205C 173.28,201.385 170.947,197.885 168.5,194.5C 170.719,188.393 173.719,182.727 177.5,177.5 Z"/></g>
<g><path style="opacity:0.997" fill="#fcbe00" d="M 152.5,186.5 C 156.53,192.553 160.197,198.886 163.5,205.5C 147.683,206.197 132.35,209.197 117.5,214.5C 111.058,216.555 104.725,218.888 98.5,221.5C 68.4264,221.175 38.4264,221.508 8.5,222.5C 9.70228,210.488 12.0356,198.822 15.5,187.5C 61.3364,187.832 107.003,187.499 152.5,186.5 Z"/></g>
<g><path style="opacity:1" fill="#fcbe00" d="M 188.5,187.5 C 233.167,187.5 277.833,187.5 322.5,187.5C 313.862,197.101 307.529,208.101 303.5,220.5C 271.5,221.833 239.5,221.833 207.5,220.5C 203.471,208.101 197.138,197.101 188.5,187.5 Z"/></g>
<g><path style="opacity:0.997" fill="#fcbe00" d="M 358.5,186.5 C 403.997,187.499 449.664,187.832 495.5,187.5C 498.679,198.546 501.012,209.88 502.5,221.5C 472.5,221.5 442.5,221.5 412.5,221.5C 398.585,215.75 384.252,211.417 369.5,208.5C 362.544,207.221 355.544,206.221 348.5,205.5C 348.167,205.5 347.833,205.5 347.5,205.5C 350.803,198.886 354.47,192.553 358.5,186.5 Z"/></g>
<g><path style="opacity:1" fill="#492401" d="M 348.5,205.5 C 355.544,206.221 362.544,207.221 369.5,208.5C 371.697,212.389 374.03,216.222 376.5,220C 375.263,220.232 374.263,220.732 373.5,221.5C 369.102,221.294 364.768,221.627 360.5,222.5C 358.012,218.194 355.512,213.861 353,209.5C 351.804,207.714 350.304,206.381 348.5,205.5 Z"/></g>
<g><path style="opacity:1" fill="#502801" d="M 163.5,205.5 C 162.282,206.161 160.949,206.828 159.5,207.5C 156.237,212.362 153.237,217.362 150.5,222.5C 145.527,221.836 140.527,221.503 135.5,221.5C 128.988,220.833 122.321,220.167 115.5,219.5C 116.174,217.805 116.841,216.138 117.5,214.5C 132.35,209.197 147.683,206.197 163.5,205.5 Z"/></g>
<g><path style="opacity:1" fill="#5a2e02" d="M 369.5,208.5 C 384.252,211.417 398.585,215.75 412.5,221.5C 412.918,222.222 413.584,222.722 414.5,223C 413.207,223.49 411.873,223.657 410.5,223.5C 409.048,222.698 407.382,222.198 405.5,222C 394.839,221.5 384.172,221.333 373.5,221.5C 374.263,220.732 375.263,220.232 376.5,220C 374.03,216.222 371.697,212.389 369.5,208.5 Z"/></g>
<g><path style="opacity:1" fill="#6f3c03" d="M 117.5,214.5 C 116.841,216.138 116.174,217.805 115.5,219.5C 122.321,220.167 128.988,220.833 135.5,221.5C 124.828,221.333 114.161,221.5 103.5,222C 101.942,222.21 100.609,222.71 99.5,223.5C 96.075,223.633 95.7417,222.967 98.5,221.5C 104.725,218.888 111.058,216.555 117.5,214.5 Z"/></g>
<g><path style="opacity:0.999" fill="#fbb800" d="M 207.5,220.5 C 239.5,221.833 271.5,221.833 303.5,220.5C 303.5,221.833 303.5,223.167 303.5,224.5C 301.914,232.523 304.914,237.523 312.5,239.5C 344.644,230.899 377.311,225.566 410.5,223.5C 411.873,223.657 413.207,223.49 414.5,223C 413.584,222.722 412.918,222.222 412.5,221.5C 442.5,221.5 472.5,221.5 502.5,221.5C 503.356,232.81 503.69,244.143 503.5,255.5C 338.167,255.5 172.833,255.5 7.5,255.5C 7.28672,244.473 7.62006,233.473 8.5,222.5C 38.4264,221.508 68.4264,221.175 98.5,221.5C 95.7417,222.967 96.075,223.633 99.5,223.5C 132.738,225.373 165.404,230.706 197.5,239.5C 206.033,238.125 209.366,233.125 207.5,224.5C 207.5,223.167 207.5,221.833 207.5,220.5 Z"/></g>
<g><path style="opacity:1" fill="#f69a05" d="M 135.5,221.5 C 140.527,221.503 145.527,221.836 150.5,222.5C 166.304,224.7 181.971,227.7 197.5,231.5C 202.364,231.09 205.697,228.756 207.5,224.5C 209.366,233.125 206.033,238.125 197.5,239.5C 165.404,230.706 132.738,225.373 99.5,223.5C 100.609,222.71 101.942,222.21 103.5,222C 114.161,221.5 124.828,221.333 135.5,221.5 Z"/></g>
<g><path style="opacity:1" fill="#f39805" d="M 373.5,221.5 C 384.172,221.333 394.839,221.5 405.5,222C 407.382,222.198 409.048,222.698 410.5,223.5C 377.311,225.566 344.644,230.899 312.5,239.5C 304.914,237.523 301.914,232.523 303.5,224.5C 305.231,228.63 308.398,230.964 313,231.5C 328.605,227.371 344.438,224.371 360.5,222.5C 364.768,221.627 369.102,221.294 373.5,221.5 Z"/></g>
<g><path style="opacity:0.999" fill="#fcb200" d="M 7.5,255.5 C 172.833,255.5 338.167,255.5 503.5,255.5C 503.902,268.576 503.236,281.576 501.5,294.5C 467.5,294.5 433.5,294.5 399.5,294.5C 398.646,289.816 395.813,287.483 391,287.5C 381.191,289.911 371.357,292.244 361.5,294.5C 290.833,294.5 220.167,294.5 149.5,294.5C 139.204,292.718 129.037,290.384 119,287.5C 114.715,287.952 112.215,290.285 111.5,294.5C 77.5,294.5 43.5,294.5 9.5,294.5C 7.76429,281.576 7.09762,268.576 7.5,255.5 Z"/></g>
<g><path style="opacity:1" fill="#ec8e09" d="M 149.5,294.5 C 220.163,310.396 290.829,310.396 361.5,294.5C 371.357,292.244 381.191,289.911 391,287.5C 395.813,287.483 398.646,289.816 399.5,294.5C 399.5,296.5 399.5,298.5 399.5,300.5C 397.859,297.339 395.193,295.672 391.5,295.5C 373.813,300.008 356.147,304.008 338.5,307.5C 287.922,315.884 237.255,316.55 186.5,309.5C 163.783,305.862 141.283,301.195 119,295.5C 115.52,295.831 113.02,297.498 111.5,300.5C 111.5,298.5 111.5,296.5 111.5,294.5C 112.215,290.285 114.715,287.952 119,287.5C 129.037,290.384 139.204,292.718 149.5,294.5 Z"/></g>
<g><path style="opacity:0.996" fill="#fbab00" d="M 9.5,294.5 C 43.5,294.5 77.5,294.5 111.5,294.5C 111.5,296.5 111.5,298.5 111.5,300.5C 111.5,302.833 111.5,305.167 111.5,307.5C 111.216,315.024 112.216,322.357 114.5,329.5C 81.6835,327.838 49.0168,328.171 16.5,330.5C 13.3976,318.654 11.0642,306.654 9.5,294.5 Z"/></g>
<g><path style="opacity:1" fill="#fbad00" d="M 149.5,294.5 C 220.167,294.5 290.833,294.5 361.5,294.5C 290.829,310.396 220.163,310.396 149.5,294.5 Z"/></g>
<g><path style="opacity:0.996" fill="#fbab00" d="M 399.5,294.5 C 433.5,294.5 467.5,294.5 501.5,294.5C 500.186,306.072 497.852,317.406 494.5,328.5C 461.76,328.174 429.093,328.508 396.5,329.5C 398.794,322.359 399.794,315.026 399.5,307.5C 399.5,305.167 399.5,302.833 399.5,300.5C 399.5,298.5 399.5,296.5 399.5,294.5 Z"/></g>
<g><path style="opacity:1" fill="#b5b0ab" d="M 399.5,300.5 C 399.5,302.833 399.5,305.167 399.5,307.5C 399.167,307.5 398.833,307.5 398.5,307.5C 378.5,307.5 358.5,307.5 338.5,307.5C 356.147,304.008 373.813,300.008 391.5,295.5C 395.193,295.672 397.859,297.339 399.5,300.5 Z"/></g>
<g><path style="opacity:1" fill="#b7b4b2" d="M 186.5,309.5 C 162.006,310.498 137.339,310.831 112.5,310.5C 112.737,309.209 112.404,308.209 111.5,307.5C 111.5,305.167 111.5,302.833 111.5,300.5C 113.02,297.498 115.52,295.831 119,295.5C 141.283,301.195 163.783,305.862 186.5,309.5 Z"/></g>
<g><path style="opacity:1" fill="#f6bb07" d="M 111.5,307.5 C 112.404,308.209 112.737,309.209 112.5,310.5C 112.325,312.621 112.659,314.621 113.5,316.5C 113.433,317.959 113.766,319.292 114.5,320.5C 114.392,322.514 115.058,324.18 116.5,325.5C 120.786,345.058 130.12,362.058 144.5,376.5C 150.554,382.887 157.221,388.554 164.5,393.5C 175.234,402.206 187.234,408.873 200.5,413.5C 237.067,426.795 273.734,426.795 310.5,413.5C 323.766,408.873 335.766,402.206 346.5,393.5C 353.779,388.554 360.446,382.887 366.5,376.5C 380.52,362.145 390.186,345.145 395.5,325.5C 396.301,323.958 396.634,322.292 396.5,320.5C 397.234,319.292 397.567,317.959 397.5,316.5C 398.403,313.609 398.736,310.609 398.5,307.5C 398.833,307.5 399.167,307.5 399.5,307.5C 399.794,315.026 398.794,322.359 396.5,329.5C 394.116,341.268 389.783,352.268 383.5,362.5C 375.709,375.401 366.043,386.735 354.5,396.5C 308.958,431.659 258.625,440.492 203.5,423C 186.447,416.406 170.78,407.573 156.5,396.5C 145.393,386.393 135.726,375.06 127.5,362.5C 121.396,352.188 117.063,341.188 114.5,329.5C 112.216,322.357 111.216,315.024 111.5,307.5 Z"/></g>
<g><path style="opacity:1" fill="#410a10" d="M 116.5,325.5 C 118.05,326.441 119.716,327.107 121.5,327.5C 132.96,333.893 144.96,339.227 157.5,343.5C 169.439,348.235 181.773,351.568 194.5,353.5C 213.905,358.303 233.738,360.303 254,359.5C 275.247,360.273 296.08,358.273 316.5,353.5C 329.227,351.568 341.561,348.235 353.5,343.5C 366.04,339.227 378.04,333.893 389.5,327.5C 391.5,326.833 393.5,326.167 395.5,325.5C 390.186,345.145 380.52,362.145 366.5,376.5C 292.5,376.5 218.5,376.5 144.5,376.5C 130.12,362.058 120.786,345.058 116.5,325.5 Z"/></g>
<g><path style="opacity:1" fill="#ddd9d7" d="M 114.5,320.5 C 208.5,320.5 302.5,320.5 396.5,320.5C 396.634,322.292 396.301,323.958 395.5,325.5C 393.5,326.167 391.5,326.833 389.5,327.5C 300.167,326.167 210.833,326.167 121.5,327.5C 119.716,327.107 118.05,326.441 116.5,325.5C 115.058,324.18 114.392,322.514 114.5,320.5 Z"/></g>
<g><path style="opacity:1" fill="#d1cecc" d="M 113.5,316.5 C 208.167,316.5 302.833,316.5 397.5,316.5C 397.567,317.959 397.234,319.292 396.5,320.5C 302.5,320.5 208.5,320.5 114.5,320.5C 113.766,319.292 113.433,317.959 113.5,316.5 Z"/></g>
<g><path style="opacity:1" fill="#c6c2be" d="M 338.5,307.5 C 358.5,307.5 378.5,307.5 398.5,307.5C 398.736,310.609 398.403,313.609 397.5,316.5C 302.833,316.5 208.167,316.5 113.5,316.5C 112.659,314.621 112.325,312.621 112.5,310.5C 137.339,310.831 162.006,310.498 186.5,309.5C 237.255,316.55 287.922,315.884 338.5,307.5 Z"/></g>
<g><path style="opacity:0.995" fill="#fba500" d="M 114.5,329.5 C 117.063,341.188 121.396,352.188 127.5,362.5C 94.3291,362.168 61.3291,362.502 28.5,363.5C 23.7305,352.865 19.7305,341.865 16.5,330.5C 49.0168,328.171 81.6835,327.838 114.5,329.5 Z"/></g>
<g><path style="opacity:0.997" fill="#fba500" d="M 494.5,328.5 C 491.804,339.921 488.138,350.921 483.5,361.5C 450.24,362.493 416.906,362.826 383.5,362.5C 389.783,352.268 394.116,341.268 396.5,329.5C 429.093,328.508 461.76,328.174 494.5,328.5 Z"/></g>
<g><path style="opacity:1" fill="#eeeae6" d="M 389.5,327.5 C 378.04,333.893 366.04,339.227 353.5,343.5C 288.167,342.167 222.833,342.167 157.5,343.5C 144.96,339.227 132.96,333.893 121.5,327.5C 210.833,326.167 300.167,326.167 389.5,327.5 Z"/></g>
<g><path style="opacity:1" fill="#e6e2df" d="M 157.5,343.5 C 222.833,342.167 288.167,342.167 353.5,343.5C 341.561,348.235 329.227,351.568 316.5,353.5C 275.833,353.5 235.167,353.5 194.5,353.5C 181.773,351.568 169.439,348.235 157.5,343.5 Z"/></g>
<g><path style="opacity:1" fill="#d4d0cb" d="M 194.5,353.5 C 235.167,353.5 275.833,353.5 316.5,353.5C 296.08,358.273 275.247,360.273 254,359.5C 233.738,360.303 213.905,358.303 194.5,353.5 Z"/></g>
<g><path style="opacity:0.996" fill="#fa9f00" d="M 483.5,361.5 C 479.34,373.684 473.674,385.017 466.5,395.5C 429.239,396.493 391.906,396.827 354.5,396.5C 366.043,386.735 375.709,375.401 383.5,362.5C 416.906,362.826 450.24,362.493 483.5,361.5 Z"/></g>
<g><path style="opacity:0.997" fill="#fa9f00" d="M 127.5,362.5 C 135.726,375.06 145.393,386.393 156.5,396.5C 119.33,396.168 82.3296,396.502 45.5,397.5C 38.3262,387.017 32.6596,375.684 28.5,363.5C 61.3291,362.502 94.3291,362.168 127.5,362.5 Z"/></g>
<g><path style="opacity:1" fill="#490b12" d="M 144.5,376.5 C 218.5,376.5 292.5,376.5 366.5,376.5C 360.446,382.887 353.779,388.554 346.5,393.5C 329.5,393.5 312.5,393.5 295.5,393.5C 278.985,384.524 261.319,381.357 242.5,384C 232.852,385.498 223.852,388.665 215.5,393.5C 198.5,393.5 181.5,393.5 164.5,393.5C 157.221,388.554 150.554,382.887 144.5,376.5 Z"/></g>
<g><path style="opacity:1" fill="#8f070e" d="M 295.5,393.5 C 298.771,396.268 301.938,399.268 305,402.5C 307.393,405.952 309.226,409.619 310.5,413.5C 273.734,426.795 237.067,426.795 200.5,413.5C 201.621,409.526 203.454,405.86 206,402.5C 209.062,399.268 212.229,396.268 215.5,393.5C 223.852,388.665 232.852,385.498 242.5,384C 261.319,381.357 278.985,384.524 295.5,393.5 Z"/></g>
<g><path style="opacity:1" fill="#570e15" d="M 164.5,393.5 C 181.5,393.5 198.5,393.5 215.5,393.5C 212.229,396.268 209.062,399.268 206,402.5C 203.454,405.86 201.621,409.526 200.5,413.5C 187.234,408.873 175.234,402.206 164.5,393.5 Z"/></g>
<g><path style="opacity:1" fill="#560e15" d="M 295.5,393.5 C 312.5,393.5 329.5,393.5 346.5,393.5C 335.766,402.206 323.766,408.873 310.5,413.5C 309.226,409.619 307.393,405.952 305,402.5C 301.938,399.268 298.771,396.268 295.5,393.5 Z"/></g>
<g><path style="opacity:0.997" fill="#fa9800" d="M 466.5,395.5 C 458.08,410.59 447.747,424.257 435.5,436.5C 315.431,435.832 195.264,435.166 75,434.5C 74.6012,434.728 74.4346,435.062 74.5,435.5C 70.4521,431.766 66.6187,427.766 63,423.5C 56.4032,415.294 50.5698,406.627 45.5,397.5C 82.3296,396.502 119.33,396.168 156.5,396.5C 170.78,407.573 186.447,416.406 203.5,423C 258.625,440.492 308.958,431.659 354.5,396.5C 391.906,396.827 429.239,396.493 466.5,395.5 Z"/></g>
<g><path style="opacity:0.997" fill="#f99200" d="M 435.5,436.5 C 423.227,449.781 409.227,460.781 393.5,469.5C 301.665,469.167 209.998,469.501 118.5,470.5C 102.08,461.085 87.4138,449.419 74.5,435.5C 74.4346,435.062 74.6012,434.728 75,434.5C 195.264,435.166 315.431,435.832 435.5,436.5 Z"/></g>
<g><path style="opacity:0.989" fill="#f98d00" d="M 393.5,469.5 C 372.334,482.843 349.334,492.009 324.5,497C 278.5,505.667 232.5,505.667 186.5,497C 162.305,491.722 139.638,482.889 118.5,470.5C 209.998,469.501 301.665,469.167 393.5,469.5 Z"/></g>
</svg>
