<?xml version="1.0" encoding="UTF-8"?>
<!DOCTYPE svg PUBLIC "-//W3C//DTD SVG 1.1//EN" "http://www.w3.org/Graphics/SVG/1.1/DTD/svg11.dtd">
<svg xmlns="http://www.w3.org/2000/svg" version="1.1" width="512px" height="512px" style="shape-rendering:geometricPrecision; text-rendering:geometricPrecision; image-rendering:optimizeQuality; fill-rule:evenodd; clip-rule:evenodd" xmlns:xlink="http://www.w3.org/1999/xlink">
<g><path style="opacity:0.99" fill="#ffdd00" d="M 401.5,46.5 C 304.167,46.5 206.833,46.5 109.5,46.5C 135.908,28.9807 164.908,17.4807 196.5,12C 235.833,6 275.167,6 314.5,12C 346.218,17.1724 375.218,28.6724 401.5,46.5 Z"/></g>
<g><path style="opacity:0.996" fill="#fed700" d="M 109.5,46.5 C 206.833,46.5 304.167,46.5 401.5,46.5C 416.308,55.9643 429.641,67.2976 441.5,80.5C 317.666,80.8329 193.999,80.4995 70.5,79.5C 82.0277,66.6291 95.0277,55.6291 109.5,46.5 Z"/></g>
<g><path style="opacity:0.998" fill="#fed100" d="M 70.5,79.5 C 193.999,80.4995 317.666,80.8329 441.5,80.5C 450.721,90.6059 458.721,101.606 465.5,113.5C 325.5,114.833 185.5,114.833 45.5,113.5C 52.3709,101.092 60.7042,89.7582 70.5,79.5 Z"/></g>
<g><path style="opacity:0.998" fill="#fdcb00" d="M 45.5,113.5 C 185.5,114.833 325.5,114.833 465.5,113.5C 473.677,126.324 480.343,139.991 485.5,154.5C 383.57,153.502 281.57,153.169 179.5,153.5C 166.118,140.292 152.785,140.292 139.5,153.5C 101.5,153.5 63.5,153.5 25.5,153.5C 30.8504,139.409 37.5171,126.076 45.5,113.5 Z"/></g>
<g><path style="opacity:1" fill="#e7a105" d="M 179.5,153.5 C 186.866,163.595 190.866,174.928 191.5,187.5C 191.5,187.833 191.5,188.167 191.5,188.5C 188.986,174.311 181.986,162.811 170.5,154C 157.287,148.849 146.454,152.015 138,163.5C 132.79,171.237 129.29,179.571 127.5,188.5C 127.5,188.167 127.5,187.833 127.5,187.5C 128.134,174.928 132.134,163.595 139.5,153.5C 152.785,140.292 166.118,140.292 179.5,153.5 Z"/></g>
<g><path style="opacity:1" fill="#060706" d="M 191.5,188.5 C 191.5,194.5 191.5,200.5 191.5,206.5C 188.728,207.767 186.061,207.767 183.5,206.5C 183.932,203.123 183.265,200.123 181.5,197.5C 173.229,184.02 161.896,180.52 147.5,187C 143.288,189.711 139.954,193.211 137.5,197.5C 135.735,200.123 135.068,203.123 135.5,206.5C 133.052,207.473 130.385,207.806 127.5,207.5C 127.5,201.167 127.5,194.833 127.5,188.5C 129.29,179.571 132.79,171.237 138,163.5C 146.454,152.015 157.287,148.849 170.5,154C 181.986,162.811 188.986,174.311 191.5,188.5 Z"/></g>
<g><path style="opacity:0.997" fill="#fcc400" d="M 25.5,153.5 C 63.5,153.5 101.5,153.5 139.5,153.5C 132.134,163.595 128.134,174.928 127.5,187.5C 90.1667,187.5 52.8333,187.5 15.5,187.5C 17.8224,175.866 21.1558,164.533 25.5,153.5 Z"/></g>
<g><path style="opacity:0.998" fill="#fdc400" d="M 179.5,153.5 C 281.57,153.169 383.57,153.502 485.5,154.5C 490.04,165.12 493.373,176.12 495.5,187.5C 457.5,187.5 419.5,187.5 381.5,187.5C 377.405,174.469 369.405,164.636 357.5,158C 337.364,151.6 321.864,157.433 311,175.5C 308.879,179.407 307.045,183.407 305.5,187.5C 267.5,187.5 229.5,187.5 191.5,187.5C 190.866,174.928 186.866,163.595 179.5,153.5 Z"/></g>
<g><path style="opacity:1" fill="#fccc00" d="M 381.5,187.5 C 382.59,190.985 382.59,194.319 381.5,197.5C 380.892,194.673 379.892,192.007 378.5,189.5C 368.613,167.058 351.946,159.558 328.5,167C 318.804,171.859 312.138,179.359 308.5,189.5C 307.108,192.007 306.108,194.673 305.5,197.5C 304.3,194.302 304.3,190.969 305.5,187.5C 307.045,183.407 308.879,179.407 311,175.5C 321.864,157.433 337.364,151.6 357.5,158C 369.405,164.636 377.405,174.469 381.5,187.5 Z"/></g>
<g><path style="opacity:1" fill="#475151" d="M 152.5,167.5 C 158,166.831 160.167,169.165 159,174.5C 157.66,180.853 153.827,183.686 147.5,183C 145.543,180.879 145.043,178.379 146,175.5C 147.305,172.039 149.471,169.372 152.5,167.5 Z"/></g>
<g><path style="opacity:1" fill="#3c1e01" d="M 378.5,189.5 C 355.167,189.5 331.833,189.5 308.5,189.5C 312.138,179.359 318.804,171.859 328.5,167C 351.946,159.558 368.613,167.058 378.5,189.5 Z"/></g>
<g><path style="opacity:0.997" fill="#fcbe00" d="M 15.5,187.5 C 52.8333,187.5 90.1667,187.5 127.5,187.5C 127.5,187.833 127.5,188.167 127.5,188.5C 127.5,194.833 127.5,201.167 127.5,207.5C 128.01,210.539 128.677,213.539 129.5,216.5C 128.549,217.919 128.216,219.585 128.5,221.5C 88.4275,221.173 48.4275,221.506 8.5,222.5C 9.70228,210.488 12.0356,198.822 15.5,187.5 Z"/></g>
<g><path style="opacity:1" fill="#fcbe00" d="M 191.5,187.5 C 229.5,187.5 267.5,187.5 305.5,187.5C 304.3,190.969 304.3,194.302 305.5,197.5C 304.908,200.127 304.575,202.794 304.5,205.5C 303.512,210.64 303.179,215.974 303.5,221.5C 265.833,221.5 228.167,221.5 190.5,221.5C 191.067,219.031 191.067,216.698 190.5,214.5C 190.575,211.794 190.908,209.127 191.5,206.5C 191.5,200.5 191.5,194.5 191.5,188.5C 191.5,188.167 191.5,187.833 191.5,187.5 Z"/></g>
<g><path style="opacity:0.996" fill="#fcbe00" d="M 381.5,187.5 C 419.5,187.5 457.5,187.5 495.5,187.5C 498.679,198.546 501.012,209.88 502.5,221.5C 462.833,221.5 423.167,221.5 383.5,221.5C 383.5,221.167 383.5,220.833 383.5,220.5C 383.821,215.305 383.487,210.305 382.5,205.5C 382.425,202.794 382.092,200.127 381.5,197.5C 382.59,194.319 382.59,190.985 381.5,187.5 Z"/></g>
<g><path style="opacity:1" fill="#4d2601" d="M 308.5,189.5 C 331.833,189.5 355.167,189.5 378.5,189.5C 379.892,192.007 380.892,194.673 381.5,197.5C 382.092,200.127 382.425,202.794 382.5,205.5C 382.5,206.833 382.5,208.167 382.5,209.5C 376.167,209.5 369.833,209.5 363.5,209.5C 350.167,190.833 336.833,190.833 323.5,209.5C 317.167,209.5 310.833,209.5 304.5,209.5C 304.5,208.167 304.5,206.833 304.5,205.5C 304.575,202.794 304.908,200.127 305.5,197.5C 306.108,194.673 307.108,192.007 308.5,189.5 Z"/></g>
<g><path style="opacity:1" fill="#202626" d="M 181.5,197.5 C 166.833,197.5 152.167,197.5 137.5,197.5C 139.954,193.211 143.288,189.711 147.5,187C 161.896,180.52 173.229,184.02 181.5,197.5 Z"/></g>
<g><path style="opacity:1" fill="#e79f05" d="M 363.5,209.5 C 366.199,214.899 368.866,220.232 371.5,225.5C 372.688,231.233 374.188,236.9 376,242.5C 379.3,237.239 381.467,231.572 382.5,225.5C 382.216,223.585 382.549,221.919 383.5,220.5C 383.5,220.833 383.5,221.167 383.5,221.5C 383.717,231.93 381.217,241.596 376,250.5C 372.934,237.286 367.934,224.952 361,213.5C 349.333,200.167 337.667,200.167 326,213.5C 318.661,224.842 313.661,237.176 311,250.5C 306.119,243.274 303.952,235.274 304.5,226.5C 305.757,232.082 307.923,237.415 311,242.5C 313.523,230.803 317.689,219.803 323.5,209.5C 336.833,190.833 350.167,190.833 363.5,209.5 Z"/></g>
<g><path style="opacity:1" fill="#2b3333" d="M 137.5,197.5 C 152.167,197.5 166.833,197.5 181.5,197.5C 183.265,200.123 183.932,203.123 183.5,206.5C 182.251,209.087 181.251,211.754 180.5,214.5C 166.677,213.504 152.677,213.171 138.5,213.5C 137.651,211.112 136.651,208.779 135.5,206.5C 135.068,203.123 135.735,200.123 137.5,197.5 Z"/></g>
<g><path style="opacity:1" fill="#6a3502" d="M 382.5,205.5 C 383.487,210.305 383.821,215.305 383.5,220.5C 382.549,221.919 382.216,223.585 382.5,225.5C 378.833,225.5 375.167,225.5 371.5,225.5C 368.866,220.232 366.199,214.899 363.5,209.5C 369.833,209.5 376.167,209.5 382.5,209.5C 382.5,208.167 382.5,206.833 382.5,205.5 Z"/></g>
<g><path style="opacity:1" fill="#723902" d="M 304.5,205.5 C 304.5,206.833 304.5,208.167 304.5,209.5C 310.833,209.5 317.167,209.5 323.5,209.5C 317.689,219.803 313.523,230.803 311,242.5C 307.923,237.415 305.757,232.082 304.5,226.5C 304.634,224.708 304.301,223.042 303.5,221.5C 303.179,215.974 303.512,210.64 304.5,205.5 Z"/></g>
<g><path style="opacity:1" fill="#f9ca02" d="M 190.5,214.5 C 191.067,216.698 191.067,219.031 190.5,221.5C 187.99,234.19 181.656,244.523 171.5,252.5C 157.518,258.285 146.185,254.951 137.5,242.5C 133.514,235.861 130.514,228.861 128.5,221.5C 128.216,219.585 128.549,217.919 129.5,216.5C 132.369,230.753 140.369,240.92 153.5,247C 164.893,248.555 174.06,244.722 181,235.5C 185.302,228.905 188.469,221.905 190.5,214.5 Z"/></g>
<g><path style="opacity:0.999" fill="#fbb800" d="M 383.5,221.5 C 423.167,221.5 462.833,221.5 502.5,221.5C 503.356,232.81 503.69,244.143 503.5,255.5C 394.166,255.667 284.833,255.5 175.5,255C 174.874,254.25 174.374,253.416 174,252.5C 173.23,253.598 172.397,253.598 171.5,252.5C 181.656,244.523 187.99,234.19 190.5,221.5C 228.167,221.5 265.833,221.5 303.5,221.5C 304.301,223.042 304.634,224.708 304.5,226.5C 303.952,235.274 306.119,243.274 311,250.5C 313.661,237.176 318.661,224.842 326,213.5C 337.667,200.167 349.333,200.167 361,213.5C 367.934,224.952 372.934,237.286 376,250.5C 381.217,241.596 383.717,231.93 383.5,221.5 Z"/></g>
<g><path style="opacity:0.998" fill="#fbb800" d="M 128.5,221.5 C 130.514,228.861 133.514,235.861 137.5,242.5C 135.334,243.626 133.167,243.293 131,241.5C 129.984,242.634 129.317,242.301 129,240.5C 127.806,241.43 126.473,242.097 125,242.5C 121.333,241.167 117.667,241.167 114,242.5C 112.527,242.097 111.194,241.43 110,240.5C 109.683,242.301 109.016,242.634 108,241.5C 107,242.167 106,242.833 105,243.5C 100.707,243.393 96.0404,243.393 91,243.5C 89.2462,245.114 87.2462,246.447 85,247.5C 84.6667,247.167 84.3333,246.833 84,246.5C 80.0606,249.174 75.8939,250.174 71.5,249.5C 70.7492,250.376 70.2492,251.376 70,252.5C 69.6667,251.833 69.3333,251.167 69,250.5C 67.9563,251.623 67.2896,252.956 67,254.5C 66.6667,254.167 66.3333,253.833 66,253.5C 63.6667,254.5 61.3333,255.5 59,256.5C 58.6667,255.833 58.3333,255.167 58,254.5C 41.2439,255.492 24.4105,255.825 7.5,255.5C 7.28672,244.473 7.62006,233.473 8.5,222.5C 48.4275,221.506 88.4275,221.173 128.5,221.5 Z"/></g>
<g><path style="opacity:1" fill="#804002" d="M 371.5,225.5 C 375.167,225.5 378.833,225.5 382.5,225.5C 381.467,231.572 379.3,237.239 376,242.5C 374.188,236.9 372.688,231.233 371.5,225.5 Z"/></g>
<g><path style="opacity:1" fill="#1a1f1e" d="M 135.5,206.5 C 136.651,208.779 137.651,211.112 138.5,213.5C 140.674,225.004 147.341,232.338 158.5,235.5C 170.327,233.343 177.66,226.343 180.5,214.5C 181.251,211.754 182.251,209.087 183.5,206.5C 186.061,207.767 188.728,207.767 191.5,206.5C 190.908,209.127 190.575,211.794 190.5,214.5C 188.469,221.905 185.302,228.905 181,235.5C 174.06,244.722 164.893,248.555 153.5,247C 140.369,240.92 132.369,230.753 129.5,216.5C 128.677,213.539 128.01,210.539 127.5,207.5C 130.385,207.806 133.052,207.473 135.5,206.5 Z"/></g>
<g><path style="opacity:1" fill="#353f3f" d="M 138.5,213.5 C 152.677,213.171 166.677,213.504 180.5,214.5C 177.66,226.343 170.327,233.343 158.5,235.5C 147.341,232.338 140.674,225.004 138.5,213.5 Z"/></g>
<g><path style="opacity:0.998" fill="#fbab00" d="M 331.5,294.5 C 330.629,297.112 329.963,299.779 329.5,302.5C 328.662,302.842 328.328,303.508 328.5,304.5C 322.43,312.545 319.43,321.711 319.5,332C 319.941,342.485 321.941,352.652 325.5,362.5C 319.642,362.822 313.975,362.489 308.5,361.5C 309.11,360.609 309.443,359.609 309.5,358.5C 313.592,348.81 310.925,341.31 301.5,336C 285.5,329.442 268.833,326.608 251.5,327.5C 238.549,328.463 225.549,328.796 212.5,328.5C 211.488,330.152 210.821,332.152 210.5,334.5C 208.447,333.061 207.447,331.061 207.5,328.5C 206.167,328.5 204.833,328.5 203.5,328.5C 203.662,326.473 203.495,324.473 203,322.5C 201.263,319.603 199.763,316.603 198.5,313.5C 198.709,312.914 199.043,312.414 199.5,312C 196.844,310.997 195.844,309.33 196.5,307C 195.377,305.956 194.044,305.29 192.5,305C 194.797,303.84 194.464,302.84 191.5,302C 193.878,301.026 193.544,300.359 190.5,300C 190.833,299.667 191.167,299.333 191.5,299C 188.064,296.072 186.064,292.739 185.5,289C 182.833,287 180.167,285 177.5,283C 167.302,271.267 154.469,263.433 139,259.5C 138.667,259.833 138.333,260.167 138,260.5C 135.409,259.845 132.742,258.845 130,257.5C 127.994,259.002 126.328,258.669 125,256.5C 120.333,257.167 115.667,257.833 111,258.5C 110.439,257.978 109.772,257.645 109,257.5C 89.2738,261.027 72.6071,270.027 59,284.5C 58.5172,285.448 58.3505,286.448 58.5,287.5C 57.0695,287.421 55.7362,287.754 54.5,288.5C 51.9883,293.722 48.9883,297.889 45.5,301C 45.9574,301.414 46.2907,301.914 46.5,302.5C 46.163,304.425 44.8297,305.925 42.5,307C 42.8333,307.333 43.1667,307.667 43.5,308C 41.4672,310.896 40.1338,314.063 39.5,317.5C 38.448,317.351 37.448,317.517 36.5,318C 38.787,320.048 38.9536,322.215 37,324.5C 36.6667,323.833 36.3333,323.167 36,322.5C 36.1449,325.923 34.6449,327.923 31.5,328.5C 31.7529,330.827 31.0863,332.827 29.5,334.5C 28.8076,333.975 28.3076,333.308 28,332.5C 27.6667,332.833 27.3333,333.167 27,333.5C 26.5065,331.866 26.3398,330.199 26.5,328.5C 22.8215,328.06 19.4882,328.727 16.5,330.5C 13.3976,318.654 11.0642,306.654 9.5,294.5C 18.9321,295.122 28.0988,294.456 37,292.5C 37.3333,293.167 37.6667,293.833 38,294.5C 38.3095,293.234 38.8095,292.067 39.5,291C 38.3463,290.086 38.513,289.253 40,288.5C 40.3333,289.167 40.6667,289.833 41,290.5C 43.2444,288.89 45.0777,286.89 46.5,284.5C 47.7946,283.902 49.1279,283.402 50.5,283C 49.8333,282.667 49.1667,282.333 48.5,282C 50.0441,281.71 51.3774,281.044 52.5,280C 51.8333,279.667 51.1667,279.333 50.5,279C 54.3285,278.335 56.6618,276.169 57.5,272.5C 61.8662,272.977 64.8662,271.144 66.5,267C 67.7604,265.887 68.927,265.72 70,266.5C 70.724,264.041 72.0573,263.041 74,263.5C 74.065,261.117 74.8983,260.45 76.5,261.5C 81.4835,258.758 86.6502,256.425 92,254.5C 93.3946,255.815 94.3946,255.481 95,253.5C 96.3946,254.815 97.3946,254.481 98,252.5C 98.3333,253.167 98.6667,253.833 99,254.5C 100.346,251.751 101.68,251.417 103,253.5C 104.137,252.636 105.47,251.636 107,250.5C 108.751,251.174 110.417,251.507 112,251.5C 117,248.833 122,248.833 127,251.5C 130.342,249.961 133.342,250.627 136,253.5C 137.32,251.417 138.654,251.751 140,254.5C 140.626,252.009 141.459,252.009 142.5,254.5C 143.086,254.291 143.586,253.957 144,253.5C 145.616,254.545 147.283,255.545 149,256.5C 150.398,255.949 151.732,255.616 153,255.5C 155.908,257.227 159.075,259.227 162.5,261.5C 164.102,260.45 164.935,261.117 165,263.5C 165.333,263.167 165.667,262.833 166,262.5C 167.384,265.11 169.551,266.61 172.5,267C 174.174,271.011 177.174,273.011 181.5,273C 181.167,273.333 180.833,273.667 180.5,274C 182.076,276.077 184.076,277.577 186.5,278.5C 187.386,279.325 187.719,280.325 187.5,281.5C 190.598,281.413 190.932,281.913 188.5,283C 191.859,285.04 195.192,287.04 198.5,289C 200.009,290.674 200.676,292.34 200.5,294C 202.101,294.273 203.601,294.773 205,295.5C 247.094,294.503 289.261,294.17 331.5,294.5 Z"/></g>
<g><path style="opacity:0.999" fill="#fbb100" d="M 137.5,242.5 C 146.185,254.951 157.518,258.285 171.5,252.5C 172.397,253.598 173.23,253.598 174,252.5C 174.374,253.416 174.874,254.25 175.5,255C 284.833,255.5 394.166,255.667 503.5,255.5C 504.305,275.058 502.638,294.391 498.5,313.5C 497.728,312.306 496.728,311.306 495.5,310.5C 488.568,302.031 479.568,297.197 468.5,296C 456.445,293.423 444.778,294.256 433.5,298.5C 429.809,299.762 426.309,301.429 423,303.5C 421.287,301.957 419.787,300.291 418.5,298.5C 407.975,284.391 393.975,275.558 376.5,272C 357.587,268.795 343.254,275.295 333.5,291.5C 332.599,292.29 331.932,293.29 331.5,294.5C 289.261,294.17 247.094,294.503 205,295.5C 203.601,294.773 202.101,294.273 200.5,294C 200.676,292.34 200.009,290.674 198.5,289C 195.192,287.04 191.859,285.04 188.5,283C 190.932,281.913 190.598,281.413 187.5,281.5C 187.719,280.325 187.386,279.325 186.5,278.5C 184.076,277.577 182.076,276.077 180.5,274C 180.833,273.667 181.167,273.333 181.5,273C 177.174,273.011 174.174,271.011 172.5,267C 169.551,266.61 167.384,265.11 166,262.5C 165.667,262.833 165.333,263.167 165,263.5C 164.935,261.117 164.102,260.45 162.5,261.5C 159.075,259.227 155.908,257.227 153,255.5C 151.732,255.616 150.398,255.949 149,256.5C 147.283,255.545 145.616,254.545 144,253.5C 143.586,253.957 143.086,254.291 142.5,254.5C 141.459,252.009 140.626,252.009 140,254.5C 138.654,251.751 137.32,251.417 136,253.5C 133.342,250.627 130.342,249.961 127,251.5C 122,248.833 117,248.833 112,251.5C 110.417,251.507 108.751,251.174 107,250.5C 105.47,251.636 104.137,252.636 103,253.5C 101.68,251.417 100.346,251.751 99,254.5C 98.6667,253.833 98.3333,253.167 98,252.5C 97.3946,254.481 96.3946,254.815 95,253.5C 94.3946,255.481 93.3946,255.815 92,254.5C 86.6502,256.425 81.4835,258.758 76.5,261.5C 74.8983,260.45 74.065,261.117 74,263.5C 72.0573,263.041 70.724,264.041 70,266.5C 68.927,265.72 67.7604,265.887 66.5,267C 64.8662,271.144 61.8662,272.977 57.5,272.5C 56.6618,276.169 54.3285,278.335 50.5,279C 51.1667,279.333 51.8333,279.667 52.5,280C 51.3774,281.044 50.0441,281.71 48.5,282C 49.1667,282.333 49.8333,282.667 50.5,283C 49.1279,283.402 47.7946,283.902 46.5,284.5C 45.0777,286.89 43.2444,288.89 41,290.5C 40.6667,289.833 40.3333,289.167 40,288.5C 38.513,289.253 38.3463,290.086 39.5,291C 38.8095,292.067 38.3095,293.234 38,294.5C 37.6667,293.833 37.3333,293.167 37,292.5C 28.0988,294.456 18.9321,295.122 9.5,294.5C 7.76429,281.576 7.09762,268.576 7.5,255.5C 24.4105,255.825 41.2439,255.492 58,254.5C 58.3333,255.167 58.6667,255.833 59,256.5C 61.3333,255.5 63.6667,254.5 66,253.5C 66.3333,253.833 66.6667,254.167 67,254.5C 67.2896,252.956 67.9563,251.623 69,250.5C 69.3333,251.167 69.6667,251.833 70,252.5C 70.2492,251.376 70.7492,250.376 71.5,249.5C 75.8939,250.174 80.0606,249.174 84,246.5C 84.3333,246.833 84.6667,247.167 85,247.5C 87.2462,246.447 89.2462,245.114 91,243.5C 96.0404,243.393 100.707,243.393 105,243.5C 106,242.833 107,242.167 108,241.5C 109.016,242.634 109.683,242.301 110,240.5C 111.194,241.43 112.527,242.097 114,242.5C 117.667,241.167 121.333,241.167 125,242.5C 126.473,242.097 127.806,241.43 129,240.5C 129.317,242.301 129.984,242.634 131,241.5C 133.167,243.293 135.334,243.626 137.5,242.5 Z"/></g>
<g><path style="opacity:0.997" fill="#fba500" d="M 251.5,327.5 C 258.307,328.976 265.307,330.142 272.5,331C 278.105,332.755 283.438,335.089 288.5,338C 295.283,343.386 297.283,350.22 294.5,358.5C 293.527,360.139 292.194,361.473 290.5,362.5C 262.831,362.333 235.165,362.5 207.5,363C 205.431,363.324 205.098,364.158 206.5,365.5C 206.167,366.5 205.5,367.167 204.5,367.5C 200.497,366.832 196.831,366.832 193.5,367.5C 193.058,364.677 192.725,361.843 192.5,359C 196.375,357.653 196.375,356.486 192.5,355.5C 195.028,354.184 195.028,353.017 192.5,352C 196.5,351.333 196.5,350.667 192.5,350C 193.167,349.667 193.833,349.333 194.5,349C 195.013,347.424 194.346,346.091 192.5,345C 192.759,343.739 193.426,342.739 194.5,342C 193.833,341.667 193.167,341.333 192.5,341C 193.167,339 193.833,337 194.5,335C 191.926,331.63 191.259,327.963 192.5,324C 190.833,320.332 189.166,316.665 187.5,313C 187.833,312.667 188.167,312.333 188.5,312C 187.146,309.452 185.479,307.119 183.5,305C 184.167,304.667 184.833,304.333 185.5,304C 179.177,294.09 172.177,285.423 164.5,278C 155.901,272.453 147.068,267.953 138,264.5C 137.667,264.833 137.333,265.167 137,265.5C 134.392,264.701 131.726,263.701 129,262.5C 122.667,262.5 116.333,262.5 110,262.5C 108.915,263.293 107.748,263.96 106.5,264.5C 82.0559,268.325 64.5559,282.325 54,306.5C 53.2496,307.126 52.4162,307.626 51.5,308C 52.9255,309.714 52.5922,311.047 50.5,312C 50.8333,312.333 51.1667,312.667 51.5,313C 47.9457,318.855 46.4457,325.021 47,331.5C 44.2958,333.65 44.1291,335.816 46.5,338C 44.1088,339.309 44.1088,340.309 46.5,341C 44.1088,342.309 44.1088,343.309 46.5,344C 44.9683,346.33 45.3017,348.33 47.5,350C 45.2853,350.388 43.952,351.388 43.5,353C 44.8333,353.667 46.1667,354.333 47.5,355C 46.1667,355.667 44.8333,356.333 43.5,357C 48.088,358.527 48.4213,360.527 44.5,363C 46.0139,364.439 46.3473,365.939 45.5,367.5C 44.8076,366.975 44.3076,366.308 44,365.5C 43.3261,366.578 42.3261,367.245 41,367.5C 38.7569,366.629 36.7569,366.629 35,367.5C 32.9565,365.792 31.2899,363.792 30,361.5C 29.2828,362.044 28.7828,362.711 28.5,363.5C 23.7305,352.865 19.7305,341.865 16.5,330.5C 19.4882,328.727 22.8215,328.06 26.5,328.5C 26.3398,330.199 26.5065,331.866 27,333.5C 27.3333,333.167 27.6667,332.833 28,332.5C 28.3076,333.308 28.8076,333.975 29.5,334.5C 31.0863,332.827 31.7529,330.827 31.5,328.5C 34.6449,327.923 36.1449,325.923 36,322.5C 36.3333,323.167 36.6667,323.833 37,324.5C 38.9536,322.215 38.787,320.048 36.5,318C 37.448,317.517 38.448,317.351 39.5,317.5C 40.1338,314.063 41.4672,310.896 43.5,308C 43.1667,307.667 42.8333,307.333 42.5,307C 44.8297,305.925 46.163,304.425 46.5,302.5C 46.2907,301.914 45.9574,301.414 45.5,301C 48.9883,297.889 51.9883,293.722 54.5,288.5C 55.7362,287.754 57.0695,287.421 58.5,287.5C 58.3505,286.448 58.5172,285.448 59,284.5C 72.6071,270.027 89.2738,261.027 109,257.5C 109.772,257.645 110.439,257.978 111,258.5C 115.667,257.833 120.333,257.167 125,256.5C 126.328,258.669 127.994,259.002 130,257.5C 132.742,258.845 135.409,259.845 138,260.5C 138.333,260.167 138.667,259.833 139,259.5C 154.469,263.433 167.302,271.267 177.5,283C 180.167,285 182.833,287 185.5,289C 186.064,292.739 188.064,296.072 191.5,299C 191.167,299.333 190.833,299.667 190.5,300C 193.544,300.359 193.878,301.026 191.5,302C 194.464,302.84 194.797,303.84 192.5,305C 194.044,305.29 195.377,305.956 196.5,307C 195.844,309.33 196.844,310.997 199.5,312C 199.043,312.414 198.709,312.914 198.5,313.5C 199.763,316.603 201.263,319.603 203,322.5C 203.495,324.473 203.662,326.473 203.5,328.5C 204.833,328.5 206.167,328.5 207.5,328.5C 207.447,331.061 208.447,333.061 210.5,334.5C 210.821,332.152 211.488,330.152 212.5,328.5C 225.549,328.796 238.549,328.463 251.5,327.5 Z"/></g>
<g><path style="opacity:0.998" fill="#fa9f00" d="M 290.5,362.5 C 287.594,365.965 283.927,368.465 279.5,370C 271.177,372.395 262.843,374.395 254.5,376C 266.008,376.774 276.008,380.941 284.5,388.5C 285.63,390.315 286.296,392.315 286.5,394.5C 284.365,396.369 281.698,397.036 278.5,396.5C 276.469,385.305 269.802,380.472 258.5,382C 256.884,382.615 255.551,383.615 254.5,385C 261.346,391.346 268.346,397.513 275.5,403.5C 275.489,405.017 274.823,406.184 273.5,407C 271.087,407.484 268.754,407.15 266.5,406C 263.833,402.667 260.833,399.667 257.5,397C 232.52,396.528 207.687,396.362 183,396.5C 182.89,399.646 181.557,400.646 179,399.5C 174.498,402.004 169.998,404.504 165.5,407C 159.916,407.806 154.416,407.639 149,406.5C 148.311,407.357 147.478,408.023 146.5,408.5C 145.28,407.289 144.113,407.289 143,408.5C 142.167,407.667 141.333,406.833 140.5,406C 142.231,404.319 144.064,403.153 146,402.5C 147,402.833 148,403.167 149,403.5C 149.167,403.167 149.333,402.833 149.5,402.5C 145.766,401.272 145.599,399.605 149,397.5C 149.308,398.308 149.808,398.975 150.5,399.5C 151.7,398.469 153.034,397.635 154.5,397C 153.167,396.667 151.833,396.333 150.5,396C 152.909,394.293 155.575,393.46 158.5,393.5C 158.452,390.708 159.785,388.875 162.5,388C 162.167,387.667 161.833,387.333 161.5,387C 162.784,386.316 163.951,386.483 165,387.5C 166.852,385.77 166.686,384.604 164.5,384C 170.651,380.521 174.484,375.354 176,368.5C 176.654,369.696 177.154,369.696 177.5,368.5C 176.975,367.808 176.308,367.308 175.5,367C 176.833,365.667 178.167,364.333 179.5,363C 178.366,361.984 178.699,361.317 180.5,361C 180.5,360 180.5,359 180.5,358C 182.569,357.676 182.902,356.842 181.5,355.5C 183.589,353.405 183.589,351.572 181.5,350C 183.125,349.147 183.458,348.147 182.5,347C 184.065,343.189 185.065,339.189 185.5,335C 183.863,317.937 178.197,303.104 168.5,290.5C 146.207,267.511 119.874,262.511 89.5,275.5C 71.1643,286.873 59.8309,301.539 55.5,319.5C 55.6082,320.442 55.9415,321.275 56.5,322C 52.8525,331.353 52.8525,340.687 56.5,350C 55.6214,352.299 56.2881,354.299 58.5,356C 57.8333,356.333 57.1667,356.667 56.5,357C 57.3639,359.071 58.6972,360.738 60.5,362C 59.2351,364.019 59.2351,366.019 60.5,368C 61.2529,369.487 62.0862,369.654 63,368.5C 63.4379,371.376 64.4379,374.043 66,376.5C 66.3333,376.167 66.6667,375.833 67,375.5C 68.5,377 70,378.5 71.5,380C 70.9394,381.566 71.6061,382.899 73.5,384C 72.7203,385.073 72.887,386.24 74,387.5C 75.0495,386.483 76.2161,386.316 77.5,387C 76.8499,388.609 77.3499,390.109 79,391.5C 79.3333,391.167 79.6667,390.833 80,390.5C 80.3742,391.416 80.8742,392.25 81.5,393C 83.9494,393.725 86.2827,394.725 88.5,396C 86.9154,396.085 85.5821,396.251 84.5,396.5C 86.9092,399.041 89.5758,400.374 92.5,400.5C 91.5,401.167 90.5,401.833 89.5,402.5C 90.6507,403.731 91.8173,403.731 93,402.5C 93.3076,403.308 93.8076,403.975 94.5,404.5C 95.7678,403.572 97.1011,403.405 98.5,404C 95.8333,404.667 95.8333,405.333 98.5,406C 97.6667,406.833 96.8333,407.667 96,408.5C 93.8159,409.108 91.8159,408.441 90,406.5C 86.5894,407.293 83.0894,407.793 79.5,408C 81.6145,408.424 82.4479,409.591 82,411.5C 77.5084,408.673 72.675,406.506 67.5,405C 66.3333,403.833 65.1667,402.667 64,401.5C 62.4748,401.112 60.8082,401.112 59,401.5C 55.4187,396.751 50.9187,395.418 45.5,397.5C 38.3262,387.017 32.6596,375.684 28.5,363.5C 28.7828,362.711 29.2828,362.044 30,361.5C 31.2899,363.792 32.9565,365.792 35,367.5C 36.7569,366.629 38.7569,366.629 41,367.5C 42.3261,367.245 43.3261,366.578 44,365.5C 44.3076,366.308 44.8076,366.975 45.5,367.5C 46.3473,365.939 46.0139,364.439 44.5,363C 48.4213,360.527 48.088,358.527 43.5,357C 44.8333,356.333 46.1667,355.667 47.5,355C 46.1667,354.333 44.8333,353.667 43.5,353C 43.952,351.388 45.2853,350.388 47.5,350C 45.3017,348.33 44.9683,346.33 46.5,344C 44.1088,343.309 44.1088,342.309 46.5,341C 44.1088,340.309 44.1088,339.309 46.5,338C 44.1291,335.816 44.2958,333.65 47,331.5C 46.4457,325.021 47.9457,318.855 51.5,313C 51.1667,312.667 50.8333,312.333 50.5,312C 52.5922,311.047 52.9255,309.714 51.5,308C 52.4162,307.626 53.2496,307.126 54,306.5C 64.5559,282.325 82.0559,268.325 106.5,264.5C 107.748,263.96 108.915,263.293 110,262.5C 116.333,262.5 122.667,262.5 129,262.5C 131.726,263.701 134.392,264.701 137,265.5C 137.333,265.167 137.667,264.833 138,264.5C 147.068,267.953 155.901,272.453 164.5,278C 172.177,285.423 179.177,294.09 185.5,304C 184.833,304.333 184.167,304.667 183.5,305C 185.479,307.119 187.146,309.452 188.5,312C 188.167,312.333 187.833,312.667 187.5,313C 189.166,316.665 190.833,320.332 192.5,324C 191.259,327.963 191.926,331.63 194.5,335C 193.833,337 193.167,339 192.5,341C 193.167,341.333 193.833,341.667 194.5,342C 193.426,342.739 192.759,343.739 192.5,345C 194.346,346.091 195.013,347.424 194.5,349C 193.833,349.333 193.167,349.667 192.5,350C 196.5,350.667 196.5,351.333 192.5,352C 195.028,353.017 195.028,354.184 192.5,355.5C 196.375,356.486 196.375,357.653 192.5,359C 192.725,361.843 193.058,364.677 193.5,367.5C 196.831,366.832 200.497,366.832 204.5,367.5C 205.5,367.167 206.167,366.5 206.5,365.5C 205.098,364.158 205.431,363.324 207.5,363C 235.165,362.5 262.831,362.333 290.5,362.5 Z"/></g>
<g><path style="opacity:0.999" fill="#fa9800" d="M 275.5,403.5 C 277.065,401.491 278.065,399.157 278.5,396.5C 281.698,397.036 284.365,396.369 286.5,394.5C 287.468,396.607 287.802,398.941 287.5,401.5C 284.681,409.151 279.348,414.318 271.5,417C 265.21,418.823 258.877,420.489 252.5,422C 267.759,423.348 282.092,420.348 295.5,413C 299.301,410.386 301.634,406.886 302.5,402.5C 303.461,400.735 303.795,398.735 303.5,396.5C 316.011,396.829 328.345,396.495 340.5,395.5C 348.297,409.303 357.297,422.303 367.5,434.5C 269.696,435.496 172.03,435.83 74.5,435.5C 70.4521,431.766 66.6187,427.766 63,423.5C 56.4032,415.294 50.5698,406.627 45.5,397.5C 50.9187,395.418 55.4187,396.751 59,401.5C 60.8082,401.112 62.4748,401.112 64,401.5C 65.1667,402.667 66.3333,403.833 67.5,405C 72.675,406.506 77.5084,408.673 82,411.5C 82.4479,409.591 81.6145,408.424 79.5,408C 83.0894,407.793 86.5894,407.293 90,406.5C 91.8159,408.441 93.8159,409.108 96,408.5C 96.8333,407.667 97.6667,406.833 98.5,406C 95.8333,405.333 95.8333,404.667 98.5,404C 97.1011,403.405 95.7678,403.572 94.5,404.5C 93.8076,403.975 93.3076,403.308 93,402.5C 91.8173,403.731 90.6507,403.731 89.5,402.5C 90.5,401.833 91.5,401.167 92.5,400.5C 89.5758,400.374 86.9092,399.041 84.5,396.5C 85.5821,396.251 86.9154,396.085 88.5,396C 86.2827,394.725 83.9494,393.725 81.5,393C 80.8742,392.25 80.3742,391.416 80,390.5C 79.6667,390.833 79.3333,391.167 79,391.5C 77.3499,390.109 76.8499,388.609 77.5,387C 76.2161,386.316 75.0495,386.483 74,387.5C 72.887,386.24 72.7203,385.073 73.5,384C 71.6061,382.899 70.9394,381.566 71.5,380C 70,378.5 68.5,377 67,375.5C 66.6667,375.833 66.3333,376.167 66,376.5C 64.4379,374.043 63.4379,371.376 63,368.5C 62.0862,369.654 61.2529,369.487 60.5,368C 59.2351,366.019 59.2351,364.019 60.5,362C 58.6972,360.738 57.3639,359.071 56.5,357C 57.1667,356.667 57.8333,356.333 58.5,356C 56.2881,354.299 55.6214,352.299 56.5,350C 52.8525,340.687 52.8525,331.353 56.5,322C 55.9415,321.275 55.6082,320.442 55.5,319.5C 59.8309,301.539 71.1643,286.873 89.5,275.5C 119.874,262.511 146.207,267.511 168.5,290.5C 178.197,303.104 183.863,317.937 185.5,335C 185.065,339.189 184.065,343.189 182.5,347C 183.458,348.147 183.125,349.147 181.5,350C 183.589,351.572 183.589,353.405 181.5,355.5C 182.902,356.842 182.569,357.676 180.5,358C 180.5,359 180.5,360 180.5,361C 178.699,361.317 178.366,361.984 179.5,363C 178.167,364.333 176.833,365.667 175.5,367C 176.308,367.308 176.975,367.808 177.5,368.5C 177.154,369.696 176.654,369.696 176,368.5C 174.484,375.354 170.651,380.521 164.5,384C 166.686,384.604 166.852,385.77 165,387.5C 163.951,386.483 162.784,386.316 161.5,387C 161.833,387.333 162.167,387.667 162.5,388C 159.785,388.875 158.452,390.708 158.5,393.5C 155.575,393.46 152.909,394.293 150.5,396C 151.833,396.333 153.167,396.667 154.5,397C 153.034,397.635 151.7,398.469 150.5,399.5C 149.808,398.975 149.308,398.308 149,397.5C 145.599,399.605 145.766,401.272 149.5,402.5C 149.333,402.833 149.167,403.167 149,403.5C 148,403.167 147,402.833 146,402.5C 144.064,403.153 142.231,404.319 140.5,406C 141.333,406.833 142.167,407.667 143,408.5C 144.113,407.289 145.28,407.289 146.5,408.5C 147.478,408.023 148.311,407.357 149,406.5C 154.416,407.639 159.916,407.806 165.5,407C 169.998,404.504 174.498,402.004 179,399.5C 181.557,400.646 182.89,399.646 183,396.5C 207.687,396.362 232.52,396.528 257.5,397C 260.833,399.667 263.833,402.667 266.5,406C 268.754,407.15 271.087,407.484 273.5,407C 274.823,406.184 275.489,405.017 275.5,403.5 Z"/></g>
<g><path style="opacity:1" fill="#fb9201" d="M 117.5,273.5 C 132.941,273.9 147.108,279.566 160,290.5C 163.635,295.785 167.302,301.118 171,306.5C 172.427,310.389 173.927,314.222 175.5,318C 176.011,323.278 176.011,328.611 175.5,334C 177.589,335.572 177.589,337.405 175.5,339.5C 175.709,340.086 176.043,340.586 176.5,341C 175.128,343.533 174.128,346.2 173.5,349C 173.833,349.333 174.167,349.667 174.5,350C 171.417,353.36 170.083,356.693 170.5,360C 169.672,360.915 168.672,361.581 167.5,362C 167.957,362.414 168.291,362.914 168.5,363.5C 166.736,366.822 164.07,369.989 160.5,373C 160.833,373.333 161.167,373.667 161.5,374C 158.203,373.816 156.203,375.316 155.5,378.5C 154.325,377.145 153.325,377.312 152.5,379C 152.833,379.333 153.167,379.667 153.5,380C 149.126,382.128 144.96,384.628 141,387.5C 140.667,387.167 140.333,386.833 140,386.5C 138.09,387.206 136.09,388.206 134,389.5C 132.221,388.521 130.555,388.854 129,390.5C 128.275,389.941 127.442,389.608 126.5,389.5C 121.833,392.167 117.167,392.167 112.5,389.5C 110.208,391.024 108.208,390.691 106.5,388.5C 105.914,388.709 105.414,389.043 105,389.5C 102.91,388.206 100.91,387.206 99,386.5C 98.6667,386.833 98.3333,387.167 98,387.5C 96.54,385.578 94.8733,384.911 93,385.5C 90.0968,383.053 87.4302,380.386 85,377.5C 84.586,377.957 84.086,378.291 83.5,378.5C 82.7967,375.316 80.7967,373.816 77.5,374C 77.8333,373.667 78.1667,373.333 78.5,373C 76.8333,371.333 75.1667,369.667 73.5,368C 73.8333,367.667 74.1667,367.333 74.5,367C 73.3147,365.647 71.9814,364.48 70.5,363.5C 71.8135,361.482 71.1468,360.315 68.5,360C 68.8333,359.667 69.1667,359.333 69.5,359C 68.2447,356.249 66.578,353.249 64.5,350C 64.2549,348.089 64.2549,346.089 64.5,344C 62.8542,342.445 62.5209,340.779 63.5,339C 62.8333,338 62.1667,337 61.5,336C 61.3938,330.53 62.3938,325.03 64.5,319.5C 64.2907,318.914 63.9574,318.414 63.5,318C 65.0728,314.222 66.5728,310.389 68,306.5C 68.8333,305 70,303.833 71.5,303C 71.1667,302.667 70.8333,302.333 70.5,302C 78.1714,290.182 88.6714,281.682 102,276.5C 103.147,277.458 104.147,277.125 105,275.5C 106.68,276.603 108.18,276.27 109.5,274.5C 110.167,274.833 110.833,275.167 111.5,275.5C 113.657,274.95 115.657,274.283 117.5,273.5 Z"/></g>
<g><path style="opacity:1" fill="#fe6574" d="M 418.5,298.5 C 417.551,299.152 416.385,299.486 415,299.5C 410.064,298.813 405.231,297.813 400.5,296.5C 384.303,285.867 366.636,282.034 347.5,285C 343.44,286.689 339.773,288.856 336.5,291.5C 335.542,291.953 334.708,292.619 334,293.5C 333.536,292.906 333.369,292.239 333.5,291.5C 343.254,275.295 357.587,268.795 376.5,272C 393.975,275.558 407.975,284.391 418.5,298.5 Z"/></g>
<g><path style="opacity:1" fill="#fc8c01" d="M 110.5,279.5 C 116.334,279.528 122.167,279.528 128,279.5C 132.145,280.908 136.145,282.575 140,284.5C 140.333,284.167 140.667,283.833 141,283.5C 166.859,298.737 175.692,320.903 167.5,350C 154.982,374.422 135.315,384.755 108.5,381C 79.5595,371.504 66.3928,352.004 69,322.5C 70.2147,315.357 72.7147,308.69 76.5,302.5C 83.1822,294.234 90.3489,287.9 98,283.5C 98.3333,283.833 98.6667,284.167 99,284.5C 102.819,282.671 106.652,281.004 110.5,279.5 Z"/></g>
<g><path style="opacity:1" fill="#fc8601" d="M 114.5,284.5 C 136.254,283.868 151.921,293.201 161.5,312.5C 160.282,313.803 160.615,314.803 162.5,315.5C 162.291,316.086 161.957,316.586 161.5,317C 163.676,321 165.009,325.333 165.5,330C 165.097,331.473 164.43,332.806 163.5,334C 164.293,336.397 164.126,339.23 163,342.5C 162.682,344.061 161.849,345.228 160.5,346C 161.634,347.016 161.301,347.683 159.5,348C 160.634,349.016 160.301,349.683 158.5,350C 158.833,350.333 159.167,350.667 159.5,351C 154.39,359.099 147.39,365.765 138.5,371C 136.238,371.642 134.071,372.475 132,373.5C 131.667,373.167 131.333,372.833 131,372.5C 130,376.167 128.333,376.5 126,373.5C 121.667,377.5 117.333,377.5 113,373.5C 112,374.167 111,374.833 110,375.5C 105.725,372.959 101.225,370.792 96.5,369C 84.0395,359.88 76.7062,348.547 74.5,335C 73.2633,315.065 81.5966,299.732 99.5,289C 104.223,287.391 109.223,285.891 114.5,284.5 Z"/></g>
<g><path style="opacity:1" fill="#fe3b4f" d="M 400.5,296.5 C 404.962,299.719 408.962,303.386 412.5,307.5C 414.594,310.69 416.928,313.69 419.5,316.5C 422.8,314.017 426.467,312.35 430.5,311.5C 439.796,313.932 448.796,316.932 457.5,320.5C 457.005,322.452 456.672,324.452 456.5,326.5C 456.649,328.32 457.316,329.82 458.5,331C 468.613,334.204 478.613,337.704 488.5,341.5C 489.741,338.463 489.741,335.463 488.5,332.5C 488.369,331.761 488.536,331.094 489,330.5C 493.314,332.895 497.814,333.895 502.5,333.5C 503.452,335.045 503.785,336.712 503.5,338.5C 503.39,343.622 502.056,348.288 499.5,352.5C 499.5,351.5 499.5,350.5 499.5,349.5C 496.06,348.909 492.727,347.909 489.5,346.5C 486.732,350.602 483.065,353.602 478.5,355.5C 472.614,353.038 466.614,350.871 460.5,349C 458.663,343.449 457.663,337.615 457.5,331.5C 441.5,326.5 425.5,321.5 409.5,316.5C 409.784,318.415 409.451,320.081 408.5,321.5C 409.511,315.709 407.844,310.876 403.5,307C 397.426,303.205 394.76,305.038 395.5,312.5C 394.691,311.531 393.691,310.698 392.5,310C 373.835,303.723 355.168,297.556 336.5,291.5C 339.773,288.856 343.44,286.689 347.5,285C 366.636,282.034 384.303,285.867 400.5,296.5 Z"/></g>
<g><path style="opacity:1" fill="#fd8000" d="M 112.5,289.5 C 116.201,290.35 119.868,290.35 123.5,289.5C 125.055,289.722 126.389,290.389 127.5,291.5C 129.156,289.978 130.323,290.311 131,292.5C 132.503,292.165 133.836,292.165 135,292.5C 135.317,294.301 135.984,294.634 137,293.5C 141.582,296.823 146.582,301.156 152,306.5C 165.494,335.126 157.328,355.793 127.5,368.5C 111.218,370.22 97.7182,364.553 87,351.5C 78.5581,337.128 78.5581,322.128 87,306.5C 92.4182,301.156 97.4182,296.823 102,293.5C 103.016,294.634 103.683,294.301 104,292.5C 105.164,292.165 106.497,292.165 108,292.5C 108.605,290.519 109.605,290.185 111,291.5C 111.717,290.956 112.217,290.289 112.5,289.5 Z"/></g>
<g><path style="opacity:1" fill="#fd7900" d="M 111.5,296.5 C 116.667,296.533 121.834,296.533 127,296.5C 131.271,299.051 135.771,301.218 140.5,303C 156.801,319.782 156.468,336.782 139.5,354C 121.537,365.741 105.704,363.241 92,346.5C 86.2569,336.081 85.5902,325.414 90,314.5C 90.5,312.667 91.6667,311.5 93.5,311C 93.1667,310.667 92.8333,310.333 92.5,310C 94.6611,306.502 97.8278,303.335 102,300.5C 102.333,300.833 102.667,301.167 103,301.5C 106.232,299.605 109.065,297.939 111.5,296.5 Z"/></g>
<g><path style="opacity:1" fill="#fe6372" d="M 495.5,310.5 C 494.903,311.139 494.07,311.472 493,311.5C 473.524,307.538 454.024,303.705 434.5,300C 433.944,299.617 433.611,299.117 433.5,298.5C 444.778,294.256 456.445,293.423 468.5,296C 479.568,297.197 488.568,302.031 495.5,310.5 Z"/></g>
<g><path style="opacity:1" fill="#fe7300" d="M 115.5,301.5 C 117.844,302.672 120.177,302.672 122.5,301.5C 130.187,304.067 136.854,308.734 142.5,315.5C 147.668,328.997 145.335,340.164 135.5,349C 120.198,357.473 107.198,354.806 96.5,341C 96.8333,340.667 97.1667,340.333 97.5,340C 96.5622,338.937 95.5622,337.77 94.5,336.5C 95.4779,335.199 95.1445,334.032 93.5,333C 94.7897,329.819 94.7897,326.652 93.5,323.5C 93.8845,320.436 95.0512,317.436 97,314.5C 100.852,310.591 104.852,306.924 109,303.5C 110.692,303.4 112.358,303.4 114,303.5C 115.03,303.164 115.53,302.497 115.5,301.5 Z"/></g>
<g><path style="opacity:1" fill="#fe5465" d="M 400.5,296.5 C 405.231,297.813 410.064,298.813 415,299.5C 416.385,299.486 417.551,299.152 418.5,298.5C 419.787,300.291 421.287,301.957 423,303.5C 426.309,301.429 429.809,299.762 433.5,298.5C 433.611,299.117 433.944,299.617 434.5,300C 454.024,303.705 473.524,307.538 493,311.5C 494.07,311.472 494.903,311.139 495.5,310.5C 496.728,311.306 497.728,312.306 498.5,313.5C 499.6,314.605 500.267,315.938 500.5,317.5C 500.5,318.5 500.5,319.5 500.5,320.5C 496.453,319.982 492.453,319.148 488.5,318C 469.98,307.114 450.313,304.614 429.5,310.5C 423.845,309.369 418.178,308.369 412.5,307.5C 408.962,303.386 404.962,299.719 400.5,296.5 Z"/></g>
<g><path style="opacity:1" fill="#ed8c06" d="M 328.5,304.5 C 327.628,310.789 327.295,317.122 327.5,323.5C 328.651,331.943 330.985,339.943 334.5,347.5C 345.471,379.615 363.138,407.448 387.5,431C 416.956,424.439 442.956,411.273 465.5,391.5C 467.332,390.752 468.999,389.752 470.5,388.5C 467.834,395.176 464.167,401.176 459.5,406.5C 436.324,425.508 410.157,439.175 381,447.5C 376.506,443.196 372.006,438.863 367.5,434.5C 357.297,422.303 348.297,409.303 340.5,395.5C 334.902,384.68 329.902,373.68 325.5,362.5C 321.941,352.652 319.941,342.485 319.5,332C 319.43,321.711 322.43,312.545 328.5,304.5 Z"/></g>
<g><path style="opacity:1" fill="#fe4558" d="M 412.5,307.5 C 418.178,308.369 423.845,309.369 429.5,310.5C 450.313,304.614 469.98,307.114 488.5,318C 492.453,319.148 496.453,319.982 500.5,320.5C 500.5,319.5 500.5,318.5 500.5,317.5C 503.979,324.21 504.979,331.21 503.5,338.5C 503.785,336.712 503.452,335.045 502.5,333.5C 497.814,333.895 493.314,332.895 489,330.5C 488.536,331.094 488.369,331.761 488.5,332.5C 481.031,321.012 470.698,317.012 457.5,320.5C 448.796,316.932 439.796,313.932 430.5,311.5C 426.467,312.35 422.8,314.017 419.5,316.5C 416.928,313.69 414.594,310.69 412.5,307.5 Z"/></g>
<g><path style="opacity:1" fill="#fe6c00" d="M 115.5,308.5 C 135.222,309.719 142.055,319.719 136,338.5C 127.562,348.536 117.729,350.036 106.5,343C 100.587,336.124 99.087,328.291 102,319.5C 105.244,314.07 109.744,310.403 115.5,308.5 Z"/></g>
<g><path style="opacity:1" fill="#f2283e" d="M 329.5,302.5 C 329.227,304.451 329.893,305.951 331.5,307C 373.539,321.12 415.372,335.286 457,349.5C 459.645,354.649 463.812,357.649 469.5,358.5C 471.833,357.833 474.167,357.167 476.5,356.5C 482.084,357.861 487.584,359.528 493,361.5C 493.902,361.257 494.735,360.923 495.5,360.5C 492.675,366.998 488.342,372.331 482.5,376.5C 430.759,359.031 379.092,341.364 327.5,323.5C 327.295,317.122 327.628,310.789 328.5,304.5C 328.328,303.508 328.662,302.842 329.5,302.5 Z"/></g>
<g><path style="opacity:1" fill="#ff4d55" d="M 408.5,321.5 C 407.962,323.117 407.629,324.784 407.5,326.5C 404.06,325.909 400.727,324.909 397.5,323.5C 396.461,319.895 395.795,316.228 395.5,312.5C 394.76,305.038 397.426,303.205 403.5,307C 407.844,310.876 409.511,315.709 408.5,321.5 Z"/></g>
<g><path style="opacity:1" fill="#ff595b" d="M 488.5,332.5 C 489.741,335.463 489.741,338.463 488.5,341.5C 478.613,337.704 468.613,334.204 458.5,331C 457.316,329.82 456.649,328.32 456.5,326.5C 456.672,324.452 457.005,322.452 457.5,320.5C 470.698,317.012 481.031,321.012 488.5,332.5 Z"/></g>
<g><path style="opacity:1" fill="#fd2e44" d="M 333.5,291.5 C 333.369,292.239 333.536,292.906 334,293.5C 334.708,292.619 335.542,291.953 336.5,291.5C 355.168,297.556 373.835,303.723 392.5,310C 393.691,310.698 394.691,311.531 395.5,312.5C 395.795,316.228 396.461,319.895 397.5,323.5C 400.727,324.909 404.06,325.909 407.5,326.5C 407.629,324.784 407.962,323.117 408.5,321.5C 409.451,320.081 409.784,318.415 409.5,316.5C 425.5,321.5 441.5,326.5 457.5,331.5C 457.663,337.615 458.663,343.449 460.5,349C 466.614,350.871 472.614,353.038 478.5,355.5C 483.065,353.602 486.732,350.602 489.5,346.5C 492.727,347.909 496.06,348.909 499.5,349.5C 499.5,350.5 499.5,351.5 499.5,352.5C 499.206,355.754 497.873,358.421 495.5,360.5C 494.735,360.923 493.902,361.257 493,361.5C 487.584,359.528 482.084,357.861 476.5,356.5C 474.167,357.167 471.833,357.833 469.5,358.5C 463.812,357.649 459.645,354.649 457,349.5C 415.372,335.286 373.539,321.12 331.5,307C 329.893,305.951 329.227,304.451 329.5,302.5C 329.963,299.779 330.629,297.112 331.5,294.5C 331.932,293.29 332.599,292.29 333.5,291.5 Z"/></g>
<g><path style="opacity:1" fill="#e62439" d="M 327.5,323.5 C 379.092,341.364 430.759,359.031 482.5,376.5C 478.833,380.833 474.833,384.833 470.5,388.5C 468.999,389.752 467.332,390.752 465.5,391.5C 422.727,375.851 379.56,360.851 336,346.5C 335.235,346.57 334.735,346.903 334.5,347.5C 330.985,339.943 328.651,331.943 327.5,323.5 Z"/></g>
<g><path style="opacity:1" fill="#fbb200" d="M 266.5,333.5 C 277.333,332.346 284,337.013 286.5,347.5C 286.25,351.424 284.75,354.758 282,357.5C 274.687,351.688 267.52,345.688 260.5,339.5C 262.103,337.046 264.103,335.046 266.5,333.5 Z"/></g>
<g><path style="opacity:1" fill="#d16602" d="M 251.5,327.5 C 268.833,326.608 285.5,329.442 301.5,336C 310.925,341.31 313.592,348.81 309.5,358.5C 304.5,358.5 299.5,358.5 294.5,358.5C 297.283,350.22 295.283,343.386 288.5,338C 283.438,335.089 278.105,332.755 272.5,331C 265.307,330.142 258.307,328.976 251.5,327.5 Z"/></g>
<g><path style="opacity:1" fill="#f99e00" d="M 308.5,361.5 C 313.975,362.489 319.642,362.822 325.5,362.5C 329.902,373.68 334.902,384.68 340.5,395.5C 328.345,396.495 316.011,396.829 303.5,396.5C 303.104,393.279 301.771,390.612 299.5,388.5C 296.446,384.461 292.446,381.627 287.5,380C 281.974,378.046 276.307,376.713 270.5,376C 281.959,374.382 292.959,371.049 303.5,366C 305.037,364.293 306.704,362.793 308.5,361.5 Z"/></g>
<g><path style="opacity:1" fill="#a15a03" d="M 294.5,358.5 C 299.5,358.5 304.5,358.5 309.5,358.5C 309.443,359.609 309.11,360.609 308.5,361.5C 306.704,362.793 305.037,364.293 303.5,366C 292.959,371.049 281.959,374.382 270.5,376C 276.307,376.713 281.974,378.046 287.5,380C 292.446,381.627 296.446,384.461 299.5,388.5C 294.5,388.5 289.5,388.5 284.5,388.5C 276.008,380.941 266.008,376.774 254.5,376C 262.843,374.395 271.177,372.395 279.5,370C 283.927,368.465 287.594,365.965 290.5,362.5C 292.194,361.473 293.527,360.139 294.5,358.5 Z"/></g>
<g><path style="opacity:1" fill="#d82033" d="M 465.5,391.5 C 442.956,411.273 416.956,424.439 387.5,431C 363.138,407.448 345.471,379.615 334.5,347.5C 334.735,346.903 335.235,346.57 336,346.5C 379.56,360.851 422.727,375.851 465.5,391.5 Z"/></g>
<g><path style="opacity:1" fill="#fbb200" d="M 278.5,396.5 C 278.065,399.157 277.065,401.491 275.5,403.5C 268.346,397.513 261.346,391.346 254.5,385C 255.551,383.615 256.884,382.615 258.5,382C 269.802,380.472 276.469,385.305 278.5,396.5 Z"/></g>
<g><path style="opacity:1" fill="#c66202" d="M 284.5,388.5 C 289.5,388.5 294.5,388.5 299.5,388.5C 301.771,390.612 303.104,393.279 303.5,396.5C 303.795,398.735 303.461,400.735 302.5,402.5C 297.695,401.513 292.695,401.179 287.5,401.5C 287.802,398.941 287.468,396.607 286.5,394.5C 286.296,392.315 285.63,390.315 284.5,388.5 Z"/></g>
<g><path style="opacity:1" fill="#dc6901" d="M 287.5,401.5 C 292.695,401.179 297.695,401.513 302.5,402.5C 301.634,406.886 299.301,410.386 295.5,413C 282.092,420.348 267.759,423.348 252.5,422C 258.877,420.489 265.21,418.823 271.5,417C 279.348,414.318 284.681,409.151 287.5,401.5 Z"/></g>
<g><path style="opacity:0.997" fill="#f99200" d="M 459.5,406.5 C 442.69,432.977 420.69,453.977 393.5,469.5C 301.665,469.167 209.998,469.501 118.5,470.5C 102.08,461.085 87.4138,449.419 74.5,435.5C 172.03,435.83 269.696,435.496 367.5,434.5C 372.006,438.863 376.506,443.196 381,447.5C 410.157,439.175 436.324,425.508 459.5,406.5 Z"/></g>
<g><path style="opacity:0.989" fill="#f98d00" d="M 393.5,469.5 C 372.334,482.843 349.334,492.009 324.5,497C 278.5,505.667 232.5,505.667 186.5,497C 162.305,491.722 139.638,482.889 118.5,470.5C 209.998,469.501 301.665,469.167 393.5,469.5 Z"/></g>
</svg>
