<?xml version="1.0" encoding="UTF-8"?>
<!DOCTYPE svg PUBLIC "-//W3C//DTD SVG 1.1//EN" "http://www.w3.org/Graphics/SVG/1.1/DTD/svg11.dtd">
<svg xmlns="http://www.w3.org/2000/svg" version="1.1" width="512px" height="512px" style="shape-rendering:geometricPrecision; text-rendering:geometricPrecision; image-rendering:optimizeQuality; fill-rule:evenodd; clip-rule:evenodd" xmlns:xlink="http://www.w3.org/1999/xlink">
<g><path style="opacity:0.99" fill="#ffdd00" d="M 401.5,46.5 C 304.167,46.5 206.833,46.5 109.5,46.5C 135.908,28.9807 164.908,17.4807 196.5,12C 235.833,6 275.167,6 314.5,12C 346.218,17.1724 375.218,28.6724 401.5,46.5 Z"/></g>
<g><path style="opacity:0.996" fill="#fed700" d="M 109.5,46.5 C 206.833,46.5 304.167,46.5 401.5,46.5C 416.308,55.9643 429.641,67.2976 441.5,80.5C 317.666,80.8329 193.999,80.4995 70.5,79.5C 82.0277,66.6291 95.0277,55.6291 109.5,46.5 Z"/></g>
<g><path style="opacity:0.998" fill="#fed100" d="M 70.5,79.5 C 193.999,80.4995 317.666,80.8329 441.5,80.5C 450.721,90.6059 458.721,101.606 465.5,113.5C 325.5,114.833 185.5,114.833 45.5,113.5C 52.3709,101.092 60.7042,89.7582 70.5,79.5 Z"/></g>
<g><path style="opacity:0.998" fill="#fdcb00" d="M 45.5,113.5 C 185.5,114.833 325.5,114.833 465.5,113.5C 473.677,126.324 480.343,139.991 485.5,154.5C 444.906,153.506 404.239,153.173 363.5,153.5C 360.177,143.174 353.177,137.174 342.5,135.5C 332.971,138.027 326.638,144.027 323.5,153.5C 278.167,153.5 232.833,153.5 187.5,153.5C 184.177,143.174 177.177,137.174 166.5,135.5C 156.971,138.027 150.638,144.027 147.5,153.5C 106.833,153.5 66.1667,153.5 25.5,153.5C 30.8504,139.409 37.5171,126.076 45.5,113.5 Z"/></g>
<g><path style="opacity:1" fill="#eaa305" d="M 187.5,153.5 C 190.238,159.855 191.571,166.522 191.5,173.5C 189.809,162.623 184.809,153.456 176.5,146C 166.498,141.115 158.332,143.282 152,152.5C 148.267,158.888 145.434,165.555 143.5,172.5C 144.01,165.977 145.343,159.644 147.5,153.5C 150.638,144.027 156.971,138.027 166.5,135.5C 177.177,137.174 184.177,143.174 187.5,153.5 Z"/></g>
<g><path style="opacity:1" fill="#e9a305" d="M 363.5,153.5 C 366.238,159.855 367.571,166.522 367.5,173.5C 365.804,162.612 360.804,153.446 352.5,146C 342.498,141.115 334.332,143.282 328,152.5C 324.267,158.888 321.434,165.555 319.5,172.5C 320.01,165.977 321.343,159.644 323.5,153.5C 326.638,144.027 332.971,138.027 342.5,135.5C 353.177,137.174 360.177,143.174 363.5,153.5 Z"/></g>
<g><path style="opacity:1" fill="#040301" d="M 191.5,173.5 C 191.5,178.167 191.5,182.833 191.5,187.5C 191.5,187.833 191.5,188.167 191.5,188.5C 184.66,168.328 171.66,162.995 152.5,172.5C 148.431,177.313 145.431,182.646 143.5,188.5C 143.5,188.167 143.5,187.833 143.5,187.5C 143.5,182.5 143.5,177.5 143.5,172.5C 145.434,165.555 148.267,158.888 152,152.5C 158.332,143.282 166.498,141.115 176.5,146C 184.809,153.456 189.809,162.623 191.5,173.5 Z"/></g>
<g><path style="opacity:1" fill="#040301" d="M 367.5,173.5 C 367.5,178.167 367.5,182.833 367.5,187.5C 367.5,187.833 367.5,188.167 367.5,188.5C 366.833,188.5 366.5,188.167 366.5,187.5C 362.064,170.777 351.398,164.61 334.5,169C 326.682,172.666 322.016,178.833 320.5,187.5C 320.5,188.167 320.167,188.5 319.5,188.5C 319.5,188.167 319.5,187.833 319.5,187.5C 319.5,182.5 319.5,177.5 319.5,172.5C 321.434,165.555 324.267,158.888 328,152.5C 334.332,143.282 342.498,141.115 352.5,146C 360.804,153.446 365.804,162.612 367.5,173.5 Z"/></g>
<g><path style="opacity:0.997" fill="#fdc400" d="M 25.5,153.5 C 66.1667,153.5 106.833,153.5 147.5,153.5C 145.343,159.644 144.01,165.977 143.5,172.5C 143.5,177.5 143.5,182.5 143.5,187.5C 100.833,187.5 58.1667,187.5 15.5,187.5C 17.8224,175.866 21.1558,164.533 25.5,153.5 Z"/></g>
<g><path style="opacity:1" fill="#fcc400" d="M 187.5,153.5 C 232.833,153.5 278.167,153.5 323.5,153.5C 321.343,159.644 320.01,165.977 319.5,172.5C 319.5,177.5 319.5,182.5 319.5,187.5C 276.833,187.5 234.167,187.5 191.5,187.5C 191.5,182.833 191.5,178.167 191.5,173.5C 191.571,166.522 190.238,159.855 187.5,153.5 Z"/></g>
<g><path style="opacity:0.997" fill="#fdc400" d="M 363.5,153.5 C 404.239,153.173 444.906,153.506 485.5,154.5C 490.04,165.12 493.373,176.12 495.5,187.5C 452.833,187.5 410.167,187.5 367.5,187.5C 367.5,182.833 367.5,178.167 367.5,173.5C 367.571,166.522 366.238,159.855 363.5,153.5 Z"/></g>
<g><path style="opacity:1" fill="#252c2c" d="M 366.5,187.5 C 351.167,187.5 335.833,187.5 320.5,187.5C 322.016,178.833 326.682,172.666 334.5,169C 351.398,164.61 362.064,170.777 366.5,187.5 Z"/></g>
<g><path style="opacity:1" fill="#232929" d="M 191.5,188.5 C 191.167,189.167 190.833,189.833 190.5,190.5C 175.167,190.5 159.833,190.5 144.5,190.5C 144.167,189.833 143.833,189.167 143.5,188.5C 145.431,182.646 148.431,177.313 152.5,172.5C 171.66,162.995 184.66,168.328 191.5,188.5 Z"/></g>
<g><path style="opacity:0.997" fill="#fcbe00" d="M 15.5,187.5 C 58.1667,187.5 100.833,187.5 143.5,187.5C 143.5,187.833 143.5,188.167 143.5,188.5C 143.833,189.167 144.167,189.833 144.5,190.5C 144.5,191.833 144.5,193.167 144.5,194.5C 143.811,204.07 146.144,213.07 151.5,221.5C 103.761,221.172 56.0947,221.505 8.5,222.5C 9.70228,210.488 12.0356,198.822 15.5,187.5 Z"/></g>
<g><path style="opacity:1" fill="#fcbe00" d="M 191.5,187.5 C 234.167,187.5 276.833,187.5 319.5,187.5C 319.5,187.833 319.5,188.167 319.5,188.5C 320.341,190.379 320.675,192.379 320.5,194.5C 319.811,204.07 322.144,213.07 327.5,221.5C 279.5,221.5 231.5,221.5 183.5,221.5C 188.64,213.609 190.973,204.942 190.5,195.5C 190.5,193.833 190.5,192.167 190.5,190.5C 190.833,189.833 191.167,189.167 191.5,188.5C 191.5,188.167 191.5,187.833 191.5,187.5 Z"/></g>
<g><path style="opacity:0.997" fill="#fcbe00" d="M 367.5,187.5 C 410.167,187.5 452.833,187.5 495.5,187.5C 498.679,198.546 501.012,209.88 502.5,221.5C 454.833,221.5 407.167,221.5 359.5,221.5C 364.64,213.609 366.973,204.942 366.5,195.5C 366.298,193.05 366.631,190.717 367.5,188.5C 367.5,188.167 367.5,187.833 367.5,187.5 Z"/></g>
<g><path style="opacity:1" fill="#303939" d="M 320.5,187.5 C 335.833,187.5 351.167,187.5 366.5,187.5C 366.5,188.167 366.833,188.5 367.5,188.5C 366.631,190.717 366.298,193.05 366.5,195.5C 365.596,196.209 365.263,197.209 365.5,198.5C 350.833,198.5 336.167,198.5 321.5,198.5C 321.567,197.041 321.234,195.708 320.5,194.5C 320.675,192.379 320.341,190.379 319.5,188.5C 320.167,188.5 320.5,188.167 320.5,187.5 Z"/></g>
<g><path style="opacity:1" fill="#323b3b" d="M 144.5,190.5 C 159.833,190.5 175.167,190.5 190.5,190.5C 190.5,192.167 190.5,193.833 190.5,195.5C 189.511,198.726 188.511,202.06 187.5,205.5C 174.167,205.5 160.833,205.5 147.5,205.5C 146.371,201.848 145.371,198.182 144.5,194.5C 144.5,193.167 144.5,191.833 144.5,190.5 Z"/></g>
<g><path style="opacity:1" fill="#f8ca04" d="M 144.5,194.5 C 145.371,198.182 146.371,201.848 147.5,205.5C 150.676,215.179 157.176,221.179 167,223.5C 177.385,221.619 184.218,215.619 187.5,205.5C 188.511,202.06 189.511,198.726 190.5,195.5C 190.973,204.942 188.64,213.609 183.5,221.5C 172.779,234.677 162.112,234.677 151.5,221.5C 146.144,213.07 143.811,204.07 144.5,194.5 Z"/></g>
<g><path style="opacity:1" fill="#f8ca04" d="M 320.5,194.5 C 321.234,195.708 321.567,197.041 321.5,198.5C 323.293,206.921 327.293,214.088 333.5,220C 342.862,225.443 351.029,223.943 358,215.5C 361.594,210.312 364.094,204.646 365.5,198.5C 365.263,197.209 365.596,196.209 366.5,195.5C 366.973,204.942 364.64,213.609 359.5,221.5C 348.779,234.677 338.112,234.677 327.5,221.5C 322.144,213.07 319.811,204.07 320.5,194.5 Z"/></g>
<g><path style="opacity:1" fill="#3c4746" d="M 321.5,198.5 C 336.167,198.5 350.833,198.5 365.5,198.5C 364.094,204.646 361.594,210.312 358,215.5C 351.029,223.943 342.862,225.443 333.5,220C 327.293,214.088 323.293,206.921 321.5,198.5 Z"/></g>
<g><path style="opacity:1" fill="#3e4847" d="M 147.5,205.5 C 160.833,205.5 174.167,205.5 187.5,205.5C 184.218,215.619 177.385,221.619 167,223.5C 157.176,221.179 150.676,215.179 147.5,205.5 Z"/></g>
<g><path style="opacity:0.999" fill="#fcb800" d="M 151.5,221.5 C 162.112,234.677 172.779,234.677 183.5,221.5C 231.5,221.5 279.5,221.5 327.5,221.5C 338.112,234.677 348.779,234.677 359.5,221.5C 407.167,221.5 454.833,221.5 502.5,221.5C 503.356,232.81 503.69,244.143 503.5,255.5C 338.167,255.5 172.833,255.5 7.5,255.5C 7.28672,244.473 7.62006,233.473 8.5,222.5C 56.0947,221.505 103.761,221.172 151.5,221.5 Z"/></g>
<g><path style="opacity:0.999" fill="#fbb200" d="M 7.5,255.5 C 172.833,255.5 338.167,255.5 503.5,255.5C 503.902,268.576 503.236,281.576 501.5,294.5C 426.833,294.5 352.167,294.5 277.5,294.5C 262.473,285.329 247.473,285.329 232.5,294.5C 158.167,294.5 83.8333,294.5 9.5,294.5C 7.76429,281.576 7.09762,268.576 7.5,255.5 Z"/></g>
<g><path style="opacity:1" fill="#de8306" d="M 277.5,294.5 C 288.627,303.4 296.294,314.733 300.5,328.5C 302.152,336.068 303.152,343.735 303.5,351.5C 302.566,350.432 302.232,349.099 302.5,347.5C 301.938,341.086 300.271,335.086 297.5,329.5C 295.509,323.511 292.509,318.177 288.5,313.5C 273.557,295.145 255.557,291.312 234.5,302C 229.998,305.336 225.998,309.169 222.5,313.5C 218.491,318.177 215.491,323.511 213.5,329.5C 210.729,335.086 209.062,341.086 208.5,347.5C 208.768,349.099 208.434,350.432 207.5,351.5C 207.848,343.735 208.848,336.068 210.5,328.5C 214.821,315.185 222.154,303.852 232.5,294.5C 247.473,285.329 262.473,285.329 277.5,294.5 Z"/></g>
<g><path style="opacity:0.998" fill="#fbab00" d="M 9.5,294.5 C 83.8333,294.5 158.167,294.5 232.5,294.5C 222.154,303.852 214.821,315.185 210.5,328.5C 145.619,327.842 80.9521,328.509 16.5,330.5C 13.3976,318.654 11.0642,306.654 9.5,294.5 Z"/></g>
<g><path style="opacity:0.998" fill="#fbab00" d="M 277.5,294.5 C 352.167,294.5 426.833,294.5 501.5,294.5C 500.186,306.072 497.852,317.406 494.5,328.5C 429.833,328.5 365.167,328.5 300.5,328.5C 296.294,314.733 288.627,303.4 277.5,294.5 Z"/></g>
<g><path style="opacity:1" fill="#460b11" d="M 288.5,313.5 C 266.5,314.833 244.5,314.833 222.5,313.5C 225.998,309.169 229.998,305.336 234.5,302C 255.557,291.312 273.557,295.145 288.5,313.5 Z"/></g>
<g><path style="opacity:1" fill="#520c14" d="M 222.5,313.5 C 244.5,314.833 266.5,314.833 288.5,313.5C 292.509,318.177 295.509,323.511 297.5,329.5C 283.85,330.833 269.85,331.499 255.5,331.5C 241.15,331.499 227.15,330.833 213.5,329.5C 215.491,323.511 218.491,318.177 222.5,313.5 Z"/></g>
<g><path style="opacity:0.998" fill="#faa500" d="M 210.5,328.5 C 208.848,336.068 207.848,343.735 207.5,351.5C 207.5,355.167 207.5,358.833 207.5,362.5C 147.664,362.168 87.9977,362.501 28.5,363.5C 23.7305,352.865 19.7305,341.865 16.5,330.5C 80.9521,328.509 145.619,327.842 210.5,328.5 Z"/></g>
<g><path style="opacity:0.998" fill="#faa500" d="M 300.5,328.5 C 365.167,328.5 429.833,328.5 494.5,328.5C 491.804,339.921 488.138,350.921 483.5,361.5C 423.571,362.496 363.571,362.829 303.5,362.5C 303.5,358.833 303.5,355.167 303.5,351.5C 303.152,343.735 302.152,336.068 300.5,328.5 Z"/></g>
<g><path style="opacity:1" fill="#5e0e17" d="M 213.5,329.5 C 227.15,330.833 241.15,331.499 255.5,331.5C 269.85,331.499 283.85,330.833 297.5,329.5C 300.271,335.086 301.938,341.086 302.5,347.5C 271.167,347.5 239.833,347.5 208.5,347.5C 209.062,341.086 210.729,335.086 213.5,329.5 Z"/></g>
<g><path style="opacity:1" fill="#6b101a" d="M 208.5,347.5 C 239.833,347.5 271.167,347.5 302.5,347.5C 302.232,349.099 302.566,350.432 303.5,351.5C 303.5,355.167 303.5,358.833 303.5,362.5C 303.768,364.099 303.434,365.432 302.5,366.5C 271.167,366.5 239.833,366.5 208.5,366.5C 208.768,364.901 208.434,363.568 207.5,362.5C 207.5,358.833 207.5,355.167 207.5,351.5C 208.434,350.432 208.768,349.099 208.5,347.5 Z"/></g>
<g><path style="opacity:0.997" fill="#fa9f00" d="M 483.5,361.5 C 479.34,373.684 473.674,385.017 466.5,395.5C 410.572,396.496 354.572,396.829 298.5,396.5C 300.926,389.376 302.592,382.042 303.5,374.5C 303.48,373.274 303.147,372.274 302.5,371.5C 302.5,369.833 302.5,368.167 302.5,366.5C 303.434,365.432 303.768,364.099 303.5,362.5C 363.571,362.829 423.571,362.496 483.5,361.5 Z"/></g>
<g><path style="opacity:0.998" fill="#fa9f00" d="M 207.5,362.5 C 207.922,367.547 208.589,372.547 209.5,377.5C 208.853,378.274 208.52,379.274 208.5,380.5C 209.26,386.006 210.593,391.34 212.5,396.5C 156.664,396.168 100.998,396.501 45.5,397.5C 38.3262,387.017 32.6596,375.684 28.5,363.5C 87.9977,362.501 147.664,362.168 207.5,362.5 Z"/></g>
<g><path style="opacity:1" fill="#77121d" d="M 207.5,362.5 C 208.434,363.568 208.768,364.901 208.5,366.5C 239.833,366.5 271.167,366.5 302.5,366.5C 302.5,368.167 302.5,369.833 302.5,371.5C 301.924,376.809 300.591,381.809 298.5,386.5C 269.833,386.5 241.167,386.5 212.5,386.5C 211.331,383.659 210.331,380.659 209.5,377.5C 208.589,372.547 207.922,367.547 207.5,362.5 Z"/></g>
<g><path style="opacity:1" fill="#fcc901" d="M 302.5,371.5 C 303.147,372.274 303.48,373.274 303.5,374.5C 302.592,382.042 300.926,389.376 298.5,396.5C 292.389,412.444 281.389,423.611 265.5,430C 253.532,433.257 242.532,431.257 232.5,424C 223.619,416.309 216.953,407.143 212.5,396.5C 210.593,391.34 209.26,386.006 208.5,380.5C 208.52,379.274 208.853,378.274 209.5,377.5C 210.331,380.659 211.331,383.659 212.5,386.5C 217.244,402.082 226.911,413.582 241.5,421C 261.33,426.501 277.496,421.001 290,404.5C 293.654,398.861 296.487,392.861 298.5,386.5C 300.591,381.809 301.924,376.809 302.5,371.5 Z"/></g>
<g><path style="opacity:0.998" fill="#fa9800" d="M 466.5,395.5 C 458.08,410.59 447.747,424.257 435.5,436.5C 315.431,435.832 195.264,435.166 75,434.5C 74.6012,434.728 74.4346,435.062 74.5,435.5C 70.4521,431.766 66.6187,427.766 63,423.5C 56.4032,415.294 50.5698,406.627 45.5,397.5C 100.998,396.501 156.664,396.168 212.5,396.5C 216.953,407.143 223.619,416.309 232.5,424C 242.532,431.257 253.532,433.257 265.5,430C 281.389,423.611 292.389,412.444 298.5,396.5C 354.572,396.829 410.572,396.496 466.5,395.5 Z"/></g>
<g><path style="opacity:1" fill="#861521" d="M 212.5,386.5 C 241.167,386.5 269.833,386.5 298.5,386.5C 296.487,392.861 293.654,398.861 290,404.5C 277.496,421.001 261.33,426.501 241.5,421C 226.911,413.582 217.244,402.082 212.5,386.5 Z"/></g>
<g><path style="opacity:0.997" fill="#f99200" d="M 435.5,436.5 C 423.227,449.781 409.227,460.781 393.5,469.5C 301.665,469.167 209.998,469.501 118.5,470.5C 102.08,461.085 87.4138,449.419 74.5,435.5C 74.4346,435.062 74.6012,434.728 75,434.5C 195.264,435.166 315.431,435.832 435.5,436.5 Z"/></g>
<g><path style="opacity:0.989" fill="#f98d00" d="M 393.5,469.5 C 372.334,482.843 349.334,492.009 324.5,497C 278.5,505.667 232.5,505.667 186.5,497C 162.305,491.722 139.638,482.889 118.5,470.5C 209.998,469.501 301.665,469.167 393.5,469.5 Z"/></g>
</svg>
