<?xml version="1.0" encoding="UTF-8"?>
<!DOCTYPE svg PUBLIC "-//W3C//DTD SVG 1.1//EN" "http://www.w3.org/Graphics/SVG/1.1/DTD/svg11.dtd">
<svg xmlns="http://www.w3.org/2000/svg" version="1.1" width="512px" height="512px" style="shape-rendering:geometricPrecision; text-rendering:geometricPrecision; image-rendering:optimizeQuality; fill-rule:evenodd; clip-rule:evenodd" xmlns:xlink="http://www.w3.org/1999/xlink">
<g><path style="opacity:0.99" fill="#ffdd00" d="M 401.5,46.5 C 304.167,46.5 206.833,46.5 109.5,46.5C 135.908,28.9807 164.908,17.4807 196.5,12C 235.833,6 275.167,6 314.5,12C 346.218,17.1724 375.218,28.6724 401.5,46.5 Z"/></g>
<g><path style="opacity:0.996" fill="#fed700" d="M 109.5,46.5 C 206.833,46.5 304.167,46.5 401.5,46.5C 416.308,55.9643 429.641,67.2976 441.5,80.5C 317.666,80.8329 193.999,80.4995 70.5,79.5C 82.0277,66.6291 95.0277,55.6291 109.5,46.5 Z"/></g>
<g><path style="opacity:0.998" fill="#fdd100" d="M 70.5,79.5 C 193.999,80.4995 317.666,80.8329 441.5,80.5C 450.721,90.6059 458.721,101.606 465.5,113.5C 370.167,114.833 274.833,114.833 179.5,113.5C 179.5,112.833 179.5,112.167 179.5,111.5C 182.999,111.741 183.332,110.908 180.5,109C 174.663,105.332 168.329,103.165 161.5,102.5C 159.052,101.527 156.385,101.194 153.5,101.5C 139.403,100.37 127.403,104.703 117.5,114.5C 93.3275,114.831 69.3275,114.498 45.5,113.5C 52.3709,101.092 60.7042,89.7582 70.5,79.5 Z"/></g>
<g><path style="opacity:1" fill="#252b2a" d="M 153.5,101.5 C 156.385,101.194 159.052,101.527 161.5,102.5C 144.804,113.127 127.804,123.293 110.5,133C 110.833,133.333 111.167,133.667 111.5,134C 109.804,135.176 108.138,136.343 106.5,137.5C 107.267,133.851 108.6,130.518 110.5,127.5C 124.835,118.83 139.169,110.164 153.5,101.5 Z"/></g>
<g><path style="opacity:1" fill="#e69f05" d="M 179.5,111.5 C 179.5,112.167 179.5,112.833 179.5,113.5C 154.928,122.46 132.928,135.46 113.5,152.5C 111.062,154.267 108.395,155.601 105.5,156.5C 118.426,138.41 135.093,124.91 155.5,116C 163.282,113.277 171.282,111.777 179.5,111.5 Z"/></g>
<g><path style="opacity:0.994" fill="#fdca00" d="M 45.5,113.5 C 69.3275,114.498 93.3275,114.831 117.5,114.5C 114.391,118.382 112.058,122.716 110.5,127.5C 108.6,130.518 107.267,133.851 106.5,137.5C 105.13,142.756 104.13,148.089 103.5,153.5C 77.5,153.5 51.5,153.5 25.5,153.5C 30.8504,139.409 37.5171,126.076 45.5,113.5 Z"/></g>
<g><path style="opacity:1" fill="#363e3c" d="M 153.5,101.5 C 139.169,110.164 124.835,118.83 110.5,127.5C 112.058,122.716 114.391,118.382 117.5,114.5C 127.403,104.703 139.403,100.37 153.5,101.5 Z"/></g>
<g><path style="opacity:0.998" fill="#fdca00" d="M 179.5,113.5 C 274.833,114.833 370.167,114.833 465.5,113.5C 473.677,126.324 480.343,139.991 485.5,154.5C 459.241,153.51 432.908,153.176 406.5,153.5C 396.824,138.748 382.991,132.081 365,133.5C 360.228,133.308 355.728,133.975 351.5,135.5C 346.115,137.026 341.115,139.36 336.5,142.5C 335.115,143.302 335.282,143.969 337,144.5C 343.319,146.882 349.486,149.548 355.5,152.5C 274.833,153.833 194.167,153.833 113.5,152.5C 132.928,135.46 154.928,122.46 179.5,113.5 Z"/></g>
<g><path style="opacity:1" fill="#0f0d09" d="M 161.5,102.5 C 168.329,103.165 174.663,105.332 180.5,109C 183.332,110.908 182.999,111.741 179.5,111.5C 171.282,111.777 163.282,113.277 155.5,116C 135.093,124.91 118.426,138.41 105.5,156.5C 105.217,157.289 104.717,157.956 104,158.5C 103.506,156.866 103.34,155.199 103.5,153.5C 104.13,148.089 105.13,142.756 106.5,137.5C 108.138,136.343 109.804,135.176 111.5,134C 111.167,133.667 110.833,133.333 110.5,133C 127.804,123.293 144.804,113.127 161.5,102.5 Z"/></g>
<g><path style="opacity:1" fill="#303836" d="M 406.5,153.5 C 409.056,158.614 411.056,163.947 412.5,169.5C 410.862,168.343 409.196,167.176 407.5,166C 407.833,165 408.167,164 408.5,163C 391.959,153.231 375.292,143.731 358.5,134.5C 356.218,135.223 353.884,135.557 351.5,135.5C 355.728,133.975 360.228,133.308 365,133.5C 382.991,132.081 396.824,138.748 406.5,153.5 Z"/></g>
<g><path style="opacity:1" fill="#e69f05" d="M 336.5,142.5 C 369.308,145.743 394.975,161.076 413.5,188.5C 411.486,188.608 409.82,187.942 408.5,186.5C 392.449,172.808 374.782,161.475 355.5,152.5C 349.486,149.548 343.319,146.882 337,144.5C 335.282,143.969 335.115,143.302 336.5,142.5 Z"/></g>
<g><path style="opacity:0.999" fill="#fcc400" d="M 113.5,152.5 C 194.167,153.833 274.833,153.833 355.5,152.5C 374.782,161.475 392.449,172.808 408.5,186.5C 277.668,187.5 146.668,187.833 15.5,187.5C 17.8224,175.866 21.1558,164.533 25.5,153.5C 51.5,153.5 77.5,153.5 103.5,153.5C 103.34,155.199 103.506,156.866 104,158.5C 104.717,157.956 105.217,157.289 105.5,156.5C 108.395,155.601 111.062,154.267 113.5,152.5 Z"/></g>
<g><path style="opacity:0.995" fill="#fcc400" d="M 406.5,153.5 C 432.908,153.176 459.241,153.51 485.5,154.5C 490.04,165.12 493.373,176.12 495.5,187.5C 468.833,187.5 442.167,187.5 415.5,187.5C 415.057,181.394 414.057,175.394 412.5,169.5C 411.056,163.947 409.056,158.614 406.5,153.5 Z"/></g>
<g><path style="opacity:1" fill="#0e0e0b" d="M 412.5,169.5 C 414.057,175.394 415.057,181.394 415.5,187.5C 415.655,190.853 414.988,191.186 413.5,188.5C 394.975,161.076 369.308,145.743 336.5,142.5C 341.115,139.36 346.115,137.026 351.5,135.5C 353.884,135.557 356.218,135.223 358.5,134.5C 375.292,143.731 391.959,153.231 408.5,163C 408.167,164 407.833,165 407.5,166C 409.196,167.176 410.862,168.343 412.5,169.5 Z"/></g>
<g><path style="opacity:0.998" fill="#fcbe00" d="M 408.5,186.5 C 409.82,187.942 411.486,188.608 413.5,188.5C 414.988,191.186 415.655,190.853 415.5,187.5C 442.167,187.5 468.833,187.5 495.5,187.5C 498.679,198.546 501.012,209.88 502.5,221.5C 461.33,221.168 420.33,221.501 379.5,222.5C 375.9,214.153 370.9,206.653 364.5,200C 349.64,189.401 334.306,188.734 318.5,198C 310.83,204.183 305.83,212.016 303.5,221.5C 271.5,221.5 239.5,221.5 207.5,221.5C 199.044,195.77 181.711,186.603 155.5,194C 144.403,200.927 136.403,210.427 131.5,222.5C 90.5977,221.171 49.5977,221.171 8.5,222.5C 9.70228,210.488 12.0356,198.822 15.5,187.5C 146.668,187.833 277.668,187.5 408.5,186.5 Z"/></g>
<g><path style="opacity:1" fill="#fbcc00" d="M 207.5,221.5 C 207.795,223.735 207.461,225.735 206.5,227.5C 203.493,215.825 196.493,207.492 185.5,202.5C 177.94,199.467 170.273,198.801 162.5,200.5C 155.282,201.859 149.115,205.193 144,210.5C 137.319,218.861 132.486,228.194 129.5,238.5C 128.848,237.551 128.514,236.385 128.5,235C 129.111,230.722 130.111,226.555 131.5,222.5C 136.403,210.427 144.403,200.927 155.5,194C 181.711,186.603 199.044,195.77 207.5,221.5 Z"/></g>
<g><path style="opacity:1" fill="#facb00" d="M 379.5,222.5 C 380.653,226.78 381.653,231.114 382.5,235.5C 382.48,236.726 382.147,237.726 381.5,238.5C 378.242,224.954 371.242,213.954 360.5,205.5C 352.891,201.056 344.557,199.056 335.5,199.5C 329.614,200.127 324.281,202.127 319.5,205.5C 311.508,210.825 306.508,218.158 304.5,227.5C 303.539,225.735 303.205,223.735 303.5,221.5C 305.83,212.016 310.83,204.183 318.5,198C 334.306,188.734 349.64,189.401 364.5,200C 370.9,206.653 375.9,214.153 379.5,222.5 Z"/></g>
<g><path style="opacity:1" fill="#5c2e01" d="M 162.5,200.5 C 170.273,198.801 177.94,199.467 185.5,202.5C 185.819,207.363 185.486,212.03 184.5,216.5C 179.881,215.686 175.214,215.353 170.5,215.5C 170.5,210.5 170.5,205.5 170.5,200.5C 167.833,200.5 165.167,200.5 162.5,200.5 Z"/></g>
<g><path style="opacity:1" fill="#4a2501" d="M 335.5,199.5 C 344.557,199.056 352.891,201.056 360.5,205.5C 359.509,212.313 359.175,219.313 359.5,226.5C 352.777,220.14 344.777,216.473 335.5,215.5C 335.5,210.167 335.5,204.833 335.5,199.5 Z"/></g>
<g><path style="opacity:1" fill="#633202" d="M 335.5,199.5 C 335.5,204.833 335.5,210.167 335.5,215.5C 330.411,215.419 325.745,216.752 321.5,219.5C 319.564,215.285 318.897,210.619 319.5,205.5C 324.281,202.127 329.614,200.127 335.5,199.5 Z"/></g>
<g><path style="opacity:1" fill="#743b02" d="M 185.5,202.5 C 196.493,207.492 203.493,215.825 206.5,227.5C 207.455,233.409 207.789,239.409 207.5,245.5C 203.409,232.978 195.742,223.311 184.5,216.5C 185.486,212.03 185.819,207.363 185.5,202.5 Z"/></g>
<g><path style="opacity:1" fill="#763c02" d="M 319.5,205.5 C 318.897,210.619 319.564,215.285 321.5,219.5C 313.023,226.455 307.023,235.121 303.5,245.5C 303.211,239.409 303.545,233.409 304.5,227.5C 306.508,218.158 311.508,210.825 319.5,205.5 Z"/></g>
<g><path style="opacity:1" fill="#402001" d="M 162.5,200.5 C 165.167,200.5 167.833,200.5 170.5,200.5C 170.5,205.5 170.5,210.5 170.5,215.5C 162.568,218.131 155.568,222.298 149.5,228C 141.171,236.148 133.838,244.981 127.5,254.5C 127.246,249.03 127.913,243.696 129.5,238.5C 132.486,228.194 137.319,218.861 144,210.5C 149.115,205.193 155.282,201.859 162.5,200.5 Z"/></g>
<g><path style="opacity:1" fill="#e9a105" d="M 170.5,215.5 C 175.214,215.353 179.881,215.686 184.5,216.5C 195.742,223.311 203.409,232.978 207.5,245.5C 207.5,248.167 207.5,250.833 207.5,253.5C 207.167,253.5 206.833,253.5 206.5,253.5C 203.376,240.751 196.042,231.251 184.5,225C 173.262,221.976 163.262,224.309 154.5,232C 145.987,238.559 138.987,246.392 133.5,255.5C 131.204,257.401 129.371,259.734 128,262.5C 127.503,260.19 127.337,257.857 127.5,255.5C 127.5,255.167 127.5,254.833 127.5,254.5C 133.838,244.981 141.171,236.148 149.5,228C 155.568,222.298 162.568,218.131 170.5,215.5 Z"/></g>
<g><path style="opacity:1" fill="#e9a105" d="M 335.5,215.5 C 344.777,216.473 352.777,220.14 359.5,226.5C 368.623,234.95 376.623,244.283 383.5,254.5C 383.5,254.833 383.5,255.167 383.5,255.5C 383.663,257.857 383.497,260.19 383,262.5C 381.629,259.734 379.796,257.401 377.5,255.5C 369.945,242.779 359.612,232.946 346.5,226C 336.904,221.963 327.904,222.963 319.5,229C 312.063,235.714 307.063,243.881 304.5,253.5C 304.167,253.5 303.833,253.5 303.5,253.5C 303.5,250.833 303.5,248.167 303.5,245.5C 307.023,235.121 313.023,226.455 321.5,219.5C 325.745,216.752 330.411,215.419 335.5,215.5 Z"/></g>
<g><path style="opacity:1" fill="#3c1e02" d="M 360.5,205.5 C 371.242,213.954 378.242,224.954 381.5,238.5C 383.087,243.696 383.754,249.03 383.5,254.5C 376.623,244.283 368.623,234.95 359.5,226.5C 359.175,219.313 359.509,212.313 360.5,205.5 Z"/></g>
<g><path style="opacity:0.998" fill="#fbb800" d="M 131.5,222.5 C 130.111,226.555 129.111,230.722 128.5,235C 128.514,236.385 128.848,237.551 129.5,238.5C 127.913,243.696 127.246,249.03 127.5,254.5C 127.5,254.833 127.5,255.167 127.5,255.5C 87.5,255.5 47.5,255.5 7.5,255.5C 7.28672,244.473 7.62006,233.473 8.5,222.5C 49.5977,221.171 90.5977,221.171 131.5,222.5 Z"/></g>
<g><path style="opacity:1" fill="#fbb800" d="M 207.5,221.5 C 239.5,221.5 271.5,221.5 303.5,221.5C 303.205,223.735 303.539,225.735 304.5,227.5C 303.545,233.409 303.211,239.409 303.5,245.5C 303.5,248.167 303.5,250.833 303.5,253.5C 287.848,254.833 271.848,255.499 255.5,255.5C 239.152,255.499 223.152,254.833 207.5,253.5C 207.5,250.833 207.5,248.167 207.5,245.5C 207.789,239.409 207.455,233.409 206.5,227.5C 207.461,225.735 207.795,223.735 207.5,221.5 Z"/></g>
<g><path style="opacity:0.998" fill="#fbb800" d="M 502.5,221.5 C 503.356,232.81 503.69,244.143 503.5,255.5C 463.5,255.5 423.5,255.5 383.5,255.5C 383.5,255.167 383.5,254.833 383.5,254.5C 383.754,249.03 383.087,243.696 381.5,238.5C 382.147,237.726 382.48,236.726 382.5,235.5C 381.653,231.114 380.653,226.78 379.5,222.5C 420.33,221.501 461.33,221.168 502.5,221.5 Z"/></g>
<g><path style="opacity:1" fill="#fbb700" d="M 206.5,253.5 C 182.523,255.49 158.19,256.157 133.5,255.5C 138.987,246.392 145.987,238.559 154.5,232C 163.262,224.309 173.262,221.976 184.5,225C 196.042,231.251 203.376,240.751 206.5,253.5 Z"/></g>
<g><path style="opacity:1" fill="#fbb700" d="M 377.5,255.5 C 352.81,256.157 328.477,255.49 304.5,253.5C 307.063,243.881 312.063,235.714 319.5,229C 327.904,222.963 336.904,221.963 346.5,226C 359.612,232.946 369.945,242.779 377.5,255.5 Z"/></g>
<g><path style="opacity:0.999" fill="#fcb100" d="M 206.5,253.5 C 206.833,253.5 207.167,253.5 207.5,253.5C 223.152,254.833 239.152,255.499 255.5,255.5C 271.848,255.499 287.848,254.833 303.5,253.5C 303.833,253.5 304.167,253.5 304.5,253.5C 328.477,255.49 352.81,256.157 377.5,255.5C 379.796,257.401 381.629,259.734 383,262.5C 383.497,260.19 383.663,257.857 383.5,255.5C 423.5,255.5 463.5,255.5 503.5,255.5C 503.902,268.576 503.236,281.576 501.5,294.5C 337.5,294.5 173.5,294.5 9.5,294.5C 7.76429,281.576 7.09762,268.576 7.5,255.5C 47.5,255.5 87.5,255.5 127.5,255.5C 127.337,257.857 127.503,260.19 128,262.5C 129.371,259.734 131.204,257.401 133.5,255.5C 158.19,256.157 182.523,255.49 206.5,253.5 Z"/></g>
<g><path style="opacity:0.998" fill="#fbab00" d="M 9.5,294.5 C 173.5,294.5 337.5,294.5 501.5,294.5C 500.186,306.072 497.852,317.406 494.5,328.5C 449.5,328.5 404.5,328.5 359.5,328.5C 359.5,327.167 359.5,325.833 359.5,324.5C 361.569,317.061 358.902,312.728 351.5,311.5C 297.629,329.379 242.963,332.213 187.5,320C 177.9,317.016 168.233,314.182 158.5,311.5C 152.013,313.327 149.68,317.66 151.5,324.5C 151.5,325.833 151.5,327.167 151.5,328.5C 106.282,327.847 61.2817,328.513 16.5,330.5C 13.3976,318.654 11.0642,306.654 9.5,294.5 Z"/></g>
<g><path style="opacity:1" fill="#e88a06" d="M 359.5,324.5 C 357.98,321.498 355.48,319.831 352,319.5C 304.294,335.99 255.46,340.156 205.5,332C 189.393,328.848 173.56,324.682 158,319.5C 155.095,320.242 152.928,321.909 151.5,324.5C 149.68,317.66 152.013,313.327 158.5,311.5C 168.233,314.182 177.9,317.016 187.5,320C 242.963,332.213 297.629,329.379 351.5,311.5C 358.902,312.728 361.569,317.061 359.5,324.5 Z"/></g>
<g><path style="opacity:1" fill="#410a10" d="M 359.5,324.5 C 359.5,325.833 359.5,327.167 359.5,328.5C 359.167,329.833 358.833,331.167 358.5,332.5C 354.027,343.107 347.36,352.107 338.5,359.5C 282.5,359.5 226.5,359.5 170.5,359.5C 163.273,351.397 157.273,342.397 152.5,332.5C 152.167,331.167 151.833,329.833 151.5,328.5C 151.5,327.167 151.5,325.833 151.5,324.5C 152.928,321.909 155.095,320.242 158,319.5C 173.56,324.682 189.393,328.848 205.5,332C 255.46,340.156 304.294,335.99 352,319.5C 355.48,319.831 357.98,321.498 359.5,324.5 Z"/></g>
<g><path style="opacity:0.997" fill="#faa500" d="M 151.5,328.5 C 151.833,329.833 152.167,331.167 152.5,332.5C 151.371,334.628 151.204,336.961 152,339.5C 156.007,347.523 160.507,355.19 165.5,362.5C 119.664,362.168 73.997,362.501 28.5,363.5C 23.7305,352.865 19.7305,341.865 16.5,330.5C 61.2817,328.513 106.282,327.847 151.5,328.5 Z"/></g>
<g><path style="opacity:0.998" fill="#faa500" d="M 359.5,328.5 C 404.5,328.5 449.5,328.5 494.5,328.5C 491.804,339.921 488.138,350.921 483.5,361.5C 437.239,362.495 390.905,362.828 344.5,362.5C 349.573,354.694 354.407,346.694 359,338.5C 359.789,336.288 359.622,334.288 358.5,332.5C 358.833,331.167 359.167,329.833 359.5,328.5 Z"/></g>
<g><path style="opacity:1" fill="#f6ba06" d="M 152.5,332.5 C 157.273,342.397 163.273,351.397 170.5,359.5C 173.833,363.5 177.5,367.167 181.5,370.5C 184.19,373.185 187.19,375.518 190.5,377.5C 196.677,382.761 203.677,386.761 211.5,389.5C 223.011,395.463 235.344,398.797 248.5,399.5C 250.292,399.366 251.958,399.699 253.5,400.5C 255.785,402.118 257.785,404.118 259.5,406.5C 247.925,407.919 236.591,406.752 225.5,403C 219.371,401.098 213.371,398.931 207.5,396.5C 191.448,387.79 177.448,376.457 165.5,362.5C 160.507,355.19 156.007,347.523 152,339.5C 151.204,336.961 151.371,334.628 152.5,332.5 Z"/></g>
<g><path style="opacity:1" fill="#f5ba0a" d="M 358.5,332.5 C 359.622,334.288 359.789,336.288 359,338.5C 354.407,346.694 349.573,354.694 344.5,362.5C 336.042,373.961 325.708,383.294 313.5,390.5C 313.833,389.167 314.167,387.833 314.5,386.5C 315.973,382.749 317.64,379.083 319.5,375.5C 321.909,374.299 323.909,372.633 325.5,370.5C 330.399,367.544 334.732,363.877 338.5,359.5C 347.36,352.107 354.027,343.107 358.5,332.5 Z"/></g>
<g><path style="opacity:0.997" fill="#fa9f00" d="M 483.5,361.5 C 479.34,373.684 473.674,385.017 466.5,395.5C 415.238,396.495 363.905,396.829 312.5,396.5C 312.517,394.435 312.85,392.435 313.5,390.5C 325.708,383.294 336.042,373.961 344.5,362.5C 390.905,362.828 437.239,362.495 483.5,361.5 Z"/></g>
<g><path style="opacity:0.998" fill="#fa9f00" d="M 165.5,362.5 C 177.448,376.457 191.448,387.79 207.5,396.5C 153.331,396.168 99.3308,396.501 45.5,397.5C 38.3262,387.017 32.6596,375.684 28.5,363.5C 73.997,362.501 119.664,362.168 165.5,362.5 Z"/></g>
<g><path style="opacity:1" fill="#540d15" d="M 170.5,359.5 C 226.5,359.5 282.5,359.5 338.5,359.5C 334.732,363.877 330.399,367.544 325.5,370.5C 277.5,370.5 229.5,370.5 181.5,370.5C 177.5,367.167 173.833,363.5 170.5,359.5 Z"/></g>
<g><path style="opacity:1" fill="#64131a" d="M 181.5,370.5 C 229.5,370.5 277.5,370.5 325.5,370.5C 323.909,372.633 321.909,374.299 319.5,375.5C 303.43,370.753 287.764,371.753 272.5,378.5C 245.338,377.502 218.005,377.169 190.5,377.5C 187.19,375.518 184.19,373.185 181.5,370.5 Z"/></g>
<g><path style="opacity:1" fill="#8ed3fc" d="M 319.5,375.5 C 317.64,379.083 315.973,382.749 314.5,386.5C 311.167,386.5 307.833,386.5 304.5,386.5C 304.756,388.792 304.423,390.959 303.5,393C 293.527,394.392 283.527,395.059 273.5,395C 272.424,393.274 272.257,391.441 273,389.5C 274.873,387.291 277.04,385.458 279.5,384C 274.177,383.501 268.844,383.334 263.5,383.5C 266.24,381.44 269.24,379.774 272.5,378.5C 287.764,371.753 303.43,370.753 319.5,375.5 Z"/></g>
<g><path style="opacity:1" fill="#75131e" d="M 190.5,377.5 C 218.005,377.169 245.338,377.502 272.5,378.5C 269.24,379.774 266.24,381.44 263.5,383.5C 260.55,385.115 257.884,387.115 255.5,389.5C 240.833,389.5 226.167,389.5 211.5,389.5C 203.677,386.761 196.677,382.761 190.5,377.5 Z"/></g>
<g><path style="opacity:1" fill="#8c1b23" d="M 211.5,389.5 C 226.167,389.5 240.833,389.5 255.5,389.5C 252.363,392.299 250.029,395.632 248.5,399.5C 235.344,398.797 223.011,395.463 211.5,389.5 Z"/></g>
<g><path style="opacity:0.997" fill="#f99900" d="M 466.5,395.5 C 458.08,410.59 447.747,424.257 435.5,436.5C 395.337,435.501 355.003,435.168 314.5,435.5C 313.833,432.833 313.167,430.167 312.5,427.5C 311.873,422.859 311.54,418.193 311.5,413.5C 311.26,407.773 311.593,402.106 312.5,396.5C 363.905,396.829 415.238,396.495 466.5,395.5 Z"/></g>
<g><path style="opacity:0.998" fill="#f99800" d="M 207.5,396.5 C 213.371,398.931 219.371,401.098 225.5,403C 236.591,406.752 247.925,407.919 259.5,406.5C 257.785,404.118 255.785,402.118 253.5,400.5C 256.878,401.023 259.878,402.356 262.5,404.5C 263.833,405.167 264.833,406.167 265.5,407.5C 263.712,407.215 262.045,407.548 260.5,408.5C 261.609,410.385 262.443,412.385 263,414.5C 263.499,420.157 263.666,425.824 263.5,431.5C 262.833,432.833 262.167,434.167 261.5,435.5C 198.861,435.493 136.528,435.493 74.5,435.5C 70.4521,431.766 66.6187,427.766 63,423.5C 56.4032,415.294 50.5698,406.627 45.5,397.5C 99.3308,396.501 153.331,396.168 207.5,396.5 Z"/></g>
<g><path style="opacity:1" fill="#71c3f9" d="M 263.5,383.5 C 268.844,383.334 274.177,383.501 279.5,384C 277.04,385.458 274.873,387.291 273,389.5C 272.257,391.441 272.424,393.274 273.5,395C 283.527,395.059 293.527,394.392 303.5,393C 304.423,390.959 304.756,388.792 304.5,386.5C 307.833,386.5 311.167,386.5 314.5,386.5C 314.167,387.833 313.833,389.167 313.5,390.5C 312.85,392.435 312.517,394.435 312.5,396.5C 311.593,402.106 311.26,407.773 311.5,413.5C 311.167,413.5 310.833,413.5 310.5,413.5C 310.5,409.833 310.5,406.167 310.5,402.5C 307.036,402.559 303.703,401.892 300.5,400.5C 288.94,401.443 277.274,402.276 265.5,403C 264.263,403.232 263.263,403.732 262.5,404.5C 259.878,402.356 256.878,401.023 253.5,400.5C 251.958,399.699 250.292,399.366 248.5,399.5C 250.029,395.632 252.363,392.299 255.5,389.5C 257.884,387.115 260.55,385.115 263.5,383.5 Z"/></g>
<g><path style="opacity:1" fill="#da7c09" d="M 265.5,407.5 C 267.412,409.657 269.079,411.991 270.5,414.5C 271.295,418.785 271.628,423.119 271.5,427.5C 271.731,431.993 271.064,436.326 269.5,440.5C 267.826,446.52 266.159,452.52 264.5,458.5C 263.257,465.975 263.257,473.308 264.5,480.5C 264.417,492.063 269.751,499.73 280.5,503.5C 276.912,504.331 273.245,504.331 269.5,503.5C 267.604,502.519 265.604,501.519 263.5,500.5C 262.28,477.496 262.28,454.496 263.5,431.5C 263.666,425.824 263.499,420.157 263,414.5C 262.443,412.385 261.609,410.385 260.5,408.5C 262.045,407.548 263.712,407.215 265.5,407.5 Z"/></g>
<g><path style="opacity:1" fill="#5bb5f8" d="M 310.5,413.5 C 296.99,413.171 283.656,413.504 270.5,414.5C 269.079,411.991 267.412,409.657 265.5,407.5C 264.833,406.167 263.833,405.167 262.5,404.5C 263.263,403.732 264.263,403.232 265.5,403C 277.274,402.276 288.94,401.443 300.5,400.5C 303.703,401.892 307.036,402.559 310.5,402.5C 310.5,406.167 310.5,409.833 310.5,413.5 Z"/></g>
<g><path style="opacity:1" fill="#4ca8f5" d="M 310.5,413.5 C 310.833,413.5 311.167,413.5 311.5,413.5C 311.54,418.193 311.873,422.859 312.5,427.5C 298.833,427.5 285.167,427.5 271.5,427.5C 271.628,423.119 271.295,418.785 270.5,414.5C 283.656,413.504 296.99,413.171 310.5,413.5 Z"/></g>
<g><path style="opacity:0.996" fill="#f99200" d="M 261.5,435.5 C 259.115,441.271 256.449,446.937 253.5,452.5C 252.014,458.094 250.848,463.761 250,469.5C 249.667,467.5 249.333,465.5 249,463.5C 247.594,465.364 247.094,467.197 247.5,469C 204.331,469.167 161.331,469.667 118.5,470.5C 102.08,461.085 87.4138,449.419 74.5,435.5C 136.528,435.493 198.861,435.493 261.5,435.5 Z"/></g>
<g><path style="opacity:0.996" fill="#f99100" d="M 314.5,435.5 C 355.003,435.168 395.337,435.501 435.5,436.5C 400.937,471.782 358.937,492.782 309.5,499.5C 315.067,495.709 318.067,490.375 318.5,483.5C 319.784,475.629 319.784,467.629 318.5,459.5C 317.926,454.055 316.926,448.721 315.5,443.5C 315.167,440.833 314.833,438.167 314.5,435.5 Z"/></g>
<g><path style="opacity:1" fill="#3e9cf2" d="M 271.5,427.5 C 285.167,427.5 298.833,427.5 312.5,427.5C 313.167,430.167 313.833,432.833 314.5,435.5C 314.833,438.167 315.167,440.833 315.5,443.5C 314.596,442.791 314.263,441.791 314.5,440.5C 299.442,441.728 284.442,441.728 269.5,440.5C 271.064,436.326 271.731,431.993 271.5,427.5 Z"/></g>
<g><path style="opacity:0.989" fill="#f78c00" d="M 263.5,431.5 C 262.28,454.496 262.28,477.496 263.5,500.5C 265.604,501.519 267.604,502.519 269.5,503.5C 222.112,506.436 176.779,498.269 133.5,479C 128.437,476.139 123.437,473.306 118.5,470.5C 161.331,469.667 204.331,469.167 247.5,469C 247.094,467.197 247.594,465.364 249,463.5C 249.333,465.5 249.667,467.5 250,469.5C 250.848,463.761 252.014,458.094 253.5,452.5C 256.449,446.937 259.115,441.271 261.5,435.5C 262.167,434.167 262.833,432.833 263.5,431.5 Z"/></g>
<g><path style="opacity:1" fill="#2b8ef0" d="M 269.5,440.5 C 284.442,441.728 299.442,441.728 314.5,440.5C 314.263,441.791 314.596,442.791 315.5,443.5C 316.926,448.721 317.926,454.055 318.5,459.5C 313.331,458.857 308.165,458.19 303,457.5C 290.18,459.083 277.347,459.416 264.5,458.5C 266.159,452.52 267.826,446.52 269.5,440.5 Z"/></g>
<g><path style="opacity:1" fill="#2488ee" d="M 318.5,459.5 C 319.784,467.629 319.784,475.629 318.5,483.5C 318.5,480.167 318.5,476.833 318.5,473.5C 316.708,473.366 315.042,473.699 313.5,474.5C 300.673,473.34 287.673,473.173 274.5,474C 272.942,474.21 271.609,474.71 270.5,475.5C 268.621,474.659 266.621,474.325 264.5,474.5C 264.5,476.5 264.5,478.5 264.5,480.5C 263.257,473.308 263.257,465.975 264.5,458.5C 277.347,459.416 290.18,459.083 303,457.5C 308.165,458.19 313.331,458.857 318.5,459.5 Z"/></g>
<g><path style="opacity:1" fill="#3d9af2" d="M 313.5,474.5 C 313.308,478.102 311.974,481.102 309.5,483.5C 298.986,483.172 288.653,483.506 278.5,484.5C 275.129,482.064 272.462,479.064 270.5,475.5C 271.609,474.71 272.942,474.21 274.5,474C 287.673,473.173 300.673,473.34 313.5,474.5 Z"/></g>
<g><path style="opacity:0.986" fill="#0f75eb" d="M 318.5,483.5 C 318.067,490.375 315.067,495.709 309.5,499.5C 306.551,501.461 303.218,502.627 299.5,503C 293.175,503.5 286.842,503.666 280.5,503.5C 269.751,499.73 264.417,492.063 264.5,480.5C 264.5,478.5 264.5,476.5 264.5,474.5C 266.621,474.325 268.621,474.659 270.5,475.5C 272.462,479.064 275.129,482.064 278.5,484.5C 286.065,491.829 294.732,493.329 304.5,489C 307.079,487.924 308.746,486.091 309.5,483.5C 311.974,481.102 313.308,478.102 313.5,474.5C 315.042,473.699 316.708,473.366 318.5,473.5C 318.5,476.833 318.5,480.167 318.5,483.5 Z"/></g>
<g><path style="opacity:1" fill="#7bc8fc" d="M 309.5,483.5 C 308.746,486.091 307.079,487.924 304.5,489C 294.732,493.329 286.065,491.829 278.5,484.5C 288.653,483.506 298.986,483.172 309.5,483.5 Z"/></g>
</svg>
