<?xml version="1.0" encoding="UTF-8"?>
<!DOCTYPE svg PUBLIC "-//W3C//DTD SVG 1.1//EN" "http://www.w3.org/Graphics/SVG/1.1/DTD/svg11.dtd">
<svg xmlns="http://www.w3.org/2000/svg" version="1.1" width="128px" height="128px" style="shape-rendering:geometricPrecision; text-rendering:geometricPrecision; image-rendering:optimizeQuality; fill-rule:evenodd; clip-rule:evenodd" xmlns:xlink="http://www.w3.org/1999/xlink">
<g><path style="opacity:1" fill="#28211e" d="M 39.5,-0.5 C 44.1667,-0.5 48.8333,-0.5 53.5,-0.5C 53.2024,2.26462 52.2024,4.76462 50.5,7C 52.4386,7.90784 53.4386,9.40784 53.5,11.5C 54.8221,11.67 55.9887,11.3366 57,10.5C 56.5913,12.2251 56.7579,13.8918 57.5,15.5C 57.7394,12.304 59.4061,10.4706 62.5,10C 65.7981,9.45831 68.9648,9.95831 72,11.5C 72.9454,11.0946 73.6121,10.428 74,9.5C 74.3333,9.83333 74.6667,10.1667 75,10.5C 75.4652,9.06919 76.2986,7.90252 77.5,7C 76.0443,5.25523 74.711,3.4219 73.5,1.5C 74.6016,0.824341 75.6016,0.157674 76.5,-0.5C 82.1667,-0.5 87.8333,-0.5 93.5,-0.5C 97.5121,9.70301 97.8454,19.8697 94.5,30C 95.056,30.3826 95.3893,30.8826 95.5,31.5C 93.6652,34.842 92.4985,38.5086 92,42.5C 91.4978,39.4869 90.9978,36.4869 90.5,33.5C 90.3893,32.8826 90.056,32.3826 89.5,32C 87.2305,31.2419 85.0639,31.4086 83,32.5C 81.2111,30.771 79.0444,30.1043 76.5,30.5C 74.9142,29.8519 73.2475,29.3519 71.5,29C 72.056,28.6174 72.3893,28.1174 72.5,27.5C 73.6635,22.5871 72.6635,17.9204 69.5,13.5C 64.2483,10.1383 60.9149,11.4716 59.5,17.5C 57.8828,18.038 56.2161,18.3713 54.5,18.5C 54.5,17.5 54.5,16.5 54.5,15.5C 51.5203,15.7589 49.687,14.4256 49,11.5C 47.5,13.6667 46,15.8333 44.5,18C 43.6683,18.6877 43.0016,18.521 42.5,17.5C 45.4247,14.6628 46.9247,11.3294 47,7.5C 46.3457,8.69559 45.8457,8.69559 45.5,7.5C 46.8333,6.16667 48.1667,4.83333 49.5,3.5C 48.5,2.5 47.5,1.5 46.5,0.5C 45.2813,1.64609 43.9479,2.64609 42.5,3.5C 43.8549,4.67529 43.6883,5.67529 42,6.5C 40.9846,3.93713 39.4846,2.60379 37.5,2.5C 38.6119,1.73485 39.2786,0.734849 39.5,-0.5 Z"/></g>
<g><path style="opacity:1" fill="#191615" d="M 53.5,-0.5 C 61.1667,-0.5 68.8333,-0.5 76.5,-0.5C 75.6016,0.157674 74.6016,0.824341 73.5,1.5C 74.711,3.4219 76.0443,5.25523 77.5,7C 76.2986,7.90252 75.4652,9.06919 75,10.5C 74.6667,10.1667 74.3333,9.83333 74,9.5C 73.6121,10.428 72.9454,11.0946 72,11.5C 68.9648,9.95831 65.7981,9.45831 62.5,10C 59.4061,10.4706 57.7394,12.304 57.5,15.5C 56.7579,13.8918 56.5913,12.2251 57,10.5C 55.9887,11.3366 54.8221,11.67 53.5,11.5C 53.4386,9.40784 52.4386,7.90784 50.5,7C 52.2024,4.76462 53.2024,2.26462 53.5,-0.5 Z"/></g>
<g><path style="opacity:1" fill="#2d2321" d="M 33.5,-0.5 C 35.5,-0.5 37.5,-0.5 39.5,-0.5C 39.2786,0.734849 38.6119,1.73485 37.5,2.5C 39.4846,2.60379 40.9846,3.93713 42,6.5C 43.6883,5.67529 43.8549,4.67529 42.5,3.5C 43.9479,2.64609 45.2813,1.64609 46.5,0.5C 47.5,1.5 48.5,2.5 49.5,3.5C 48.1667,4.83333 46.8333,6.16667 45.5,7.5C 45.8457,8.69559 46.3457,8.69559 47,7.5C 46.9247,11.3294 45.4247,14.6628 42.5,17.5C 43.0016,18.521 43.6683,18.6877 44.5,18C 46,15.8333 47.5,13.6667 49,11.5C 49.687,14.4256 51.5203,15.7589 54.5,15.5C 54.5,16.5 54.5,17.5 54.5,18.5C 56.2161,18.3713 57.8828,18.038 59.5,17.5C 57.4764,21.5765 56.4764,25.9098 56.5,30.5C 50.3408,30.0339 44.3408,30.7006 38.5,32.5C 37.7025,32.9569 37.3691,33.6236 37.5,34.5C 36.6618,34.8417 36.3284,35.5084 36.5,36.5C 36.6646,39.5184 36.498,42.5184 36,45.5C 34.9808,43.4982 34.1475,41.4982 33.5,39.5C 33.5905,36.8478 32.9238,34.5145 31.5,32.5C 30.504,27.1796 29.504,21.8462 28.5,16.5C 29.3988,10.5647 31.0654,4.89803 33.5,-0.5 Z"/></g>
<g><path style="opacity:1" fill="#4f382f" d="M 72.5,27.5 C 70.4248,22.0166 66.9248,17.6833 62,14.5C 60.9106,20.2684 59.7439,25.935 58.5,31.5C 54.675,32.7751 50.8417,32.7751 47,31.5C 43.865,32.6537 40.6983,33.6537 37.5,34.5C 37.3691,33.6236 37.7025,32.9569 38.5,32.5C 44.3408,30.7006 50.3408,30.0339 56.5,30.5C 56.4764,25.9098 57.4764,21.5765 59.5,17.5C 60.9149,11.4716 64.2483,10.1383 69.5,13.5C 72.6635,17.9204 73.6635,22.5871 72.5,27.5 Z"/></g>
<g><path style="opacity:1" fill="#9f7666" d="M 72.5,27.5 C 72.3893,28.1174 72.056,28.6174 71.5,29C 73.2475,29.3519 74.9142,29.8519 76.5,30.5C 77.1408,31.4822 77.8075,32.4822 78.5,33.5C 78.3764,34.1067 78.0431,34.44 77.5,34.5C 76.6851,33.1634 75.5185,32.1634 74,31.5C 71.9189,32.3331 69.7522,32.3331 67.5,31.5C 66.7245,24.4861 65.5579,24.1528 64,30.5C 63.5291,28.7536 62.8624,27.087 62,25.5C 61.8184,28.2263 61.3184,30.8929 60.5,33.5C 58.7377,34.6885 57.7377,36.3551 57.5,38.5C 57.5,39.1667 57.1667,39.5 56.5,39.5C 55.8333,38.8333 55.1667,38.1667 54.5,37.5C 53.8478,36.2749 52.6811,35.6083 51,35.5C 48.0906,35.2855 45.9239,36.2855 44.5,38.5C 43.596,37.791 43.2627,36.791 43.5,35.5C 41.0504,35.298 38.717,35.6314 36.5,36.5C 36.3284,35.5084 36.6618,34.8417 37.5,34.5C 40.6983,33.6537 43.865,32.6537 47,31.5C 50.8417,32.7751 54.675,32.7751 58.5,31.5C 59.7439,25.935 60.9106,20.2684 62,14.5C 66.9248,17.6833 70.4248,22.0166 72.5,27.5 Z"/></g>
<g><path style="opacity:1" fill="#c19685" d="M 77.5,34.5 C 75.5,34.5 73.5,34.5 71.5,34.5C 71.3433,35.8734 71.51,37.2068 72,38.5C 72.3333,37.8333 72.6667,37.1667 73,36.5C 73.8159,37.8228 74.9826,38.4894 76.5,38.5C 75.3409,40.3769 73.6742,40.8769 71.5,40C 69.0771,38.4293 67.7438,36.2626 67.5,33.5C 65.901,33.2322 64.5676,33.5655 63.5,34.5C 62.448,34.3505 61.448,34.5172 60.5,35C 59.8366,36.5185 58.8366,37.6851 57.5,38.5C 57.7377,36.3551 58.7377,34.6885 60.5,33.5C 61.3184,30.8929 61.8184,28.2263 62,25.5C 62.8624,27.087 63.5291,28.7536 64,30.5C 65.5579,24.1528 66.7245,24.4861 67.5,31.5C 69.7522,32.3331 71.9189,32.3331 74,31.5C 75.5185,32.1634 76.6851,33.1634 77.5,34.5 Z"/></g>
<g><path style="opacity:1" fill="#7d5246" d="M 76.5,30.5 C 79.0444,30.1043 81.2111,30.771 83,32.5C 85.0639,31.4086 87.2305,31.2419 89.5,32C 90.056,32.3826 90.3893,32.8826 90.5,33.5C 88.1432,33.3367 85.8098,33.5034 83.5,34C 82.7239,36.9866 81.0572,37.8199 78.5,36.5C 77.7025,36.9569 77.3691,37.6236 77.5,38.5C 77.1667,38.5 76.8333,38.5 76.5,38.5C 74.9826,38.4894 73.8159,37.8228 73,36.5C 72.6667,37.1667 72.3333,37.8333 72,38.5C 71.51,37.2068 71.3433,35.8734 71.5,34.5C 73.5,34.5 75.5,34.5 77.5,34.5C 78.0431,34.44 78.3764,34.1067 78.5,33.5C 77.8075,32.4822 77.1408,31.4822 76.5,30.5 Z"/></g>
<g><path style="opacity:1" fill="#bd8479" d="M 31.5,32.5 C 32.9238,34.5145 33.5905,36.8478 33.5,39.5C 33.5,43.1667 33.5,46.8333 33.5,50.5C 31.0164,47.1345 29.3497,43.3012 28.5,39C 28.9496,36.4668 29.9496,34.3002 31.5,32.5 Z"/></g>
<g><path style="opacity:1" fill="#e0b7a9" d="M 63.5,34.5 C 64.5,34.5 65.5,34.5 66.5,34.5C 66.6661,40.1764 66.4994,45.8431 66,51.5C 65,52.8333 64,52.8333 63,51.5C 62.2828,52.0442 61.7828,52.7109 61.5,53.5C 60.5,53.5 59.5,53.5 58.5,53.5C 58.3292,48.7239 57.3292,48.3905 55.5,52.5C 55.5288,54.0293 56.1955,55.196 57.5,56C 62.142,55.9371 66.8086,55.6037 71.5,55C 72.428,54.6121 73.0946,53.9454 73.5,53C 73.0109,51.8615 72.6775,50.6948 72.5,49.5C 72.2606,47.5328 72.5939,45.6995 73.5,44C 76.1104,43.8528 78.4437,43.0194 80.5,41.5C 81.4776,41.9767 82.3109,42.6433 83,43.5C 82.2924,47.001 82.459,50.501 83.5,54C 83.3036,59.9067 80.8036,61.4067 76,58.5C 73.8151,59.7585 71.6484,59.7585 69.5,58.5C 68.707,59.3554 69.0403,60.1887 70.5,61C 66.9748,61.1787 63.6414,61.6787 60.5,62.5C 59.8333,62.5 59.1667,62.5 58.5,62.5C 54.2065,61.5356 51.0399,62.8689 49,66.5C 47.5806,65.5399 46.0806,64.7065 44.5,64C 45.5,63.6667 46.5,63.3333 47.5,63C 45.824,59.8244 43.9907,56.6578 42,53.5C 41.2478,49.1627 40.9144,44.8294 41,40.5C 41.6667,41.1667 42.3333,41.8333 43,42.5C 47.08,41.6998 51.2467,41.1998 55.5,41C 56.056,40.6174 56.3893,40.1174 56.5,39.5C 57.1667,39.5 57.5,39.1667 57.5,38.5C 58.8366,37.6851 59.8366,36.5185 60.5,35C 61.448,34.5172 62.448,34.3505 63.5,34.5 Z"/></g>
<g><path style="opacity:1" fill="#b99084" d="M 95.5,31.5 C 96.1174,31.6107 96.6174,31.944 97,32.5C 97.6582,36.5715 97.3248,40.5715 96,44.5C 92.5565,50.8253 89.8898,57.4919 88,64.5C 87.1482,65.5707 86.3149,66.5707 85.5,67.5C 85.5,66.8333 85.5,66.1667 85.5,65.5C 85.2133,57.2263 85.0466,48.893 85,40.5C 84.3333,39.8333 83.6667,39.1667 83,38.5C 81.2933,39.1383 79.46,39.1383 77.5,38.5C 77.3691,37.6236 77.7025,36.9569 78.5,36.5C 81.0572,37.8199 82.7239,36.9866 83.5,34C 85.8098,33.5034 88.1432,33.3367 90.5,33.5C 90.9978,36.4869 91.4978,39.4869 92,42.5C 92.4985,38.5086 93.6652,34.842 95.5,31.5 Z"/></g>
<g><path style="opacity:1" fill="#cba291" d="M 63.5,34.5 C 64.5676,33.5655 65.901,33.2322 67.5,33.5C 67.7438,36.2626 69.0771,38.4293 71.5,40C 73.6742,40.8769 75.3409,40.3769 76.5,38.5C 76.8333,38.5 77.1667,38.5 77.5,38.5C 79.46,39.1383 81.2933,39.1383 83,38.5C 83.6667,39.1667 84.3333,39.8333 85,40.5C 85.0466,48.893 85.2133,57.2263 85.5,65.5C 82.2688,66.9486 80.2688,69.4486 79.5,73C 69.08,78.9739 58.9133,78.8073 49,72.5C 47.6244,72.6842 46.7911,73.3509 46.5,74.5C 46.4207,77.2706 46.9207,79.9373 48,82.5C 49.4424,84.3911 50.6091,86.3911 51.5,88.5C 48.7846,85.7861 46.4512,82.7861 44.5,79.5C 44.5,78.8333 44.5,78.1667 44.5,77.5C 45.6796,74.8304 45.513,72.1637 44,69.5C 40.4575,63.0721 36.9575,56.7388 33.5,50.5C 33.5,46.8333 33.5,43.1667 33.5,39.5C 34.1475,41.4982 34.9808,43.4982 36,45.5C 36.498,42.5184 36.6646,39.5184 36.5,36.5C 38.717,35.6314 41.0504,35.298 43.5,35.5C 43.2627,36.791 43.596,37.791 44.5,38.5C 47.4847,37.2758 50.1514,37.6091 52.5,39.5C 53.5223,39.1445 54.189,38.4778 54.5,37.5C 55.1667,38.1667 55.8333,38.8333 56.5,39.5C 56.3893,40.1174 56.056,40.6174 55.5,41C 51.2467,41.1998 47.08,41.6998 43,42.5C 42.3333,41.8333 41.6667,41.1667 41,40.5C 40.9144,44.8294 41.2478,49.1627 42,53.5C 43.9907,56.6578 45.824,59.8244 47.5,63C 46.5,63.3333 45.5,63.6667 44.5,64C 46.0806,64.7065 47.5806,65.5399 49,66.5C 51.0399,62.8689 54.2065,61.5356 58.5,62.5C 57.2825,63.1614 55.9492,63.8281 54.5,64.5C 55.3333,64.8333 56.1667,65.1667 57,65.5C 63.2534,65.0201 69.42,64.1867 75.5,63C 70.5111,62.5007 65.5111,62.3341 60.5,62.5C 63.6414,61.6787 66.9748,61.1787 70.5,61C 69.0403,60.1887 68.707,59.3554 69.5,58.5C 71.6484,59.7585 73.8151,59.7585 76,58.5C 80.8036,61.4067 83.3036,59.9067 83.5,54C 82.459,50.501 82.2924,47.001 83,43.5C 82.3109,42.6433 81.4776,41.9767 80.5,41.5C 78.4437,43.0194 76.1104,43.8528 73.5,44C 72.5939,45.6995 72.2606,47.5328 72.5,49.5C 66.3161,46.6605 65.9827,47.4938 71.5,52C 68.2432,53.0429 64.9099,53.5429 61.5,53.5C 61.7828,52.7109 62.2828,52.0442 63,51.5C 64,52.8333 65,52.8333 66,51.5C 66.4994,45.8431 66.6661,40.1764 66.5,34.5C 65.5,34.5 64.5,34.5 63.5,34.5 Z"/></g>
<g><path style="opacity:1" fill="#9b6055" d="M 58.5,62.5 C 59.1667,62.5 59.8333,62.5 60.5,62.5C 65.5111,62.3341 70.5111,62.5007 75.5,63C 69.42,64.1867 63.2534,65.0201 57,65.5C 56.1667,65.1667 55.3333,64.8333 54.5,64.5C 55.9492,63.8281 57.2825,63.1614 58.5,62.5 Z"/></g>
<g><path style="opacity:1" fill="#ba8b7a" d="M 72.5,49.5 C 72.6775,50.6948 73.0109,51.8615 73.5,53C 73.0946,53.9454 72.428,54.6121 71.5,55C 66.8086,55.6037 62.142,55.9371 57.5,56C 56.1955,55.196 55.5288,54.0293 55.5,52.5C 57.3292,48.3905 58.3292,48.7239 58.5,53.5C 59.5,53.5 60.5,53.5 61.5,53.5C 64.9099,53.5429 68.2432,53.0429 71.5,52C 65.9827,47.4938 66.3161,46.6605 72.5,49.5 Z"/></g>
<g><path style="opacity:1" fill="#784f41" d="M 54.5,37.5 C 54.189,38.4778 53.5223,39.1445 52.5,39.5C 50.1514,37.6091 47.4847,37.2758 44.5,38.5C 45.9239,36.2855 48.0906,35.2855 51,35.5C 52.6811,35.6083 53.8478,36.2749 54.5,37.5 Z"/></g>
<g><path style="opacity:1" fill="#a57d68" d="M 85.5,65.5 C 85.5,66.1667 85.5,66.8333 85.5,67.5C 85.2367,71.6002 85.5701,75.6002 86.5,79.5C 86.1667,79.5 85.8333,79.5 85.5,79.5C 85.1667,79.5 84.8333,79.5 84.5,79.5C 83.7658,78.0707 82.5991,77.0707 81,76.5C 78.5471,78.644 75.7137,80.144 72.5,81C 65.2851,82.113 58.2851,81.4463 51.5,79C 50.3492,76.7997 48.6825,75.2997 46.5,74.5C 46.7911,73.3509 47.6244,72.6842 49,72.5C 58.9133,78.8073 69.08,78.9739 79.5,73C 80.2688,69.4486 82.2688,66.9486 85.5,65.5 Z"/></g>
<g><path style="opacity:1" fill="#cca692" d="M 46.5,74.5 C 48.6825,75.2997 50.3492,76.7997 51.5,79C 58.2851,81.4463 65.2851,82.113 72.5,81C 75.7137,80.144 78.5471,78.644 81,76.5C 82.5991,77.0707 83.7658,78.0707 84.5,79.5C 83.8333,81.1667 83.1667,82.8333 82.5,84.5C 77.4157,88.4744 72.5823,92.8077 68,97.5C 67.7613,98.788 68.2613,99.788 69.5,100.5C 66.4648,101.734 63.4648,101.734 60.5,100.5C 60.6107,99.8826 60.944,99.3826 61.5,99C 57.9626,95.6309 54.6293,92.1309 51.5,88.5C 50.6091,86.3911 49.4424,84.3911 48,82.5C 46.9207,79.9373 46.4207,77.2706 46.5,74.5 Z"/></g>
<g><path style="opacity:1" fill="#232325" d="M 44.5,77.5 C 44.5,78.1667 44.5,78.8333 44.5,79.5C 43.6274,83.7685 43.2941,88.1018 43.5,92.5C 43.6199,94.7345 43.2865,96.9011 42.5,99C 44.6548,101.769 45.3214,104.769 44.5,108C 43.6604,109.171 42.8271,110.338 42,111.5C 41.3333,110.167 40.6667,108.833 40,107.5C 38.187,108.609 37.3537,107.942 37.5,105.5C 34.7508,105.274 32.0841,105.607 29.5,106.5C 27.5329,110.301 24.6995,113.301 21,115.5C 21.2484,119.747 22.415,123.747 24.5,127.5C 16.1667,127.5 7.83333,127.5 -0.5,127.5C -0.5,119.5 -0.5,111.5 -0.5,103.5C 10.838,99.8857 21.838,95.3857 32.5,90C 37.4051,86.5971 41.4051,82.4305 44.5,77.5 Z"/></g>
<g><path style="opacity:1" fill="#c9c6d0" d="M 84.5,79.5 C 84.8333,79.5 85.1667,79.5 85.5,79.5C 86.5114,83.1122 86.6781,86.7789 86,90.5C 84.4253,95.5452 83.2587,100.545 82.5,105.5C 82.19,104.262 81.69,104.262 81,105.5C 80.0153,103.634 79.5153,101.634 79.5,99.5C 80.6087,94.5128 81.6087,89.5128 82.5,84.5C 83.1667,82.8333 83.8333,81.1667 84.5,79.5 Z"/></g>
<g><path style="opacity:1" fill="#222223" d="M 85.5,79.5 C 85.8333,79.5 86.1667,79.5 86.5,79.5C 88.5499,83.0614 91.2166,86.228 94.5,89C 105.489,93.6053 116.489,98.1053 127.5,102.5C 127.5,110.833 127.5,119.167 127.5,127.5C 111.5,127.5 95.5,127.5 79.5,127.5C 80.1587,124.545 80.4921,121.545 80.5,118.5C 81.404,117.791 81.7373,116.791 81.5,115.5C 82.0508,112.193 82.3841,108.86 82.5,105.5C 83.2587,100.545 84.4253,95.5452 86,90.5C 86.6781,86.7789 86.5114,83.1122 85.5,79.5 Z"/></g>
<g><path style="opacity:1" fill="#e9e3ea" d="M 44.5,79.5 C 46.4512,82.7861 48.7846,85.7861 51.5,88.5C 54.6293,92.1309 57.9626,95.6309 61.5,99C 60.944,99.3826 60.6107,99.8826 60.5,100.5C 59.8333,100.833 59.1667,101.167 58.5,101.5C 57.5,101.833 56.8333,102.5 56.5,103.5C 55.5,104.833 54.5,106.167 53.5,107.5C 51.6773,110.308 49.6773,112.975 47.5,115.5C 46.8908,107.577 45.5575,99.9103 43.5,92.5C 43.2941,88.1018 43.6274,83.7685 44.5,79.5 Z"/></g>
<g><path style="opacity:1" fill="#9f949a" d="M 58.5,101.5 C 59.9599,103.463 61.6266,105.296 63.5,107C 61.1226,106.173 58.7892,105.006 56.5,103.5C 56.8333,102.5 57.5,101.833 58.5,101.5 Z"/></g>
<g><path style="opacity:1" fill="#e7e2eb" d="M 82.5,84.5 C 81.6087,89.5128 80.6087,94.5128 79.5,99.5C 79.5153,101.634 80.0153,103.634 81,105.5C 81.69,104.262 82.19,104.262 82.5,105.5C 82.3841,108.86 82.0508,112.193 81.5,115.5C 79.5596,113.218 77.5596,110.885 75.5,108.5C 74.0884,105.441 72.0884,102.775 69.5,100.5C 68.2613,99.788 67.7613,98.788 68,97.5C 72.5823,92.8077 77.4157,88.4744 82.5,84.5 Z"/></g>
<g><path style="opacity:1" fill="#c4bcc3" d="M 75.5,108.5 C 77.5596,110.885 79.5596,113.218 81.5,115.5C 81.7373,116.791 81.404,117.791 80.5,118.5C 78.5656,116.354 76.3989,114.354 74,112.5C 72.951,116.133 72.1177,119.799 71.5,123.5C 70.8333,123.167 70.1667,122.833 69.5,122.5C 66.7247,115.569 68.7247,110.903 75.5,108.5 Z"/></g>
<g><path style="opacity:1" fill="#272628" d="M 43.5,92.5 C 45.5575,99.9103 46.8908,107.577 47.5,115.5C 48.8029,119.382 49.4696,123.382 49.5,127.5C 41.1667,127.5 32.8333,127.5 24.5,127.5C 22.415,123.747 21.2484,119.747 21,115.5C 24.6995,113.301 27.5329,110.301 29.5,106.5C 32.0841,105.607 34.7508,105.274 37.5,105.5C 37.3537,107.942 38.187,108.609 40,107.5C 40.6667,108.833 41.3333,110.167 42,111.5C 42.8271,110.338 43.6604,109.171 44.5,108C 45.3214,104.769 44.6548,101.769 42.5,99C 43.2865,96.9011 43.6199,94.7345 43.5,92.5 Z"/></g>
<g><path style="opacity:1" fill="#8a868b" d="M 60.5,114.5 C 64.5216,114.689 64.5216,116.023 60.5,118.5C 60.5,117.167 60.5,115.833 60.5,114.5 Z"/></g>
<g><path style="opacity:1" fill="#c3bac2" d="M 53.5,107.5 C 53.7496,108.922 54.583,109.922 56,110.5C 56.9772,109.226 57.8106,109.226 58.5,110.5C 57.8423,111.398 57.1757,112.398 56.5,113.5C 54.1701,112.72 52.1701,113.387 50.5,115.5C 50.8566,119.407 50.8566,123.407 50.5,127.5C 50.1667,127.5 49.8333,127.5 49.5,127.5C 49.4696,123.382 48.8029,119.382 47.5,115.5C 49.6773,112.975 51.6773,110.308 53.5,107.5 Z"/></g>
<g><path style="opacity:1" fill="#e3dce5" d="M 80.5,118.5 C 80.4921,121.545 80.1587,124.545 79.5,127.5C 77.1667,127.5 74.8333,127.5 72.5,127.5C 72.1667,126.167 71.8333,124.833 71.5,123.5C 72.1177,119.799 72.951,116.133 74,112.5C 76.3989,114.354 78.5656,116.354 80.5,118.5 Z"/></g>
<g><path style="opacity:1" fill="#eae2e9" d="M 58.5,110.5 C 59.6005,111.605 60.2671,112.938 60.5,114.5C 60.5,115.833 60.5,117.167 60.5,118.5C 58.9827,121.342 57.9827,124.342 57.5,127.5C 55.1667,127.5 52.8333,127.5 50.5,127.5C 50.8566,123.407 50.8566,119.407 50.5,115.5C 52.1701,113.387 54.1701,112.72 56.5,113.5C 57.1757,112.398 57.8423,111.398 58.5,110.5 Z"/></g>
<g><path style="opacity:1" fill="#38343a" d="M 60.5,100.5 C 63.4648,101.734 66.4648,101.734 69.5,100.5C 72.0884,102.775 74.0884,105.441 75.5,108.5C 68.7247,110.903 66.7247,115.569 69.5,122.5C 67.5,123.833 65.8333,125.5 64.5,127.5C 62.1667,127.5 59.8333,127.5 57.5,127.5C 57.9827,124.342 58.9827,121.342 60.5,118.5C 64.5216,116.023 64.5216,114.689 60.5,114.5C 60.2671,112.938 59.6005,111.605 58.5,110.5C 57.8106,109.226 56.9772,109.226 56,110.5C 54.583,109.922 53.7496,108.922 53.5,107.5C 54.5,106.167 55.5,104.833 56.5,103.5C 58.7892,105.006 61.1226,106.173 63.5,107C 61.6266,105.296 59.9599,103.463 58.5,101.5C 59.1667,101.167 59.8333,100.833 60.5,100.5 Z"/></g>
<g><path style="opacity:1" fill="#302b2d" d="M 69.5,122.5 C 70.1667,122.833 70.8333,123.167 71.5,123.5C 71.8333,124.833 72.1667,126.167 72.5,127.5C 70.5,127.5 68.5,127.5 66.5,127.5C 67.925,126.078 68.925,124.411 69.5,122.5 Z"/></g>
<g><path style="opacity:1" fill="#97898c" d="M 69.5,122.5 C 68.925,124.411 67.925,126.078 66.5,127.5C 65.8333,127.5 65.1667,127.5 64.5,127.5C 65.8333,125.5 67.5,123.833 69.5,122.5 Z"/></g>
</svg>
