<?xml version="1.0" encoding="UTF-8"?>
<!DOCTYPE svg PUBLIC "-//W3C//DTD SVG 1.1//EN" "http://www.w3.org/Graphics/SVG/1.1/DTD/svg11.dtd">
<svg xmlns="http://www.w3.org/2000/svg" version="1.1" width="128px" height="128px" style="shape-rendering:geometricPrecision; text-rendering:geometricPrecision; image-rendering:optimizeQuality; fill-rule:evenodd; clip-rule:evenodd" xmlns:xlink="http://www.w3.org/1999/xlink">
<g><path style="opacity:1" fill="#1c1817" d="M 65.5,-0.5 C 72.5,-0.5 79.5,-0.5 86.5,-0.5C 86.238,0.977822 86.5713,2.31116 87.5,3.5C 88.4255,4.64055 89.2588,4.64055 90,3.5C 90.4643,4.09442 90.631,4.76109 90.5,5.5C 86.6643,6.58503 82.8309,5.58503 79,2.5C 77.2038,7.07974 78.7038,10.2464 83.5,12C 80.5629,12.3614 77.7296,11.8614 75,10.5C 74.5,10.8333 74,11.1667 73.5,11.5C 75.3359,12.919 77.3359,14.0857 79.5,15C 76.0185,14.8492 72.8518,13.6826 70,11.5C 69.6667,12.5 69.3333,13.5 69,14.5C 68.1482,13.4293 67.3149,12.4293 66.5,11.5C 65.7519,9.2651 64.9186,9.59843 64,12.5C 63.2904,11.0267 62.1238,10.3601 60.5,10.5C 60.6567,11.8734 60.49,13.2068 60,14.5C 59.3333,12.1667 59.3333,9.83333 60,7.5C 61.8082,7.11191 63.4748,7.11191 65,7.5C 65.4974,4.85397 65.6641,2.1873 65.5,-0.5 Z"/></g>
<g><path style="opacity:0.922" fill="#3c3330" d="M 86.5,-0.5 C 88.1667,-0.5 89.8333,-0.5 91.5,-0.5C 96.32,5.52155 99.6533,12.3549 101.5,20C 101.355,20.772 101.022,21.4387 100.5,22C 102.116,22.6152 103.449,23.6152 104.5,25C 103.451,25.4922 102.451,25.3256 101.5,24.5C 100.269,25.6507 100.269,26.8173 101.5,28C 100.014,30.7926 98.6811,33.6259 97.5,36.5C 96.9569,36.44 96.6236,36.1067 96.5,35.5C 97.1667,34.1667 97.8333,32.8333 98.5,31.5C 98.0431,30.7025 97.3764,30.3691 96.5,30.5C 95.325,30.719 94.325,30.3857 93.5,29.5C 96.9086,27.7809 97.242,25.6142 94.5,23C 94.9891,21.8615 95.3225,20.6948 95.5,19.5C 96.2829,17.6568 96.9495,15.6568 97.5,13.5C 96.5846,11.0197 95.0846,10.3531 93,11.5C 92.342,9.89201 92.842,8.72535 94.5,8C 93.5291,6.51869 92.1958,5.68535 90.5,5.5C 90.631,4.76109 90.4643,4.09442 90,3.5C 89.2588,4.64055 88.4255,4.64055 87.5,3.5C 86.5713,2.31116 86.238,0.977822 86.5,-0.5 Z"/></g>
<g><path style="opacity:1" fill="#272220" d="M 54.5,-0.5 C 54.8333,-0.5 55.1667,-0.5 55.5,-0.5C 53.833,1.5005 52.6663,3.83383 52,6.5C 49.7323,7.07643 48.7323,8.40976 49,10.5C 50.5716,8.43722 52.405,7.77055 54.5,8.5C 52.2163,9.58177 51.0496,11.2484 51,13.5C 51.6667,12.8333 52.3333,12.1667 53,11.5C 52.5118,15.2303 53.8452,15.5637 57,12.5C 57.2602,14.6175 58.2602,16.2842 60,17.5C 60.704,15.273 61.8706,14.9397 63.5,16.5C 60.8734,19.159 58.3734,18.8256 56,15.5C 55.3333,16.1667 54.6667,16.8333 54,17.5C 53.2303,16.4019 52.397,16.4019 51.5,17.5C 51.44,16.9569 51.1067,16.6236 50.5,16.5C 49.1841,19.028 48.0174,19.028 47,16.5C 46.6667,17.1667 46.3333,17.8333 46,18.5C 44.7635,16.8956 43.5968,15.229 42.5,13.5C 42.2243,16.7244 40.7243,19.7244 38,22.5C 37.0471,24.3731 35.8804,24.7065 34.5,23.5C 34.1362,21.5294 33.8028,19.5294 33.5,17.5C 33.9767,16.5224 34.6433,15.6891 35.5,15C 34.5509,14.3828 33.7175,14.5494 33,15.5C 32.6667,17.1667 32.3333,18.8333 32,20.5C 30.643,18.2647 30.8096,15.9314 32.5,13.5C 32.2907,12.914 31.9574,12.414 31.5,12C 32.6667,10.5 33.8333,9 35,7.5C 35.414,7.95735 35.914,8.29069 36.5,8.5C 39.2821,6.2434 42.2821,5.57673 45.5,6.5C 44.7366,7.71927 43.7366,8.71927 42.5,9.5C 42.8333,9.83333 43.1667,10.1667 43.5,10.5C 45.3159,9.18511 46.9825,7.68511 48.5,6C 47.8333,5.66667 47.1667,5.33333 46.5,5C 49.0703,2.91313 51.737,1.0798 54.5,-0.5 Z"/></g>
<g><path style="opacity:1" fill="#1c1817" d="M 55.5,-0.5 C 58.8333,-0.5 62.1667,-0.5 65.5,-0.5C 65.6641,2.1873 65.4974,4.85397 65,7.5C 63.4748,7.11191 61.8082,7.11191 60,7.5C 59.3333,9.83333 59.3333,12.1667 60,14.5C 60.49,13.2068 60.6567,11.8734 60.5,10.5C 62.1238,10.3601 63.2904,11.0267 64,12.5C 64.9186,9.59843 65.7519,9.2651 66.5,11.5C 67.0916,14.1272 67.4249,16.7938 67.5,19.5C 66.5714,18.0639 65.4048,16.7305 64,15.5C 63.6012,15.7284 63.4346,16.0618 63.5,16.5C 61.8706,14.9397 60.704,15.273 60,17.5C 58.2602,16.2842 57.2602,14.6175 57,12.5C 53.8452,15.5637 52.5118,15.2303 53,11.5C 52.3333,12.1667 51.6667,12.8333 51,13.5C 51.0496,11.2484 52.2163,9.58177 54.5,8.5C 52.405,7.77055 50.5716,8.43722 49,10.5C 48.7323,8.40976 49.7323,7.07643 52,6.5C 52.6663,3.83383 53.833,1.5005 55.5,-0.5 Z"/></g>
<g><path style="opacity:1" fill="#2e2725" d="M 90.5,5.5 C 92.1958,5.68535 93.5291,6.51869 94.5,8C 92.842,8.72535 92.342,9.89201 93,11.5C 95.0846,10.3531 96.5846,11.0197 97.5,13.5C 96.9495,15.6568 96.2829,17.6568 95.5,19.5C 94.4415,18.3998 93.6082,17.0664 93,15.5C 93,17.5 93,19.5 93,21.5C 92.1072,20.2888 91.2739,20.2888 90.5,21.5C 94.7763,24.8365 94.443,26.0032 89.5,25C 90.9928,26.1562 90.8261,26.9896 89,27.5C 87.2729,27.3535 87.1062,26.6869 88.5,25.5C 87.6004,21.0166 86.2671,20.6833 84.5,24.5C 82.4082,21.3015 79.7415,20.3015 76.5,21.5C 74.1003,22.2683 71.767,22.6017 69.5,22.5C 68.0815,21.9953 67.4148,20.9953 67.5,19.5C 67.4249,16.7938 67.0916,14.1272 66.5,11.5C 67.3149,12.4293 68.1482,13.4293 69,14.5C 69.3333,13.5 69.6667,12.5 70,11.5C 72.8518,13.6826 76.0185,14.8492 79.5,15C 77.3359,14.0857 75.3359,12.919 73.5,11.5C 74,11.1667 74.5,10.8333 75,10.5C 77.7296,11.8614 80.5629,12.3614 83.5,12C 78.7038,10.2464 77.2038,7.07974 79,2.5C 82.8309,5.58503 86.6643,6.58503 90.5,5.5 Z"/></g>
<g><path style="opacity:1" fill="#3d3330" d="M 32.5,-0.5 C 39.8333,-0.5 47.1667,-0.5 54.5,-0.5C 51.737,1.0798 49.0703,2.91313 46.5,5C 47.1667,5.33333 47.8333,5.66667 48.5,6C 46.9825,7.68511 45.3159,9.18511 43.5,10.5C 43.1667,10.1667 42.8333,9.83333 42.5,9.5C 43.7366,8.71927 44.7366,7.71927 45.5,6.5C 42.2821,5.57673 39.2821,6.2434 36.5,8.5C 35.914,8.29069 35.414,7.95735 35,7.5C 33.8333,9 32.6667,10.5 31.5,12C 31.9574,12.414 32.2907,12.914 32.5,13.5C 30.8096,15.9314 30.643,18.2647 32,20.5C 32.3333,18.8333 32.6667,17.1667 33,15.5C 33.7175,14.5494 34.5509,14.3828 35.5,15C 34.6433,15.6891 33.9767,16.5224 33.5,17.5C 33.8028,19.5294 34.1362,21.5294 34.5,23.5C 33.6364,23.7024 32.6364,24.0357 31.5,24.5C 30.846,26.1151 30.346,27.7818 30,29.5C 29.8253,25.789 29.3253,22.1224 28.5,18.5C 27.8165,18.8627 27.1499,19.1961 26.5,19.5C 26.0618,19.5654 25.7284,19.3988 25.5,19C 27.597,17.0005 28.597,14.8338 28.5,12.5C 27.6872,11.1861 26.6872,10.0195 25.5,9C 27.676,8.83706 29.5093,8.00373 31,6.5C 31.6172,5.55085 31.4506,4.71752 30.5,4C 31.1667,3.66667 31.8333,3.33333 32.5,3C 31.8288,2.01381 31.8288,0.847141 32.5,-0.5 Z"/></g>
<g><path style="opacity:1" fill="#3d2b25" d="M 63.5,16.5 C 63.4346,16.0618 63.6012,15.7284 64,15.5C 65.4048,16.7305 66.5714,18.0639 67.5,19.5C 67.4148,20.9953 68.0815,21.9953 69.5,22.5C 71.767,22.6017 74.1003,22.2683 76.5,21.5C 76.33,22.8221 76.6634,23.9887 77.5,25C 76.5509,25.6172 75.7175,25.4506 75,24.5C 74.1751,26.7008 74.6751,28.5341 76.5,30C 81.4702,30.6074 86.3035,30.1074 91,28.5C 92.8524,30.2297 92.6857,31.3964 90.5,32C 91.9733,32.7096 92.6399,33.8762 92.5,35.5C 95.4701,35.2542 96.8034,33.5876 96.5,30.5C 97.3764,30.3691 98.0431,30.7025 98.5,31.5C 97.8333,32.8333 97.1667,34.1667 96.5,35.5C 96.6236,36.1067 96.9569,36.44 97.5,36.5C 97.5,37.5 97.5,38.5 97.5,39.5C 95.7021,42.031 94.5354,45.031 94,48.5C 93.6667,45.8333 93.3333,43.1667 93,40.5C 90.6866,38.8627 88.8532,36.8627 87.5,34.5C 83.3435,33.5511 79.0102,32.8844 74.5,32.5C 70.5407,32.5018 68.0407,30.5018 67,26.5C 66.6667,27.5 66.3333,28.5 66,29.5C 65.2515,27.6675 64.2515,26.0009 63,24.5C 62.2825,25.4506 61.4491,25.6172 60.5,25C 59.7511,23.2663 59.2511,21.433 59,19.5C 58.6667,20.1667 58.3333,20.8333 58,21.5C 56.2949,20.2367 54.6282,19.9034 53,20.5C 50.532,23.9635 50.032,27.6302 51.5,31.5C 50.5688,33.0217 49.4021,34.3551 48,35.5C 44.5149,34.5012 41.0149,34.0012 37.5,34C 36.6198,35.3561 36.2865,36.8561 36.5,38.5C 35.8042,42.4517 35.3042,46.4517 35,50.5C 33.7556,47.3618 33.089,44.0284 33,40.5C 32.2917,39.6195 31.4584,38.9528 30.5,38.5C 30.5,38.1667 30.5,37.8333 30.5,37.5C 31.1174,37.3893 31.6174,37.056 32,36.5C 32.3678,37.91 33.2011,38.91 34.5,39.5C 35.48,36.9135 35.8134,34.2469 35.5,31.5C 38.0444,31.1043 40.2111,31.771 42,33.5C 44.1748,32.7454 46.3415,31.912 48.5,31C 49.0085,27.4441 49.5085,23.6108 50,19.5C 50.7172,18.9558 51.2172,18.2891 51.5,17.5C 52.397,16.4019 53.2303,16.4019 54,17.5C 54.6667,16.8333 55.3333,16.1667 56,15.5C 58.3734,18.8256 60.8734,19.159 63.5,16.5 Z"/></g>
<g><path style="opacity:1" fill="#2f2623" d="M 51.5,17.5 C 51.2172,18.2891 50.7172,18.9558 50,19.5C 49.5085,23.6108 49.0085,27.4441 48.5,31C 46.3415,31.912 44.1748,32.7454 42,33.5C 40.2111,31.771 38.0444,31.1043 35.5,31.5C 35.8134,34.2469 35.48,36.9135 34.5,39.5C 33.2011,38.91 32.3678,37.91 32,36.5C 31.6174,37.056 31.1174,37.3893 30.5,37.5C 28.3565,31.699 27.0231,25.699 26.5,19.5C 27.1499,19.1961 27.8165,18.8627 28.5,18.5C 29.3253,22.1224 29.8253,25.789 30,29.5C 30.346,27.7818 30.846,26.1151 31.5,24.5C 32.6364,24.0357 33.6364,23.7024 34.5,23.5C 35.8804,24.7065 37.0471,24.3731 38,22.5C 40.7243,19.7244 42.2243,16.7244 42.5,13.5C 43.5968,15.229 44.7635,16.8956 46,18.5C 46.3333,17.8333 46.6667,17.1667 47,16.5C 48.0174,19.028 49.1841,19.028 50.5,16.5C 51.1067,16.6236 51.44,16.9569 51.5,17.5 Z"/></g>
<g><path style="opacity:1" fill="#5e3e31" d="M 74.5,32.5 C 73.8826,32.6107 73.3826,32.944 73,33.5C 71.2663,32.7511 69.433,32.2511 67.5,32C 64.5374,29.7925 61.3707,27.9592 58,26.5C 57.5045,28.4727 57.3379,30.4727 57.5,32.5C 55.3792,32.6747 53.3792,32.3414 51.5,31.5C 50.032,27.6302 50.532,23.9635 53,20.5C 54.6282,19.9034 56.2949,20.2367 58,21.5C 58.3333,20.8333 58.6667,20.1667 59,19.5C 59.2511,21.433 59.7511,23.2663 60.5,25C 61.4491,25.6172 62.2825,25.4506 63,24.5C 64.2515,26.0009 65.2515,27.6675 66,29.5C 66.3333,28.5 66.6667,27.5 67,26.5C 68.0407,30.5018 70.5407,32.5018 74.5,32.5 Z"/></g>
<g><path style="opacity:1" fill="#2a201c" d="M 95.5,19.5 C 95.3225,20.6948 94.9891,21.8615 94.5,23C 97.242,25.6142 96.9086,27.7809 93.5,29.5C 94.325,30.3857 95.325,30.719 96.5,30.5C 96.8034,33.5876 95.4701,35.2542 92.5,35.5C 92.6399,33.8762 91.9733,32.7096 90.5,32C 92.6857,31.3964 92.8524,30.2297 91,28.5C 86.3035,30.1074 81.4702,30.6074 76.5,30C 74.6751,28.5341 74.1751,26.7008 75,24.5C 75.7175,25.4506 76.5509,25.6172 77.5,25C 76.6634,23.9887 76.33,22.8221 76.5,21.5C 79.7415,20.3015 82.4082,21.3015 84.5,24.5C 86.2671,20.6833 87.6004,21.0166 88.5,25.5C 87.1062,26.6869 87.2729,27.3535 89,27.5C 90.8261,26.9896 90.9928,26.1562 89.5,25C 94.443,26.0032 94.7763,24.8365 90.5,21.5C 91.2739,20.2888 92.1072,20.2888 93,21.5C 93,19.5 93,17.5 93,15.5C 93.6082,17.0664 94.4415,18.3998 95.5,19.5 Z"/></g>
<g><path style="opacity:1" fill="#ab7d63" d="M 74.5,32.5 C 79.0102,32.8844 83.3435,33.5511 87.5,34.5C 82.7492,35.1946 78.0826,35.1946 73.5,34.5C 71.7411,35.1079 69.9078,34.7746 68,33.5C 67,34.1667 66,34.8333 65,35.5C 63.6667,34.1667 62.3333,34.1667 61,35.5C 59.6998,34.2927 58.1998,33.6261 56.5,33.5C 56.6399,35.1238 55.9733,36.2904 54.5,37C 56.5532,38.6779 56.8866,40.5112 55.5,42.5C 51.9139,42.5438 49.5806,40.8771 48.5,37.5C 47.2319,39.3043 46.5652,41.3043 46.5,43.5C 45.5,43.5 44.5,43.5 43.5,43.5C 43.7053,40.8857 43.7053,38.5524 43.5,36.5C 41.8618,39.4363 40.5285,42.4363 39.5,45.5C 38.4138,45.38 37.7472,44.7133 37.5,43.5C 38.3311,41.5269 38.4978,39.5269 38,37.5C 37.6174,38.056 37.1174,38.3893 36.5,38.5C 36.2865,36.8561 36.6198,35.3561 37.5,34C 41.0149,34.0012 44.5149,34.5012 48,35.5C 49.4021,34.3551 50.5688,33.0217 51.5,31.5C 53.3792,32.3414 55.3792,32.6747 57.5,32.5C 57.3379,30.4727 57.5045,28.4727 58,26.5C 61.3707,27.9592 64.5374,29.7925 67.5,32C 69.433,32.2511 71.2663,32.7511 73,33.5C 73.3826,32.944 73.8826,32.6107 74.5,32.5 Z"/></g>
<g><path style="opacity:1" fill="#d0997b" d="M 69.5,41.5 C 68.5,41.5 67.5,41.5 66.5,41.5C 66.5,45.1667 66.5,48.8333 66.5,52.5C 65.7761,49.9174 64.9428,47.2507 64,44.5C 61.5141,48.6401 59.8474,52.9734 59,57.5C 60.3528,56.2958 62.0194,55.6292 64,55.5C 69.7185,56.8275 69.3852,58.1608 63,59.5C 60.8066,58.9307 58.64,58.5973 56.5,58.5C 57.2502,54.2909 57.2502,50.1242 56.5,46C 57.9548,43.7522 58.7882,41.2522 59,38.5C 62.892,38.829 66.392,39.829 69.5,41.5 Z"/></g>
<g><path style="opacity:1" fill="#c08771" d="M 73.5,34.5 C 78.0826,35.1946 82.7492,35.1946 87.5,34.5C 88.8532,36.8627 90.6866,38.8627 93,40.5C 93.3333,43.1667 93.6667,45.8333 94,48.5C 94.5354,45.031 95.7021,42.031 97.5,39.5C 98.1174,39.6107 98.6174,39.944 99,40.5C 99.8163,45.6842 99.6497,50.6842 98.5,55.5C 97.1805,56.9418 95.5138,57.6085 93.5,57.5C 92.8333,53.1667 92.1667,48.8333 91.5,44.5C 90.3788,40.5289 87.8788,37.5289 84,35.5C 84.9583,37.9346 85.4583,40.6013 85.5,43.5C 83.5082,43.6715 81.8415,43.0049 80.5,41.5C 79.2159,42.585 77.7159,43.2517 76,43.5C 73.9919,43.6932 72.4919,43.0265 71.5,41.5C 72.7842,38.5163 75.1176,37.0163 78.5,37C 76.256,36.9504 74.5893,36.1171 73.5,34.5 Z"/></g>
<g><path style="opacity:1" fill="#d39776" d="M 91.5,44.5 C 92.1105,47.961 90.9439,50.6277 88,52.5C 87.7638,50.236 87.2638,48.0693 86.5,46C 83.5706,45.2228 80.7372,45.3895 78,46.5C 77.6924,45.6919 77.1924,45.0253 76.5,44.5C 75.2679,45.1445 73.9346,45.3112 72.5,45C 72.8333,45.3333 73.1667,45.6667 73.5,46C 72.536,47.7255 71.8693,49.5588 71.5,51.5C 71.7214,54.2788 71.388,56.9455 70.5,59.5C 69.4848,58.5398 69.4848,57.3731 70.5,56C 69.3551,54.5979 68.0217,53.4312 66.5,52.5C 66.5,48.8333 66.5,45.1667 66.5,41.5C 67.5,41.5 68.5,41.5 69.5,41.5C 70.1667,41.5 70.8333,41.5 71.5,41.5C 72.4919,43.0265 73.9919,43.6932 76,43.5C 77.7159,43.2517 79.2159,42.585 80.5,41.5C 81.8415,43.0049 83.5082,43.6715 85.5,43.5C 85.4583,40.6013 84.9583,37.9346 84,35.5C 87.8788,37.5289 90.3788,40.5289 91.5,44.5 Z"/></g>
<g><path style="opacity:1" fill="#d8a386" d="M 91.5,44.5 C 92.1667,48.8333 92.8333,53.1667 93.5,57.5C 90.8797,57.991 88.5463,59.1577 86.5,61C 86.8333,61.3333 87.1667,61.6667 87.5,62C 84.7964,66.905 82.7964,72.0717 81.5,77.5C 80.0937,77.9731 79.427,78.9731 79.5,80.5C 75.8546,81.9873 72.188,83.4873 68.5,85C 64.7887,85.8253 61.122,85.6586 57.5,84.5C 54.4338,82.1101 51.1004,80.1101 47.5,78.5C 47.5,77.8333 47.8333,77.5 48.5,77.5C 49.9778,77.238 51.3112,77.5713 52.5,78.5C 55.6892,82.0019 59.6892,83.6686 64.5,83.5C 69.4636,84.2792 72.1303,82.2792 72.5,77.5C 74.1439,77.7135 75.6439,77.3802 77,76.5C 77.5585,73.7154 78.8918,71.3821 81,69.5C 81.49,68.2068 81.6567,66.8734 81.5,65.5C 85.4417,58.1193 83.775,52.4526 76.5,48.5C 74.7988,49.5543 73.1321,50.5543 71.5,51.5C 71.8693,49.5588 72.536,47.7255 73.5,46C 73.1667,45.6667 72.8333,45.3333 72.5,45C 73.9346,45.3112 75.2679,45.1445 76.5,44.5C 77.1924,45.0253 77.6924,45.6919 78,46.5C 80.7372,45.3895 83.5706,45.2228 86.5,46C 87.2638,48.0693 87.7638,50.236 88,52.5C 90.9439,50.6277 92.1105,47.961 91.5,44.5 Z"/></g>
<g><path style="opacity:1" fill="#e1ae94" d="M 73.5,34.5 C 74.5893,36.1171 76.256,36.9504 78.5,37C 75.1176,37.0163 72.7842,38.5163 71.5,41.5C 70.8333,41.5 70.1667,41.5 69.5,41.5C 66.392,39.829 62.892,38.829 59,38.5C 58.7882,41.2522 57.9548,43.7522 56.5,46C 57.2502,50.1242 57.2502,54.2909 56.5,58.5C 55.2089,59.5417 55.2089,60.7083 56.5,62C 53.692,62.9932 50.8587,63.8266 48,64.5C 43.8664,59.4445 43.5331,54.4445 47,49.5C 47.414,49.9574 47.914,50.2907 48.5,50.5C 49.4519,48.9547 49.7852,47.288 49.5,45.5C 52.3126,45.9754 54.3126,44.9754 55.5,42.5C 56.8866,40.5112 56.5532,38.6779 54.5,37C 55.9733,36.2904 56.6399,35.1238 56.5,33.5C 58.1998,33.6261 59.6998,34.2927 61,35.5C 62.3333,34.1667 63.6667,34.1667 65,35.5C 66,34.8333 67,34.1667 68,33.5C 69.9078,34.7746 71.7411,35.1079 73.5,34.5 Z"/></g>
<g><path style="opacity:1" fill="#bf917a" d="M 39.5,45.5 C 39.629,54.2725 40.629,62.9391 42.5,71.5C 41.4415,70.3998 40.6082,69.0664 40,67.5C 39.7403,63.5759 38.7403,59.9093 37,56.5C 36.6667,57.1667 36.3333,57.8333 36,58.5C 34.5098,57.2721 33.0098,57.2721 31.5,58.5C 29.9924,53.8691 28.9924,49.0358 28.5,44C 29.464,42.2745 30.1307,40.4412 30.5,38.5C 31.4584,38.9528 32.2917,39.6195 33,40.5C 33.089,44.0284 33.7556,47.3618 35,50.5C 35.3042,46.4517 35.8042,42.4517 36.5,38.5C 37.1174,38.3893 37.6174,38.056 38,37.5C 38.4978,39.5269 38.3311,41.5269 37.5,43.5C 37.7472,44.7133 38.4138,45.38 39.5,45.5 Z"/></g>
<g><path style="opacity:1" fill="#e4b497" d="M 81.5,65.5 C 79.3313,66.0818 76.998,66.0818 74.5,65.5C 73.5849,63.2459 72.2516,61.2459 70.5,59.5C 71.388,56.9455 71.7214,54.2788 71.5,51.5C 73.1321,50.5543 74.7988,49.5543 76.5,48.5C 83.775,52.4526 85.4417,58.1193 81.5,65.5 Z"/></g>
<g><path style="opacity:1" fill="#ce9a7d" d="M 55.5,42.5 C 54.3126,44.9754 52.3126,45.9754 49.5,45.5C 48.4721,45.0742 47.1388,45.0742 45.5,45.5C 44.0642,47.816 42.7309,50.316 41.5,53C 42.0904,57.832 42.757,62.6654 43.5,67.5C 45.1851,69.5707 46.8518,71.5707 48.5,73.5C 49.625,74.6522 49.625,75.6522 48.5,76.5C 46.7088,75.5168 45.2088,74.1835 44,72.5C 42.8932,73.7119 42.3932,73.3786 42.5,71.5C 40.629,62.9391 39.629,54.2725 39.5,45.5C 40.5285,42.4363 41.8618,39.4363 43.5,36.5C 43.7053,38.5524 43.7053,40.8857 43.5,43.5C 44.5,43.5 45.5,43.5 46.5,43.5C 46.5652,41.3043 47.2319,39.3043 48.5,37.5C 49.5806,40.8771 51.9139,42.5438 55.5,42.5 Z"/></g>
<g><path style="opacity:1" fill="#dca88b" d="M 49.5,45.5 C 49.7852,47.288 49.4519,48.9547 48.5,50.5C 47.914,50.2907 47.414,49.9574 47,49.5C 43.5331,54.4445 43.8664,59.4445 48,64.5C 50.8587,63.8266 53.692,62.9932 56.5,62C 55.2089,60.7083 55.2089,59.5417 56.5,58.5C 58.64,58.5973 60.8066,58.9307 63,59.5C 69.3852,58.1608 69.7185,56.8275 64,55.5C 62.0194,55.6292 60.3528,56.2958 59,57.5C 59.8474,52.9734 61.5141,48.6401 64,44.5C 64.9428,47.2507 65.7761,49.9174 66.5,52.5C 68.0217,53.4312 69.3551,54.5979 70.5,56C 69.4848,57.3731 69.4848,58.5398 70.5,59.5C 72.2516,61.2459 73.5849,63.2459 74.5,65.5C 74.5,65.8333 74.5,66.1667 74.5,66.5C 66.5885,64.9152 58.9218,65.2485 51.5,67.5C 46.8822,68.1667 46.5488,70.0001 50.5,73C 49.9056,73.4643 49.2389,73.631 48.5,73.5C 46.8518,71.5707 45.1851,69.5707 43.5,67.5C 42.757,62.6654 42.0904,57.832 41.5,53C 42.7309,50.316 44.0642,47.816 45.5,45.5C 47.1388,45.0742 48.4721,45.0742 49.5,45.5 Z"/></g>
<g><path style="opacity:1" fill="#cba38f" d="M 98.5,55.5 C 98.0569,59.1435 96.2236,60.4768 93,59.5C 92.0948,63.8373 90.5948,67.8373 88.5,71.5C 87.0618,75.1182 85.7285,78.7849 84.5,82.5C 83.759,80.6458 82.759,78.9791 81.5,77.5C 82.7964,72.0717 84.7964,66.905 87.5,62C 87.1667,61.6667 86.8333,61.3333 86.5,61C 88.5463,59.1577 90.8797,57.991 93.5,57.5C 95.5138,57.6085 97.1805,56.9418 98.5,55.5 Z"/></g>
<g><path style="opacity:1" fill="#cd927a" d="M 74.5,66.5 C 75.4345,67.5676 75.7678,68.901 75.5,70.5C 73.8008,70.3398 72.1341,70.5065 70.5,71C 68.5471,72.6326 66.3804,73.7993 64,74.5C 58.5384,74.7436 54.0384,72.9102 50.5,69C 51.056,68.6174 51.3893,68.1174 51.5,67.5C 58.9218,65.2485 66.5885,64.9152 74.5,66.5 Z"/></g>
<g><path style="opacity:1" fill="#daa989" d="M 74.5,66.5 C 74.5,66.1667 74.5,65.8333 74.5,65.5C 76.998,66.0818 79.3313,66.0818 81.5,65.5C 81.6567,66.8734 81.49,68.2068 81,69.5C 78.8918,71.3821 77.5585,73.7154 77,76.5C 75.6439,77.3802 74.1439,77.7135 72.5,77.5C 72.1303,82.2792 69.4636,84.2792 64.5,83.5C 59.6892,83.6686 55.6892,82.0019 52.5,78.5C 51.3112,77.5713 49.9778,77.238 48.5,77.5C 48.5,77.1667 48.5,76.8333 48.5,76.5C 49.625,75.6522 49.625,74.6522 48.5,73.5C 49.2389,73.631 49.9056,73.4643 50.5,73C 46.5488,70.0001 46.8822,68.1667 51.5,67.5C 51.3893,68.1174 51.056,68.6174 50.5,69C 54.0384,72.9102 58.5384,74.7436 64,74.5C 66.3804,73.7993 68.5471,72.6326 70.5,71C 72.1341,70.5065 73.8008,70.3398 75.5,70.5C 75.7678,68.901 75.4345,67.5676 74.5,66.5 Z"/></g>
<g><path style="opacity:1" fill="#b88768" d="M 47.5,78.5 C 51.1004,80.1101 54.4338,82.1101 57.5,84.5C 61.122,85.6586 64.7887,85.8253 68.5,85C 72.188,83.4873 75.8546,81.9873 79.5,80.5C 79.7512,82.1703 80.4178,83.6703 81.5,85C 80.3774,86.0437 79.0441,86.7104 77.5,87C 72,87.5 66.5,88 61,88.5C 57.9269,88.6364 55.0935,87.9698 52.5,86.5C 46.4979,85.8044 44.1645,88.4711 45.5,94.5C 44.0583,97.2296 43.0583,100.23 42.5,103.5C 41.5832,104.127 40.5832,104.461 39.5,104.5C 38.6568,102.513 37.9902,100.346 37.5,98C 38.6875,96.0559 40.3542,94.5559 42.5,93.5C 43.0905,89.769 43.9238,86.1024 45,82.5C 45.414,82.9574 45.914,83.2907 46.5,83.5C 47.4519,81.9547 47.7852,80.288 47.5,78.5 Z"/></g>
<g><path style="opacity:1" fill="#af8d79" d="M 42.5,71.5 C 42.3932,73.3786 42.8932,73.7119 44,72.5C 45.2088,74.1835 46.7088,75.5168 48.5,76.5C 48.5,76.8333 48.5,77.1667 48.5,77.5C 47.8333,77.5 47.5,77.8333 47.5,78.5C 47.7852,80.288 47.4519,81.9547 46.5,83.5C 45.914,83.2907 45.414,82.9574 45,82.5C 43.9238,86.1024 43.0905,89.769 42.5,93.5C 40.3542,94.5559 38.6875,96.0559 37.5,98C 37.9902,100.346 38.6568,102.513 39.5,104.5C 39.8333,105.833 40.1667,107.167 40.5,108.5C 40.5,108.833 40.5,109.167 40.5,109.5C 39.8333,109.167 39.1667,108.833 38.5,108.5C 37.5844,105.256 36.5844,102.089 35.5,99C 35.1607,95.6719 36.6607,93.8386 40,93.5C 40.4828,92.552 40.6495,91.552 40.5,90.5C 40.8759,84.3281 40.2092,78.3281 38.5,72.5C 33.7858,71.3264 32.7858,68.8264 35.5,65C 34.1667,63.3333 34.1667,61.6667 35.5,60C 33.9419,59.79 32.6085,59.29 31.5,58.5C 33.0098,57.2721 34.5098,57.2721 36,58.5C 36.3333,57.8333 36.6667,57.1667 37,56.5C 38.7403,59.9093 39.7403,63.5759 40,67.5C 40.6082,69.0664 41.4415,70.3998 42.5,71.5 Z"/></g>
<g><path style="opacity:0.106" fill="#9a7966" d="M 88.5,71.5 C 88.5293,76.7655 87.8627,81.9322 86.5,87C 86.5687,88.9855 87.2353,90.4855 88.5,91.5C 88.9666,94.2974 90.6333,95.6308 93.5,95.5C 93.7678,97.099 93.4345,98.4324 92.5,99.5C 92.6716,98.5084 92.3382,97.8417 91.5,97.5C 89.983,96.2651 88.3163,96.2651 86.5,97.5C 85.2386,92.3986 84.572,87.3986 84.5,82.5C 85.7285,78.7849 87.0618,75.1182 88.5,71.5 Z"/></g>
<g><path style="opacity:1" fill="#c08d6d" d="M 81.5,77.5 C 82.759,78.9791 83.759,80.6458 84.5,82.5C 84.572,87.3986 85.2386,92.3986 86.5,97.5C 88.3163,96.2651 89.983,96.2651 91.5,97.5C 90.3032,100.482 88.9699,103.482 87.5,106.5C 86.1007,100.265 83.7673,94.5983 80.5,89.5C 76.5139,89.3787 72.5139,89.0454 68.5,88.5C 64.0152,89.1962 59.5152,89.8629 55,90.5C 52.9803,89.9681 52.147,88.6348 52.5,86.5C 55.0935,87.9698 57.9269,88.6364 61,88.5C 66.5,88 72,87.5 77.5,87C 79.0441,86.7104 80.3774,86.0437 81.5,85C 80.4178,83.6703 79.7512,82.1703 79.5,80.5C 79.427,78.9731 80.0937,77.9731 81.5,77.5 Z"/></g>
<g><path style="opacity:1" fill="#cb997a" d="M 52.5,86.5 C 52.147,88.6348 52.9803,89.9681 55,90.5C 59.5152,89.8629 64.0152,89.1962 68.5,88.5C 72.5139,89.0454 76.5139,89.3787 80.5,89.5C 83.7673,94.5983 86.1007,100.265 87.5,106.5C 85.8466,107.799 84.3466,107.466 83,105.5C 81.9257,101.695 80.5924,98.0286 79,94.5C 78.6667,94.8333 78.3333,95.1667 78,95.5C 77.2613,94.4258 76.2613,93.7591 75,93.5C 73.6998,94.7073 72.1998,95.3739 70.5,95.5C 69.5041,95.4142 68.6708,95.7476 68,96.5C 67.1628,94.6494 66.3295,92.8161 65.5,91C 63.5116,90.8195 61.5116,90.9862 59.5,91.5C 59.4802,93.143 60.1468,94.4763 61.5,95.5C 59.1667,97.1667 56.8333,98.8333 54.5,100.5C 53.914,100.291 53.414,99.9574 53,99.5C 53.474,95.2319 51.8074,92.2319 48,90.5C 47.6626,92.0731 46.8292,93.4065 45.5,94.5C 44.1645,88.4711 46.4979,85.8044 52.5,86.5 Z"/></g>
<g><path style="opacity:1" fill="#2c2c36" d="M 40.5,90.5 C 40.6495,91.552 40.4828,92.552 40,93.5C 36.6607,93.8386 35.1607,95.6719 35.5,99C 36.5844,102.089 37.5844,105.256 38.5,108.5C 35.1476,106.542 33.6476,103.542 34,99.5C 33.5172,100.448 33.3505,101.448 33.5,102.5C 32.7321,101.737 32.2321,100.737 32,99.5C 30.6726,102.497 29.3393,105.497 28,108.5C 25.9737,108.915 24.4737,109.915 23.5,111.5C 22.9527,108.425 21.9527,105.425 20.5,102.5C 19.5745,103.641 18.7412,103.641 18,102.5C 17.7679,103.737 17.2679,104.737 16.5,105.5C 15.5041,105.586 14.6708,105.252 14,104.5C 11.8006,107.969 9.3006,108.302 6.5,105.5C 7.90254,104.069 9.5692,102.902 11.5,102C 13.764,101.764 15.9307,101.264 18,100.5C 18.3333,100.833 18.6667,101.167 19,101.5C 21.126,99.6234 23.626,98.6234 26.5,98.5C 26.5271,96.8007 27.1938,95.4674 28.5,94.5C 31.9215,91.8037 35.9215,90.4703 40.5,90.5 Z"/></g>
<g><path style="opacity:1" fill="#cd9d81" d="M 70.5,95.5 C 70.5,96.8333 70.5,98.1667 70.5,99.5C 66.4862,99.3345 62.4862,99.5012 58.5,100C 59.3366,101.011 59.67,102.178 59.5,103.5C 57.0902,102.611 54.5902,101.945 52,101.5C 50.0448,101.641 48.5448,102.474 47.5,104C 48.0821,106.974 49.4155,109.474 51.5,111.5C 49.7542,112.218 49.0875,113.218 49.5,114.5C 46.8232,112.322 44.3232,109.989 42,107.5C 41.6174,108.056 41.1174,108.389 40.5,108.5C 40.1667,107.167 39.8333,105.833 39.5,104.5C 40.5832,104.461 41.5832,104.127 42.5,103.5C 43.0583,100.23 44.0583,97.2296 45.5,94.5C 46.8292,93.4065 47.6626,92.0731 48,90.5C 51.8074,92.2319 53.474,95.2319 53,99.5C 53.414,99.9574 53.914,100.291 54.5,100.5C 56.8333,98.8333 59.1667,97.1667 61.5,95.5C 60.1468,94.4763 59.4802,93.143 59.5,91.5C 61.5116,90.9862 63.5116,90.8195 65.5,91C 66.3295,92.8161 67.1628,94.6494 68,96.5C 68.6708,95.7476 69.5041,95.4142 70.5,95.5 Z"/></g>
<g><path style="opacity:1" fill="#2d2c39" d="M 99.5,95.5 C 108.92,99.3065 118.254,103.306 127.5,107.5C 127.5,109.5 127.5,111.5 127.5,113.5C 125.8,113.374 124.3,112.707 123,111.5C 121.739,111.759 120.739,112.426 120,113.5C 119.692,112.692 119.192,112.025 118.5,111.5C 114.622,116.804 113.122,116.138 114,109.5C 112.989,108.663 111.822,108.33 110.5,108.5C 110.349,105.282 109.516,104.949 108,107.5C 107.751,106.376 107.251,105.376 106.5,104.5C 104.749,106.064 103.749,108.064 103.5,110.5C 102.89,111.391 102.557,112.391 102.5,113.5C 98.4993,111.575 98.4993,109.409 102.5,107C 101.584,106.626 100.75,106.126 100,105.5C 98.9085,107.117 97.4085,108.117 95.5,108.5C 94.6765,106.545 94.5099,104.545 95,102.5C 96.0084,102.018 97.175,101.852 98.5,102C 99.1667,100.667 100.167,99.6667 101.5,99C 100.167,98.3333 98.8333,97.6667 97.5,97C 98.0442,96.2828 98.7109,95.7828 99.5,95.5 Z"/></g>
<g><path style="opacity:1" fill="#d3a489" d="M 87.5,106.5 C 88.9699,103.482 90.3032,100.482 91.5,97.5C 92.3382,97.8417 92.6716,98.5084 92.5,99.5C 91.1707,105.816 88.1707,111.149 83.5,115.5C 79.7627,115.505 76.4294,116.505 73.5,118.5C 73.5875,115.402 73.0875,115.068 72,117.5C 68.979,115.873 68.8123,113.873 71.5,111.5C 70.0622,109.655 70.3956,108.489 72.5,108C 70.2751,106.869 67.9417,106.036 65.5,105.5C 63.641,106.69 61.8077,106.69 60,105.5C 58.2847,106.604 56.7847,107.938 55.5,109.5C 54.5416,109.953 53.7083,110.619 53,111.5C 52.2208,108.903 51.7208,108.903 51.5,111.5C 49.4155,109.474 48.0821,106.974 47.5,104C 48.5448,102.474 50.0448,101.641 52,101.5C 54.5902,101.945 57.0902,102.611 59.5,103.5C 59.67,102.178 59.3366,101.011 58.5,100C 62.4862,99.5012 66.4862,99.3345 70.5,99.5C 70.5,98.1667 70.5,96.8333 70.5,95.5C 72.1998,95.3739 73.6998,94.7073 75,93.5C 76.2613,93.7591 77.2613,94.4258 78,95.5C 78.3333,95.1667 78.6667,94.8333 79,94.5C 80.5924,98.0286 81.9257,101.695 83,105.5C 84.3466,107.466 85.8466,107.799 87.5,106.5 Z"/></g>
<g><path style="opacity:1" fill="#4a4c58" d="M 28.5,94.5 C 27.1938,95.4674 26.5271,96.8007 26.5,98.5C 23.626,98.6234 21.126,99.6234 19,101.5C 18.6667,101.167 18.3333,100.833 18,100.5C 15.9307,101.264 13.764,101.764 11.5,102C 9.5692,102.902 7.90254,104.069 6.5,105.5C 4.16667,105.5 1.83333,105.5 -0.5,105.5C -0.5,105.167 -0.5,104.833 -0.5,104.5C 9.03486,100.766 18.7015,97.4329 28.5,94.5 Z"/></g>
<g><path style="opacity:1" fill="#dbab91" d="M 73.5,118.5 C 73.573,120.027 72.9063,121.027 71.5,121.5C 70.325,121.719 69.325,121.386 68.5,120.5C 68.2548,115.979 65.9215,113.979 61.5,114.5C 61.6882,112.897 61.1882,111.563 60,110.5C 58.984,111.634 58.3173,111.301 58,109.5C 57.0228,110.774 56.1894,110.774 55.5,109.5C 56.7847,107.938 58.2847,106.604 60,105.5C 61.8077,106.69 63.641,106.69 65.5,105.5C 67.9417,106.036 70.2751,106.869 72.5,108C 70.3956,108.489 70.0622,109.655 71.5,111.5C 68.8123,113.873 68.979,115.873 72,117.5C 73.0875,115.068 73.5875,115.402 73.5,118.5 Z"/></g>
<g><path style="opacity:1" fill="#23232f" d="M 127.5,113.5 C 127.5,115.5 127.5,117.5 127.5,119.5C 124.412,123.415 123.745,122.748 125.5,117.5C 120.833,117.5 116.167,117.5 111.5,117.5C 111.517,121.377 110.351,122.043 108,119.5C 107.5,120.5 107,121.5 106.5,122.5C 110.116,122.161 111.116,123.828 109.5,127.5C 105.5,127.5 101.5,127.5 97.5,127.5C 98.2066,125.866 99.3732,124.532 101,123.5C 101.333,124.167 101.667,124.833 102,125.5C 101.925,120.99 102.759,116.49 104.5,112C 104.43,111.235 104.097,110.735 103.5,110.5C 103.749,108.064 104.749,106.064 106.5,104.5C 107.251,105.376 107.751,106.376 108,107.5C 109.516,104.949 110.349,105.282 110.5,108.5C 111.822,108.33 112.989,108.663 114,109.5C 113.122,116.138 114.622,116.804 118.5,111.5C 119.192,112.025 119.692,112.692 120,113.5C 120.739,112.426 121.739,111.759 123,111.5C 124.3,112.707 125.8,113.374 127.5,113.5 Z"/></g>
<g><path style="opacity:1" fill="#20222f" d="M 23.5,111.5 C 25.2718,115.428 25.9384,119.428 25.5,123.5C 28.1562,124.614 30.8229,124.614 33.5,123.5C 38.0899,121.392 41.0899,122.725 42.5,127.5C 34.8333,127.5 27.1667,127.5 19.5,127.5C 18.9978,123.411 17.9978,119.411 16.5,115.5C 17.8272,112.147 17.8272,108.814 16.5,105.5C 17.2679,104.737 17.7679,103.737 18,102.5C 18.7412,103.641 19.5745,103.641 20.5,102.5C 21.9527,105.425 22.9527,108.425 23.5,111.5 Z"/></g>
<g><path style="opacity:1" fill="#d8ab95" d="M 51.5,111.5 C 51.7208,108.903 52.2208,108.903 53,111.5C 53.7083,110.619 54.5416,109.953 55.5,109.5C 56.1894,110.774 57.0228,110.774 58,109.5C 58.3173,111.301 58.984,111.634 60,110.5C 61.1882,111.563 61.6882,112.897 61.5,114.5C 65.9215,113.979 68.2548,115.979 68.5,120.5C 69.325,121.386 70.325,121.719 71.5,121.5C 69.7354,122.461 67.7354,122.795 65.5,122.5C 65.33,121.178 65.6634,120.011 66.5,119C 64.7289,116.887 63.2289,117.053 62,119.5C 60.9805,118.313 59.8139,117.313 58.5,116.5C 56.2806,117.243 54.9472,118.243 54.5,119.5C 52.9707,119.471 51.804,118.804 51,117.5C 50.6667,117.833 50.3333,118.167 50,118.5C 48.0455,115.756 45.5455,113.756 42.5,112.5C 41.5987,111.71 40.9321,110.71 40.5,109.5C 40.5,109.167 40.5,108.833 40.5,108.5C 41.1174,108.389 41.6174,108.056 42,107.5C 44.3232,109.989 46.8232,112.322 49.5,114.5C 49.0875,113.218 49.7542,112.218 51.5,111.5 Z"/></g>
<g><path style="opacity:1" fill="#232532" d="M 13.5,127.5 C 8.83333,127.5 4.16667,127.5 -0.5,127.5C -0.5,123.5 -0.5,119.5 -0.5,115.5C 0.789384,113.752 2.28938,113.419 4,114.5C 5.31314,109.532 7.14648,109.532 9.5,114.5C 10.2621,113.372 10.9288,112.205 11.5,111C 12.1667,110.333 12.8333,110.333 13.5,111C 14.8154,116.34 14.8154,121.84 13.5,127.5 Z"/></g>
<g><path style="opacity:1" fill="#29232b" d="M 88.5,91.5 C 92.7838,90.8192 96.4504,92.1525 99.5,95.5C 98.7109,95.7828 98.0442,96.2828 97.5,97C 98.8333,97.6667 100.167,98.3333 101.5,99C 100.167,99.6667 99.1667,100.667 98.5,102C 97.175,101.852 96.0084,102.018 95,102.5C 94.5099,104.545 94.6765,106.545 95.5,108.5C 95.6633,110.857 95.4966,113.19 95,115.5C 93.6796,115.799 92.1796,115.966 90.5,116C 89.8742,116.75 89.3742,117.584 89,118.5C 88.6667,118.167 88.3333,117.833 88,117.5C 86.7292,118.883 85.2292,119.883 83.5,120.5C 80.8602,120.954 78.5268,122.121 76.5,124C 75.1772,124.816 74.5106,125.983 74.5,127.5C 73.5,127.5 72.5,127.5 71.5,127.5C 73.168,125.66 74.668,123.66 76,121.5C 78.6513,119.584 81.1513,117.584 83.5,115.5C 88.1707,111.149 91.1707,105.816 92.5,99.5C 93.4345,98.4324 93.7678,97.099 93.5,95.5C 90.6333,95.6308 88.9666,94.2974 88.5,91.5 Z"/></g>
<g><path style="opacity:1" fill="#242331" d="M 102.5,113.5 C 102.257,117.987 100.423,121.653 97,124.5C 92.3893,123.22 87.8893,121.886 83.5,120.5C 85.2292,119.883 86.7292,118.883 88,117.5C 88.3333,117.833 88.6667,118.167 89,118.5C 89.3742,117.584 89.8742,116.75 90.5,116C 92.1796,115.966 93.6796,115.799 95,115.5C 95.4966,113.19 95.6633,110.857 95.5,108.5C 97.4085,108.117 98.9085,107.117 100,105.5C 100.75,106.126 101.584,106.626 102.5,107C 98.4993,109.409 98.4993,111.575 102.5,113.5 Z"/></g>
<g><path style="opacity:1" fill="#242635" d="M 33.5,102.5 C 32.3559,106.36 31.6893,110.36 31.5,114.5C 32.8221,114.67 33.9887,114.337 35,113.5C 38.4372,116.604 37.9372,119.104 33.5,121C 34.5981,121.77 34.5981,122.603 33.5,123.5C 30.8229,124.614 28.1562,124.614 25.5,123.5C 25.9384,119.428 25.2718,115.428 23.5,111.5C 24.4737,109.915 25.9737,108.915 28,108.5C 29.3393,105.497 30.6726,102.497 32,99.5C 32.2321,100.737 32.7321,101.737 33.5,102.5 Z"/></g>
<g><path style="opacity:1" fill="#d7afa0" d="M 42.5,112.5 C 45.5455,113.756 48.0455,115.756 50,118.5C 50.3333,118.167 50.6667,117.833 51,117.5C 51.804,118.804 52.9707,119.471 54.5,119.5C 54.9472,118.243 56.2806,117.243 58.5,116.5C 59.8139,117.313 60.9805,118.313 62,119.5C 63.2289,117.053 64.7289,116.887 66.5,119C 65.6634,120.011 65.33,121.178 65.5,122.5C 67.7354,122.795 69.7354,122.461 71.5,121.5C 72.9063,121.027 73.573,120.027 73.5,118.5C 76.4294,116.505 79.7627,115.505 83.5,115.5C 81.1513,117.584 78.6513,119.584 76,121.5C 74.668,123.66 73.168,125.66 71.5,127.5C 65.5,127.5 59.5,127.5 53.5,127.5C 50.0657,122.284 46.399,117.284 42.5,112.5 Z"/></g>
<g><path style="opacity:1" fill="#252733" d="M 16.5,105.5 C 17.8272,108.814 17.8272,112.147 16.5,115.5C 17.9978,119.411 18.9978,123.411 19.5,127.5C 17.5,127.5 15.5,127.5 13.5,127.5C 14.8154,121.84 14.8154,116.34 13.5,111C 12.8333,110.333 12.1667,110.333 11.5,111C 10.9288,112.205 10.2621,113.372 9.5,114.5C 7.14648,109.532 5.31314,109.532 4,114.5C 2.28938,113.419 0.789384,113.752 -0.5,115.5C -0.5,112.167 -0.5,108.833 -0.5,105.5C 1.83333,105.5 4.16667,105.5 6.5,105.5C 9.3006,108.302 11.8006,107.969 14,104.5C 14.6708,105.252 15.5041,105.586 16.5,105.5 Z"/></g>
<g><path style="opacity:1" fill="#262533" d="M 127.5,119.5 C 127.5,122.167 127.5,124.833 127.5,127.5C 121.5,127.5 115.5,127.5 109.5,127.5C 111.116,123.828 110.116,122.161 106.5,122.5C 107,121.5 107.5,120.5 108,119.5C 110.351,122.043 111.517,121.377 111.5,117.5C 116.167,117.5 120.833,117.5 125.5,117.5C 123.745,122.748 124.412,123.415 127.5,119.5 Z"/></g>
<g><path style="opacity:1" fill="#212029" d="M 38.5,108.5 C 39.1667,108.833 39.8333,109.167 40.5,109.5C 40.9321,110.71 41.5987,111.71 42.5,112.5C 46.399,117.284 50.0657,122.284 53.5,127.5C 49.8333,127.5 46.1667,127.5 42.5,127.5C 41.0899,122.725 38.0899,121.392 33.5,123.5C 34.5981,122.603 34.5981,121.77 33.5,121C 37.9372,119.104 38.4372,116.604 35,113.5C 33.9887,114.337 32.8221,114.67 31.5,114.5C 31.6893,110.36 32.3559,106.36 33.5,102.5C 33.3505,101.448 33.5172,100.448 34,99.5C 33.6476,103.542 35.1476,106.542 38.5,108.5 Z"/></g>
<g><path style="opacity:1" fill="#1c1c27" d="M 103.5,110.5 C 104.097,110.735 104.43,111.235 104.5,112C 102.759,116.49 101.925,120.99 102,125.5C 101.667,124.833 101.333,124.167 101,123.5C 99.3732,124.532 98.2066,125.866 97.5,127.5C 89.8333,127.5 82.1667,127.5 74.5,127.5C 74.5106,125.983 75.1772,124.816 76.5,124C 78.5268,122.121 80.8602,120.954 83.5,120.5C 87.8893,121.886 92.3893,123.22 97,124.5C 100.423,121.653 102.257,117.987 102.5,113.5C 102.557,112.391 102.89,111.391 103.5,110.5 Z"/></g>
</svg>
