<?xml version="1.0" encoding="UTF-8"?>
<!DOCTYPE svg PUBLIC "-//W3C//DTD SVG 1.1//EN" "http://www.w3.org/Graphics/SVG/1.1/DTD/svg11.dtd">
<svg xmlns="http://www.w3.org/2000/svg" version="1.1" width="128px" height="128px" style="shape-rendering:geometricPrecision; text-rendering:geometricPrecision; image-rendering:optimizeQuality; fill-rule:evenodd; clip-rule:evenodd" xmlns:xlink="http://www.w3.org/1999/xlink">
<g><path style="opacity:1" fill="#2b262d" d="M 37.5,-0.5 C 42.5,-0.5 47.5,-0.5 52.5,-0.5C 50.2964,-0.230345 48.2964,1.10299 46.5,3.5C 44.9701,5.52036 44.3035,7.52036 44.5,9.5C 44.6667,9.83333 44.8333,10.1667 45,10.5C 45.9147,9.67209 46.5814,8.67209 47,7.5C 47.3333,9.16667 47.6667,10.8333 48,12.5C 49.2559,8.98373 51.2559,5.98373 54,3.5C 54.9195,3.9302 55.7528,4.26353 56.5,4.5C 55.4457,6.20125 54.4457,7.86791 53.5,9.5C 52.5041,9.41423 51.6708,9.74756 51,10.5C 50,13.5 49,16.5 48,19.5C 47.0138,20.1712 45.8471,20.1712 44.5,19.5C 44.5654,19.0618 44.3988,18.7284 44,18.5C 43,19.1667 42,19.8333 41,20.5C 41,18.5 41,16.5 41,14.5C 40.6924,15.3081 40.1924,15.9747 39.5,16.5C 38.7189,15.2713 38.2189,13.938 38,12.5C 36.9562,14.7148 36.2895,17.0481 36,19.5C 35.586,19.0426 35.086,18.7093 34.5,18.5C 33.9426,16.2825 33.9426,13.9491 34.5,11.5C 35.5,11.5 36.5,11.5 37.5,11.5C 37.2865,9.85613 37.6198,8.35613 38.5,7C 38,6.5 37.5,6 37,5.5C 34.7875,8.09249 32.9542,10.9258 31.5,14C 31.7037,19.3429 31.7037,24.8429 31.5,30.5C 28.1195,19.1795 30.1195,8.84618 37.5,-0.5 Z"/></g>
<g><path style="opacity:1" fill="#201c20" d="M 52.5,-0.5 C 63.1667,-0.5 73.8333,-0.5 84.5,-0.5C 85.7765,1.94999 87.2765,4.28333 89,6.5C 89.49,7.79323 89.6567,9.12656 89.5,10.5C 88.5,10.5 87.5,10.5 86.5,10.5C 88.2388,14.8296 89.5721,19.3296 90.5,24C 89.815,29.5595 88.1484,29.7261 85.5,24.5C 84.8076,25.0253 84.3076,25.6919 84,26.5C 82.8684,24.6608 82.0351,22.6608 81.5,20.5C 79.4332,19.8659 77.5998,18.8659 76,17.5C 75.0697,12.7103 73.7364,8.04361 72,3.5C 71.3457,2.30441 70.8457,2.30441 70.5,3.5C 71.4822,6.09564 72.1489,8.76231 72.5,11.5C 70.5,11.5 68.5,11.5 66.5,11.5C 65.0093,9.87317 63.5093,8.2065 62,6.5C 59.2953,7.93907 56.462,8.93907 53.5,9.5C 54.4457,7.86791 55.4457,6.20125 56.5,4.5C 55.7528,4.26353 54.9195,3.9302 54,3.5C 51.2559,5.98373 49.2559,8.98373 48,12.5C 47.6667,10.8333 47.3333,9.16667 47,7.5C 46.5814,8.67209 45.9147,9.67209 45,10.5C 44.8333,10.1667 44.6667,9.83333 44.5,9.5C 44.3035,7.52036 44.9701,5.52036 46.5,3.5C 48.2964,1.10299 50.2964,-0.230345 52.5,-0.5 Z"/></g>
<g><path style="opacity:1" fill="#2d2325" d="M 84.5,-0.5 C 86.1667,-0.5 87.8333,-0.5 89.5,-0.5C 93.983,5.96613 96.3163,13.1328 96.5,21C 95.387,25.7331 94.7204,30.5665 94.5,35.5C 93.3263,36.5137 92.6596,37.847 92.5,39.5C 91.7717,41.5115 90.9383,43.5115 90,45.5C 89.4265,41.1523 88.7599,36.819 88,32.5C 86.2111,30.771 84.0444,30.1043 81.5,30.5C 78.0327,29.2276 74.3661,28.2276 70.5,27.5C 72.396,26.5344 74.396,26.2011 76.5,26.5C 76.6633,24.1432 76.4966,21.8098 76,19.5C 75.6667,19.8333 75.3333,20.1667 75,20.5C 74.3768,16.7108 72.2101,14.3775 68.5,13.5C 67.5,13.1667 66.8333,12.5 66.5,11.5C 68.5,11.5 70.5,11.5 72.5,11.5C 72.1489,8.76231 71.4822,6.09564 70.5,3.5C 70.8457,2.30441 71.3457,2.30441 72,3.5C 73.7364,8.04361 75.0697,12.7103 76,17.5C 77.5998,18.8659 79.4332,19.8659 81.5,20.5C 82.0351,22.6608 82.8684,24.6608 84,26.5C 84.3076,25.6919 84.8076,25.0253 85.5,24.5C 88.1484,29.7261 89.815,29.5595 90.5,24C 89.5721,19.3296 88.2388,14.8296 86.5,10.5C 87.5,10.5 88.5,10.5 89.5,10.5C 89.6567,9.12656 89.49,7.79323 89,6.5C 87.2765,4.28333 85.7765,1.94999 84.5,-0.5 Z"/></g>
<g><path style="opacity:1" fill="#a97c68" d="M 66.5,11.5 C 66.8333,12.5 67.5,13.1667 68.5,13.5C 68.8333,14.8333 69.1667,16.1667 69.5,17.5C 66.0504,18.2436 64.3838,16.9103 64.5,13.5C 62.712,13.2148 61.0453,13.5481 59.5,14.5C 57.3034,18.4373 55.3034,22.4373 53.5,26.5C 52.8826,26.3893 52.3826,26.056 52,25.5C 51.3333,22.5 51.3333,19.5 52,16.5C 54.7209,13.6196 57.8876,11.2862 61.5,9.5C 62.8498,10.9501 64.5165,11.6168 66.5,11.5 Z"/></g>
<g><path style="opacity:1" fill="#271e1f" d="M 44.5,19.5 C 42.9418,21.4327 42.4418,23.4327 43,25.5C 40.9656,26.8621 38.7989,27.8621 36.5,28.5C 36.2627,29.791 36.596,30.791 37.5,31.5C 37.3927,35.9173 36.7261,40.2506 35.5,44.5C 34.6781,42.8614 34.0114,41.1947 33.5,39.5C 33.3404,37.847 32.6737,36.5137 31.5,35.5C 31.5,33.8333 31.5,32.1667 31.5,30.5C 31.7037,24.8429 31.7037,19.3429 31.5,14C 32.9542,10.9258 34.7875,8.09249 37,5.5C 37.5,6 38,6.5 38.5,7C 37.6198,8.35613 37.2865,9.85613 37.5,11.5C 36.5,11.5 35.5,11.5 34.5,11.5C 33.9426,13.9491 33.9426,16.2825 34.5,18.5C 35.086,18.7093 35.586,19.0426 36,19.5C 36.2895,17.0481 36.9562,14.7148 38,12.5C 38.2189,13.938 38.7189,15.2713 39.5,16.5C 40.1924,15.9747 40.6924,15.3081 41,14.5C 41,16.5 41,18.5 41,20.5C 42,19.8333 43,19.1667 44,18.5C 44.3988,18.7284 44.5654,19.0618 44.5,19.5 Z"/></g>
<g><path style="opacity:1" fill="#47302a" d="M 66.5,11.5 C 64.5165,11.6168 62.8498,10.9501 61.5,9.5C 57.8876,11.2862 54.7209,13.6196 52,16.5C 51.3333,19.5 51.3333,22.5 52,25.5C 52.3826,26.056 52.8826,26.3893 53.5,26.5C 54.609,26.5569 55.609,26.8902 56.5,27.5C 50.5219,29.3151 44.1885,30.6484 37.5,31.5C 36.596,30.791 36.2627,29.791 36.5,28.5C 38.7989,27.8621 40.9656,26.8621 43,25.5C 42.4418,23.4327 42.9418,21.4327 44.5,19.5C 45.8471,20.1712 47.0138,20.1712 48,19.5C 49,16.5 50,13.5 51,10.5C 51.6708,9.74756 52.5041,9.41423 53.5,9.5C 56.462,8.93907 59.2953,7.93907 62,6.5C 63.5093,8.2065 65.0093,9.87317 66.5,11.5 Z"/></g>
<g><path style="opacity:1" fill="#d7af9b" d="M 69.5,17.5 C 69.8887,21.4137 69.2221,25.0804 67.5,28.5C 64.9908,29.1131 62.4908,29.7798 60,30.5C 59.5776,28.5743 58.4109,27.5743 56.5,27.5C 55.609,26.8902 54.609,26.5569 53.5,26.5C 55.3034,22.4373 57.3034,18.4373 59.5,14.5C 61.0453,13.5481 62.712,13.2148 64.5,13.5C 64.3838,16.9103 66.0504,18.2436 69.5,17.5 Z"/></g>
<g><path style="opacity:1" fill="#6c4b42" d="M 68.5,13.5 C 72.2101,14.3775 74.3768,16.7108 75,20.5C 75.3333,20.1667 75.6667,19.8333 76,19.5C 76.4966,21.8098 76.6633,24.1432 76.5,26.5C 74.396,26.2011 72.396,26.5344 70.5,27.5C 74.3661,28.2276 78.0327,29.2276 81.5,30.5C 77.4763,29.5573 73.4763,29.5573 69.5,30.5C 68.2867,30.2528 67.62,29.5862 67.5,28.5C 69.2221,25.0804 69.8887,21.4137 69.5,17.5C 69.1667,16.1667 68.8333,14.8333 68.5,13.5 Z"/></g>
<g><path style="opacity:1" fill="#a8625d" d="M 31.5,35.5 C 32.6737,36.5137 33.3404,37.847 33.5,39.5C 32.7777,40.5511 31.7777,41.2178 30.5,41.5C 29.5517,39.3279 29.885,37.3279 31.5,35.5 Z"/></g>
<g><path style="opacity:1" fill="#ab685a" d="M 94.5,35.5 C 95.7563,37.941 95.7563,40.2743 94.5,42.5C 93.8333,41.5 93.1667,40.5 92.5,39.5C 92.6596,37.847 93.3263,36.5137 94.5,35.5 Z"/></g>
<g><path style="opacity:1" fill="#cca28f" d="M 56.5,27.5 C 58.4109,27.5743 59.5776,28.5743 60,30.5C 62.4908,29.7798 64.9908,29.1131 67.5,28.5C 67.62,29.5862 68.2867,30.2528 69.5,30.5C 73.4763,29.5573 77.4763,29.5573 81.5,30.5C 84.0444,30.1043 86.2111,30.771 88,32.5C 88.7599,36.819 89.4265,41.1523 90,45.5C 90.9383,43.5115 91.7717,41.5115 92.5,39.5C 93.1667,40.5 93.8333,41.5 94.5,42.5C 95.17,49.3358 92.8367,54.8358 87.5,59C 86.1969,61.7435 85.1969,64.5768 84.5,67.5C 83.7677,66.1917 82.9344,64.8584 82,63.5C 81.6824,65.0609 80.8491,66.2276 79.5,67C 80.5523,68.7165 79.8856,69.7165 77.5,70C 76.7476,70.6708 76.4142,71.5041 76.5,72.5C 66.3508,78.213 56.6842,77.5463 47.5,70.5C 46.8122,67.9427 45.6455,65.6093 44,63.5C 43.501,67.8206 43.3343,72.1539 43.5,76.5C 42.8333,76.8333 42.1667,77.1667 41.5,77.5C 41.5,77.1667 41.5,76.8333 41.5,76.5C 42.4344,69.7983 41.1011,63.465 37.5,57.5C 36.2519,56.9598 35.0852,56.2931 34,55.5C 32.1435,51.0019 30.9768,46.3352 30.5,41.5C 31.7777,41.2178 32.7777,40.5511 33.5,39.5C 34.0114,41.1947 34.6781,42.8614 35.5,44.5C 36.7261,40.2506 37.3927,35.9173 37.5,31.5C 44.1885,30.6484 50.5219,29.3151 56.5,27.5 Z"/></g>
<g><path style="opacity:1" fill="#bf7e77" d="M 67.5,58.5 C 69.3569,59.7537 71.3569,59.7537 73.5,58.5C 74.8333,60.1667 74.8333,61.8333 73.5,63.5C 72.7065,63.0688 71.8732,62.7355 71,62.5C 67.6384,66.2027 63.4718,67.3694 58.5,66C 56.2437,63.5705 53.9103,61.4038 51.5,59.5C 56.7968,58.7255 62.1301,58.3921 67.5,58.5 Z"/></g>
<g><path style="opacity:1" fill="#dcb2a0" d="M 67.5,58.5 C 62.1301,58.3921 56.7968,58.7255 51.5,59.5C 49.7028,60.7298 47.7028,61.3964 45.5,61.5C 45.2011,59.396 45.5344,57.396 46.5,55.5C 47.7739,57.85 49.1073,57.6833 50.5,55C 48.8753,54.1475 48.5419,53.1475 49.5,52C 47.8876,51.2797 46.3876,51.4464 45,52.5C 40.2494,48.4921 39.0828,43.4921 41.5,37.5C 42.9305,37.4208 44.2638,37.7542 45.5,38.5C 47.5499,37.9234 48.5499,36.5901 48.5,34.5C 49.1667,35.1667 49.8333,35.8333 50.5,36.5C 51.9222,40.5072 54.4222,40.5072 58,36.5C 58.414,36.9574 58.914,37.2907 59.5,37.5C 60.4287,36.3112 60.762,34.9778 60.5,33.5C 62.6807,33.2837 64.3474,34.117 65.5,36C 64.1667,40 64.1667,44 65.5,48C 64.8921,48.8699 64.0588,49.3699 63,49.5C 61.5603,48.8524 60.0603,48.5191 58.5,48.5C 58.5198,50.143 57.8532,51.4763 56.5,52.5C 57.7757,53.6446 59.109,53.6446 60.5,52.5C 63.4143,53.9214 66.4143,55.0881 69.5,56C 68.1667,56.6667 68.1667,57.3333 69.5,58C 68.9056,58.4643 68.2389,58.631 67.5,58.5 Z"/></g>
<g><path style="opacity:1" fill="#573f39" d="M 71.5,33.5 C 74.8066,33.0632 77.8066,33.7298 80.5,35.5C 78.2072,35.0257 76.0406,35.6924 74,37.5C 72.4053,36.6443 71.572,35.3109 71.5,33.5 Z"/></g>
<g><path style="opacity:1" fill="#4a3430" d="M 50.5,36.5 C 49.8333,35.8333 49.1667,35.1667 48.5,34.5C 47.8977,33.6104 49.5644,33.277 53.5,33.5C 53.5,34.5 53.5,35.5 53.5,36.5C 52.5,36.5 51.5,36.5 50.5,36.5 Z"/></g>
<g><path style="opacity:1" fill="#c1947b" d="M 47.5,70.5 C 46.9569,70.56 46.6236,70.8933 46.5,71.5C 48.6091,74.3206 50.4424,77.3206 52,80.5C 52.3333,80.1667 52.6667,79.8333 53,79.5C 62.9431,83.5822 71.4431,81.5822 78.5,73.5C 78.0431,72.7025 77.3764,72.3691 76.5,72.5C 76.4142,71.5041 76.7476,70.6708 77.5,70C 79.8856,69.7165 80.5523,68.7165 79.5,67C 80.8491,66.2276 81.6824,65.0609 82,63.5C 82.9344,64.8584 83.7677,66.1917 84.5,67.5C 83.4116,70.5558 83.4116,73.5558 84.5,76.5C 84.5,76.8333 84.5,77.1667 84.5,77.5C 78.8729,85.4437 71.5396,92.4437 62.5,98.5C 62.1667,98.5 61.8333,98.5 61.5,98.5C 55.1983,93.0305 49.3649,87.0305 44,80.5C 43.51,79.2068 43.3433,77.8734 43.5,76.5C 43.3343,72.1539 43.501,67.8206 44,63.5C 45.6455,65.6093 46.8122,67.9427 47.5,70.5 Z"/></g>
<g><path style="opacity:1" fill="#a87c65" d="M 47.5,70.5 C 56.6842,77.5463 66.3508,78.213 76.5,72.5C 77.3764,72.3691 78.0431,72.7025 78.5,73.5C 71.4431,81.5822 62.9431,83.5822 53,79.5C 52.6667,79.8333 52.3333,80.1667 52,80.5C 50.4424,77.3206 48.6091,74.3206 46.5,71.5C 46.6236,70.8933 46.9569,70.56 47.5,70.5 Z"/></g>
<g><path style="opacity:1" fill="#212538" d="M 84.5,76.5 C 87.5049,79.3176 90.1716,82.4842 92.5,86C 103.936,90.8672 115.603,95.0339 127.5,98.5C 127.5,99.5 127.5,100.5 127.5,101.5C 124.498,100.072 121.665,100.405 119,102.5C 116.197,100.33 113.197,99.6634 110,100.5C 108.174,97.6873 105.674,95.6873 102.5,94.5C 101.094,95.6682 99.9277,95.3348 99,93.5C 99.7654,98.2996 101.265,102.966 103.5,107.5C 99.1215,109.189 95.2882,108.522 92,105.5C 88.9746,106.791 88.6413,106.124 91,103.5C 91.4974,100.854 91.6641,98.1873 91.5,95.5C 90.5,95.5 89.5,95.5 88.5,95.5C 89.1863,100.12 87.6863,103.787 84,106.5C 84.5458,109.982 84.2125,113.315 83,116.5C 82.5776,118.426 81.4109,119.426 79.5,119.5C 81.1659,111.506 82.8326,103.506 84.5,95.5C 85.5731,89.4677 85.5731,83.4677 84.5,77.5C 84.5,77.1667 84.5,76.8333 84.5,76.5 Z"/></g>
<g><path style="opacity:1" fill="#1c1f2e" d="M 127.5,101.5 C 127.5,110.167 127.5,118.833 127.5,127.5C 111.167,127.5 94.8333,127.5 78.5,127.5C 78.5751,124.794 78.9084,122.127 79.5,119.5C 81.4109,119.426 82.5776,118.426 83,116.5C 84.2125,113.315 84.5458,109.982 84,106.5C 87.6863,103.787 89.1863,100.12 88.5,95.5C 89.5,95.5 90.5,95.5 91.5,95.5C 91.6641,98.1873 91.4974,100.854 91,103.5C 88.6413,106.124 88.9746,106.791 92,105.5C 95.2882,108.522 99.1215,109.189 103.5,107.5C 101.265,102.966 99.7654,98.2996 99,93.5C 99.9277,95.3348 101.094,95.6682 102.5,94.5C 105.674,95.6873 108.174,97.6873 110,100.5C 113.197,99.6634 116.197,100.33 119,102.5C 121.665,100.405 124.498,100.072 127.5,101.5 Z"/></g>
<g><path style="opacity:1" fill="#dedfef" d="M 43.5,76.5 C 43.3433,77.8734 43.51,79.2068 44,80.5C 49.3649,87.0305 55.1983,93.0305 61.5,98.5C 58.0814,100.412 55.0814,102.912 52.5,106C 53.9047,107.269 55.5714,107.769 57.5,107.5C 57.1043,110.044 57.771,112.211 59.5,114C 57.1605,118.189 55.8271,122.689 55.5,127.5C 53.8333,127.5 52.1667,127.5 50.5,127.5C 49.2447,116.701 46.578,106.368 42.5,96.5C 40.5322,90.2062 40.1988,83.8729 41.5,77.5C 42.1667,77.1667 42.8333,76.8333 43.5,76.5 Z"/></g>
<g><path style="opacity:1" fill="#e3e4f1" d="M 84.5,77.5 C 85.5731,83.4677 85.5731,89.4677 84.5,95.5C 82.3928,100.386 80.0595,105.219 77.5,110C 78.1078,111.231 78.4411,112.564 78.5,114C 77.7326,118.568 76.7326,123.068 75.5,127.5C 74.1667,127.5 72.8333,127.5 71.5,127.5C 71.7845,125.585 71.4511,123.919 70.5,122.5C 70.7678,120.901 70.4345,119.568 69.5,118.5C 68.0721,115.988 67.5721,113.322 68,110.5C 69.3561,109.62 70.8561,109.286 72.5,109.5C 72.8146,107.774 72.9813,106.107 73,104.5C 70.8762,103.378 69.0429,101.878 67.5,100C 66.2161,99.3162 65.0495,99.4829 64,100.5C 63.2828,99.9558 62.7828,99.2891 62.5,98.5C 71.5396,92.4437 78.8729,85.4437 84.5,77.5 Z"/></g>
<g><path style="opacity:1" fill="#1c1f2e" d="M 46.5,122.5 C 47.4511,123.919 47.7845,125.585 47.5,127.5C 31.5,127.5 15.5,127.5 -0.5,127.5C -0.5,119.5 -0.5,111.5 -0.5,103.5C 1.67702,103.586 3.67702,104.253 5.5,105.5C 6.9056,104.332 8.07227,104.665 9,106.5C 11.2622,103.127 14.4288,101.127 18.5,100.5C 20.1177,97.5787 22.6177,95.912 26,95.5C 25.2988,99.7959 24.4654,104.129 23.5,108.5C 25.9201,108.292 28.2534,108.626 30.5,109.5C 33.5238,107.893 35.1905,105.393 35.5,102C 36.8333,101.333 38.1667,101.333 39.5,102C 39.3349,103.117 39.0016,104.284 38.5,105.5C 39.376,106.251 40.376,106.751 41.5,107C 40.8433,108.695 40.8433,110.528 41.5,112.5C 43.2844,116.401 44.7844,120.401 46,124.5C 46.4643,123.906 46.631,123.239 46.5,122.5 Z"/></g>
<g><path style="opacity:1" fill="#222639" d="M 41.5,76.5 C 41.5,76.8333 41.5,77.1667 41.5,77.5C 40.1988,83.8729 40.5322,90.2062 42.5,96.5C 43.7036,105.185 45.0369,113.852 46.5,122.5C 46.631,123.239 46.4643,123.906 46,124.5C 44.7844,120.401 43.2844,116.401 41.5,112.5C 40.8433,110.528 40.8433,108.695 41.5,107C 40.376,106.751 39.376,106.251 38.5,105.5C 39.0016,104.284 39.3349,103.117 39.5,102C 38.1667,101.333 36.8333,101.333 35.5,102C 35.1905,105.393 33.5238,107.893 30.5,109.5C 28.2534,108.626 25.9201,108.292 23.5,108.5C 24.4654,104.129 25.2988,99.7959 26,95.5C 22.6177,95.912 20.1177,97.5787 18.5,100.5C 14.4288,101.127 11.2622,103.127 9,106.5C 8.07227,104.665 6.9056,104.332 5.5,105.5C 3.67702,104.253 1.67702,103.586 -0.5,103.5C -0.5,101.833 -0.5,100.167 -0.5,98.5C 10.2708,94.9734 20.9375,91.14 31.5,87C 35.0096,83.6573 38.343,80.1573 41.5,76.5 Z"/></g>
<g><path style="opacity:1" fill="#313a5c" d="M 61.5,98.5 C 61.8333,98.5 62.1667,98.5 62.5,98.5C 62.7828,99.2891 63.2828,99.9558 64,100.5C 65.0495,99.4829 66.2161,99.3162 67.5,100C 69.0429,101.878 70.8762,103.378 73,104.5C 72.9813,106.107 72.8146,107.774 72.5,109.5C 70.8561,109.286 69.3561,109.62 68,110.5C 67.5721,113.322 68.0721,115.988 69.5,118.5C 69.6495,119.552 69.4828,120.552 69,121.5C 66.9604,123.37 65.1271,125.37 63.5,127.5C 60.8333,127.5 58.1667,127.5 55.5,127.5C 55.8271,122.689 57.1605,118.189 59.5,114C 57.771,112.211 57.1043,110.044 57.5,107.5C 55.5714,107.769 53.9047,107.269 52.5,106C 55.0814,102.912 58.0814,100.412 61.5,98.5 Z"/></g>
<g><path style="opacity:1" fill="#9c9eb5" d="M 84.5,95.5 C 82.8326,103.506 81.1659,111.506 79.5,119.5C 78.9084,122.127 78.5751,124.794 78.5,127.5C 77.5,127.5 76.5,127.5 75.5,127.5C 76.7326,123.068 77.7326,118.568 78.5,114C 78.4411,112.564 78.1078,111.231 77.5,110C 80.0595,105.219 82.3928,100.386 84.5,95.5 Z"/></g>
<g><path style="opacity:1" fill="#a1a5bb" d="M 42.5,96.5 C 46.578,106.368 49.2447,116.701 50.5,127.5C 49.5,127.5 48.5,127.5 47.5,127.5C 47.7845,125.585 47.4511,123.919 46.5,122.5C 45.0369,113.852 43.7036,105.185 42.5,96.5 Z"/></g>
<g><path style="opacity:1" fill="#677190" d="M 69.5,118.5 C 70.4345,119.568 70.7678,120.901 70.5,122.5C 68.5,123.833 66.8333,125.5 65.5,127.5C 64.8333,127.5 64.1667,127.5 63.5,127.5C 65.1271,125.37 66.9604,123.37 69,121.5C 69.4828,120.552 69.6495,119.552 69.5,118.5 Z"/></g>
<g><path style="opacity:1" fill="#303552" d="M 70.5,122.5 C 71.4511,123.919 71.7845,125.585 71.5,127.5C 69.5,127.5 67.5,127.5 65.5,127.5C 66.8333,125.5 68.5,123.833 70.5,122.5 Z"/></g>
</svg>
