<?xml version="1.0" encoding="UTF-8"?>
<!DOCTYPE svg PUBLIC "-//W3C//DTD SVG 1.1//EN" "http://www.w3.org/Graphics/SVG/1.1/DTD/svg11.dtd">
<svg xmlns="http://www.w3.org/2000/svg" version="1.1" width="128px" height="128px" style="shape-rendering:geometricPrecision; text-rendering:geometricPrecision; image-rendering:optimizeQuality; fill-rule:evenodd; clip-rule:evenodd" xmlns:xlink="http://www.w3.org/1999/xlink">
<g><path style="opacity:1" fill="#211c1c" d="M 46.5,-0.5 C 56.8333,-0.5 67.1667,-0.5 77.5,-0.5C 81.0944,1.42369 84.0944,4.09035 86.5,7.5C 84.2843,6.79739 82.451,5.46406 81,3.5C 81.7682,5.8436 82.9349,8.17693 84.5,10.5C 82.8868,10.9679 81.3868,10.3013 80,8.5C 80.6667,10.5 81.3333,12.5 82,14.5C 79.2257,13.3133 76.559,11.9799 74,10.5C 73.6827,12.3008 73.016,12.6341 72,11.5C 71.7599,13.8516 70.9265,15.8516 69.5,17.5C 69.6716,16.5084 69.3382,15.8417 68.5,15.5C 67.9447,13.2712 66.6114,11.6046 64.5,10.5C 63.8333,8.16667 63.1667,5.83333 62.5,3.5C 61.7664,6.66568 60.5998,9.66568 59,12.5C 55.7199,14.1194 52.7199,16.1194 50,18.5C 49.9856,16.5292 50.3189,14.5292 51,12.5C 52.6095,11.8534 54.1095,11.02 55.5,10C 53.3018,9.62709 51.1351,9.12709 49,8.5C 47.1026,8.89638 45.6026,9.89638 44.5,11.5C 43.3877,8.3196 44.0544,5.48627 46.5,3C 45.7476,2.32924 45.4142,1.4959 45.5,0.5C 46.1667,0.5 46.5,0.166667 46.5,-0.5 Z"/></g>
<g><path style="opacity:1" fill="#393130" d="M 45.5,0.5 C 45.4142,1.4959 45.7476,2.32924 46.5,3C 44.0544,5.48627 43.3877,8.3196 44.5,11.5C 45.6026,9.89638 47.1026,8.89638 49,8.5C 51.1351,9.12709 53.3018,9.62709 55.5,10C 54.1095,11.02 52.6095,11.8534 51,12.5C 50.3189,14.5292 49.9856,16.5292 50,18.5C 52.7199,16.1194 55.7199,14.1194 59,12.5C 60.5998,9.66568 61.7664,6.66568 62.5,3.5C 63.1667,5.83333 63.8333,8.16667 64.5,10.5C 66.6114,11.6046 67.9447,13.2712 68.5,15.5C 65.8109,14.9949 63.6442,13.6616 62,11.5C 59.481,13.9746 56.981,16.3079 54.5,18.5C 53.8826,18.6107 53.3826,18.944 53,19.5C 52.0259,23.8252 51.1925,28.1585 50.5,32.5C 49.6805,29.6946 49.1805,26.6946 49,23.5C 48.2904,22.0267 47.1238,21.3601 45.5,21.5C 46.0629,19.09 46.5629,16.7567 47,14.5C 44.4598,13.1235 42.4598,13.7902 41,16.5C 40.042,19.0747 39.542,21.7414 39.5,24.5C 39.9379,27.5268 40.1045,30.5268 40,33.5C 39.6924,32.6919 39.1924,32.0253 38.5,31.5C 37.1171,33.3198 36.1171,35.3198 35.5,37.5C 35.1667,37.5 34.8333,37.5 34.5,37.5C 27.4496,22.0427 31.1162,9.70941 45.5,0.5 Z"/></g>
<g><path style="opacity:1" fill="#34302f" d="M 86.5,7.5 C 90.0141,10.3608 92.3475,14.0275 93.5,18.5C 91.2336,20.1933 90.9003,22.3599 92.5,25C 92,25.5 91.5,26 91,26.5C 90.1729,25.3379 89.3396,24.1712 88.5,23C 90.3562,19.004 89.0229,16.8374 84.5,16.5C 81.776,18.7984 78.9427,18.7984 76,16.5C 75.7674,18.7801 74.934,20.7801 73.5,22.5C 72.1534,22.5531 70.82,22.5531 69.5,22.5C 69.5,20.8333 69.5,19.1667 69.5,17.5C 70.9265,15.8516 71.7599,13.8516 72,11.5C 73.016,12.6341 73.6827,12.3008 74,10.5C 76.559,11.9799 79.2257,13.3133 82,14.5C 81.3333,12.5 80.6667,10.5 80,8.5C 81.3868,10.3013 82.8868,10.9679 84.5,10.5C 82.9349,8.17693 81.7682,5.8436 81,3.5C 82.451,5.46406 84.2843,6.79739 86.5,7.5 Z"/></g>
<g><path style="opacity:1" fill="#261e1c" d="M 50.5,32.5 C 50.5,33.5 50.5,34.5 50.5,35.5C 51.675,35.281 52.675,35.6143 53.5,36.5C 53.3764,37.1067 53.0431,37.44 52.5,37.5C 50.6693,36.9478 49.0026,36.9478 47.5,37.5C 46.3044,37.1543 46.3044,36.6543 47.5,36C 45.2311,34.4424 42.8978,34.2757 40.5,35.5C 39.0304,38.3081 38.1971,41.3081 38,44.5C 36.8638,42.257 36.0305,39.9237 35.5,37.5C 36.1171,35.3198 37.1171,33.3198 38.5,31.5C 39.1924,32.0253 39.6924,32.6919 40,33.5C 40.1045,30.5268 39.9379,27.5268 39.5,24.5C 39.542,21.7414 40.042,19.0747 41,16.5C 42.4598,13.7902 44.4598,13.1235 47,14.5C 46.5629,16.7567 46.0629,19.09 45.5,21.5C 47.1238,21.3601 48.2904,22.0267 49,23.5C 49.1805,26.6946 49.6805,29.6946 50.5,32.5 Z"/></g>
<g><path style="opacity:1" fill="#231c1a" d="M 93.5,18.5 C 94.8013,25.3387 94.1346,32.0053 91.5,38.5C 90.5041,38.4142 89.6708,38.7476 89,39.5C 88.1307,44.5081 87.4641,44.1748 87,38.5C 83.4653,37.9841 80.632,36.3175 78.5,33.5C 76.9488,34.8004 75.9488,36.4671 75.5,38.5C 74.209,38.7373 73.209,38.404 72.5,37.5C 69.8667,32.9277 68.8667,27.9277 69.5,22.5C 70.82,22.5531 72.1534,22.5531 73.5,22.5C 74.934,20.7801 75.7674,18.7801 76,16.5C 78.9427,18.7984 81.776,18.7984 84.5,16.5C 89.0229,16.8374 90.3562,19.004 88.5,23C 89.3396,24.1712 90.1729,25.3379 91,26.5C 91.5,26 92,25.5 92.5,25C 90.9003,22.3599 91.2336,20.1933 93.5,18.5 Z"/></g>
<g><path style="opacity:1" fill="#634742" d="M 68.5,15.5 C 69.3382,15.8417 69.6716,16.5084 69.5,17.5C 69.5,19.1667 69.5,20.8333 69.5,22.5C 68.8667,27.9277 69.8667,32.9277 72.5,37.5C 71.8333,37.5 71.5,37.8333 71.5,38.5C 69.2417,38.2249 68.9084,37.2249 70.5,35.5C 70.1924,34.6919 69.6924,34.0253 69,33.5C 68.5005,27.5092 68.3338,21.5092 68.5,15.5 Z"/></g>
<g><path style="opacity:1" fill="#ac7f79" d="M 91.5,38.5 C 91.9817,39.4163 92.315,40.4163 92.5,41.5C 91.2387,45.067 90.4054,48.7337 90,52.5C 87.5173,55.1393 85.684,58.1393 84.5,61.5C 82.8967,61.6882 81.5634,61.1882 80.5,60C 81.2489,58.2663 81.7489,56.433 82,54.5C 83.1096,52.9632 84.6096,52.2965 86.5,52.5C 86.8256,48.1161 86.4922,43.7828 85.5,39.5C 82.1581,39.4298 78.8248,39.0964 75.5,38.5C 75.9488,36.4671 76.9488,34.8004 78.5,33.5C 80.632,36.3175 83.4653,37.9841 87,38.5C 87.4641,44.1748 88.1307,44.5081 89,39.5C 89.6708,38.7476 90.5041,38.4142 91.5,38.5 Z"/></g>
<g><path style="opacity:1" fill="#c9998d" d="M 72.5,37.5 C 73.209,38.404 74.209,38.7373 75.5,38.5C 78.8248,39.0964 82.1581,39.4298 85.5,39.5C 86.4922,43.7828 86.8256,48.1161 86.5,52.5C 84.6096,52.2965 83.1096,52.9632 82,54.5C 81.7489,56.433 81.2489,58.2663 80.5,60C 81.5634,61.1882 82.8967,61.6882 84.5,61.5C 84.1667,62.5 83.5,63.1667 82.5,63.5C 80.2591,64.2998 79.2591,65.9664 79.5,68.5C 75.422,69.7019 71.422,71.2019 67.5,73C 64.1667,73.6667 60.8333,73.6667 57.5,73C 53.9753,70.302 50.6419,67.4686 47.5,64.5C 51.2767,65.5195 54.2767,67.6862 56.5,71C 59.8333,71.6667 63.1667,71.6667 66.5,71C 67.376,69.414 68.376,67.914 69.5,66.5C 66.8333,65.8333 64.1667,65.1667 61.5,64.5C 58.9784,63.6971 56.9784,62.3638 55.5,60.5C 61.2055,60.8288 66.8722,60.4954 72.5,59.5C 72.3764,58.8933 72.0431,58.56 71.5,58.5C 72.3178,55.4281 73.4845,55.0948 75,57.5C 76.236,55.4616 78.0694,54.2949 80.5,54C 81.7875,52.5905 82.9542,51.0905 84,49.5C 84.3264,46.6677 83.8264,44.001 82.5,41.5C 78.3417,41.8796 74.675,40.8796 71.5,38.5C 71.5,37.8333 71.8333,37.5 72.5,37.5 Z"/></g>
<g><path style="opacity:1" fill="#a05a5a" d="M 71.5,58.5 C 72.0431,58.56 72.3764,58.8933 72.5,59.5C 66.8722,60.4954 61.2055,60.8288 55.5,60.5C 54.2438,60.5386 53.2438,60.0386 52.5,59C 58.8246,58.5005 65.1579,58.3338 71.5,58.5 Z"/></g>
<g><path style="opacity:1" fill="#d8aaa1" d="M 68.5,15.5 C 68.3338,21.5092 68.5005,27.5092 69,33.5C 69.6924,34.0253 70.1924,34.6919 70.5,35.5C 68.9084,37.2249 69.2417,38.2249 71.5,38.5C 74.675,40.8796 78.3417,41.8796 82.5,41.5C 83.8264,44.001 84.3264,46.6677 84,49.5C 82.9542,51.0905 81.7875,52.5905 80.5,54C 78.0694,54.2949 76.236,55.4616 75,57.5C 73.4845,55.0948 72.3178,55.4281 71.5,58.5C 65.1579,58.3338 58.8246,58.5005 52.5,59C 53.2438,60.0386 54.2438,60.5386 55.5,60.5C 56.9784,62.3638 58.9784,63.6971 61.5,64.5C 64.1667,65.1667 66.8333,65.8333 69.5,66.5C 68.376,67.914 67.376,69.414 66.5,71C 63.1667,71.6667 59.8333,71.6667 56.5,71C 54.2767,67.6862 51.2767,65.5195 47.5,64.5C 41.8581,59.5359 39.1914,53.2025 39.5,45.5C 40.0257,42.7284 40.8591,40.0618 42,37.5C 45.5406,40.1088 49.0406,40.1088 52.5,37.5C 53.0431,37.44 53.3764,37.1067 53.5,36.5C 52.675,35.6143 51.675,35.281 50.5,35.5C 50.5,34.5 50.5,33.5 50.5,32.5C 51.1925,28.1585 52.0259,23.8252 53,19.5C 53.3826,18.944 53.8826,18.6107 54.5,18.5C 56.981,16.3079 59.481,13.9746 62,11.5C 63.6442,13.6616 65.8109,14.9949 68.5,15.5 Z"/></g>
<g><path style="opacity:1" fill="#e8bab4" d="M 57.5,29.5 C 59.258,29.8769 60.9246,30.5435 62.5,31.5C 64.0709,30.6906 65.7376,30.3573 67.5,30.5C 65.0336,36.2948 64.2003,42.2948 65,48.5C 62.723,49.1172 60.5563,49.7839 58.5,50.5C 59.911,52.539 61.911,53.539 64.5,53.5C 65.6431,53.9081 66.6431,54.5748 67.5,55.5C 62.7928,58.041 58.1261,58.041 53.5,55.5C 52.5,56.8333 51.5,56.8333 50.5,55.5C 50.1667,56.1667 49.8333,56.8333 49.5,57.5C 48.4096,56.273 47.0762,55.4396 45.5,55C 45.9574,54.586 46.2907,54.086 46.5,53.5C 43.8333,50.1667 43.8333,46.8333 46.5,43.5C 51.225,41.7951 55.8916,40.1284 60.5,38.5C 60.8684,34.9649 59.8684,31.9649 57.5,29.5 Z"/></g>
<g><path style="opacity:1" fill="#9e605f" d="M 64.5,53.5 C 61.911,53.539 59.911,52.539 58.5,50.5C 62.1293,51.7957 65.6293,51.4624 69,49.5C 69.6838,50.7839 69.5171,51.9505 68.5,53C 66.9813,52.6692 65.648,52.8359 64.5,53.5 Z"/></g>
<g><path style="opacity:1" fill="#edcfce" d="M 67.5,30.5 C 65.7376,30.3573 64.0709,30.6906 62.5,31.5C 60.9246,30.5435 59.258,29.8769 57.5,29.5C 55.5165,29.6168 53.8498,28.9501 52.5,27.5C 53.2746,24.5164 53.9413,21.5164 54.5,18.5C 58.1036,15.8649 62.1036,15.0316 66.5,16C 67.4692,20.7367 67.8025,25.57 67.5,30.5 Z"/></g>
<g><path style="opacity:1" fill="#a1746a" d="M 52.5,37.5 C 49.0406,40.1088 45.5406,40.1088 42,37.5C 40.8591,40.0618 40.0257,42.7284 39.5,45.5C 39.1914,53.2025 41.8581,59.5359 47.5,64.5C 50.6419,67.4686 53.9753,70.302 57.5,73C 60.8333,73.6667 64.1667,73.6667 67.5,73C 71.422,71.2019 75.422,69.7019 79.5,68.5C 79.2591,65.9664 80.2591,64.2998 82.5,63.5C 81.2525,66.8672 81.2525,70.2005 82.5,73.5C 82.5,73.8333 82.5,74.1667 82.5,74.5C 81.8826,74.3893 81.3826,74.056 81,73.5C 78.9999,76.6657 76.4999,79.3324 73.5,81.5C 74.1465,79.8439 74.8131,78.1772 75.5,76.5C 74.7739,72.6904 73.4406,72.5238 71.5,76C 62.8413,78.5756 55.008,77.0756 48,71.5C 48.1349,73.4247 48.3016,75.4247 48.5,77.5C 47.1667,75.5 45.8333,73.5 44.5,71.5C 44.6621,69.4727 44.4955,67.4727 44,65.5C 41.9099,60.1952 38.9099,55.5286 35,51.5C 34.6473,47.8831 33.814,44.3831 32.5,41C 32.8082,39.5405 33.4749,38.3739 34.5,37.5C 34.8333,37.5 35.1667,37.5 35.5,37.5C 36.0305,39.9237 36.8638,42.257 38,44.5C 38.1971,41.3081 39.0304,38.3081 40.5,35.5C 42.8978,34.2757 45.2311,34.4424 47.5,36C 46.3044,36.6543 46.3044,37.1543 47.5,37.5C 49.0026,36.9478 50.6693,36.9478 52.5,37.5 Z"/></g>
<g><path style="opacity:1" fill="#bb8b7d" d="M 73.5,81.5 C 70.8093,85.1895 67.476,88.1895 63.5,90.5C 57.569,87.2353 52.569,82.9019 48.5,77.5C 48.3016,75.4247 48.1349,73.4247 48,71.5C 55.008,77.0756 62.8413,78.5756 71.5,76C 73.4406,72.5238 74.7739,72.6904 75.5,76.5C 74.8131,78.1772 74.1465,79.8439 73.5,81.5 Z"/></g>
<g><path style="opacity:1" fill="#eeebf5" d="M 44.5,71.5 C 45.8333,73.5 47.1667,75.5 48.5,77.5C 52.569,82.9019 57.569,87.2353 63.5,90.5C 67.476,88.1895 70.8093,85.1895 73.5,81.5C 76.4999,79.3324 78.9999,76.6657 81,73.5C 81.3826,74.056 81.8826,74.3893 82.5,74.5C 83.5909,79.4693 83.5909,84.4693 82.5,89.5C 79.5138,102.082 76.5138,114.749 73.5,127.5C 73.1667,127.5 72.8333,127.5 72.5,127.5C 72.8789,121.56 71.8789,115.893 69.5,110.5C 69.5,109.167 69.5,107.833 69.5,106.5C 69.5569,105.391 69.8902,104.391 70.5,103.5C 71.4268,101.424 73.0935,100.257 75.5,100C 72.7974,96.962 69.7974,94.2954 66.5,92C 64.0709,91.2967 61.7375,91.4634 59.5,92.5C 57.8333,93.5 56.5,94.8333 55.5,96.5C 53.8002,97.016 52.4669,98.016 51.5,99.5C 53.641,101.122 55.3076,103.122 56.5,105.5C 56.6775,106.695 57.0109,107.862 57.5,109C 55.7853,112.309 54.7853,115.809 54.5,119.5C 53.8333,121.5 53.1667,123.5 52.5,125.5C 49.2359,112.204 46.0693,98.8706 43,85.5C 42.5027,81.4761 42.6693,77.4761 43.5,73.5C 43.8333,72.8333 44.1667,72.1667 44.5,71.5 Z"/></g>
<g><path style="opacity:1" fill="#222224" d="M 82.5,73.5 C 84.2131,76.7255 86.5464,79.5588 89.5,82C 100.311,86.7422 111.311,90.9089 122.5,94.5C 122.5,105.5 122.5,116.5 122.5,127.5C 115.5,127.5 108.5,127.5 101.5,127.5C 101.33,125.152 100.997,122.818 100.5,120.5C 103.072,112.705 103.739,112.705 102.5,120.5C 103.528,122.361 105.028,123.695 107,124.5C 110.622,119.763 114.622,115.43 119,111.5C 119.667,108.5 119.667,105.5 119,102.5C 118.3,104.032 117.134,105.032 115.5,105.5C 111.927,101.98 108.094,101.646 104,104.5C 103.812,102.939 104.645,102.272 106.5,102.5C 105.98,97.9704 104.814,97.6371 103,101.5C 102.667,100.167 102.333,98.8333 102,97.5C 101,98.8333 100,100.167 99,101.5C 97.8438,100.007 97.0104,100.174 96.5,102C 97.3091,103.784 97.9757,105.617 98.5,107.5C 96.3744,114.413 93.7077,121.079 90.5,127.5C 90.1667,127.5 89.8333,127.5 89.5,127.5C 90.1969,124.577 91.1969,121.744 92.5,119C 92.3333,118.5 92.1667,118 92,117.5C 91.3333,118.833 90.3333,119.833 89,120.5C 86.9271,117.091 87.2605,114.091 90,111.5C 90.3333,111.833 90.6667,112.167 91,112.5C 91.3589,109.456 92.0255,109.122 93,111.5C 93.6667,108.833 93.6667,106.167 93,103.5C 89.6653,99.6135 86.6653,94.9468 84,89.5C 83.1932,93.449 82.6932,93.449 82.5,89.5C 83.5909,84.4693 83.5909,79.4693 82.5,74.5C 82.5,74.1667 82.5,73.8333 82.5,73.5 Z"/></g>
<g><path style="opacity:1" fill="#222224" d="M 27.5,86.5 C 28.991,86.9014 30.6577,87.068 32.5,87C 31.8333,87.3333 31.1667,87.6667 30.5,88C 31.4506,88.7175 31.6172,89.5509 31,90.5C 29.7949,91.0712 28.6283,91.7379 27.5,92.5C 28.0983,93.7946 28.5983,95.1279 29,96.5C 31.3779,98.863 33.8779,100.196 36.5,100.5C 34.4235,102.288 32.2568,103.954 30,105.5C 29.6667,106.5 29.3333,107.5 29,108.5C 28.7216,107.584 28.2216,106.918 27.5,106.5C 26.1497,105.517 25.1497,104.184 24.5,102.5C 23.8333,102.833 23.1667,103.167 22.5,103.5C 21.1233,100.274 19.4566,99.9409 17.5,102.5C 15.9547,103.452 14.288,103.785 12.5,103.5C 12.719,104.675 12.3857,105.675 11.5,106.5C 10.269,105.349 10.269,104.183 11.5,103C 10.2068,102.51 8.87344,102.343 7.5,102.5C 7.5,100.5 7.5,98.5 7.5,96.5C 8.97782,96.762 10.3112,96.4287 11.5,95.5C 10.2243,94.3554 8.89097,94.3554 7.5,95.5C 6.16667,102.5 6.16667,109.5 7.5,116.5C 10.4484,118.783 12.115,121.783 12.5,125.5C 14.1788,125.285 15.1788,125.952 15.5,127.5C 11.8333,127.5 8.16667,127.5 4.5,127.5C 4.16789,116.48 4.50122,105.48 5.5,94.5C 12.6485,91.2561 19.9818,88.5894 27.5,86.5 Z"/></g>
<g><path style="opacity:1" fill="#262628" d="M 27.5,106.5 C 29.7577,113.6 32.4244,120.6 35.5,127.5C 28.8333,127.5 22.1667,127.5 15.5,127.5C 15.1788,125.952 14.1788,125.285 12.5,125.5C 12.115,121.783 10.4484,118.783 7.5,116.5C 6.16667,109.5 6.16667,102.5 7.5,95.5C 8.89097,94.3554 10.2243,94.3554 11.5,95.5C 10.3112,96.4287 8.97782,96.762 7.5,96.5C 7.5,98.5 7.5,100.5 7.5,102.5C 8.87344,102.343 10.2068,102.51 11.5,103C 10.269,104.183 10.269,105.349 11.5,106.5C 12.3857,105.675 12.719,104.675 12.5,103.5C 14.288,103.785 15.9547,103.452 17.5,102.5C 19.4566,99.9409 21.1233,100.274 22.5,103.5C 23.1667,103.167 23.8333,102.833 24.5,102.5C 25.1497,104.184 26.1497,105.517 27.5,106.5 Z"/></g>
<g><path style="opacity:1" fill="#262628" d="M 101.5,127.5 C 97.8333,127.5 94.1667,127.5 90.5,127.5C 93.7077,121.079 96.3744,114.413 98.5,107.5C 97.9757,105.617 97.3091,103.784 96.5,102C 97.0104,100.174 97.8438,100.007 99,101.5C 100,100.167 101,98.8333 102,97.5C 102.333,98.8333 102.667,100.167 103,101.5C 104.814,97.6371 105.98,97.9704 106.5,102.5C 104.645,102.272 103.812,102.939 104,104.5C 108.094,101.646 111.927,101.98 115.5,105.5C 117.134,105.032 118.3,104.032 119,102.5C 119.667,105.5 119.667,108.5 119,111.5C 114.622,115.43 110.622,119.763 107,124.5C 105.028,123.695 103.528,122.361 102.5,120.5C 103.739,112.705 103.072,112.705 100.5,120.5C 100.997,122.818 101.33,125.152 101.5,127.5 Z"/></g>
<g><path style="opacity:1" fill="#252427" d="M 82.5,89.5 C 82.6932,93.449 83.1932,93.449 84,89.5C 86.6653,94.9468 89.6653,99.6135 93,103.5C 93.6667,106.167 93.6667,108.833 93,111.5C 92.0255,109.122 91.3589,109.456 91,112.5C 90.6667,112.167 90.3333,111.833 90,111.5C 87.2605,114.091 86.9271,117.091 89,120.5C 90.3333,119.833 91.3333,118.833 92,117.5C 92.1667,118 92.3333,118.5 92.5,119C 91.1969,121.744 90.1969,124.577 89.5,127.5C 84.1667,127.5 78.8333,127.5 73.5,127.5C 76.5138,114.749 79.5138,102.082 82.5,89.5 Z"/></g>
<g><path style="opacity:1" fill="#3e3c46" d="M 70.5,103.5 C 68.6368,99.1503 65.3035,96.317 60.5,95C 59.7476,94.3292 59.4142,93.4959 59.5,92.5C 61.7375,91.4634 64.0709,91.2967 66.5,92C 69.7974,94.2954 72.7974,96.962 75.5,100C 73.0935,100.257 71.4268,101.424 70.5,103.5 Z"/></g>
<g><path style="opacity:1" fill="#232325" d="M 43.5,73.5 C 42.6693,77.4761 42.5027,81.4761 43,85.5C 46.0693,98.8706 49.2359,112.204 52.5,125.5C 52.5,126.167 52.5,126.833 52.5,127.5C 46.8333,127.5 41.1667,127.5 35.5,127.5C 32.4244,120.6 29.7577,113.6 27.5,106.5C 28.2216,106.918 28.7216,107.584 29,108.5C 29.3333,107.5 29.6667,106.5 30,105.5C 32.2568,103.954 34.4235,102.288 36.5,100.5C 33.8779,100.196 31.3779,98.863 29,96.5C 28.5983,95.1279 28.0983,93.7946 27.5,92.5C 28.6283,91.7379 29.7949,91.0712 31,90.5C 31.6172,89.5509 31.4506,88.7175 30.5,88C 31.1667,87.6667 31.8333,87.3333 32.5,87C 30.6577,87.068 28.991,86.9014 27.5,86.5C 30.1766,84.5399 33.1766,83.0399 36.5,82C 39.4536,79.5588 41.7869,76.7255 43.5,73.5 Z"/></g>
<g><path style="opacity:1" fill="#3c3a44" d="M 55.5,96.5 C 57.9608,98.4202 60.7942,99.7536 64,100.5C 64.6838,101.784 64.5171,102.951 63.5,104C 64.4491,104.617 65.2825,104.451 66,103.5C 67.7135,105.821 66.8802,106.821 63.5,106.5C 63.1218,108.921 62.4552,111.254 61.5,113.5C 61.4431,114.609 61.1098,115.609 60.5,116.5C 59.6236,116.631 58.9569,116.298 58.5,115.5C 60.1046,112.686 61.1046,109.686 61.5,106.5C 59.7085,106.634 58.0418,106.301 56.5,105.5C 55.3076,103.122 53.641,101.122 51.5,99.5C 52.4669,98.016 53.8002,97.016 55.5,96.5 Z"/></g>
<g><path style="opacity:1" fill="#65636e" d="M 59.5,92.5 C 59.4142,93.4959 59.7476,94.3292 60.5,95C 65.3035,96.317 68.6368,99.1503 70.5,103.5C 69.8902,104.391 69.5569,105.391 69.5,106.5C 66.6109,109.256 64.4442,112.589 63,116.5C 62.7679,115.263 62.2679,114.263 61.5,113.5C 62.4552,111.254 63.1218,108.921 63.5,106.5C 66.8802,106.821 67.7135,105.821 66,103.5C 65.2825,104.451 64.4491,104.617 63.5,104C 64.5171,102.951 64.6838,101.784 64,100.5C 60.7942,99.7536 57.9608,98.4202 55.5,96.5C 56.5,94.8333 57.8333,93.5 59.5,92.5 Z"/></g>
<g><path style="opacity:1" fill="#6c6a77" d="M 56.5,105.5 C 58.0418,106.301 59.7085,106.634 61.5,106.5C 61.1046,109.686 60.1046,112.686 58.5,115.5C 58.9569,116.298 59.6236,116.631 60.5,116.5C 60.8039,117.15 61.1373,117.817 61.5,118.5C 59.1831,120.316 57.0165,122.316 55,124.5C 54.5065,122.866 54.3398,121.199 54.5,119.5C 54.7853,115.809 55.7853,112.309 57.5,109C 57.0109,107.862 56.6775,106.695 56.5,105.5 Z"/></g>
<g><path style="opacity:1" fill="#8b8994" d="M 69.5,106.5 C 69.5,107.833 69.5,109.167 69.5,110.5C 68.8826,110.389 68.3826,110.056 68,109.5C 66.3333,112.833 64.6667,116.167 63,119.5C 59.6671,121.667 56.8337,124.334 54.5,127.5C 53.8333,127.5 53.1667,127.5 52.5,127.5C 52.5,126.833 52.5,126.167 52.5,125.5C 53.1667,123.5 53.8333,121.5 54.5,119.5C 54.3398,121.199 54.5065,122.866 55,124.5C 57.0165,122.316 59.1831,120.316 61.5,118.5C 61.1373,117.817 60.8039,117.15 60.5,116.5C 61.1098,115.609 61.4431,114.609 61.5,113.5C 62.2679,114.263 62.7679,115.263 63,116.5C 64.4442,112.589 66.6109,109.256 69.5,106.5 Z"/></g>
<g><path style="opacity:1" fill="#53525b" d="M 69.5,110.5 C 71.8789,115.893 72.8789,121.56 72.5,127.5C 66.5,127.5 60.5,127.5 54.5,127.5C 56.8337,124.334 59.6671,121.667 63,119.5C 64.6667,116.167 66.3333,112.833 68,109.5C 68.3826,110.056 68.8826,110.389 69.5,110.5 Z"/></g>
</svg>
