<?xml version="1.0" encoding="UTF-8"?>
<!DOCTYPE svg PUBLIC "-//W3C//DTD SVG 1.1//EN" "http://www.w3.org/Graphics/SVG/1.1/DTD/svg11.dtd">
<svg xmlns="http://www.w3.org/2000/svg" version="1.1" width="128px" height="128px" style="shape-rendering:geometricPrecision; text-rendering:geometricPrecision; image-rendering:optimizeQuality; fill-rule:evenodd; clip-rule:evenodd" xmlns:xlink="http://www.w3.org/1999/xlink">
<g><path style="opacity:1" fill="#515e65" d="M 32.5,-0.5 C 38.1667,-0.5 43.8333,-0.5 49.5,-0.5C 48.4324,0.434475 47.099,0.767809 45.5,0.5C 42.0135,2.88911 38.3469,2.88911 34.5,0.5C 33.8076,1.02527 33.3076,1.69194 33,2.5C 32.3292,1.74756 31.4959,1.41423 30.5,1.5C 31.1667,0.833333 31.8333,0.166667 32.5,-0.5 Z"/></g>
<g><path style="opacity:0.876" fill="#7a8a91" d="M 27.5,-0.5 C 29.1667,-0.5 30.8333,-0.5 32.5,-0.5C 31.8333,0.166667 31.1667,0.833333 30.5,1.5C 29.2153,3.45155 27.5486,5.11822 25.5,6.5C 25.407,5.52806 25.0736,4.52806 24.5,3.5C 25.5,2.16667 26.5,0.833333 27.5,-0.5 Z"/></g>
<g><path style="opacity:1" fill="#2c2c26" d="M 76.5,-0.5 C 81.1667,-0.5 85.8333,-0.5 90.5,-0.5C 90.5299,0.497222 90.0299,1.16389 89,1.5C 87.8382,0.81324 86.6716,0.646574 85.5,1C 88.8072,1.9285 92.1405,2.59517 95.5,3C 98.1428,6.32585 101.309,8.82585 105,10.5C 106.18,12.8599 107.347,15.1932 108.5,17.5C 107.5,17.5 106.5,17.5 105.5,17.5C 105.783,12.1019 103.45,10.1019 98.5,11.5C 97.5041,11.5858 96.6708,11.2524 96,10.5C 95.7811,9.06199 95.2811,7.72865 94.5,6.5C 92.4929,5.82912 90.6595,4.82912 89,3.5C 87.4329,4.85609 85.5996,5.52276 83.5,5.5C 80.9804,3.73679 78.6471,1.73679 76.5,-0.5 Z"/></g>
<g><path style="opacity:1" fill="#313d41" d="M 45.5,0.5 C 45.5,1.5 45.5,2.5 45.5,3.5C 41.0528,5.34854 36.5528,7.01521 32,8.5C 31.6667,7.5 31.3333,6.5 31,5.5C 30.2904,6.97326 29.1238,7.63993 27.5,7.5C 29.385,5.94678 30.385,3.94678 30.5,1.5C 31.4959,1.41423 32.3292,1.74756 33,2.5C 33.3076,1.69194 33.8076,1.02527 34.5,0.5C 38.3469,2.88911 42.0135,2.88911 45.5,0.5 Z"/></g>
<g><path style="opacity:1" fill="#1d1f1a" d="M 64.5,-0.5 C 68.5,-0.5 72.5,-0.5 76.5,-0.5C 78.6471,1.73679 80.9804,3.73679 83.5,5.5C 84.8438,7.16825 86.1771,8.83492 87.5,10.5C 87.1667,11.1667 86.8333,11.8333 86.5,12.5C 83.5692,11.7272 80.7359,10.7272 78,9.5C 77.5357,10.0944 77.369,10.7611 77.5,11.5C 77.1667,11.5 76.8333,11.5 76.5,11.5C 76.631,10.7611 76.4643,10.0944 76,9.5C 71.9739,6.30162 68.1405,2.96829 64.5,-0.5 Z"/></g>
<g><path style="opacity:0.89" fill="#5b6a72" d="M 30.5,1.5 C 30.385,3.94678 29.385,5.94678 27.5,7.5C 25.0876,7.24395 23.4209,8.24395 22.5,10.5C 22.5961,8.78525 22.5961,7.11859 22.5,5.5C 22.8333,4.5 23.5,3.83333 24.5,3.5C 25.0736,4.52806 25.407,5.52806 25.5,6.5C 27.5486,5.11822 29.2153,3.45155 30.5,1.5 Z"/></g>
<g><path style="opacity:1" fill="#141611" d="M 49.5,2.5 C 51.2879,5.23963 52.9546,8.07296 54.5,11C 54.0116,12.584 53.0116,13.7506 51.5,14.5C 52.7629,16.0287 53.7629,17.6954 54.5,19.5C 53.8333,19.5 53.1667,19.5 52.5,19.5C 52.1667,18.8333 51.8333,18.1667 51.5,17.5C 50.3117,16.6364 49.1451,15.6364 48,14.5C 46.8173,15.731 45.6507,15.731 44.5,14.5C 43.9264,12.9411 43.2598,11.4411 42.5,10C 43.624,9.75083 44.624,9.25083 45.5,8.5C 45.3764,7.89333 45.0431,7.55999 44.5,7.5C 45.422,5.18365 47.0887,3.51698 49.5,2.5 Z"/></g>
<g><path style="opacity:1" fill="#181a15" d="M 58.5,-0.5 C 60.5,-0.5 62.5,-0.5 64.5,-0.5C 68.1405,2.96829 71.9739,6.30162 76,9.5C 76.4643,10.0944 76.631,10.7611 76.5,11.5C 75.2436,11.0962 74.0769,10.4295 73,9.5C 72.5,9.83333 72,10.1667 71.5,10.5C 71.6694,12.1173 72.0028,13.784 72.5,15.5C 74.1667,16.3333 75.8333,17.1667 77.5,18C 76.5842,18.2784 75.9175,18.7784 75.5,19.5C 74.5041,19.5858 73.6708,19.2524 73,18.5C 72.3333,19.1667 71.6667,19.8333 71,20.5C 69.8904,18.9632 68.3904,18.2965 66.5,18.5C 63.0136,18.7047 62.0136,17.3714 63.5,14.5C 67.3354,13.9965 67.3354,12.9965 63.5,11.5C 64.325,10.6143 65.325,10.281 66.5,10.5C 66.6399,8.87623 65.9733,7.70956 64.5,7C 65.1667,6.66667 65.8333,6.33333 66.5,6C 64.2013,3.18334 61.5347,1.01667 58.5,-0.5 Z"/></g>
<g><path style="opacity:1" fill="#353530" d="M 90.5,-0.5 C 93.5,-0.5 96.5,-0.5 99.5,-0.5C 106.128,5.09011 110.461,12.0901 112.5,20.5C 110.621,21.3414 108.621,21.6747 106.5,21.5C 107.718,20.8386 109.051,20.1719 110.5,19.5C 109.738,19.0894 108.738,18.9227 107.5,19C 108.056,18.6174 108.389,18.1174 108.5,17.5C 107.347,15.1932 106.18,12.8599 105,10.5C 101.309,8.82585 98.1428,6.32585 95.5,3C 92.1405,2.59517 88.8072,1.9285 85.5,1C 86.6716,0.646574 87.8382,0.81324 89,1.5C 90.0299,1.16389 90.5299,0.497222 90.5,-0.5 Z"/></g>
<g><path style="opacity:1" fill="#151712" d="M 54.5,-0.5 C 55.8333,-0.5 57.1667,-0.5 58.5,-0.5C 61.5347,1.01667 64.2013,3.18334 66.5,6C 65.8333,6.33333 65.1667,6.66667 64.5,7C 65.9733,7.70956 66.6399,8.87623 66.5,10.5C 65.325,10.281 64.325,10.6143 63.5,11.5C 67.3354,12.9965 67.3354,13.9965 63.5,14.5C 60.8602,14.046 58.5268,12.8793 56.5,11C 57.6721,10.5814 58.6721,9.91471 59.5,9C 57.5975,8.80083 56.0975,7.96749 55,6.5C 54.6667,6.83333 54.3333,7.16667 54,7.5C 54.4969,5.80157 54.3302,4.1349 53.5,2.5C 55.435,1.78703 55.7683,0.787033 54.5,-0.5 Z"/></g>
<g><path style="opacity:1" fill="#23251f" d="M 98.5,11.5 C 100.151,13.6644 101.818,15.8311 103.5,18C 103,19.5 102.5,21 102,22.5C 101.764,20.236 101.264,18.0693 100.5,16C 98.4528,15.946 98.4528,16.946 100.5,19C 98.4324,18.9827 96.7657,17.9827 95.5,16C 93.8333,15.3333 92.1667,15.3333 90.5,16C 93.4779,19.4161 94.4779,23.2495 93.5,27.5C 92.6236,27.3691 91.9569,27.7025 91.5,28.5C 93.6061,29.897 95.2728,31.7304 96.5,34C 94.3339,33.0775 92.0005,32.2441 89.5,31.5C 88.2739,31.5195 87.2739,31.8529 86.5,32.5C 84.5648,31.8505 82.5648,31.5172 80.5,31.5C 79.8333,31.5 79.5,31.1667 79.5,30.5C 79.1667,29.8333 78.8333,29.1667 78.5,28.5C 79.8062,28.121 81.1395,27.7876 82.5,27.5C 80.9846,25.735 80.3179,23.735 80.5,21.5C 80.5858,20.5041 80.2524,19.6708 79.5,19C 81.5767,18.8078 83.5767,18.3078 85.5,17.5C 83.244,16.5791 82.244,14.9124 82.5,12.5C 80.7085,12.634 79.0418,12.3007 77.5,11.5C 77.369,10.7611 77.5357,10.0944 78,9.5C 80.7359,10.7272 83.5692,11.7272 86.5,12.5C 86.8333,11.8333 87.1667,11.1667 87.5,10.5C 86.1771,8.83492 84.8438,7.16825 83.5,5.5C 85.5996,5.52276 87.4329,4.85609 89,3.5C 90.6595,4.82912 92.4929,5.82912 94.5,6.5C 95.2811,7.72865 95.7811,9.06199 96,10.5C 96.6708,11.2524 97.5041,11.5858 98.5,11.5 Z"/></g>
<g><path style="opacity:0.702" fill="#3c484b" d="M 22.5,5.5 C 22.5961,7.11859 22.5961,8.78525 22.5,10.5C 23.4209,8.24395 25.0876,7.24395 27.5,7.5C 25.8333,9.16667 24.1667,10.8333 22.5,12.5C 21.8333,12.5 21.5,12.8333 21.5,13.5C 20.8826,13.6107 20.3826,13.944 20,14.5C 19.7216,13.5842 19.2216,12.9175 18.5,12.5C 19.0787,9.66895 20.412,7.33561 22.5,5.5 Z"/></g>
<g><path style="opacity:1" fill="#171913" d="M 44.5,7.5 C 45.0431,7.55999 45.3764,7.89333 45.5,8.5C 44.624,9.25083 43.624,9.75083 42.5,10C 43.2598,11.4411 43.9264,12.9411 44.5,14.5C 45.6507,15.731 46.8173,15.731 48,14.5C 49.1451,15.6364 50.3117,16.6364 51.5,17.5C 50.1779,17.67 49.0113,17.3366 48,16.5C 46.3189,18.2941 44.4856,18.7941 42.5,18C 41.7511,19.7337 41.2511,21.567 41,23.5C 39.3333,22.5 37.6667,21.5 36,20.5C 35.5026,17.854 35.3359,15.1873 35.5,12.5C 36.1237,14.8337 36.957,17.1671 38,19.5C 37.3361,15.8184 37.5028,12.1517 38.5,8.5C 40.7354,8.79472 42.7354,8.46138 44.5,7.5 Z"/></g>
<g><path style="opacity:1" fill="#1c2120" d="M 49.5,-0.5 C 49.8333,-0.5 50.1667,-0.5 50.5,-0.5C 50.7373,0.791047 50.404,1.79105 49.5,2.5C 47.0887,3.51698 45.422,5.18365 44.5,7.5C 42.7354,8.46138 40.7354,8.79472 38.5,8.5C 37.5028,12.1517 37.3361,15.8184 38,19.5C 36.957,17.1671 36.1237,14.8337 35.5,12.5C 34.8333,12.5 34.5,12.8333 34.5,13.5C 31.5203,13.7589 29.687,12.4256 29,9.5C 28.6667,10.5 28.3333,11.5 28,12.5C 26.2292,12.9198 24.3959,12.9198 22.5,12.5C 24.1667,10.8333 25.8333,9.16667 27.5,7.5C 29.1238,7.63993 30.2904,6.97326 31,5.5C 31.3333,6.5 31.6667,7.5 32,8.5C 36.5528,7.01521 41.0528,5.34854 45.5,3.5C 45.5,2.5 45.5,1.5 45.5,0.5C 47.099,0.767809 48.4324,0.434475 49.5,-0.5 Z"/></g>
<g><path style="opacity:1" fill="#191b15" d="M 50.5,-0.5 C 51.8333,-0.5 53.1667,-0.5 54.5,-0.5C 55.7683,0.787033 55.435,1.78703 53.5,2.5C 54.3302,4.1349 54.4969,5.80157 54,7.5C 54.3333,7.16667 54.6667,6.83333 55,6.5C 56.0975,7.96749 57.5975,8.80083 59.5,9C 58.6721,9.91471 57.6721,10.5814 56.5,11C 58.5268,12.8793 60.8602,14.046 63.5,14.5C 62.0136,17.3714 63.0136,18.7047 66.5,18.5C 67.1854,23.4529 65.8521,23.7862 62.5,19.5C 61.1575,20.9023 60.3242,20.5689 60,18.5C 58.1388,19.8729 56.3055,20.2062 54.5,19.5C 53.7629,17.6954 52.7629,16.0287 51.5,14.5C 53.0116,13.7506 54.0116,12.584 54.5,11C 52.9546,8.07296 51.2879,5.23963 49.5,2.5C 50.404,1.79105 50.7373,0.791047 50.5,-0.5 Z"/></g>
<g><path style="opacity:1" fill="#1b1c16" d="M 25.5,28.5 C 26.0306,31.8876 24.6973,33.8876 21.5,34.5C 21.5,33.5 21.5,32.5 21.5,31.5C 19.1511,31.5417 17.8178,30.3751 17.5,28C 19.1111,23.9016 20.4444,19.7349 21.5,15.5C 23.1026,14.3228 24.436,14.4894 25.5,16C 23.6992,16.3173 23.3659,16.984 24.5,18C 23.6433,18.6891 22.9767,19.5224 22.5,20.5C 22.3919,22.5631 22.7252,24.7297 23.5,27C 23.8361,28.0299 24.5028,28.5299 25.5,28.5 Z"/></g>
<g><path style="opacity:1" fill="#181b16" d="M 34.5,13.5 C 34.0825,14.2216 33.4158,14.7216 32.5,15C 33.5171,16.0495 33.6838,17.2161 33,18.5C 31.9698,16.2236 30.4698,15.5569 28.5,16.5C 29.1667,17.5 29.8333,18.5 30.5,19.5C 29.8728,20.4168 29.5394,21.4168 29.5,22.5C 30.4015,26.2407 29.0681,28.2407 25.5,28.5C 24.5028,28.5299 23.8361,28.0299 23.5,27C 22.7252,24.7297 22.3919,22.5631 22.5,20.5C 22.9767,19.5224 23.6433,18.6891 24.5,18C 23.3659,16.984 23.6992,16.3173 25.5,16C 24.436,14.4894 23.1026,14.3228 21.5,15.5C 21.5,14.8333 21.5,14.1667 21.5,13.5C 21.5,12.8333 21.8333,12.5 22.5,12.5C 24.3959,12.9198 26.2292,12.9198 28,12.5C 28.3333,11.5 28.6667,10.5 29,9.5C 29.687,12.4256 31.5203,13.7589 34.5,13.5 Z"/></g>
<g><path style="opacity:1" fill="#1e1f1b" d="M 76.5,11.5 C 76.8333,11.5 77.1667,11.5 77.5,11.5C 79.0418,12.3007 80.7085,12.634 82.5,12.5C 82.244,14.9124 83.244,16.5791 85.5,17.5C 83.5767,18.3078 81.5767,18.8078 79.5,19C 80.2524,19.6708 80.5858,20.5041 80.5,21.5C 78.9505,20.5592 77.2838,19.8925 75.5,19.5C 75.9175,18.7784 76.5842,18.2784 77.5,18C 75.8333,17.1667 74.1667,16.3333 72.5,15.5C 72.0028,13.784 71.6694,12.1173 71.5,10.5C 72,10.1667 72.5,9.83333 73,9.5C 74.0769,10.4295 75.2436,11.0962 76.5,11.5 Z"/></g>
<g><path style="opacity:0.902" fill="#495557" d="M 18.5,12.5 C 18.6061,15.0786 17.9395,17.412 16.5,19.5C 16.1667,19.5 15.8333,19.5 15.5,19.5C 15.5516,16.6538 16.5516,14.3204 18.5,12.5 Z"/></g>
<g><path style="opacity:1" fill="#1c1d17" d="M 35.5,12.5 C 35.3359,15.1873 35.5026,17.854 36,20.5C 37.6667,21.5 39.3333,22.5 41,23.5C 41.2511,21.567 41.7511,19.7337 42.5,18C 44.4856,18.7941 46.3189,18.2941 48,16.5C 49.0113,17.3366 50.1779,17.67 51.5,17.5C 51.8333,18.1667 52.1667,18.8333 52.5,19.5C 53.6935,20.2719 54.6935,21.2719 55.5,22.5C 53.6214,22.3932 53.2881,22.8932 54.5,24C 48.7604,27.2944 43.0938,27.1278 37.5,23.5C 35.8405,24.1716 34.5072,25.1716 33.5,26.5C 33.0432,24.2273 31.7099,22.894 29.5,22.5C 29.5394,21.4168 29.8728,20.4168 30.5,19.5C 29.8333,18.5 29.1667,17.5 28.5,16.5C 30.4698,15.5569 31.9698,16.2236 33,18.5C 33.6838,17.2161 33.5171,16.0495 32.5,15C 33.4158,14.7216 34.0825,14.2216 34.5,13.5C 34.5,12.8333 34.8333,12.5 35.5,12.5 Z"/></g>
<g><path style="opacity:1" fill="#282a25" d="M 108.5,17.5 C 108.389,18.1174 108.056,18.6174 107.5,19C 108.738,18.9227 109.738,19.0894 110.5,19.5C 109.051,20.1719 107.718,20.8386 106.5,21.5C 105.761,21.369 105.094,21.5357 104.5,22C 106.466,23.3466 106.799,24.8466 105.5,26.5C 104.883,26.3893 104.383,26.056 104,25.5C 102.644,27.4089 101.144,29.0755 99.5,30.5C 97.2845,29.956 95.2845,28.956 93.5,27.5C 94.4779,23.2495 93.4779,19.4161 90.5,16C 92.1667,15.3333 93.8333,15.3333 95.5,16C 96.7657,17.9827 98.4324,18.9827 100.5,19C 98.4528,16.946 98.4528,15.946 100.5,16C 101.264,18.0693 101.764,20.236 102,22.5C 102.5,21 103,19.5 103.5,18C 101.818,15.8311 100.151,13.6644 98.5,11.5C 103.45,10.1019 105.783,12.1019 105.5,17.5C 106.5,17.5 107.5,17.5 108.5,17.5 Z"/></g>
<g><path style="opacity:1" fill="#21201b" d="M 66.5,18.5 C 68.3904,18.2965 69.8904,18.9632 71,20.5C 71.6667,19.8333 72.3333,19.1667 73,18.5C 73.6708,19.2524 74.5041,19.5858 75.5,19.5C 77.2838,19.8925 78.9505,20.5592 80.5,21.5C 80.3179,23.735 80.9846,25.735 82.5,27.5C 81.1395,27.7876 79.8062,28.121 78.5,28.5C 74.6557,27.2192 70.8223,25.8859 67,24.5C 66.3292,25.2524 65.4959,25.5858 64.5,25.5C 64.1344,24.3054 63.301,23.6387 62,23.5C 60.9895,23.8919 60.4895,24.5585 60.5,25.5C 58.4024,25.0428 56.7358,24.0428 55.5,22.5C 54.6935,21.2719 53.6935,20.2719 52.5,19.5C 53.1667,19.5 53.8333,19.5 54.5,19.5C 56.3055,20.2062 58.1388,19.8729 60,18.5C 60.3242,20.5689 61.1575,20.9023 62.5,19.5C 65.8521,23.7862 67.1854,23.4529 66.5,18.5 Z"/></g>
<g><path style="opacity:0.981" fill="#31322d" d="M 112.5,20.5 C 114.083,26.3181 113.75,31.9848 111.5,37.5C 110.127,37.6567 108.793,37.49 107.5,37C 108.022,36.4387 108.355,35.772 108.5,35C 105.544,32.6454 104.544,29.812 105.5,26.5C 106.799,24.8466 106.466,23.3466 104.5,22C 105.094,21.5357 105.761,21.369 106.5,21.5C 108.621,21.6747 110.621,21.3414 112.5,20.5 Z"/></g>
<g><path style="opacity:1" fill="#28231a" d="M 55.5,22.5 C 56.7358,24.0428 58.4024,25.0428 60.5,25.5C 60.4895,24.5585 60.9895,23.8919 62,23.5C 63.301,23.6387 64.1344,24.3054 64.5,25.5C 59.85,27.5496 54.85,28.5496 49.5,28.5C 45.0581,28.1201 40.8914,27.4535 37,26.5C 36.2917,27.3805 35.4584,28.0472 34.5,28.5C 34.1667,27.8333 33.8333,27.1667 33.5,26.5C 34.5072,25.1716 35.8405,24.1716 37.5,23.5C 43.0938,27.1278 48.7604,27.2944 54.5,24C 53.2881,22.8932 53.6214,22.3932 55.5,22.5 Z"/></g>
<g><path style="opacity:1" fill="#3c2c1f" d="M 78.5,28.5 C 78.8333,29.1667 79.1667,29.8333 79.5,30.5C 78.8333,30.5 78.1667,30.5 77.5,30.5C 76.0697,29.4625 74.403,28.7959 72.5,28.5C 71.7261,27.8529 70.7261,27.5195 69.5,27.5C 66.6205,28.7952 63.6205,29.4618 60.5,29.5C 59.5,29.5 58.5,29.5 57.5,29.5C 52.4814,29.7522 47.4814,30.2522 42.5,31C 43.8882,31.8893 43.7215,32.3893 42,32.5C 40.395,31.8993 39.0616,30.8993 38,29.5C 38.1085,30.7688 37.9418,31.7688 37.5,32.5C 36.8333,32.5 36.5,32.1667 36.5,31.5C 35.8333,30.5 35.1667,29.5 34.5,28.5C 35.4584,28.0472 36.2917,27.3805 37,26.5C 40.8914,27.4535 45.0581,28.1201 49.5,28.5C 54.85,28.5496 59.85,27.5496 64.5,25.5C 65.4959,25.5858 66.3292,25.2524 67,24.5C 70.8223,25.8859 74.6557,27.2192 78.5,28.5 Z"/></g>
<g><path style="opacity:1" fill="#735642" d="M 72.5,28.5 C 70.3925,28.7221 68.7258,29.7221 67.5,31.5C 65.0177,30.9329 62.6843,30.2663 60.5,29.5C 63.6205,29.4618 66.6205,28.7952 69.5,27.5C 70.7261,27.5195 71.7261,27.8529 72.5,28.5 Z"/></g>
<g><path style="opacity:1" fill="#2c2e29" d="M 105.5,26.5 C 104.544,29.812 105.544,32.6454 108.5,35C 108.355,35.772 108.022,36.4387 107.5,37C 108.793,37.49 110.127,37.6567 111.5,37.5C 111.065,40.1573 110.065,42.4907 108.5,44.5C 107.63,42.9681 107.964,41.4681 109.5,40C 107.77,38.1476 106.604,38.3143 106,40.5C 102.534,37.8738 100.367,34.5405 99.5,30.5C 101.144,29.0755 102.644,27.4089 104,25.5C 104.383,26.056 104.883,26.3893 105.5,26.5 Z"/></g>
<g><path style="opacity:1" fill="#24221a" d="M 93.5,27.5 C 95.2845,28.956 97.2845,29.956 99.5,30.5C 100.367,34.5405 102.534,37.8738 106,40.5C 106.604,38.3143 107.77,38.1476 109.5,40C 107.964,41.4681 107.63,42.9681 108.5,44.5C 108.167,45.5 107.5,46.1667 106.5,46.5C 104.887,46.0557 103.72,45.0557 103,43.5C 102.722,44.4158 102.222,45.0825 101.5,45.5C 102.244,42.0504 100.91,40.3838 97.5,40.5C 95.1667,38.5 92.8333,36.5 90.5,34.5C 89.3285,33.6554 87.9952,32.9887 86.5,32.5C 87.2739,31.8529 88.2739,31.5195 89.5,31.5C 92.0005,32.2441 94.3339,33.0775 96.5,34C 95.2728,31.7304 93.6061,29.897 91.5,28.5C 91.9569,27.7025 92.6236,27.3691 93.5,27.5 Z"/></g>
<g><path style="opacity:1" fill="#d7bba7" d="M 72.5,28.5 C 74.403,28.7959 76.0697,29.4625 77.5,30.5C 73.9155,31.5828 70.2488,32.2494 66.5,32.5C 66.8333,34.5 67.1667,36.5 67.5,38.5C 65.5168,38.1568 64.1834,38.8235 63.5,40.5C 61.9991,39.2485 60.3325,38.2485 58.5,37.5C 57.078,36.075 55.4113,35.075 53.5,34.5C 51.9102,34.3718 50.5769,33.7051 49.5,32.5C 52.0923,31.0827 54.759,30.0827 57.5,29.5C 58.5,29.5 59.5,29.5 60.5,29.5C 62.6843,30.2663 65.0177,30.9329 67.5,31.5C 68.7258,29.7221 70.3925,28.7221 72.5,28.5 Z"/></g>
<g><path style="opacity:1" fill="#d7bfaa" d="M 77.5,30.5 C 78.1667,30.5 78.8333,30.5 79.5,30.5C 79.5,31.1667 79.8333,31.5 80.5,31.5C 78.6287,32.7972 76.6287,33.7972 74.5,34.5C 69.0069,35.3062 68.3402,37.4729 72.5,41C 70.9512,42.214 69.7845,43.714 69,45.5C 68.6174,44.944 68.1174,44.6107 67.5,44.5C 65.2273,44.0432 63.894,42.7099 63.5,40.5C 64.1834,38.8235 65.5168,38.1568 67.5,38.5C 67.1667,36.5 66.8333,34.5 66.5,32.5C 70.2488,32.2494 73.9155,31.5828 77.5,30.5 Z"/></g>
<g><path style="opacity:1" fill="#978578" d="M 80.5,31.5 C 82.5648,31.5172 84.5648,31.8505 86.5,32.5C 87.9952,32.9887 89.3285,33.6554 90.5,34.5C 89.2617,34.81 89.2617,35.31 90.5,36C 87.1727,36.6103 83.8394,37.1103 80.5,37.5C 84.3461,35.7582 83.8461,34.7582 79,34.5C 77.0448,34.6406 75.5448,35.474 74.5,37C 75.0944,37.4643 75.7611,37.631 76.5,37.5C 74.9652,38.7879 73.2985,38.7879 71.5,37.5C 72.3398,36.265 73.3398,35.265 74.5,34.5C 76.6287,33.7972 78.6287,32.7972 80.5,31.5 Z"/></g>
<g><path style="opacity:1" fill="#222521" d="M 18.5,12.5 C 19.2216,12.9175 19.7216,13.5842 20,14.5C 20.3826,13.944 20.8826,13.6107 21.5,13.5C 21.5,14.1667 21.5,14.8333 21.5,15.5C 20.4444,19.7349 19.1111,23.9016 17.5,28C 17.8178,30.3751 19.1511,31.5417 21.5,31.5C 21.5,32.5 21.5,33.5 21.5,34.5C 21.5,34.8333 21.5,35.1667 21.5,35.5C 20.1316,37.779 18.2983,38.4457 16,37.5C 15.254,31.4492 15.4207,25.4492 16.5,19.5C 17.9395,17.412 18.6061,15.0786 18.5,12.5 Z"/></g>
<g><path style="opacity:1" fill="#242a28" d="M 15.5,19.5 C 15.8333,19.5 16.1667,19.5 16.5,19.5C 15.4207,25.4492 15.254,31.4492 16,37.5C 18.2983,38.4457 20.1316,37.779 21.5,35.5C 22.2344,36.8775 22.9011,38.3775 23.5,40C 20.9557,41.0985 20.9557,42.2652 23.5,43.5C 24.4519,45.0453 24.7852,46.712 24.5,48.5C 24.0269,49.9063 23.0269,50.573 21.5,50.5C 19.8073,49.5251 18.3073,48.1918 17,46.5C 13.1199,37.625 12.6199,28.625 15.5,19.5 Z"/></g>
<g><path style="opacity:1" fill="#7b6857" d="M 57.5,29.5 C 54.759,30.0827 52.0923,31.0827 49.5,32.5C 50.5769,33.7051 51.9102,34.3718 53.5,34.5C 54.4756,35.8149 55.4756,37.1482 56.5,38.5C 55.8333,38.8333 55.1667,39.1667 54.5,39.5C 48.8306,38.9217 43.164,38.255 37.5,37.5C 38.2634,36.2807 39.2634,35.2807 40.5,34.5C 39.3984,33.8243 38.3984,33.1577 37.5,32.5C 37.9418,31.7688 38.1085,30.7688 38,29.5C 39.0616,30.8993 40.395,31.8993 42,32.5C 43.7215,32.3893 43.8882,31.8893 42.5,31C 47.4814,30.2522 52.4814,29.7522 57.5,29.5 Z"/></g>
<g><path style="opacity:1" fill="#746255" d="M 80.5,37.5 C 79.1667,37.5 77.8333,37.5 76.5,37.5C 75.7611,37.631 75.0944,37.4643 74.5,37C 75.5448,35.474 77.0448,34.6406 79,34.5C 83.8461,34.7582 84.3461,35.7582 80.5,37.5 Z"/></g>
<g><path style="opacity:1" fill="#594733" d="M 33.5,26.5 C 33.8333,27.1667 34.1667,27.8333 34.5,28.5C 35.1667,29.5 35.8333,30.5 36.5,31.5C 34.9139,30.5868 33.4139,30.5868 32,31.5C 30.7186,36.1774 28.8853,40.5107 26.5,44.5C 28.4259,38.6425 29.7592,32.6425 30.5,26.5C 31.5,26.5 32.5,26.5 33.5,26.5 Z"/></g>
<g><path style="opacity:1" fill="#a1856a" d="M 36.5,31.5 C 36.5,32.1667 36.8333,32.5 37.5,32.5C 38.3984,33.1577 39.3984,33.8243 40.5,34.5C 39.2634,35.2807 38.2634,36.2807 37.5,37.5C 43.164,38.255 48.8306,38.9217 54.5,39.5C 55.1667,39.1667 55.8333,38.8333 56.5,38.5C 55.4756,37.1482 54.4756,35.8149 53.5,34.5C 55.4113,35.075 57.078,36.075 58.5,37.5C 58.4142,38.4959 58.7476,39.3292 59.5,40C 58.1667,40.3333 56.8333,40.6667 55.5,41C 57.1412,42.129 58.1412,43.629 58.5,45.5C 54.3374,41.7193 49.3374,40.0526 43.5,40.5C 39.6305,41.3533 36.4638,43.3533 34,46.5C 33.8374,44.6133 34.6707,43.1133 36.5,42C 35.8732,39.6566 34.8732,37.4899 33.5,35.5C 32.5887,39.2486 30.922,42.5819 28.5,45.5C 28.8793,47.2131 29.8793,48.2131 31.5,48.5C 30.791,49.404 29.791,49.7373 28.5,49.5C 27.2223,49.7822 26.2223,50.4489 25.5,51.5C 25.5,50.5 25.5,49.5 25.5,48.5C 25.2322,46.901 25.5655,45.5676 26.5,44.5C 28.8853,40.5107 30.7186,36.1774 32,31.5C 33.4139,30.5868 34.9139,30.5868 36.5,31.5 Z"/></g>
<g><path style="opacity:1" fill="#4e3f35" d="M 45.5,35.5 C 47.604,35.2011 49.604,35.5344 51.5,36.5C 50.5,36.8333 49.5,37.1667 48.5,37.5C 46.9704,37.3601 45.9704,36.6935 45.5,35.5 Z"/></g>
<g><path style="opacity:1" fill="#b6967c" d="M 74.5,34.5 C 73.3398,35.265 72.3398,36.265 71.5,37.5C 73.2985,38.7879 74.9652,38.7879 76.5,37.5C 77.8333,37.5 79.1667,37.5 80.5,37.5C 82.2922,38.3091 84.2922,38.8091 86.5,39C 81.9444,39.1095 77.6111,40.1095 73.5,42C 76.7928,42.8256 80.1262,43.3256 83.5,43.5C 83.5,43.8333 83.5,44.1667 83.5,44.5C 83.5,44.8333 83.5,45.1667 83.5,45.5C 83.1667,45.5 82.8333,45.5 82.5,45.5C 80.7768,44.193 78.9435,44.193 77,45.5C 76.5152,48.1715 77.6819,49.5048 80.5,49.5C 80.7986,50.7603 80.7986,51.927 80.5,53C 78.0983,53.6779 75.9317,53.1779 74,51.5C 73.228,51.6448 72.5613,51.9781 72,52.5C 71.678,54.6889 72.178,56.6889 73.5,58.5C 69.6307,55.0913 67.6307,50.758 67.5,45.5C 67.5,45.1667 67.5,44.8333 67.5,44.5C 68.1174,44.6107 68.6174,44.944 69,45.5C 69.7845,43.714 70.9512,42.214 72.5,41C 68.3402,37.4729 69.0069,35.3062 74.5,34.5 Z"/></g>
<g><path style="opacity:1" fill="#25251c" d="M 29.5,22.5 C 31.7099,22.894 33.0432,24.2273 33.5,26.5C 32.5,26.5 31.5,26.5 30.5,26.5C 29.7592,32.6425 28.4259,38.6425 26.5,44.5C 25.5655,45.5676 25.2322,46.901 25.5,48.5C 25.1667,48.5 24.8333,48.5 24.5,48.5C 24.7852,46.712 24.4519,45.0453 23.5,43.5C 20.9557,42.2652 20.9557,41.0985 23.5,40C 22.9011,38.3775 22.2344,36.8775 21.5,35.5C 21.5,35.1667 21.5,34.8333 21.5,34.5C 24.6973,33.8876 26.0306,31.8876 25.5,28.5C 29.0681,28.2407 30.4015,26.2407 29.5,22.5 Z"/></g>
<g><path style="opacity:1" fill="#cdb296" d="M 90.5,34.5 C 92.8333,36.5 95.1667,38.5 97.5,40.5C 98.4558,41.6594 99.4558,42.8261 100.5,44C 99.4647,45.2737 98.298,46.4404 97,47.5C 95.4955,42.6405 92.3289,40.1405 87.5,40C 87.7284,40.3988 88.0618,40.5654 88.5,40.5C 87.9517,43.0838 86.285,44.0838 83.5,43.5C 80.1262,43.3256 76.7928,42.8256 73.5,42C 77.6111,40.1095 81.9444,39.1095 86.5,39C 84.2922,38.8091 82.2922,38.3091 80.5,37.5C 83.8394,37.1103 87.1727,36.6103 90.5,36C 89.2617,35.31 89.2617,34.81 90.5,34.5 Z"/></g>
<g><path style="opacity:1" fill="#c9a989" d="M 88.5,40.5 C 91.9321,41.5993 93.9321,43.9326 94.5,47.5C 92.1073,48.3527 90.774,50.0194 90.5,52.5C 84.476,54.4377 82.476,52.4377 84.5,46.5C 85.5754,47.5624 86.5754,47.5624 87.5,46.5C 86.4231,45.2949 85.0898,44.6282 83.5,44.5C 83.5,44.1667 83.5,43.8333 83.5,43.5C 86.285,44.0838 87.9517,43.0838 88.5,40.5 Z"/></g>
<g><path style="opacity:1" fill="#59442a" d="M 83.5,45.5 C 83.5,45.1667 83.5,44.8333 83.5,44.5C 85.0898,44.6282 86.4231,45.2949 87.5,46.5C 86.5754,47.5624 85.5754,47.5624 84.5,46.5C 84.5,45.8333 84.1667,45.5 83.5,45.5 Z"/></g>
<g><path style="opacity:1" fill="#ccae92" d="M 43.5,40.5 C 49.3374,40.0526 54.3374,41.7193 58.5,45.5C 58.5,46.1667 58.5,46.8333 58.5,47.5C 58.2504,48.9221 57.417,49.9221 56,50.5C 55.2411,48.9371 54.0744,47.9371 52.5,47.5C 52.0269,46.0937 51.0269,45.427 49.5,45.5C 48.791,44.596 47.791,44.2627 46.5,44.5C 45.2112,43.3634 44.2112,42.0301 43.5,40.5 Z"/></g>
<g><path style="opacity:1" fill="#3d382d" d="M 106.5,46.5 C 106.167,47.1667 105.833,47.8333 105.5,48.5C 104.791,49.404 103.791,49.7373 102.5,49.5C 102.737,50.791 102.404,51.791 101.5,52.5C 101.5,51.1667 101.5,49.8333 101.5,48.5C 101.5,47.5 101.5,46.5 101.5,45.5C 102.222,45.0825 102.722,44.4158 103,43.5C 103.72,45.0557 104.887,46.0557 106.5,46.5 Z"/></g>
<g><path style="opacity:1" fill="#b59979" d="M 43.5,40.5 C 44.2112,42.0301 45.2112,43.3634 46.5,44.5C 44.4862,44.3915 42.8195,45.0582 41.5,46.5C 38.1056,47.7158 37.7722,49.3825 40.5,51.5C 40.0277,54.5187 38.5277,55.5187 36,54.5C 35.5172,55.448 35.3505,56.448 35.5,57.5C 34.5987,56.7095 33.9321,55.7095 33.5,54.5C 32.9518,52.3736 32.2852,50.3736 31.5,48.5C 29.8793,48.2131 28.8793,47.2131 28.5,45.5C 30.922,42.5819 32.5887,39.2486 33.5,35.5C 34.8732,37.4899 35.8732,39.6566 36.5,42C 34.6707,43.1133 33.8374,44.6133 34,46.5C 36.4638,43.3533 39.6305,41.3533 43.5,40.5 Z"/></g>
<g><path style="opacity:1" fill="#5e4a33" d="M 46.5,44.5 C 47.791,44.2627 48.791,44.596 49.5,45.5C 47.8212,45.2852 46.8212,45.9519 46.5,47.5C 44.7259,46.119 43.2259,46.4523 42,48.5C 41.5357,47.9056 41.369,47.2389 41.5,46.5C 42.8195,45.0582 44.4862,44.3915 46.5,44.5 Z"/></g>
<g><path style="opacity:1" fill="#3b3028" d="M 49.5,45.5 C 51.0269,45.427 52.0269,46.0937 52.5,47.5C 50.9468,49.385 48.9468,50.385 46.5,50.5C 46.5,49.5 46.5,48.5 46.5,47.5C 46.8212,45.9519 47.8212,45.2852 49.5,45.5 Z"/></g>
<g><path style="opacity:1" fill="#3f3426" d="M 82.5,45.5 C 82.7709,47.3797 82.1042,48.713 80.5,49.5C 77.6819,49.5048 76.5152,48.1715 77,45.5C 78.9435,44.193 80.7768,44.193 82.5,45.5 Z"/></g>
<g><path style="opacity:1" fill="#a3896e" d="M 97.5,40.5 C 100.91,40.3838 102.244,42.0504 101.5,45.5C 101.5,46.5 101.5,47.5 101.5,48.5C 101.167,48.5 100.833,48.5 100.5,48.5C 96.8493,48.1617 95.1826,49.8284 95.5,53.5C 95.573,55.0269 94.9063,56.0269 93.5,56.5C 94.1587,53.5448 94.4921,50.5448 94.5,47.5C 93.9321,43.9326 91.9321,41.5993 88.5,40.5C 88.0618,40.5654 87.7284,40.3988 87.5,40C 92.3289,40.1405 95.4955,42.6405 97,47.5C 98.298,46.4404 99.4647,45.2737 100.5,44C 99.4558,42.8261 98.4558,41.6594 97.5,40.5 Z"/></g>
<g><path style="opacity:0.784" fill="#9c7b67" d="M 112.5,49.5 C 111.5,49.5 110.5,49.5 109.5,49.5C 107.5,49.8333 105.5,50.1667 103.5,50.5C 102.949,53.8067 102.616,57.1401 102.5,60.5C 101.527,58.0521 101.194,55.3854 101.5,52.5C 102.404,51.791 102.737,50.791 102.5,49.5C 103.791,49.7373 104.791,49.404 105.5,48.5C 108.072,47.2916 110.406,47.6249 112.5,49.5 Z"/></g>
<g><path style="opacity:0.533" fill="#cb8773" d="M 109.5,49.5 C 110.5,49.5 111.5,49.5 112.5,49.5C 113.674,50.5137 114.34,51.847 114.5,53.5C 114.598,56.2476 113.598,56.9143 111.5,55.5C 111.5,55.1667 111.5,54.8333 111.5,54.5C 110.833,52.8333 110.167,51.1667 109.5,49.5 Z"/></g>
<g><path style="opacity:0.322" fill="#8a7465" d="M 15.5,52.5 C 16.9187,51.5489 18.5853,51.2155 20.5,51.5C 21.5676,52.4345 22.901,52.7678 24.5,52.5C 24.5,53.8333 24.5,55.1667 24.5,56.5C 23.596,55.791 23.2627,54.791 23.5,53.5C 20.8333,53.1667 18.1667,52.8333 15.5,52.5 Z"/></g>
<g><path style="opacity:0.196" fill="#514637" d="M 24.5,48.5 C 24.8333,48.5 25.1667,48.5 25.5,48.5C 25.5,49.5 25.5,50.5 25.5,51.5C 25.7845,53.4147 25.4511,55.0813 24.5,56.5C 24.5,55.1667 24.5,53.8333 24.5,52.5C 22.901,52.7678 21.5676,52.4345 20.5,51.5C 21.1667,51.5 21.5,51.1667 21.5,50.5C 23.0269,50.573 24.0269,49.9063 24.5,48.5 Z"/></g>
<g><path style="opacity:1" fill="#ae8b71" d="M 41.5,46.5 C 41.369,47.2389 41.5357,47.9056 42,48.5C 43.2259,46.4523 44.7259,46.119 46.5,47.5C 46.5,48.5 46.5,49.5 46.5,50.5C 48.9468,50.385 50.9468,49.385 52.5,47.5C 54.0744,47.9371 55.2411,48.9371 56,50.5C 57.417,49.9221 58.2504,48.9221 58.5,47.5C 59.8891,50.8826 59.2224,53.8826 56.5,56.5C 55.2058,55.7101 54.0391,54.7101 53,53.5C 52.6667,53.8333 52.3333,54.1667 52,54.5C 48.1688,53.5007 44.3354,52.5007 40.5,51.5C 37.7722,49.3825 38.1056,47.7158 41.5,46.5 Z"/></g>
<g><path style="opacity:1" fill="#cda78c" d="M 58.5,37.5 C 60.3325,38.2485 61.9991,39.2485 63.5,40.5C 63.894,42.7099 65.2273,44.0432 67.5,44.5C 67.5,44.8333 67.5,45.1667 67.5,45.5C 65.6198,46.0782 64.6198,47.4115 64.5,49.5C 63.8323,54.8466 63.1657,60.1799 62.5,65.5C 63.0347,67.4456 64.368,68.4456 66.5,68.5C 69.1569,68.162 71.4902,68.8287 73.5,70.5C 74.086,70.2907 74.586,69.9574 75,69.5C 75.195,70.8193 75.0283,72.1526 74.5,73.5C 73.8333,73.5 73.1667,73.5 72.5,73.5C 72.6107,72.8826 72.944,72.3826 73.5,72C 71.99,71.1502 70.49,70.3169 69,69.5C 66.5661,70.3223 64.0661,70.6556 61.5,70.5C 60.1667,69.1667 58.8333,69.1667 57.5,70.5C 56.5,70.5 55.5,70.5 54.5,70.5C 54.3505,69.448 54.5172,68.448 55,67.5C 56.6667,66.5 58,65.1667 59,63.5C 60.2981,57.6552 61.7981,51.8219 63.5,46C 62.3521,44.274 61.1855,44.4407 60,46.5C 59.6174,45.944 59.1174,45.6107 58.5,45.5C 58.1412,43.629 57.1412,42.129 55.5,41C 56.8333,40.6667 58.1667,40.3333 59.5,40C 58.7476,39.3292 58.4142,38.4959 58.5,37.5 Z"/></g>
<g><path style="opacity:1" fill="#dcc1a6" d="M 82.5,45.5 C 82.8333,45.5 83.1667,45.5 83.5,45.5C 84.1667,45.5 84.5,45.8333 84.5,46.5C 82.476,52.4377 84.476,54.4377 90.5,52.5C 90.774,50.0194 92.1073,48.3527 94.5,47.5C 94.4921,50.5448 94.1587,53.5448 93.5,56.5C 91.8333,57.5 90.5,58.8333 89.5,60.5C 85.5662,61.3597 81.5662,61.693 77.5,61.5C 76.7377,59.7376 75.4044,58.7376 73.5,58.5C 72.178,56.6889 71.678,54.6889 72,52.5C 72.5613,51.9781 73.228,51.6448 74,51.5C 75.9317,53.1779 78.0983,53.6779 80.5,53C 80.7986,51.927 80.7986,50.7603 80.5,49.5C 82.1042,48.713 82.7709,47.3797 82.5,45.5 Z"/></g>
<g><path style="opacity:1" fill="#bc5c47" d="M 18.5,55.5 C 17.7828,57.9534 16.6162,60.2867 15,62.5C 13.6485,60.4062 13.1485,58.0728 13.5,55.5C 15.3344,54.506 17.0011,54.506 18.5,55.5 Z"/></g>
<g><path style="opacity:1" fill="#c9a689" d="M 40.5,51.5 C 44.3354,52.5007 48.1688,53.5007 52,54.5C 52.3333,54.1667 52.6667,53.8333 53,53.5C 54.0391,54.7101 55.2058,55.7101 56.5,56.5C 55.6411,59.4521 53.6411,61.2854 50.5,62C 46.3105,62.8097 42.3105,62.3097 38.5,60.5C 36.5,60.5 35.5,59.5 35.5,57.5C 35.3505,56.448 35.5172,55.448 36,54.5C 38.5277,55.5187 40.0277,54.5187 40.5,51.5 Z"/></g>
<g><path style="opacity:1" fill="#e6c9b4" d="M 66.5,68.5 C 64.368,68.4456 63.0347,67.4456 62.5,65.5C 63.1174,65.3893 63.6174,65.056 64,64.5C 64.3333,61.1667 64.6667,57.8333 65,54.5C 66.6852,52.0122 68.0186,52.3455 69,55.5C 69.1112,58.6446 69.2779,61.6446 69.5,64.5C 69.2133,66.4433 68.2133,67.7767 66.5,68.5 Z"/></g>
<g><path style="opacity:1" fill="#b2927e" d="M 89.5,60.5 C 86.7491,62.9745 83.4158,63.9745 79.5,63.5C 79.1583,62.6618 78.4916,62.3284 77.5,62.5C 77.5,62.1667 77.5,61.8333 77.5,61.5C 81.5662,61.693 85.5662,61.3597 89.5,60.5 Z"/></g>
<g><path style="opacity:0.404" fill="#dab0a1" d="M 114.5,53.5 C 115.713,59.5392 114.046,64.8726 109.5,69.5C 106.341,70.8846 103.008,71.8846 99.5,72.5C 99.4326,71.0413 99.7659,69.7079 100.5,68.5C 101.5,68.5 102.5,68.5 103.5,68.5C 104.313,69.6527 105.313,69.6527 106.5,68.5C 110.672,65.1519 112.339,60.8186 111.5,55.5C 113.598,56.9143 114.598,56.2476 114.5,53.5 Z"/></g>
<g><path style="opacity:1" fill="#cbae90" d="M 33.5,54.5 C 33.9321,55.7095 34.5987,56.7095 35.5,57.5C 35.5,59.5 36.5,60.5 38.5,60.5C 38.5,60.8333 38.5,61.1667 38.5,61.5C 38.4226,62.7498 37.756,63.5831 36.5,64C 37.3366,65.0113 37.67,66.1779 37.5,67.5C 39.711,67.9668 41.711,68.9668 43.5,70.5C 42.8333,71.1667 42.1667,71.8333 41.5,72.5C 44.5926,72.9981 47.4259,73.9981 50,75.5C 50.4643,74.9056 50.631,74.2389 50.5,73.5C 51.9063,73.9731 52.573,74.9731 52.5,76.5C 51.1225,77.2344 49.6225,77.9011 48,78.5C 47.3828,79.4491 47.5494,80.2825 48.5,81C 46.5356,82.6255 44.869,84.4588 43.5,86.5C 42.2058,85.7101 41.0391,84.7101 40,83.5C 36.7185,76.566 34.2185,69.2327 32.5,61.5C 32.6799,60.4461 33.0133,59.4461 33.5,58.5C 30.9818,56.8443 30.9818,55.5109 33.5,54.5 Z"/></g>
<g><path style="opacity:1" fill="#d1b098" d="M 38.5,61.5 C 41.5121,63.5024 44.8455,64.669 48.5,65C 50.229,66.7889 50.8957,68.9556 50.5,71.5C 50.5,72.1667 50.5,72.8333 50.5,73.5C 50.631,74.2389 50.4643,74.9056 50,75.5C 47.4259,73.9981 44.5926,72.9981 41.5,72.5C 42.1667,71.8333 42.8333,71.1667 43.5,70.5C 41.711,68.9668 39.711,67.9668 37.5,67.5C 37.67,66.1779 37.3366,65.0113 36.5,64C 37.756,63.5831 38.4226,62.7498 38.5,61.5 Z"/></g>
<g><path style="opacity:1" fill="#ddae9d" d="M 109.5,49.5 C 110.167,51.1667 110.833,52.8333 111.5,54.5C 110.178,54.67 109.011,54.3366 108,53.5C 106.89,55.0368 105.39,55.7035 103.5,55.5C 104.151,57.8257 104.818,60.1591 105.5,62.5C 105.48,63.7261 105.147,64.7261 104.5,65.5C 103.265,65.7214 102.265,66.3881 101.5,67.5C 100.973,65.2068 101.306,62.8735 102.5,60.5C 102.616,57.1401 102.949,53.8067 103.5,50.5C 105.5,50.1667 107.5,49.8333 109.5,49.5 Z"/></g>
<g><path style="opacity:1" fill="#b0896e" d="M 57.5,70.5 C 57.0472,71.4584 56.3805,72.2917 55.5,73C 56,73.1667 56.5,73.3333 57,73.5C 58.5772,72.4485 60.0772,71.4485 61.5,70.5C 64.0661,70.6556 66.5661,70.3223 69,69.5C 70.49,70.3169 71.99,71.1502 73.5,72C 72.944,72.3826 72.6107,72.8826 72.5,73.5C 71.1667,73.5 69.8333,73.5 68.5,73.5C 68.6309,72.6236 68.2975,71.9569 67.5,71.5C 63.7751,72.2307 60.1085,73.2307 56.5,74.5C 54.0452,74.3716 52.0452,73.3716 50.5,71.5C 50.8957,68.9556 50.229,66.7889 48.5,65C 44.8455,64.669 41.5121,63.5024 38.5,61.5C 38.5,61.1667 38.5,60.8333 38.5,60.5C 42.3105,62.3097 46.3105,62.8097 50.5,62C 53.6411,61.2854 55.6411,59.4521 56.5,56.5C 59.2224,53.8826 59.8891,50.8826 58.5,47.5C 58.5,46.8333 58.5,46.1667 58.5,45.5C 59.1174,45.6107 59.6174,45.944 60,46.5C 61.1855,44.4407 62.3521,44.274 63.5,46C 61.7981,51.8219 60.2981,57.6552 59,63.5C 58,65.1667 56.6667,66.5 55,67.5C 54.5172,68.448 54.3505,69.448 54.5,70.5C 55.5,70.5 56.5,70.5 57.5,70.5 Z"/></g>
<g><path style="opacity:1" fill="#f0c4b9" d="M 111.5,54.5 C 111.5,54.8333 111.5,55.1667 111.5,55.5C 112.339,60.8186 110.672,65.1519 106.5,68.5C 105.313,69.6527 104.313,69.6527 103.5,68.5C 103.918,67.7784 104.584,67.2784 105.5,67C 104.944,66.6174 104.611,66.1174 104.5,65.5C 105.147,64.7261 105.48,63.7261 105.5,62.5C 104.818,60.1591 104.151,57.8257 103.5,55.5C 105.39,55.7035 106.89,55.0368 108,53.5C 109.011,54.3366 110.178,54.67 111.5,54.5 Z"/></g>
<g><path style="opacity:1" fill="#c3897e" d="M 13.5,55.5 C 13.1485,58.0728 13.6485,60.4062 15,62.5C 16.6162,60.2867 17.7828,57.9534 18.5,55.5C 18.7006,58.7281 18.3672,61.8948 17.5,65C 18.1402,67.1204 19.1402,68.9537 20.5,70.5C 20.4326,71.9587 20.7659,73.2921 21.5,74.5C 21.5,75.1667 21.5,75.8333 21.5,76.5C 14.5524,70.9675 11.8857,63.9675 13.5,55.5 Z"/></g>
<g><path style="opacity:1" fill="#e2c6af" d="M 77.5,62.5 C 78.4916,62.3284 79.1583,62.6618 79.5,63.5C 78.7375,64.2679 77.7375,64.7679 76.5,65C 77.448,65.4828 78.448,65.6495 79.5,65.5C 79.5,68.1667 79.5,70.8333 79.5,73.5C 82.1873,73.6641 84.854,73.4974 87.5,73C 88.1634,71.4815 89.1634,70.3149 90.5,69.5C 89.3904,73.0512 89.3904,76.5512 90.5,80C 89.09,80.3678 88.09,81.2011 87.5,82.5C 86.5,83.8333 85.5,83.8333 84.5,82.5C 83.2532,80.9579 83.2532,79.4579 84.5,78C 83.0993,77.5899 81.766,77.0899 80.5,76.5C 80.2089,75.3509 79.3756,74.6842 78,74.5C 73.8968,75.0419 69.7301,75.0419 65.5,74.5C 63.744,75.5521 63.0773,77.2188 63.5,79.5C 62.5,79.5 61.5,79.5 60.5,79.5C 60.5461,74.1384 63.2128,72.1384 68.5,73.5C 69.8333,73.5 71.1667,73.5 72.5,73.5C 73.1667,73.5 73.8333,73.5 74.5,73.5C 75.8799,73.0377 76.5466,72.0377 76.5,70.5C 74.7066,68.5726 73.7066,66.2393 73.5,63.5C 74.9587,63.5674 76.2921,63.2341 77.5,62.5 Z"/></g>
<g><path style="opacity:1" fill="#ccac8c" d="M 100.5,48.5 C 99.9862,50.3664 99.3195,52.1997 98.5,54C 99.0928,58.9804 99.7595,63.8137 100.5,68.5C 99.7659,69.7079 99.4326,71.0413 99.5,72.5C 99.573,74.0269 98.9063,75.0269 97.5,75.5C 97.2114,68.1236 96.5447,60.7902 95.5,53.5C 95.1826,49.8284 96.8493,48.1617 100.5,48.5 Z"/></g>
<g><path style="opacity:1" fill="#c3997e" d="M 100.5,48.5 C 100.833,48.5 101.167,48.5 101.5,48.5C 101.5,49.8333 101.5,51.1667 101.5,52.5C 101.194,55.3854 101.527,58.0521 102.5,60.5C 101.306,62.8735 100.973,65.2068 101.5,67.5C 102.265,66.3881 103.265,65.7214 104.5,65.5C 104.611,66.1174 104.944,66.6174 105.5,67C 104.584,67.2784 103.918,67.7784 103.5,68.5C 102.5,68.5 101.5,68.5 100.5,68.5C 99.7595,63.8137 99.0928,58.9804 98.5,54C 99.3195,52.1997 99.9862,50.3664 100.5,48.5 Z"/></g>
<g><path style="opacity:1" fill="#d09c8a" d="M 23.5,61.5 C 24.2943,63.8728 25.2943,66.2062 26.5,68.5C 25.0065,69.1411 24.0065,70.1411 23.5,71.5C 23.7148,73.1788 23.0481,74.1788 21.5,74.5C 20.7659,73.2921 20.4326,71.9587 20.5,70.5C 21.7512,68.2754 21.4178,66.1088 19.5,64C 20.9839,63.3378 22.3172,62.5045 23.5,61.5 Z"/></g>
<g><path style="opacity:1" fill="#dbae9c" d="M 18.5,55.5 C 19.6697,57.2785 21.3364,58.2785 23.5,58.5C 23.5,59.5 23.5,60.5 23.5,61.5C 22.3172,62.5045 20.9839,63.3378 19.5,64C 21.4178,66.1088 21.7512,68.2754 20.5,70.5C 19.1402,68.9537 18.1402,67.1204 17.5,65C 18.3672,61.8948 18.7006,58.7281 18.5,55.5 Z"/></g>
<g><path style="opacity:1" fill="#dab99f" d="M 67.5,45.5 C 67.6307,50.758 69.6307,55.0913 73.5,58.5C 75.4044,58.7376 76.7377,59.7376 77.5,61.5C 77.5,61.8333 77.5,62.1667 77.5,62.5C 76.2921,63.2341 74.9587,63.5674 73.5,63.5C 73.7066,66.2393 74.7066,68.5726 76.5,70.5C 76.5466,72.0377 75.8799,73.0377 74.5,73.5C 75.0283,72.1526 75.195,70.8193 75,69.5C 74.586,69.9574 74.086,70.2907 73.5,70.5C 71.4902,68.8287 69.1569,68.162 66.5,68.5C 68.2133,67.7767 69.2133,66.4433 69.5,64.5C 69.2779,61.6446 69.1112,58.6446 69,55.5C 68.0186,52.3455 66.6852,52.0122 65,54.5C 64.6667,57.8333 64.3333,61.1667 64,64.5C 63.6174,65.056 63.1174,65.3893 62.5,65.5C 63.1657,60.1799 63.8323,54.8466 64.5,49.5C 64.6198,47.4115 65.6198,46.0782 67.5,45.5 Z"/></g>
<g><path style="opacity:1" fill="#b2876d" d="M 28.5,49.5 C 27.843,53.8422 27.5096,58.1755 27.5,62.5C 28.3779,65.1298 29.0445,67.7965 29.5,70.5C 28.7784,70.9175 28.2784,71.5842 28,72.5C 26.6439,71.6198 25.1439,71.2865 23.5,71.5C 24.0065,70.1411 25.0065,69.1411 26.5,68.5C 25.2943,66.2062 24.2943,63.8728 23.5,61.5C 23.5,60.5 23.5,59.5 23.5,58.5C 21.3364,58.2785 19.6697,57.2785 18.5,55.5C 17.0011,54.506 15.3344,54.506 13.5,55.5C 13.427,53.9731 14.0937,52.9731 15.5,52.5C 18.1667,52.8333 20.8333,53.1667 23.5,53.5C 23.2627,54.791 23.596,55.791 24.5,56.5C 25.4511,55.0813 25.7845,53.4147 25.5,51.5C 26.2223,50.4489 27.2223,49.7822 28.5,49.5 Z"/></g>
<g><path style="opacity:1" fill="#e8cdbc" d="M 93.5,63.5 C 92.5,65.5 91.5,67.5 90.5,69.5C 89.1634,70.3149 88.1634,71.4815 87.5,73C 84.854,73.4974 82.1873,73.6641 79.5,73.5C 79.5,70.8333 79.5,68.1667 79.5,65.5C 78.448,65.6495 77.448,65.4828 76.5,65C 77.7375,64.7679 78.7375,64.2679 79.5,63.5C 83.4158,63.9745 86.7491,62.9745 89.5,60.5C 91.0174,60.4894 92.1841,59.8228 93,58.5C 94.8524,60.2297 94.6857,61.3964 92.5,62C 93.056,62.3826 93.3893,62.8826 93.5,63.5 Z"/></g>
<g><path style="opacity:1" fill="#d0b496" d="M 95.5,53.5 C 96.5447,60.7902 97.2114,68.1236 97.5,75.5C 96.1797,77.8317 94.5131,79.8317 92.5,81.5C 92.3359,78.8127 92.5026,76.146 93,73.5C 96.0432,70.1873 96.2098,66.854 93.5,63.5C 93.3893,62.8826 93.056,62.3826 92.5,62C 94.6857,61.3964 94.8524,60.2297 93,58.5C 92.1841,59.8228 91.0174,60.4894 89.5,60.5C 90.5,58.8333 91.8333,57.5 93.5,56.5C 94.9063,56.0269 95.573,55.0269 95.5,53.5 Z"/></g>
<g><path style="opacity:1" fill="#bd9e7e" d="M 31.5,48.5 C 32.2852,50.3736 32.9518,52.3736 33.5,54.5C 30.9818,55.5109 30.9818,56.8443 33.5,58.5C 33.0133,59.4461 32.6799,60.4461 32.5,61.5C 34.2185,69.2327 36.7185,76.566 40,83.5C 41.0391,84.7101 42.2058,85.7101 43.5,86.5C 43.5,87.1667 43.5,87.8333 43.5,88.5C 42.5768,87.6971 41.5768,87.5304 40.5,88C 43.6965,91.8581 46.8632,95.6914 50,99.5C 52.5186,100.908 55.0186,102.242 57.5,103.5C 52.8672,104.542 49.7006,102.875 48,98.5C 45.9442,99.2018 44.1109,98.5351 42.5,96.5C 41.3185,97.5145 40.3185,98.6812 39.5,100C 40.1495,101.69 40.1495,103.523 39.5,105.5C 39.7947,107.735 39.4614,109.735 38.5,111.5C 38.219,106.435 38.5524,101.435 39.5,96.5C 39.1445,95.4777 38.4778,94.811 37.5,94.5C 38.3799,92.3888 38.3799,90.3888 37.5,88.5C 36.7254,84.5651 34.8921,81.2317 32,78.5C 31.7489,76.567 31.2489,74.7337 30.5,73C 31.8825,71.5391 31.5492,70.7058 29.5,70.5C 29.0445,67.7965 28.3779,65.1298 27.5,62.5C 27.5096,58.1755 27.843,53.8422 28.5,49.5C 29.791,49.7373 30.791,49.404 31.5,48.5 Z"/></g>
<g><path style="opacity:1" fill="#80573b" d="M 61.5,70.5 C 60.0772,71.4485 58.5772,72.4485 57,73.5C 56.5,73.3333 56,73.1667 55.5,73C 56.3805,72.2917 57.0472,71.4584 57.5,70.5C 58.8333,69.1667 60.1667,69.1667 61.5,70.5 Z"/></g>
<g><path style="opacity:1" fill="#ddc9b2" d="M 65.5,74.5 C 69.7301,75.0419 73.8968,75.0419 78,74.5C 79.3756,74.6842 80.2089,75.3509 80.5,76.5C 77.7651,77.2115 75.7651,78.8782 74.5,81.5C 73.8333,81.5 73.1667,81.5 72.5,81.5C 71.8333,81.5 71.1667,81.5 70.5,81.5C 69.0484,80.6981 67.3817,80.1981 65.5,80C 66.1383,78.2933 66.1383,76.46 65.5,74.5 Z"/></g>
<g><path style="opacity:1" fill="#caac92" d="M 50.5,71.5 C 52.0452,73.3716 54.0452,74.3716 56.5,74.5C 60.1085,73.2307 63.7751,72.2307 67.5,71.5C 68.2975,71.9569 68.6309,72.6236 68.5,73.5C 63.2128,72.1384 60.5461,74.1384 60.5,79.5C 61.5,79.5 62.5,79.5 63.5,79.5C 63.0773,77.2188 63.744,75.5521 65.5,74.5C 66.1383,76.46 66.1383,78.2933 65.5,80C 67.3817,80.1981 69.0484,80.6981 70.5,81.5C 65.5068,81.0843 60.5068,80.7509 55.5,80.5C 54.4884,79.1283 53.4884,77.795 52.5,76.5C 52.573,74.9731 51.9063,73.9731 50.5,73.5C 50.5,72.8333 50.5,72.1667 50.5,71.5 Z"/></g>
<g><path style="opacity:1" fill="#ba9d82" d="M 29.5,70.5 C 31.5492,70.7058 31.8825,71.5391 30.5,73C 31.2489,74.7337 31.7489,76.567 32,78.5C 34.8921,81.2317 36.7254,84.5651 37.5,88.5C 35.3631,85.8468 33.3631,83.0134 31.5,80C 28.3244,79.1114 25.3244,77.9447 22.5,76.5C 22.1667,76.5 21.8333,76.5 21.5,76.5C 21.5,75.8333 21.5,75.1667 21.5,74.5C 23.0481,74.1788 23.7148,73.1788 23.5,71.5C 25.1439,71.2865 26.6439,71.6198 28,72.5C 28.2784,71.5842 28.7784,70.9175 29.5,70.5 Z"/></g>
<g><path style="opacity:1" fill="#ddc3a5" d="M 93.5,63.5 C 96.2098,66.854 96.0432,70.1873 93,73.5C 92.5026,76.146 92.3359,78.8127 92.5,81.5C 92.0269,82.9063 91.0269,83.573 89.5,83.5C 87.8621,84.1589 86.1955,84.8256 84.5,85.5C 83.059,84.1349 81.7256,82.6349 80.5,81C 78.4546,80.5099 76.4546,80.6765 74.5,81.5C 75.7651,78.8782 77.7651,77.2115 80.5,76.5C 81.766,77.0899 83.0993,77.5899 84.5,78C 83.2532,79.4579 83.2532,80.9579 84.5,82.5C 85.5,83.8333 86.5,83.8333 87.5,82.5C 88.09,81.2011 89.09,80.3678 90.5,80C 89.3904,76.5512 89.3904,73.0512 90.5,69.5C 91.5,67.5 92.5,65.5 93.5,63.5 Z"/></g>
<g><path style="opacity:1" fill="#cdb5a1" d="M 109.5,69.5 C 106.854,73.6454 103.187,76.4787 98.5,78C 97.3913,79.8761 96.3913,81.7095 95.5,83.5C 92.6046,84.6404 90.6046,86.6404 89.5,89.5C 89.5,87.5 89.5,85.5 89.5,83.5C 91.0269,83.573 92.0269,82.9063 92.5,81.5C 94.5131,79.8317 96.1797,77.8317 97.5,75.5C 98.9063,75.0269 99.573,74.0269 99.5,72.5C 103.008,71.8846 106.341,70.8846 109.5,69.5 Z"/></g>
<g><path style="opacity:1" fill="#914e3e" d="M 58.5,82.5 C 58.9175,83.2216 59.5842,83.7216 60.5,84C 58.9419,84.21 57.6085,84.71 56.5,85.5C 54.1727,85.7529 52.1727,85.0863 50.5,83.5C 53.0658,83.746 55.7325,83.4127 58.5,82.5 Z"/></g>
<g><path style="opacity:1" fill="#ad9b89" d="M 22.5,76.5 C 25.3244,77.9447 28.3244,79.1114 31.5,80C 33.3631,83.0134 35.3631,85.8468 37.5,88.5C 38.3799,90.3888 38.3799,92.3888 37.5,94.5C 37.6633,96.8568 37.4966,99.1902 37,101.5C 36.6174,102.056 36.1174,102.389 35.5,102.5C 35.665,99.1501 35.4983,95.8168 35,92.5C 32.6935,89.0875 30.8602,85.4209 29.5,81.5C 26.58,80.5502 24.2467,78.8835 22.5,76.5 Z"/></g>
<g><path style="opacity:1" fill="#ba7264" d="M 58.5,82.5 C 63.1864,83.6176 67.8531,83.6176 72.5,82.5C 74.3901,83.1799 76.3901,83.3466 78.5,83C 79.7119,84.1068 79.3786,84.6068 77.5,84.5C 76.391,84.5569 75.391,84.8902 74.5,85.5C 69.1667,85.5 63.8333,85.5 58.5,85.5C 57.8333,85.5 57.1667,85.5 56.5,85.5C 57.6085,84.71 58.9419,84.21 60.5,84C 59.5842,83.7216 58.9175,83.2216 58.5,82.5 Z"/></g>
<g><path style="opacity:1" fill="#d6938d" d="M 58.5,85.5 C 63.8333,85.5 69.1667,85.5 74.5,85.5C 74.1667,86.5 73.5,87.1667 72.5,87.5C 67.647,86.0261 62.9803,86.3594 58.5,88.5C 58.5,87.5 58.5,86.5 58.5,85.5 Z"/></g>
<g><path style="opacity:1" fill="#b8826d" d="M 55.5,80.5 C 60.5068,80.7509 65.5068,81.0843 70.5,81.5C 71.1667,81.5 71.8333,81.5 72.5,81.5C 72.5,81.8333 72.5,82.1667 72.5,82.5C 67.8531,83.6176 63.1864,83.6176 58.5,82.5C 55.7325,83.4127 53.0658,83.746 50.5,83.5C 52.1727,85.0863 54.1727,85.7529 56.5,85.5C 57.1667,85.5 57.8333,85.5 58.5,85.5C 58.5,86.5 58.5,87.5 58.5,88.5C 57.5,88.5 56.5,88.5 55.5,88.5C 53.7095,87.6087 51.8761,86.6087 50,85.5C 49.51,84.2068 49.3433,82.8734 49.5,81.5C 51.6208,81.6747 53.6208,81.3414 55.5,80.5 Z"/></g>
<g><path style="opacity:1" fill="#d3b895" d="M 89.5,83.5 C 89.5,85.5 89.5,87.5 89.5,89.5C 86.5251,91.5152 84.1918,94.1818 82.5,97.5C 80.7541,99.2516 78.7541,100.585 76.5,101.5C 79.3194,97.8297 80.9861,93.663 81.5,89C 80.0107,87.5315 78.6774,86.0315 77.5,84.5C 79.3786,84.6068 79.7119,84.1068 78.5,83C 76.3901,83.3466 74.3901,83.1799 72.5,82.5C 72.5,82.1667 72.5,81.8333 72.5,81.5C 73.1667,81.5 73.8333,81.5 74.5,81.5C 76.4546,80.6765 78.4546,80.5099 80.5,81C 81.7256,82.6349 83.059,84.1349 84.5,85.5C 86.1955,84.8256 87.8621,84.1589 89.5,83.5 Z"/></g>
<g><path style="opacity:1" fill="#d8a99c" d="M 72.5,87.5 C 71.1979,89.0276 69.5313,90.0276 67.5,90.5C 63.8183,90.6653 60.1516,90.4986 56.5,90C 55.944,89.6174 55.6107,89.1174 55.5,88.5C 56.5,88.5 57.5,88.5 58.5,88.5C 62.9803,86.3594 67.647,86.0261 72.5,87.5 Z"/></g>
<g><path style="opacity:1" fill="#c6a885" d="M 52.5,76.5 C 53.4884,77.795 54.4884,79.1283 55.5,80.5C 53.6208,81.3414 51.6208,81.6747 49.5,81.5C 49.3433,82.8734 49.51,84.2068 50,85.5C 51.8761,86.6087 53.7095,87.6087 55.5,88.5C 55.6107,89.1174 55.944,89.6174 56.5,90C 60.1516,90.4986 63.8183,90.6653 67.5,90.5C 67.8039,91.1499 68.1373,91.8165 68.5,92.5C 54.9432,94.5457 54.2765,98.2124 66.5,103.5C 59.311,103.071 53.311,100.238 48.5,95C 48.8333,94.6667 49.1667,94.3333 49.5,94C 46.9774,92.6403 44.9774,90.807 43.5,88.5C 43.5,87.8333 43.5,87.1667 43.5,86.5C 44.869,84.4588 46.5356,82.6255 48.5,81C 47.5494,80.2825 47.3828,79.4491 48,78.5C 49.6225,77.9011 51.1225,77.2344 52.5,76.5 Z"/></g>
<g><path style="opacity:1" fill="#dcc1a2" d="M 77.5,84.5 C 78.6774,86.0315 80.0107,87.5315 81.5,89C 80.9861,93.663 79.3194,97.8297 76.5,101.5C 73.198,102.294 69.8647,102.96 66.5,103.5C 54.2765,98.2124 54.9432,94.5457 68.5,92.5C 68.1373,91.8165 67.8039,91.1499 67.5,90.5C 69.5313,90.0276 71.1979,89.0276 72.5,87.5C 73.5,87.1667 74.1667,86.5 74.5,85.5C 75.391,84.8902 76.391,84.5569 77.5,84.5 Z"/></g>
<g><path style="opacity:1" fill="#c3a380" d="M 43.5,88.5 C 44.9774,90.807 46.9774,92.6403 49.5,94C 49.1667,94.3333 48.8333,94.6667 48.5,95C 53.311,100.238 59.311,103.071 66.5,103.5C 69.8647,102.96 73.198,102.294 76.5,101.5C 78.7541,100.585 80.7541,99.2516 82.5,97.5C 84.5,97.5 85.5,98.5 85.5,100.5C 85.5,102.5 85.5,104.5 85.5,106.5C 80.8167,107.852 76.15,109.186 71.5,110.5C 74.6434,108.758 77.6434,106.758 80.5,104.5C 79.8333,104.167 79.1667,103.833 78.5,103.5C 74.239,104.686 69.9056,105.353 65.5,105.5C 62.8333,104.833 60.1667,104.167 57.5,103.5C 55.0186,102.242 52.5186,100.908 50,99.5C 46.8632,95.6914 43.6965,91.8581 40.5,88C 41.5768,87.5304 42.5768,87.6971 43.5,88.5 Z"/></g>
<g><path style="opacity:0.64" fill="#bdaa90" d="M 95.5,83.5 C 91.5322,94.8498 90.5322,106.516 92.5,118.5C 92.1201,120.698 92.7868,122.365 94.5,123.5C 95.6005,124.605 96.2671,125.938 96.5,127.5C 95.8333,127.5 95.1667,127.5 94.5,127.5C 94.2381,125.436 93.0714,124.103 91,123.5C 89.9207,120.937 89.4207,118.271 89.5,115.5C 90.3796,108.877 90.713,102.211 90.5,95.5C 89.5,95.5 88.5,95.5 87.5,95.5C 87.5979,97.5529 86.9313,99.2196 85.5,100.5C 85.5,98.5 84.5,97.5 82.5,97.5C 84.1918,94.1818 86.5251,91.5152 89.5,89.5C 90.6046,86.6404 92.6046,84.6404 95.5,83.5 Z"/></g>
<g><path style="opacity:1" fill="#b2926e" d="M 57.5,103.5 C 60.1667,104.167 62.8333,104.833 65.5,105.5C 69.9056,105.353 74.239,104.686 78.5,103.5C 79.1667,103.833 79.8333,104.167 80.5,104.5C 77.6434,106.758 74.6434,108.758 71.5,110.5C 71.5,110.833 71.5,111.167 71.5,111.5C 69.5,111.833 67.5,112.167 65.5,112.5C 58.0403,112.767 50.707,111.934 43.5,110C 43.6685,107.637 42.3352,106.137 39.5,105.5C 40.1495,103.523 40.1495,101.69 39.5,100C 40.3185,98.6812 41.3185,97.5145 42.5,96.5C 44.1109,98.5351 45.9442,99.2018 48,98.5C 49.7006,102.875 52.8672,104.542 57.5,103.5 Z"/></g>
<g><path style="opacity:1" fill="#997551" d="M 65.5,105.5 C 67.2922,106.309 69.2922,106.809 71.5,107C 70.8333,108 70.1667,109 69.5,110C 59.0693,113.19 49.9027,111.023 42,103.5C 41.5172,102.552 41.3505,101.552 41.5,100.5C 45.8066,100.649 49.4733,102.149 52.5,105C 56.8206,105.499 61.1539,105.666 65.5,105.5 Z"/></g>
<g><path style="opacity:1" fill="#cfb691" d="M 89.5,115.5 C 88.7611,115.631 88.0944,115.464 87.5,115C 87.8541,113.374 87.8541,111.541 87.5,109.5C 87.6309,108.624 87.2975,107.957 86.5,107.5C 85.1473,109.738 83.1473,111.071 80.5,111.5C 77.681,111.258 74.681,111.258 71.5,111.5C 71.5,111.167 71.5,110.833 71.5,110.5C 76.15,109.186 80.8167,107.852 85.5,106.5C 85.5,104.5 85.5,102.5 85.5,100.5C 86.9313,99.2196 87.5979,97.5529 87.5,95.5C 88.5,95.5 89.5,95.5 90.5,95.5C 90.713,102.211 90.3796,108.877 89.5,115.5 Z"/></g>
<g><path style="opacity:1" fill="#bea581" d="M 39.5,105.5 C 42.3352,106.137 43.6685,107.637 43.5,110C 50.707,111.934 58.0403,112.767 65.5,112.5C 65.5,112.833 65.5,113.167 65.5,113.5C 62.4816,113.335 59.4816,113.502 56.5,114C 56.0426,114.414 55.7093,114.914 55.5,115.5C 56.9095,116.569 57.9095,117.903 58.5,119.5C 55.8045,119.067 53.6379,117.734 52,115.5C 51.2588,116.641 50.4255,116.641 49.5,115.5C 46.6881,116.991 44.6881,118.657 43.5,120.5C 42.8826,120.611 42.3826,120.944 42,121.5C 41.5045,123.473 41.3379,125.473 41.5,127.5C 40.1667,127.5 38.8333,127.5 37.5,127.5C 38.3424,122.213 38.6757,116.88 38.5,111.5C 39.4614,109.735 39.7947,107.735 39.5,105.5 Z"/></g>
<g><path style="opacity:1" fill="#d5bf9e" d="M 87.5,109.5 C 82.4236,113.101 78.7569,117.934 76.5,124C 74.9343,124.3 73.601,123.8 72.5,122.5C 73.0312,120.456 74.1978,118.789 76,117.5C 76.6667,116.167 76.6667,114.833 76,113.5C 72.5649,112.534 69.0649,112.534 65.5,113.5C 65.5,113.167 65.5,112.833 65.5,112.5C 67.5,112.167 69.5,111.833 71.5,111.5C 74.681,111.258 77.681,111.258 80.5,111.5C 83.1473,111.071 85.1473,109.738 86.5,107.5C 87.2975,107.957 87.6309,108.624 87.5,109.5 Z"/></g>
<g><path style="opacity:1" fill="#bca583" d="M 58.5,119.5 C 60.678,120.657 62.678,121.99 64.5,123.5C 62.4086,123.682 60.4086,123.348 58.5,122.5C 57.6143,123.325 57.281,124.325 57.5,125.5C 55.4727,125.662 53.4727,125.495 51.5,125C 48.9155,123.208 46.2488,121.708 43.5,120.5C 44.6881,118.657 46.6881,116.991 49.5,115.5C 50.4255,116.641 51.2588,116.641 52,115.5C 53.6379,117.734 55.8045,119.067 58.5,119.5 Z"/></g>
<g><path style="opacity:1" fill="#1d1e1c" d="M 35.5,117.5 C 36.5735,118.251 36.7401,119.251 36,120.5C 33.6755,122.501 31.8421,124.834 30.5,127.5C 27.1667,127.5 23.8333,127.5 20.5,127.5C 24.3824,122.639 29.3824,119.306 35.5,117.5 Z"/></g>
<g><path style="opacity:1" fill="#1a1c19" d="M 92.5,118.5 C 95.3462,118.552 97.6796,119.552 99.5,121.5C 98.6236,121.369 97.9569,121.702 97.5,122.5C 98.8334,123.62 99.3334,124.953 99,126.5C 97.871,124.859 96.371,123.859 94.5,123.5C 92.7868,122.365 92.1201,120.698 92.5,118.5 Z"/></g>
<g><path style="opacity:1" fill="#dcc8ae" d="M 72.5,122.5 C 67.9675,123.841 67.6341,123.341 71.5,121C 68.8333,120.667 66.1667,120.333 63.5,120C 60.2861,119.651 58.9528,118.151 59.5,115.5C 61.6568,114.95 63.6568,114.283 65.5,113.5C 69.0649,112.534 72.5649,112.534 76,113.5C 76.6667,114.833 76.6667,116.167 76,117.5C 74.1978,118.789 73.0312,120.456 72.5,122.5 Z"/></g>
<g><path style="opacity:1" fill="#d6c2a3" d="M 87.5,109.5 C 87.8541,111.541 87.8541,113.374 87.5,115C 88.0944,115.464 88.7611,115.631 89.5,115.5C 89.4207,118.271 89.9207,120.937 91,123.5C 93.0714,124.103 94.2381,125.436 94.5,127.5C 81.8333,127.5 69.1667,127.5 56.5,127.5C 58.631,126.686 60.9644,126.186 63.5,126C 64.2524,125.329 64.5858,124.496 64.5,123.5C 62.678,121.99 60.678,120.657 58.5,119.5C 57.9095,117.903 56.9095,116.569 55.5,115.5C 55.7093,114.914 56.0426,114.414 56.5,114C 59.4816,113.502 62.4816,113.335 65.5,113.5C 63.6568,114.283 61.6568,114.95 59.5,115.5C 58.9528,118.151 60.2861,119.651 63.5,120C 66.1667,120.333 68.8333,120.667 71.5,121C 67.6341,123.341 67.9675,123.841 72.5,122.5C 73.601,123.8 74.9343,124.3 76.5,124C 78.7569,117.934 82.4236,113.101 87.5,109.5 Z"/></g>
<g><path style="opacity:1" fill="#ac997e" d="M 37.5,94.5 C 38.4778,94.811 39.1445,95.4777 39.5,96.5C 38.5524,101.435 38.219,106.435 38.5,111.5C 38.6757,116.88 38.3424,122.213 37.5,127.5C 35.1667,127.5 32.8333,127.5 30.5,127.5C 31.8421,124.834 33.6755,122.501 36,120.5C 36.7401,119.251 36.5735,118.251 35.5,117.5C 36.8333,112.5 36.8333,107.5 35.5,102.5C 36.1174,102.389 36.6174,102.056 37,101.5C 37.4966,99.1902 37.6633,96.8568 37.5,94.5 Z"/></g>
<g><path style="opacity:1" fill="#343838" d="M 99.5,121.5 C 102.814,123.143 105.814,125.143 108.5,127.5C 104.5,127.5 100.5,127.5 96.5,127.5C 96.2671,125.938 95.6005,124.605 94.5,123.5C 96.371,123.859 97.871,124.859 99,126.5C 99.3334,124.953 98.8334,123.62 97.5,122.5C 97.9569,121.702 98.6236,121.369 99.5,121.5 Z"/></g>
<g><path style="opacity:1" fill="#c3ac8b" d="M 43.5,120.5 C 46.2488,121.708 48.9155,123.208 51.5,125C 53.4727,125.495 55.4727,125.662 57.5,125.5C 57.281,124.325 57.6143,123.325 58.5,122.5C 60.4086,123.348 62.4086,123.682 64.5,123.5C 64.5858,124.496 64.2524,125.329 63.5,126C 60.9644,126.186 58.631,126.686 56.5,127.5C 51.5,127.5 46.5,127.5 41.5,127.5C 41.3379,125.473 41.5045,123.473 42,121.5C 42.3826,120.944 42.8826,120.611 43.5,120.5 Z"/></g>
</svg>
