<?xml version="1.0" encoding="UTF-8"?>
<!DOCTYPE svg PUBLIC "-//W3C//DTD SVG 1.1//EN" "http://www.w3.org/Graphics/SVG/1.1/DTD/svg11.dtd">
<svg xmlns="http://www.w3.org/2000/svg" version="1.1" width="512px" height="512px" style="shape-rendering:geometricPrecision; text-rendering:geometricPrecision; image-rendering:optimizeQuality; fill-rule:evenodd; clip-rule:evenodd" xmlns:xlink="http://www.w3.org/1999/xlink">
<g><path style="opacity:0.986" fill="#fef38a" d="M 383.5,122.5 C 378.484,128.516 372.817,133.849 366.5,138.5C 365.893,138.376 365.56,138.043 365.5,137.5C 364.982,129.821 360.982,126.988 353.5,129C 352.627,130.045 351.627,130.878 350.5,131.5C 345.539,127.874 340.872,123.874 336.5,119.5C 336.314,110.658 331.98,107.658 323.5,110.5C 318.591,106.21 312.924,103.21 306.5,101.5C 306.262,98.8517 304.928,97.0183 302.5,96C 299.445,95.3658 296.445,95.5325 293.5,96.5C 287.373,94.6185 281.373,92.6185 275.5,90.5C 273.129,84.8189 269.129,83.3189 263.5,86C 262.364,87.1451 261.364,88.3117 260.5,89.5C 254.471,89.5745 248.471,89.2412 242.5,88.5C 242.327,83.4032 239.661,81.0699 234.5,81.5C 230.336,81.3292 228.002,83.3292 227.5,87.5C 220.922,88.4601 214.255,88.7934 207.5,88.5C 205.994,81.9538 201.994,79.7872 195.5,82C 192.156,83.894 190.822,86.7273 191.5,90.5C 185.369,90.3793 179.369,91.046 173.5,92.5C 171.486,87.493 167.819,85.6596 162.5,87C 160.536,88.451 159.203,90.2843 158.5,92.5C 157.596,93.209 157.263,94.209 157.5,95.5C 148.325,96.7349 139.325,98.7349 130.5,101.5C 129.284,94.868 128.284,88.2013 127.5,81.5C 150.519,74.7454 173.853,69.2454 197.5,65C 257.107,57.9035 311.774,70.9035 361.5,104C 369.46,109.472 376.793,115.638 383.5,122.5 Z"/></g>
<g><path style="opacity:1" fill="#f4d907" d="M 207.5,88.5 C 207.5,93.1667 207.5,97.8333 207.5,102.5C 203.298,102.183 199.298,102.517 195.5,103.5C 194.5,103.5 193.5,103.5 192.5,103.5C 192.414,99.1434 192.08,94.81 191.5,90.5C 190.822,86.7273 192.156,83.894 195.5,82C 201.994,79.7872 205.994,81.9538 207.5,88.5 Z"/></g>
<g><path style="opacity:1" fill="#f4d90a" d="M 242.5,88.5 C 241.833,93.8333 241.167,99.1667 240.5,104.5C 239.5,104.5 238.5,104.5 237.5,104.5C 233.176,104.073 228.842,103.739 224.5,103.5C 225.07,98.0762 226.07,92.7429 227.5,87.5C 228.002,83.3292 230.336,81.3292 234.5,81.5C 239.661,81.0699 242.327,83.4032 242.5,88.5 Z"/></g>
<g><path style="opacity:1" fill="#f3d910" d="M 275.5,90.5 C 274.962,97.6522 273.629,104.652 271.5,111.5C 266.272,110.611 261.272,109.278 256.5,107.5C 257.833,101.5 259.167,95.5 260.5,89.5C 261.364,88.3117 262.364,87.1451 263.5,86C 269.129,83.3189 273.129,84.8189 275.5,90.5 Z"/></g>
<g><path style="opacity:1" fill="#f3d90d" d="M 173.5,92.5 C 174.373,96.7685 174.706,101.102 174.5,105.5C 169.521,106.608 164.521,107.608 159.5,108.5C 158.902,103.187 158.569,97.8537 158.5,92.5C 159.203,90.2843 160.536,88.451 162.5,87C 167.819,85.6596 171.486,87.493 173.5,92.5 Z"/></g>
<g><path style="opacity:1" fill="#faee5d" d="M 227.5,87.5 C 226.07,92.7429 225.07,98.0762 224.5,103.5C 214.833,103.5 205.167,103.5 195.5,103.5C 199.298,102.517 203.298,102.183 207.5,102.5C 207.5,97.8333 207.5,93.1667 207.5,88.5C 214.255,88.7934 220.922,88.4601 227.5,87.5 Z"/></g>
<g><path style="opacity:1" fill="#fdef58" d="M 242.5,88.5 C 248.471,89.2412 254.471,89.5745 260.5,89.5C 259.167,95.5 257.833,101.5 256.5,107.5C 250.019,106.585 243.685,105.585 237.5,104.5C 238.5,104.5 239.5,104.5 240.5,104.5C 241.167,99.1667 241.833,93.8333 242.5,88.5 Z"/></g>
<g><path style="opacity:1" fill="#fdef56" d="M 191.5,90.5 C 192.08,94.81 192.414,99.1434 192.5,103.5C 186.41,103.513 180.41,104.18 174.5,105.5C 174.706,101.102 174.373,96.7685 173.5,92.5C 179.369,91.046 185.369,90.3793 191.5,90.5 Z"/></g>
<g><path style="opacity:1" fill="#fdef57" d="M 275.5,90.5 C 281.373,92.6185 287.373,94.6185 293.5,96.5C 290.376,102.872 288.042,109.539 286.5,116.5C 281.421,115.029 276.421,113.363 271.5,111.5C 273.629,104.652 274.962,97.6522 275.5,90.5 Z"/></g>
<g><path style="opacity:1" fill="#fdef58" d="M 158.5,92.5 C 158.569,97.8537 158.902,103.187 159.5,108.5C 150.631,110.568 141.964,113.235 133.5,116.5C 132.879,111.395 131.879,106.395 130.5,101.5C 139.325,98.7349 148.325,96.7349 157.5,95.5C 157.263,94.209 157.596,93.209 158.5,92.5 Z"/></g>
<g><path style="opacity:1" fill="#f3d90a" d="M 306.5,101.5 C 305.439,107.635 303.773,113.635 301.5,119.5C 301.253,120.713 300.586,121.38 299.5,121.5C 295.051,120.108 290.718,118.441 286.5,116.5C 288.042,109.539 290.376,102.872 293.5,96.5C 296.445,95.5325 299.445,95.3658 302.5,96C 304.928,97.0183 306.262,98.8517 306.5,101.5 Z"/></g>
<g><path style="opacity:1" fill="#fdef56" d="M 306.5,101.5 C 312.924,103.21 318.591,106.21 323.5,110.5C 319.806,116.517 316.14,122.517 312.5,128.5C 307.973,126.405 303.639,124.072 299.5,121.5C 300.586,121.38 301.253,120.713 301.5,119.5C 303.773,113.635 305.439,107.635 306.5,101.5 Z"/></g>
<g><path style="opacity:0.999" fill="#b2d9fd" d="M 192.5,103.5 C 193.5,103.5 194.5,103.5 195.5,103.5C 205.167,103.5 214.833,103.5 224.5,103.5C 228.842,103.739 233.176,104.073 237.5,104.5C 243.685,105.585 250.019,106.585 256.5,107.5C 261.272,109.278 266.272,110.611 271.5,111.5C 276.421,113.363 281.421,115.029 286.5,116.5C 290.718,118.441 295.051,120.108 299.5,121.5C 303.639,124.072 307.973,126.405 312.5,128.5C 316.5,130.833 320.5,133.167 324.5,135.5C 329.64,138.91 334.64,142.577 339.5,146.5C 343.183,150.18 347.183,153.514 351.5,156.5C 355.511,162.175 360.177,167.175 365.5,171.5C 374.852,184.193 382.686,197.86 389,212.5C 398.481,223.703 409.648,225.537 422.5,218C 437.672,208.248 452.672,198.248 467.5,188C 480.343,181.281 490.51,184.115 498,196.5C 499.847,200.193 501.68,203.86 503.5,207.5C 503.464,216.642 503.297,225.976 503,235.5C 501.484,250.233 497.484,264.233 491,277.5C 486.299,287.597 478.465,292.097 467.5,291C 449.565,280.061 431.898,268.728 414.5,257C 401.251,249.241 390.084,251.407 381,263.5C 360.888,309.275 327.388,341.109 280.5,359C 172.648,392.603 84.8148,364.436 17,274.5C 10.912,265.929 5.07862,257.262 -0.5,248.5C -0.5,246.5 -0.5,244.5 -0.5,242.5C 21.6421,196.843 54.3087,160.343 97.5,133C 108.905,126.13 120.905,120.63 133.5,116.5C 141.964,113.235 150.631,110.568 159.5,108.5C 164.521,107.608 169.521,106.608 174.5,105.5C 180.41,104.18 186.41,103.513 192.5,103.5 Z"/></g>
<g><path style="opacity:1" fill="#f3d908" d="M 336.5,119.5 C 332.966,125.259 328.966,130.593 324.5,135.5C 320.5,133.167 316.5,130.833 312.5,128.5C 316.14,122.517 319.806,116.517 323.5,110.5C 331.98,107.658 336.314,110.658 336.5,119.5 Z"/></g>
<g><path style="opacity:1" fill="#fdef57" d="M 336.5,119.5 C 340.872,123.874 345.539,127.874 350.5,131.5C 347.22,136.781 343.553,141.781 339.5,146.5C 334.64,142.577 329.64,138.91 324.5,135.5C 328.966,130.593 332.966,125.259 336.5,119.5 Z"/></g>
<g><path style="opacity:1" fill="#fdef57" d="M 383.5,122.5 C 388.965,127.464 394.298,132.63 399.5,138C 388.298,149.369 376.965,160.535 365.5,171.5C 360.177,167.175 355.511,162.175 351.5,156.5C 356.433,150.272 361.1,143.938 365.5,137.5C 365.56,138.043 365.893,138.376 366.5,138.5C 372.817,133.849 378.484,128.516 383.5,122.5 Z"/></g>
<g><path style="opacity:1" fill="#f4d90b" d="M 365.5,137.5 C 361.1,143.938 356.433,150.272 351.5,156.5C 347.183,153.514 343.183,150.18 339.5,146.5C 343.553,141.781 347.22,136.781 350.5,131.5C 351.627,130.878 352.627,130.045 353.5,129C 360.982,126.988 364.982,129.821 365.5,137.5 Z"/></g>
<g><path style="opacity:1" fill="#8bc9fd" d="M 199.5,211.5 C 202.101,217.972 204.101,224.638 205.5,231.5C 205.952,236.998 206.619,242.331 207.5,247.5C 207.5,249.833 207.5,252.167 207.5,254.5C 206.542,259.658 205.875,264.991 205.5,270.5C 203.913,277.597 201.913,284.597 199.5,291.5C 189.031,317.142 171.364,336.309 146.5,349C 137.667,350.833 134.167,347.333 136,338.5C 154.9,328.267 169.9,313.933 181,295.5C 200.158,252.297 192.992,214.13 159.5,181C 152.173,174.999 144.173,169.999 135.5,166C 131.277,157.244 133.944,152.911 143.5,153C 169.892,165.223 188.559,184.723 199.5,211.5 Z"/></g>
<g><path style="opacity:1" fill="#fdef57" d="M 221.5,309.5 C 231.442,301.972 237.609,291.972 240,279.5C 244.699,253.707 243.032,228.373 235,203.5C 232.644,199.003 230.144,194.67 227.5,190.5C 240.569,187.957 249.736,192.957 255,205.5C 262.164,226.941 264.498,248.941 262,271.5C 261.265,285.385 256.432,297.551 247.5,308C 239.148,313.424 230.482,313.924 221.5,309.5 Z"/></g>
<g><path style="opacity:1" fill="#fdf38a" d="M 227.5,190.5 C 230.144,194.67 232.644,199.003 235,203.5C 243.032,228.373 244.699,253.707 240,279.5C 237.609,291.972 231.442,301.972 221.5,309.5C 213.202,304.521 205.868,298.521 199.5,291.5C 201.913,284.597 203.913,277.597 205.5,270.5C 213.424,272.864 221.257,275.53 229,278.5C 236.994,275.72 238.494,270.887 233.5,264C 225.062,260.133 216.395,256.966 207.5,254.5C 207.5,252.167 207.5,249.833 207.5,247.5C 216.553,245.426 225.22,242.26 233.5,238C 237.646,233.375 237.313,229.041 232.5,225C 231.167,224.833 229.833,224.667 228.5,224.5C 220.931,227.116 213.264,229.449 205.5,231.5C 204.101,224.638 202.101,217.972 199.5,211.5C 202.267,206.898 205.934,203.064 210.5,200C 215.821,196.171 221.487,193.005 227.5,190.5 Z"/></g>
<g><path style="opacity:1" fill="#a79ca8" d="M 85.5,199.5 C 98.4811,200.283 102.648,206.617 98,218.5C 91.3061,224.129 84.9727,223.796 79,217.5C 75.4225,209.254 77.5892,203.254 85.5,199.5 Z"/></g>
<g><path style="opacity:1" fill="#8bc9fd" d="M 503.5,207.5 C 507.136,218.045 509.803,228.712 511.5,239.5C 511.5,247.167 511.5,254.833 511.5,262.5C 509.671,280.179 503.837,296.513 494,311.5C 487.075,318.019 479.242,319.519 470.5,316C 454.833,305.667 439.167,295.333 423.5,285C 411.176,276.605 400.009,277.772 390,288.5C 366.242,341.912 326.076,376.412 269.5,392C 252.15,396.788 234.484,399.288 216.5,399.5C 209.167,399.5 201.833,399.5 194.5,399.5C 182.09,398.376 169.757,396.709 157.5,394.5C 113.21,382.944 75.7104,360.277 45,326.5C 26.3191,306.445 11.1524,284.112 -0.5,259.5C -0.5,255.833 -0.5,252.167 -0.5,248.5C 5.07862,257.262 10.912,265.929 17,274.5C 84.8148,364.436 172.648,392.603 280.5,359C 327.388,341.109 360.888,309.275 381,263.5C 390.084,251.407 401.251,249.241 414.5,257C 431.898,268.728 449.565,280.061 467.5,291C 478.465,292.097 486.299,287.597 491,277.5C 497.484,264.233 501.484,250.233 503,235.5C 503.297,225.976 503.464,216.642 503.5,207.5 Z"/></g>
<g><path style="opacity:1" fill="#8ac9fe" d="M 466.5,215.5 C 475.33,214.162 478.83,217.829 477,226.5C 467.582,233.797 457.416,239.964 446.5,245C 440.076,246.413 436.076,243.913 434.5,237.5C 434.848,235.303 435.848,233.47 437.5,232C 447.88,227.485 457.546,221.985 466.5,215.5 Z"/></g>
<g><path style="opacity:1" fill="#f3d90c" d="M 207.5,247.5 C 206.619,242.331 205.952,236.998 205.5,231.5C 213.264,229.449 220.931,227.116 228.5,224.5C 229.833,224.667 231.167,224.833 232.5,225C 237.313,229.041 237.646,233.375 233.5,238C 225.22,242.26 216.553,245.426 207.5,247.5 Z"/></g>
<g><path style="opacity:1" fill="#8ac9fe" d="M 439.5,253.5 C 451.642,256.735 462.976,261.902 473.5,269C 478.812,273.761 478.812,278.428 473.5,283C 471.167,283.667 468.833,283.667 466.5,283C 456.578,276.787 446.411,270.954 436,265.5C 434.593,260.599 435.76,256.599 439.5,253.5 Z"/></g>
<g><path style="opacity:1" fill="#f3d911" d="M 207.5,254.5 C 216.395,256.966 225.062,260.133 233.5,264C 238.494,270.887 236.994,275.72 229,278.5C 221.257,275.53 213.424,272.864 205.5,270.5C 205.875,264.991 206.542,259.658 207.5,254.5 Z"/></g>
<g><path style="opacity:0.982" fill="#fef48a" d="M 157.5,394.5 C 169.757,396.709 182.09,398.376 194.5,399.5C 196.543,411.338 199.376,423.004 203,434.5C 203.602,437.221 203.435,439.887 202.5,442.5C 180.647,432.978 165.647,416.978 157.5,394.5 Z"/></g>
<g><path style="opacity:1" fill="#fef057" d="M 194.5,399.5 C 201.833,399.5 209.167,399.5 216.5,399.5C 217.752,412.508 220.585,425.175 225,437.5C 226.581,443.69 224.248,447.024 218,447.5C 212.378,446.903 207.211,445.236 202.5,442.5C 203.435,439.887 203.602,437.221 203,434.5C 199.376,423.004 196.543,411.338 194.5,399.5 Z"/></g>
</svg>
