<?xml version="1.0" encoding="UTF-8"?>
<!DOCTYPE svg PUBLIC "-//W3C//DTD SVG 1.1//EN" "http://www.w3.org/Graphics/SVG/1.1/DTD/svg11.dtd">
<svg xmlns="http://www.w3.org/2000/svg" version="1.1" width="512px" height="512px" style="shape-rendering:geometricPrecision; text-rendering:geometricPrecision; image-rendering:optimizeQuality; fill-rule:evenodd; clip-rule:evenodd" xmlns:xlink="http://www.w3.org/1999/xlink">
<g><path style="opacity:0.992" fill="#fec165" d="M 281.5,95.5 C 300.254,110.282 310.921,129.616 313.5,153.5C 313.5,157.167 313.5,160.833 313.5,164.5C 273.776,136.176 229.443,124.343 180.5,129C 162.891,130.49 145.557,133.49 128.5,138C 114.768,142.078 101.101,146.245 87.5,150.5C 93.837,128.33 107.504,112.497 128.5,103C 139.7,100.543 151.034,99.8764 162.5,101C 179.33,104.933 196.33,107.766 213.5,109.5C 231.229,107.568 248.562,103.735 265.5,98C 270.773,96.7117 276.106,95.8784 281.5,95.5 Z"/></g>
<g><path style="opacity:0.991" fill="#faf6f6" d="M 345.5,131.5 C 344.258,138.843 342.425,146.177 340,153.5C 338.07,159.196 335.236,164.363 331.5,169C 325.153,171.714 319.653,170.547 315,165.5C 314.824,161.312 314.324,157.312 313.5,153.5C 310.921,129.616 300.254,110.282 281.5,95.5C 311.199,93.0077 332.532,105.008 345.5,131.5 Z"/></g>
<g><path style="opacity:1" fill="#fcb441" d="M 313.5,164.5 C 313.816,170.75 313.15,176.75 311.5,182.5C 295.068,171.451 277.401,162.785 258.5,156.5C 212.972,145.591 167.972,147.591 123.5,162.5C 112.847,165.717 102.514,169.717 92.5,174.5C 90.2872,175.773 87.9538,176.773 85.5,177.5C 85.1714,168.408 85.8381,159.408 87.5,150.5C 101.101,146.245 114.768,142.078 128.5,138C 145.557,133.49 162.891,130.49 180.5,129C 229.443,124.343 273.776,136.176 313.5,164.5 Z"/></g>
<g><path style="opacity:1" fill="#f3e9e5" d="M 345.5,131.5 C 354.038,155.639 351.704,178.639 338.5,200.5C 334.716,198.774 331.05,196.774 327.5,194.5C 321.86,190.853 316.527,186.853 311.5,182.5C 313.15,176.75 313.816,170.75 313.5,164.5C 313.5,160.833 313.5,157.167 313.5,153.5C 314.324,157.312 314.824,161.312 315,165.5C 319.653,170.547 325.153,171.714 331.5,169C 335.236,164.363 338.07,159.196 340,153.5C 342.425,146.177 344.258,138.843 345.5,131.5 Z"/></g>
<g><path style="opacity:1" fill="#fdc165" d="M 258.5,156.5 C 305.96,195.264 319.794,244.264 300,303.5C 297.776,308.697 295.276,313.697 292.5,318.5C 291.488,319.872 290.488,321.205 289.5,322.5C 289.44,321.957 289.107,321.624 288.5,321.5C 255.713,340.452 220.379,348.285 182.5,345C 167.073,343.373 151.74,341.206 136.5,338.5C 136.5,338.167 136.5,337.833 136.5,337.5C 153.027,316.102 162.194,291.769 164,264.5C 165.733,225.017 152.899,191.184 125.5,163C 124.906,162.536 124.239,162.369 123.5,162.5C 167.972,147.591 212.972,145.591 258.5,156.5 Z"/></g>
<g><path style="opacity:1" fill="#d7cfd4" d="M 258.5,156.5 C 277.401,162.785 295.068,171.451 311.5,182.5C 316.527,186.853 321.86,190.853 327.5,194.5C 340.87,224.363 344.204,255.363 337.5,287.5C 337.737,288.791 337.404,289.791 336.5,290.5C 336.565,290.062 336.399,289.728 336,289.5C 322.144,300.199 307.644,309.866 292.5,318.5C 295.276,313.697 297.776,308.697 300,303.5C 319.794,244.264 305.96,195.264 258.5,156.5 Z"/></g>
<g><path style="opacity:1" fill="#d7cfd4" d="M 123.5,162.5 C 124.239,162.369 124.906,162.536 125.5,163C 152.899,191.184 165.733,225.017 164,264.5C 162.194,291.769 153.027,316.102 136.5,337.5C 125.94,334.615 115.607,331.282 105.5,327.5C 130.924,298.034 138.758,264.367 129,226.5C 122.001,205.488 109.834,188.155 92.5,174.5C 102.514,169.717 112.847,165.717 123.5,162.5 Z"/></g>
<g><path style="opacity:0.997" fill="#fdc065" d="M 92.5,174.5 C 109.834,188.155 122.001,205.488 129,226.5C 138.758,264.367 130.924,298.034 105.5,327.5C 104.833,327.833 104.167,328.167 103.5,328.5C 103.53,327.503 103.03,326.836 102,326.5C 60.7202,310.82 26.5535,285.82 -0.5,251.5C -0.5,251.167 -0.5,250.833 -0.5,250.5C 21.425,218.243 50.0917,193.91 85.5,177.5C 87.9538,176.773 90.2872,175.773 92.5,174.5 Z"/></g>
<g><path style="opacity:0.994" fill="#fdc165" d="M 501.5,235.5 C 501.937,240.412 501.104,245.078 499,249.5C 494.611,254.889 490.611,260.556 487,266.5C 483.982,278.373 478.482,288.873 470.5,298C 458.089,306.033 444.755,307.699 430.5,303C 409.548,295.461 388.548,288.128 367.5,281C 363.167,280.333 358.833,280.333 354.5,281C 348.58,282.693 342.913,284.859 337.5,287.5C 344.204,255.363 340.87,224.363 327.5,194.5C 331.05,196.774 334.716,198.774 338.5,200.5C 351.281,212.813 366.281,216.646 383.5,212C 402.615,204.406 421.949,197.406 441.5,191C 462.762,184.413 478.928,190.58 490,209.5C 493.041,218.576 496.874,227.243 501.5,235.5 Z"/></g>
<g><path style="opacity:1" fill="#faf6f6" d="M 246.5,204.5 C 247.172,205.267 248.005,205.934 249,206.5C 249.167,208.333 249.333,210.167 249.5,212C 247.911,219.857 246.078,227.69 244,235.5C 243.333,240.5 243.333,245.5 244,250.5C 252.706,273.804 244.872,286.138 220.5,287.5C 212.244,286.974 204.911,284.307 198.5,279.5C 198.666,271.826 198.5,264.159 198,256.5C 196.699,249.296 195.033,242.296 193,235.5C 204.997,222.257 219.163,212.09 235.5,205C 239.152,204.501 242.818,204.335 246.5,204.5 Z"/></g>
<g><path style="opacity:1" fill="#f3e9e5" d="M 246.5,204.5 C 261.621,208.144 268.454,217.811 267,233.5C 265.44,238.24 264.273,243.073 263.5,248C 265.812,257.895 267.479,267.895 268.5,278C 267.813,302.353 255.479,312.353 231.5,308C 218.466,303.303 207.3,295.803 198,285.5C 197.211,283.288 197.378,281.288 198.5,279.5C 204.911,284.307 212.244,286.974 220.5,287.5C 244.872,286.138 252.706,273.804 244,250.5C 243.333,245.5 243.333,240.5 244,235.5C 246.078,227.69 247.911,219.857 249.5,212C 249.333,210.167 249.167,208.333 249,206.5C 248.005,205.934 247.172,205.267 246.5,204.5 Z"/></g>
<g><path style="opacity:1" fill="#a89ba5" d="M 72.5,215.5 C 78.8067,214.875 83.6401,217.209 87,222.5C 88.4796,234.354 83.3129,239.52 71.5,238C 65.6735,234.867 63.5068,230.034 65,223.5C 67.0282,220.308 69.5282,217.641 72.5,215.5 Z"/></g>
<g><path style="opacity:1" fill="#d7cfd4" d="M 464.5,264.5 C 456.107,273.596 446.107,275.762 434.5,271C 425.657,266.078 416.657,261.412 407.5,257C 398.315,253.871 388.982,251.371 379.5,249.5C 379.5,256.167 379.5,262.833 379.5,269.5C 378.172,260.765 378.172,251.932 379.5,243C 386.939,241.761 394.273,240.094 401.5,238C 412.378,232.394 423.378,227.061 434.5,222C 443.107,218.068 451.774,217.735 460.5,221C 463.869,223.365 466.036,226.532 467,230.5C 465.629,241.751 464.795,253.084 464.5,264.5 Z"/></g>
<g><path style="opacity:1" fill="#fdb442" d="M 501.5,235.5 C 505.221,239.888 508.555,244.555 511.5,249.5C 511.5,254.167 511.5,258.833 511.5,263.5C 507.285,270.242 502.785,276.908 498,283.5C 494.859,294.782 489.859,305.115 483,314.5C 471.445,324.344 458.279,327.177 443.5,323C 421.287,315.891 399.287,308.225 377.5,300C 370.374,299.108 363.374,299.608 356.5,301.5C 346.529,306.151 337.195,311.817 328.5,318.5C 332.096,309.452 334.763,300.119 336.5,290.5C 337.404,289.791 337.737,288.791 337.5,287.5C 342.913,284.859 348.58,282.693 354.5,281C 358.833,280.333 363.167,280.333 367.5,281C 388.548,288.128 409.548,295.461 430.5,303C 444.755,307.699 458.089,306.033 470.5,298C 478.482,288.873 483.982,278.373 487,266.5C 490.611,260.556 494.611,254.889 499,249.5C 501.104,245.078 501.937,240.412 501.5,235.5 Z"/></g>
<g><path style="opacity:1" fill="#c9bfc7" d="M 464.5,264.5 C 467.891,275.832 465.224,285.332 456.5,293C 447.738,296.439 439.072,296.105 430.5,292C 422.009,287.922 413.676,283.588 405.5,279C 396.697,275.902 388.03,272.735 379.5,269.5C 379.5,262.833 379.5,256.167 379.5,249.5C 388.982,251.371 398.315,253.871 407.5,257C 416.657,261.412 425.657,266.078 434.5,271C 446.107,275.762 456.107,273.596 464.5,264.5 Z"/></g>
<g><path style="opacity:1" fill="#c9bfc6" d="M 336.5,290.5 C 334.763,300.119 332.096,309.452 328.5,318.5C 306.894,335.641 282.894,348.641 256.5,357.5C 269.894,348.105 280.894,336.439 289.5,322.5C 290.488,321.205 291.488,319.872 292.5,318.5C 307.644,309.866 322.144,300.199 336,289.5C 336.399,289.728 336.565,290.062 336.5,290.5 Z"/></g>
<g><path style="opacity:0.999" fill="#faf6f5" d="M 356.5,301.5 C 361.683,309.199 366.35,317.199 370.5,325.5C 370.077,331.159 367.41,335.659 362.5,339C 356.76,342.189 350.76,344.689 344.5,346.5C 339.155,337.139 333.821,327.806 328.5,318.5C 337.195,311.817 346.529,306.151 356.5,301.5 Z"/></g>
<g><path style="opacity:1" fill="#fdc165" d="M 328.5,318.5 C 333.821,327.806 339.155,337.139 344.5,346.5C 324.925,353.525 304.925,359.025 284.5,363C 276.833,363.667 269.167,363.667 261.5,363C 257.665,362.293 253.998,361.126 250.5,359.5C 252.495,358.705 254.495,358.039 256.5,357.5C 282.894,348.641 306.894,335.641 328.5,318.5 Z"/></g>
<g><path style="opacity:1" fill="#fcb442" d="M 289.5,322.5 C 280.894,336.439 269.894,348.105 256.5,357.5C 254.495,358.039 252.495,358.705 250.5,359.5C 253.998,361.126 257.665,362.293 261.5,363C 269.167,363.667 276.833,363.667 284.5,363C 304.925,359.025 324.925,353.525 344.5,346.5C 347.7,352.435 349.7,358.768 350.5,365.5C 336.292,370.291 321.958,374.791 307.5,379C 288.56,384.288 269.894,383.621 251.5,377C 244.933,373.879 239.267,369.546 234.5,364C 218.854,364.341 203.187,364.508 187.5,364.5C 176.777,363.396 166.111,361.73 155.5,359.5C 145.435,357.48 135.435,354.814 125.5,351.5C 128.939,346.941 132.606,342.608 136.5,338.5C 151.74,341.206 167.073,343.373 182.5,345C 220.379,348.285 255.713,340.452 288.5,321.5C 289.107,321.624 289.44,321.957 289.5,322.5 Z"/></g>
<g><path style="opacity:1" fill="#cabfc6" d="M 105.5,327.5 C 115.607,331.282 125.94,334.615 136.5,337.5C 136.5,337.833 136.5,338.167 136.5,338.5C 132.606,342.608 128.939,346.941 125.5,351.5C 115.957,348.763 106.623,345.43 97.5,341.5C 95.6954,340.763 94.0287,339.763 92.5,338.5C 96.2125,335.116 99.8792,331.783 103.5,328.5C 104.167,328.167 104.833,327.833 105.5,327.5 Z"/></g>
<g><path style="opacity:1" fill="#f3eae6" d="M 370.5,325.5 C 376.834,334.166 378.001,343.499 374,353.5C 367.348,359.743 359.514,363.743 350.5,365.5C 349.7,358.768 347.7,352.435 344.5,346.5C 350.76,344.689 356.76,342.189 362.5,339C 367.41,335.659 370.077,331.159 370.5,325.5 Z"/></g>
<g><path style="opacity:1" fill="#fdb442" d="M -0.5,251.5 C 26.5535,285.82 60.7202,310.82 102,326.5C 103.03,326.836 103.53,327.503 103.5,328.5C 99.8792,331.783 96.2125,335.116 92.5,338.5C 94.0287,339.763 95.6954,340.763 97.5,341.5C 101.036,357.408 108.369,371.242 119.5,383C 130.707,391.568 143.374,395.402 157.5,394.5C 157.242,398.44 156.076,402.107 154,405.5C 149.328,409.238 144.494,412.571 139.5,415.5C 117.756,412.587 102.923,400.92 95,380.5C 89,364.5 83,348.5 77,332.5C 45.2355,315.561 19.4021,292.227 -0.5,262.5C -0.5,258.833 -0.5,255.167 -0.5,251.5 Z"/></g>
<g><path style="opacity:1" fill="#fdc165" d="M 97.5,341.5 C 106.623,345.43 115.957,348.763 125.5,351.5C 135.435,354.814 145.435,357.48 155.5,359.5C 154.903,359.735 154.57,360.235 154.5,361C 157.912,371.909 159.246,383.076 158.5,394.5C 158.167,394.5 157.833,394.5 157.5,394.5C 143.374,395.402 130.707,391.568 119.5,383C 108.369,371.242 101.036,357.408 97.5,341.5 Z"/></g>
<g><path style="opacity:0.997" fill="#faf6f6" d="M 155.5,359.5 C 166.111,361.73 176.777,363.396 187.5,364.5C 189.863,371.981 191.196,379.648 191.5,387.5C 181.011,392.104 170.011,394.437 158.5,394.5C 159.246,383.076 157.912,371.909 154.5,361C 154.57,360.235 154.903,359.735 155.5,359.5 Z"/></g>
<g><path style="opacity:1" fill="#f3eae6" d="M 191.5,387.5 C 193.246,396.788 190.246,403.955 182.5,409C 168.718,414.63 154.385,416.797 139.5,415.5C 144.494,412.571 149.328,409.238 154,405.5C 156.076,402.107 157.242,398.44 157.5,394.5C 157.833,394.5 158.167,394.5 158.5,394.5C 170.011,394.437 181.011,392.104 191.5,387.5 Z"/></g>
</svg>
