<?xml version="1.0" encoding="UTF-8"?>
<!DOCTYPE svg PUBLIC "-//W3C//DTD SVG 1.1//EN" "http://www.w3.org/Graphics/SVG/1.1/DTD/svg11.dtd">
<svg xmlns="http://www.w3.org/2000/svg" version="1.1" width="512px" height="512px" style="shape-rendering:geometricPrecision; text-rendering:geometricPrecision; image-rendering:optimizeQuality; fill-rule:evenodd; clip-rule:evenodd" xmlns:xlink="http://www.w3.org/1999/xlink">
<g><path style="opacity:1" fill="#fde87d" d="M 271.5,65.5 C 272.707,69.7862 273.707,74.1195 274.5,78.5C 264.03,84.2358 253.697,90.2358 243.5,96.5C 243.167,96.5 242.833,96.5 242.5,96.5C 240.463,86.0336 236.129,76.7002 229.5,68.5C 239.923,61.9463 250.756,55.9463 262,50.5C 266.142,54.7623 269.309,59.7623 271.5,65.5 Z"/></g>
<g><path style="opacity:0.995" fill="#e9b665" d="M 271.5,65.5 C 296.395,68.6829 321.395,70.0162 346.5,69.5C 346.046,82.0124 344.379,94.3457 341.5,106.5C 320.432,105.638 299.432,103.971 278.5,101.5C 277.912,93.5769 276.579,85.9103 274.5,78.5C 273.707,74.1195 272.707,69.7862 271.5,65.5 Z"/></g>
<g><path style="opacity:1" fill="#fde87d" d="M 386.5,94.5 C 385.225,98.1023 384.225,101.769 383.5,105.5C 369.553,107.088 355.553,107.754 341.5,107.5C 341.5,107.167 341.5,106.833 341.5,106.5C 344.379,94.3457 346.046,82.0124 346.5,69.5C 359.623,69.2877 372.623,67.9544 385.5,65.5C 386.325,75.1427 386.658,84.8093 386.5,94.5 Z"/></g>
<g><path style="opacity:0.998" fill="#e9b665" d="M 229.5,68.5 C 236.129,76.7002 240.463,86.0336 242.5,96.5C 220.962,109.438 198.629,121.105 175.5,131.5C 174.59,121.038 172.923,110.705 170.5,100.5C 170.5,99.8333 170.5,99.1667 170.5,98.5C 190.323,88.7555 209.989,78.7555 229.5,68.5 Z"/></g>
<g><path style="opacity:0.999" fill="#fde87d" d="M 170.5,98.5 C 170.5,99.1667 170.5,99.8333 170.5,100.5C 159.098,104.968 147.765,109.635 136.5,114.5C 136.167,114.5 135.833,114.5 135.5,114.5C 134.354,104.618 132.687,94.9518 130.5,85.5C 139.953,80.6081 149.62,75.9415 159.5,71.5C 161.146,72.7786 162.313,74.4453 163,76.5C 165.809,83.7608 168.309,91.0942 170.5,98.5 Z"/></g>
<g><path style="opacity:1" fill="#fdefad" d="M 274.5,78.5 C 276.579,85.9103 277.912,93.5769 278.5,101.5C 280.848,125.391 276.682,148.058 266,169.5C 260.456,181.962 254.623,194.295 248.5,206.5C 256.082,210.592 263.248,215.258 270,220.5C 287.436,202.394 303.436,183.06 318,162.5C 328.58,145.34 336.413,127.007 341.5,107.5C 355.553,107.754 369.553,107.088 383.5,105.5C 382.212,112.61 380.545,119.61 378.5,126.5C 372.047,144.404 363.214,161.071 352,176.5C 332.399,198.77 312.066,220.437 291,241.5C 294.502,248.147 298.336,254.814 302.5,261.5C 329.58,255.313 355.914,246.813 381.5,236C 405.133,225.036 426.466,210.87 445.5,193.5C 445.833,193.5 446.167,193.5 446.5,193.5C 456.462,205.464 466.795,217.13 477.5,228.5C 471.191,233.987 464.524,238.987 457.5,243.5C 411.511,266.051 363.178,281.384 312.5,289.5C 314.927,304.065 316.261,318.732 316.5,333.5C 370.948,340.144 424.948,337.478 478.5,325.5C 478.833,325.5 479.167,325.5 479.5,325.5C 480.468,339.654 483.468,353.321 488.5,366.5C 477.152,369.601 465.485,371.601 453.5,372.5C 443.134,372.703 432.801,373.37 422.5,374.5C 388.264,375.156 354.264,372.656 320.5,367C 312.95,365.447 305.616,363.281 298.5,360.5C 310.16,310.326 297.493,267.493 260.5,232C 247.628,220.894 232.961,212.894 216.5,208C 209.306,205.972 201.973,205.139 194.5,205.5C 162.758,206.709 135.091,217.875 111.5,239C 81.2765,271.496 76.1098,307.663 96,347.5C 115.377,375.763 142.211,387.597 176.5,383C 183.429,381.524 190.095,379.357 196.5,376.5C 225.339,359.511 236.505,334.511 230,301.5C 219.019,269.097 197.186,257.43 164.5,266.5C 144.901,277.133 140.067,292.466 150,312.5C 159.543,323.972 170.376,325.472 182.5,317C 191.333,315.167 194.833,318.667 193,327.5C 179.376,340.224 164.542,341.724 148.5,332C 131.359,318.297 125.859,300.797 132,279.5C 139.923,261.919 153.423,251.419 172.5,248C 206.801,245.064 230.301,259.564 243,291.5C 254.041,329.709 243.874,360.876 212.5,385C 176.01,405.457 140.343,404.124 105.5,381C 78.3556,357.855 66.1889,328.355 69,292.5C 76.2289,248.366 100.729,218.366 142.5,202.5C 143.815,172.914 141.815,143.581 136.5,114.5C 147.765,109.635 159.098,104.968 170.5,100.5C 172.923,110.705 174.59,121.038 175.5,131.5C 176.386,152.152 176.72,172.819 176.5,193.5C 189.764,192.079 202.931,192.746 216,195.5C 217.167,195.167 218.333,194.833 219.5,194.5C 228.174,173.483 236.008,152.149 243,130.5C 244.832,119.191 244.999,107.857 243.5,96.5C 253.697,90.2358 264.03,84.2358 274.5,78.5 Z"/></g>
<g><path style="opacity:0.999" fill="#e9b665" d="M 130.5,85.5 C 132.687,94.9518 134.354,104.618 135.5,114.5C 75.8827,140.632 36.3827,184.966 17,247.5C 4.06687,292.505 5.90021,336.839 22.5,380.5C 9.61618,358.181 1.94952,334.181 -0.5,308.5C -0.5,295.167 -0.5,281.833 -0.5,268.5C 7.01065,205.844 34.6773,154.011 82.5,113C 97.3745,101.979 113.375,92.8123 130.5,85.5 Z"/></g>
<g><path style="opacity:0.992" fill="#e9b665" d="M 386.5,94.5 C 398.994,98.0785 409.994,104.245 419.5,113C 435.388,133.288 451.388,153.455 467.5,173.5C 460.5,180.167 453.5,186.833 446.5,193.5C 446.167,193.5 445.833,193.5 445.5,193.5C 434.447,179.943 423.947,165.943 414,151.5C 404.456,139.77 392.623,131.436 378.5,126.5C 380.545,119.61 382.212,112.61 383.5,105.5C 384.225,101.769 385.225,98.1023 386.5,94.5 Z"/></g>
<g><path style="opacity:1" fill="#fac56d" d="M 242.5,96.5 C 242.833,96.5 243.167,96.5 243.5,96.5C 244.999,107.857 244.832,119.191 243,130.5C 236.008,152.149 228.174,173.483 219.5,194.5C 218.333,194.833 217.167,195.167 216,195.5C 202.931,192.746 189.764,192.079 176.5,193.5C 176.72,172.819 176.386,152.152 175.5,131.5C 198.629,121.105 220.962,109.438 242.5,96.5 Z"/></g>
<g><path style="opacity:1" fill="#fbc56d" d="M 278.5,101.5 C 299.432,103.971 320.432,105.638 341.5,106.5C 341.5,106.833 341.5,107.167 341.5,107.5C 336.413,127.007 328.58,145.34 318,162.5C 303.436,183.06 287.436,202.394 270,220.5C 263.248,215.258 256.082,210.592 248.5,206.5C 254.623,194.295 260.456,181.962 266,169.5C 276.682,148.058 280.848,125.391 278.5,101.5 Z"/></g>
<g><path style="opacity:0.998" fill="#fac56d" d="M 135.5,114.5 C 135.833,114.5 136.167,114.5 136.5,114.5C 141.815,143.581 143.815,172.914 142.5,202.5C 100.729,218.366 76.2289,248.366 69,292.5C 66.1889,328.355 78.3556,357.855 105.5,381C 140.343,404.124 176.01,405.457 212.5,385C 243.874,360.876 254.041,329.709 243,291.5C 230.301,259.564 206.801,245.064 172.5,248C 153.423,251.419 139.923,261.919 132,279.5C 125.859,300.797 131.359,318.297 148.5,332C 164.542,341.724 179.376,340.224 193,327.5C 194.833,318.667 191.333,315.167 182.5,317C 170.376,325.472 159.543,323.972 150,312.5C 140.067,292.466 144.901,277.133 164.5,266.5C 182.532,266.992 196.365,274.992 206,290.5C 217.133,310.152 218.466,330.485 210,351.5C 205.964,360.249 201.464,368.583 196.5,376.5C 190.095,379.357 183.429,381.524 176.5,383C 142.211,387.597 115.377,375.763 96,347.5C 76.1098,307.663 81.2765,271.496 111.5,239C 135.091,217.875 162.758,206.709 194.5,205.5C 231.503,220.009 256.003,246.343 268,284.5C 280.136,328.48 274.136,369.813 250,408.5C 240.833,421 231.667,433.5 222.5,446C 223.056,446.383 223.389,446.883 223.5,447.5C 162.861,467.56 106.861,458.726 55.5,421C 41.6741,409.687 30.6741,396.187 22.5,380.5C 5.90021,336.839 4.06687,292.505 17,247.5C 36.3827,184.966 75.8827,140.632 135.5,114.5 Z"/></g>
<g><path style="opacity:1" fill="#fac56d" d="M 378.5,126.5 C 392.623,131.436 404.456,139.77 414,151.5C 423.947,165.943 434.447,179.943 445.5,193.5C 426.466,210.87 405.133,225.036 381.5,236C 355.914,246.813 329.58,255.313 302.5,261.5C 298.336,254.814 294.502,248.147 291,241.5C 312.066,220.437 332.399,198.77 352,176.5C 363.214,161.071 372.047,144.404 378.5,126.5 Z"/></g>
<g><path style="opacity:1" fill="#fde87d" d="M 467.5,173.5 C 479.204,185.205 491.204,196.539 503.5,207.5C 495.455,214.551 487.455,221.551 479.5,228.5C 478.833,228.5 478.167,228.5 477.5,228.5C 466.795,217.13 456.462,205.464 446.5,193.5C 453.5,186.833 460.5,180.167 467.5,173.5 Z"/></g>
<g><path style="opacity:1" fill="#e9b665" d="M 194.5,205.5 C 201.973,205.139 209.306,205.972 216.5,208C 232.961,212.894 247.628,220.894 260.5,232C 297.493,267.493 310.16,310.326 298.5,360.5C 291.974,385.564 279.307,406.898 260.5,424.5C 249.517,434.112 237.183,441.779 223.5,447.5C 223.389,446.883 223.056,446.383 222.5,446C 231.667,433.5 240.833,421 250,408.5C 274.136,369.813 280.136,328.48 268,284.5C 256.003,246.343 231.503,220.009 194.5,205.5 Z"/></g>
<g><path style="opacity:0.987" fill="#e9b665" d="M 477.5,228.5 C 478.167,228.5 478.833,228.5 479.5,228.5C 484.076,237.389 487.576,246.723 490,256.5C 493.249,278.163 496.416,299.829 499.5,321.5C 492.684,322.205 486.018,323.538 479.5,325.5C 479.167,325.5 478.833,325.5 478.5,325.5C 477.146,308.001 474.646,290.668 471,273.5C 467.84,262.851 463.34,252.851 457.5,243.5C 464.524,238.987 471.191,233.987 477.5,228.5 Z"/></g>
<g><path style="opacity:1" fill="#fac56d" d="M 457.5,243.5 C 463.34,252.851 467.84,262.851 471,273.5C 474.646,290.668 477.146,308.001 478.5,325.5C 424.948,337.478 370.948,340.144 316.5,333.5C 316.261,318.732 314.927,304.065 312.5,289.5C 363.178,281.384 411.511,266.051 457.5,243.5 Z"/></g>
<g><path style="opacity:1" fill="#e9b665" d="M 196.5,376.5 C 201.464,368.583 205.964,360.249 210,351.5C 218.466,330.485 217.133,310.152 206,290.5C 196.365,274.992 182.532,266.992 164.5,266.5C 197.186,257.43 219.019,269.097 230,301.5C 236.505,334.511 225.339,359.511 196.5,376.5 Z"/></g>
<g><path style="opacity:1" fill="#fde97e" d="M 499.5,321.5 C 501.193,329.939 503.36,338.272 506,346.5C 507.086,350.346 508.919,353.68 511.5,356.5C 511.5,357.167 511.5,357.833 511.5,358.5C 504.433,362.745 496.766,365.412 488.5,366.5C 483.468,353.321 480.468,339.654 479.5,325.5C 486.018,323.538 492.684,322.205 499.5,321.5 Z"/></g>
<g><path style="opacity:0.998" fill="#fdc165" d="M 298.5,360.5 C 305.616,363.281 312.95,365.447 320.5,367C 354.264,372.656 388.264,375.156 422.5,374.5C 408.202,418.947 377.869,445.114 331.5,453C 322.87,454.145 314.203,454.645 305.5,454.5C 287.264,449.225 272.264,439.225 260.5,424.5C 279.307,406.898 291.974,385.564 298.5,360.5 Z"/></g>
<g><path style="opacity:1" fill="#fdb442" d="M 453.5,372.5 C 439.882,424.607 406.216,453.774 352.5,460C 336.258,461.843 320.591,460.01 305.5,454.5C 314.203,454.645 322.87,454.145 331.5,453C 377.869,445.114 408.202,418.947 422.5,374.5C 432.801,373.37 443.134,372.703 453.5,372.5 Z"/></g>
</svg>
