<?xml version="1.0" encoding="UTF-8"?>
<!DOCTYPE svg PUBLIC "-//W3C//DTD SVG 1.1//EN" "http://www.w3.org/Graphics/SVG/1.1/DTD/svg11.dtd">
<svg xmlns="http://www.w3.org/2000/svg" version="1.1" width="512px" height="512px" style="shape-rendering:geometricPrecision; text-rendering:geometricPrecision; image-rendering:optimizeQuality; fill-rule:evenodd; clip-rule:evenodd" xmlns:xlink="http://www.w3.org/1999/xlink">
<g><path style="opacity:0.989" fill="#fef48a" d="M 393.5,86.5 C 403.102,111.151 406.769,136.651 404.5,163C 402.741,163.798 401.074,163.631 399.5,162.5C 388.528,130.364 366.528,110.197 333.5,102C 235.656,75.3468 152.99,99.5134 85.5,174.5C 90.3099,151.513 101.643,132.346 119.5,117C 149.143,92.5472 183.143,77.5472 221.5,72C 261.008,66.3608 300.674,65.0274 340.5,68C 356.814,68.9115 372.147,73.2448 386.5,81C 389.02,82.6971 391.353,84.5305 393.5,86.5 Z"/></g>
<g><path style="opacity:1" fill="#fdef57" d="M 393.5,86.5 C 411.762,101.348 421.929,120.682 424,144.5C 425.658,169.218 421.492,192.885 411.5,215.5C 406.442,220.54 400.775,224.874 394.5,228.5C 393.557,221.849 392.723,215.183 392,208.5C 390.81,202.934 389.31,197.601 387.5,192.5C 385.892,183.677 382.892,175.344 378.5,167.5C 370.271,151.27 358.271,138.604 342.5,129.5C 327.971,120.877 312.304,115.211 295.5,112.5C 277.407,110.334 259.407,110.001 241.5,111.5C 221.819,112.945 202.819,117.279 184.5,124.5C 178.586,126.249 172.92,128.582 167.5,131.5C 155.486,137.837 144.152,145.17 133.5,153.5C 117.14,167.86 101.806,183.194 87.5,199.5C 85.6726,191.326 85.006,182.992 85.5,174.5C 152.99,99.5134 235.656,75.3468 333.5,102C 366.528,110.197 388.528,130.364 399.5,162.5C 401.074,163.631 402.741,163.798 404.5,163C 406.769,136.651 403.102,111.151 393.5,86.5 Z"/></g>
<g><path style="opacity:1" fill="#d7d0d6" d="M 295.5,112.5 C 286.038,130.388 279.871,149.388 277,169.5C 275,190.167 273,210.833 271,231.5C 268.435,248.43 263.101,264.43 255,279.5C 246.385,291.783 237.385,303.783 228,315.5C 221.273,325.341 216.273,336.008 213,347.5C 212.5,354.492 212.334,361.492 212.5,368.5C 198.126,365.698 183.96,362.031 170,357.5C 168.97,357.836 168.47,358.503 168.5,359.5C 167.596,358.791 167.263,357.791 167.5,356.5C 165.267,333.772 170.101,312.772 182,293.5C 191,282.167 200,270.833 209,259.5C 215.759,249.894 219.759,239.227 221,227.5C 220.417,208.934 222.084,190.601 226,172.5C 232.941,152.618 238.107,132.285 241.5,111.5C 259.407,110.001 277.407,110.334 295.5,112.5 Z"/></g>
<g><path style="opacity:0.999" fill="#f9f6f6" d="M 241.5,111.5 C 238.107,132.285 232.941,152.618 226,172.5C 222.084,190.601 220.417,208.934 221,227.5C 219.759,239.227 215.759,249.894 209,259.5C 200,270.833 191,282.167 182,293.5C 170.101,312.772 165.267,333.772 167.5,356.5C 141.546,347.524 116.546,336.358 92.5,323C 67.4877,306.829 42.821,290.162 18.5,273C 16.8588,271.871 15.8588,270.371 15.5,268.5C 32.0421,258.786 46.8755,246.786 60,232.5C 69.0311,221.31 78.1978,210.31 87.5,199.5C 101.806,183.194 117.14,167.86 133.5,153.5C 132.65,165.147 131.816,176.814 131,188.5C 128.107,203.903 125.94,219.403 124.5,235C 124.833,246.186 127.499,256.686 132.5,266.5C 135.765,273.334 140.265,279.334 146,284.5C 158.175,257.31 169.175,229.644 179,201.5C 186.604,176.252 188.438,150.585 184.5,124.5C 202.819,117.279 221.819,112.945 241.5,111.5 Z"/></g>
<g><path style="opacity:1" fill="#f9f6f6" d="M 295.5,112.5 C 312.304,115.211 327.971,120.877 342.5,129.5C 341.624,129.369 340.957,129.702 340.5,130.5C 330.74,153.208 324.573,176.874 322,201.5C 324.588,230.606 319.088,257.939 305.5,283.5C 297.36,297.645 288.027,310.978 277.5,323.5C 287.566,324.148 296.9,321.648 305.5,316C 327.085,300.416 345.251,281.583 360,259.5C 369.608,240.614 377.274,220.947 383,200.5C 384.274,197.609 385.774,194.942 387.5,192.5C 389.31,197.601 390.81,202.934 392,208.5C 392.723,215.183 393.557,221.849 394.5,228.5C 400.775,224.874 406.442,220.54 411.5,215.5C 419.083,211.255 426.417,206.588 433.5,201.5C 434.092,230.571 433.092,259.571 430.5,288.5C 419.047,280.887 407.714,273.054 396.5,265C 390.415,262.237 385.248,263.404 381,268.5C 378.154,287.883 372.821,306.55 365,324.5C 351.184,346.292 331.684,360.459 306.5,367C 275.28,375.067 243.947,375.567 212.5,368.5C 212.334,361.492 212.5,354.492 213,347.5C 216.273,336.008 221.273,325.341 228,315.5C 237.385,303.783 246.385,291.783 255,279.5C 263.101,264.43 268.435,248.43 271,231.5C 273,210.833 275,190.167 277,169.5C 279.871,149.388 286.038,130.388 295.5,112.5 Z"/></g>
<g><path style="opacity:1" fill="#c9bfc8" d="M 184.5,124.5 C 188.438,150.585 186.604,176.252 179,201.5C 169.175,229.644 158.175,257.31 146,284.5C 140.265,279.334 135.765,273.334 132.5,266.5C 132.523,264.073 133.023,261.74 134,259.5C 144.708,236.377 154.041,212.71 162,188.5C 166.847,169.833 168.681,150.833 167.5,131.5C 172.92,128.582 178.586,126.249 184.5,124.5 Z"/></g>
<g><path style="opacity:1" fill="#d7d0d5" d="M 342.5,129.5 C 358.271,138.604 370.271,151.27 378.5,167.5C 373.942,172.927 370.109,178.927 367,185.5C 361.695,203.099 355.028,220.099 347,236.5C 335.475,254.193 321.641,269.859 305.5,283.5C 319.088,257.939 324.588,230.606 322,201.5C 324.573,176.874 330.74,153.208 340.5,130.5C 340.957,129.702 341.624,129.369 342.5,129.5 Z"/></g>
<g><path style="opacity:1" fill="#d7d0d6" d="M 167.5,131.5 C 168.681,150.833 166.847,169.833 162,188.5C 154.041,212.71 144.708,236.377 134,259.5C 133.023,261.74 132.523,264.073 132.5,266.5C 127.499,256.686 124.833,246.186 124.5,235C 125.94,219.403 128.107,203.903 131,188.5C 131.816,176.814 132.65,165.147 133.5,153.5C 144.152,145.17 155.486,137.837 167.5,131.5 Z"/></g>
<g><path style="opacity:0.994" fill="#f9f6f6" d="M 511.5,238.5 C 511.5,241.833 511.5,245.167 511.5,248.5C 509.105,271.85 501.605,293.517 489,313.5C 484.078,318.202 478.245,319.702 471.5,318C 468.672,315.752 465.672,313.752 462.5,312C 460.963,310.89 460.297,309.39 460.5,307.5C 465.886,291.952 469.053,275.952 470,259.5C 470.826,240.144 470.492,220.81 469,201.5C 468.283,195.413 467.116,189.413 465.5,183.5C 465.253,182.287 464.586,181.62 463.5,181.5C 471.187,175.834 479.187,170.5 487.5,165.5C 495.349,177.857 501.183,191.191 505,205.5C 507.772,216.524 509.939,227.524 511.5,238.5 Z"/></g>
<g><path style="opacity:1" fill="#c9bfc8" d="M 378.5,167.5 C 382.892,175.344 385.892,183.677 387.5,192.5C 385.774,194.942 384.274,197.609 383,200.5C 377.274,220.947 369.608,240.614 360,259.5C 345.251,281.583 327.085,300.416 305.5,316C 296.9,321.648 287.566,324.148 277.5,323.5C 288.027,310.978 297.36,297.645 305.5,283.5C 321.641,269.859 335.475,254.193 347,236.5C 355.028,220.099 361.695,203.099 367,185.5C 370.109,178.927 373.942,172.927 378.5,167.5 Z"/></g>
<g><path style="opacity:1" fill="#d7d0d6" d="M 463.5,181.5 C 464.586,181.62 465.253,182.287 465.5,183.5C 467.116,189.413 468.283,195.413 469,201.5C 470.492,220.81 470.826,240.144 470,259.5C 469.053,275.952 465.886,291.952 460.5,307.5C 459.662,307.842 459.328,308.508 459.5,309.5C 449.833,302.833 440.167,296.167 430.5,289.5C 430.5,289.167 430.5,288.833 430.5,288.5C 433.092,259.571 434.092,230.571 433.5,201.5C 443.5,194.833 453.5,188.167 463.5,181.5 Z"/></g>
<g><path style="opacity:1" fill="#cac0c8" d="M 87.5,232.5 C 98.3416,232.527 102.842,237.86 101,248.5C 97.754,254.865 92.5873,257.032 85.5,255C 78.9609,251.085 77.1275,245.585 80,238.5C 82.1141,235.879 84.6141,233.879 87.5,232.5 Z"/></g>
<g><path style="opacity:1" fill="#f3eae6" d="M 511.5,248.5 C 511.5,256.833 511.5,265.167 511.5,273.5C 508.366,300.066 499.199,324.399 484,346.5C 481.984,348.684 479.817,350.684 477.5,352.5C 469.164,346.157 461.164,339.491 453.5,332.5C 455.244,324.783 457.244,317.117 459.5,309.5C 459.328,308.508 459.662,307.842 460.5,307.5C 460.297,309.39 460.963,310.89 462.5,312C 465.672,313.752 468.672,315.752 471.5,318C 478.245,319.702 484.078,318.202 489,313.5C 501.605,293.517 509.105,271.85 511.5,248.5 Z"/></g>
<g><path style="opacity:1" fill="#f3eae6" d="M 430.5,288.5 C 430.5,288.833 430.5,289.167 430.5,289.5C 429.372,297.116 428.705,304.783 428.5,312.5C 418.121,304.879 407.955,296.879 398,288.5C 385.693,344.14 351.86,378.64 296.5,392C 278.296,395.052 259.962,396.219 241.5,395.5C 233.204,394.557 224.871,393.557 216.5,392.5C 215.508,392.672 214.842,392.338 214.5,391.5C 215.649,391.209 216.316,390.376 216.5,389C 215.098,382.159 213.765,375.326 212.5,368.5C 243.947,375.567 275.28,375.067 306.5,367C 331.684,360.459 351.184,346.292 365,324.5C 372.821,306.55 378.154,287.883 381,268.5C 385.248,263.404 390.415,262.237 396.5,265C 407.714,273.054 419.047,280.887 430.5,288.5 Z"/></g>
<g><path style="opacity:1" fill="#f3eae6" d="M 15.5,268.5 C 15.8588,270.371 16.8588,271.871 18.5,273C 42.821,290.162 67.4877,306.829 92.5,323C 116.546,336.358 141.546,347.524 167.5,356.5C 167.263,357.791 167.596,358.791 168.5,359.5C 169.254,367.201 170.254,374.868 171.5,382.5C 163.499,380.166 155.499,377.833 147.5,375.5C 121.223,366.362 96.2234,354.528 72.5,340C 47.4018,321.116 23.0685,301.283 -0.5,280.5C -0.5,279.833 -0.5,279.167 -0.5,278.5C 4.83333,275.167 10.1667,271.833 15.5,268.5 Z"/></g>
<g><path style="opacity:1" fill="#c9bfc8" d="M 430.5,289.5 C 440.167,296.167 449.833,302.833 459.5,309.5C 457.244,317.117 455.244,324.783 453.5,332.5C 444.584,326.586 436.251,319.92 428.5,312.5C 428.705,304.783 429.372,297.116 430.5,289.5 Z"/></g>
<g><path style="opacity:1" fill="#c9bfc8" d="M 212.5,368.5 C 213.765,375.326 215.098,382.159 216.5,389C 216.316,390.376 215.649,391.209 214.5,391.5C 199.853,389.904 185.519,386.904 171.5,382.5C 170.254,374.868 169.254,367.201 168.5,359.5C 168.47,358.503 168.97,357.836 170,357.5C 183.96,362.031 198.126,365.698 212.5,368.5 Z"/></g>
<g><path style="opacity:0.985" fill="#fef48b" d="M 147.5,375.5 C 155.499,377.833 163.499,380.166 171.5,382.5C 185.519,386.904 199.853,389.904 214.5,391.5C 214.842,392.338 215.508,392.672 216.5,392.5C 219.35,408.383 224.016,423.716 230.5,438.5C 195.665,426.919 167.999,405.919 147.5,375.5 Z"/></g>
<g><path style="opacity:1" fill="#fef057" d="M 216.5,392.5 C 224.871,393.557 233.204,394.557 241.5,395.5C 243.781,412.509 248.781,428.675 256.5,444C 247.431,443.73 238.764,441.897 230.5,438.5C 224.016,423.716 219.35,408.383 216.5,392.5 Z"/></g>
</svg>
