<?xml version="1.0" encoding="UTF-8"?>
<!DOCTYPE svg PUBLIC "-//W3C//DTD SVG 1.1//EN" "http://www.w3.org/Graphics/SVG/1.1/DTD/svg11.dtd">
<svg xmlns="http://www.w3.org/2000/svg" version="1.1" width="512px" height="512px" style="shape-rendering:geometricPrecision; text-rendering:geometricPrecision; image-rendering:optimizeQuality; fill-rule:evenodd; clip-rule:evenodd" xmlns:xlink="http://www.w3.org/1999/xlink">
<g><path style="opacity:1" fill="#928392" d="M 287.5,177.5 C 280.828,174.499 274.162,171.499 267.5,168.5C 269.828,151.509 277.161,137.176 289.5,125.5C 299.367,121.562 309.7,119.729 320.5,120C 313,128.833 305.5,137.667 298,146.5C 293.399,156.47 289.899,166.804 287.5,177.5 Z"/></g>
<g><path style="opacity:0.97" fill="#a79ba7" d="M 289.5,125.5 C 277.161,137.176 269.828,151.509 267.5,168.5C 256.748,164.806 246.081,161.139 235.5,157.5C 250.712,142.321 268.712,131.654 289.5,125.5 Z"/></g>
<g><path style="opacity:0.992" fill="#d7d0d6" d="M 235.5,157.5 C 246.081,161.139 256.748,164.806 267.5,168.5C 274.162,171.499 280.828,174.499 287.5,177.5C 325.429,196.954 361.095,219.787 394.5,246C 406.196,257.362 417.53,269.029 428.5,281C 434.695,286.599 441.695,290.933 449.5,294C 458.5,295.667 467.5,297.333 476.5,299C 493.194,304.531 504.861,315.365 511.5,331.5C 511.5,332.833 511.5,334.167 511.5,335.5C 497.396,331.209 483.063,328.876 468.5,328.5C 471.38,340.659 473.046,352.992 473.5,365.5C 470.542,362.94 468.042,359.94 466,356.5C 459.861,342.888 453.194,329.555 446,316.5C 435.466,302.644 421.966,292.811 405.5,287C 374.96,277.188 343.626,272.021 311.5,271.5C 309.938,271.267 308.605,270.6 307.5,269.5C 276.186,251.417 242.519,240.251 206.5,236C 187.896,233.174 169.229,230.841 150.5,229C 128.459,225.209 107.459,218.209 87.5,208C 81.2206,204.054 75.2206,199.721 69.5,195C 66.1517,192.499 63.8184,189.332 62.5,185.5C 66.6326,183.6 70.6326,181.433 74.5,179C 97.4105,156.021 125.244,145.188 158,146.5C 184.267,147.262 210.101,150.929 235.5,157.5 Z"/></g>
<g><path style="opacity:1" fill="#a89ca8" d="M 124.5,176.5 C 137.494,176.656 142.327,182.99 139,195.5C 132.264,202.971 125.264,203.304 118,196.5C 113.589,187.663 115.755,180.996 124.5,176.5 Z"/></g>
<g><path style="opacity:0.996" fill="#f9f6f6" d="M 62.5,185.5 C 63.8184,189.332 66.1517,192.499 69.5,195C 75.2206,199.721 81.2206,204.054 87.5,208C 107.459,218.209 128.459,225.209 150.5,229C 169.229,230.841 187.896,233.174 206.5,236C 242.519,240.251 276.186,251.417 307.5,269.5C 242.838,270.002 180.505,257.835 120.5,233C 101.19,223.681 82.5229,213.348 64.5,202C 49.7693,197.954 34.7693,195.288 19.5,194C 15.1555,192.819 11.8221,190.319 9.5,186.5C 27.0296,186 44.6963,185.666 62.5,185.5 Z"/></g>
<g><path style="opacity:0.999" fill="#f2e9e6" d="M 9.5,186.5 C 11.8221,190.319 15.1555,192.819 19.5,194C 34.7693,195.288 49.7693,197.954 64.5,202C 82.5229,213.348 101.19,223.681 120.5,233C 180.505,257.835 242.838,270.002 307.5,269.5C 308.605,270.6 309.938,271.267 311.5,271.5C 322.675,278.92 333.675,286.587 344.5,294.5C 308.518,291.223 272.518,288.057 236.5,285C 219.067,282.705 201.733,279.872 184.5,276.5C 177.353,274.211 170.019,272.211 162.5,270.5C 154.437,268.035 146.437,265.368 138.5,262.5C 127.53,259.185 116.864,255.018 106.5,250C 88.8439,240.84 71.5106,231.174 54.5,221C 49.6255,219.198 44.6255,217.865 39.5,217C 29.4625,215.93 19.4625,214.596 9.5,213C 4.74518,211.739 1.41184,208.905 -0.5,204.5C -0.5,200.833 -0.5,197.167 -0.5,193.5C 1.72678,189.61 5.06011,187.276 9.5,186.5 Z"/></g>
<g><path style="opacity:0.963" fill="#a69aa6" d="M 138.5,262.5 C 146.437,265.368 154.437,268.035 162.5,270.5C 165.738,287.55 170.405,304.216 176.5,320.5C 176.376,321.107 176.043,321.44 175.5,321.5C 162.148,308.965 151.648,294.298 144,277.5C 141.668,272.668 139.834,267.668 138.5,262.5 Z"/></g>
<g><path style="opacity:1" fill="#918291" d="M 162.5,270.5 C 170.019,272.211 177.353,274.211 184.5,276.5C 185.008,281.543 185.842,286.543 187,291.5C 191.611,305.387 196.778,319.053 202.5,332.5C 192.088,332.466 183.088,328.799 175.5,321.5C 176.043,321.44 176.376,321.107 176.5,320.5C 170.405,304.216 165.738,287.55 162.5,270.5 Z"/></g>
<g><path style="opacity:1" fill="#c9bfc8" d="M 311.5,271.5 C 343.626,272.021 374.96,277.188 405.5,287C 421.966,292.811 435.466,302.644 446,316.5C 453.194,329.555 459.861,342.888 466,356.5C 468.042,359.94 470.542,362.94 473.5,365.5C 473.5,374.167 473.5,382.833 473.5,391.5C 472.448,391.649 471.448,391.483 470.5,391C 466.667,388.5 463.5,385.333 461,381.5C 453.105,367.503 445.772,353.169 439,338.5C 426.21,320.673 409.043,309.173 387.5,304C 373.128,300.389 358.794,297.223 344.5,294.5C 333.675,286.587 322.675,278.92 311.5,271.5 Z"/></g>
</svg>
