<?xml version="1.0" encoding="UTF-8"?>
<!DOCTYPE svg PUBLIC "-//W3C//DTD SVG 1.1//EN" "http://www.w3.org/Graphics/SVG/1.1/DTD/svg11.dtd">
<svg xmlns="http://www.w3.org/2000/svg" version="1.1" width="512px" height="512px" style="shape-rendering:geometricPrecision; text-rendering:geometricPrecision; image-rendering:optimizeQuality; fill-rule:evenodd; clip-rule:evenodd" xmlns:xlink="http://www.w3.org/1999/xlink">
<g><path style="opacity:1" fill="#918291" d="M 246.5,-0.5 C 253.167,-0.5 259.833,-0.5 266.5,-0.5C 295.591,6.09282 313.091,24.0928 319,53.5C 321.759,87.6668 307.426,111.333 276,124.5C 275.5,137.496 275.333,150.496 275.5,163.5C 269.681,164.653 263.681,164.819 257.5,164C 257,163.5 256.5,163 256,162.5C 255.333,146.167 255.333,129.833 256,113.5C 270.104,109.115 282.104,101.449 292,90.5C 305.919,60.6625 300.419,34.8291 275.5,13C 266.504,6.83252 256.838,2.33252 246.5,-0.5 Z"/></g>
<g><path style="opacity:0.982" fill="#a69aa6" d="M 244.5,-0.5 C 245.167,-0.5 245.833,-0.5 246.5,-0.5C 256.838,2.33252 266.504,6.83252 275.5,13C 300.419,34.8291 305.919,60.6625 292,90.5C 282.104,101.449 270.104,109.115 256,113.5C 255.333,129.833 255.333,146.167 256,162.5C 256.5,163 257,163.5 257.5,164C 263.681,164.819 269.681,164.653 275.5,163.5C 285.833,163.5 296.167,163.5 306.5,163.5C 322.673,168.514 327.507,178.847 321,194.5C 316.958,198.93 312.125,201.93 306.5,203.5C 296.167,203.5 285.833,203.5 275.5,203.5C 275.5,202.833 275.167,202.5 274.5,202.5C 268.242,202.19 262.076,202.524 256,203.5C 255.333,276.167 255.333,348.833 256,421.5C 257.062,422.097 258.228,422.43 259.5,422.5C 264.259,421.749 268.925,420.749 273.5,419.5C 274.167,419.5 274.833,419.5 275.5,419.5C 275.281,420.675 275.614,421.675 276.5,422.5C 319.385,414.576 351.719,391.909 373.5,354.5C 373,354.167 372.5,353.833 372,353.5C 357.842,359.636 347.842,355.636 342,341.5C 340.159,329.349 344.993,321.182 356.5,317C 373.483,309.73 390.483,302.563 407.5,295.5C 412.319,298.112 415.486,302.112 417,307.5C 421.166,329.998 425.333,352.498 429.5,375C 428.843,382.462 425.509,388.295 419.5,392.5C 412.91,387.997 409.41,381.663 409,373.5C 405.304,379.344 401.47,385.011 397.5,390.5C 394.291,387.109 392.124,383.109 391,378.5C 389.867,376.789 388.367,376.289 386.5,377C 364.744,410.737 334.41,433.071 295.5,444C 282.683,447.563 269.683,450.23 256.5,452C 255.675,466.425 255.175,480.925 255,495.5C 253.438,500.962 250.604,505.628 246.5,509.5C 242.183,507.347 239.016,504.014 237,499.5C 235.905,486.98 235.071,474.48 234.5,462C 176.048,453.548 131.881,424.048 102,373.5C 99.8461,390.009 90.6795,396.842 74.5,394C 66.4539,390.452 62.1205,384.286 61.5,375.5C 65.6665,353.168 69.8331,330.835 74,308.5C 75.2425,302.652 78.4092,298.318 83.5,295.5C 102.925,303.711 122.258,312.211 141.5,321C 150.734,329.503 151.9,339.003 145,349.5C 143.333,350.733 141.833,352.067 140.5,353.5C 139.325,353.281 138.325,353.614 137.5,354.5C 159.45,391.668 191.783,414.335 234.5,422.5C 235.5,349.503 235.833,276.503 235.5,203.5C 216.778,203.948 198.112,203.448 179.5,202C 168.322,196.494 164.489,187.66 168,175.5C 170.256,170.243 174.09,166.743 179.5,165C 198.112,163.552 216.778,163.052 235.5,163.5C 235.667,150.496 235.5,137.496 235,124.5C 203.571,111.326 189.238,87.6589 192,53.5C 197.909,24.0928 215.409,6.09282 244.5,-0.5 Z M 250.5,38.5 C 267.695,37.9234 277.695,46.09 280.5,63C 278.722,77.9442 270.389,86.4442 255.5,88.5C 236.832,85.1508 228.998,74.1508 232,55.5C 235.215,46.4451 241.382,40.7785 250.5,38.5 Z"/></g>
<g><path style="opacity:1" fill="#928392" d="M 306.5,163.5 C 315.994,162.895 325.328,163.729 334.5,166C 344.233,173.09 346.733,182.257 342,193.5C 338.618,198.781 333.784,201.948 327.5,203C 320.508,203.5 313.508,203.666 306.5,203.5C 312.125,201.93 316.958,198.93 321,194.5C 327.507,178.847 322.673,168.514 306.5,163.5 Z"/></g>
<g><path style="opacity:1" fill="#918291" d="M 274.5,202.5 C 274.83,274.904 274.497,347.238 273.5,419.5C 268.925,420.749 264.259,421.749 259.5,422.5C 258.228,422.43 257.062,422.097 256,421.5C 255.333,348.833 255.333,276.167 256,203.5C 262.076,202.524 268.242,202.19 274.5,202.5 Z"/></g>
<g><path style="opacity:0.322" fill="#9b8c9b" d="M 274.5,202.5 C 275.167,202.5 275.5,202.833 275.5,203.5C 275.5,275.5 275.5,347.5 275.5,419.5C 274.833,419.5 274.167,419.5 273.5,419.5C 274.497,347.238 274.83,274.904 274.5,202.5 Z"/></g>
<g><path style="opacity:1" fill="#928392" d="M 140.5,353.5 C 141.833,352.067 143.333,350.733 145,349.5C 151.9,339.003 150.734,329.503 141.5,321C 122.258,312.211 102.925,303.711 83.5,295.5C 89.1344,292.172 95.1344,291.672 101.5,294C 119.05,301.942 136.717,309.608 154.5,317C 169.084,323.474 172.917,333.974 166,348.5C 158.604,356.648 150.104,358.314 140.5,353.5 Z"/></g>
<g><path style="opacity:1" fill="#918291" d="M 419.5,392.5 C 425.509,388.295 428.843,382.462 429.5,375C 425.333,352.498 421.166,329.998 417,307.5C 415.486,302.112 412.319,298.112 407.5,295.5C 418.583,289.911 427.75,292.244 435,302.5C 440.405,326.693 445.239,351.026 449.5,375.5C 445.874,392.642 435.874,398.309 419.5,392.5 Z"/></g>
<g><path style="opacity:1" fill="#928392" d="M 397.5,390.5 C 367.431,431.219 327.098,455.052 276.5,462C 275.929,474.48 275.095,486.98 274,499.5C 271.231,505.105 267.064,509.105 261.5,511.5C 257.5,511.5 253.5,511.5 249.5,511.5C 248.5,510.833 247.5,510.167 246.5,509.5C 250.604,505.628 253.438,500.962 255,495.5C 255.175,480.925 255.675,466.425 256.5,452C 269.683,450.23 282.683,447.563 295.5,444C 334.41,433.071 364.744,410.737 386.5,377C 388.367,376.289 389.867,376.789 391,378.5C 392.124,383.109 394.291,387.109 397.5,390.5 Z"/></g>
</svg>
