<?xml version="1.0" encoding="UTF-8"?>
<!DOCTYPE svg PUBLIC "-//W3C//DTD SVG 1.1//EN" "http://www.w3.org/Graphics/SVG/1.1/DTD/svg11.dtd">
<svg xmlns="http://www.w3.org/2000/svg" version="1.1" width="512px" height="512px" style="shape-rendering:geometricPrecision; text-rendering:geometricPrecision; image-rendering:optimizeQuality; fill-rule:evenodd; clip-rule:evenodd" xmlns:xlink="http://www.w3.org/1999/xlink">
<g><path style="opacity:0.997" fill="#fdf38a" d="M 511.5,237.5 C 511.5,239.833 511.5,242.167 511.5,244.5C 509.418,265.476 503.585,285.476 494,304.5C 492.428,307.822 490.261,310.656 487.5,313C 485.365,313.635 483.365,313.301 481.5,312C 476.167,305.333 470.167,299.333 463.5,294C 454.108,287.31 444.441,281.143 434.5,275.5C 442.56,276.265 450.227,278.432 457.5,282C 465.619,283.875 469.452,280.708 469,272.5C 467.056,269.266 464.222,267.1 460.5,266C 448.944,261.207 436.944,259.207 424.5,260C 421.038,262.239 419.705,265.406 420.5,269.5C 410.636,265.405 400.636,261.572 390.5,258C 383.094,256.193 379.094,259.026 378.5,266.5C 382.606,290.212 382.439,313.879 378,337.5C 372.885,363.946 357.385,380.78 331.5,388C 260.792,398.214 195.126,384.381 134.5,346.5C 134.5,346.167 134.5,345.833 134.5,345.5C 147.544,333.107 157.377,318.44 164,301.5C 167.332,291.16 170.165,280.827 172.5,270.5C 189.636,285.561 209.636,292.395 232.5,291C 246.094,288.064 256.26,280.564 263,268.5C 272.83,251.352 272.83,234.352 263,217.5C 260.584,214.577 257.75,212.243 254.5,210.5C 248.839,206.552 242.506,204.052 235.5,203C 210.322,200.343 187.655,206.51 167.5,221.5C 157.02,191.194 138.02,167.861 110.5,151.5C 127.994,133.173 145.994,115.34 164.5,98C 219.076,52.1212 280.41,40.4545 348.5,63C 381.213,76.391 400.713,100.558 407,135.5C 411.127,162.428 409.294,188.928 401.5,215C 435.894,204.038 463.727,183.871 485,154.5C 499.402,180.535 508.236,208.202 511.5,237.5 Z"/></g>
<g><path style="opacity:1" fill="#fedf32" d="M 312.5,129.5 C 316.95,129.142 320.45,130.808 323,134.5C 352.056,186.319 357.722,240.652 340,297.5C 335.357,311.784 328.857,325.118 320.5,337.5C 313.847,341.174 309.514,339.341 307.5,332C 338.15,278.327 342.65,222.494 321,164.5C 317.447,155.726 313.114,147.393 308,139.5C 307.333,137.833 307.333,136.167 308,134.5C 309.366,132.638 310.866,130.972 312.5,129.5 Z"/></g>
<g><path style="opacity:0.998" fill="#f9f6f6" d="M 110.5,151.5 C 138.02,167.861 157.02,191.194 167.5,221.5C 167.216,223.415 167.549,225.081 168.5,226.5C 169.167,230.5 169.833,234.5 170.5,238.5C 171.377,247.133 171.711,255.8 171.5,264.5C 171.325,266.621 171.659,268.621 172.5,270.5C 170.165,280.827 167.332,291.16 164,301.5C 157.377,318.44 147.544,333.107 134.5,345.5C 133.448,345.649 132.448,345.483 131.5,345C 85.7083,313.054 44.0416,276.221 6.5,234.5C 32.583,221.459 56.2496,204.959 77.5,185C 88.7293,173.938 99.7293,162.772 110.5,151.5 Z"/></g>
<g><path style="opacity:1" fill="#fedf32" d="M 286.5,157.5 C 290.025,157.346 292.859,158.679 295,161.5C 317.95,201.058 321.616,242.392 306,285.5C 302.861,293.112 299.194,300.446 295,307.5C 287.862,313.801 283.029,312.301 280.5,303C 302.377,264.224 305.211,224.057 289,182.5C 286.333,177.833 283.667,173.167 281,168.5C 280.333,166.5 280.333,164.5 281,162.5C 282.73,160.598 284.563,158.931 286.5,157.5 Z"/></g>
<g><path style="opacity:1" fill="#fedf32" d="M 357.5,165.5 C 363.156,164.243 366.989,166.243 369,171.5C 379.146,208.907 380.146,246.573 372,284.5C 370.797,290.314 369.13,295.981 367,301.5C 359.929,305.513 355.429,303.68 353.5,296C 361.827,265.574 363.994,234.741 360,203.5C 358.045,193.098 355.878,182.764 353.5,172.5C 353.974,169.689 355.307,167.355 357.5,165.5 Z"/></g>
<g><path style="opacity:1" fill="#b2d9fd" d="M 254.5,210.5 C 257.962,229.967 253.128,247.3 240,262.5C 238.859,260.391 237.359,258.558 235.5,257C 215.237,249.178 194.237,245.678 172.5,246.5C 172.5,251.5 172.5,256.5 172.5,261.5C 191.868,260.741 210.535,263.908 228.5,271C 219.879,274.826 210.879,276.159 201.5,275C 190.883,272.963 180.883,269.463 171.5,264.5C 171.711,255.8 171.377,247.133 170.5,238.5C 171.404,239.209 171.737,240.209 171.5,241.5C 196.118,236.473 220.285,238.139 244,246.5C 250.901,245.25 253.234,241.25 251,234.5C 248.97,232.263 246.47,230.763 243.5,230C 218.756,222.872 193.756,221.705 168.5,226.5C 167.549,225.081 167.216,223.415 167.5,221.5C 187.655,206.51 210.322,200.343 235.5,203C 242.506,204.052 248.839,206.552 254.5,210.5 Z"/></g>
<g><path style="opacity:1" fill="#8bc9fd" d="M 254.5,210.5 C 257.75,212.243 260.584,214.577 263,217.5C 272.83,234.352 272.83,251.352 263,268.5C 256.26,280.564 246.094,288.064 232.5,291C 209.636,292.395 189.636,285.561 172.5,270.5C 171.659,268.621 171.325,266.621 171.5,264.5C 180.883,269.463 190.883,272.963 201.5,275C 210.879,276.159 219.879,274.826 228.5,271C 210.535,263.908 191.868,260.741 172.5,261.5C 172.5,256.5 172.5,251.5 172.5,246.5C 194.237,245.678 215.237,249.178 235.5,257C 237.359,258.558 238.859,260.391 240,262.5C 253.128,247.3 257.962,229.967 254.5,210.5 Z"/></g>
<g><path style="opacity:1" fill="#a89ca8" d="M 108.5,216.5 C 121.324,214.497 127.157,219.83 126,232.5C 123.034,240.055 117.534,242.888 109.5,241C 102.765,237.475 100.265,231.975 102,224.5C 103.652,221.354 105.819,218.688 108.5,216.5 Z"/></g>
<g><path style="opacity:1" fill="#8ac9fd" d="M 170.5,238.5 C 169.833,234.5 169.167,230.5 168.5,226.5C 193.756,221.705 218.756,222.872 243.5,230C 246.47,230.763 248.97,232.263 251,234.5C 253.234,241.25 250.901,245.25 244,246.5C 220.285,238.139 196.118,236.473 171.5,241.5C 171.737,240.209 171.404,239.209 170.5,238.5 Z"/></g>
<g><path style="opacity:1" fill="#fedf33" d="M 458.5,224.5 C 466.164,223.666 469.664,227 469,234.5C 468.215,236.286 467.049,237.786 465.5,239C 452.837,245.113 439.504,248.113 425.5,248C 419.741,244.108 419.074,239.441 423.5,234C 431.841,232.521 440.174,230.854 448.5,229C 452.061,227.768 455.394,226.268 458.5,224.5 Z"/></g>
<g><path style="opacity:1" fill="#f3eae4" d="M 6.5,234.5 C 44.0416,276.221 85.7083,313.054 131.5,345C 132.448,345.483 133.448,345.649 134.5,345.5C 134.5,345.833 134.5,346.167 134.5,346.5C 129.142,350.863 123.809,355.197 118.5,359.5C 102.156,348.337 86.4892,336.17 71.5,323C 46.6637,300.33 22.6637,276.83 -0.5,252.5C -0.5,248.833 -0.5,245.167 -0.5,241.5C 1.47281,238.861 3.80614,236.527 6.5,234.5 Z"/></g>
<g><path style="opacity:1" fill="#fdf057" d="M 511.5,244.5 C 511.5,255.833 511.5,267.167 511.5,278.5C 509.26,299.106 503.427,318.773 494,337.5C 491.068,342.377 487.901,347.043 484.5,351.5C 463.416,322.596 435.916,302.262 402,290.5C 403.656,300.548 404.822,310.714 405.5,321C 405.017,351.96 393.017,377.293 369.5,397C 365.438,400.029 361.105,402.529 356.5,404.5C 353.833,405.833 351.167,407.167 348.5,408.5C 339.06,411.589 329.393,413.756 319.5,415C 295.066,416.247 270.733,415.414 246.5,412.5C 236.009,410.802 225.675,408.469 215.5,405.5C 179.827,396.827 147.494,381.493 118.5,359.5C 123.809,355.197 129.142,350.863 134.5,346.5C 195.126,384.381 260.792,398.214 331.5,388C 357.385,380.78 372.885,363.946 378,337.5C 382.439,313.879 382.606,290.212 378.5,266.5C 379.094,259.026 383.094,256.193 390.5,258C 400.636,261.572 410.636,265.405 420.5,269.5C 421.625,271.129 422.959,272.629 424.5,274C 428.025,274.179 431.359,274.679 434.5,275.5C 444.441,281.143 454.108,287.31 463.5,294C 470.167,299.333 476.167,305.333 481.5,312C 483.365,313.301 485.365,313.635 487.5,313C 490.261,310.656 492.428,307.822 494,304.5C 503.585,285.476 509.418,265.476 511.5,244.5 Z"/></g>
<g><path style="opacity:1" fill="#fedf32" d="M 434.5,275.5 C 431.359,274.679 428.025,274.179 424.5,274C 422.959,272.629 421.625,271.129 420.5,269.5C 419.705,265.406 421.038,262.239 424.5,260C 436.944,259.207 448.944,261.207 460.5,266C 464.222,267.1 467.056,269.266 469,272.5C 469.452,280.708 465.619,283.875 457.5,282C 450.227,278.432 442.56,276.265 434.5,275.5 Z"/></g>
<g><path style="opacity:1" fill="#8bc9fd" d="M 356.5,404.5 C 360.565,452.494 339.565,468.994 293.5,454C 263.065,444.633 237.065,428.467 215.5,405.5C 225.675,408.469 236.009,410.802 246.5,412.5C 262.915,422.701 280.582,430.201 299.5,435C 308.848,436.869 318.181,436.869 327.5,435C 335.99,433.342 341.824,428.509 345,420.5C 346.485,416.551 347.651,412.551 348.5,408.5C 351.167,407.167 353.833,405.833 356.5,404.5 Z"/></g>
<g><path style="opacity:1" fill="#b3dafc" d="M 348.5,408.5 C 347.651,412.551 346.485,416.551 345,420.5C 341.824,428.509 335.99,433.342 327.5,435C 318.181,436.869 308.848,436.869 299.5,435C 280.582,430.201 262.915,422.701 246.5,412.5C 270.733,415.414 295.066,416.247 319.5,415C 329.393,413.756 339.06,411.589 348.5,408.5 Z"/></g>
</svg>
