<?xml version="1.0" encoding="UTF-8"?>
<!DOCTYPE svg PUBLIC "-//W3C//DTD SVG 1.1//EN" "http://www.w3.org/Graphics/SVG/1.1/DTD/svg11.dtd">
<svg xmlns="http://www.w3.org/2000/svg" version="1.1" width="512px" height="512px" style="shape-rendering:geometricPrecision; text-rendering:geometricPrecision; image-rendering:optimizeQuality; fill-rule:evenodd; clip-rule:evenodd" xmlns:xlink="http://www.w3.org/1999/xlink">
<g><path style="opacity:0.998" fill="#fdefae" d="M 287.5,40.5 C 279.824,107.583 273.324,174.916 268,242.5C 270.072,247.143 273.572,248.643 278.5,247C 280.815,245.891 282.315,244.057 283,241.5C 288.903,175.805 295.07,110.138 301.5,44.5C 317.329,31.6947 333.662,31.1947 350.5,43C 356.128,47.7676 360.128,53.601 362.5,60.5C 342.332,122.845 322.832,185.512 304,248.5C 301.694,255.259 303.861,259.593 310.5,261.5C 313.214,261.06 315.38,259.726 317,257.5C 335.509,196.786 354.009,136.12 372.5,75.5C 392.713,67.0118 409.213,71.6785 422,89.5C 424.409,93.8918 425.909,98.5584 426.5,103.5C 394.853,161.454 363.686,219.787 333,278.5C 333.49,287.554 337.823,289.887 346,285.5C 375.192,230.446 404.359,175.446 433.5,120.5C 458.29,117.985 473.123,128.985 478,153.5C 478.801,156.367 478.634,159.034 477.5,161.5C 477.565,161.062 477.399,160.728 477,160.5C 436,209.5 395,258.5 354,307.5C 348.997,312.967 349.497,317.8 355.5,322C 359.421,322.959 362.588,321.792 365,318.5C 403.402,272.274 441.569,225.941 479.5,179.5C 484.644,180.083 489.31,181.75 493.5,184.5C 496.035,197.442 493.202,209.109 485,219.5C 410.5,293.333 336,367.167 261.5,441C 250.75,448.75 238.75,452.583 225.5,452.5C 199.369,427.536 173.369,402.37 147.5,377C 146.563,376.308 145.897,376.475 145.5,377.5C 139.126,369.618 132.126,362.118 124.5,355C 84.6955,316.863 45.1955,278.363 6,239.5C 3.33271,234.966 1.16604,230.3 -0.5,225.5C -0.5,219.833 -0.5,214.167 -0.5,208.5C 4.42112,192.582 15.0878,182.916 31.5,179.5C 69.4314,225.941 107.598,272.274 146,318.5C 152.937,324.68 157.771,323.347 160.5,314.5C 160.033,311.852 158.866,309.519 157,307.5C 117.667,260.167 78.3333,212.833 39,165.5C 36.9171,163.244 34.7504,161.244 32.5,159.5C 33.0627,138.108 43.7294,124.941 64.5,120C 68.9196,119.232 73.2529,119.398 77.5,120.5C 106.641,175.446 135.808,230.446 165,285.5C 170.369,288.774 174.702,287.774 178,282.5C 177.188,276.849 175.188,271.516 172,266.5C 142.805,212.105 113.638,157.772 84.5,103.5C 87.2058,86.5863 96.8725,76.0863 113.5,72C 119.167,71.3333 124.833,71.3333 130.5,72C 133.476,72.7048 136.142,73.8714 138.5,75.5C 156.994,136.136 175.494,196.803 194,257.5C 198.333,262.833 202.667,262.833 207,257.5C 207.667,254.5 207.667,251.5 207,248.5C 187.523,185.238 168.357,121.905 149.5,58.5C 156.361,43.0525 168.361,35.0525 185.5,34.5C 194.658,35.3229 202.658,38.6562 209.5,44.5C 216.048,109.459 222.215,174.459 228,239.5C 228.589,246.046 232.089,248.546 238.5,247C 242.084,245.336 243.751,242.503 243.5,238.5C 237.461,172.277 230.795,106.277 223.5,40.5C 233.907,25.0823 248.24,19.5823 266.5,24C 275.723,26.7288 282.723,32.2288 287.5,40.5 Z"/></g>
<g><path style="opacity:1" fill="#d8d0d5" d="M 223.5,40.5 C 230.795,106.277 237.461,172.277 243.5,238.5C 243.751,242.503 242.084,245.336 238.5,247C 232.089,248.546 228.589,246.046 228,239.5C 222.215,174.459 216.048,109.459 209.5,44.5C 212.852,47.6953 215.685,51.362 218,55.5C 218.374,49.8691 220.207,44.8691 223.5,40.5 Z"/></g>
<g><path style="opacity:1" fill="#d7d0d5" d="M 287.5,40.5 C 290.693,44.8939 292.526,49.8939 293,55.5C 295.315,51.362 298.148,47.6953 301.5,44.5C 295.07,110.138 288.903,175.805 283,241.5C 282.315,244.057 280.815,245.891 278.5,247C 273.572,248.643 270.072,247.143 268,242.5C 273.324,174.916 279.824,107.583 287.5,40.5 Z"/></g>
<g><path style="opacity:1" fill="#d7d0d5" d="M 149.5,58.5 C 168.357,121.905 187.523,185.238 207,248.5C 207.667,251.5 207.667,254.5 207,257.5C 202.667,262.833 198.333,262.833 194,257.5C 175.494,196.803 156.994,136.136 138.5,75.5C 141.342,76.1723 143.842,77.5056 146,79.5C 146.333,75.1667 146.667,70.8333 147,66.5C 147.279,63.5432 148.113,60.8766 149.5,58.5 Z"/></g>
<g><path style="opacity:1" fill="#d7d0d5" d="M 362.5,60.5 C 364.018,66.6919 364.851,73.0252 365,79.5C 367.158,77.5056 369.658,76.1723 372.5,75.5C 354.009,136.12 335.509,196.786 317,257.5C 315.38,259.726 313.214,261.06 310.5,261.5C 303.861,259.593 301.694,255.259 304,248.5C 322.832,185.512 342.332,122.845 362.5,60.5 Z"/></g>
<g><path style="opacity:1" fill="#d7d0d5" d="M 84.5,103.5 C 113.638,157.772 142.805,212.105 172,266.5C 175.188,271.516 177.188,276.849 178,282.5C 174.702,287.774 170.369,288.774 165,285.5C 135.808,230.446 106.641,175.446 77.5,120.5C 80.596,120.935 83.596,121.435 86.5,122C 84.0941,115.997 83.4274,109.831 84.5,103.5 Z"/></g>
<g><path style="opacity:1" fill="#d7d0d5" d="M 426.5,103.5 C 427.571,109.838 426.905,116.004 424.5,122C 427.404,121.435 430.404,120.935 433.5,120.5C 404.359,175.446 375.192,230.446 346,285.5C 337.823,289.887 333.49,287.554 333,278.5C 363.686,219.787 394.853,161.454 426.5,103.5 Z"/></g>
<g><path style="opacity:1" fill="#d7d0d5" d="M 32.5,159.5 C 34.7504,161.244 36.9171,163.244 39,165.5C 78.3333,212.833 117.667,260.167 157,307.5C 158.866,309.519 160.033,311.852 160.5,314.5C 157.771,323.347 152.937,324.68 146,318.5C 107.598,272.274 69.4314,225.941 31.5,179.5C 34.1873,179.664 36.854,179.497 39.5,179C 35.4762,173.095 33.1429,166.595 32.5,159.5 Z"/></g>
<g><path style="opacity:1" fill="#d7d0d5" d="M 477.5,161.5 C 477.355,167.96 475.355,173.793 471.5,179C 474.146,179.497 476.813,179.664 479.5,179.5C 441.569,225.941 403.402,272.274 365,318.5C 362.588,321.792 359.421,322.959 355.5,322C 349.497,317.8 348.997,312.967 354,307.5C 395,258.5 436,209.5 477,160.5C 477.399,160.728 477.565,161.062 477.5,161.5 Z"/></g>
<g><path style="opacity:1" fill="#fee97d" d="M 493.5,184.5 C 502.92,190.038 508.92,198.038 511.5,208.5C 511.5,214.167 511.5,219.833 511.5,225.5C 509.834,230.3 507.667,234.966 505,239.5C 459.578,285.089 414.078,330.422 368.5,375.5C 359.833,383.833 351.167,392.167 342.5,400.5C 323.807,418.861 305.14,437.194 286.5,455.5C 270.331,465.59 253.331,467.09 235.5,460C 232.379,458.694 229.713,456.86 227.5,454.5C 226.833,453.833 226.167,453.167 225.5,452.5C 238.75,452.583 250.75,448.75 261.5,441C 336,367.167 410.5,293.333 485,219.5C 493.202,209.109 496.035,197.442 493.5,184.5 Z"/></g>
<g><path style="opacity:0.987" fill="#fef48b" d="M 225.5,452.5 C 226.167,453.167 226.833,453.833 227.5,454.5C 209.476,471.682 188.143,482.848 163.5,488C 152.607,489.942 146.273,485.442 144.5,474.5C 146.653,468.187 148.82,461.853 151,455.5C 153.933,441.906 154.266,428.24 152,414.5C 149.766,402.166 147.6,389.833 145.5,377.5C 145.897,376.475 146.563,376.308 147.5,377C 173.369,402.37 199.369,427.536 225.5,452.5 Z"/></g>
<g><path style="opacity:1" fill="#fef057" d="M 368.5,375.5 C 364.641,394.324 361.974,413.324 360.5,432.5C 360.723,445.448 363.556,457.782 369,469.5C 369.85,486.162 362.35,491.828 346.5,486.5C 347.435,483.887 347.602,481.221 347,478.5C 339.022,460.986 336.355,442.653 339,423.5C 340.385,415.856 341.552,408.19 342.5,400.5C 351.167,392.167 359.833,383.833 368.5,375.5 Z"/></g>
<g><path style="opacity:0.991" fill="#fef38a" d="M 342.5,400.5 C 341.552,408.19 340.385,415.856 339,423.5C 336.355,442.653 339.022,460.986 347,478.5C 347.602,481.221 347.435,483.887 346.5,486.5C 334.074,484.078 322.407,479.578 311.5,473C 302.992,467.311 294.659,461.478 286.5,455.5C 305.14,437.194 323.807,418.861 342.5,400.5 Z"/></g>
</svg>
