<?xml version="1.0" encoding="UTF-8"?>
<!DOCTYPE svg PUBLIC "-//W3C//DTD SVG 1.1//EN" "http://www.w3.org/Graphics/SVG/1.1/DTD/svg11.dtd">
<svg xmlns="http://www.w3.org/2000/svg" version="1.1" width="512px" height="512px" style="shape-rendering:geometricPrecision; text-rendering:geometricPrecision; image-rendering:optimizeQuality; fill-rule:evenodd; clip-rule:evenodd" xmlns:xlink="http://www.w3.org/1999/xlink">
<g><path style="opacity:0.956" fill="#a79ba7" d="M 122.5,-0.5 C 133.5,-0.5 144.5,-0.5 155.5,-0.5C 179.724,3.0151 201.391,12.3484 220.5,27.5C 213.328,29.2521 205.995,30.5855 198.5,31.5C 158.96,10.3627 119.293,10.1961 79.5,31C 34.047,60.6417 15.2137,102.475 23,156.5C 25.3814,167.489 29.2147,177.822 34.5,187.5C 33.2764,195.38 31.6097,203.047 29.5,210.5C 5.19658,175.015 -1.30342,136.348 10,94.5C 28.7725,40.5542 66.2725,8.88752 122.5,-0.5 Z"/></g>
<g><path style="opacity:0.955" fill="#a79ba7" d="M 355.5,-0.5 C 366.5,-0.5 377.5,-0.5 388.5,-0.5C 446.33,9.492 484.163,42.492 502,98.5C 511.853,139.067 505.019,176.4 481.5,210.5C 479.624,202.875 477.958,195.208 476.5,187.5C 495.256,150.555 495.089,113.555 476,76.5C 445.955,28.4008 402.789,8.90085 346.5,18C 334.485,20.8372 323.152,25.3372 312.5,31.5C 304.842,31.2997 297.508,29.9663 290.5,27.5C 309.609,12.3484 331.276,3.0151 355.5,-0.5 Z"/></g>
<g><path style="opacity:0.997" fill="#fc8087" d="M 290.5,27.5 C 297.508,29.9663 304.842,31.2997 312.5,31.5C 317.368,33.3067 322.368,34.9734 327.5,36.5C 322.339,66.1434 317.339,95.81 312.5,125.5C 309.402,124.784 306.402,123.784 303.5,122.5C 268.135,111.017 233.135,112.017 198.5,125.5C 193.661,95.81 188.661,66.1434 183.5,36.5C 188.643,35.0079 193.643,33.3412 198.5,31.5C 205.995,30.5855 213.328,29.2521 220.5,27.5C 243.833,24.8333 267.167,24.8333 290.5,27.5 Z"/></g>
<g><path style="opacity:0.997" fill="#faf6f6" d="M 183.5,36.5 C 188.661,66.1434 193.661,95.81 198.5,125.5C 165.833,141.5 141.5,165.833 125.5,198.5C 95.8116,193.607 66.1449,188.607 36.5,183.5C 61.8333,110.833 110.833,61.8333 183.5,36.5 Z"/></g>
<g><path style="opacity:0.999" fill="#f9f6f6" d="M 327.5,36.5 C 340.484,40.4962 352.818,45.8295 364.5,52.5C 363.668,53.3285 364.001,54.1618 365.5,55C 412.269,87.3443 442.603,131.178 456.5,186.5C 432.843,190.499 409.176,194.499 385.5,198.5C 369.5,165.833 345.167,141.5 312.5,125.5C 317.339,95.81 322.339,66.1434 327.5,36.5 Z"/></g>
<g><path style="opacity:1" fill="#f3eae7" d="M 364.5,52.5 C 405.452,74.2857 436.952,105.619 459,146.5C 465.283,158.395 470.45,170.728 474.5,183.5C 468.614,183.98 462.948,184.98 457.5,186.5C 457.167,186.5 456.833,186.5 456.5,186.5C 442.603,131.178 412.269,87.3443 365.5,55C 364.001,54.1618 363.668,53.3285 364.5,52.5 Z"/></g>
<g><path style="opacity:1" fill="#d7d0d6" d="M 303.5,122.5 C 367.524,164.375 389.024,222.375 368,296.5C 343.265,354.536 299.265,385.203 236,388.5C 223.613,388.312 211.446,386.645 199.5,383.5C 198.584,383.543 197.917,383.876 197.5,384.5C 165.139,368.805 141.139,344.805 125.5,312.5C 121.263,301.158 118.096,289.492 116,277.5C 113.718,260.762 114.051,244.095 117,227.5C 119.336,217.661 122.17,207.994 125.5,198.5C 141.5,165.833 165.833,141.5 198.5,125.5C 233.135,112.017 268.135,111.017 303.5,122.5 Z M 243.5,151.5 C 289.063,148.86 323.563,166.86 347,205.5C 366.5,245.912 363.167,284.245 337,320.5C 306.77,355.107 269.27,366.607 224.5,355C 183.248,340.074 159.081,310.907 152,267.5C 148.873,221.915 166.706,187.415 205.5,164C 217.588,157.692 230.254,153.526 243.5,151.5 Z"/></g>
<g><path style="opacity:1" fill="#c9bfc8" d="M 303.5,122.5 C 306.402,123.784 309.402,124.784 312.5,125.5C 345.167,141.5 369.5,165.833 385.5,198.5C 400.123,236.48 400.123,274.48 385.5,312.5C 369.5,345.167 345.167,369.5 312.5,385.5C 274.486,400.146 236.486,400.146 198.5,385.5C 198.5,384.833 198.167,384.5 197.5,384.5C 197.917,383.876 198.584,383.543 199.5,383.5C 211.446,386.645 223.613,388.312 236,388.5C 299.265,385.203 343.265,354.536 368,296.5C 389.024,222.375 367.524,164.375 303.5,122.5 Z"/></g>
<g><path style="opacity:0.997" fill="#fc8087" d="M 36.5,183.5 C 66.1449,188.607 95.8116,193.607 125.5,198.5C 122.17,207.994 119.336,217.661 117,227.5C 114.051,244.095 113.718,260.762 116,277.5C 118.096,289.492 121.263,301.158 125.5,312.5C 95.7698,317.113 66.1031,322.113 36.5,327.5C 36.0113,326.005 35.3446,324.671 34.5,323.5C 33.2854,315.652 31.6187,307.985 29.5,300.5C 24.1819,270.506 24.1819,240.506 29.5,210.5C 31.6097,203.047 33.2764,195.38 34.5,187.5C 35.3446,186.329 36.0113,184.995 36.5,183.5 Z"/></g>
<g><path style="opacity:1" fill="#fd646f" d="M 474.5,183.5 C 474.989,184.995 475.655,186.329 476.5,187.5C 477.958,195.208 479.624,202.875 481.5,210.5C 486.833,240.5 486.833,270.5 481.5,300.5C 479.212,308.031 477.545,315.698 476.5,323.5C 475.655,324.671 474.989,326.005 474.5,327.5C 466.394,326.593 458.394,325.26 450.5,323.5C 466.208,278.497 468.541,232.831 457.5,186.5C 462.948,184.98 468.614,183.98 474.5,183.5 Z"/></g>
<g><path style="opacity:1" fill="#fc8087" d="M 456.5,186.5 C 456.833,186.5 457.167,186.5 457.5,186.5C 468.541,232.831 466.208,278.497 450.5,323.5C 428.821,319.927 407.154,316.26 385.5,312.5C 400.123,274.48 400.123,236.48 385.5,198.5C 409.176,194.499 432.843,190.499 456.5,186.5 Z"/></g>
<g><path style="opacity:0.955" fill="#a79ba7" d="M 29.5,300.5 C 31.6187,307.985 33.2854,315.652 34.5,323.5C 15.7804,360.44 15.9471,397.44 35,434.5C 65.0448,482.599 108.211,502.099 164.5,493C 176.515,490.163 187.848,485.663 198.5,479.5C 206.029,480.42 213.362,481.753 220.5,483.5C 201.391,498.652 179.724,507.985 155.5,511.5C 144.5,511.5 133.5,511.5 122.5,511.5C 64.6702,501.508 26.8369,468.508 9,412.5C -0.852583,371.933 5.98075,334.6 29.5,300.5 Z"/></g>
<g><path style="opacity:0.954" fill="#a79ba7" d="M 481.5,300.5 C 505.019,334.6 511.853,371.933 502,412.5C 484.163,468.508 446.33,501.508 388.5,511.5C 377.5,511.5 366.5,511.5 355.5,511.5C 331.276,507.985 309.609,498.652 290.5,483.5C 297.638,481.753 304.971,480.42 312.5,479.5C 352.04,500.637 391.707,500.804 431.5,480C 476.953,450.358 495.786,408.525 488,354.5C 485.619,343.511 481.785,333.178 476.5,323.5C 477.545,315.698 479.212,308.031 481.5,300.5 Z"/></g>
<g><path style="opacity:0.997" fill="#f9f6f6" d="M 125.5,312.5 C 141.139,344.805 165.139,368.805 197.5,384.5C 198.167,384.5 198.5,384.833 198.5,385.5C 193.674,413.139 189.007,440.806 184.5,468.5C 183.539,470.265 183.205,472.265 183.5,474.5C 110.833,449.167 61.8333,400.167 36.5,327.5C 66.1031,322.113 95.7698,317.113 125.5,312.5 Z"/></g>
<g><path style="opacity:1" fill="#f9f6f6" d="M 385.5,312.5 C 407.154,316.26 428.821,319.927 450.5,323.5C 426.61,384.725 384.61,428.725 324.5,455.5C 320.502,432.172 316.502,408.838 312.5,385.5C 345.167,369.5 369.5,345.167 385.5,312.5 Z"/></g>
<g><path style="opacity:1" fill="#f3eae6" d="M 450.5,323.5 C 458.394,325.26 466.394,326.593 474.5,327.5C 449.167,400.167 400.167,449.167 327.5,474.5C 326.886,468.097 325.886,461.764 324.5,455.5C 384.61,428.725 426.61,384.725 450.5,323.5 Z"/></g>
<g><path style="opacity:1" fill="#fc8087" d="M 198.5,385.5 C 236.486,400.146 274.486,400.146 312.5,385.5C 316.502,408.838 320.502,432.172 324.5,455.5C 279.169,474.31 232.502,478.643 184.5,468.5C 189.007,440.806 193.674,413.139 198.5,385.5 Z"/></g>
<g><path style="opacity:1" fill="#fd6570" d="M 324.5,455.5 C 325.886,461.764 326.886,468.097 327.5,474.5C 322.368,476.027 317.368,477.693 312.5,479.5C 304.971,480.42 297.638,481.753 290.5,483.5C 267.167,486.167 243.833,486.167 220.5,483.5C 213.362,481.753 206.029,480.42 198.5,479.5C 193.643,477.659 188.643,475.992 183.5,474.5C 183.205,472.265 183.539,470.265 184.5,468.5C 232.502,478.643 279.169,474.31 324.5,455.5 Z"/></g>
</svg>
