<?xml version="1.0" encoding="UTF-8"?>
<!DOCTYPE svg PUBLIC "-//W3C//DTD SVG 1.1//EN" "http://www.w3.org/Graphics/SVG/1.1/DTD/svg11.dtd">
<svg xmlns="http://www.w3.org/2000/svg" version="1.1" width="512px" height="512px" style="shape-rendering:geometricPrecision; text-rendering:geometricPrecision; image-rendering:optimizeQuality; fill-rule:evenodd; clip-rule:evenodd" xmlns:xlink="http://www.w3.org/1999/xlink">
<g><path style="opacity:1" fill="#6ed5a1" d="M 350.5,163.5 C 339.828,163.667 329.161,163.5 318.5,163C 315.098,161.6 312.264,159.433 310,156.5C 294.167,124.835 278.334,93.1681 262.5,61.5C 263.559,56.5523 263.726,51.5523 263,46.5C 260.382,42.4274 256.882,41.094 252.5,42.5C 249.541,33.9143 245.541,25.9143 240.5,18.5C 249.92,8.26466 259.753,7.93133 270,17.5C 292.333,62.8333 314.667,108.167 337,153.5C 340.061,158.931 344.561,162.265 350.5,163.5 Z"/></g>
<g><path style="opacity:0.997" fill="#90ddb5" d="M 240.5,18.5 C 245.541,25.9143 249.541,33.9143 252.5,42.5C 250.871,43.6253 249.371,44.9586 248,46.5C 247.112,51.6178 247.445,56.6178 249,61.5C 253.499,65.4587 257.999,65.4587 262.5,61.5C 278.334,93.1681 294.167,124.835 310,156.5C 312.264,159.433 315.098,161.6 318.5,163C 329.161,163.5 339.828,163.667 350.5,163.5C 396.95,169.612 443.284,176.279 489.5,183.5C 490.913,187.875 490.746,192.209 489,196.5C 485.281,201.383 481.115,205.716 476.5,209.5C 475.303,205.647 472.637,203.647 468.5,203.5C 463.311,204.059 458.811,206.059 455,209.5C 453.335,218.333 456.835,221.999 465.5,220.5C 465.938,220.435 466.272,220.601 466.5,221C 433.303,254.529 400.47,288.363 368,322.5C 366.524,327.076 366.19,331.743 367,336.5C 373.399,371.792 379.566,407.126 385.5,442.5C 385.457,443.416 385.124,444.083 384.5,444.5C 380.04,439.266 375.54,439.266 371,444.5C 370.302,451.613 372.802,457.446 378.5,462C 381.863,462.927 384.863,462.427 387.5,460.5C 390.658,469.118 391.825,478.118 391,487.5C 390.347,490.139 389.18,492.473 387.5,494.5C 345.193,472.346 302.86,450.179 260.5,428C 257.167,427.333 253.833,427.333 250.5,428C 205.167,451.667 159.833,475.333 114.5,499C 103.836,501.919 96.0027,498.419 91,488.5C 90.3333,484.167 90.3333,479.833 91,475.5C 99.1079,429.186 107.108,382.853 115,336.5C 116.266,330.405 115.266,324.738 112,319.5C 73.6083,283.274 36.1083,246.274 -0.5,208.5C -0.5,204.167 -0.5,199.833 -0.5,195.5C 1.97883,190.857 5.64549,187.357 10.5,185C 60.5,177.667 110.5,170.333 160.5,163C 166.66,162.171 171.16,159.004 174,153.5C 196.18,108.474 218.347,63.4735 240.5,18.5 Z"/></g>
<g><path style="opacity:1" fill="#0ac37c" d="M 262.5,61.5 C 257.999,65.4587 253.499,65.4587 249,61.5C 247.445,56.6178 247.112,51.6178 248,46.5C 249.371,44.9586 250.871,43.6253 252.5,42.5C 256.882,41.094 260.382,42.4274 263,46.5C 263.726,51.5523 263.559,56.5523 262.5,61.5 Z"/></g>
<g><path style="opacity:1" fill="#0cc37c" d="M 252.5,85.5 C 257.28,84.6409 260.78,86.3075 263,90.5C 263.667,98.1667 263.667,105.833 263,113.5C 259.987,118.535 255.82,119.702 250.5,117C 249.299,116.097 248.465,114.931 248,113.5C 247.333,105.833 247.333,98.1667 248,90.5C 249.025,88.313 250.525,86.6464 252.5,85.5 Z"/></g>
<g><path style="opacity:1" fill="#0bc37c" d="M 251.5,139.5 C 256.742,138.271 260.575,139.937 263,144.5C 263.667,151.833 263.667,159.167 263,166.5C 260.523,172.45 256.357,173.95 250.5,171C 249.54,169.581 248.707,168.081 248,166.5C 247.333,159.167 247.333,151.833 248,144.5C 248.997,142.677 250.164,141.01 251.5,139.5 Z"/></g>
<g><path style="opacity:1" fill="#6ed5a1" d="M 489.5,183.5 C 499.523,182.84 506.856,186.84 511.5,195.5C 511.5,199.833 511.5,204.167 511.5,208.5C 474.892,246.274 437.392,283.274 399,319.5C 395.734,324.738 394.734,330.405 396,336.5C 404.654,384.926 412.821,433.426 420.5,482C 419.386,494.777 412.386,500.777 399.5,500C 395.354,498.426 391.354,496.593 387.5,494.5C 389.18,492.473 390.347,490.139 391,487.5C 391.825,478.118 390.658,469.118 387.5,460.5C 389.432,457.823 389.932,454.823 389,451.5C 387.277,449.283 385.777,446.95 384.5,444.5C 385.124,444.083 385.457,443.416 385.5,442.5C 379.566,407.126 373.399,371.792 367,336.5C 366.19,331.743 366.524,327.076 368,322.5C 400.47,288.363 433.303,254.529 466.5,221C 466.272,220.601 465.938,220.435 465.5,220.5C 472.8,220.534 476.466,216.867 476.5,209.5C 481.115,205.716 485.281,201.383 489,196.5C 490.746,192.209 490.913,187.875 489.5,183.5 Z"/></g>
<g><path style="opacity:1" fill="#0ec37c" d="M 263.5,208.5 C 258.833,208.5 254.167,208.5 249.5,208.5C 248.213,207.129 247.547,205.295 247.5,203C 247.282,197.376 249.949,193.876 255.5,192.5C 262.882,195.262 265.548,200.595 263.5,208.5 Z"/></g>
<g><path style="opacity:1" fill="#0dc37c" d="M 39.5,203.5 C 46.0558,203.592 51.8891,205.592 57,209.5C 58.7514,216.008 56.418,220.008 50,221.5C 46.0885,220.564 42.2552,219.398 38.5,218C 33.1466,212.871 33.4799,208.038 39.5,203.5 Z"/></g>
<g><path style="opacity:1" fill="#0ac27b" d="M 476.5,209.5 C 476.466,216.867 472.8,220.534 465.5,220.5C 456.835,221.999 453.335,218.333 455,209.5C 458.811,206.059 463.311,204.059 468.5,203.5C 472.637,203.647 475.303,205.647 476.5,209.5 Z"/></g>
<g><path style="opacity:1" fill="#fdefad" d="M 249.5,208.5 C 254.167,208.5 258.833,208.5 263.5,208.5C 264.791,208.263 265.791,208.596 266.5,209.5C 293.457,232.586 297.957,259.586 280,290.5C 266.416,307.042 248.916,315.042 227.5,314.5C 223.833,311.833 220.167,309.167 216.5,306.5C 204.85,294.234 198.85,279.568 198.5,262.5C 199.28,257.578 200.28,252.578 201.5,247.5C 209.933,224.977 225.933,211.977 249.5,208.5 Z"/></g>
<g><path style="opacity:1" fill="#fde97e" d="M 266.5,209.5 C 287.714,214.381 302.048,227.048 309.5,247.5C 311.034,252.362 312.034,257.362 312.5,262.5C 312.46,280.237 306.127,295.237 293.5,307.5C 289.81,310.199 286.143,312.865 282.5,315.5C 264.465,323.43 246.465,323.43 228.5,315.5C 228.5,314.833 228.167,314.5 227.5,314.5C 248.916,315.042 266.416,307.042 280,290.5C 297.957,259.586 293.457,232.586 266.5,209.5 Z"/></g>
<g><path style="opacity:1" fill="#0ac27b" d="M 73.5,212.5 C 80.3086,213.703 86.9752,215.536 93.5,218C 97.6976,222.632 97.3643,226.965 92.5,231C 85.1733,231.562 78.1733,230.229 71.5,227C 67.0539,221.397 67.7206,216.564 73.5,212.5 Z"/></g>
<g><path style="opacity:1" fill="#0ac27b" d="M 433.5,212.5 C 442.35,212.864 445.184,217.197 442,225.5C 441.097,226.701 439.931,227.535 438.5,228C 434.45,228.794 430.45,229.794 426.5,231C 417.667,232.833 414.167,229.333 416,220.5C 417.167,219.333 418.333,218.167 419.5,217C 424.373,215.763 429.04,214.263 433.5,212.5 Z"/></g>
<g><path style="opacity:1" fill="#0cc37c" d="M 111.5,223.5 C 118.316,224.297 124.982,225.797 131.5,228C 135.533,231.168 136.367,235.001 134,239.5C 132.147,241.592 129.814,242.592 127,242.5C 121.328,241.609 115.828,240.109 110.5,238C 105.147,232.871 105.48,228.038 111.5,223.5 Z"/></g>
<g><path style="opacity:1" fill="#0ac27b" d="M 393.5,223.5 C 403.118,223.271 406.284,227.604 403,236.5C 402.097,237.701 400.931,238.535 399.5,239C 395.42,239.687 391.42,240.687 387.5,242C 379.385,243.218 375.885,239.718 377,231.5C 378.543,229.622 380.376,228.122 382.5,227C 386.427,226.276 390.094,225.109 393.5,223.5 Z"/></g>
<g><path style="opacity:1" fill="#0bc37c" d="M 150.5,234.5 C 157.284,235.362 163.951,236.862 170.5,239C 176.408,246.034 174.908,250.868 166,253.5C 160.401,252.392 154.901,250.892 149.5,249C 144.003,243.683 144.336,238.85 150.5,234.5 Z"/></g>
<g><path style="opacity:1" fill="#0dc37c" d="M 354.5,234.5 C 363.888,233.675 367.388,237.675 365,246.5C 359.875,249.496 354.375,251.662 348.5,253C 342.371,254.439 338.704,252.106 337.5,246C 337.969,242.196 339.969,239.529 343.5,238C 347.372,237.096 351.039,235.93 354.5,234.5 Z"/></g>
<g><path style="opacity:1" fill="#d7d0d5" d="M 260.5,244.5 C 258.473,244.338 256.473,244.505 254.5,245C 263.028,261.924 258.361,273.424 240.5,279.5C 237.949,277.422 236.116,274.756 235,271.5C 232.463,255.214 239.297,245.881 255.5,243.5C 257.369,243.507 259.036,243.84 260.5,244.5 Z"/></g>
<g><path style="opacity:1" fill="#c9bfc8" d="M 260.5,244.5 C 266.874,246.029 271.707,249.696 275,255.5C 279.634,273.248 272.967,283.582 255,286.5C 248.991,286.411 244.158,284.078 240.5,279.5C 258.361,273.424 263.028,261.924 254.5,245C 256.473,244.505 258.473,244.338 260.5,244.5 Z"/></g>
<g><path style="opacity:1" fill="#14c37c" d="M 201.5,247.5 C 200.28,252.578 199.28,257.578 198.5,262.5C 195.101,261.984 191.768,261.15 188.5,260C 183.257,255.255 183.257,250.588 188.5,246C 193.021,245.15 197.355,245.65 201.5,247.5 Z"/></g>
<g><path style="opacity:1" fill="#0cc37c" d="M 312.5,262.5 C 312.034,257.362 311.034,252.362 309.5,247.5C 313.998,245.723 318.665,245.223 323.5,246C 328.313,250.041 328.646,254.375 324.5,259C 320.583,260.479 316.583,261.646 312.5,262.5 Z"/></g>
<g><path style="opacity:1" fill="#0fc37b" d="M 216.5,306.5 C 220.167,309.167 223.833,311.833 227.5,314.5C 228.167,314.5 228.5,314.833 228.5,315.5C 226.459,319.741 223.793,323.574 220.5,327C 211.667,328.833 208.167,325.333 210,316.5C 211.996,313.014 214.163,309.681 216.5,306.5 Z"/></g>
<g><path style="opacity:1" fill="#0ec37b" d="M 293.5,307.5 C 296.805,309.654 299.305,312.654 301,316.5C 302.833,325.333 299.333,328.833 290.5,327C 287.207,323.574 284.541,319.741 282.5,315.5C 286.143,312.865 289.81,310.199 293.5,307.5 Z"/></g>
<g><path style="opacity:1" fill="#0ac27b" d="M 198.5,335.5 C 206.658,334.823 210.158,338.49 209,346.5C 205.5,351.5 202,356.5 198.5,361.5C 189.86,363.694 186.027,360.36 187,351.5C 190.277,345.73 194.11,340.397 198.5,335.5 Z"/></g>
<g><path style="opacity:1" fill="#09c27b" d="M 306.5,335.5 C 308.989,335.298 311.323,335.798 313.5,337C 320.15,342.797 323.65,349.964 324,358.5C 320.994,362.481 317.16,363.481 312.5,361.5C 309,356.5 305.5,351.5 302,346.5C 300.776,341.626 302.276,337.959 306.5,335.5 Z"/></g>
<g><path style="opacity:1" fill="#09c27b" d="M 176.5,370.5 C 184.149,370.314 187.315,373.981 186,381.5C 182.958,386.419 179.791,391.252 176.5,396C 167.912,399.394 163.746,396.561 164,387.5C 167.223,381.016 171.39,375.349 176.5,370.5 Z"/></g>
<g><path style="opacity:1" fill="#0ac27b" d="M 329.5,370.5 C 331.989,370.298 334.323,370.798 336.5,372C 341.588,377.345 345.254,383.512 347.5,390.5C 346.04,397.049 342.04,399.216 335.5,397C 332.333,392.5 329.167,388 326,383.5C 323.348,378.039 324.514,373.706 329.5,370.5 Z"/></g>
<g><path style="opacity:1" fill="#09c27b" d="M 153.5,405.5 C 161.149,405.314 164.315,408.981 163,416.5C 159.891,421.94 156.391,427.107 152.5,432C 144.381,433.875 140.548,430.708 141,422.5C 144.676,416.346 148.842,410.679 153.5,405.5 Z"/></g>
<g><path style="opacity:1" fill="#09c27b" d="M 352.5,405.5 C 354.989,405.298 357.323,405.798 359.5,407C 362.667,411.5 365.833,416 369,420.5C 371.509,429.661 368.009,433.495 358.5,432C 353.412,426.655 349.746,420.488 347.5,413.5C 347.672,409.807 349.339,407.141 352.5,405.5 Z"/></g>
<g><path style="opacity:1" fill="#0cc37c" d="M 131.5,440.5 C 139.179,441.018 142.012,445.018 140,452.5C 138.323,455.853 136.157,458.853 133.5,461.5C 124.262,464.304 120.429,460.971 122,451.5C 124.27,446.892 127.437,443.226 131.5,440.5 Z"/></g>
<g><path style="opacity:1" fill="#0ac27b" d="M 384.5,444.5 C 385.777,446.95 387.277,449.283 389,451.5C 389.932,454.823 389.432,457.823 387.5,460.5C 384.863,462.427 381.863,462.927 378.5,462C 372.802,457.446 370.302,451.613 371,444.5C 375.54,439.266 380.04,439.266 384.5,444.5 Z"/></g>
</svg>
