<?xml version="1.0" encoding="UTF-8"?>
<!DOCTYPE svg PUBLIC "-//W3C//DTD SVG 1.1//EN" "http://www.w3.org/Graphics/SVG/1.1/DTD/svg11.dtd">
<svg xmlns="http://www.w3.org/2000/svg" version="1.1" width="512px" height="512px" style="shape-rendering:geometricPrecision; text-rendering:geometricPrecision; image-rendering:optimizeQuality; fill-rule:evenodd; clip-rule:evenodd" xmlns:xlink="http://www.w3.org/1999/xlink">
<g><path style="opacity:0.995" fill="#fd636e" d="M 220.5,1.5 C 233.328,10.475 245.494,20.475 257,31.5C 259.245,34.8809 259.912,38.5475 259,42.5C 256.418,47.3331 253.585,51.9998 250.5,56.5C 265.311,57.8982 275.977,65.2316 282.5,78.5C 293.423,79.857 302.923,84.1903 311,91.5C 313.71,95.7533 316.543,99.9199 319.5,104C 322.964,104.817 326.298,104.483 329.5,103C 330.848,101.426 331.514,99.5925 331.5,97.5C 326.41,83.2422 316.743,73.4089 302.5,68C 291.505,65.0007 280.505,62.0007 269.5,59C 272.791,54.2522 275.958,49.4188 279,44.5C 279.667,40.8333 279.667,37.1667 279,33.5C 277.334,31.0043 275.5,28.671 273.5,26.5C 279.663,24.3761 285.996,23.0428 292.5,22.5C 302.374,24.2916 312.374,26.125 322.5,28C 330.677,32.1604 336.177,38.6604 339,47.5C 342.174,65.4015 344.174,83.4015 345,101.5C 343.339,108.983 339.506,115.15 333.5,120C 313.833,129.667 294.167,139.333 274.5,149C 272.833,151.333 271.167,153.667 269.5,156C 270.5,156.667 271.5,156.667 272.5,156C 299.301,143.93 326.301,132.43 353.5,121.5C 356.5,120.833 359.5,120.167 362.5,119.5C 364.191,122.645 364.691,125.979 364,129.5C 355.333,145.5 346.667,161.5 338,177.5C 332.071,193.88 327.071,210.547 323,227.5C 315.5,248.333 301.333,262.5 280.5,270C 273.118,272.506 265.785,274.673 258.5,276.5C 255.5,276.5 252.5,276.5 249.5,276.5C 211.786,279.403 184.62,264.07 168,230.5C 163.18,214.89 158.514,199.224 154,183.5C 146.442,168.048 138.108,153.048 129,138.5C 124.252,132.387 124.418,126.554 129.5,121C 132.133,119.5 134.8,119.333 137.5,120.5C 137.833,119.667 138.167,118.833 138.5,118C 134.996,103.98 132.329,89.8135 130.5,75.5C 131.153,56.3495 139.82,42.1829 156.5,33C 177.732,22.217 199.066,11.717 220.5,1.5 Z"/></g>
<g><path style="opacity:1" fill="#fd4755" d="M 353.5,121.5 C 326.301,132.43 299.301,143.93 272.5,156C 271.5,156.667 270.5,156.667 269.5,156C 271.167,153.667 272.833,151.333 274.5,149C 294.167,139.333 313.833,129.667 333.5,120C 339.506,115.15 343.339,108.983 345,101.5C 344.174,83.4015 342.174,65.4015 339,47.5C 336.177,38.6604 330.677,32.1604 322.5,28C 312.374,26.125 302.374,24.2916 292.5,22.5C 298.319,21.3475 304.319,21.1808 310.5,22C 319.834,23.3334 329.168,24.6668 338.5,26C 349.238,29.0707 356.404,35.904 360,46.5C 362.618,62.9447 364.785,79.4447 366.5,96C 366.313,106.668 361.98,115.168 353.5,121.5 Z"/></g>
<g><path style="opacity:1" fill="#fd4755" d="M 210.5,58.5 C 197.751,62.2493 189.751,70.5827 186.5,83.5C 185.167,92.1667 185.167,100.833 186.5,109.5C 187.589,124.086 190.922,138.086 196.5,151.5C 187.975,147.321 179.475,142.987 171,138.5C 166.294,122.515 164.294,106.182 165,89.5C 169.797,63.8613 184.964,53.528 210.5,58.5 Z"/></g>
<g><path style="opacity:1" fill="#fc8a95" d="M 218.5,58.5 C 226.491,70.4861 232.324,83.4861 236,97.5C 240.625,101.646 244.959,101.313 249,96.5C 249.771,89.9106 248.771,83.5773 246,77.5C 243.412,71.3265 240.579,65.3265 237.5,59.5C 255.748,64.1163 264.414,75.9496 263.5,95C 262.943,103.846 262.276,112.68 261.5,121.5C 245.281,123.195 230.281,119.695 216.5,111C 209.167,105 201.833,99 194.5,93C 191.223,90.2337 188.557,87.067 186.5,83.5C 189.751,70.5827 197.751,62.2493 210.5,58.5C 213.167,57.1667 215.833,57.1667 218.5,58.5 Z"/></g>
<g><path style="opacity:1" fill="#fd4856" d="M 237.5,59.5 C 240.579,65.3265 243.412,71.3265 246,77.5C 248.771,83.5773 249.771,89.9106 249,96.5C 244.959,101.313 240.625,101.646 236,97.5C 232.324,83.4861 226.491,70.4861 218.5,58.5C 221.314,57.8353 224.314,57.502 227.5,57.5C 231.098,57.5906 234.431,58.2573 237.5,59.5 Z"/></g>
<g><path style="opacity:1" fill="#fd4755" d="M 223.5,-0.5 C 228.5,-0.5 233.5,-0.5 238.5,-0.5C 241.9,1.03697 245.233,2.8703 248.5,5C 257,12.0023 265.334,19.169 273.5,26.5C 275.5,28.671 277.334,31.0043 279,33.5C 279.667,37.1667 279.667,40.8333 279,44.5C 275.958,49.4188 272.791,54.2522 269.5,59C 280.505,62.0007 291.505,65.0007 302.5,68C 316.743,73.4089 326.41,83.2422 331.5,97.5C 331.514,99.5925 330.848,101.426 329.5,103C 326.298,104.483 322.964,104.817 319.5,104C 316.543,99.9199 313.71,95.7533 311,91.5C 302.923,84.1903 293.423,79.857 282.5,78.5C 275.977,65.2316 265.311,57.8982 250.5,56.5C 253.585,51.9998 256.418,47.3331 259,42.5C 259.912,38.5475 259.245,34.8809 257,31.5C 245.494,20.475 233.328,10.475 220.5,1.5C 221.5,0.833333 222.5,0.166667 223.5,-0.5 Z"/></g>
<g><path style="opacity:1" fill="#fc8a95" d="M 241.5,163.5 C 239.167,163.5 236.833,163.5 234.5,163.5C 220.629,163.201 207.962,159.201 196.5,151.5C 190.922,138.086 187.589,124.086 186.5,109.5C 186.351,108.448 186.517,107.448 187,106.5C 205.948,127.054 229.448,137.388 257.5,137.5C 255.208,148.092 249.875,156.759 241.5,163.5 Z"/></g>
<g><path style="opacity:1" fill="#fd4855" d="M 281.5,276.5 C 275.833,276.5 270.167,276.5 264.5,276.5C 262.5,276.5 260.5,276.5 258.5,276.5C 265.785,274.673 273.118,272.506 280.5,270C 301.333,262.5 315.5,248.333 323,227.5C 327.071,210.547 332.071,193.88 338,177.5C 346.667,161.5 355.333,145.5 364,129.5C 364.691,125.979 364.191,122.645 362.5,119.5C 368.425,118.014 374.425,117.514 380.5,118C 385.155,120.897 386.655,125.063 385,130.5C 376.333,146.5 367.667,162.5 359,178.5C 353.397,194.976 348.397,211.643 344,228.5C 332.027,255.966 311.194,271.966 281.5,276.5 Z"/></g>
<g><path style="opacity:1" fill="#fd4755" d="M 260.5,122.5 C 267.5,122.5 274.5,122.5 281.5,122.5C 280.628,127.527 279.628,132.527 278.5,137.5C 271.833,137.5 265.167,137.5 258.5,137.5C 258.908,132.463 259.574,127.463 260.5,122.5 Z"/></g>
<g><path style="opacity:1" fill="#fd4755" d="M 234.5,163.5 C 236.833,163.5 239.167,163.5 241.5,163.5C 249.038,163.02 256.371,161.853 263.5,160C 240.433,175.608 225.933,197.108 220,224.5C 214.465,230.118 209.798,229.451 206,222.5C 207.434,208.939 211.767,196.272 219,184.5C 223.688,177.114 228.855,170.114 234.5,163.5 Z"/></g>
<g><path style="opacity:0.979" fill="#6ed6a3" d="M 249.5,276.5 C 252.5,276.5 255.5,276.5 258.5,276.5C 260.5,276.5 262.5,276.5 264.5,276.5C 264.667,300.836 264.5,325.169 264,349.5C 261.675,372.154 253.675,392.487 240,410.5C 235.888,417.388 232.888,424.722 231,432.5C 229.717,456.459 229.05,480.459 229,504.5C 228.033,507.621 226.2,509.954 223.5,511.5C 221.833,511.5 220.167,511.5 218.5,511.5C 216.856,510.684 215.69,509.35 215,507.5C 214.5,486.836 214.333,466.169 214.5,445.5C 215.36,441.566 215.693,437.566 215.5,433.5C 217.382,424.01 220.215,414.677 224,405.5C 230.414,393.671 237.08,382.004 244,370.5C 247.773,361.196 249.606,351.529 249.5,341.5C 250.809,334.932 250.809,328.266 249.5,321.5C 249.5,306.5 249.5,291.5 249.5,276.5 Z"/></g>
<g><path style="opacity:1" fill="#3fc3a4" d="M 264.5,276.5 C 270.167,276.5 275.833,276.5 281.5,276.5C 281.5,297.833 281.5,319.167 281.5,340.5C 280.793,343.786 280.46,347.119 280.5,350.5C 279.539,367.339 274.706,383.006 266,397.5C 252.047,414.518 245.881,433.852 247.5,455.5C 246.252,458.738 245.585,462.238 245.5,466C 245.502,469.352 245.835,472.518 246.5,475.5C 246.666,485.839 246.5,496.172 246,506.5C 245.303,508.584 244.136,510.251 242.5,511.5C 236.167,511.5 229.833,511.5 223.5,511.5C 226.2,509.954 228.033,507.621 229,504.5C 229.05,480.459 229.717,456.459 231,432.5C 232.888,424.722 235.888,417.388 240,410.5C 253.675,392.487 261.675,372.154 264,349.5C 264.5,325.169 264.667,300.836 264.5,276.5 Z"/></g>
<g><path style="opacity:0.968" fill="#3ec3a3" d="M 249.5,321.5 C 250.809,328.266 250.809,334.932 249.5,341.5C 241.195,336.01 232.862,330.51 224.5,325C 220.323,320.046 220.657,315.38 225.5,311C 228.964,310.183 232.298,310.517 235.5,312C 240.048,315.388 244.714,318.555 249.5,321.5 Z"/></g>
<g><path style="opacity:0.99" fill="#6ed6a2" d="M 309.5,318.5 C 322.826,323.16 331.826,332.16 336.5,345.5C 332.318,359.015 323.651,368.348 310.5,373.5C 305.292,373.063 300.625,371.23 296.5,368C 290.567,362.567 285.233,356.734 280.5,350.5C 280.46,347.119 280.793,343.786 281.5,340.5C 285.895,334.597 290.895,329.097 296.5,324C 300.456,321.292 304.789,319.459 309.5,318.5 Z"/></g>
<g><path style="opacity:1" fill="#40c4a4" d="M 310.5,373.5 C 323.651,368.348 332.318,359.015 336.5,345.5C 331.826,332.16 322.826,323.16 309.5,318.5C 329.221,314.285 344.388,320.619 355,337.5C 358.73,344.595 358.064,351.261 353,357.5C 342.34,372 328.173,377.333 310.5,373.5 Z"/></g>
<g><path style="opacity:0.991" fill="#6ed6a3" d="M 167.5,411.5 C 173.022,413.265 178.022,416.098 182.5,420C 186,424.167 189.5,428.333 193,432.5C 195,436.5 195,440.5 193,444.5C 186.646,455.038 177.813,462.371 166.5,466.5C 152.15,462.15 142.817,452.817 138.5,438.5C 142.394,427.101 149.727,418.601 160.5,413C 162.74,412.023 165.073,411.523 167.5,411.5 Z"/></g>
<g><path style="opacity:1" fill="#40c3a4" d="M 215.5,433.5 C 215.693,437.566 215.36,441.566 214.5,445.5C 210.365,449.806 206.365,454.306 202.5,459C 198.391,462.388 193.725,464.721 188.5,466C 181.174,466.5 173.841,466.666 166.5,466.5C 177.813,462.371 186.646,455.038 193,444.5C 195,440.5 195,436.5 193,432.5C 189.5,428.333 186,424.167 182.5,420C 178.022,416.098 173.022,413.265 167.5,411.5C 179.252,408.925 190.252,410.758 200.5,417C 205.867,422.289 210.867,427.789 215.5,433.5 Z"/></g>
<g><path style="opacity:0.964" fill="#6ed6a3" d="M 246.5,475.5 C 245.835,472.518 245.502,469.352 245.5,466C 245.585,462.238 246.252,458.738 247.5,455.5C 253.308,452.26 259.308,449.593 265.5,447.5C 272.731,448.264 275.231,452.264 273,459.5C 264.388,465.222 255.555,470.555 246.5,475.5 Z"/></g>
</svg>
