<?xml version="1.0" encoding="UTF-8"?>
<!DOCTYPE svg PUBLIC "-//W3C//DTD SVG 1.1//EN" "http://www.w3.org/Graphics/SVG/1.1/DTD/svg11.dtd">
<svg xmlns="http://www.w3.org/2000/svg" version="1.1" width="512px" height="512px" style="shape-rendering:geometricPrecision; text-rendering:geometricPrecision; image-rendering:optimizeQuality; fill-rule:evenodd; clip-rule:evenodd" xmlns:xlink="http://www.w3.org/1999/xlink">
<g><path style="opacity:0.991" fill="#e9f5fe" d="M 332.5,-0.5 C 332.833,-0.5 333.167,-0.5 333.5,-0.5C 347.246,4.08158 356.079,13.4149 360,27.5C 357.836,58.4794 355.669,89.4794 353.5,120.5C 339.92,121.12 326.587,120.453 313.5,118.5C 313.677,114.766 313.344,111.099 312.5,107.5C 309.451,80.2433 307.617,52.9099 307,25.5C 311.017,12.3175 319.517,3.65084 332.5,-0.5 Z"/></g>
<g><path style="opacity:1" fill="#c8effd" d="M 333.5,-0.5 C 341.5,-0.5 349.5,-0.5 357.5,-0.5C 372.226,4.06885 380.726,14.0688 383,29.5C 381.335,55.1555 379.501,80.8222 377.5,106.5C 376.51,111.081 375.843,115.747 375.5,120.5C 368.167,120.5 360.833,120.5 353.5,120.5C 355.669,89.4794 357.836,58.4794 360,27.5C 356.079,13.4149 347.246,4.08158 333.5,-0.5 Z"/></g>
<g><path style="opacity:0.942" fill="#6ed7a3" d="M 248.5,52.5 C 256.684,52.5366 259.851,56.5366 258,64.5C 254.987,69.5352 250.82,70.7019 245.5,68C 239.936,61.533 240.936,56.3663 248.5,52.5 Z"/></g>
<g><path style="opacity:0.924" fill="#6fd7a3" d="M 436.5,52.5 C 445.841,53.0042 449.007,57.6708 446,66.5C 439.772,71.2321 434.772,70.2321 431,63.5C 430.176,58.4818 432.009,54.8152 436.5,52.5 Z"/></g>
<g><path style="opacity:0.994" fill="#9ae59d" d="M 107.5,58.5 C 122.892,75.5122 129.392,95.5122 127,118.5C 125.359,123.786 122.692,128.453 119,132.5C 121.053,118.763 116.553,107.597 105.5,99C 100.518,95.702 95.8515,92.202 91.5,88.5C 94.2426,77.0093 99.5759,67.0093 107.5,58.5 Z"/></g>
<g><path style="opacity:0.982" fill="#9be69d" d="M 389.5,119.5 C 384.897,120.383 380.23,120.717 375.5,120.5C 375.843,115.747 376.51,111.081 377.5,106.5C 387.298,97.2022 396.965,87.7022 406.5,78C 417.546,75.3817 421.379,79.5483 418,90.5C 408.298,100.035 398.798,109.702 389.5,119.5 Z"/></g>
<g><path style="opacity:0.958" fill="#9ee6a0" d="M 312.5,107.5 C 313.344,111.099 313.677,114.766 313.5,118.5C 313.5,119.833 312.833,120.5 311.5,120.5C 307.258,120.921 303.258,120.254 299.5,118.5C 290.202,109.702 281.035,100.702 272,91.5C 267.645,84.2123 269.478,79.2123 277.5,76.5C 279.197,76.8988 280.863,77.3988 282.5,78C 292.368,88.0355 302.368,97.8688 312.5,107.5 Z"/></g>
<g><path style="opacity:1" fill="#70d7a2" d="M 76.5,154.5 C 97.6101,142.059 101.777,125.393 89,104.5C 77.1578,93.1393 63.3245,85.4726 47.5,81.5C 49.0552,80.3673 50.8886,79.7006 53,79.5C 66.4027,80.2262 79.236,83.2262 91.5,88.5C 95.8515,92.202 100.518,95.702 105.5,99C 116.553,107.597 121.053,118.763 119,132.5C 122.692,128.453 125.359,123.786 127,118.5C 129.392,95.5122 122.892,75.5122 107.5,58.5C 109.628,55.8697 111.961,53.3697 114.5,51C 119.757,49.5739 124.257,50.7406 128,54.5C 145.456,73.5343 152.456,95.8676 149,121.5C 142.299,136.111 130.799,142.944 114.5,142C 104.709,155.438 92.042,159.605 76.5,154.5 Z"/></g>
<g><path style="opacity:0.993" fill="#9be69d" d="M 47.5,81.5 C 63.3245,85.4726 77.1578,93.1393 89,104.5C 101.777,125.393 97.6101,142.059 76.5,154.5C 70.3718,151.887 65.2052,147.887 61,142.5C 47.0227,125.085 41.5227,105.418 44.5,83.5C 45.3569,82.5748 46.3569,81.9081 47.5,81.5 Z"/></g>
<g><path style="opacity:0.986" fill="#e9f6fe" d="M 283.5,118.5 C 283.062,118.435 282.728,118.601 282.5,119C 286.667,120.5 289.5,123.333 291,127.5C 291.667,143.167 291.667,158.833 291,174.5C 290.036,178.468 287.869,181.635 284.5,184C 286.81,184.497 289.143,184.663 291.5,184.5C 270.01,186.764 248.343,188.764 226.5,190.5C 206.927,189.092 195.427,178.759 192,159.5C 188.791,140.091 195.624,125.591 212.5,116C 217.324,114.136 222.324,113.302 227.5,113.5C 246.357,114.737 265.023,116.404 283.5,118.5 Z"/></g>
<g><path style="opacity:0.992" fill="#e9f5fe" d="M 449.5,114.5 C 470.531,123.555 478.697,139.555 474,162.5C 470.507,175.823 462.34,184.823 449.5,189.5C 429.533,187.503 409.533,185.836 389.5,184.5C 384.888,183.704 380.221,183.037 375.5,182.5C 375.5,161.833 375.5,141.167 375.5,120.5C 380.23,120.717 384.897,120.383 389.5,119.5C 409.479,117.613 429.479,115.946 449.5,114.5 Z"/></g>
<g><path style="opacity:1" fill="#c9effe" d="M 449.5,189.5 C 462.34,184.823 470.507,175.823 474,162.5C 478.697,139.555 470.531,123.555 449.5,114.5C 463.11,111.2 475.443,113.7 486.5,122C 494.601,130.131 498.267,139.964 497.5,151.5C 498.26,172.234 488.594,185.068 468.5,190C 462.161,190.348 455.827,190.182 449.5,189.5 Z"/></g>
<g><path style="opacity:1" fill="#c8effd" d="M 283.5,118.5 C 289.043,118.757 294.376,118.757 299.5,118.5C 303.258,120.254 307.258,120.921 311.5,120.5C 313.47,140.934 314.137,161.601 313.5,182.5C 311.265,182.205 309.265,182.539 307.5,183.5C 304.763,183.401 302.096,183.735 299.5,184.5C 296.833,184.5 294.167,184.5 291.5,184.5C 289.143,184.663 286.81,184.497 284.5,184C 287.869,181.635 290.036,178.468 291,174.5C 291.667,158.833 291.667,143.167 291,127.5C 289.5,123.333 286.667,120.5 282.5,119C 282.728,118.601 283.062,118.435 283.5,118.5 Z"/></g>
<g><path style="opacity:1" fill="#6ed6a3" d="M 353.5,121.5 C 353.5,141.833 353.5,162.167 353.5,182.5C 340.5,182.5 327.5,182.5 314.5,182.5C 314.5,162.167 314.5,141.833 314.5,121.5C 327.5,121.5 340.5,121.5 353.5,121.5 Z"/></g>
<g><path style="opacity:1" fill="#3fc3a4" d="M 353.5,120.5 C 360.833,120.5 368.167,120.5 375.5,120.5C 375.5,141.167 375.5,161.833 375.5,182.5C 368.167,182.5 360.833,182.5 353.5,182.5C 353.5,162.167 353.5,141.833 353.5,121.5C 353.5,121.167 353.5,120.833 353.5,120.5 Z"/></g>
<g><path style="opacity:1" fill="#a1e4ce" d="M 313.5,118.5 C 326.587,120.453 339.92,121.12 353.5,120.5C 353.5,120.833 353.5,121.167 353.5,121.5C 340.5,121.5 327.5,121.5 314.5,121.5C 314.5,141.833 314.5,162.167 314.5,182.5C 314.672,183.492 314.338,184.158 313.5,184.5C 311.735,183.539 309.735,183.205 307.5,183.5C 309.265,182.539 311.265,182.205 313.5,182.5C 314.137,161.601 313.47,140.934 311.5,120.5C 312.833,120.5 313.5,119.833 313.5,118.5 Z"/></g>
<g><path style="opacity:1" fill="#99e59d" d="M 340.5,144.5 C 348.661,143.171 352.495,146.505 352,154.5C 348.108,160.259 343.441,160.926 338,156.5C 335.668,151.83 336.501,147.83 340.5,144.5 Z"/></g>
<g><path style="opacity:0.98" fill="#9be69d" d="M 307.5,183.5 C 309.735,183.205 311.735,183.539 313.5,184.5C 313.693,188.566 313.36,192.566 312.5,196.5C 302.702,205.798 293.035,215.298 283.5,225C 272.532,228.362 268.365,224.529 271,213.5C 280.702,203.965 290.202,194.298 299.5,184.5C 302.096,183.735 304.763,183.401 307.5,183.5 Z"/></g>
<g><path style="opacity:0.991" fill="#e9f5fe" d="M 314.5,182.5 C 327.5,182.5 340.5,182.5 353.5,182.5C 355.377,208.863 357.543,235.196 360,261.5C 362.521,282.813 353.687,296.813 333.5,303.5C 319.707,300.543 310.874,292.21 307,278.5C 307.507,251.082 309.34,223.748 312.5,196.5C 313.36,192.566 313.693,188.566 313.5,184.5C 314.338,184.158 314.672,183.492 314.5,182.5 Z"/></g>
<g><path style="opacity:1" fill="#c8effd" d="M 353.5,182.5 C 360.833,182.5 368.167,182.5 375.5,182.5C 375.781,187.755 376.781,192.755 378.5,197.5C 377.84,198.964 377.507,200.631 377.5,202.5C 379.473,225.004 381.473,247.504 383.5,270C 382.17,287.991 372.837,299.324 355.5,304C 347.988,304.822 340.655,304.655 333.5,303.5C 353.687,296.813 362.521,282.813 360,261.5C 357.543,235.196 355.377,208.863 353.5,182.5 Z"/></g>
<g><path style="opacity:0.956" fill="#9ee6a0" d="M 375.5,182.5 C 380.221,183.037 384.888,183.704 389.5,184.5C 398.798,194.298 408.298,203.965 418,213.5C 421.069,223.102 417.569,227.268 407.5,226C 397.328,216.995 387.661,207.495 378.5,197.5C 376.781,192.755 375.781,187.755 375.5,182.5 Z"/></g>
<g><path style="opacity:0.992" fill="#e9f5fe" d="M 155.5,207.5 C 176.165,214.749 184.665,229.416 181,251.5C 179.204,277.257 177.037,302.924 174.5,328.5C 161.5,328.5 148.5,328.5 135.5,328.5C 136.227,323.035 135.227,318.035 132.5,313.5C 133.16,312.036 133.493,310.369 133.5,308.5C 131.527,285.996 129.527,263.496 127.5,241C 128.732,222.944 138.065,211.777 155.5,207.5 Z"/></g>
<g><path style="opacity:1" fill="#c8effd" d="M 198.5,314.5 C 198.002,319.152 197.669,323.819 197.5,328.5C 197.167,328.5 196.833,328.5 196.5,328.5C 189.167,328.5 181.833,328.5 174.5,328.5C 177.037,302.924 179.204,277.257 181,251.5C 184.665,229.416 176.165,214.749 155.5,207.5C 172.014,203.17 186.181,207.17 198,219.5C 202.903,226.377 205.069,234.043 204.5,242.5C 202.94,266.552 200.94,290.552 198.5,314.5 Z"/></g>
<g><path style="opacity:0.955" fill="#6fd7a2" d="M 246.5,234.5 C 255.657,233.489 259.49,237.489 258,246.5C 253.947,251.008 249.28,251.674 244,248.5C 240.752,243.084 241.585,238.417 246.5,234.5 Z"/></g>
<g><path style="opacity:0.931" fill="#6ed7a3" d="M 435.5,234.5 C 444.161,233.329 447.994,236.996 447,245.5C 444.565,250.224 440.731,251.724 435.5,250C 431.139,247.774 429.639,244.274 431,239.5C 432.025,237.313 433.525,235.646 435.5,234.5 Z"/></g>
<g><path style="opacity:0.934" fill="#6ed7a3" d="M 67.5,260.5 C 79.5155,259.734 82.8488,264.568 77.5,275C 68.059,278.544 63.559,275.377 64,265.5C 64.9973,263.677 66.1639,262.01 67.5,260.5 Z"/></g>
<g><path style="opacity:0.938" fill="#6fd7a2" d="M 256.5,260.5 C 263.615,258.882 267.948,261.549 269.5,268.5C 267.945,275.615 263.612,278.115 256.5,276C 251.208,270.835 251.208,265.668 256.5,260.5 Z"/></g>
<g><path style="opacity:0.976" fill="#9ee6a0" d="M 132.5,313.5 C 135.227,318.035 136.227,323.035 135.5,328.5C 130.747,328.157 126.081,327.49 121.5,326.5C 112.202,316.702 102.702,307.035 93,297.5C 89.9314,287.898 93.4314,283.732 103.5,285C 113.672,294.005 123.339,303.505 132.5,313.5 Z"/></g>
<g><path style="opacity:0.981" fill="#9be69d" d="M 211.5,326.5 C 206.869,327.329 202.202,327.996 197.5,328.5C 197.669,323.819 198.002,319.152 198.5,314.5C 208.298,305.202 217.965,295.702 227.5,286C 238.468,282.638 242.635,286.471 240,297.5C 230.298,307.035 220.798,316.702 211.5,326.5 Z"/></g>
<g><path style="opacity:0.986" fill="#e9f6fe" d="M 102.5,325.5 C 107.816,327.318 111.316,330.984 113,336.5C 113.667,351.833 113.667,367.167 113,382.5C 111.221,386.612 108.388,389.778 104.5,392C 104.728,392.399 105.062,392.565 105.5,392.5C 86.8585,394.624 68.0252,396.29 49,397.5C 25.3151,395.98 13.4818,383.313 13.5,359.5C 12.3658,343.598 18.6992,331.765 32.5,324C 37.4761,321.964 42.6427,320.798 48,320.5C 66.2445,321.923 84.4112,323.589 102.5,325.5 Z"/></g>
<g><path style="opacity:0.992" fill="#e9f5fe" d="M 271.5,321.5 C 291.992,330.811 300.159,346.811 296,369.5C 292.489,382.84 284.322,391.84 271.5,396.5C 252.135,395.164 232.802,393.497 213.5,391.5C 212.584,391.543 211.917,391.876 211.5,392.5C 207.134,390.629 202.467,389.962 197.5,390.5C 197.5,369.833 197.5,349.167 197.5,328.5C 202.202,327.996 206.869,327.329 211.5,326.5C 231.525,325.073 251.525,323.407 271.5,321.5 Z"/></g>
<g><path style="opacity:1" fill="#c9effe" d="M 271.5,396.5 C 284.322,391.84 292.489,382.84 296,369.5C 300.159,346.811 291.992,330.811 271.5,321.5C 287.356,317.897 300.856,321.897 312,333.5C 320.355,347.798 321.688,362.798 316,378.5C 305.637,395.13 290.803,401.13 271.5,396.5 Z"/></g>
<g><path style="opacity:1" fill="#c7eefc" d="M 102.5,325.5 C 108.838,325.767 115.171,326.1 121.5,326.5C 126.081,327.49 130.747,328.157 135.5,328.5C 135.5,348.833 135.5,369.167 135.5,389.5C 148.5,389.5 161.5,389.5 174.5,389.5C 174.5,389.833 174.5,390.167 174.5,390.5C 161.5,390.5 148.5,390.5 135.5,390.5C 130.77,390.283 126.103,390.617 121.5,391.5C 116.195,392.194 110.862,392.528 105.5,392.5C 105.062,392.565 104.728,392.399 104.5,392C 108.388,389.778 111.221,386.612 113,382.5C 113.667,367.167 113.667,351.833 113,336.5C 111.316,330.984 107.816,327.318 102.5,325.5 Z"/></g>
<g><path style="opacity:1" fill="#6fd7a3" d="M 135.5,328.5 C 148.5,328.5 161.5,328.5 174.5,328.5C 174.5,337.833 174.5,347.167 174.5,356.5C 171.761,351.974 167.761,350.474 162.5,352C 157.167,356.667 157.167,361.333 162.5,366C 167.869,367.691 171.869,366.191 174.5,361.5C 174.5,370.833 174.5,380.167 174.5,389.5C 161.5,389.5 148.5,389.5 135.5,389.5C 135.5,369.167 135.5,348.833 135.5,328.5 Z"/></g>
<g><path style="opacity:1" fill="#3ec3a4" d="M 174.5,328.5 C 181.833,328.5 189.167,328.5 196.5,328.5C 196.5,348.833 196.5,369.167 196.5,389.5C 189.167,389.5 181.833,389.5 174.5,389.5C 174.5,380.167 174.5,370.833 174.5,361.5C 174.5,359.833 174.5,358.167 174.5,356.5C 174.5,347.167 174.5,337.833 174.5,328.5 Z"/></g>
<g><path style="opacity:1" fill="#6bd2b6" d="M 196.5,328.5 C 196.833,328.5 197.167,328.5 197.5,328.5C 197.5,349.167 197.5,369.833 197.5,390.5C 190.167,390.5 182.833,390.5 175.5,390.5C 175.167,390.5 174.833,390.5 174.5,390.5C 174.5,390.167 174.5,389.833 174.5,389.5C 181.833,389.5 189.167,389.5 196.5,389.5C 196.5,369.167 196.5,348.833 196.5,328.5 Z"/></g>
<g><path style="opacity:1" fill="#99e59d" d="M 174.5,356.5 C 174.5,358.167 174.5,359.833 174.5,361.5C 171.869,366.191 167.869,367.691 162.5,366C 157.167,361.333 157.167,356.667 162.5,352C 167.761,350.474 171.761,351.974 174.5,356.5 Z"/></g>
<g><path style="opacity:1" fill="#70d7a3" d="M 443.5,429.5 C 446.891,426.27 448.225,422.27 447.5,417.5C 446.358,399.226 440.192,382.892 429,368.5C 424.851,363.503 420.017,359.503 414.5,356.5C 424.057,353.329 433.39,354.162 442.5,359C 463.817,377.966 472.151,401.3 467.5,429C 465.134,430.233 462.634,431.066 460,431.5C 454.504,430.734 449.004,430.067 443.5,429.5 Z"/></g>
<g><path style="opacity:0.993" fill="#9ae59d" d="M 414.5,356.5 C 420.017,359.503 424.851,363.503 429,368.5C 440.192,382.892 446.358,399.226 447.5,417.5C 448.225,422.27 446.891,426.27 443.5,429.5C 436.021,427.562 428.688,425.229 421.5,422.5C 415.049,417.324 408.549,411.99 402,406.5C 400.122,423.909 393.622,439.242 382.5,452.5C 366.558,434.494 360.391,413.494 364,389.5C 367.514,380.149 374.014,374.149 383.5,371.5C 386.792,373.776 390.125,376.109 393.5,378.5C 395.664,376.178 397.331,373.511 398.5,370.5C 402.276,364.057 407.61,359.39 414.5,356.5 Z"/></g>
<g><path style="opacity:1" fill="#73d9a2" d="M 398.5,370.5 C 397.331,373.511 395.664,376.178 393.5,378.5C 390.125,376.109 386.792,373.776 383.5,371.5C 388.335,369.607 393.335,369.274 398.5,370.5 Z"/></g>
<g><path style="opacity:0.98" fill="#9be69d" d="M 135.5,390.5 C 134.963,395.221 134.296,399.888 133.5,404.5C 123.702,413.798 114.035,423.298 104.5,433C 93.4182,435.584 89.5849,431.417 93,420.5C 102.702,410.965 112.202,401.298 121.5,391.5C 126.103,390.617 130.77,390.283 135.5,390.5 Z"/></g>
<g><path style="opacity:0.991" fill="#e9f5fe" d="M 135.5,390.5 C 148.5,390.5 161.5,390.5 174.5,390.5C 174.833,390.5 175.167,390.5 175.5,390.5C 176.667,409.843 178.167,429.176 180,448.5C 181,460.491 181.333,472.491 181,484.5C 177.423,498.241 168.923,507.241 155.5,511.5C 154.833,511.5 154.167,511.5 153.5,511.5C 138.774,506.931 130.274,496.931 128,481.5C 129.665,455.844 131.499,430.178 133.5,404.5C 134.296,399.888 134.963,395.221 135.5,390.5 Z"/></g>
<g><path style="opacity:1" fill="#c8effd" d="M 175.5,390.5 C 182.833,390.5 190.167,390.5 197.5,390.5C 197.739,394.842 198.073,399.176 198.5,403.5C 201.569,430.755 203.402,458.089 204,485.5C 199.983,498.682 191.483,507.349 178.5,511.5C 170.833,511.5 163.167,511.5 155.5,511.5C 168.923,507.241 177.423,498.241 181,484.5C 181.333,472.491 181,460.491 180,448.5C 178.167,429.176 176.667,409.843 175.5,390.5 Z"/></g>
<g><path style="opacity:0.977" fill="#9ee6a0" d="M 197.5,390.5 C 202.467,389.962 207.134,390.629 211.5,392.5C 220.798,401.298 229.965,410.298 239,419.5C 243.355,426.788 241.522,431.788 233.5,434.5C 231.803,434.101 230.137,433.601 228.5,433C 218.632,422.964 208.632,413.131 198.5,403.5C 198.073,399.176 197.739,394.842 197.5,390.5 Z"/></g>
<g><path style="opacity:1" fill="#70d7a2" d="M 421.5,422.5 C 417.537,437.256 409.871,449.756 398.5,460C 390.946,462.055 385.613,459.555 382.5,452.5C 393.622,439.242 400.122,423.909 402,406.5C 408.549,411.99 415.049,417.324 421.5,422.5 Z"/></g>
<g><path style="opacity:0.927" fill="#6ed7a3" d="M 68.5,441.5 C 78.1944,440.902 81.6944,445.235 79,454.5C 73.1857,460.205 68.1857,459.538 64,452.5C 63.0831,447.732 64.5831,444.065 68.5,441.5 Z"/></g>
<g><path style="opacity:0.938" fill="#6ed7a3" d="M 257.5,441.5 C 264.148,440.654 268.148,443.487 269.5,450C 266.677,458.386 261.51,460.219 254,455.5C 251.267,449.722 252.434,445.056 257.5,441.5 Z"/></g>
</svg>
