<?xml version="1.0" encoding="UTF-8"?>
<!DOCTYPE svg PUBLIC "-//W3C//DTD SVG 1.1//EN" "http://www.w3.org/Graphics/SVG/1.1/DTD/svg11.dtd">
<svg xmlns="http://www.w3.org/2000/svg" version="1.1" width="512px" height="512px" style="shape-rendering:geometricPrecision; text-rendering:geometricPrecision; image-rendering:optimizeQuality; fill-rule:evenodd; clip-rule:evenodd" xmlns:xlink="http://www.w3.org/1999/xlink">
<g><path style="opacity:0.997" fill="#ffd05a" d="M 227.5,35.5 C 236.438,40.3047 245.438,45.138 254.5,50C 262.438,51.1975 270.438,51.8642 278.5,52C 297.536,57.7173 306.369,70.5506 305,90.5C 300.923,110.219 296.589,129.886 292,149.5C 285.135,161.922 277.301,173.589 268.5,184.5C 260.82,184.178 254.487,186.845 249.5,192.5C 248.395,193.6 247.062,194.267 245.5,194.5C 245.666,185.494 245.5,176.494 245,167.5C 240.748,161.347 236.081,161.014 231,166.5C 230.83,176.009 230.33,185.342 229.5,194.5C 226.379,192.552 223.379,190.385 220.5,188C 208.577,181.807 200.243,184.974 195.5,197.5C 184.412,181.657 173.078,165.99 161.5,150.5C 159.978,136.892 157.312,123.559 153.5,110.5C 150.438,99.6937 149.271,88.6937 150,77.5C 154.885,60.7965 166.052,51.7965 183.5,50.5C 189.598,51.6515 195.598,51.1515 201.5,49C 210.068,44.2169 218.734,39.7169 227.5,35.5 Z"/></g>
<g><path style="opacity:1" fill="#ffc344" d="M 322.5,111.5 C 318.846,124.096 316.18,137.096 314.5,150.5C 313.5,150.833 312.833,151.5 312.5,152.5C 303.53,164.987 294.696,177.654 286,190.5C 284.265,193.362 282.098,195.696 279.5,197.5C 278.314,190.987 274.648,186.654 268.5,184.5C 277.301,173.589 285.135,161.922 292,149.5C 296.589,129.886 300.923,110.219 305,90.5C 306.369,70.5506 297.536,57.7173 278.5,52C 270.438,51.8642 262.438,51.1975 254.5,50C 245.438,45.138 236.438,40.3047 227.5,35.5C 234.852,34.0838 242.185,34.2504 249.5,36C 257.959,40.0632 266.293,44.3965 274.5,49C 280.232,51.0969 286.065,51.5969 292,50.5C 309.965,51.7999 321.299,61.1333 326,78.5C 326.667,82.5 326.667,86.5 326,90.5C 324.637,97.4794 323.47,104.479 322.5,111.5 Z"/></g>
<g><path style="opacity:1" fill="#fe9739" d="M 153.5,110.5 C 157.312,123.559 159.978,136.892 161.5,150.5C 154.833,150.5 148.167,150.5 141.5,150.5C 139.44,141.264 137.606,131.931 136,122.5C 134.368,116.07 130.868,110.903 125.5,107C 108.833,96 92.1667,85 75.5,74C 72.9244,72.5437 70.2577,71.377 67.5,70.5C 75.4101,67.8055 83.4101,67.9722 91.5,71C 112.068,84.4169 132.735,97.5835 153.5,110.5 Z"/></g>
<g><path style="opacity:0.999" fill="#ffd05a" d="M 407.5,69.5 C 428.05,76.5617 440.217,90.8951 444,112.5C 445.934,116.759 448.268,120.759 451,124.5C 460.97,133.47 470.637,142.803 480,152.5C 487.641,163.701 490.308,176.035 488,189.5C 484.736,202.676 483.069,216.009 483,229.5C 485.628,237.087 487.962,244.753 490,252.5C 492.102,280.144 479.935,297.977 453.5,306C 426.825,310 400.159,313.667 373.5,317C 365.289,307.627 357.289,298.127 349.5,288.5C 359.495,279.339 368.995,269.672 378,259.5C 382.168,252.664 382.501,245.664 379,238.5C 372.665,230.667 366.165,223 359.5,215.5C 382.28,207.406 405.28,199.573 428.5,192C 434.653,187.748 434.986,183.081 429.5,178C 426.833,177.333 424.167,177.333 421.5,178C 400.248,184.973 379.081,192.139 358,199.5C 357.235,199.43 356.735,199.097 356.5,198.5C 358.153,190.733 359.486,182.9 360.5,175C 360.55,166.099 356.55,159.765 348.5,156C 337.165,154.13 325.831,152.296 314.5,150.5C 316.18,137.096 318.846,124.096 322.5,111.5C 347.649,98.0911 372.983,84.9244 398.5,72C 401.432,70.8551 404.432,70.0218 407.5,69.5 Z"/></g>
<g><path style="opacity:0.995" fill="#fea85b" d="M 67.5,70.5 C 70.2577,71.377 72.9244,72.5437 75.5,74C 92.1667,85 108.833,96 125.5,107C 130.868,110.903 134.368,116.07 136,122.5C 137.606,131.931 139.44,141.264 141.5,150.5C 140.209,150.263 139.209,150.596 138.5,151.5C 138.167,151.5 137.833,151.5 137.5,151.5C 124.243,147.739 112.743,150.739 103,160.5C 100.356,164.122 98.5228,168.122 97.5,172.5C 89.543,168.57 81.543,164.737 73.5,161C 65.8393,160.33 62.6727,163.83 64,171.5C 64.4652,172.931 65.2986,174.097 66.5,175C 76.653,179.577 86.653,184.41 96.5,189.5C 93.1929,196.472 88.6929,202.472 83,207.5C 78.3723,216.564 78.3723,225.564 83,234.5C 83.8249,236.701 83.3249,238.534 81.5,240C 74.1197,241.005 66.7863,242.172 59.5,243.5C 44.3664,240.884 29.6997,236.717 15.5,231C 3.28586,221.363 -1.21414,208.863 2,193.5C 5.32791,187.183 7.66124,180.516 9,173.5C 7.96585,161.875 7.63252,150.208 8,138.5C 9.73504,131.861 12.9017,126.028 17.5,121C 25.9168,115.254 33.7501,108.754 41,101.5C 44.3333,94.8333 47.6667,88.1667 51,81.5C 55.3139,75.935 60.8139,72.2683 67.5,70.5 Z"/></g>
<g><path style="opacity:1" fill="#ffc344" d="M 234.5,95.5 C 238.803,94.7962 242.303,96.1295 245,99.5C 245.667,111.833 245.667,124.167 245,136.5C 240.748,142.653 236.081,142.986 231,137.5C 230.333,124.833 230.333,112.167 231,99.5C 232.376,98.2949 233.542,96.9616 234.5,95.5 Z"/></g>
<g><path style="opacity:1" fill="#fe9739" d="M 137.5,151.5 C 122.048,157.5 115.548,168.834 118,185.5C 117.489,187.878 116.822,190.212 116,192.5C 111.333,198.5 106.667,204.5 102,210.5C 98.197,220.963 99.697,230.63 106.5,239.5C 101.288,240.492 95.9542,241.492 90.5,242.5C 81.81,243.313 73.1434,244.313 64.5,245.5C 62.6943,244.976 61.0276,244.309 59.5,243.5C 66.7863,242.172 74.1197,241.005 81.5,240C 83.3249,238.534 83.8249,236.701 83,234.5C 78.3723,225.564 78.3723,216.564 83,207.5C 88.6929,202.472 93.1929,196.472 96.5,189.5C 86.653,184.41 76.653,179.577 66.5,175C 65.2986,174.097 64.4652,172.931 64,171.5C 62.6727,163.83 65.8393,160.33 73.5,161C 81.543,164.737 89.543,168.57 97.5,172.5C 98.5228,168.122 100.356,164.122 103,160.5C 112.743,150.739 124.243,147.739 137.5,151.5 Z"/></g>
<g><path style="opacity:1" fill="#ffe9d8" d="M 137.5,151.5 C 137.833,151.5 138.167,151.5 138.5,151.5C 140.144,151.286 141.644,151.62 143,152.5C 151.247,163.993 159.247,175.66 167,187.5C 167.815,197.832 168.148,208.165 168,218.5C 167,220.5 166,222.5 165,224.5C 159.193,228.32 153.027,231.487 146.5,234C 140.698,239.018 139.031,245.184 141.5,252.5C 134.167,252.5 126.833,252.5 119.5,252.5C 115.5,247.833 111.167,243.5 106.5,239.5C 99.697,230.63 98.197,220.963 102,210.5C 106.667,204.5 111.333,198.5 116,192.5C 116.822,190.212 117.489,187.878 118,185.5C 115.548,168.834 122.048,157.5 137.5,151.5 Z"/></g>
<g><path style="opacity:1" fill="#fedaa5" d="M 138.5,151.5 C 139.209,150.596 140.209,150.263 141.5,150.5C 148.167,150.5 154.833,150.5 161.5,150.5C 173.078,165.99 184.412,181.657 195.5,197.5C 197.053,204.421 197.553,211.421 197,218.5C 195.6,221.902 193.433,224.736 190.5,227C 183.126,229.434 176.626,233.267 171,238.5C 168.297,242.923 167.797,247.589 169.5,252.5C 160.167,252.5 150.833,252.5 141.5,252.5C 139.031,245.184 140.698,239.018 146.5,234C 153.027,231.487 159.193,228.32 165,224.5C 166,222.5 167,220.5 168,218.5C 168.148,208.165 167.815,197.832 167,187.5C 159.247,175.66 151.247,163.993 143,152.5C 141.644,151.62 140.144,151.286 138.5,151.5 Z"/></g>
<g><path style="opacity:1" fill="#fe9738" d="M 314.5,150.5 C 325.831,152.296 337.165,154.13 348.5,156C 356.55,159.765 360.55,166.099 360.5,175C 359.486,182.9 358.153,190.733 356.5,198.5C 354.681,204.611 355.681,210.277 359.5,215.5C 366.165,223 372.665,230.667 379,238.5C 382.501,245.664 382.168,252.664 378,259.5C 368.995,269.672 359.495,279.339 349.5,288.5C 344.608,287.054 339.941,285.054 335.5,282.5C 342.828,275.004 349.995,267.338 357,259.5C 361.667,251.833 361.667,244.167 357,236.5C 348.531,228.37 341.198,219.37 335,209.5C 334.333,206.167 334.333,202.833 335,199.5C 337.339,191.15 338.839,182.65 339.5,174C 339.553,167.365 336.886,162.032 331.5,158C 325.155,155.754 318.821,153.921 312.5,152.5C 312.833,151.5 313.5,150.833 314.5,150.5 Z"/></g>
<g><path style="opacity:1" fill="#fea85b" d="M 312.5,152.5 C 318.821,153.921 325.155,155.754 331.5,158C 336.886,162.032 339.553,167.365 339.5,174C 338.839,182.65 337.339,191.15 335,199.5C 334.333,202.833 334.333,206.167 335,209.5C 341.198,219.37 348.531,228.37 357,236.5C 361.667,244.167 361.667,251.833 357,259.5C 349.995,267.338 342.828,275.004 335.5,282.5C 321.646,276.072 307.979,269.405 294.5,262.5C 300.506,259.993 304.673,255.659 307,249.5C 307.96,243.053 305.793,237.886 300.5,234C 295.62,231.393 290.62,229.06 285.5,227C 280.625,223.416 278.292,218.583 278.5,212.5C 278.951,208.463 279.617,204.463 280.5,200.5C 280.315,199.416 279.982,198.416 279.5,197.5C 282.098,195.696 284.265,193.362 286,190.5C 294.696,177.654 303.53,164.987 312.5,152.5 Z"/></g>
<g><path style="opacity:1" fill="#ffc244" d="M 245.5,194.5 C 243.668,196.894 241.168,197.894 238,197.5C 234.642,197.727 231.809,196.727 229.5,194.5C 230.33,185.342 230.83,176.009 231,166.5C 236.081,161.014 240.748,161.347 245,167.5C 245.5,176.494 245.666,185.494 245.5,194.5 Z"/></g>
<g><path style="opacity:1" fill="#ffc344" d="M 359.5,215.5 C 355.681,210.277 354.681,204.611 356.5,198.5C 356.735,199.097 357.235,199.43 358,199.5C 379.081,192.139 400.248,184.973 421.5,178C 424.167,177.333 426.833,177.333 429.5,178C 434.986,183.081 434.653,187.748 428.5,192C 405.28,199.573 382.28,207.406 359.5,215.5 Z"/></g>
<g><path style="opacity:1" fill="#fe646e" d="M 229.5,194.5 C 231.809,196.727 234.642,197.727 238,197.5C 241.168,197.894 243.668,196.894 245.5,194.5C 247.062,194.267 248.395,193.6 249.5,192.5C 250.665,194.835 251.332,197.335 251.5,200C 250.704,204.314 250.037,208.648 249.5,213C 249.436,218.872 251.769,223.538 256.5,227C 263.874,229.434 270.374,233.267 276,238.5C 280.112,246.511 278.612,253.344 271.5,259C 266.62,261.607 261.62,263.94 256.5,266C 252.205,269.092 249.871,273.259 249.5,278.5C 250.12,283.34 250.787,288.173 251.5,293C 251.332,295.665 250.665,298.165 249.5,300.5C 244.154,295.883 238.154,294.716 231.5,297C 228.471,299.176 225.471,301.343 222.5,303.5C 215.904,309.064 208.904,309.73 201.5,305.5C 200.5,303.833 199.167,302.5 197.5,301.5C 196.231,294.019 196.231,286.519 197.5,279C 197.277,273.555 194.943,269.221 190.5,266C 185.5,263.667 180.5,261.333 175.5,259C 173.627,257.296 171.96,255.463 170.5,253.5C 170.5,252.833 170.167,252.5 169.5,252.5C 167.797,247.589 168.297,242.923 171,238.5C 176.626,233.267 183.126,229.434 190.5,227C 193.433,224.736 195.6,221.902 197,218.5C 197.553,211.421 197.053,204.421 195.5,197.5C 200.243,184.974 208.577,181.807 220.5,188C 223.379,190.385 226.379,192.552 229.5,194.5 Z"/></g>
<g><path style="opacity:1" fill="#fd4855" d="M 268.5,184.5 C 274.648,186.654 278.314,190.987 279.5,197.5C 279.982,198.416 280.315,199.416 280.5,200.5C 279.617,204.463 278.951,208.463 278.5,212.5C 278.292,218.583 280.625,223.416 285.5,227C 290.62,229.06 295.62,231.393 300.5,234C 305.793,237.886 307.96,243.053 307,249.5C 304.673,255.659 300.506,259.993 294.5,262.5C 290.701,263.421 287.368,265.088 284.5,267.5C 280.845,269.969 278.845,273.469 278.5,278C 279.818,285.857 279.818,293.69 278.5,301.5C 275.164,305.668 270.831,308.001 265.5,308.5C 259.057,307.945 253.723,305.278 249.5,300.5C 250.665,298.165 251.332,295.665 251.5,293C 250.787,288.173 250.12,283.34 249.5,278.5C 249.871,273.259 252.205,269.092 256.5,266C 261.62,263.94 266.62,261.607 271.5,259C 278.612,253.344 280.112,246.511 276,238.5C 270.374,233.267 263.874,229.434 256.5,227C 251.769,223.538 249.436,218.872 249.5,213C 250.037,208.648 250.704,204.314 251.5,200C 251.332,197.335 250.665,194.835 249.5,192.5C 254.487,186.845 260.82,184.178 268.5,184.5 Z"/></g>
<g><path style="opacity:1" fill="#fd4755" d="M 234.5,236.5 C 242.656,235.821 246.156,239.488 245,247.5C 241.339,251.976 237.006,252.643 232,249.5C 229.467,244.351 230.3,240.018 234.5,236.5 Z"/></g>
<g><path style="opacity:1" fill="#ffc244" d="M 106.5,239.5 C 111.167,243.5 115.5,247.833 119.5,252.5C 112.106,262.937 104.939,273.604 98,284.5C 94.3603,296.916 97.8603,306.75 108.5,314C 116.833,317 125.167,320 133.5,323C 141.612,327.054 146.445,333.554 148,342.5C 148.497,351.976 149.83,361.309 152,370.5C 154.691,375.689 158.524,379.689 163.5,382.5C 149.113,386.885 138.279,382.552 131,369.5C 129.908,364.86 128.908,360.193 128,355.5C 116.167,364 104.333,372.5 92.5,381C 85.1786,381.343 82.0119,377.843 83,370.5C 83.8333,369.5 84.6667,368.5 85.5,367.5C 99.3187,357.832 112.652,347.666 125.5,337C 123.669,332.163 120.669,328.163 116.5,325C 108.319,321.606 99.9857,318.606 91.5,316C 78.1959,309.428 73.3626,298.928 77,284.5C 83.0873,275.325 89.4207,266.325 96,257.5C 96.6667,254.833 96.6667,252.167 96,249.5C 94.3335,247.004 92.5002,244.671 90.5,242.5C 95.9542,241.492 101.288,240.492 106.5,239.5 Z"/></g>
<g><path style="opacity:0.994" fill="#ffd05a" d="M 90.5,242.5 C 92.5002,244.671 94.3335,247.004 96,249.5C 96.6667,252.167 96.6667,254.833 96,257.5C 89.4207,266.325 83.0873,275.325 77,284.5C 73.3626,298.928 78.1959,309.428 91.5,316C 99.9857,318.606 108.319,321.606 116.5,325C 120.669,328.163 123.669,332.163 125.5,337C 112.652,347.666 99.3187,357.832 85.5,367.5C 84.6667,368.5 83.8333,369.5 83,370.5C 82.0119,377.843 85.1786,381.343 92.5,381C 104.333,372.5 116.167,364 128,355.5C 128.908,360.193 129.908,364.86 131,369.5C 138.279,382.552 149.113,386.885 163.5,382.5C 163.833,382.5 164.167,382.5 164.5,382.5C 168.998,384.277 173.665,384.777 178.5,384C 185.283,381.109 191.95,377.942 198.5,374.5C 199.75,374.577 200.583,375.244 201,376.5C 205.392,385.725 207.058,395.392 206,405.5C 204.941,408.618 203.608,411.618 202,414.5C 187.203,431.632 172.037,448.465 156.5,465C 150.466,469.849 143.799,473.349 136.5,475.5C 122.842,472.749 112.342,465.416 105,453.5C 101.443,449.975 97.6097,446.809 93.5,444C 82.2448,439.47 70.9115,435.137 59.5,431C 47.4726,425.118 38.9726,415.951 34,403.5C 31.1715,390.019 27.8382,376.686 24,363.5C 22.4138,361.33 21.0804,358.996 20,356.5C 15.3333,351.167 10.6667,345.833 6,340.5C 3.31074,335.24 1.14407,329.906 -0.5,324.5C -0.5,318.167 -0.5,311.833 -0.5,305.5C 2.39211,294.742 8.05878,285.575 16.5,278C 32.7387,267.391 48.7387,256.558 64.5,245.5C 73.1434,244.313 81.81,243.313 90.5,242.5 Z"/></g>
<g><path style="opacity:1" fill="#fea85b" d="M 119.5,252.5 C 126.833,252.5 134.167,252.5 141.5,252.5C 150.833,252.5 160.167,252.5 169.5,252.5C 170.167,252.5 170.5,252.833 170.5,253.5C 161.143,253.168 151.81,253.502 142.5,254.5C 143.648,256.149 144.981,257.649 146.5,259C 151.5,261.333 156.5,263.667 161.5,266C 166.781,269.311 169.114,274.144 168.5,280.5C 167.667,286.491 167.5,292.491 168,298.5C 171.506,306.015 177.339,309.182 185.5,308C 189.64,306.011 193.64,303.844 197.5,301.5C 199.167,302.5 200.5,303.833 201.5,305.5C 200.458,323.256 198.624,340.923 196,358.5C 194.262,362.241 191.762,365.408 188.5,368C 180.833,372.167 173.167,376.333 165.5,380.5C 164.702,380.957 164.369,381.624 164.5,382.5C 164.167,382.5 163.833,382.5 163.5,382.5C 158.524,379.689 154.691,375.689 152,370.5C 149.83,361.309 148.497,351.976 148,342.5C 146.445,333.554 141.612,327.054 133.5,323C 125.167,320 116.833,317 108.5,314C 97.8603,306.75 94.3603,296.916 98,284.5C 104.939,273.604 112.106,262.937 119.5,252.5 Z"/></g>
<g><path style="opacity:1" fill="#fe9638" d="M 170.5,253.5 C 171.96,255.463 173.627,257.296 175.5,259C 180.5,261.333 185.5,263.667 190.5,266C 194.943,269.221 197.277,273.555 197.5,279C 196.231,286.519 196.231,294.019 197.5,301.5C 193.64,303.844 189.64,306.011 185.5,308C 177.339,309.182 171.506,306.015 168,298.5C 167.5,292.491 167.667,286.491 168.5,280.5C 169.114,274.144 166.781,269.311 161.5,266C 156.5,263.667 151.5,261.333 146.5,259C 144.981,257.649 143.648,256.149 142.5,254.5C 151.81,253.502 161.143,253.168 170.5,253.5 Z"/></g>
<g><path style="opacity:1" fill="#ffc344" d="M 511.5,250.5 C 511.5,256.833 511.5,263.167 511.5,269.5C 507.539,285.641 497.872,297.141 482.5,304C 447.929,310.344 413.262,316.177 378.5,321.5C 382.478,326.646 386.645,331.646 391,336.5C 399.902,351.85 398.902,366.517 388,380.5C 383.418,384.545 378.251,387.711 372.5,390C 369.72,391.812 367.22,393.979 365,396.5C 359.225,405.94 353.058,415.106 346.5,424C 342.391,427.388 337.725,429.721 332.5,431C 320.478,431.92 308.478,432.92 296.5,434C 290.5,437 284.5,440 278.5,443C 271.864,444.77 265.198,444.937 258.5,443.5C 263.904,439.287 269.904,435.787 276.5,433C 287.109,431.763 297.775,431.097 308.5,431C 317.394,429.767 324.56,425.6 330,418.5C 335.149,408.367 341.649,399.201 349.5,391C 372.96,381.249 380.46,364.416 372,340.5C 357.874,323.372 343.374,306.538 328.5,290C 313.929,282.215 299.262,274.715 284.5,267.5C 287.368,265.088 290.701,263.421 294.5,262.5C 307.979,269.405 321.646,276.072 335.5,282.5C 339.941,285.054 344.608,287.054 349.5,288.5C 357.289,298.127 365.289,307.627 373.5,317C 400.159,313.667 426.825,310 453.5,306C 479.935,297.977 492.102,280.144 490,252.5C 487.962,244.753 485.628,237.087 483,229.5C 483.069,216.009 484.736,202.676 488,189.5C 490.308,176.035 487.641,163.701 480,152.5C 470.637,142.803 460.97,133.47 451,124.5C 448.268,120.759 445.934,116.759 444,112.5C 440.217,90.8951 428.05,76.5617 407.5,69.5C 429.1,66.0531 445.933,73.3864 458,91.5C 461.252,97.8361 463.585,104.503 465,111.5C 466.746,115.327 468.746,118.993 471,122.5C 480.363,132.197 490.03,141.53 500,150.5C 506.6,159.376 510.1,169.376 510.5,180.5C 509.207,191.257 507.374,201.924 505,212.5C 504.333,218.833 504.333,225.167 505,231.5C 507.1,237.968 509.266,244.302 511.5,250.5 Z"/></g>
<g><path style="opacity:0.999" fill="#ffd05a" d="M 284.5,267.5 C 299.262,274.715 313.929,282.215 328.5,290C 343.374,306.538 357.874,323.372 372,340.5C 380.46,364.416 372.96,381.249 349.5,391C 341.649,399.201 335.149,408.367 330,418.5C 324.56,425.6 317.394,429.767 308.5,431C 297.775,431.097 287.109,431.763 276.5,433C 269.904,435.787 263.904,439.287 258.5,443.5C 251.601,441.128 245.768,437.128 241,431.5C 236.609,423.805 233.109,415.805 230.5,407.5C 230.662,405.473 230.495,403.473 230,401.5C 225.727,388.847 221.56,376.18 217.5,363.5C 219.472,343.525 221.139,323.525 222.5,303.5C 225.471,301.343 228.471,299.176 231.5,297C 238.154,294.716 244.154,295.883 249.5,300.5C 253.723,305.278 259.057,307.945 265.5,308.5C 274.385,326.603 283.552,344.603 293,362.5C 297.625,366.646 301.959,366.313 306,361.5C 306.667,358.833 306.667,356.167 306,353.5C 297.059,335.947 287.892,318.614 278.5,301.5C 279.818,293.69 279.818,285.857 278.5,278C 278.845,273.469 280.845,269.969 284.5,267.5 Z"/></g>
<g><path style="opacity:1" fill="#ffc344" d="M 278.5,301.5 C 287.892,318.614 297.059,335.947 306,353.5C 306.667,356.167 306.667,358.833 306,361.5C 301.959,366.313 297.625,366.646 293,362.5C 283.552,344.603 274.385,326.603 265.5,308.5C 270.831,308.001 275.164,305.668 278.5,301.5 Z"/></g>
<g><path style="opacity:1" fill="#fe9738" d="M 222.5,303.5 C 221.139,323.525 219.472,343.525 217.5,363.5C 210.968,366.929 204.634,370.596 198.5,374.5C 191.95,377.942 185.283,381.109 178.5,384C 173.665,384.777 168.998,384.277 164.5,382.5C 164.369,381.624 164.702,380.957 165.5,380.5C 173.167,376.333 180.833,372.167 188.5,368C 191.762,365.408 194.262,362.241 196,358.5C 198.624,340.923 200.458,323.256 201.5,305.5C 208.904,309.73 215.904,309.064 222.5,303.5 Z"/></g>
<g><path style="opacity:1" fill="#ffc344" d="M 217.5,363.5 C 221.56,376.18 225.727,388.847 230,401.5C 230.495,403.473 230.662,405.473 230.5,407.5C 212.039,427.797 193.372,447.963 174.5,468C 162.776,475.937 150.109,478.437 136.5,475.5C 143.799,473.349 150.466,469.849 156.5,465C 172.037,448.465 187.203,431.632 202,414.5C 203.608,411.618 204.941,408.618 206,405.5C 207.058,395.392 205.392,385.725 201,376.5C 200.583,375.244 199.75,374.577 198.5,374.5C 204.634,370.596 210.968,366.929 217.5,363.5 Z"/></g>
</svg>
