<?xml version="1.0" encoding="UTF-8"?>
<!DOCTYPE svg PUBLIC "-//W3C//DTD SVG 1.1//EN" "http://www.w3.org/Graphics/SVG/1.1/DTD/svg11.dtd">
<svg xmlns="http://www.w3.org/2000/svg" version="1.1" width="512px" height="512px" style="shape-rendering:geometricPrecision; text-rendering:geometricPrecision; image-rendering:optimizeQuality; fill-rule:evenodd; clip-rule:evenodd" xmlns:xlink="http://www.w3.org/1999/xlink">
<g><path style="opacity:0.996" fill="#c8effd" d="M 247.5,-0.5 C 252.833,-0.5 258.167,-0.5 263.5,-0.5C 275.577,3.61793 283.077,11.9513 286,24.5C 293.864,9.65376 306.03,4.15376 322.5,8C 333.163,11.4947 339.83,18.6614 342.5,29.5C 337.808,29.8405 333.474,31.3405 329.5,34C 325.701,36.7969 322.201,39.9636 319,43.5C 308.44,55.3979 299.44,68.3979 292,82.5C 291,85.1667 290,87.8333 289,90.5C 287.332,108.684 285.498,126.851 283.5,145C 283.508,146.707 283.842,148.207 284.5,149.5C 283.89,150.391 283.557,151.391 283.5,152.5C 276.282,150.755 268.949,149.755 261.5,149.5C 263.155,125.462 265.322,101.462 268,77.5C 268.545,57.076 265.879,37.076 260,17.5C 257.291,9.72159 252.125,4.38825 244.5,1.5C 245.5,0.833333 246.5,0.166667 247.5,-0.5 Z"/></g>
<g><path style="opacity:0.998" fill="#e9f5fe" d="M 244.5,1.5 C 252.125,4.38825 257.291,9.72159 260,17.5C 265.879,37.076 268.545,57.076 268,77.5C 265.322,101.462 263.155,125.462 261.5,149.5C 256.5,149.5 251.5,149.5 246.5,149.5C 240.416,150.064 234.416,151.064 228.5,152.5C 225.656,123.69 222.989,94.8562 220.5,66C 221.325,53.709 222.992,41.5423 225.5,29.5C 225.585,15.7754 231.918,6.44211 244.5,1.5 Z"/></g>
<g><path style="opacity:1" fill="#9ae6fb" d="M 210.5,11.5 C 217.705,15.7017 222.705,21.7017 225.5,29.5C 222.992,41.5423 221.325,53.709 220.5,66C 222.989,94.8562 225.656,123.69 228.5,152.5C 209.879,157.973 193.546,167.306 179.5,180.5C 175.354,177.922 171.354,175.089 167.5,172C 175.672,165.183 184.838,160.016 195,156.5C 197.654,157.821 199.654,159.821 201,162.5C 200.096,159.974 199.762,157.308 200,154.5C 202.598,153.32 204.264,151.32 205,148.5C 202.948,120.853 200.781,93.186 198.5,65.5C 199.176,48.7776 202.009,32.4442 207,16.5C 208.03,14.6536 209.196,12.9869 210.5,11.5 Z"/></g>
<g><path style="opacity:0.99" fill="#e9f5fe" d="M 165.5,40.5 C 167.046,54.9111 169.213,69.2445 172,83.5C 180.942,107.497 189.776,131.497 198.5,155.5C 195.386,154.909 192.886,153.242 191,150.5C 175.665,130.684 159.498,111.518 142.5,93C 132.337,85.9878 122.671,78.4878 113.5,70.5C 109.206,54.5385 113.873,42.0385 127.5,33C 141.895,26.9337 154.562,29.4337 165.5,40.5 Z"/></g>
<g><path style="opacity:1" fill="#9ae6fc" d="M 342.5,29.5 C 343.414,32.728 343.747,36.0613 343.5,39.5C 343.291,40.9217 342.791,42.255 342,43.5C 334.093,52.9846 326.426,62.6513 319,72.5C 306.939,97.9517 295.439,123.618 284.5,149.5C 283.842,148.207 283.508,146.707 283.5,145C 285.498,126.851 287.332,108.684 289,90.5C 290,87.8333 291,85.1667 292,82.5C 299.44,68.3979 308.44,55.3979 319,43.5C 322.201,39.9636 325.701,36.7969 329.5,34C 333.474,31.3405 337.808,29.8405 342.5,29.5 Z"/></g>
<g><path style="opacity:0.999" fill="#c8effd" d="M 405.5,67.5 C 425.173,78.9667 429.006,94.6334 417,114.5C 407.385,129.198 396.218,142.698 383.5,155C 368.977,166.698 354.644,178.531 340.5,190.5C 333.133,182.132 325.133,174.465 316.5,167.5C 329.836,148.656 343.003,129.656 356,110.5C 364.973,93.5799 371.139,75.7466 374.5,57C 374.624,51.3717 373.124,46.2051 370,41.5C 366.181,36.8329 361.681,33.1663 356.5,30.5C 377.35,25.3392 390.85,33.0059 397,53.5C 397.942,59.7438 397.109,65.7438 394.5,71.5C 394.833,71.8333 395.167,72.1667 395.5,72.5C 398.404,69.9187 401.737,68.252 405.5,67.5 Z"/></g>
<g><path style="opacity:0.999" fill="#e9f5fe" d="M 356.5,30.5 C 361.681,33.1663 366.181,36.8329 370,41.5C 373.124,46.2051 374.624,51.3717 374.5,57C 371.139,75.7466 364.973,93.5799 356,110.5C 343.003,129.656 329.836,148.656 316.5,167.5C 306.152,161.161 295.152,156.161 283.5,152.5C 283.557,151.391 283.89,150.391 284.5,149.5C 295.439,123.618 306.939,97.9517 319,72.5C 326.426,62.6513 334.093,52.9846 342,43.5C 342.791,42.255 343.291,40.9217 343.5,39.5C 347.007,35.3301 351.34,32.3301 356.5,30.5 Z"/></g>
<g><path style="opacity:0.996" fill="#c8effd" d="M 210.5,11.5 C 209.196,12.9869 208.03,14.6536 207,16.5C 202.009,32.4442 199.176,48.7776 198.5,65.5C 200.781,93.186 202.948,120.853 205,148.5C 204.264,151.32 202.598,153.32 200,154.5C 199.762,157.308 200.096,159.974 201,162.5C 199.654,159.821 197.654,157.821 195,156.5C 184.838,160.016 175.672,165.183 167.5,172C 171.354,175.089 175.354,177.922 179.5,180.5C 152.66,209.988 143.66,244.321 152.5,283.5C 145.431,283.446 138.431,284.112 131.5,285.5C 134.428,296.188 139.095,306.021 145.5,315C 151.266,313.614 156.932,311.947 162.5,310C 158.167,313.667 153.833,317.333 149.5,321C 153.762,327.02 154.595,333.52 152,340.5C 137.419,361.327 123.086,382.327 109,403.5C 102.412,417.003 97.2456,431.003 93.5,445.5C 72.7316,441.887 63.5649,429.554 66,408.5C 67.0266,404.574 68.5266,400.907 70.5,397.5C 78.5186,388.305 86.0186,378.638 93,368.5C 110.961,352.359 129.295,336.693 148,321.5C 148.339,317.513 146.506,316.013 142.5,317C 124.167,324 105.833,331 87.5,338C 71.855,340.756 56.1883,343.256 40.5,345.5C 16.7243,344.646 5.89098,332.313 8,308.5C 11.5853,297.417 18.7519,289.75 29.5,285.5C 41.7381,287.814 54.0714,289.48 66.5,290.5C 87.8791,288.895 109.212,286.895 130.5,284.5C 126.521,265.16 126.521,245.826 130.5,226.5C 109.191,224.32 87.8579,222.32 66.5,220.5C 52.5203,222.313 38.5203,223.979 24.5,225.5C 6.32752,214.155 2.16085,198.821 12,179.5C 18.9745,170.561 28.1412,166.561 39.5,167.5C 50.7973,175.161 61.7973,183.328 72.5,192C 92.3806,201.441 112.381,210.607 132.5,219.5C 139.641,201.199 150.808,185.865 166,173.5C 166.617,172.551 166.451,171.718 165.5,171C 146.833,158 128.167,145 109.5,132C 97.358,126.906 85.358,121.74 73.5,116.5C 63.9194,104.112 63.0861,91.1124 71,77.5C 83.3202,64.2542 97.4869,61.9208 113.5,70.5C 122.671,78.4878 132.337,85.9878 142.5,93C 159.498,111.518 175.665,130.684 191,150.5C 192.886,153.242 195.386,154.909 198.5,155.5C 189.776,131.497 180.942,107.497 172,83.5C 169.213,69.2445 167.046,54.9111 165.5,40.5C 165.207,20.0597 175.207,9.05974 195.5,7.5C 201.071,7.14085 206.071,8.47418 210.5,11.5 Z"/></g>
<g><path style="opacity:1" fill="#9ae6fb" d="M 440.5,112.5 C 432.777,122.253 425.277,132.253 418,142.5C 414.167,146.333 410.333,150.167 406.5,154C 387.578,169.28 368.911,184.78 350.5,200.5C 349.391,200.557 348.391,200.89 347.5,201.5C 344.92,198.011 342.587,194.344 340.5,190.5C 354.644,178.531 368.977,166.698 383.5,155C 396.218,142.698 407.385,129.198 417,114.5C 429.006,94.6334 425.173,78.9667 405.5,67.5C 425.041,62.1899 438.208,69.1899 445,88.5C 446.56,97.1237 445.06,105.124 440.5,112.5 Z"/></g>
<g><path style="opacity:1" fill="#c8effd" d="M 470.5,165.5 C 457.64,165.627 457.306,167.46 469.5,171C 479.099,178.446 483.265,188.279 482,200.5C 479.131,210.04 473.297,217.207 464.5,222C 470.369,223.807 476.369,224.641 482.5,224.5C 496.619,226.625 506.285,234.291 511.5,247.5C 511.5,252.833 511.5,258.167 511.5,263.5C 507.511,275.676 499.178,283.01 486.5,285.5C 480.118,285.897 473.785,286.73 467.5,288C 483.032,298.085 486.866,311.585 479,328.5C 475.786,333.382 471.619,337.215 466.5,340C 467.789,341.802 469.456,342.969 471.5,343.5C 486.141,359.304 486.141,375.137 471.5,391C 462.559,397.489 452.893,398.989 442.5,395.5C 455.881,387.073 461.381,375.073 459,359.5C 454.345,350.837 448.178,343.337 440.5,337C 433.32,331.909 426.32,326.576 419.5,321C 398.378,310.77 377.378,300.604 356.5,290.5C 356.963,287.779 357.629,285.112 358.5,282.5C 382.489,284.833 406.489,287.166 430.5,289.5C 441.225,288.42 451.892,286.92 462.5,285C 483.967,280.201 492.467,267.034 488,245.5C 482.925,234.115 474.091,227.615 461.5,226C 451.409,223.982 441.242,222.482 431,221.5C 406.784,223.458 382.618,225.792 358.5,228.5C 356.203,218.944 352.537,209.944 347.5,201.5C 348.391,200.89 349.391,200.557 350.5,200.5C 375.593,191.301 400.593,181.801 425.5,172C 431.366,170.213 437.366,169.213 443.5,169C 448.746,164.425 453.246,159.258 457,153.5C 462.695,135.899 457.529,122.566 441.5,113.5C 456.021,109.618 467.854,113.618 477,125.5C 484.44,140.456 482.274,153.789 470.5,165.5 Z"/></g>
<g><path style="opacity:0.995" fill="#e9f5fe" d="M 73.5,116.5 C 85.358,121.74 97.358,126.906 109.5,132C 128.167,145 146.833,158 165.5,171C 166.451,171.718 166.617,172.551 166,173.5C 150.808,185.865 139.641,201.199 132.5,219.5C 112.381,210.607 92.3806,201.441 72.5,192C 61.7973,183.328 50.7973,175.161 39.5,167.5C 24.8665,151.666 24.8665,135.832 39.5,120C 50.2011,112.83 61.5345,111.663 73.5,116.5 Z"/></g>
<g><path style="opacity:1" fill="#e9f5fe" d="M 440.5,112.5 C 440.5,113.167 440.833,113.5 441.5,113.5C 457.529,122.566 462.695,135.899 457,153.5C 453.246,159.258 448.746,164.425 443.5,169C 437.366,169.213 431.366,170.213 425.5,172C 400.593,181.801 375.593,191.301 350.5,200.5C 368.911,184.78 387.578,169.28 406.5,154C 410.333,150.167 414.167,146.333 418,142.5C 425.277,132.253 432.777,122.253 440.5,112.5 Z"/></g>
<g><path style="opacity:1" fill="#fec345" d="M 246.5,149.5 C 251.5,149.5 256.5,149.5 261.5,149.5C 268.949,149.755 276.282,150.755 283.5,152.5C 295.152,156.161 306.152,161.161 316.5,167.5C 325.133,174.465 333.133,182.132 340.5,190.5C 342.587,194.344 344.92,198.011 347.5,201.5C 352.537,209.944 356.203,218.944 358.5,228.5C 362.458,246.468 362.458,264.468 358.5,282.5C 357.629,285.112 356.963,287.779 356.5,290.5C 350.709,305.413 342.376,318.746 331.5,330.5C 324.738,336.932 317.404,342.598 309.5,347.5C 303.74,350.713 297.74,353.38 291.5,355.5C 281.909,359.396 271.909,361.396 261.5,361.5C 256.5,361.5 251.5,361.5 246.5,361.5C 298.474,351.692 329.307,320.692 339,268.5C 342.281,220.844 323.448,185.01 282.5,161C 270.866,155.621 258.866,151.787 246.5,149.5 Z"/></g>
<g><path style="opacity:1" fill="#fed05b" d="M 246.5,149.5 C 258.866,151.787 270.866,155.621 282.5,161C 323.448,185.01 342.281,220.844 339,268.5C 329.307,320.692 298.474,351.692 246.5,361.5C 240.417,360.936 234.417,359.936 228.5,358.5C 221.683,356.561 215.016,354.228 208.5,351.5C 198.5,345.827 189.167,339.161 180.5,331.5C 167.551,317.6 158.217,301.6 152.5,283.5C 143.66,244.321 152.66,209.988 179.5,180.5C 193.546,167.306 209.879,157.973 228.5,152.5C 234.416,151.064 240.416,150.064 246.5,149.5 Z"/></g>
<g><path style="opacity:1" fill="#9ae6fc" d="M 470.5,165.5 C 486.89,164.736 497.723,172.069 503,187.5C 506.035,205.438 499.202,217.771 482.5,224.5C 476.369,224.641 470.369,223.807 464.5,222C 473.297,217.207 479.131,210.04 482,200.5C 483.265,188.279 479.099,178.446 469.5,171C 457.306,167.46 457.64,165.627 470.5,165.5 Z"/></g>
<g><path style="opacity:1" fill="#ffc344" d="M 265.5,174.5 C 272.087,174.861 278.42,176.361 284.5,179C 288.5,183.333 288.5,187.667 284.5,192C 277.622,192.487 270.955,191.487 264.5,189C 259.003,183.683 259.336,178.85 265.5,174.5 Z"/></g>
<g><path style="opacity:1" fill="#ffc344" d="M 225.5,178.5 C 235.216,177.532 238.549,181.532 235.5,190.5C 229.25,195.301 222.25,197.801 214.5,198C 210.467,194.832 209.633,190.999 212,186.5C 216.183,183.164 220.683,180.497 225.5,178.5 Z"/></g>
<g><path style="opacity:1" fill="#ffc344" d="M 309.5,199.5 C 311.989,199.298 314.323,199.798 316.5,201C 320.382,205.214 323.882,209.714 327,214.5C 328.05,222.572 324.55,226.072 316.5,225C 312.286,220.454 308.453,215.621 305,210.5C 304.333,208.5 304.333,206.5 305,204.5C 306.707,202.963 308.207,201.296 309.5,199.5 Z"/></g>
<g><path style="opacity:1" fill="#ffc344" d="M 187.5,211.5 C 195.161,210.663 198.661,213.996 198,221.5C 195.612,226.443 193.112,231.276 190.5,236C 181.961,239.451 177.794,236.618 178,227.5C 179.806,223.082 181.806,218.749 184,214.5C 185.145,213.364 186.312,212.364 187.5,211.5 Z"/></g>
<g><path style="opacity:0.996" fill="#e9f5fe" d="M 29.5,285.5 C 14.634,284.614 4.63402,277.281 -0.5,263.5C -0.5,258.167 -0.5,252.833 -0.5,247.5C 3.48855,235.324 11.8219,227.99 24.5,225.5C 38.5203,223.979 52.5203,222.313 66.5,220.5C 87.8579,222.32 109.191,224.32 130.5,226.5C 126.521,245.826 126.521,265.16 130.5,284.5C 109.212,286.895 87.8791,288.895 66.5,290.5C 54.0714,289.48 41.7381,287.814 29.5,285.5 Z"/></g>
<g><path style="opacity:1" fill="#9ce6fc" d="M 132.5,220.5 C 138.356,222.092 144.023,224.258 149.5,227C 143.505,227.168 137.505,227.002 131.5,226.5C 131.517,224.435 131.85,222.435 132.5,220.5 Z"/></g>
<g><path style="opacity:1" fill="#e9f5fe" d="M 358.5,282.5 C 362.458,264.468 362.458,246.468 358.5,228.5C 382.618,225.792 406.784,223.458 431,221.5C 441.242,222.482 451.409,223.982 461.5,226C 474.091,227.615 482.925,234.115 488,245.5C 492.467,267.034 483.967,280.201 462.5,285C 451.892,286.92 441.225,288.42 430.5,289.5C 406.489,287.166 382.489,284.833 358.5,282.5 Z"/></g>
<g><path style="opacity:1" fill="#ffc345" d="M 252.5,247.5 C 260.568,246.931 264.068,250.598 263,258.5C 257.951,265.154 252.951,265.154 248,258.5C 246.776,253.626 248.276,249.959 252.5,247.5 Z"/></g>
<g><path style="opacity:1" fill="#ffc344" d="M 327.5,247.5 C 335.227,247.398 338.56,251.232 337.5,259C 337.563,263.683 336.73,268.183 335,272.5C 327.503,277.787 323.003,275.954 321.5,267C 322.06,261.839 322.56,256.673 323,251.5C 324.397,249.93 325.897,248.596 327.5,247.5 Z"/></g>
<g><path style="opacity:1" fill="#ffc344" d="M 178.5,261.5 C 184.156,260.243 187.989,262.243 190,267.5C 191.089,272.024 192.256,276.524 193.5,281C 192.296,287.106 188.629,289.439 182.5,288C 181.069,287.535 179.903,286.701 179,285.5C 177.296,280.055 175.796,274.555 174.5,269C 174.927,265.977 176.261,263.477 178.5,261.5 Z"/></g>
<g><path style="opacity:1" fill="#9ae6fc" d="M 486.5,285.5 C 504.672,296.845 508.839,312.179 499,331.5C 492.025,340.439 482.859,344.439 471.5,343.5C 469.456,342.969 467.789,341.802 466.5,340C 471.619,337.215 475.786,333.382 479,328.5C 486.866,311.585 483.032,298.085 467.5,288C 473.785,286.73 480.118,285.897 486.5,285.5 Z"/></g>
<g><path style="opacity:1" fill="#e9f5fe" d="M 356.5,290.5 C 377.378,300.604 398.378,310.77 419.5,321C 426.32,326.576 433.32,331.909 440.5,337C 448.178,343.337 454.345,350.837 459,359.5C 461.381,375.073 455.881,387.073 442.5,395.5C 440.883,394.962 439.216,394.629 437.5,394.5C 428.233,389.739 418.566,385.739 408.5,382.5C 404.434,380.631 400.434,378.464 396.5,376C 375.125,360.321 353.458,345.155 331.5,330.5C 342.376,318.746 350.709,305.413 356.5,290.5 Z"/></g>
<g><path style="opacity:1" fill="#ffc344" d="M 309.5,295.5 C 316.831,295 320.331,298.333 320,305.5C 316.88,310.954 312.713,315.454 307.5,319C 298.667,320.833 295.167,317.333 297,308.5C 301.398,304.271 305.564,299.938 309.5,295.5 Z"/></g>
<g><path style="opacity:1" fill="#ffc344" d="M 204.5,305.5 C 206.857,305.337 209.19,305.503 211.5,306C 215.667,308.833 219.833,311.667 224,314.5C 227.66,324.039 224.493,328.206 214.5,327C 210.049,324.217 205.883,321.05 202,317.5C 199.511,312.757 200.345,308.757 204.5,305.5 Z"/></g>
<g><path style="opacity:1" fill="#9ae6fb" d="M 152.5,283.5 C 158.217,301.6 167.551,317.6 180.5,331.5C 164.6,354.95 148.433,378.283 132,401.5C 126.906,413.642 121.74,425.642 116.5,437.5C 109.956,443.267 102.289,445.933 93.5,445.5C 97.2456,431.003 102.412,417.003 109,403.5C 123.086,382.327 137.419,361.327 152,340.5C 154.595,333.52 153.762,327.02 149.5,321C 153.833,317.333 158.167,313.667 162.5,310C 156.932,311.947 151.266,313.614 145.5,315C 139.095,306.021 134.428,296.188 131.5,285.5C 138.431,284.112 145.431,283.446 152.5,283.5 Z"/></g>
<g><path style="opacity:0.991" fill="#e9f5fe" d="M 70.5,397.5 C 55.6325,401.6 43.4658,397.6 34,385.5C 26.5595,370.544 28.7262,357.211 40.5,345.5C 56.1883,343.256 71.855,340.756 87.5,338C 105.833,331 124.167,324 142.5,317C 146.506,316.013 148.339,317.513 148,321.5C 129.295,336.693 110.961,352.359 93,368.5C 86.0186,378.638 78.5186,388.305 70.5,397.5 Z"/></g>
<g><path style="opacity:1" fill="#ffc344" d="M 262.5,321.5 C 271.601,319.133 276.101,322.466 276,331.5C 274.833,333.333 273.333,334.833 271.5,336C 265.199,337.179 258.865,337.513 252.5,337C 247.257,332.255 247.257,327.588 252.5,323C 256.025,322.821 259.359,322.321 262.5,321.5 Z"/></g>
<g><path style="opacity:1" fill="#c8effd" d="M 331.5,330.5 C 353.458,345.155 375.125,360.321 396.5,376C 400.434,378.464 404.434,380.631 408.5,382.5C 408.062,382.435 407.728,382.601 407.5,383C 413.211,390.247 418.044,398.081 422,406.5C 426.274,423.28 420.774,435.613 405.5,443.5C 402.821,443.327 400.487,442.327 398.5,440.5C 397.948,442.003 397.948,443.669 398.5,445.5C 388.526,445.183 379.526,442.017 371.5,436C 364.167,430.667 356.833,425.333 349.5,420C 342.593,413.764 336.427,406.931 331,399.5C 330.31,398.262 329.81,398.262 329.5,399.5C 322.662,382.332 315.995,364.998 309.5,347.5C 317.404,342.598 324.738,336.932 331.5,330.5 Z"/></g>
<g><path style="opacity:0.997" fill="#e9f5fe" d="M 180.5,331.5 C 189.167,339.161 198.5,345.827 208.5,351.5C 196.723,381.393 183.556,410.726 169,439.5C 160.339,452.836 150.173,465.003 138.5,476C 136.391,477.646 134.057,478.812 131.5,479.5C 119.782,474.248 113.782,465.081 113.5,452C 113.795,446.993 114.795,442.159 116.5,437.5C 121.74,425.642 126.906,413.642 132,401.5C 148.433,378.283 164.6,354.95 180.5,331.5 Z"/></g>
<g><path style="opacity:1" fill="#9ae6fb" d="M 309.5,347.5 C 315.995,364.998 322.662,382.332 329.5,399.5C 332.986,409.146 336.486,418.812 340,428.5C 341.901,442.514 343.734,456.514 345.5,470.5C 346.145,487.337 338.479,498.17 322.5,503C 316.796,503.687 311.13,503.521 305.5,502.5C 315.713,497.462 321.546,489.129 323,477.5C 323.045,459.623 321.045,441.957 317,424.5C 308.48,401.468 299.98,378.468 291.5,355.5C 297.74,353.38 303.74,350.713 309.5,347.5 Z"/></g>
<g><path style="opacity:0.996" fill="#c8effd" d="M 208.5,351.5 C 215.016,354.228 221.683,356.561 228.5,358.5C 228.806,361.385 228.473,364.052 227.5,366.5C 227.657,365.127 227.49,363.793 227,362.5C 218,382.5 209,402.5 200,422.5C 197.674,445.872 199.674,468.872 206,491.5C 207.357,494.898 209.19,497.898 211.5,500.5C 196.862,507.304 184.029,504.638 173,492.5C 168.98,486.087 166.98,479.087 167,471.5C 156.825,482.172 144.992,484.838 131.5,479.5C 134.057,478.812 136.391,477.646 138.5,476C 150.173,465.003 160.339,452.836 169,439.5C 183.556,410.726 196.723,381.393 208.5,351.5 Z"/></g>
<g><path style="opacity:0.999" fill="#c8effd" d="M 291.5,355.5 C 299.98,378.468 308.48,401.468 317,424.5C 321.045,441.957 323.045,459.623 323,477.5C 321.546,489.129 315.713,497.462 305.5,502.5C 296.071,498.237 289.571,491.237 286,481.5C 284.659,496.315 277.159,506.315 263.5,511.5C 258.167,511.5 252.833,511.5 247.5,511.5C 246.5,510.833 245.5,510.167 244.5,509.5C 251.664,506.228 256.831,500.895 260,493.5C 267.257,469.627 269.591,445.294 267,420.5C 264.683,400.875 262.849,381.208 261.5,361.5C 271.909,361.396 281.909,359.396 291.5,355.5 Z"/></g>
<g><path style="opacity:0.998" fill="#e9f5fe" d="M 228.5,358.5 C 234.417,359.936 240.417,360.936 246.5,361.5C 251.5,361.5 256.5,361.5 261.5,361.5C 262.849,381.208 264.683,400.875 267,420.5C 269.591,445.294 267.257,469.627 260,493.5C 256.831,500.895 251.664,506.228 244.5,509.5C 236.642,507.144 231.142,502.144 228,494.5C 227.16,491.798 226.327,489.132 225.5,486.5C 223.957,471.658 222.291,456.825 220.5,442C 222.971,416.848 225.304,391.681 227.5,366.5C 228.473,364.052 228.806,361.385 228.5,358.5 Z"/></g>
<g><path style="opacity:1" fill="#9ae6fc" d="M 227.5,366.5 C 225.304,391.681 222.971,416.848 220.5,442C 222.291,456.825 223.957,471.658 225.5,486.5C 222.506,492.827 217.84,497.494 211.5,500.5C 209.19,497.898 207.357,494.898 206,491.5C 199.674,468.872 197.674,445.872 200,422.5C 209,402.5 218,382.5 227,362.5C 227.49,363.793 227.657,365.127 227.5,366.5 Z"/></g>
<g><path style="opacity:1" fill="#9ae6fc" d="M 408.5,382.5 C 418.566,385.739 428.233,389.739 437.5,394.5C 448.481,409.085 448.148,423.418 436.5,437.5C 427.245,445.562 416.912,447.562 405.5,443.5C 420.774,435.613 426.274,423.28 422,406.5C 418.044,398.081 413.211,390.247 407.5,383C 407.728,382.601 408.062,382.435 408.5,382.5 Z"/></g>
<g><path style="opacity:0.987" fill="#e9f6fe" d="M 398.5,445.5 C 399.837,469.997 388.17,481.831 363.5,481C 356.382,479.375 350.382,475.875 345.5,470.5C 343.734,456.514 341.901,442.514 340,428.5C 336.486,418.812 332.986,409.146 329.5,399.5C 329.81,398.262 330.31,398.262 331,399.5C 336.427,406.931 342.593,413.764 349.5,420C 356.833,425.333 364.167,430.667 371.5,436C 379.526,442.017 388.526,445.183 398.5,445.5 Z"/></g>
</svg>
