<?xml version="1.0" encoding="UTF-8"?>
<!DOCTYPE svg PUBLIC "-//W3C//DTD SVG 1.1//EN" "http://www.w3.org/Graphics/SVG/1.1/DTD/svg11.dtd">
<svg xmlns="http://www.w3.org/2000/svg" version="1.1" width="512px" height="512px" style="shape-rendering:geometricPrecision; text-rendering:geometricPrecision; image-rendering:optimizeQuality; fill-rule:evenodd; clip-rule:evenodd" xmlns:xlink="http://www.w3.org/1999/xlink">
<g><path style="opacity:1" fill="#ffc344" d="M 248.5,-0.5 C 253.167,-0.5 257.833,-0.5 262.5,-0.5C 276.889,7.37228 290.055,17.0389 302,28.5C 311.746,38.2418 320.746,48.5751 329,59.5C 338.628,74.8547 340.628,91.188 335,108.5C 325.276,132.282 315.276,155.949 305,179.5C 302.066,183.712 298.899,187.712 295.5,191.5C 289.211,189.678 282.877,188.011 276.5,186.5C 278.749,182.402 281.249,178.402 284,174.5C 293,152.5 302,130.5 311,108.5C 316.223,93.8515 315.556,79.5181 309,65.5C 291.222,40.5542 269.722,19.5542 244.5,2.5C 245.833,1.5 247.167,0.5 248.5,-0.5 Z"/></g>
<g><path style="opacity:0.995" fill="#fed05b" d="M 244.5,2.5 C 269.722,19.5542 291.222,40.5542 309,65.5C 315.556,79.5181 316.223,93.8515 311,108.5C 302,130.5 293,152.5 284,174.5C 281.249,178.402 278.749,182.402 276.5,186.5C 272.833,186.5 269.167,186.5 265.5,186.5C 267.131,169.585 269.464,152.752 272.5,136C 272.667,130.833 270.167,128.333 265,128.5C 261.726,128.301 259.393,129.634 258,132.5C 254.196,150.352 251.363,168.352 249.5,186.5C 243.824,186.334 238.157,186.501 232.5,187C 226.775,188.411 221.108,189.911 215.5,191.5C 209.435,185.052 204.601,177.719 201,169.5C 192.943,149.053 184.61,128.719 176,108.5C 170.238,91.1714 172.238,74.8381 182,59.5C 196.186,41.6486 212.019,25.4819 229.5,11C 234.23,7.6365 239.23,4.80317 244.5,2.5 Z"/></g>
<g><path style="opacity:1" fill="#ffc344" d="M 251.5,24.5 C 255.463,24.0889 259.13,24.9222 262.5,27C 280.886,40.2635 296.719,56.0968 310,74.5C 312.372,81.0779 310.039,85.0779 303,86.5C 301.188,86.5066 299.688,85.84 298.5,84.5C 286.163,68.629 272.163,54.4623 256.5,42C 252.76,43.0221 249.426,45.0221 246.5,48C 238.333,49.1667 234.833,45.6667 236,37.5C 241.065,32.926 246.231,28.5926 251.5,24.5 Z"/></g>
<g><path style="opacity:1" fill="#ffc344" d="M 214.5,58.5 C 221.503,58.3389 225.003,61.6723 225,68.5C 221.024,73.9766 216.858,79.3099 212.5,84.5C 204.618,87.7976 200.451,85.1309 200,76.5C 203.969,69.7087 208.802,63.7087 214.5,58.5 Z"/></g>
<g><path style="opacity:1" fill="#feaa5b" d="M 267.5,94.5 C 275.661,93.1715 279.495,96.5048 279,104.5C 276.565,109.224 272.731,110.724 267.5,109C 262.33,104.054 262.33,99.2208 267.5,94.5 Z"/></g>
<g><path style="opacity:0.931" fill="#fea85c" d="M 108.5,107.5 C 115.603,106.202 119.603,109.035 120.5,116C 120.35,121.483 117.517,124.317 112,124.5C 105.819,123.327 103.152,119.66 104,113.5C 104.979,111.032 106.479,109.032 108.5,107.5 Z"/></g>
<g><path style="opacity:1" fill="#eaf4fb" d="M 265.5,186.5 C 265.5,187.833 265.5,189.167 265.5,190.5C 262.447,212.362 260.947,234.362 261,256.5C 258.459,261.069 254.625,262.569 249.5,261C 247.951,259.786 246.785,258.286 246,256.5C 245.571,233.083 246.738,209.749 249.5,186.5C 251.363,168.352 254.196,150.352 258,132.5C 259.393,129.634 261.726,128.301 265,128.5C 270.167,128.333 272.667,130.833 272.5,136C 269.464,152.752 267.131,169.585 265.5,186.5 Z"/></g>
<g><path style="opacity:0.969" fill="#eaf5fd" d="M 199.5,204.5 C 209.211,220.236 218.711,236.236 228,252.5C 228.848,258.66 226.181,262.327 220,263.5C 217.825,263.166 215.992,262.166 214.5,260.5C 207.227,246.934 199.227,233.934 190.5,221.5C 187.461,215.413 183.461,210.079 178.5,205.5C 178.5,204.833 178.167,204.5 177.5,204.5C 163.415,183.897 147.581,164.564 130,146.5C 127.476,139.651 129.809,135.318 137,133.5C 139.321,133.909 141.487,134.743 143.5,136C 163.922,157.57 182.589,180.403 199.5,204.5 Z"/></g>
<g><path style="opacity:0.938" fill="#fea85c" d="M 339.5,158.5 C 350.86,157.71 354.193,162.543 349.5,173C 345.224,176.288 341.057,176.122 337,172.5C 334.425,167.034 335.258,162.367 339.5,158.5 Z"/></g>
<g><path style="opacity:0.991" fill="#ffd05a" d="M 177.5,204.5 C 177.5,204.833 177.5,205.167 177.5,205.5C 171.319,211.178 167.153,218.178 165,226.5C 163.892,235.442 163.392,244.442 163.5,253.5C 161.963,268.447 164.13,282.781 170,296.5C 172.042,299.94 174.542,302.94 177.5,305.5C 153.715,316.718 129.382,326.885 104.5,336C 88.4442,340.285 73.4442,337.952 59.5,329C 41.6486,314.814 25.4819,298.981 11,281.5C 6.63833,275.436 2.805,269.102 -0.5,262.5C -0.5,257.833 -0.5,253.167 -0.5,248.5C 7.37228,234.111 17.0389,220.945 28.5,209C 38.2418,199.254 48.5751,190.254 59.5,182C 74.8547,172.372 91.188,170.372 108.5,176C 131.521,185.513 154.521,195.013 177.5,204.5 Z"/></g>
<g><path style="opacity:1" fill="#ffc344" d="M 511.5,248.5 C 511.5,253.167 511.5,257.833 511.5,262.5C 506.102,272.282 499.936,281.616 493,290.5C 480.095,304.408 466.262,317.241 451.5,329C 438.774,337.458 425.108,339.958 410.5,336.5C 418.31,334.595 425.31,331.095 431.5,326C 450.783,310.386 467.616,292.553 482,272.5C 485.314,267.217 487.48,261.551 488.5,255.5C 488.217,251.261 487.05,247.261 485,243.5C 469.333,219.83 450.166,199.33 427.5,182C 423.111,178.89 418.278,176.723 413,175.5C 411.97,175.164 411.47,174.497 411.5,173.5C 425.963,171.139 439.296,173.973 451.5,182C 469.351,196.186 485.518,212.019 500,229.5C 504.362,235.564 508.195,241.898 511.5,248.5 Z"/></g>
<g><path style="opacity:0.995" fill="#ffd05a" d="M 411.5,173.5 C 411.47,174.497 411.97,175.164 413,175.5C 418.278,176.723 423.111,178.89 427.5,182C 450.166,199.33 469.333,219.83 485,243.5C 487.05,247.261 488.217,251.261 488.5,255.5C 487.48,261.551 485.314,267.217 482,272.5C 467.616,292.553 450.783,310.386 431.5,326C 425.31,331.095 418.31,334.595 410.5,336.5C 406.049,335.851 401.716,334.684 397.5,333C 375.337,324.056 353.337,314.723 331.5,305C 327.288,302.066 323.288,298.899 319.5,295.5C 323.922,282.387 325.589,268.887 324.5,255C 325.604,241.416 323.938,228.249 319.5,215.5C 325.948,209.435 333.281,204.601 341.5,201C 364.608,191.133 387.941,181.967 411.5,173.5 Z"/></g>
<g><path style="opacity:0.998" fill="#fda95c" d="M 249.5,186.5 C 246.738,209.749 245.571,233.083 246,256.5C 246.785,258.286 247.951,259.786 249.5,261C 254.625,262.569 258.459,261.069 261,256.5C 260.947,234.362 262.447,212.362 265.5,190.5C 277.464,194.462 286.798,201.796 293.5,212.5C 288.872,220.762 285.038,229.428 282,238.5C 279.83,244.344 278.83,250.344 279,256.5C 281.435,261.224 285.269,262.724 290.5,261C 291.333,260.167 292.167,259.333 293,258.5C 294.766,249.371 297.599,240.704 301.5,232.5C 301.667,247.17 301.5,261.837 301,276.5C 295.659,303.007 279.826,319.007 253.5,324.5C 246.492,324.666 239.492,324.5 232.5,324C 226.811,322.483 221.144,320.983 215.5,319.5C 205.5,313.5 197.5,305.5 191.5,295.5C 189.907,289.213 188.407,282.88 187,276.5C 186.333,261.833 186.333,247.167 187,232.5C 187.474,228.578 188.641,224.912 190.5,221.5C 199.227,233.934 207.227,246.934 214.5,260.5C 215.992,262.166 217.825,263.166 220,263.5C 226.181,262.327 228.848,258.66 228,252.5C 218.711,236.236 209.211,220.236 199.5,204.5C 204.254,199.409 209.587,195.076 215.5,191.5C 221.108,189.911 226.775,188.411 232.5,187C 238.157,186.501 243.824,186.334 249.5,186.5 Z"/></g>
<g><path style="opacity:1" fill="#fd983a" d="M 265.5,186.5 C 269.167,186.5 272.833,186.5 276.5,186.5C 282.877,188.011 289.211,189.678 295.5,191.5C 298.167,193.5 300.833,195.5 303.5,197.5C 300.412,202.68 297.078,207.68 293.5,212.5C 286.798,201.796 277.464,194.462 265.5,190.5C 265.5,189.167 265.5,187.833 265.5,186.5 Z"/></g>
<g><path style="opacity:0.988" fill="#eaf4fb" d="M 315.5,209.5 C 309.581,216.325 304.914,223.992 301.5,232.5C 297.599,240.704 294.766,249.371 293,258.5C 292.167,259.333 291.333,260.167 290.5,261C 285.269,262.724 281.435,261.224 279,256.5C 278.83,250.344 279.83,244.344 282,238.5C 285.038,229.428 288.872,220.762 293.5,212.5C 297.078,207.68 300.412,202.68 303.5,197.5C 310.783,193.974 315.449,196.141 317.5,204C 317.242,206.009 316.575,207.843 315.5,209.5 Z"/></g>
<g><path style="opacity:1" fill="#ffc344" d="M 76.5,199.5 C 83.4649,199.961 86.6316,203.628 86,210.5C 75.7273,219.101 65.7273,228.101 56,237.5C 50.5975,243.066 45.7642,249.066 41.5,255.5C 46.099,262.269 51.2657,268.602 57,274.5C 66.3942,283.566 76.0609,292.232 86,300.5C 86.9118,306.431 84.4118,310.098 78.5,311.5C 74.5415,309.853 70.8748,307.686 67.5,305C 60.3333,298.5 53.1667,292 46,285.5C 39.9583,279.127 34.2916,272.46 29,265.5C 23.0774,258.761 23.0774,252.094 29,245.5C 43.049,228.284 58.8823,212.95 76.5,199.5 Z"/></g>
<g><path style="opacity:1" fill="#ffc344" d="M 430.5,199.5 C 433.928,199.547 436.928,200.713 439.5,203C 457.75,216.582 473.25,232.748 486,251.5C 487.014,256.813 485.681,261.48 482,265.5C 476.708,272.46 471.042,279.127 465,285.5C 457.833,292 450.667,298.5 443.5,305C 440.125,307.686 436.459,309.853 432.5,311.5C 426.588,310.098 424.088,306.431 425,300.5C 434.939,292.232 444.606,283.566 454,274.5C 459.734,268.602 464.901,262.269 469.5,255.5C 464.901,248.731 459.734,242.398 454,236.5C 444.606,227.434 434.939,218.768 425,210.5C 424.176,205.482 426.009,201.815 430.5,199.5 Z"/></g>
<g><path style="opacity:1" fill="#fec344" d="M 177.5,205.5 C 177.833,205.5 178.167,205.5 178.5,205.5C 183.461,210.079 187.461,215.413 190.5,221.5C 188.641,224.912 187.474,228.578 187,232.5C 186.333,247.167 186.333,261.833 187,276.5C 188.407,282.88 189.907,289.213 191.5,295.5C 187.156,299.334 182.49,302.667 177.5,305.5C 174.542,302.94 172.042,299.94 170,296.5C 164.13,282.781 161.963,268.447 163.5,253.5C 163.392,244.442 163.892,235.442 165,226.5C 167.153,218.178 171.319,211.178 177.5,205.5 Z"/></g>
<g><path style="opacity:1" fill="#fe9738" d="M 315.5,209.5 C 316.475,211.795 317.808,213.795 319.5,215.5C 323.938,228.249 325.604,241.416 324.5,255C 325.589,268.887 323.922,282.387 319.5,295.5C 313.5,305.5 305.5,313.5 295.5,319.5C 289.211,321.322 282.877,322.989 276.5,324.5C 268.833,324.5 261.167,324.5 253.5,324.5C 279.826,319.007 295.659,303.007 301,276.5C 301.5,261.837 301.667,247.17 301.5,232.5C 304.914,223.992 309.581,216.325 315.5,209.5 Z"/></g>
<g><path style="opacity:1" fill="#fe9739" d="M 221.5,277.5 C 228.985,277.483 232.485,281.15 232,288.5C 227.36,294.688 222.36,295.021 217,289.5C 215.474,284.239 216.974,280.239 221.5,277.5 Z"/></g>
<g><path style="opacity:1" fill="#fe9739" d="M 283.5,277.5 C 291.643,276.954 295.143,280.62 294,288.5C 290.108,294.259 285.441,294.926 280,290.5C 278.75,287.923 278.416,285.257 279,282.5C 280.707,280.963 282.207,279.296 283.5,277.5 Z"/></g>
<g><path style="opacity:1" fill="#fe9739" d="M 252.5,283.5 C 260.643,282.954 264.143,286.62 263,294.5C 260.774,298.861 257.274,300.361 252.5,299C 248.139,296.774 246.639,293.274 248,288.5C 249.366,286.638 250.866,284.972 252.5,283.5 Z"/></g>
<g><path style="opacity:0.995" fill="#ffd05a" d="M 215.5,319.5 C 221.144,320.983 226.811,322.483 232.5,324C 239.492,324.5 246.492,324.666 253.5,324.5C 261.167,324.5 268.833,324.5 276.5,324.5C 278.775,328.615 281.275,332.615 284,336.5C 293.333,359.167 302.667,381.833 312,404.5C 316.605,419.908 314.938,434.575 307,448.5C 289.516,472.154 268.683,492.154 244.5,508.5C 235.863,504.371 227.863,499.204 220.5,493C 205.552,479.39 192.052,464.556 180,448.5C 171.92,433.772 170.586,418.439 176,402.5C 185.724,378.718 195.724,355.051 206,331.5C 208.934,327.288 212.101,323.288 215.5,319.5 Z"/></g>
<g><path style="opacity:1" fill="#ffc344" d="M 295.5,319.5 C 301.565,325.948 306.399,333.281 310,341.5C 318.333,361.833 326.667,382.167 335,402.5C 340.259,418.422 338.926,433.756 331,448.5C 318.948,464.556 305.448,479.39 290.5,493C 281.616,499.936 272.282,506.102 262.5,511.5C 257.833,511.5 253.167,511.5 248.5,511.5C 247.167,510.5 245.833,509.5 244.5,508.5C 268.683,492.154 289.516,472.154 307,448.5C 314.938,434.575 316.605,419.908 312,404.5C 302.667,381.833 293.333,359.167 284,336.5C 281.275,332.615 278.775,328.615 276.5,324.5C 282.877,322.989 289.211,321.322 295.5,319.5 Z"/></g>
<g><path style="opacity:1" fill="#ffc344" d="M 205.5,424.5 C 208.157,424.162 210.49,424.829 212.5,426.5C 224.842,442.876 239.175,457.21 255.5,469.5C 262.269,464.901 268.602,459.734 274.5,454C 283.566,444.606 292.232,434.939 300.5,425C 306.431,424.088 310.098,426.588 311.5,432.5C 309.853,436.459 307.686,440.125 305,443.5C 298.5,450.667 292,457.833 285.5,465C 279.127,471.042 272.46,476.708 265.5,482C 261.48,485.681 256.813,487.014 251.5,486C 234.722,473.555 219.555,459.389 206,443.5C 203.314,440.125 201.147,436.459 199.5,432.5C 200.401,428.942 202.401,426.275 205.5,424.5 Z"/></g>
</svg>
