<?xml version="1.0" encoding="UTF-8"?>
<!DOCTYPE svg PUBLIC "-//W3C//DTD SVG 1.1//EN" "http://www.w3.org/Graphics/SVG/1.1/DTD/svg11.dtd">
<svg xmlns="http://www.w3.org/2000/svg" version="1.1" width="512px" height="512px" style="shape-rendering:geometricPrecision; text-rendering:geometricPrecision; image-rendering:optimizeQuality; fill-rule:evenodd; clip-rule:evenodd" xmlns:xlink="http://www.w3.org/1999/xlink">
<g><path style="opacity:0.996" fill="#c8effe" d="M 249.5,-0.5 C 253.5,-0.5 257.5,-0.5 261.5,-0.5C 264.386,0.879222 266.886,2.87922 269,5.5C 276.532,20.4307 281.866,36.0974 285,52.5C 285.35,71.1738 285.35,89.8405 285,108.5C 291.079,91.263 297.745,74.263 305,57.5C 313.837,43.4912 324.67,31.1578 337.5,20.5C 339.837,23.171 341.671,26.171 343,29.5C 344.248,45.3559 343.248,61.0226 340,76.5C 337.263,75.3895 334.429,75.2228 331.5,76C 329.667,76.5 328.5,77.6667 328,79.5C 328.558,87.8461 329.225,96.1794 330,104.5C 318.56,128.38 307.393,152.38 296.5,176.5C 296.624,177.107 296.957,177.44 297.5,177.5C 297.5,177.833 297.5,178.167 297.5,178.5C 292.85,182.981 288.016,187.314 283,191.5C 282.228,191.355 281.561,191.022 281,190.5C 280.501,186.514 280.334,182.514 280.5,178.5C 279.357,161.899 274.857,146.233 267,131.5C 265.27,129.598 263.437,127.931 261.5,126.5C 263.12,111.021 263.62,95.3541 263,79.5C 257.843,74.5319 255.51,68.5319 256,61.5C 257.894,58.1558 260.727,56.8224 264.5,57.5C 261.524,37.9017 255.191,19.5684 245.5,2.5C 246.833,1.5 248.167,0.5 249.5,-0.5 Z"/></g>
<g><path style="opacity:0.99" fill="#e9f5fe" d="M 245.5,2.5 C 255.191,19.5684 261.524,37.9017 264.5,57.5C 260.727,56.8224 257.894,58.1558 256,61.5C 255.51,68.5319 257.843,74.5319 263,79.5C 263.62,95.3541 263.12,111.021 261.5,126.5C 257.888,125.489 254.221,125.322 250.5,126C 248.676,126.66 247.343,127.827 246.5,129.5C 245.542,129.953 244.708,130.619 244,131.5C 237.82,143.521 233.654,156.187 231.5,169.5C 230.833,168.833 230.167,168.167 229.5,167.5C 229.042,150.834 228.542,134.168 228,117.5C 227.604,114.343 226.771,111.343 225.5,108.5C 225.199,87.9714 225.699,67.3047 227,46.5C 230.587,32.3248 235.587,18.6581 242,5.5C 243.039,4.2899 244.206,3.2899 245.5,2.5 Z"/></g>
<g><path style="opacity:1" fill="#9ae6fc" d="M 225.5,108.5 C 226.771,111.343 227.604,114.343 228,117.5C 228.542,134.168 229.042,150.834 229.5,167.5C 229.664,170.187 229.497,172.854 229,175.5C 219,148.167 209,120.833 199,93.5C 192.993,89.1512 187.326,84.4845 182,79.5C 180.882,73.4517 183.382,70.1184 189.5,69.5C 187.32,62.1405 183.82,55.4738 179,49.5C 170.641,39.6456 162.141,29.9789 153.5,20.5C 160.053,16.739 166.719,16.5723 173.5,20C 188.429,33.0664 200.596,48.2331 210,65.5C 215.272,79.8188 220.439,94.1521 225.5,108.5 Z"/></g>
<g><path style="opacity:1" fill="#9ae6fc" d="M 338.5,131.5 C 337.833,131.5 337.5,131.833 337.5,132.5C 324.401,147.688 311.068,162.688 297.5,177.5C 296.957,177.44 296.624,177.107 296.5,176.5C 307.393,152.38 318.56,128.38 330,104.5C 329.225,96.1794 328.558,87.8461 328,79.5C 328.5,77.6667 329.667,76.5 331.5,76C 334.429,75.2228 337.263,75.3895 340,76.5C 343.248,61.0226 344.248,45.3559 343,29.5C 341.671,26.171 339.837,23.171 337.5,20.5C 345.328,16.0749 352.828,16.7415 360,22.5C 361,24.1667 362,25.8333 363,27.5C 363.667,40.5 363.667,53.5 363,66.5C 362.256,71.5518 361.256,76.5518 360,81.5C 353.314,98.3963 346.148,115.063 338.5,131.5 Z"/></g>
<g><path style="opacity:0.995" fill="#c8eefe" d="M 153.5,20.5 C 162.141,29.9789 170.641,39.6456 179,49.5C 183.82,55.4738 187.32,62.1405 189.5,69.5C 183.382,70.1184 180.882,73.4517 182,79.5C 187.326,84.4845 192.993,89.1512 199,93.5C 209,120.833 219,148.167 229,175.5C 229.497,172.854 229.664,170.187 229.5,167.5C 230.167,168.167 230.833,168.833 231.5,169.5C 230.739,176.452 230.239,183.452 230,190.5C 229.439,191.022 228.772,191.355 228,191.5C 222.512,186.68 217.012,181.846 211.5,177C 200.287,169.728 188.287,164.061 175.5,160C 172.259,159.207 169.259,159.707 166.5,161.5C 162.042,150.583 157.042,139.917 151.5,129.5C 142.157,127.442 132.823,125.275 123.5,123C 117.504,118.701 117.171,114.034 122.5,109C 129.614,108.911 136.614,109.578 143.5,111C 140.541,105.286 137.875,99.4527 135.5,93.5C 137.01,94.8361 138.677,96.0027 140.5,97C 151.036,107.867 161.202,119.034 171,130.5C 171.654,131.696 172.154,131.696 172.5,130.5C 166.06,117.287 159.893,103.953 154,90.5C 151.723,84.6685 150.056,78.6685 149,72.5C 147.44,57.8742 147.106,43.2075 148,28.5C 149.104,25.2788 150.937,22.6122 153.5,20.5 Z"/></g>
<g><path style="opacity:0.985" fill="#e9f6fe" d="M 135.5,93.5 C 137.875,99.4527 140.541,105.286 143.5,111C 136.614,109.578 129.614,108.911 122.5,109C 117.171,114.034 117.504,118.701 123.5,123C 132.823,125.275 142.157,127.442 151.5,129.5C 157.042,139.917 162.042,150.583 166.5,161.5C 165.833,161.833 165.167,162.167 164.5,162.5C 159.311,160.702 153.978,159.869 148.5,160C 140.476,163.545 137.31,169.711 139,178.5C 137.568,176.561 135.735,175.228 133.5,174.5C 133.5,173.833 133.167,173.5 132.5,173.5C 132.5,172.833 132.167,172.5 131.5,172.5C 122.951,163.883 113.951,155.716 104.5,148C 85.1238,129.412 73.6238,106.912 70,80.5C 74.3183,71.2578 81.485,67.7578 91.5,70C 102.668,74.6124 113.668,79.6124 124.5,85C 128.597,87.3696 132.264,90.2029 135.5,93.5 Z"/></g>
<g><path style="opacity:0.997" fill="#c8effe" d="M 459.5,147.5 C 471.236,152.311 474.736,160.644 470,172.5C 462.167,180.333 454.333,188.167 446.5,196C 442.233,199.652 437.567,202.319 432.5,204C 436.585,199.426 439.585,194.26 441.5,188.5C 440.427,182.288 436.76,180.121 430.5,182C 429.584,182.374 428.75,182.874 428,183.5C 420.5,194.5 413,205.5 405.5,216.5C 394.657,220.332 383.99,224.332 373.5,228.5C 362.789,228.638 352.456,229.638 342.5,231.5C 336.256,230.542 329.923,230.209 323.5,230.5C 322.391,230.443 321.391,230.11 320.5,229.5C 319.697,228.577 319.53,227.577 320,226.5C 327.123,220.383 333.123,213.383 338,205.5C 343.005,195.943 347.505,186.277 351.5,176.5C 351.435,176.938 351.601,177.272 352,177.5C 361.667,168.5 371.333,159.5 381,150.5C 383.202,140.69 385.869,131.023 389,121.5C 395.35,116.772 400.016,118.105 403,125.5C 409.808,114.423 415.475,102.756 420,90.5C 421.335,83.5104 419.502,77.5104 414.5,72.5C 425.938,66.4085 434.772,69.0752 441,80.5C 437.376,106.912 425.876,129.412 406.5,148C 397.312,155.765 388.312,163.765 379.5,172C 396.056,165.065 412.722,158.065 429.5,151C 439.31,148.198 449.31,147.032 459.5,147.5 Z"/></g>
<g><path style="opacity:0.991" fill="#e9f5fe" d="M 414.5,72.5 C 419.502,77.5104 421.335,83.5104 420,90.5C 415.475,102.756 409.808,114.423 403,125.5C 400.016,118.105 395.35,116.772 389,121.5C 385.869,131.023 383.202,140.69 381,150.5C 371.333,159.5 361.667,168.5 352,177.5C 351.601,177.272 351.435,176.938 351.5,176.5C 350.36,161.018 342.693,156.351 328.5,162.5C 317.44,166.529 307.107,171.862 297.5,178.5C 297.5,178.167 297.5,177.833 297.5,177.5C 311.068,162.688 324.401,147.688 337.5,132.5C 338.167,132.5 338.5,132.167 338.5,131.5C 350.627,117.872 363.293,104.705 376.5,92C 388.187,83.6561 400.854,77.1561 414.5,72.5 Z"/></g>
<g><path style="opacity:1" fill="#61b7fe" d="M 261.5,126.5 C 263.437,127.931 265.27,129.598 267,131.5C 274.857,146.233 279.357,161.899 280.5,178.5C 275.199,182.466 270.199,186.8 265.5,191.5C 264.522,191.023 263.689,190.357 263,189.5C 263.043,179.377 262.043,169.377 260,159.5C 257.197,151.422 254.197,143.422 251,135.5C 250.208,132.894 248.708,130.894 246.5,129.5C 247.343,127.827 248.676,126.66 250.5,126C 254.221,125.322 257.888,125.489 261.5,126.5 Z"/></g>
<g><path style="opacity:1" fill="#8ac9fd" d="M 246.5,129.5 C 248.708,130.894 250.208,132.894 251,135.5C 254.197,143.422 257.197,151.422 260,159.5C 262.043,169.377 263.043,179.377 263,189.5C 263.689,190.357 264.522,191.023 265.5,191.5C 270.199,186.8 275.199,182.466 280.5,178.5C 280.334,182.514 280.501,186.514 281,190.5C 281.561,191.022 282.228,191.355 283,191.5C 288.016,187.314 292.85,182.981 297.5,178.5C 307.107,171.862 317.44,166.529 328.5,162.5C 331.607,164.879 333.274,168.046 333.5,172C 328.245,193.853 317.578,212.52 301.5,228C 301.645,228.772 301.978,229.439 302.5,230C 308.681,230.819 314.681,230.653 320.5,229.5C 321.391,230.11 322.391,230.443 323.5,230.5C 336.452,233.875 349.119,238.375 361.5,244C 369.413,251.633 369.413,259.3 361.5,267C 349.375,272.427 337.042,276.927 324.5,280.5C 323.041,280.433 321.708,280.766 320.5,281.5C 314.681,280.347 308.681,280.181 302.5,281C 301.978,281.561 301.645,282.228 301.5,283C 308.409,289.907 314.575,297.407 320,305.5C 324.864,314.562 329.197,323.896 333,333.5C 334.118,339.377 332.618,344.377 328.5,348.5C 319.099,344.966 310.099,340.632 301.5,335.5C 295.219,330.392 289.052,325.059 283,319.5C 282.228,319.645 281.561,319.978 281,320.5C 280.501,324.486 280.334,328.486 280.5,332.5C 275.376,329.21 271.042,325.043 267.5,320C 266.056,319.219 264.723,319.386 263.5,320.5C 263.013,330.565 261.847,340.565 260,350.5C 257.26,359.72 253.927,368.72 250,377.5C 249.34,379.324 248.173,380.657 246.5,381.5C 244.827,380.657 243.66,379.324 243,377.5C 237.722,365.948 233.888,353.948 231.5,341.5C 230.739,334.548 230.239,327.548 230,320.5C 229.439,319.978 228.772,319.645 228,319.5C 218.575,329.255 207.742,337.088 195.5,343C 188.993,346.058 182.326,348.725 175.5,351C 172.259,351.793 169.259,351.293 166.5,349.5C 165.833,349.167 165.167,348.833 164.5,348.5C 160.124,344.402 158.624,339.402 160,333.5C 165.12,319.25 172.287,306.25 181.5,294.5C 185.011,290.823 188.344,286.989 191.5,283C 191.355,282.228 191.022,281.561 190.5,281C 186.848,280.501 183.182,280.335 179.5,280.5C 170.643,280.114 161.976,278.614 153.5,276C 146.167,273 138.833,270 131.5,267C 123.5,259.333 123.5,251.667 131.5,244C 144.176,238.165 157.176,233.665 170.5,230.5C 171.833,230.5 173.167,230.5 174.5,230.5C 193.935,233.807 196.269,229.473 181.5,217.5C 172,204.836 164.833,190.836 160,175.5C 159.224,170.384 160.724,166.05 164.5,162.5C 165.167,162.167 165.833,161.833 166.5,161.5C 169.259,159.707 172.259,159.207 175.5,160C 188.287,164.061 200.287,169.728 211.5,177C 217.012,181.846 222.512,186.68 228,191.5C 228.772,191.355 229.439,191.022 230,190.5C 230.239,183.452 230.739,176.452 231.5,169.5C 233.654,156.187 237.82,143.521 244,131.5C 244.708,130.619 245.542,129.953 246.5,129.5 Z"/></g>
<g><path style="opacity:0.992" fill="#c7eefe" d="M 108.5,162.5 C 98.6331,164.709 88.6331,166.875 78.5,169C 73.0994,174.068 73.4328,178.735 79.5,183C 97.5757,180.87 115.576,178.036 133.5,174.5C 135.735,175.228 137.568,176.561 139,178.5C 137.31,169.711 140.476,163.545 148.5,160C 153.978,159.869 159.311,160.702 164.5,162.5C 160.724,166.05 159.224,170.384 160,175.5C 164.833,190.836 172,204.836 181.5,217.5C 168.503,205.337 155.336,193.337 142,181.5C 147.719,200.596 158.219,216.596 173.5,229.5C 157.151,229.54 140.818,229.04 124.5,228C 118.988,227.934 113.654,227.1 108.5,225.5C 94.1521,220.439 79.8188,215.272 65.5,210C 48.2331,200.596 33.0664,188.429 20,173.5C 15.2993,163.76 17.1326,155.593 25.5,149C 54.8157,143.553 82.4824,148.053 108.5,162.5 Z"/></g>
<g><path style="opacity:1" fill="#9be6fc" d="M 459.5,147.5 C 467.174,147.334 474.841,147.5 482.5,148C 487.974,149.474 491.474,152.974 493,158.5C 494.068,163.768 493.401,168.768 491,173.5C 479.594,186.919 466.428,198.085 451.5,207C 435.415,213.861 419.082,220.028 402.5,225.5C 393.039,227.866 383.373,228.866 373.5,228.5C 383.99,224.332 394.657,220.332 405.5,216.5C 413,205.5 420.5,194.5 428,183.5C 428.75,182.874 429.584,182.374 430.5,182C 436.76,180.121 440.427,182.288 441.5,188.5C 439.585,194.26 436.585,199.426 432.5,204C 437.567,202.319 442.233,199.652 446.5,196C 454.333,188.167 462.167,180.333 470,172.5C 474.736,160.644 471.236,152.311 459.5,147.5 Z"/></g>
<g><path style="opacity:1" fill="#61b7fe" d="M 351.5,176.5 C 347.505,186.277 343.005,195.943 338,205.5C 333.123,213.383 327.123,220.383 320,226.5C 319.53,227.577 319.697,228.577 320.5,229.5C 314.681,230.653 308.681,230.819 302.5,230C 301.978,229.439 301.645,228.772 301.5,228C 317.578,212.52 328.245,193.853 333.5,172C 333.274,168.046 331.607,164.879 328.5,162.5C 342.693,156.351 350.36,161.018 351.5,176.5 Z"/></g>
<g><path style="opacity:1" fill="#9ae6fc" d="M 108.5,162.5 C 116.05,166.108 123.717,169.442 131.5,172.5C 132.167,172.5 132.5,172.833 132.5,173.5C 133.167,173.5 133.5,173.833 133.5,174.5C 115.576,178.036 97.5757,180.87 79.5,183C 73.4328,178.735 73.0994,174.068 78.5,169C 88.6331,166.875 98.6331,164.709 108.5,162.5 Z"/></g>
<g><path style="opacity:1" fill="#9ae6fc" d="M 181.5,217.5 C 196.269,229.473 193.935,233.807 174.5,230.5C 174.5,229.833 174.167,229.5 173.5,229.5C 158.219,216.596 147.719,200.596 142,181.5C 155.336,193.337 168.503,205.337 181.5,217.5 Z"/></g>
<g><path style="opacity:0.985" fill="#e9f5fe" d="M 83.5,225.5 C 75.1864,232.303 66.6864,238.97 58,245.5C 56.5607,251.629 58.8941,255.296 65,256.5C 68.4878,255.673 71.6544,254.173 74.5,252C 85.5,244.167 96.5,236.333 107.5,228.5C 108.298,228.043 108.631,227.376 108.5,226.5C 108.5,226.167 108.5,225.833 108.5,225.5C 113.654,227.1 118.988,227.934 124.5,228C 140.818,229.04 157.151,229.54 173.5,229.5C 174.167,229.5 174.5,229.833 174.5,230.5C 173.167,230.5 171.833,230.5 170.5,230.5C 147.395,229.233 126.228,234.9 107,247.5C 103.254,254.281 104.088,260.448 109.5,266C 129.869,277.164 151.535,282.331 174.5,281.5C 174.167,281.5 173.833,281.5 173.5,281.5C 151.764,281.364 130.097,282.364 108.5,284.5C 89.8389,285.351 71.1723,285.517 52.5,285C 36.0974,281.866 20.4307,276.532 5.5,269C 2.87922,266.886 0.879222,264.386 -0.5,261.5C -0.5,257.5 -0.5,253.5 -0.5,249.5C 0.879222,246.614 2.87922,244.114 5.5,242C 20.4307,234.468 36.0974,229.134 52.5,226C 62.828,225.5 73.1613,225.334 83.5,225.5 Z"/></g>
<g><path style="opacity:0.996" fill="#e9f5fe" d="M 402.5,225.5 C 412.002,226.444 421.668,226.444 431.5,225.5C 448.109,227.754 464.109,232.587 479.5,240C 489.411,244.655 492.578,252.155 489,262.5C 487.542,264.96 485.709,267.127 483.5,269C 467.695,276.435 451.361,281.935 434.5,285.5C 429.637,285.819 424.97,285.486 420.5,284.5C 424.105,284.201 427.439,283.035 430.5,281C 437.919,276.875 445.086,272.375 452,267.5C 454.756,261.012 452.756,257.012 446,255.5C 443.268,255.615 440.768,256.448 438.5,258C 424.27,266.274 410.27,274.774 396.5,283.5C 388.825,283.32 381.158,282.986 373.5,282.5C 362.789,282.362 352.456,281.362 342.5,279.5C 355.311,276.841 367.644,272.674 379.5,267C 387.491,259.291 387.491,251.625 379.5,244C 367.644,238.326 355.311,234.159 342.5,231.5C 352.456,229.638 362.789,228.638 373.5,228.5C 383.373,228.866 393.039,227.866 402.5,225.5 Z"/></g>
<g><path style="opacity:0.999" fill="#caeffe" d="M 431.5,225.5 C 446.782,224.453 461.782,225.953 476.5,230C 486.281,233.724 495.948,237.724 505.5,242C 508.121,244.114 510.121,246.614 511.5,249.5C 511.5,253.5 511.5,257.5 511.5,261.5C 510.121,264.386 508.121,266.886 505.5,269C 490.569,276.532 474.903,281.866 458.5,285C 450.507,285.5 442.507,285.666 434.5,285.5C 451.361,281.935 467.695,276.435 483.5,269C 485.709,267.127 487.542,264.96 489,262.5C 492.578,252.155 489.411,244.655 479.5,240C 464.109,232.587 448.109,227.754 431.5,225.5 Z"/></g>
<g><path style="opacity:1" fill="#c8effe" d="M 83.5,225.5 C 91.8124,226.24 100.146,226.573 108.5,226.5C 108.631,227.376 108.298,228.043 107.5,228.5C 96.5,236.333 85.5,244.167 74.5,252C 71.6544,254.173 68.4878,255.673 65,256.5C 58.8941,255.296 56.5607,251.629 58,245.5C 66.6864,238.97 75.1864,232.303 83.5,225.5 Z"/></g>
<g><path style="opacity:1" fill="#c7eefe" d="M 170.5,230.5 C 157.176,233.665 144.176,238.165 131.5,244C 123.5,251.667 123.5,259.333 131.5,267C 138.833,270 146.167,273 153.5,276C 161.976,278.614 170.643,280.114 179.5,280.5C 178.081,281.451 176.415,281.784 174.5,281.5C 151.535,282.331 129.869,277.164 109.5,266C 104.088,260.448 103.254,254.281 107,247.5C 126.228,234.9 147.395,229.233 170.5,230.5 Z"/></g>
<g><path style="opacity:1" fill="#63b8ff" d="M 323.5,230.5 C 329.923,230.209 336.256,230.542 342.5,231.5C 355.311,234.159 367.644,238.326 379.5,244C 387.491,251.625 387.491,259.291 379.5,267C 367.644,272.674 355.311,276.841 342.5,279.5C 336.545,280.363 330.545,280.697 324.5,280.5C 337.042,276.927 349.375,272.427 361.5,267C 369.413,259.3 369.413,251.633 361.5,244C 349.119,238.375 336.452,233.875 323.5,230.5 Z"/></g>
<g><path style="opacity:1" fill="#968ecb" d="M 246.5,230.5 C 248.544,231.031 250.211,232.198 251.5,234C 256.324,235.406 260.324,234.24 263.5,230.5C 264.87,233.729 266.536,236.896 268.5,240C 271.351,241.289 274.351,241.789 277.5,241.5C 277.218,244.605 276.218,247.438 274.5,250C 275.224,253.27 277.058,255.77 280,257.5C 280.483,258.448 280.649,259.448 280.5,260.5C 277.735,260.798 275.235,261.798 273,263.5C 271.726,266.981 271.226,270.481 271.5,274C 268.563,273.377 265.563,273.043 262.5,273C 259.832,274.872 257.498,277.038 255.5,279.5C 253.502,277.038 251.168,274.872 248.5,273C 245.437,273.043 242.437,273.377 239.5,274C 239.774,270.481 239.274,266.981 238,263.5C 236.055,262.137 233.888,261.303 231.5,261C 230.978,260.439 230.645,259.772 230.5,259C 233.294,256.538 235.294,253.538 236.5,250C 234.782,247.438 233.782,244.605 233.5,241.5C 241.816,242.517 246.149,238.85 246.5,230.5 Z"/></g>
<g><path style="opacity:1" fill="#c8effe" d="M 420.5,284.5 C 414.31,284.177 408.31,284.51 402.5,285.5C 400.5,284.833 398.5,284.167 396.5,283.5C 410.27,274.774 424.27,266.274 438.5,258C 440.768,256.448 443.268,255.615 446,255.5C 452.756,257.012 454.756,261.012 452,267.5C 445.086,272.375 437.919,276.875 430.5,281C 427.439,283.035 424.105,284.201 420.5,284.5 Z"/></g>
<g><path style="opacity:1" fill="#9ae6fc" d="M 179.5,280.5 C 183.182,280.335 186.848,280.501 190.5,281C 191.022,281.561 191.355,282.228 191.5,283C 188.344,286.989 185.011,290.823 181.5,294.5C 168.224,305.936 155.058,317.603 142,329.5C 147.837,310.486 158.337,294.486 173.5,281.5C 173.833,281.5 174.167,281.5 174.5,281.5C 176.415,281.784 178.081,281.451 179.5,280.5 Z"/></g>
<g><path style="opacity:1" fill="#61b7fe" d="M 320.5,281.5 C 319.697,282.423 319.53,283.423 320,284.5C 334.827,298.496 345.327,315.163 351.5,334.5C 350.36,349.982 342.693,354.649 328.5,348.5C 332.618,344.377 334.118,339.377 333,333.5C 329.197,323.896 324.864,314.562 320,305.5C 314.575,297.407 308.409,289.907 301.5,283C 301.645,282.228 301.978,281.561 302.5,281C 308.681,280.181 314.681,280.347 320.5,281.5 Z"/></g>
<g><path style="opacity:0.998" fill="#c8effe" d="M 342.5,279.5 C 352.456,281.362 362.789,282.362 373.5,282.5C 390.696,289.069 408.029,295.569 425.5,302C 444.058,311.885 459.558,325.385 472,342.5C 473.425,353.002 469.258,360.002 459.5,363.5C 449.31,363.968 439.31,362.802 429.5,360C 419.936,356.648 410.603,352.814 401.5,348.5C 412.512,346.176 423.512,343.343 434.5,340C 438.42,330.835 435.42,326.502 425.5,327C 409.974,330.202 394.64,333.702 379.5,337.5C 378.167,337.833 378.167,338.167 379.5,338.5C 393.128,350.627 406.295,363.293 419,376.5C 428.167,389.833 435.5,404.166 441,419.5C 443.307,432.512 437.974,439.845 425,441.5C 421.036,441.748 417.536,440.748 414.5,438.5C 419.247,433.422 421.081,427.422 420,420.5C 412.323,396.962 399.489,376.795 381.5,360C 371.368,351.537 361.535,342.704 352,333.5C 351.601,333.728 351.435,334.062 351.5,334.5C 345.327,315.163 334.827,298.496 320,284.5C 319.53,283.423 319.697,282.423 320.5,281.5C 321.708,280.766 323.041,280.433 324.5,280.5C 330.545,280.697 336.545,280.363 342.5,279.5 Z"/></g>
<g><path style="opacity:0.991" fill="#c8effe" d="M 173.5,281.5 C 158.337,294.486 147.837,310.486 142,329.5C 155.058,317.603 168.224,305.936 181.5,294.5C 172.287,306.25 165.12,319.25 160,333.5C 158.624,339.402 160.124,344.402 164.5,348.5C 161.575,348.46 158.909,349.293 156.5,351C 143.471,351.637 137.637,345.471 139,332.5C 137.786,334.049 136.286,335.215 134.5,336C 130.523,352.683 127.023,369.516 124,386.5C 121.016,393.895 116.35,395.228 110,390.5C 109.042,388.801 108.542,386.967 108.5,385C 110.611,374.839 112.611,364.673 114.5,354.5C 120.48,349.188 125.813,343.854 130.5,338.5C 117.287,344.94 103.953,351.107 90.5,357C 82.7362,359.941 74.7362,361.941 66.5,363C 53.8333,363.667 41.1667,363.667 28.5,363C 23.0264,361.526 19.5264,358.026 18,352.5C 16.932,347.232 17.5987,342.232 20,337.5C 31.0235,324.799 43.5235,313.966 57.5,305C 66.8333,300.279 76.5,296.445 86.5,293.5C 81.2568,301.645 75.7568,309.645 70,317.5C 69.0799,328.526 73.4132,331.526 83,326.5C 92.043,312.913 101.21,299.413 110.5,286C 109.906,285.536 109.239,285.369 108.5,285.5C 108.5,285.167 108.5,284.833 108.5,284.5C 130.097,282.364 151.764,281.364 173.5,281.5 Z"/></g>
<g><path style="opacity:1" fill="#9be6fc" d="M 373.5,282.5 C 381.158,282.986 388.825,283.32 396.5,283.5C 398.5,284.167 400.5,284.833 402.5,285.5C 419.828,291.11 436.828,297.61 453.5,305C 468.874,314.704 482.041,326.871 493,341.5C 494.645,348.485 493.145,354.651 488.5,360C 486.725,361.439 484.725,362.439 482.5,363C 474.841,363.5 467.174,363.666 459.5,363.5C 469.258,360.002 473.425,353.002 472,342.5C 459.558,325.385 444.058,311.885 425.5,302C 408.029,295.569 390.696,289.069 373.5,282.5 Z"/></g>
<g><path style="opacity:1" fill="#9ae6fc" d="M 108.5,285.5 C 109.239,285.369 109.906,285.536 110.5,286C 101.21,299.413 92.043,312.913 83,326.5C 73.4132,331.526 69.0799,328.526 70,317.5C 75.7568,309.645 81.2568,301.645 86.5,293.5C 93.6125,290.279 100.946,287.613 108.5,285.5 Z"/></g>
<g><path style="opacity:0.996" fill="#c8eefe" d="M 231.5,341.5 C 230.833,342.833 230.167,344.167 229.5,345.5C 229.665,342.15 229.498,338.817 229,335.5C 214.611,374.61 199.945,413.61 185,452.5C 181.054,458.779 176.721,464.779 172,470.5C 165.238,476.756 159.071,483.423 153.5,490.5C 150.937,488.388 149.104,485.721 148,482.5C 143.998,453.837 148.832,426.837 162.5,401.5C 164.576,412.585 167.409,423.585 171,434.5C 180.165,438.42 184.498,435.42 184,425.5C 180.757,409.976 177.257,394.643 173.5,379.5C 173.167,378.167 172.833,378.167 172.5,379.5C 163.883,388.049 155.716,397.049 148,406.5C 144.258,410.747 140.092,414.414 135.5,417.5C 145.833,394.833 156.167,372.167 166.5,349.5C 169.259,351.293 172.259,351.793 175.5,351C 182.326,348.725 188.993,346.058 195.5,343C 207.742,337.088 218.575,329.255 228,319.5C 228.772,319.645 229.439,319.978 230,320.5C 230.239,327.548 230.739,334.548 231.5,341.5 Z"/></g>
<g><path style="opacity:1" fill="#61b7fe" d="M 280.5,332.5 C 280.252,341.072 278.752,349.406 276,357.5C 273,364.833 270,372.167 267,379.5C 265.27,381.402 263.437,383.069 261.5,384.5C 258.221,385.492 254.888,385.659 251.5,385C 249.119,384.777 247.453,383.61 246.5,381.5C 248.173,380.657 249.34,379.324 250,377.5C 253.927,368.72 257.26,359.72 260,350.5C 261.847,340.565 263.013,330.565 263.5,320.5C 264.723,319.386 266.056,319.219 267.5,320C 271.042,325.043 275.376,329.21 280.5,332.5 Z"/></g>
<g><path style="opacity:0.997" fill="#c8effe" d="M 301.5,335.5 C 300.833,335.5 300.5,335.833 300.5,336.5C 298.537,335.04 296.704,333.373 295,331.5C 307.725,360.627 321.058,389.627 335,418.5C 342.443,439.981 344.443,461.981 341,484.5C 339.951,486.618 338.451,488.284 336.5,489.5C 321.567,477.282 309.734,462.615 301,445.5C 298.526,439.243 296.359,432.91 294.5,426.5C 302.859,430.683 310.859,435.516 318.5,441C 327,442.5 330.5,439 329,430.5C 328.07,428.448 326.57,426.948 324.5,426C 311.472,418.155 298.472,410.322 285.5,402.5C 285.34,420.993 285.174,439.66 285,458.5C 281.866,474.903 276.532,490.569 269,505.5C 266.886,508.121 264.386,510.121 261.5,511.5C 257.5,511.5 253.5,511.5 249.5,511.5C 248.167,510.5 246.833,509.5 245.5,508.5C 255.032,491.732 261.198,473.732 264,454.5C 264.726,430.96 263.893,407.626 261.5,384.5C 263.437,383.069 265.27,381.402 267,379.5C 270,372.167 273,364.833 276,357.5C 278.752,349.406 280.252,341.072 280.5,332.5C 280.334,328.486 280.501,324.486 281,320.5C 281.561,319.978 282.228,319.645 283,319.5C 289.052,325.059 295.219,330.392 301.5,335.5 Z"/></g>
<g><path style="opacity:1" fill="#9ae6fc" d="M 401.5,348.5 C 394.409,344.621 387.076,341.288 379.5,338.5C 379.5,338.167 379.5,337.833 379.5,337.5C 394.64,333.702 409.974,330.202 425.5,327C 435.42,326.502 438.42,330.835 434.5,340C 423.512,343.343 412.512,346.176 401.5,348.5 Z"/></g>
<g><path style="opacity:1" fill="#9ae6fc" d="M 300.5,336.5 C 312.833,350.5 325.167,364.5 337.5,378.5C 337.5,379.167 337.833,379.5 338.5,379.5C 346.148,395.937 353.314,412.604 360,429.5C 362.899,440.644 364.066,451.978 363.5,463.5C 363.333,469.833 363.167,476.167 363,482.5C 360.31,489.856 354.976,493.523 347,493.5C 342.727,493.938 339.227,492.605 336.5,489.5C 338.451,488.284 339.951,486.618 341,484.5C 344.443,461.981 342.443,439.981 335,418.5C 321.058,389.627 307.725,360.627 295,331.5C 296.704,333.373 298.537,335.04 300.5,336.5 Z"/></g>
<g><path style="opacity:0.986" fill="#e9f5fe" d="M 164.5,348.5 C 165.167,348.833 165.833,349.167 166.5,349.5C 156.167,372.167 145.833,394.833 135.5,417.5C 132.264,420.797 128.597,423.63 124.5,426C 113.668,431.388 102.668,436.388 91.5,441C 81.485,443.242 74.3183,439.742 70,430.5C 69.3333,426.833 69.3333,423.167 70,419.5C 78.0326,393.003 92.8659,371.336 114.5,354.5C 112.611,364.673 110.611,374.839 108.5,385C 108.542,386.967 109.042,388.801 110,390.5C 116.35,395.228 121.016,393.895 124,386.5C 127.023,369.516 130.523,352.683 134.5,336C 136.286,335.215 137.786,334.049 139,332.5C 137.637,345.471 143.471,351.637 156.5,351C 158.909,349.293 161.575,348.46 164.5,348.5 Z"/></g>
<g><path style="opacity:0.992" fill="#e9f5fe" d="M 414.5,438.5 C 391.372,431.346 372.372,418.346 357.5,399.5C 367.496,400.667 377.496,401.501 387.5,402C 393.258,399.89 394.758,396.057 392,390.5C 390.681,388.513 388.848,387.346 386.5,387C 372.302,385.385 358.135,383.552 344,381.5C 342.93,381.528 342.097,381.861 341.5,382.5C 340.728,381.306 339.728,380.306 338.5,379.5C 337.833,379.5 337.5,379.167 337.5,378.5C 325.167,364.5 312.833,350.5 300.5,336.5C 300.5,335.833 300.833,335.5 301.5,335.5C 310.099,340.632 319.099,344.966 328.5,348.5C 342.693,354.649 350.36,349.982 351.5,334.5C 351.435,334.062 351.601,333.728 352,333.5C 361.535,342.704 371.368,351.537 381.5,360C 399.489,376.795 412.323,396.962 420,420.5C 421.081,427.422 419.247,433.422 414.5,438.5 Z"/></g>
<g><path style="opacity:1" fill="#9ae6fc" d="M 229.5,345.5 C 228.941,363.178 228.275,380.845 227.5,398.5C 226.655,399.671 225.989,401.005 225.5,402.5C 220.439,416.848 215.272,431.181 210,445.5C 200.596,462.767 188.429,477.934 173.5,491C 166.719,494.428 160.053,494.261 153.5,490.5C 159.071,483.423 165.238,476.756 172,470.5C 176.721,464.779 181.054,458.779 185,452.5C 199.945,413.61 214.611,374.61 229,335.5C 229.498,338.817 229.665,342.15 229.5,345.5 Z"/></g>
<g><path style="opacity:0.991" fill="#e9f5fe" d="M 231.5,341.5 C 233.888,353.948 237.722,365.948 243,377.5C 243.66,379.324 244.827,380.657 246.5,381.5C 247.453,383.61 249.119,384.777 251.5,385C 254.888,385.659 258.221,385.492 261.5,384.5C 263.893,407.626 264.726,430.96 264,454.5C 261.198,473.732 255.032,491.732 245.5,508.5C 242.376,506.276 240.209,503.276 239,499.5C 232.658,486.474 228.325,472.807 226,458.5C 225.173,445.327 225.34,432.327 226.5,419.5C 226.336,422.187 226.503,424.854 227,427.5C 232.78,436.28 238.946,444.78 245.5,453C 253.667,454.167 257.167,450.667 256,442.5C 245.857,428.202 236.357,413.535 227.5,398.5C 228.275,380.845 228.941,363.178 229.5,345.5C 230.167,344.167 230.833,342.833 231.5,341.5 Z"/></g>
<g><path style="opacity:1" fill="#9ae6fc" d="M 172.5,379.5 C 172.833,379.5 173.167,379.5 173.5,379.5C 177.257,394.643 180.757,409.976 184,425.5C 184.498,435.42 180.165,438.42 171,434.5C 167.409,423.585 164.576,412.585 162.5,401.5C 166.379,394.409 169.712,387.076 172.5,379.5 Z"/></g>
<g><path style="opacity:1" fill="#c9effe" d="M 357.5,399.5 C 352.195,393.86 346.861,388.193 341.5,382.5C 342.097,381.861 342.93,381.528 344,381.5C 358.135,383.552 372.302,385.385 386.5,387C 388.848,387.346 390.681,388.513 392,390.5C 394.758,396.057 393.258,399.89 387.5,402C 377.496,401.501 367.496,400.667 357.5,399.5 Z"/></g>
<g><path style="opacity:1" fill="#c8effe" d="M 227.5,398.5 C 236.357,413.535 245.857,428.202 256,442.5C 257.167,450.667 253.667,454.167 245.5,453C 238.946,444.78 232.78,436.28 227,427.5C 226.503,424.854 226.336,422.187 226.5,419.5C 226.822,413.642 226.489,407.975 225.5,402.5C 225.989,401.005 226.655,399.671 227.5,398.5 Z"/></g>
<g><path style="opacity:1" fill="#9ae6fc" d="M 285.5,402.5 C 298.472,410.322 311.472,418.155 324.5,426C 326.57,426.948 328.07,428.448 329,430.5C 330.5,439 327,442.5 318.5,441C 310.859,435.516 302.859,430.683 294.5,426.5C 290.987,418.786 287.987,410.786 285.5,402.5 Z"/></g>
</svg>
