<?xml version="1.0" encoding="UTF-8"?>
<!DOCTYPE svg PUBLIC "-//W3C//DTD SVG 1.1//EN" "http://www.w3.org/Graphics/SVG/1.1/DTD/svg11.dtd">
<svg xmlns="http://www.w3.org/2000/svg" version="1.1" width="512px" height="512px" style="shape-rendering:geometricPrecision; text-rendering:geometricPrecision; image-rendering:optimizeQuality; fill-rule:evenodd; clip-rule:evenodd" xmlns:xlink="http://www.w3.org/1999/xlink">
<g><path style="opacity:1" fill="#ffc344" d="M 247.5,-0.5 C 252.833,-0.5 258.167,-0.5 263.5,-0.5C 272.471,2.2495 278.971,7.91616 283,16.5C 286.762,33.4997 289.595,50.6664 291.5,68C 288.923,94.8526 286.256,121.686 283.5,148.5C 283.567,149.959 283.234,151.292 282.5,152.5C 271.34,149.92 260.006,148.92 248.5,149.5C 252.634,148.515 256.968,148.182 261.5,148.5C 263.488,124.491 265.655,100.491 268,76.5C 268.069,57.6446 266.069,38.978 262,20.5C 260.254,16.6733 258.254,13.0066 256,9.5C 252.263,6.58318 248.763,3.58318 245.5,0.5C 246.492,0.67158 247.158,0.338246 247.5,-0.5 Z"/></g>
<g><path style="opacity:0.998" fill="#ffd05a" d="M 245.5,0.5 C 248.763,3.58318 252.263,6.58318 256,9.5C 258.254,13.0066 260.254,16.6733 262,20.5C 266.069,38.978 268.069,57.6446 268,76.5C 265.655,100.491 263.488,124.491 261.5,148.5C 256.968,148.182 252.634,148.515 248.5,149.5C 247.833,149.5 247.167,149.5 246.5,149.5C 240.416,150.064 234.416,151.064 228.5,152.5C 225.739,123.855 223.073,95.1885 220.5,66.5C 221.575,54.1299 222.908,41.7965 224.5,29.5C 225.688,15.6425 232.688,5.97588 245.5,0.5 Z"/></g>
<g><path style="opacity:0.986" fill="#fea95b" d="M 209.5,10.5 C 207.14,14.5607 205.306,18.894 204,23.5C 201.263,37.7323 199.429,52.0656 198.5,66.5C 200.946,97.851 203.613,129.184 206.5,160.5C 205.101,161.89 203.434,162.89 201.5,163.5C 201.443,162.391 201.11,161.391 200.5,160.5C 200.5,159.833 200.167,159.5 199.5,159.5C 198.833,159.5 198.5,159.167 198.5,158.5C 199.833,158.167 199.833,157.833 198.5,157.5C 189.972,133.753 181.139,110.086 172,86.5C 168.025,68.033 166.025,49.3663 166,30.5C 170.091,15.5313 179.924,7.86459 195.5,7.5C 200.48,7.24647 205.147,8.24647 209.5,10.5 Z"/></g>
<g><path style="opacity:1" fill="#fe9738" d="M 209.5,10.5 C 217.127,14.7901 222.127,21.1234 224.5,29.5C 222.908,41.7965 221.575,54.1299 220.5,66.5C 223.073,95.1885 225.739,123.855 228.5,152.5C 220.95,154.61 213.617,157.277 206.5,160.5C 203.613,129.184 200.946,97.851 198.5,66.5C 199.429,52.0656 201.263,37.7323 204,23.5C 205.306,18.894 207.14,14.5607 209.5,10.5 Z"/></g>
<g><path style="opacity:1" fill="#fec344" d="M 395.5,72.5 C 393.864,73.7489 392.697,75.4156 392,77.5C 388.115,89.156 383.448,100.489 378,111.5C 361.947,134.047 346.113,156.713 330.5,179.5C 325.793,175.49 321.126,171.49 316.5,167.5C 330.169,148.323 343.669,128.99 357,109.5C 362.611,95.9448 367.944,82.2782 373,68.5C 377.579,51.335 372.079,38.6684 356.5,30.5C 377.35,25.3392 390.85,33.0059 397,53.5C 397.942,59.7438 397.109,65.7438 394.5,71.5C 394.624,72.1067 394.957,72.44 395.5,72.5 Z"/></g>
<g><path style="opacity:0.99" fill="#ffd05a" d="M 356.5,30.5 C 372.079,38.6684 377.579,51.335 373,68.5C 367.944,82.2782 362.611,95.9448 357,109.5C 343.669,128.99 330.169,148.323 316.5,167.5C 305.933,160.886 294.599,155.886 282.5,152.5C 283.234,151.292 283.567,149.959 283.5,148.5C 295.634,122.227 307.801,95.8932 320,69.5C 329.079,57.0829 338.913,45.2496 349.5,34C 351.86,32.8201 354.193,31.6534 356.5,30.5 Z"/></g>
<g><path style="opacity:1" fill="#fe9739" d="M 198.5,157.5 C 198.5,157.833 198.5,158.167 198.5,158.5C 198.5,159.167 198.833,159.5 199.5,159.5C 200.167,159.5 200.5,159.833 200.5,160.5C 201.11,161.391 201.443,162.391 201.5,163.5C 193.62,168.371 186.286,174.037 179.5,180.5C 175.5,177.833 171.5,175.167 167.5,172.5C 169.812,170.364 172.312,168.364 175,166.5C 177.31,161.715 176.643,157.381 173,153.5C 156.542,133.373 139.709,113.54 122.5,94C 110.264,84.9157 97.9311,76.0824 85.5,67.5C 93.0628,64.855 100.729,65.0217 108.5,68C 124.477,77.9707 139.31,89.4707 153,102.5C 168.031,121.023 183.198,139.356 198.5,157.5 Z"/></g>
<g><path style="opacity:1" fill="#fe9739" d="M 353.5,198.5 C 352.833,198.5 352.5,198.833 352.5,199.5C 352.167,199.5 351.833,199.5 351.5,199.5C 350.833,199.5 350.5,199.833 350.5,200.5C 349.609,201.11 348.609,201.443 347.5,201.5C 344.917,198.003 342.584,194.336 340.5,190.5C 359.433,175.435 377.933,159.768 396,143.5C 404.245,132.677 412.245,121.677 420,110.5C 428.224,91.64 423.391,77.3066 405.5,67.5C 425.041,62.1899 438.208,69.1899 445,88.5C 446.664,97.5096 444.997,105.843 440,113.5C 432.667,123.5 425.333,133.5 418,143.5C 414.833,146.667 411.667,149.833 408.5,153C 389.977,168.031 371.644,183.198 353.5,198.5 Z"/></g>
<g><path style="opacity:0.999" fill="#fea85b" d="M 405.5,67.5 C 423.391,77.3066 428.224,91.64 420,110.5C 412.245,121.677 404.245,132.677 396,143.5C 377.933,159.768 359.433,175.435 340.5,190.5C 337.195,186.859 333.862,183.192 330.5,179.5C 346.113,156.713 361.947,134.047 378,111.5C 383.448,100.489 388.115,89.156 392,77.5C 392.697,75.4156 393.864,73.7489 395.5,72.5C 398.387,69.9483 401.72,68.2816 405.5,67.5 Z"/></g>
<g><path style="opacity:0.996" fill="#fea95b" d="M 85.5,67.5 C 97.9311,76.0824 110.264,84.9157 122.5,94C 139.709,113.54 156.542,133.373 173,153.5C 176.643,157.381 177.31,161.715 175,166.5C 172.312,168.364 169.812,170.364 167.5,172.5C 167.167,172.5 166.833,172.5 166.5,172.5C 147.918,158.531 128.918,145.031 109.5,132C 98.6583,127.275 87.6583,122.941 76.5,119C 75.4293,118.148 74.4293,117.315 73.5,116.5C 63.9194,104.112 63.0861,91.1124 71,77.5C 74.6617,72.3178 79.495,68.9845 85.5,67.5 Z"/></g>
<g><path style="opacity:0.99" fill="#ffd05a" d="M 73.5,116.5 C 74.4293,117.315 75.4293,118.148 76.5,119C 87.6583,122.941 98.6583,127.275 109.5,132C 128.918,145.031 147.918,158.531 166.5,172.5C 151.044,185.405 140.044,201.405 133.5,220.5C 113.859,211.681 94.1927,202.848 74.5,194C 63.1667,185.333 51.8333,176.667 40.5,168C 26.8494,154.994 25.016,140.494 35,124.5C 46.0267,113.37 58.86,110.703 73.5,116.5 Z"/></g>
<g><path style="opacity:1" fill="#fd4855" d="M 246.5,149.5 C 247.167,149.5 247.833,149.5 248.5,149.5C 260.006,148.92 271.34,149.92 282.5,152.5C 294.599,155.886 305.933,160.886 316.5,167.5C 321.126,171.49 325.793,175.49 330.5,179.5C 333.862,183.192 337.195,186.859 340.5,190.5C 342.584,194.336 344.917,198.003 347.5,201.5C 352.537,209.944 356.203,218.944 358.5,228.5C 362.162,245.707 362.495,263.041 359.5,280.5C 358.191,284.086 356.858,287.752 355.5,291.5C 350.37,305.769 342.704,318.436 332.5,329.5C 325.407,336.263 317.74,342.263 309.5,347.5C 303.74,350.713 297.74,353.38 291.5,355.5C 288.833,356.5 286.167,357.5 283.5,358.5C 271.986,361.049 260.319,362.049 248.5,361.5C 247.833,361.5 247.167,361.5 246.5,361.5C 293.433,353.408 323.6,326.408 337,280.5C 346.262,228.877 328.762,189.377 284.5,162C 272.324,155.965 259.657,151.798 246.5,149.5 Z"/></g>
<g><path style="opacity:1" fill="#fd636e" d="M 246.5,149.5 C 259.657,151.798 272.324,155.965 284.5,162C 328.762,189.377 346.262,228.877 337,280.5C 323.6,326.408 293.433,353.408 246.5,361.5C 240.105,360.864 233.772,359.864 227.5,358.5C 221.343,356.559 215.343,354.226 209.5,351.5C 198.963,346.067 189.296,339.401 180.5,331.5C 167.58,317.668 158.246,301.668 152.5,283.5C 143.662,244.307 152.662,209.974 179.5,180.5C 186.286,174.037 193.62,168.371 201.5,163.5C 203.434,162.89 205.101,161.89 206.5,160.5C 213.617,157.277 220.95,154.61 228.5,152.5C 234.416,151.064 240.416,150.064 246.5,149.5 Z"/></g>
<g><path style="opacity:0.995" fill="#fea95b" d="M 461.5,166.5 C 481.925,176.607 487.092,191.941 477,212.5C 473.565,216.445 469.732,219.778 465.5,222.5C 454.737,220.463 444.07,220.13 433.5,221.5C 408.44,223.227 383.44,225.561 358.5,228.5C 356.203,218.944 352.537,209.944 347.5,201.5C 348.609,201.443 349.609,201.11 350.5,200.5C 351.167,200.5 351.5,200.167 351.5,199.5C 351.833,199.5 352.167,199.5 352.5,199.5C 353.167,199.5 353.5,199.167 353.5,198.5C 377.247,189.972 400.914,181.139 424.5,172C 436.699,169.267 449.032,167.433 461.5,166.5 Z"/></g>
<g><path style="opacity:1" fill="#fe9739" d="M 482.5,224.5 C 476.705,224.56 471.038,223.893 465.5,222.5C 469.732,219.778 473.565,216.445 477,212.5C 487.092,191.941 481.925,176.607 461.5,166.5C 479.978,161.83 493.478,167.83 502,184.5C 506.971,203.555 500.471,216.889 482.5,224.5 Z"/></g>
<g><path style="opacity:1" fill="#fd4755" d="M 215.5,191.5 C 223.87,191.681 227.037,195.681 225,203.5C 219.837,209.062 215.171,208.729 211,202.5C 209.776,197.626 211.276,193.959 215.5,191.5 Z"/></g>
<g><path style="opacity:1" fill="#fd4856" d="M 252.5,191.5 C 259.831,191 263.331,194.333 263,201.5C 259.632,208.175 254.965,209.175 249,204.5C 246.319,199.055 247.485,194.722 252.5,191.5 Z"/></g>
<g><path style="opacity:1" fill="#fd4855" d="M 290.5,191.5 C 298.149,191.314 301.315,194.981 300,202.5C 294.67,209.311 289.67,208.977 285,201.5C 284.477,196.88 286.31,193.547 290.5,191.5 Z"/></g>
<g><path style="opacity:0.99" fill="#ffd05a" d="M 131.5,225.5 C 126.508,245.025 126.174,264.691 130.5,284.5C 109.066,286.996 87.5656,288.996 66,290.5C 53.8262,288.944 41.6595,287.277 29.5,285.5C 14.634,284.614 4.63402,277.281 -0.5,263.5C -0.5,258.167 -0.5,252.833 -0.5,247.5C 3.19897,235.639 11.199,228.472 23.5,226C 37.786,223.507 52.1193,221.34 66.5,219.5C 88.1519,221.699 109.819,223.699 131.5,225.5 Z"/></g>
<g><path style="opacity:1" fill="#ffc345" d="M 433.5,221.5 C 444.07,220.13 454.737,220.463 465.5,222.5C 471.038,223.893 476.705,224.56 482.5,224.5C 496.619,226.625 506.285,234.291 511.5,247.5C 511.5,252.833 511.5,258.167 511.5,263.5C 508.751,272.471 503.084,278.971 494.5,283C 473.788,288.343 452.788,290.843 431.5,290.5C 442.981,288.098 454.648,285.932 466.5,284C 485.205,277.768 492.371,264.935 488,245.5C 484.336,235.837 477.503,229.67 467.5,227C 456.157,225.166 444.823,223.332 433.5,221.5 Z"/></g>
<g><path style="opacity:0.996" fill="#ffd05a" d="M 433.5,221.5 C 444.823,223.332 456.157,225.166 467.5,227C 477.503,229.67 484.336,235.837 488,245.5C 492.371,264.935 485.205,277.768 466.5,284C 454.648,285.932 442.981,288.098 431.5,290.5C 408.507,288.101 385.507,285.767 362.5,283.5C 361.5,283.5 360.5,283.5 359.5,283.5C 359.5,282.5 359.5,281.5 359.5,280.5C 362.495,263.041 362.162,245.707 358.5,228.5C 383.44,225.561 408.44,223.227 433.5,221.5 Z"/></g>
<g><path style="opacity:1" fill="#ffc244" d="M 166.5,172.5 C 166.833,172.5 167.167,172.5 167.5,172.5C 171.5,175.167 175.5,177.833 179.5,180.5C 152.662,209.974 143.662,244.307 152.5,283.5C 145.49,283.668 138.49,284.001 131.5,284.5C 131.167,284.5 130.833,284.5 130.5,284.5C 126.174,264.691 126.508,245.025 131.5,225.5C 137.146,226.453 142.812,226.953 148.5,227C 143.474,224.819 138.474,222.652 133.5,220.5C 140.044,201.405 151.044,185.405 166.5,172.5 Z"/></g>
<g><path style="opacity:1" fill="#fd4755" d="M 178.5,229.5 C 187.791,227.702 191.624,231.368 190,240.5C 186.295,244.982 181.962,245.649 177,242.5C 174.639,237.729 175.139,233.396 178.5,229.5 Z"/></g>
<g><path style="opacity:1" fill="#fd4755" d="M 214.5,229.5 C 225.25,228.757 228.25,233.257 223.5,243C 214.406,246.235 210.239,243.068 211,233.5C 211.69,231.65 212.856,230.316 214.5,229.5 Z"/></g>
<g><path style="opacity:1" fill="#fd4855" d="M 253.5,228.5 C 260.465,228.961 263.632,232.628 263,239.5C 260.459,244.069 256.625,245.569 251.5,244C 245.859,238.036 246.526,232.869 253.5,228.5 Z"/></g>
<g><path style="opacity:1" fill="#fd4855" d="M 288.5,229.5 C 297.791,227.702 301.624,231.368 300,240.5C 296.295,244.982 291.962,245.649 287,242.5C 283.456,237.682 283.956,233.349 288.5,229.5 Z"/></g>
<g><path style="opacity:1" fill="#fd4755" d="M 324.5,229.5 C 335.25,228.757 338.25,233.257 333.5,243C 324.406,246.235 320.239,243.068 321,233.5C 321.69,231.65 322.856,230.316 324.5,229.5 Z"/></g>
<g><path style="opacity:1" fill="#fd4755" d="M 179.5,266.5 C 189.554,266.379 192.554,270.879 188.5,280C 178.766,283.922 174.6,280.756 176,270.5C 176.69,268.65 177.856,267.316 179.5,266.5 Z"/></g>
<g><path style="opacity:1" fill="#fd4755" d="M 214.5,266.5 C 223.778,265.376 227.278,269.376 225,278.5C 220.998,282.122 216.665,282.456 212,279.5C 209.458,274.438 210.292,270.105 214.5,266.5 Z"/></g>
<g><path style="opacity:1" fill="#fd4855" d="M 251.5,266.5 C 261.059,265.546 264.559,269.546 262,278.5C 256.513,284.133 251.846,283.466 248,276.5C 247.182,272.469 248.349,269.136 251.5,266.5 Z"/></g>
<g><path style="opacity:1" fill="#fd4855" d="M 289.5,266.5 C 299.554,266.379 302.554,270.879 298.5,280C 290.064,283.941 285.564,281.441 285,272.5C 285.804,269.854 287.304,267.854 289.5,266.5 Z"/></g>
<g><path style="opacity:1" fill="#fd4755" d="M 324.5,266.5 C 331.067,265.097 334.733,267.597 335.5,274C 334.994,281.053 331.328,283.386 324.5,281C 320.788,278.487 319.622,274.987 321,270.5C 322.376,269.295 323.542,267.962 324.5,266.5 Z"/></g>
<g><path style="opacity:1" fill="#ffc344" d="M 359.5,280.5 C 359.5,281.5 359.5,282.5 359.5,283.5C 360.5,283.5 361.5,283.5 362.5,283.5C 386.958,294.891 411.624,306.058 436.5,317C 450.578,327.074 464.078,337.907 477,349.5C 486.3,366.454 483.467,380.954 468.5,393C 459.846,397.799 450.846,398.632 441.5,395.5C 456.105,387.955 461.938,375.955 459,359.5C 456.685,352.381 452.519,346.548 446.5,342C 436.785,333.95 426.785,326.284 416.5,319C 396.184,309.731 375.851,300.564 355.5,291.5C 356.858,287.752 358.191,284.086 359.5,280.5 Z"/></g>
<g><path style="opacity:0.991" fill="#fea95b" d="M 130.5,284.5 C 130.833,284.5 131.167,284.5 131.5,284.5C 134.553,295.162 139.053,305.162 145,314.5C 145.671,315.252 146.504,315.586 147.5,315.5C 126.383,323.933 105.05,332.099 83.5,340C 65.9435,343.07 48.2769,344.737 30.5,345C 11.1655,338.172 3.99883,324.672 9,304.5C 13.4939,295.501 20.3273,289.168 29.5,285.5C 41.6595,287.277 53.8262,288.944 66,290.5C 87.5656,288.996 109.066,286.996 130.5,284.5 Z"/></g>
<g><path style="opacity:1" fill="#ffd05a" d="M 355.5,291.5 C 375.851,300.564 396.184,309.731 416.5,319C 426.785,326.284 436.785,333.95 446.5,342C 452.519,346.548 456.685,352.381 459,359.5C 461.938,375.955 456.105,387.955 441.5,395.5C 440.292,394.766 438.959,394.433 437.5,394.5C 427.996,389.548 417.996,385.548 407.5,382.5C 381.626,365.942 356.626,348.275 332.5,329.5C 342.704,318.436 350.37,305.769 355.5,291.5 Z"/></g>
<g><path style="opacity:1" fill="#fd4855" d="M 215.5,303.5 C 223.87,303.681 227.037,307.681 225,315.5C 219.837,321.062 215.171,320.729 211,314.5C 209.393,309.438 210.893,305.772 215.5,303.5 Z"/></g>
<g><path style="opacity:1" fill="#fd4856" d="M 252.5,303.5 C 260.678,302.842 264.178,306.509 263,314.5C 258,321.167 253,321.167 248,314.5C 246.776,309.626 248.276,305.959 252.5,303.5 Z"/></g>
<g><path style="opacity:1" fill="#fd4855" d="M 289.5,303.5 C 297.709,302.872 301.209,306.539 300,314.5C 294.67,321.311 289.67,320.977 285,313.5C 284.333,312.167 284.333,310.833 285,309.5C 286.332,307.34 287.832,305.34 289.5,303.5 Z"/></g>
<g><path style="opacity:1" fill="#fe9738" d="M 152.5,283.5 C 158.246,301.668 167.58,317.668 180.5,331.5C 164.6,354.95 148.433,378.283 132,401.5C 126.906,413.642 121.74,425.642 116.5,437.5C 109.956,443.267 102.289,445.933 93.5,445.5C 97.7071,430.382 103.207,415.716 110,401.5C 125.333,379.5 140.667,357.5 156,335.5C 156.667,333.167 156.667,330.833 156,328.5C 153.999,325.669 151.833,323.003 149.5,320.5C 151.902,317.785 154.568,315.285 157.5,313C 154.161,313.484 150.827,314.317 147.5,315.5C 146.504,315.586 145.671,315.252 145,314.5C 139.053,305.162 134.553,295.162 131.5,284.5C 138.49,284.001 145.49,283.668 152.5,283.5 Z"/></g>
<g><path style="opacity:0.987" fill="#fea95b" d="M 149.5,320.5 C 151.833,323.003 153.999,325.669 156,328.5C 156.667,330.833 156.667,333.167 156,335.5C 140.667,357.5 125.333,379.5 110,401.5C 103.207,415.716 97.7071,430.382 93.5,445.5C 79.3526,443.857 70.1859,436.19 66,422.5C 64.9653,415.645 65.632,408.978 68,402.5C 77.835,387.008 89.0017,372.508 101.5,359C 117.663,346.333 133.663,333.5 149.5,320.5 Z"/></g>
<g><path style="opacity:0.993" fill="#fea95b" d="M 332.5,329.5 C 356.626,348.275 381.626,365.942 407.5,382.5C 411.069,387.951 414.903,393.284 419,398.5C 428.259,417.823 423.759,432.823 405.5,443.5C 402.484,443.159 399.818,441.993 397.5,440C 387.5,432.667 377.5,425.333 367.5,418C 349.267,396.336 330.934,374.836 312.5,353.5C 312.5,352.833 312.167,352.5 311.5,352.5C 311.107,350.716 310.441,349.05 309.5,347.5C 317.74,342.263 325.407,336.263 332.5,329.5 Z"/></g>
<g><path style="opacity:0.997" fill="#ffd05a" d="M 180.5,331.5 C 189.296,339.401 198.963,346.067 209.5,351.5C 196.437,380.513 183.27,409.513 170,438.5C 162.242,449.014 154.242,459.347 146,469.5C 142.233,473.776 138.066,477.443 133.5,480.5C 120.825,475.347 114.159,465.847 113.5,452C 113.795,446.993 114.795,442.159 116.5,437.5C 121.74,425.642 126.906,413.642 132,401.5C 148.433,378.283 164.6,354.95 180.5,331.5 Z"/></g>
<g><path style="opacity:1" fill="#fe9738" d="M 309.5,347.5 C 310.441,349.05 311.107,350.716 311.5,352.5C 312.167,352.5 312.5,352.833 312.5,353.5C 321.758,378.104 330.925,402.771 340,427.5C 343.135,445.05 344.802,462.716 345,480.5C 338.462,499.359 325.296,506.692 305.5,502.5C 308.763,499.756 312.263,497.089 316,494.5C 321.649,488.081 324.149,480.581 323.5,472C 322.909,456.344 321.075,440.844 318,425.5C 309.062,402.182 300.228,378.849 291.5,355.5C 297.74,353.38 303.74,350.713 309.5,347.5 Z"/></g>
<g><path style="opacity:1" fill="#ffc344" d="M 209.5,351.5 C 215.343,354.226 221.343,356.559 227.5,358.5C 227.5,359.833 227.5,361.167 227.5,362.5C 217.109,384.958 206.942,407.625 197,430.5C 186.743,447.169 174.91,462.669 161.5,477C 152.645,482.584 143.312,483.751 133.5,480.5C 138.066,477.443 142.233,473.776 146,469.5C 154.242,459.347 162.242,449.014 170,438.5C 183.27,409.513 196.437,380.513 209.5,351.5 Z"/></g>
<g><path style="opacity:0.998" fill="#fea85b" d="M 291.5,355.5 C 300.228,378.849 309.062,402.182 318,425.5C 321.075,440.844 322.909,456.344 323.5,472C 324.149,480.581 321.649,488.081 316,494.5C 312.263,497.089 308.763,499.756 305.5,502.5C 295.99,498.325 289.656,491.325 286.5,481.5C 288.256,468.377 289.589,455.21 290.5,442C 288.398,414.145 286.064,386.312 283.5,358.5C 286.167,357.5 288.833,356.5 291.5,355.5 Z"/></g>
<g><path style="opacity:0.99" fill="#ffd05a" d="M 227.5,358.5 C 233.772,359.864 240.105,360.864 246.5,361.5C 247.167,361.5 247.833,361.5 248.5,361.5C 252.634,362.485 256.968,362.818 261.5,362.5C 263.534,385.506 265.701,408.506 268,431.5C 268.182,452.084 265.849,472.417 261,492.5C 259.587,495.661 257.92,498.661 256,501.5C 252.263,504.417 248.763,507.417 245.5,510.5C 237.284,507.785 231.451,502.451 228,494.5C 224.142,477.85 221.308,461.017 219.5,444C 222.2,416.83 224.867,389.663 227.5,362.5C 227.5,361.167 227.5,359.833 227.5,358.5 Z"/></g>
<g><path style="opacity:1" fill="#ffc244" d="M 283.5,358.5 C 286.064,386.312 288.398,414.145 290.5,442C 289.589,455.21 288.256,468.377 286.5,481.5C 284.837,496.156 277.171,506.156 263.5,511.5C 258.167,511.5 252.833,511.5 247.5,511.5C 247.158,510.662 246.492,510.328 245.5,510.5C 248.763,507.417 252.263,504.417 256,501.5C 257.92,498.661 259.587,495.661 261,492.5C 265.849,472.417 268.182,452.084 268,431.5C 265.701,408.506 263.534,385.506 261.5,362.5C 256.968,362.818 252.634,362.485 248.5,361.5C 260.319,362.049 271.986,361.049 283.5,358.5 Z"/></g>
<g><path style="opacity:1" fill="#fe9739" d="M 407.5,382.5 C 417.996,385.548 427.996,389.548 437.5,394.5C 448.481,409.085 448.148,423.418 436.5,437.5C 427.245,445.562 416.912,447.562 405.5,443.5C 423.759,432.823 428.259,417.823 419,398.5C 414.903,393.284 411.069,387.951 407.5,382.5 Z"/></g>
</svg>
