<?xml version="1.0" encoding="UTF-8"?>
<!DOCTYPE svg PUBLIC "-//W3C//DTD SVG 1.1//EN" "http://www.w3.org/Graphics/SVG/1.1/DTD/svg11.dtd">
<svg xmlns="http://www.w3.org/2000/svg" version="1.1" width="512px" height="512px" style="shape-rendering:geometricPrecision; text-rendering:geometricPrecision; image-rendering:optimizeQuality; fill-rule:evenodd; clip-rule:evenodd" xmlns:xlink="http://www.w3.org/1999/xlink">
<g><path style="opacity:1" fill="#c8effd" d="M 350.5,21.5 C 371.199,31.398 378.032,47.398 371,69.5C 366.738,76.3681 362.238,83.0348 357.5,89.5C 348.984,82.7447 339.317,78.4114 328.5,76.5C 329.076,68.4798 329.91,60.4798 331,52.5C 333.9,32.956 326.4,19.2894 308.5,11.5C 323.707,6.88814 336.707,10.5548 347.5,22.5C 348.417,21.8728 349.417,21.5394 350.5,21.5 Z"/></g>
<g><path style="opacity:0.989" fill="#eaf5fe" d="M 308.5,11.5 C 326.4,19.2894 333.9,32.956 331,52.5C 329.91,60.4798 329.076,68.4798 328.5,76.5C 322.833,76.5 317.167,76.5 311.5,76.5C 303.307,77.7686 295.64,80.4353 288.5,84.5C 288.5,83.8333 288.5,83.1667 288.5,82.5C 286.794,69.6834 285.127,56.85 283.5,44C 284.188,31.6747 289.521,22.0081 299.5,15C 302.309,13.2589 305.309,12.0922 308.5,11.5 Z"/></g>
<g><path style="opacity:1" fill="#9ae6fb" d="M 371.5,103.5 C 370.833,103.833 370.167,104.167 369.5,104.5C 366.221,98.9525 362.221,93.9525 357.5,89.5C 362.238,83.0348 366.738,76.3681 371,69.5C 378.032,47.398 371.199,31.398 350.5,21.5C 371.35,16.6749 386.183,24.0082 395,43.5C 398.174,55.2897 396.507,66.2897 390,76.5C 383.319,85.2104 377.153,94.2104 371.5,103.5 Z"/></g>
<g><path style="opacity:0.986" fill="#c8effd" d="M 281.5,78.5 C 268.399,82.2637 257.732,89.597 249.5,100.5C 255.926,102.799 262.593,103.799 269.5,103.5C 257.503,124.146 257.503,144.813 269.5,165.5C 268.833,165.5 268.167,165.5 267.5,165.5C 261.185,166.313 254.852,166.979 248.5,167.5C 235.56,145.713 235.226,123.713 247.5,101.5C 239.539,100.228 231.539,99.7278 223.5,100C 217.785,101.362 212.451,103.529 207.5,106.5C 200.616,84.9903 207.283,69.157 227.5,59C 236.599,56.798 245.599,57.1313 254.5,60C 263.913,65.6953 272.913,71.862 281.5,78.5 Z"/></g>
<g><path style="opacity:1" fill="#fec346" d="M 311.5,76.5 C 317.167,76.5 322.833,76.5 328.5,76.5C 339.317,78.4114 348.984,82.7447 357.5,89.5C 362.221,93.9525 366.221,98.9525 369.5,104.5C 380.136,124.486 380.136,144.486 369.5,164.5C 360.137,180.024 346.47,189.357 328.5,192.5C 322.479,193.726 316.479,193.726 310.5,192.5C 335.982,183.94 350.982,166.273 355.5,139.5C 355.333,138.833 355.167,138.167 355,137.5C 350.049,144.154 345.049,144.154 340,137.5C 339.547,129.952 343.047,126.452 350.5,127C 352.667,127.833 354.167,129.333 355,131.5C 354.151,112.968 346.317,98.1343 331.5,87C 324.867,83.186 318.2,79.686 311.5,76.5 Z"/></g>
<g><path style="opacity:1" fill="#fed15b" d="M 311.5,76.5 C 318.2,79.686 324.867,83.186 331.5,87C 346.317,98.1343 354.151,112.968 355,131.5C 354.167,129.333 352.667,127.833 350.5,127C 343.047,126.452 339.547,129.952 340,137.5C 345.049,144.154 350.049,144.154 355,137.5C 355.167,138.167 355.333,138.833 355.5,139.5C 350.982,166.273 335.982,183.94 310.5,192.5C 302.649,191.217 295.316,188.55 288.5,184.5C 281.167,179.167 274.833,172.833 269.5,165.5C 257.503,144.813 257.503,124.146 269.5,103.5C 274.833,96.1667 281.167,89.8333 288.5,84.5C 295.64,80.4353 303.307,77.7686 311.5,76.5 Z"/></g>
<g><path style="opacity:1" fill="#9ae5fa" d="M 281.5,78.5 C 283.698,80.0981 286.031,81.4314 288.5,82.5C 288.5,83.1667 288.5,83.8333 288.5,84.5C 281.167,89.8333 274.833,96.1667 269.5,103.5C 262.593,103.799 255.926,102.799 249.5,100.5C 257.732,89.597 268.399,82.2637 281.5,78.5 Z"/></g>
<g><path style="opacity:0.986" fill="#e9f6fe" d="M 248.5,167.5 C 236.309,170.642 224.309,170.142 212.5,166C 194.59,153.924 189.756,137.757 198,117.5C 200.284,113.051 203.451,109.384 207.5,106.5C 212.451,103.529 217.785,101.362 223.5,100C 231.539,99.7278 239.539,100.228 247.5,101.5C 235.226,123.713 235.56,145.713 248.5,167.5 Z"/></g>
<g><path style="opacity:0.996" fill="#e9f5fe" d="M 397.5,100.5 C 421.992,112.784 427.826,131.118 415,155.5C 410.961,160.875 405.794,164.709 399.5,167C 389.421,167.232 379.421,166.399 369.5,164.5C 380.136,144.486 380.136,124.486 369.5,104.5C 370.167,104.167 370.833,103.833 371.5,103.5C 380.167,102.5 388.833,101.5 397.5,100.5 Z"/></g>
<g><path style="opacity:0.996" fill="#c8effd" d="M 431.5,162.5 C 425.429,166.413 418.763,168.746 411.5,169.5C 412.97,188.914 404.97,202.581 387.5,210.5C 374.763,203.38 362.596,195.38 351,186.5C 351.832,199.164 352.999,211.831 354.5,224.5C 353.929,239.472 346.929,250.305 333.5,257C 324.743,260.046 316.076,260.213 307.5,257.5C 326.172,250.165 334.006,236.499 331,216.5C 329.968,208.514 329.135,200.514 328.5,192.5C 346.47,189.357 360.137,180.024 369.5,164.5C 379.421,166.399 389.421,167.232 399.5,167C 405.794,164.709 410.961,160.875 415,155.5C 427.826,131.118 421.992,112.784 397.5,100.5C 421.727,95.6855 437.227,105.019 444,128.5C 445.649,142.06 441.482,153.394 431.5,162.5 Z"/></g>
<g><path style="opacity:1" fill="#ffc345" d="M 315.5,108.5 C 324.888,107.675 328.388,111.675 326,120.5C 320.885,126.075 316.219,125.742 312,119.5C 310.662,114.96 311.829,111.293 315.5,108.5 Z"/></g>
<g><path style="opacity:1" fill="#ffc344" d="M 288.5,126.5 C 296.149,126.314 299.315,129.981 298,137.5C 293.049,144.154 288.049,144.154 283,137.5C 282.176,132.482 284.009,128.815 288.5,126.5 Z"/></g>
<g><path style="opacity:1" fill="#ffc344" d="M 315.5,145.5 C 322.253,143.772 326.253,146.272 327.5,153C 326.008,159.418 322.008,161.751 315.5,160C 310.202,155.092 310.202,150.258 315.5,145.5 Z"/></g>
<g><path style="opacity:1" fill="#9ae6fc" d="M 431.5,162.5 C 437.387,180.67 432.721,195.504 417.5,207C 407.932,211.536 397.932,212.702 387.5,210.5C 404.97,202.581 412.97,188.914 411.5,169.5C 418.763,168.746 425.429,166.413 431.5,162.5 Z"/></g>
<g><path style="opacity:1" fill="#9ae6fb" d="M 267.5,165.5 C 268.167,165.5 268.833,165.5 269.5,165.5C 274.833,172.833 281.167,179.167 288.5,184.5C 287.291,197.34 285.958,210.173 284.5,223C 284.528,231.578 286.861,239.411 291.5,246.5C 284.985,249.141 278.319,249.807 271.5,248.5C 262.953,238.357 260.12,226.69 263,213.5C 264.496,204.874 265.163,196.208 265,187.5C 263.338,184.351 261.505,181.351 259.5,178.5C 261.905,174.027 264.571,169.694 267.5,165.5 Z"/></g>
<g><path style="opacity:0.999" fill="#c8effd" d="M 155.5,181.5 C 175.716,191.614 182.549,207.614 176,229.5C 171.671,236.652 167.171,243.652 162.5,250.5C 154.19,243.28 144.524,238.947 133.5,237.5C 134.003,229.473 134.837,221.473 136,213.5C 138.688,193.868 131.188,179.868 113.5,171.5C 128.195,167.564 140.862,171.064 151.5,182C 152.928,182.579 154.262,182.412 155.5,181.5 Z"/></g>
<g><path style="opacity:0.988" fill="#e9f5fe" d="M 113.5,171.5 C 131.188,179.868 138.688,193.868 136,213.5C 134.837,221.473 134.003,229.473 133.5,237.5C 127.037,236.23 120.704,236.23 114.5,237.5C 106.877,238.595 99.8773,241.262 93.5,245.5C 93.5,244.833 93.5,244.167 93.5,243.5C 91.7529,230.523 90.0862,217.523 88.5,204.5C 89.6759,188 98.0093,177 113.5,171.5 Z"/></g>
<g><path style="opacity:0.978" fill="#c7effe" d="M 259.5,178.5 C 261.505,181.351 263.338,184.351 265,187.5C 265.163,196.208 264.496,204.874 263,213.5C 260.12,226.69 262.953,238.357 271.5,248.5C 254.48,245.646 244.646,235.646 242,218.5C 241.01,208.136 243.676,198.802 250,190.5C 252.945,186.249 256.112,182.249 259.5,178.5 Z"/></g>
<g><path style="opacity:1" fill="#9be6fb" d="M 175.5,264.5 C 175.167,264.5 174.833,264.5 174.5,264.5C 170.904,259.564 166.904,254.897 162.5,250.5C 167.171,243.652 171.671,236.652 176,229.5C 182.549,207.614 175.716,191.614 155.5,181.5C 178.796,177.057 193.963,186.057 201,208.5C 201.988,215.668 201.322,222.668 199,229.5C 191.337,241.321 183.504,252.987 175.5,264.5 Z"/></g>
<g><path style="opacity:0.997" fill="#e9f5fe" d="M 288.5,184.5 C 295.316,188.55 302.649,191.217 310.5,192.5C 316.479,193.726 322.479,193.726 328.5,192.5C 329.135,200.514 329.968,208.514 331,216.5C 334.006,236.499 326.172,250.165 307.5,257.5C 301.062,255.387 295.728,251.721 291.5,246.5C 286.861,239.411 284.528,231.578 284.5,223C 285.958,210.173 287.291,197.34 288.5,184.5 Z"/></g>
<g><path style="opacity:1" fill="#9ae6fb" d="M 93.5,243.5 C 93.5,244.167 93.5,244.833 93.5,245.5C 85.5,250.167 79.1667,256.5 74.5,264.5C 67.76,263.991 61.0933,262.991 54.5,261.5C 57.441,257.056 60.941,253.056 65,249.5C 66.373,247.305 66.7063,244.971 66,242.5C 56.3066,233.736 45.8066,226.069 34.5,219.5C 43.1917,216.664 51.8584,217.164 60.5,221C 71.5288,228.51 82.5288,236.01 93.5,243.5 Z"/></g>
<g><path style="opacity:1" fill="#fec345" d="M 133.5,237.5 C 144.524,238.947 154.19,243.28 162.5,250.5C 166.904,254.897 170.904,259.564 174.5,264.5C 185.136,284.807 185.136,305.14 174.5,325.5C 164.869,340.436 151.203,349.436 133.5,352.5C 127.037,353.77 120.704,353.77 114.5,352.5C 142.251,344.582 157.418,326.249 160,297.5C 157.565,302.224 153.731,303.724 148.5,302C 143.687,297.959 143.354,293.625 147.5,289C 152.413,286.413 156.58,287.247 160,291.5C 156.963,263.295 141.796,245.295 114.5,237.5C 120.704,236.23 127.037,236.23 133.5,237.5 Z"/></g>
<g><path style="opacity:1" fill="#fed15b" d="M 114.5,237.5 C 141.796,245.295 156.963,263.295 160,291.5C 156.58,287.247 152.413,286.413 147.5,289C 143.354,293.625 143.687,297.959 148.5,302C 153.731,303.724 157.565,302.224 160,297.5C 157.418,326.249 142.251,344.582 114.5,352.5C 106.877,351.405 99.8773,348.738 93.5,344.5C 85.5,339.833 79.1667,333.5 74.5,325.5C 62.5467,305.16 62.5467,284.827 74.5,264.5C 79.1667,256.5 85.5,250.167 93.5,245.5C 99.8773,241.262 106.877,238.595 114.5,237.5 Z"/></g>
<g><path style="opacity:1" fill="#9be6fc" d="M 436.5,272.5 C 436.218,273.778 435.551,274.778 434.5,275.5C 428.407,277.588 423.074,280.921 418.5,285.5C 415.59,271.937 407.923,262.27 395.5,256.5C 413.138,251.659 426.804,256.993 436.5,272.5 Z"/></g>
<g><path style="opacity:0.985" fill="#e9f5fe" d="M 53.5,328.5 C 47.1652,329.083 40.8319,329.75 34.5,330.5C 16.6846,329.34 5.01792,320.34 -0.5,303.5C -0.5,297.833 -0.5,292.167 -0.5,286.5C 1.5813,278.685 5.91463,272.351 12.5,267.5C 21.1014,260.931 30.7681,258.764 41.5,261C 45.37,261.105 49.0366,261.938 52.5,263.5C 40.1882,285.412 40.5215,307.079 53.5,328.5 Z"/></g>
<g><path style="opacity:0.997" fill="#c8effd" d="M 236.5,322.5 C 230.633,326.683 224.133,329.349 217,330.5C 217.606,348.974 209.773,362.308 193.5,370.5C 190.309,369.908 187.309,368.741 184.5,367C 175.305,360.305 165.971,353.805 156.5,347.5C 156.167,348.667 155.833,349.833 155.5,351C 157.08,362.306 158.413,373.639 159.5,385C 157.759,406.574 146.093,418.408 124.5,420.5C 120.732,420.15 117.066,419.484 113.5,418.5C 132.101,409.298 139.601,394.298 136,373.5C 134.839,366.53 134.005,359.53 133.5,352.5C 151.203,349.436 164.869,340.436 174.5,325.5C 182.863,326.171 191.197,327.171 199.5,328.5C 211.065,325.971 219.231,319.304 224,308.5C 229.583,293.457 226.749,280.291 215.5,269C 211.252,265.709 206.585,263.209 201.5,261.5C 218.749,256.69 232.916,261.356 244,275.5C 251.333,288.5 251.333,301.5 244,314.5C 242,317.666 239.5,320.332 236.5,322.5 Z"/></g>
<g><path style="opacity:0.996" fill="#e9f5fe" d="M 201.5,261.5 C 206.585,263.209 211.252,265.709 215.5,269C 226.749,280.291 229.583,293.457 224,308.5C 219.231,319.304 211.065,325.971 199.5,328.5C 191.197,327.171 182.863,326.171 174.5,325.5C 185.136,305.14 185.136,284.807 174.5,264.5C 174.833,264.5 175.167,264.5 175.5,264.5C 184.094,263.009 192.761,262.009 201.5,261.5 Z"/></g>
<g><path style="opacity:1" fill="#c8eefd" d="M 34.5,219.5 C 45.8066,226.069 56.3066,233.736 66,242.5C 66.7063,244.971 66.373,247.305 65,249.5C 60.941,253.056 57.441,257.056 54.5,261.5C 61.0933,262.991 67.76,263.991 74.5,264.5C 62.5467,284.827 62.5467,305.16 74.5,325.5C 73.8333,325.833 73.1667,326.167 72.5,326.5C 72.5654,326.062 72.3988,325.728 72,325.5C 65.8767,326.62 59.7101,327.62 53.5,328.5C 40.5215,307.079 40.1882,285.412 52.5,263.5C 49.0366,261.938 45.37,261.105 41.5,261C 30.7681,258.764 21.1014,260.931 12.5,267.5C 6.46466,251.141 9.798,236.974 22.5,225C 26.1438,222.344 30.1438,220.511 34.5,219.5 Z"/></g>
<g><path style="opacity:1" fill="#ffc344" d="M 121.5,268.5 C 128.503,268.339 132.003,271.672 132,278.5C 129.917,283.904 126.084,285.737 120.5,284C 114.974,278.357 115.308,273.19 121.5,268.5 Z"/></g>
<g><path style="opacity:1" fill="#c9effd" d="M 436.5,272.5 C 458.871,270.589 473.371,280.256 480,301.5C 481.572,311.645 479.572,320.979 474,329.5C 464.605,339.063 455.105,348.396 445.5,357.5C 444.662,357.842 444.328,358.508 444.5,359.5C 441.853,354.205 439.186,348.872 436.5,343.5C 445.057,337.115 451.557,329.115 456,319.5C 460.833,298.834 453.666,284.167 434.5,275.5C 435.551,274.778 436.218,273.778 436.5,272.5 Z"/></g>
<g><path style="opacity:1" fill="#e9f5fe" d="M 434.5,275.5 C 453.666,284.167 460.833,298.834 456,319.5C 451.557,329.115 445.057,337.115 436.5,343.5C 425.921,330.878 412.587,322.878 396.5,319.5C 404.193,308.459 411.527,297.125 418.5,285.5C 423.074,280.921 428.407,277.588 434.5,275.5 Z"/></g>
<g><path style="opacity:0.993" fill="#c8effd" d="M 395.5,256.5 C 407.923,262.27 415.59,271.937 418.5,285.5C 411.527,297.125 404.193,308.459 396.5,319.5C 390.441,319.254 384.441,319.587 378.5,320.5C 352.062,326.605 336.062,342.938 330.5,369.5C 324.058,366.109 317.725,362.443 311.5,358.5C 308.957,364.379 307.624,370.546 307.5,377C 307.906,383.604 308.906,390.104 310.5,396.5C 283.725,398.809 268.391,386.809 264.5,360.5C 265.052,347.964 270.385,338.131 280.5,331C 281.745,330.209 283.078,329.709 284.5,329.5C 289.303,342.475 298.137,351.808 311,357.5C 314.165,351.166 317.831,345.166 322,339.5C 327.376,334.456 333.042,329.789 339,325.5C 341,322.167 341,318.833 339,315.5C 331.531,307.03 323.698,298.863 315.5,291C 312.334,290.678 309.667,289.511 307.5,287.5C 317.932,285.298 327.932,286.464 337.5,291C 348.333,300.5 358.5,310.667 368,321.5C 369.047,309.171 370.047,296.837 371,284.5C 373.353,269.986 381.519,260.653 395.5,256.5 Z"/></g>
<g><path style="opacity:1" fill="#ffc344" d="M 92.5,287.5 C 100.656,286.821 104.156,290.488 103,298.5C 100.045,302.277 96.212,303.443 91.5,302C 86.0028,296.683 86.3361,291.85 92.5,287.5 Z"/></g>
<g><path style="opacity:0.992" fill="#e9f5ff" d="M 307.5,287.5 C 309.667,289.511 312.334,290.678 315.5,291C 323.698,298.863 331.531,307.03 339,315.5C 341,318.833 341,322.167 339,325.5C 333.042,329.789 327.376,334.456 322,339.5C 317.831,345.166 314.165,351.166 311,357.5C 298.137,351.808 289.303,342.475 284.5,329.5C 281.18,309.473 288.846,295.473 307.5,287.5 Z"/></g>
<g><path style="opacity:1" fill="#ffc345" d="M 120.5,305.5 C 129.716,304.867 133.216,308.867 131,317.5C 125.837,323.062 121.171,322.729 117,316.5C 115.662,311.96 116.829,308.293 120.5,305.5 Z"/></g>
<g><path style="opacity:1" fill="#fec345" d="M 396.5,319.5 C 412.587,322.878 425.921,330.878 436.5,343.5C 439.186,348.872 441.853,354.205 444.5,359.5C 444.5,359.833 444.5,360.167 444.5,360.5C 447.409,373.263 447.075,385.929 443.5,398.5C 436.805,415.195 425.138,426.862 408.5,433.5C 401.03,435.873 393.364,436.873 385.5,436.5C 382.941,436.802 380.607,436.468 378.5,435.5C 404.462,428.028 419.796,410.861 424.5,384C 424.333,383.167 424.167,382.333 424,381.5C 419.333,388.167 414.667,388.167 410,381.5C 408.833,373.333 412.333,369.833 420.5,371C 421.667,372.167 422.833,373.333 424,374.5C 420.998,346.326 405.831,328.326 378.5,320.5C 384.441,319.587 390.441,319.254 396.5,319.5 Z"/></g>
<g><path style="opacity:1" fill="#fed15b" d="M 378.5,320.5 C 405.831,328.326 420.998,346.326 424,374.5C 422.833,373.333 421.667,372.167 420.5,371C 412.333,369.833 408.833,373.333 410,381.5C 414.667,388.167 419.333,388.167 424,381.5C 424.167,382.333 424.333,383.167 424.5,384C 419.796,410.861 404.462,428.028 378.5,435.5C 355.98,430.916 340.647,417.916 332.5,396.5C 330.897,387.582 330.23,378.582 330.5,369.5C 336.062,342.938 352.062,326.605 378.5,320.5 Z"/></g>
<g><path style="opacity:1" fill="#9ae6fc" d="M 236.5,322.5 C 242.225,339.773 238.225,354.273 224.5,366C 214.744,372.5 204.411,374 193.5,370.5C 209.773,362.308 217.606,348.974 217,330.5C 224.133,329.349 230.633,326.683 236.5,322.5 Z"/></g>
<g><path style="opacity:1" fill="#9ae6fb" d="M 74.5,325.5 C 79.1667,333.5 85.5,339.833 93.5,344.5C 92.2086,357.665 90.8753,370.832 89.5,384C 89.6315,392.06 91.9648,399.393 96.5,406C 95.944,406.383 95.6107,406.883 95.5,407.5C 89.3011,409.183 82.9678,409.849 76.5,409.5C 72.9007,404.638 70.0673,399.305 68,393.5C 67.3602,379.92 68.1935,366.42 70.5,353C 70.4347,350.409 69.9347,347.909 69,345.5C 67.2502,343.266 65.7502,340.932 64.5,338.5C 66.7744,334.228 69.4411,330.228 72.5,326.5C 73.1667,326.167 73.8333,325.833 74.5,325.5 Z"/></g>
<g><path style="opacity:0.991" fill="#c8effe" d="M 64.5,338.5 C 65.7502,340.932 67.2502,343.266 69,345.5C 69.9347,347.909 70.4347,350.409 70.5,353C 68.1935,366.42 67.3602,379.92 68,393.5C 70.0673,399.305 72.9007,404.638 76.5,409.5C 52.0759,402.325 42.9092,386.325 49,361.5C 53.2466,353.11 58.4132,345.443 64.5,338.5 Z"/></g>
<g><path style="opacity:0.997" fill="#e9f5fe" d="M 93.5,344.5 C 99.8773,348.738 106.877,351.405 114.5,352.5C 120.704,353.77 127.037,353.77 133.5,352.5C 134.005,359.53 134.839,366.53 136,373.5C 139.601,394.298 132.101,409.298 113.5,418.5C 110.07,417.286 106.736,415.786 103.5,414C 101.229,411.218 98.5628,409.051 95.5,407.5C 95.6107,406.883 95.944,406.383 96.5,406C 91.9648,399.393 89.6315,392.06 89.5,384C 90.8753,370.832 92.2086,357.665 93.5,344.5 Z"/></g>
<g><path style="opacity:1" fill="#ffc344" d="M 386.5,351.5 C 393.465,351.961 396.632,355.628 396,362.5C 393.774,366.861 390.274,368.361 385.5,367C 381.139,364.774 379.639,361.274 381,356.5C 382.73,354.598 384.563,352.931 386.5,351.5 Z"/></g>
<g><path style="opacity:1" fill="#9be5fa" d="M 330.5,369.5 C 330.23,378.582 330.897,387.582 332.5,396.5C 332.672,397.492 332.338,398.158 331.5,398.5C 324.49,397.88 317.49,397.214 310.5,396.5C 308.906,390.104 307.906,383.604 307.5,377C 307.624,370.546 308.957,364.379 311.5,358.5C 317.725,362.443 324.058,366.109 330.5,369.5 Z"/></g>
<g><path style="opacity:1" fill="#c8eefd" d="M 444.5,360.5 C 464.013,358.003 478.18,365.337 487,382.5C 490.543,392.527 490.043,402.36 485.5,412C 489.045,416.593 491.379,421.76 492.5,427.5C 495.207,450.627 485.207,464.794 462.5,470C 457.368,470.566 452.368,470.066 447.5,468.5C 467.713,458.392 474.546,442.392 468,420.5C 462.217,410.523 454.05,403.19 443.5,398.5C 447.075,385.929 447.409,373.263 444.5,360.5 Z"/></g>
<g><path style="opacity:1" fill="#9be6fc" d="M 445.5,357.5 C 458.436,358.758 471.436,359.925 484.5,361C 498.275,364.613 507.275,373.113 511.5,386.5C 511.5,392.5 511.5,398.5 511.5,404.5C 508.248,414.647 501.915,422.314 492.5,427.5C 491.379,421.76 489.045,416.593 485.5,412C 490.043,402.36 490.543,392.527 487,382.5C 478.18,365.337 464.013,358.003 444.5,360.5C 444.5,360.167 444.5,359.833 444.5,359.5C 444.328,358.508 444.662,357.842 445.5,357.5 Z"/></g>
<g><path style="opacity:1" fill="#ffc344" d="M 356.5,370.5 C 364.656,369.821 368.156,373.488 367,381.5C 362.333,388.167 357.667,388.167 353,381.5C 351.662,376.96 352.829,373.293 356.5,370.5 Z"/></g>
<g><path style="opacity:1" fill="#ffc345" d="M 385.5,388.5 C 393.658,387.823 397.158,391.49 396,399.5C 391,406.167 386,406.167 381,399.5C 379.776,394.626 381.276,390.959 385.5,388.5 Z"/></g>
<g><path style="opacity:0.998" fill="#c8effd" d="M 332.5,396.5 C 340.647,417.916 355.98,430.916 378.5,435.5C 380.607,436.468 382.941,436.802 385.5,436.5C 384.62,448.491 383.786,460.491 383,472.5C 380.324,485.664 372.824,494.664 360.5,499.5C 351.032,497.205 344.032,491.705 339.5,483C 333.399,483.934 327.399,483.434 321.5,481.5C 327.41,478.609 332.577,474.609 337,469.5C 343.627,459.906 349.46,449.906 354.5,439.5C 354.43,438.228 354.097,437.062 353.5,436C 338.959,431.747 327.292,423.58 318.5,411.5C 323.14,407.527 327.473,403.194 331.5,398.5C 332.338,398.158 332.672,397.492 332.5,396.5 Z"/></g>
<g><path style="opacity:0.991" fill="#e9f5fe" d="M 443.5,398.5 C 454.05,403.19 462.217,410.523 468,420.5C 474.546,442.392 467.713,458.392 447.5,468.5C 443.577,467.205 439.91,465.372 436.5,463C 426.937,453.605 417.604,444.105 408.5,434.5C 408.5,434.167 408.5,433.833 408.5,433.5C 425.138,426.862 436.805,415.195 443.5,398.5 Z"/></g>
<g><path style="opacity:0.987" fill="#e9f6ff" d="M 318.5,411.5 C 327.292,423.58 338.959,431.747 353.5,436C 354.097,437.062 354.43,438.228 354.5,439.5C 349.46,449.906 343.627,459.906 337,469.5C 332.577,474.609 327.41,478.609 321.5,481.5C 309.58,478.08 301.746,470.414 298,458.5C 295.171,447.942 296.504,437.942 302,428.5C 307.004,422.33 312.504,416.663 318.5,411.5 Z"/></g>
<g><path style="opacity:1" fill="#9ae6fb" d="M 408.5,433.5 C 408.5,433.833 408.5,434.167 408.5,434.5C 408.134,449.639 406.634,464.639 404,479.5C 394.678,497.748 380.178,504.415 360.5,499.5C 372.824,494.664 380.324,485.664 383,472.5C 383.786,460.491 384.62,448.491 385.5,436.5C 393.364,436.873 401.03,435.873 408.5,433.5 Z"/></g>
</svg>
