<?xml version="1.0" encoding="UTF-8"?>
<!DOCTYPE svg PUBLIC "-//W3C//DTD SVG 1.1//EN" "http://www.w3.org/Graphics/SVG/1.1/DTD/svg11.dtd">
<svg xmlns="http://www.w3.org/2000/svg" version="1.1" width="512px" height="512px" style="shape-rendering:geometricPrecision; text-rendering:geometricPrecision; image-rendering:optimizeQuality; fill-rule:evenodd; clip-rule:evenodd" xmlns:xlink="http://www.w3.org/1999/xlink">
<g><path style="opacity:0.996" fill="#ffcdeb" d="M 289.5,13.5 C 302.507,19.0119 310.673,28.6786 314,42.5C 314.914,68.8594 314.581,95.1927 313,121.5C 308.679,148.801 298.679,173.801 283,196.5C 286.219,166.465 290.052,136.465 294.5,106.5C 293.489,99.3343 289.489,96.8343 282.5,99C 281.667,99.8333 280.833,100.667 280,101.5C 274.928,133.079 270.428,164.746 266.5,196.5C 259.351,195.306 252.351,195.306 245.5,196.5C 244.833,196.5 244.167,196.5 243.5,196.5C 242.695,183.086 241.195,169.752 239,156.5C 233.837,150.938 229.171,151.271 225,157.5C 225.25,169.914 226.416,182.247 228.5,194.5C 228.167,194.833 227.833,195.167 227.5,195.5C 221.169,197 214.835,198.167 208.5,199C 204.282,193.622 200.282,188.122 196.5,182.5C 196.5,181.833 196.167,181.5 195.5,181.5C 195.5,181.167 195.5,180.833 195.5,180.5C 195.5,179.833 195.167,179.5 194.5,179.5C 183.165,159.324 176.331,137.657 174,114.5C 173.333,90.5 173.333,66.5 174,42.5C 180.957,19.2113 196.457,9.37799 220.5,13C 232.543,17.0397 241.543,24.7064 247.5,36C 254.01,39.9063 259.843,39.073 265,33.5C 270.064,22.9277 278.23,16.2611 289.5,13.5 Z"/></g>
<g><path style="opacity:1" fill="#ffbee6" d="M 315.5,180.5 C 314.094,180.973 313.427,181.973 313.5,183.5C 312.833,183.5 312.5,183.833 312.5,184.5C 306.833,192.5 301.167,200.5 295.5,208.5C 286.644,202.573 276.977,198.573 266.5,196.5C 270.428,164.746 274.928,133.079 280,101.5C 280.833,100.667 281.667,99.8333 282.5,99C 289.489,96.8343 293.489,99.3343 294.5,106.5C 290.052,136.465 286.219,166.465 283,196.5C 298.679,173.801 308.679,148.801 313,121.5C 314.581,95.1927 314.914,68.8594 314,42.5C 310.673,28.6786 302.507,19.0119 289.5,13.5C 312.623,9.15052 328.123,18.1505 336,40.5C 336.929,68.528 336.596,96.528 335,124.5C 331.606,144.279 325.106,162.946 315.5,180.5 Z"/></g>
<g><path style="opacity:1" fill="#ffbee6" d="M 220.5,98.5 C 226.348,97.0017 230.181,99.0017 232,104.5C 233.706,112.097 234.372,119.764 234,127.5C 229.333,132.833 224.667,132.833 220,127.5C 218.601,120.543 217.435,113.543 216.5,106.5C 216.782,103.269 218.115,100.602 220.5,98.5 Z"/></g>
<g><path style="opacity:0.999" fill="#ffbee6" d="M 511.5,222.5 C 511.5,228.167 511.5,233.833 511.5,239.5C 507.64,252.536 499.307,261.702 486.5,267C 465.466,275.789 444.132,283.789 422.5,291C 406.718,294.806 390.718,296.306 374.5,295.5C 387.192,293.392 399.858,290.559 412.5,287C 432.994,279.057 453.328,270.724 473.5,262C 490.911,247.171 494.078,229.671 483,209.5C 475.275,199.717 465.109,194.217 452.5,193C 446.214,190.15 443.714,185.316 445,178.5C 449.976,172.215 453.643,165.215 456,157.5C 458.744,136.307 450.577,121.307 431.5,112.5C 452.786,108.392 467.953,116.059 477,135.5C 481.723,151.165 478.723,165.165 468,177.5C 466.047,184.867 468.547,190.033 475.5,193C 494.053,195.07 506.053,204.903 511.5,222.5 Z"/></g>
<g><path style="opacity:0.999" fill="#ffbee6" d="M 194.5,179.5 C 195.167,179.5 195.5,179.833 195.5,180.5C 195.5,180.833 195.5,181.167 195.5,181.5C 196.167,181.5 196.5,181.833 196.5,182.5C 200.282,188.122 204.282,193.622 208.5,199C 214.835,198.167 221.169,197 227.5,195.5C 227.833,195.167 228.167,194.833 228.5,194.5C 226.416,182.247 225.25,169.914 225,157.5C 229.171,151.271 233.837,150.938 239,156.5C 241.195,169.752 242.695,183.086 243.5,196.5C 227.727,199.943 214.394,207.61 203.5,219.5C 199.416,216.516 194.916,214.183 190,212.5C 186.793,215.201 183.793,218.201 181,221.5C 180.626,222.416 180.126,223.25 179.5,224C 184.525,227.174 189.858,229.674 195.5,231.5C 192.366,238.57 190.032,245.904 188.5,253.5C 181.833,252.167 175.167,250.833 168.5,249.5C 170.262,240.549 173.595,232.216 178.5,224.5C 156.018,213.093 133.352,201.926 110.5,191C 106.231,186.291 106.564,181.958 111.5,178C 113.833,177.333 116.167,177.333 118.5,178C 142.172,189.169 165.838,200.336 189.5,211.5C 192.492,211.02 193.659,209.353 193,206.5C 179.292,187.789 163.792,170.622 146.5,155C 135.278,146.803 123.278,139.803 110.5,134C 93.1775,127.061 75.8442,120.227 58.5,113.5C 65.6374,111.02 72.9707,110.854 80.5,113C 105.442,121.973 129.775,132.306 153.5,144C 168.773,153.971 182.44,165.804 194.5,179.5 Z"/></g>
<g><path style="opacity:0.996" fill="#ffcdec" d="M 58.5,113.5 C 75.8442,120.227 93.1775,127.061 110.5,134C 123.278,139.803 135.278,146.803 146.5,155C 163.792,170.622 179.292,187.789 193,206.5C 193.659,209.353 192.492,211.02 189.5,211.5C 165.838,200.336 142.172,189.169 118.5,178C 116.167,177.333 113.833,177.333 111.5,178C 106.564,181.958 106.231,186.291 110.5,191C 133.352,201.926 156.018,213.093 178.5,224.5C 173.595,232.216 170.262,240.549 168.5,249.5C 144.868,245.04 121.201,240.707 97.5,236.5C 92.0191,236.312 89.0191,238.978 88.5,244.5C 89.3706,248.87 92.0373,251.37 96.5,252C 120.222,256.445 143.889,260.945 167.5,265.5C 167.4,272.768 168.733,279.768 171.5,286.5C 171,286.833 170.5,287.167 170,287.5C 153.011,290.044 136.178,292.711 119.5,295.5C 106.6,294.739 93.9338,292.572 81.5,289C 58.8275,280.83 36.4942,271.83 14.5,262C 7.07808,255.955 2.07808,248.455 -0.5,239.5C -0.5,233.833 -0.5,228.167 -0.5,222.5C 4.9468,204.903 16.9468,195.07 35.5,193C 42.128,189.909 44.628,184.743 43,177.5C 27.508,158.46 27.6746,139.627 43.5,121C 48.0069,117.413 53.0069,114.913 58.5,113.5 Z"/></g>
<g><path style="opacity:0.997" fill="#ffcdeb" d="M 431.5,112.5 C 450.577,121.307 458.744,136.307 456,157.5C 453.643,165.215 449.976,172.215 445,178.5C 443.714,185.316 446.214,190.15 452.5,193C 465.109,194.217 475.275,199.717 483,209.5C 494.078,229.671 490.911,247.171 473.5,262C 453.328,270.724 432.994,279.057 412.5,287C 399.858,290.559 387.192,293.392 374.5,295.5C 367.492,294.916 360.492,294.249 353.5,293.5C 353.167,293.5 352.833,293.5 352.5,293.5C 352.5,292.833 352.167,292.5 351.5,292.5C 340.648,289.409 329.981,285.742 319.5,281.5C 321.235,273.279 321.902,264.945 321.5,256.5C 322.483,260.298 322.817,264.298 322.5,268.5C 354.239,263.119 385.905,257.286 417.5,251C 422.313,246.959 422.646,242.625 418.5,238C 416.801,237.042 414.967,236.542 413,236.5C 382.422,241.983 351.922,247.65 321.5,253.5C 320.367,245.767 318.033,238.434 314.5,231.5C 343.054,218.557 371.388,205.057 399.5,191C 402.769,187.547 403.269,183.714 401,179.5C 396.148,176.9 391.314,177.067 386.5,180C 359.929,193.12 333.262,205.953 306.5,218.5C 302.808,215.138 299.141,211.805 295.5,208.5C 301.167,200.5 306.833,192.5 312.5,184.5C 313.167,184.5 313.5,184.167 313.5,183.5C 314.906,183.027 315.573,182.027 315.5,180.5C 333.017,159.57 354.351,143.736 379.5,133C 396.822,126.061 414.156,119.227 431.5,112.5 Z"/></g>
<g><path style="opacity:1" fill="#ffbee5" d="M 314.5,231.5 C 311.806,227.149 309.14,222.816 306.5,218.5C 333.262,205.953 359.929,193.12 386.5,180C 391.314,177.067 396.148,176.9 401,179.5C 403.269,183.714 402.769,187.547 399.5,191C 371.388,205.057 343.054,218.557 314.5,231.5 Z"/></g>
<g><path style="opacity:1" fill="#ffd05b" d="M 243.5,196.5 C 244.167,196.5 244.833,196.5 245.5,196.5C 279.291,204.966 297.624,226.633 300.5,261.5C 298.43,297.361 280.096,319.695 245.5,328.5C 228.869,325.52 214.869,317.854 203.5,305.5C 201.192,301.205 198.526,297.205 195.5,293.5C 192.152,285.456 189.819,277.122 188.5,268.5C 188.5,263.5 188.5,258.5 188.5,253.5C 190.032,245.904 192.366,238.57 195.5,231.5C 198.154,227.537 200.82,223.537 203.5,219.5C 214.394,207.61 227.727,199.943 243.5,196.5 Z"/></g>
<g><path style="opacity:1" fill="#ffc346" d="M 266.5,196.5 C 276.977,198.573 286.644,202.573 295.5,208.5C 299.141,211.805 302.808,215.138 306.5,218.5C 309.14,222.816 311.806,227.149 314.5,231.5C 318.033,238.434 320.367,245.767 321.5,253.5C 321.5,254.5 321.5,255.5 321.5,256.5C 321.902,264.945 321.235,273.279 319.5,281.5C 318.637,283.421 317.971,285.421 317.5,287.5C 316.264,289.649 315.264,291.982 314.5,294.5C 311.865,298.143 309.199,301.81 306.5,305.5C 300.778,311.555 294.444,316.889 287.5,321.5C 282.985,323.561 278.319,325.227 273.5,326.5C 268.022,328.395 262.356,329.395 256.5,329.5C 252.766,329.677 249.099,329.344 245.5,328.5C 280.096,319.695 298.43,297.361 300.5,261.5C 297.624,226.633 279.291,204.966 245.5,196.5C 252.351,195.306 259.351,195.306 266.5,196.5 Z"/></g>
<g><path style="opacity:1" fill="#feaee0" d="M 203.5,219.5 C 200.82,223.537 198.154,227.537 195.5,231.5C 189.858,229.674 184.525,227.174 179.5,224C 180.126,223.25 180.626,222.416 181,221.5C 183.793,218.201 186.793,215.201 190,212.5C 194.916,214.183 199.416,216.516 203.5,219.5 Z"/></g>
<g><path style="opacity:1" fill="#fedba5" d="M 243.5,292.5 C 252.417,290.762 258.917,285.762 263,277.5C 270.806,256.399 264.639,241.066 244.5,231.5C 263.409,226.533 277.242,232.866 286,250.5C 291.498,271.338 284.331,285.838 264.5,294C 261.215,294.824 257.882,295.324 254.5,295.5C 250.421,295.566 246.755,294.566 243.5,292.5 Z"/></g>
<g><path style="opacity:1" fill="#ffe9d8" d="M 244.5,231.5 C 264.639,241.066 270.806,256.399 263,277.5C 258.917,285.762 252.417,290.762 243.5,292.5C 225.771,284.37 219.271,270.703 224,251.5C 228.074,241.925 234.907,235.258 244.5,231.5 Z"/></g>
<g><path style="opacity:1" fill="#ffbee6" d="M 168.5,249.5 C 167.551,254.74 167.218,260.073 167.5,265.5C 143.889,260.945 120.222,256.445 96.5,252C 92.0373,251.37 89.3706,248.87 88.5,244.5C 89.0191,238.978 92.0191,236.312 97.5,236.5C 121.201,240.707 144.868,245.04 168.5,249.5 Z"/></g>
<g><path style="opacity:1" fill="#ffbee6" d="M 321.5,256.5 C 321.5,255.5 321.5,254.5 321.5,253.5C 351.922,247.65 382.422,241.983 413,236.5C 414.967,236.542 416.801,237.042 418.5,238C 422.646,242.625 422.313,246.959 417.5,251C 385.905,257.286 354.239,263.119 322.5,268.5C 322.817,264.298 322.483,260.298 321.5,256.5 Z"/></g>
<g><path style="opacity:1" fill="#feaee0" d="M 168.5,249.5 C 175.167,250.833 181.833,252.167 188.5,253.5C 188.5,258.5 188.5,263.5 188.5,268.5C 181.48,267.629 174.48,266.629 167.5,265.5C 167.218,260.073 167.551,254.74 168.5,249.5 Z"/></g>
<g><path style="opacity:0.999" fill="#ffbee6" d="M 319.5,281.5 C 329.981,285.742 340.648,289.409 351.5,292.5C 352.167,292.5 352.5,292.833 352.5,293.5C 352.833,293.5 353.167,293.5 353.5,293.5C 379.243,303.471 401.41,318.805 420,339.5C 433.382,355.88 446.382,372.547 459,389.5C 466.241,409.045 461.741,425.212 445.5,438C 435.743,443.352 425.41,444.852 414.5,442.5C 437.823,431.044 444.99,413.044 436,388.5C 423.667,372.833 411.333,357.167 399,341.5C 377.204,316.919 350.537,299.586 319,289.5C 317.97,289.164 317.47,288.497 317.5,287.5C 317.971,285.421 318.637,283.421 319.5,281.5 Z"/></g>
<g><path style="opacity:0.997" fill="#ffcdeb" d="M 317.5,287.5 C 317.47,288.497 317.97,289.164 319,289.5C 350.537,299.586 377.204,316.919 399,341.5C 411.333,357.167 423.667,372.833 436,388.5C 444.99,413.044 437.823,431.044 414.5,442.5C 397.308,437.013 390.308,443.346 393.5,461.5C 392.046,484.622 379.713,497.288 356.5,499.5C 343.478,499.073 332.978,493.739 325,483.5C 314,469.833 303,456.167 292,442.5C 278.347,423.855 269.014,403.188 264,380.5C 260.986,364.57 258.486,348.57 256.5,332.5C 255.167,331.5 255.167,330.5 256.5,329.5C 262.356,329.395 268.022,328.395 273.5,326.5C 289.877,355.043 306.877,383.21 324.5,411C 336.013,411.519 338.846,406.685 333,396.5C 317.97,371.329 302.803,346.329 287.5,321.5C 294.444,316.889 300.778,311.555 306.5,305.5C 306.369,306.239 306.536,306.906 307,307.5C 328.528,329.362 350.361,350.862 372.5,372C 382.473,375.024 386.306,371.524 384,361.5C 360.938,338.936 337.771,316.602 314.5,294.5C 315.264,291.982 316.264,289.649 317.5,287.5 Z"/></g>
<g><path style="opacity:0.995" fill="#ffcdeb" d="M 145.5,497.5 C 131.305,492.802 122.471,483.135 119,468.5C 118.559,461.804 118.559,455.137 119,448.5C 117.043,443.037 113.21,440.037 107.5,439.5C 94.371,444.924 81.371,444.757 68.5,439C 48.8006,424.515 44.6339,406.349 56,384.5C 72.3758,363.118 89.8758,342.618 108.5,323C 123.553,310.45 140.22,300.616 158.5,293.5C 158.5,292.833 158.833,292.5 159.5,292.5C 159.5,293.167 159.833,293.5 160.5,293.5C 164.376,291.7 168.376,290.533 172.5,290C 175.459,295.422 178.793,300.588 182.5,305.5C 164.432,324.402 145.932,342.736 127,360.5C 123.368,371.114 126.868,374.947 137.5,372C 156.2,353.023 175.2,334.523 194.5,316.5C 201.849,321.271 209.516,325.271 217.5,328.5C 203.866,351.964 190.032,375.297 176,398.5C 172.34,408.039 175.507,412.206 185.5,411C 201.547,386.414 216.713,361.248 231,335.5C 231.915,334.672 232.581,333.672 233,332.5C 230.998,358.51 225.664,383.843 217,408.5C 210.926,421.659 203.592,433.993 195,445.5C 184,459.167 173,472.833 162,486.5C 157.003,491.071 151.503,494.737 145.5,497.5 Z"/></g>
<g><path style="opacity:1" fill="#feaee0" d="M 195.5,293.5 C 198.526,297.205 201.192,301.205 203.5,305.5C 201.257,309.415 198.257,312.749 194.5,315.5C 189.659,312.833 186.159,309.166 184,304.5C 187.702,300.63 191.536,296.963 195.5,293.5 Z"/></g>
<g><path style="opacity:1" fill="#ffbee5" d="M 314.5,294.5 C 337.771,316.602 360.938,338.936 384,361.5C 386.306,371.524 382.473,375.024 372.5,372C 350.361,350.862 328.528,329.362 307,307.5C 306.536,306.906 306.369,306.239 306.5,305.5C 309.199,301.81 311.865,298.143 314.5,294.5 Z"/></g>
<g><path style="opacity:1" fill="#ffbee5" d="M 287.5,321.5 C 302.803,346.329 317.97,371.329 333,396.5C 338.846,406.685 336.013,411.519 324.5,411C 306.877,383.21 289.877,355.043 273.5,326.5C 278.319,325.227 282.985,323.561 287.5,321.5 Z"/></g>
<g><path style="opacity:0.999" fill="#febee6" d="M 167.5,265.5 C 174.48,266.629 181.48,267.629 188.5,268.5C 189.819,277.122 192.152,285.456 195.5,293.5C 191.536,296.963 187.702,300.63 184,304.5C 186.159,309.166 189.659,312.833 194.5,315.5C 198.257,312.749 201.257,309.415 203.5,305.5C 214.869,317.854 228.869,325.52 245.5,328.5C 249.099,329.344 252.766,329.677 256.5,329.5C 255.167,330.5 255.167,331.5 256.5,332.5C 253.451,351.446 249.951,370.446 246,389.5C 240.743,407.011 233.076,423.345 223,438.5C 210.953,452.879 199.286,467.545 188,482.5C 176.94,496.574 162.773,501.574 145.5,497.5C 151.503,494.737 157.003,491.071 162,486.5C 173,472.833 184,459.167 195,445.5C 203.592,433.993 210.926,421.659 217,408.5C 225.664,383.843 230.998,358.51 233,332.5C 232.581,333.672 231.915,334.672 231,335.5C 216.713,361.248 201.547,386.414 185.5,411C 175.507,412.206 172.34,408.039 176,398.5C 190.032,375.297 203.866,351.964 217.5,328.5C 209.516,325.271 201.849,321.271 194.5,316.5C 175.2,334.523 156.2,353.023 137.5,372C 126.868,374.947 123.368,371.114 127,360.5C 145.932,342.736 164.432,324.402 182.5,305.5C 178.793,300.588 175.459,295.422 172.5,290C 168.376,290.533 164.376,291.7 160.5,293.5C 159.833,293.5 159.5,293.167 159.5,292.5C 158.833,292.5 158.5,292.833 158.5,293.5C 145.555,295.081 132.555,295.748 119.5,295.5C 136.178,292.711 153.011,290.044 170,287.5C 170.5,287.167 171,286.833 171.5,286.5C 168.733,279.768 167.4,272.768 167.5,265.5 Z"/></g>
</svg>
