<?xml version="1.0" encoding="UTF-8"?>
<!DOCTYPE svg PUBLIC "-//W3C//DTD SVG 1.1//EN" "http://www.w3.org/Graphics/SVG/1.1/DTD/svg11.dtd">
<svg xmlns="http://www.w3.org/2000/svg" version="1.1" width="512px" height="512px" style="shape-rendering:geometricPrecision; text-rendering:geometricPrecision; image-rendering:optimizeQuality; fill-rule:evenodd; clip-rule:evenodd" xmlns:xlink="http://www.w3.org/1999/xlink">
<g><path style="opacity:1" fill="#fd4755" d="M 328.5,-0.5 C 333.5,-0.5 338.5,-0.5 343.5,-0.5C 351.96,2.33937 357.793,8.00604 361,16.5C 362.415,28.4379 362.915,40.4379 362.5,52.5C 355.209,51.6076 347.876,51.2743 340.5,51.5C 340.909,40.1035 340.409,28.7702 339,17.5C 336.424,10.4329 331.924,5.0996 325.5,1.5C 326.5,0.833333 327.5,0.166667 328.5,-0.5 Z"/></g>
<g><path style="opacity:1" fill="#fc4856" d="M 214.5,51.5 C 225.26,52.874 234.927,57.0406 243.5,64C 256.221,80.6345 268.554,97.4678 280.5,114.5C 292.324,131.471 304.157,148.471 316,165.5C 334.842,195.222 340.509,227.222 333,261.5C 323.553,287.118 305.72,303.452 279.5,310.5C 272.245,311.938 264.912,312.605 257.5,312.5C 255.435,312.483 253.435,312.15 251.5,311.5C 285.699,304.469 306.532,283.802 314,249.5C 316.999,220.496 310.999,193.496 296,168.5C 273.753,137.008 251.753,105.341 230,73.5C 222.463,63.108 212.629,56.108 200.5,52.5C 203.897,51.8018 207.397,51.1352 211,50.5C 212.011,51.3366 213.178,51.67 214.5,51.5 Z"/></g>
<g><path style="opacity:1" fill="#fd646f" d="M 325.5,1.5 C 331.924,5.0996 336.424,10.4329 339,17.5C 340.409,28.7702 340.909,40.1035 340.5,51.5C 347.876,51.2743 355.209,51.6076 362.5,52.5C 380.113,57.6126 391.613,68.9459 397,86.5C 400.873,120.105 404.207,153.772 407,187.5C 411.284,233.752 394.451,269.919 356.5,296C 340.203,305.821 322.536,311.321 303.5,312.5C 303.167,312.5 302.833,312.5 302.5,312.5C 298.069,312.769 293.735,312.436 289.5,311.5C 340.605,302.231 372.105,272.231 384,221.5C 384.831,214.858 385.331,208.191 385.5,201.5C 382.842,164.794 379.675,128.127 376,91.5C 371.142,71.1425 358.642,58.1425 338.5,52.5C 327.786,55.2714 318.953,60.9381 312,69.5C 301.669,84.6563 291.169,99.6563 280.5,114.5C 268.554,97.4678 256.221,80.6345 243.5,64C 234.927,57.0406 225.26,52.874 214.5,51.5C 216.476,36.6921 224.976,28.3588 240,26.5C 250.104,29.0676 260.271,31.4009 270.5,33.5C 273.179,33.0643 275.845,32.5643 278.5,32C 294.223,21.8123 309.89,11.6457 325.5,1.5 Z"/></g>
<g><path style="opacity:0.997" fill="#fc8a95" d="M 200.5,52.5 C 212.629,56.108 222.463,63.108 230,73.5C 251.753,105.341 273.753,137.008 296,168.5C 310.999,193.496 316.999,220.496 314,249.5C 306.532,283.802 285.699,304.469 251.5,311.5C 199.502,304.005 167.335,274.672 155,223.5C 153.464,211.209 153.13,198.876 154,186.5C 156.734,153.092 160.067,119.758 164,86.5C 169.612,68.0526 181.778,56.7193 200.5,52.5 Z"/></g>
<g><path style="opacity:1" fill="#fb8a95" d="M 289.5,311.5 C 286.482,311.296 283.482,310.963 280.5,310.5C 280.167,310.5 279.833,310.5 279.5,310.5C 305.72,303.452 323.553,287.118 333,261.5C 340.509,227.222 334.842,195.222 316,165.5C 304.157,148.471 292.324,131.471 280.5,114.5C 291.169,99.6563 301.669,84.6563 312,69.5C 318.953,60.9381 327.786,55.2714 338.5,52.5C 358.642,58.1425 371.142,71.1425 376,91.5C 379.675,128.127 382.842,164.794 385.5,201.5C 385.331,208.191 384.831,214.858 384,221.5C 372.105,272.231 340.605,302.231 289.5,311.5 Z"/></g>
<g><path style="opacity:0.995" fill="#baf39b" d="M 104.5,283.5 C 108.594,282.705 111.761,284.038 114,287.5C 154.592,362.354 195.425,437.021 236.5,511.5C 226.833,511.5 217.167,511.5 207.5,511.5C 201.801,509.811 196.801,506.811 192.5,502.5C 129.153,443.516 99.82,370.516 104.5,283.5 Z"/></g>
<g><path style="opacity:0.963" fill="#9be69d" d="M 257.5,312.5 C 264.912,312.605 272.245,311.938 279.5,310.5C 279.833,310.5 280.167,310.5 280.5,310.5C 280.5,377.5 280.5,444.5 280.5,511.5C 265.833,511.5 251.167,511.5 236.5,511.5C 195.425,437.021 154.592,362.354 114,287.5C 111.761,284.038 108.594,282.705 104.5,283.5C 103.834,279.18 103.501,274.68 103.5,270C 103.384,264.725 103.884,259.558 105,254.5C 110.695,250.007 115.695,250.674 120,256.5C 165.413,340.327 211.079,423.993 257,507.5C 257.5,442.501 257.667,377.501 257.5,312.5 Z"/></g>
<g><path style="opacity:1" fill="#6fd7a2" d="M 280.5,310.5 C 283.482,310.963 286.482,311.296 289.5,311.5C 293.735,312.436 298.069,312.769 302.5,312.5C 302.5,378.833 302.5,445.167 302.5,511.5C 295.167,511.5 287.833,511.5 280.5,511.5C 280.5,444.5 280.5,377.5 280.5,310.5 Z"/></g>
<g><path style="opacity:1" fill="#9ce69d" d="M 340.5,511.5 C 331.5,511.5 322.5,511.5 313.5,511.5C 348.046,505.455 368.546,485.121 375,450.5C 375.667,437.833 375.667,425.167 375,412.5C 374.623,411.058 373.79,410.058 372.5,409.5C 375.953,402.779 380.286,396.612 385.5,391C 390.256,389.556 394.089,390.723 397,394.5C 398.107,403.275 398.607,412.109 398.5,421C 402.468,449.758 394.468,474.425 374.5,495C 364.279,502.945 352.945,508.445 340.5,511.5 Z"/></g>
<g><path style="opacity:0.992" fill="#b7f499" d="M 302.5,312.5 C 302.833,312.5 303.167,312.5 303.5,312.5C 303.333,377.834 303.5,443.168 304,508.5C 326.362,475.085 349.196,442.085 372.5,409.5C 373.79,410.058 374.623,411.058 375,412.5C 375.667,425.167 375.667,437.833 375,450.5C 368.546,485.121 348.046,505.455 313.5,511.5C 309.833,511.5 306.167,511.5 302.5,511.5C 302.5,445.167 302.5,378.833 302.5,312.5 Z"/></g>
</svg>
