<?xml version="1.0" encoding="UTF-8"?>
<svg version="1.1" xmlns="http://www.w3.org/2000/svg" width="512" height="512">
<path d="M0 0 C1.38996689 0.00323273 1.38996689 0.00323273 2.80801392 0.00653076 C34.02807364 0.12301975 62.8688032 6.16971748 91.25 19.3125 C91.97509766 19.64725342 92.70019531 19.98200684 93.44726562 20.3269043 C97.4247971 22.21696629 100.75310337 24.29840451 104.25 27 C109.52902345 30.26546558 114.21911749 28.87129595 119.94873047 27.69946289 C138.67842523 24.07234635 159.8259561 25.00979941 178.375 29.3125 C179.11427734 29.47878906 179.85355469 29.64507813 180.61523438 29.81640625 C193.78209897 32.86795427 217.54510285 38.56765427 225.375 50.3125 C225.4059375 52.1996875 225.4059375 52.1996875 225.4375 54.125 C225.7390472 56.93770749 226.14596956 58.06412223 228.0859375 60.16796875 C232.250874 63.24417624 235.23330678 64.62863325 240.4375 64.25 C244.51841223 64.00438954 246.3211036 64.51011976 249.4375 67.1875 C250.77757899 68.53563558 252.0889389 69.91273998 253.375 71.3125 C254.43654297 72.38371094 254.43654297 72.38371094 255.51953125 73.4765625 C277.48863956 96.4844903 288.84147036 127.32095851 288.75 158.875 C288.74918427 159.93423172 288.74918427 159.93423172 288.74835205 161.01486206 C288.70887134 172.17574267 287.97439564 182.67755098 284.375 193.3125 C284.15537598 193.96943848 283.93575195 194.62637695 283.70947266 195.30322266 C278.81495061 209.47412831 271.31292281 221.70020498 261.16796875 232.70703125 C257.16472746 238.52437753 258.86030672 246.73264673 260.03515625 253.41015625 C262.93053839 267.75158115 268.45987839 281.02354885 276.35424805 293.31689453 C281.16203193 300.84202892 282.30354166 307.5026779 281.375 316.3125 C278.84575231 324.99538126 274.11990975 330.37819426 266.35546875 334.828125 C245.77383505 345.07847992 222.56453904 346.9311174 200.625 340.1875 C187.29149055 335.29759888 176.71181451 327.88374729 166.375 318.3125 C165.42753906 317.4359375 164.48007812 316.559375 163.50390625 315.65625 C152.46478789 305.00858974 140.2887569 291.1400138 133.375 277.3125 C130.85622747 276.76295579 130.85622747 276.76295579 127.80078125 276.49609375 C126.08665039 276.30950195 126.08665039 276.30950195 124.33789062 276.11914062 C122.53094727 275.93641602 122.53094727 275.93641602 120.6875 275.75 C118.32929445 275.49994558 115.97121669 275.24868246 113.61328125 274.99609375 C112.56180908 274.88837646 111.51033691 274.78065918 110.42700195 274.66967773 C107.3880669 274.31402923 104.38834745 273.84042066 101.375 273.3125 C101.11589844 274.02535156 100.85679687 274.73820312 100.58984375 275.47265625 C90.02156515 300.17728178 63.07343017 327.51510897 38.75390625 337.8515625 C15.35333997 346.46619508 -8.00926856 346.07903677 -30.7890625 335.8984375 C-38.07352273 332.22675539 -44.23877011 327.42701823 -47.140625 319.5 C-49.55012577 308.61838363 -47.04878174 300.52556889 -41.66455078 291.13964844 C-39.87443982 287.99329089 -38.20687353 284.78696411 -36.5625 281.5625 C-36.22992188 280.91168457 -35.89734375 280.26086914 -35.5546875 279.59033203 C-31.70406051 271.811688 -29.15582195 263.59519002 -26.625 255.3125 C-27.81609375 255.44527344 -29.0071875 255.57804688 -30.234375 255.71484375 C-31.94789442 255.89344269 -33.66143832 256.07180691 -35.375 256.25 C-36.29716309 256.35441406 -37.21932617 256.45882813 -38.16943359 256.56640625 C-43.79977236 257.14530416 -49.21058599 257.31235226 -54.8671875 257.03515625 C-66.87730086 256.02315118 -66.87730086 256.02315118 -77.77734375 259.90820312 C-81.36208414 264.09852891 -83.46451085 268.94634343 -85.57128906 273.99902344 C-87.13804364 277.4389137 -89.2585434 280.2610457 -91.625 283.1875 C-92.4396875 284.21230469 -93.254375 285.23710937 -94.09375 286.29296875 C-98.43323772 291.46954901 -102.96101243 296.42769236 -107.625 301.3125 C-108.47191406 302.21226562 -109.31882812 303.11203125 -110.19140625 304.0390625 C-122.156081 316.43439064 -136.58176946 325.09922124 -153.625 328.3125 C-154.73875 328.539375 -155.8525 328.76625 -157 329 C-171.83173807 330.27859811 -185.57992992 328.82265102 -199.25 322.9375 C-199.90081543 322.65769287 -200.55163086 322.37788574 -201.22216797 322.08959961 C-208.47732252 318.75795875 -213.09569343 314.5018282 -216.625 307.3125 C-219.02033667 299.65059529 -218.30686903 291.38556419 -214.625 284.3125 C-213.72176617 282.80437321 -212.80379128 281.30502288 -211.875 279.8125 C-203.69826628 266.44161285 -199.79205724 252.54993471 -196.625 237.3125 C-197.74068359 237.11914062 -197.74068359 237.11914062 -198.87890625 236.921875 C-206.19446911 235.29850685 -212.95157381 231.1307666 -217.2578125 224.98046875 C-223.93016444 214.23056839 -225.29136786 203.48311508 -223.04296875 191.109375 C-220.24662281 182.17128294 -214.00201796 175.02385345 -206 170.25 C-202.19426037 168.35047442 -198.85540157 167.58252563 -194.625 167.3125 C-194.52058594 166.21808594 -194.41617188 165.12367188 -194.30859375 163.99609375 C-188.57450146 118.66993267 -159.22775051 68.94001776 -123.625 40.3125 C-100.9225982 22.93617487 -76.14504888 10.83778864 -48.1875 4.625 C-47.28314209 4.42245605 -46.37878418 4.21991211 -45.44702148 4.01123047 C-30.27304826 0.78741654 -15.45879344 -0.06474271 0 0 Z " fill="#010101" transform="translate(223.625,-0.3125)"/>
<path d="M0 0 C0.98323242 0.2168042 0.98323242 0.2168042 1.98632812 0.43798828 C14.91551263 3.38325912 27.22671421 7.93115093 38.53515625 14.8984375 C41.62465802 16.27916571 43.64405059 16.39276391 47 16 C48.65 15.01 50.3 14.02 52 13 C57.445 16.96 57.445 16.96 63 21 C62.690625 22.32 62.38125 23.64 62.0625 25 C61.73851863 27.9621154 61.68891981 29.4701602 63.2109375 32.0625 C65.06094436 34.1385258 66.99484896 36.07355582 69 38 C83.33027083 52.88032163 92.668011 71.15083782 98 91 C98.37125 92.36318359 98.37125 92.36318359 98.75 93.75390625 C104.02548229 117.16385892 99.17544066 143.57675088 87.125 164.0625 C83.28283947 169.90733108 78.86267013 174.99023843 74 180 C73.39929688 180.67417969 72.79859375 181.34835938 72.1796875 182.04296875 C62.30446263 192.75181649 49.06708685 199.44229029 35.88110352 205.17553711 C34.16496907 205.92769623 32.46974171 206.72710454 30.77734375 207.53125 C-6.43468023 223.34925341 -56.98754565 220.66178121 -94 206 C-121.84514495 194.09643975 -142.04047933 176.20689755 -154.25 148.125 C-163.50665147 124.71111688 -160.87880587 94.77487928 -151.14794922 72.00634766 C-137.25828536 40.92568674 -111.39210096 18.12483031 -79.875 5.75 C-54.50031557 -3.84880157 -26.46584818 -5.88758304 0 0 Z " fill="#AFEACD" transform="translate(397,44)"/>
<path d="M0 0 C20.49403869 6.63585303 41.76370171 12.00866508 63.3125 13.4375 C64.36026611 13.5192749 65.40803223 13.6010498 66.48754883 13.68530273 C76.66158539 14.44127461 86.80025375 14.71757703 97 14.75 C97.85590729 14.75328308 98.71181458 14.75656616 99.59365845 14.75994873 C121.44694732 14.78670652 142.91445717 12.32159947 164.47460938 8.86132812 C168.73881867 8.22448475 173.01770193 7.80590254 177.3125 7.4375 C177.78558594 8.57445312 178.25867188 9.71140625 178.74609375 10.8828125 C183.10355938 21.13495152 188.05940618 30.22436178 194.3125 39.4375 C195.32501754 41.09659193 196.3298762 42.76053004 197.3125 44.4375 C187.35389825 47.40999174 177.5221525 49.31539791 167.234375 50.7265625 C163.80872333 51.19904246 160.42077885 51.77713757 157.0234375 52.421875 C136.47646643 56.20552455 115.7687133 56.73394376 94.9375 56.75 C93.89205017 56.75340393 92.84660034 56.75680786 91.76947021 56.76031494 C80.3209103 56.7816612 69.1315516 56.46545994 57.78662109 54.86401367 C51.72357282 54.04985889 51.72357282 54.04985889 45.9375 55.5 C43.98700091 57.46972099 43.98700091 57.46972099 43.875 60.9375 C44.02460282 64.2792885 44.02460282 64.2792885 45.42578125 66.0859375 C48.16747164 68.04996415 50.60119198 68.16957293 53.9375 68.5625 C54.58468994 68.64032715 55.23187988 68.7181543 55.89868164 68.79833984 C63.67709547 69.68185059 71.49549463 70.07391836 79.3125 70.4375 C77.68183636 75.34867519 74.90169772 79.25542813 71.9375 83.4375 C71.40801758 84.18572021 70.87853516 84.93394043 70.33300781 85.70483398 C65.19031665 92.83185061 59.44188695 99.15882998 53.3125 105.4375 C52.63960938 106.18386719 51.96671875 106.93023437 51.2734375 107.69921875 C40.78264295 119.06052604 26.16330719 126.944894 10.671875 127.875 C-3.20267384 128.33056874 -15.2960866 127.02487318 -26.6875 118.4375 C-29.04016465 116.08483535 -29.00974537 115.50051274 -29.0703125 112.2890625 C-28.95038104 107.20112276 -27.2707737 104.01425161 -24.5625 99.8125 C-17.33939108 87.82515237 -12.30467847 74.90656801 -9.609375 61.14453125 C-9.4350293 60.25870361 -9.26068359 59.37287598 -9.08105469 58.46020508 C-8.95118164 57.7927124 -8.82130859 57.12521973 -8.6875 56.4375 C-5.33269887 57.22649368 -1.97878058 58.01918047 1.375 58.8125 C2.78942383 59.14507812 2.78942383 59.14507812 4.23242188 59.484375 C8.27847733 60.44302229 12.30593846 61.4070002 16.29296875 62.58984375 C20.65210138 63.81355886 24.02352742 63.86715753 28.3125 62.4375 C28.56 61.2 28.8075 59.9625 29.0625 58.6875 C29.20171875 57.99140625 29.3409375 57.2953125 29.484375 56.578125 C29.5044114 54.27842217 29.5044114 54.27842217 27.64916992 52.40844727 C24.98136023 50.1581884 23.13489954 49.55027316 19.75390625 48.76171875 C18.6553833 48.49480225 17.55686035 48.22788574 16.42504883 47.95288086 C15.25353271 47.67968018 14.0820166 47.40647949 12.875 47.125 C4.0442614 44.94232699 -4.719899 42.68216643 -13.375 39.875 C-14.20378662 39.61871826 -15.03257324 39.36243652 -15.88647461 39.09838867 C-24.00183532 36.39994156 -30.52920989 32.0887538 -34.6875 24.4375 C-36.71697133 19.36382168 -36.15622703 13.86835094 -34.5 8.8125 C-26.22453458 -6.59698733 -14.57806852 -4.9825788 0 0 Z " fill="#D8D8D8" transform="translate(50.6875,185.5625)"/>
<path d="M0 0 C0.95321413 1.64968808 1.90631321 3.29944265 2.859375 4.94921875 C3.47554688 6.01575684 4.09171875 7.08229492 4.7265625 8.18115234 C6.08303668 10.53041674 7.43700759 12.88109975 8.7890625 15.23291016 C12.06409753 20.92730901 15.35264005 26.6111859 18.703125 32.26171875 C19.26161133 33.21280518 19.82009766 34.1638916 20.39550781 35.14379883 C21.44754217 36.93459437 22.5090906 38.71984198 23.58105469 40.4987793 C24.04930664 41.300979 24.51755859 42.10317871 25 42.9296875 C25.4125 43.62304199 25.825 44.31639648 26.25 45.03076172 C27.20050892 47.52646645 26.94789402 48.52482772 26 51 C25.23030672 52.55012728 24.40791248 54.07457972 23.55078125 55.578125 C23.03870117 56.48087158 22.52662109 57.38361816 21.99902344 58.3137207 C21.16419434 59.76717896 21.16419434 59.76717896 20.3125 61.25 C19.74176758 62.25184326 19.17103516 63.25368652 18.58300781 64.28588867 C12.53145464 74.88103738 6.37292146 85.41451491 0.19238281 95.93481445 C-0.57742141 97.2681015 -1.31148669 98.62297338 -2 100 C-9.79663835 100.34895204 -17.59142317 100.61472667 -25.39392757 100.77718258 C-29.01845027 100.85520568 -32.63760357 100.96075996 -36.2590332 101.1315918 C-59.45757266 102.19663416 -59.45757266 102.19663416 -65.09506226 98.7008667 C-68.34661467 95.35100378 -69.85649252 91.43981854 -71.27230835 87.05447388 C-72.43933712 83.75963035 -74.26531661 80.91814502 -76.08984375 77.953125 C-77.37376761 75.71953798 -78.65633402 73.48517006 -79.9375 71.25 C-81.23704941 68.98366218 -82.53809164 66.71820032 -83.83984375 64.453125 C-84.40050537 63.47504883 -84.96116699 62.49697266 -85.53881836 61.48925781 C-86.63384336 59.62378164 -87.80011782 57.79982328 -89 56 C-88.70630799 49.17730871 -82.63783784 44.48303263 -78 40 C-74.45255505 36.83411163 -70.76696818 33.89926654 -67 31 C-66.07574219 30.26007812 -65.15148437 29.52015625 -64.19921875 28.7578125 C-47.64415716 15.80946933 -21.6909838 0 0 0 Z " fill="#EC9A82" transform="translate(179,20)"/>
<path d="M0 0 C2.9375 1.80078125 2.9375 1.80078125 6 4.3125 C12.17335707 9.09069917 18.69704421 12.55393152 25.75 15.875 C26.70777344 16.32657471 27.66554688 16.77814941 28.65234375 17.2434082 C34.68884123 20.03841061 40.79821682 22.59533039 47 25 C45.80875585 28.20963583 44.54851437 30.89775032 42.49609375 33.63671875 C42.00705566 34.29164307 41.51801758 34.94656738 41.01416016 35.62133789 C40.23371338 36.64408813 40.23371338 36.64408813 39.4375 37.6875 C38.9017334 38.39575928 38.3659668 39.10401855 37.81396484 39.83374023 C34.07225032 44.72808127 30.15004802 49.388391 25.94921875 53.8984375 C24.20472294 55.77927667 22.56532432 57.70618031 20.9375 59.6875 C9.37101574 73.13471341 -7.25914365 83.06256173 -25 85 C-40.24364292 86.14044899 -56.36698802 84.59507339 -69 75 C-71.23672378 72.35659917 -71.87988919 70.81601053 -72.37890625 67.42578125 C-71.82611887 62.42789947 -69.41707206 58.89599176 -66.875 54.625 C-58.53549168 40.00756945 -54.00126836 25.28834906 -50 9 C-38.94819827 6.62544146 -27.88496245 4.36252256 -16.76879883 2.30761719 C-15.92728271 2.15067383 -15.0857666 1.99373047 -14.21875 1.83203125 C-13.47560547 1.69514893 -12.73246094 1.5582666 -11.96679688 1.41723633 C-3.71100443 -0.33414764 -3.71100443 -0.33414764 0 0 Z " fill="#5FD7A5" transform="translate(263,243)"/>
<path d="M0 0 C0.13535156 0.93457031 0.27070313 1.86914062 0.41015625 2.83203125 C3.47018845 22.16893679 11.13648942 40.70473413 22 57 C22.82255572 61.54570269 22.47430122 65.06963992 20.375 69.1875 C11.28695554 78.48267938 -4.37726779 80.18083502 -16.625 80.4375 C-37.51474149 80.46855993 -53.02267595 70.72471086 -68 57 C-68.70253906 56.35804688 -69.40507812 55.71609375 -70.12890625 55.0546875 C-75.24419751 50.14115946 -79.59084065 44.5405078 -84 39 C-85.05380859 37.69482422 -85.05380859 37.69482422 -86.12890625 36.36328125 C-86.76699219 35.56277344 -87.40507812 34.76226562 -88.0625 33.9375 C-88.63097656 33.22464844 -89.19945312 32.51179688 -89.78515625 31.77734375 C-91 30 -91 30 -91 28 C-88.27119196 27.25525802 -85.6858317 26.81853213 -82.8671875 26.60546875 C-55.55720429 24.3452941 -27.52903346 17.4376562 -4.6640625 1.734375 C-2 0 -2 0 0 0 Z " fill="#5FD7A5" transform="translate(467,248)"/>
<path d="M0 0 C3.35480113 0.78899368 6.70871942 1.58168047 10.0625 2.375 C11.00544922 2.59671875 11.94839844 2.8184375 12.91992188 3.046875 C16.96597733 4.00552229 20.99343846 4.9695002 24.98046875 6.15234375 C29.33960138 7.37605886 32.71102742 7.42965753 37 6 C37.66 4.68 38.32 3.36 39 2 C43.29 2.33 47.58 2.66 52 3 C52.99 6.465 52.99 6.465 54 10 C61.11350655 12.09531505 68.12018534 12.63030913 75.5 13.125 C76.70398438 13.21136719 77.90796875 13.29773438 79.1484375 13.38671875 C82.09857397 13.59744278 85.04900717 13.8016943 88 14 C86.16443786 18.89202088 83.63058577 22.75953534 80.625 27 C79.83077637 28.12233032 79.83077637 28.12233032 79.02050781 29.26733398 C73.87781665 36.39435061 68.12938695 42.72132998 62 49 C61.32710938 49.74636719 60.65421875 50.49273437 59.9609375 51.26171875 C49.47014295 62.62302604 34.85080719 70.507394 19.359375 71.4375 C5.48482616 71.89306874 -6.6085866 70.58737318 -18 62 C-20.35266465 59.64733535 -20.32224537 59.06301274 -20.3828125 55.8515625 C-20.26288104 50.76362276 -18.5832737 47.57675161 -15.875 43.375 C-8.65189108 31.38765237 -3.61717847 18.46906801 -0.921875 4.70703125 C-0.7475293 3.82120361 -0.57318359 2.93537598 -0.39355469 2.02270508 C-0.26368164 1.3552124 -0.13380859 0.68771973 0 0 Z " fill="#5ED7A5" transform="translate(42,242)"/>
<path d="M0 0 C2.80843671 0.07278147 5.61336883 0.05619422 8.42246532 0.03820038 C11.79063763 0.02674538 15.15580233 0.08923373 18.52349854 0.14831543 C19.77672409 0.14891968 21.02994965 0.14952393 22.32115173 0.15014648 C30.77721989 0.49463803 30.77721989 0.49463803 33.96862793 3.45977783 C35.53030283 5.76023102 36.75158982 8.03385995 37.91802979 10.55456543 C38.49472412 11.52039551 39.07141846 12.48622559 39.66558838 13.48132324 C40.12787842 14.31502441 40.59016846 15.14872559 41.06646729 16.00769043 C41.59345215 16.95104248 42.12043701 17.89439453 42.66339111 18.86633301 C43.20117188 19.83594971 43.73895264 20.80556641 44.29302979 21.80456543 C48.55675079 29.43679079 52.90882716 36.96288215 57.62506104 44.32409668 C58.91802979 46.55456543 58.91802979 46.55456543 58.91802979 48.55456543 C55.58616538 49.04430158 52.25232595 49.51919361 48.91802979 49.99206543 C48.00279541 50.12677246 47.08756104 50.26147949 46.14459229 50.40026855 C31.88246692 52.40282725 17.61547624 52.74120402 3.23760986 52.73986816 C0.61854776 52.74205456 -2.00009132 52.76030142 -4.61907959 52.7791748 C-21.42297039 52.83545969 -37.68124068 51.23185905 -54.08197021 47.55456543 C-49.4186839 37.81107648 -44.46051484 28.19981252 -38.53143311 19.15466309 C-37.30125388 16.9479242 -36.5829233 15.10829551 -35.8180542 12.73181152 C-29.86928937 -3.20240113 -14.53816497 -0.49488386 0 0 Z " fill="#E4866C" transform="translate(144.08197021484375,133.4454345703125)"/>
<path d="M0 0 C1.02981995 0.00031723 1.02981995 0.00031723 2.08044434 0.00064087 C15.53679577 0.04155519 28.45056578 1.57638132 41.625 4.375 C42.51074707 4.55691895 43.39649414 4.73883789 44.30908203 4.92626953 C59.4149949 8.09944702 73.90701578 13.27340688 87.625 20.375 C87.625 21.035 87.625 21.695 87.625 22.375 C86.93277344 22.643125 86.24054688 22.91125 85.52734375 23.1875 C71.91757915 28.63857831 60.12118959 35.32081147 48.625 44.375 C45.34042381 46.56471746 44.4074019 46.62083902 40.6027832 46.60205078 C39.58195145 46.60189972 38.56111969 46.60174866 37.50935364 46.60159302 C36.40927475 46.59127045 35.30919586 46.58094788 34.17578125 46.5703125 C32.48415108 46.56606766 32.48415108 46.56606766 30.75834656 46.56173706 C27.15129042 46.55052916 23.54448127 46.52542323 19.9375 46.5 C17.49414421 46.489971 15.05078453 46.48084501 12.60742188 46.47265625 C6.61319677 46.45058783 0.61911603 46.41710417 -5.375 46.375 C-5.81255615 45.60534912 -6.2501123 44.83569824 -6.70092773 44.04272461 C-8.73631285 40.46495146 -10.7736854 36.88831969 -12.8125 33.3125 C-13.17682129 32.67339691 -13.54114258 32.03429382 -13.91650391 31.37582397 C-18.51228413 23.31909471 -23.1347032 15.28325507 -27.98608398 7.37670898 C-30.375 3.46957007 -30.375 3.46957007 -30.375 2.375 C-20.20339017 0.80023981 -10.31094717 -0.01338918 0 0 Z " fill="#E4866C" transform="translate(224.375,14.625)"/>
<path d="M0 0 C-0.92039062 0.46148437 -1.84078125 0.92296875 -2.7890625 1.3984375 C-32.3184055 16.49164999 -54.31550667 38.9105384 -70 68 C-70.52207031 68.92683594 -71.04414063 69.85367188 -71.58203125 70.80859375 C-83.34269258 92.68528566 -88.40176301 118.43895195 -88.25 143.0625 C-88.25773437 144.32126953 -88.26546875 145.58003906 -88.2734375 146.87695312 C-88.25843836 154.14028799 -87.72201123 161.04302843 -86.42871094 168.19311523 C-86.02317141 170.84829061 -85.92267454 173.31969076 -86 176 C-99.69113189 163.22321435 -107.40822498 142.73949192 -108.10058594 124.32470703 C-108.99950993 90.49298121 -100.15175347 62.0278847 -76.90625 36.9375 C-62.02640845 21.81372662 -22.94437567 -7.86821516 0 0 Z " fill="#5FD7A5" transform="translate(346,44)"/>
<path d="M0 0 C8.66137961 2.8425774 17.26896405 5.28010976 26.1875 7.1875 C26.40664062 8.24066406 26.62578125 9.29382813 26.8515625 10.37890625 C30.38186745 26.69608247 36.96434597 41.20953848 44.1875 56.1875 C43.1975 57.5075 42.2075 58.8275 41.1875 60.1875 C39.24654142 60.04004733 37.30930766 59.84298248 35.375 59.625 C34.29605469 59.52058594 33.21710938 59.41617188 32.10546875 59.30859375 C31.14253906 58.93863281 30.17960937 58.56867188 29.1875 58.1875 C28.71957031 57.05699219 28.25164062 55.92648438 27.76953125 54.76171875 C26.52493023 50.903868 26.52493023 50.903868 22.84375 49.5859375 C21.46581242 49.21573778 20.07935792 48.87633333 18.6875 48.5625 C17.93992432 48.367771 17.19234863 48.17304199 16.42211914 47.97241211 C14.01652944 47.3503843 11.60346685 46.76777508 9.1875 46.1875 C-26.93284423 37.15189995 -26.93284423 37.15189995 -33.8125 28.1875 C-36.83710297 23.02176916 -37.37308994 18.0736944 -36.8125 12.1875 C-34.74521701 5.87684668 -31.60637704 1.13671654 -26.125 -2.6875 C-17.06430475 -5.76471725 -8.7419924 -2.93110843 0 0 Z " fill="#CACAC8" transform="translate(51.8125,185.8125)"/>
<path d="M0 0 C2.99190576 2.62207456 4.67663419 5.68916136 6.6171875 9.13671875 C6.95622101 9.73498978 7.29525452 10.3332608 7.64456177 10.94966125 C8.72601312 12.85969725 9.80084083 14.77335512 10.875 16.6875 C11.94057363 18.57871198 13.00757283 20.46909739 14.07647705 22.35842896 C14.76613276 23.57827948 15.45362093 24.79935819 16.13885498 26.021698 C17.99128279 29.30691364 19.95140137 32.4637028 22.0703125 35.58203125 C24 39 24 39 24.0703125 41.55078125 C22.59380012 44.92951579 20.80097758 48.05248696 18.875 51.1875 C17.97509484 52.6827114 17.07676743 54.17887309 16.1796875 55.67578125 C15.68049805 56.50674316 15.18130859 57.33770508 14.66699219 58.19384766 C11.04010694 64.29921072 7.52753321 70.47205949 3.99212646 76.63070679 C3.03726709 78.29335515 2.08115644 79.95528471 1.125 81.6171875 C0.57070312 82.58253418 0.01640625 83.54788086 -0.5546875 84.54248047 C-1.64530339 86.39689593 -2.80664665 88.20996997 -4 90 C-14.47899066 88.68012713 -24.5388949 85.70552317 -34 81 C-31.91090868 55.40863138 -18.32505068 18.32505068 0 0 Z " fill="#EA9981" transform="translate(79,87)"/>
<path d="M0 0 C1.46030557 0.00094484 2.92083711 0.03456099 4.37988281 0.09521484 C5.15108459 0.10370453 5.92228638 0.11219421 6.71685791 0.12094116 C9.17367878 0.15445939 11.6271841 0.2297233 14.08300781 0.30615234 C15.75092906 0.33625455 17.41890191 0.36362993 19.08691406 0.38818359 C23.17021762 0.45424389 27.2510512 0.55774435 31.33300781 0.68115234 C30.77794556 1.39948242 30.77794556 1.39948242 30.21166992 2.13232422 C14.04579448 23.32775412 1.0428188 48.81001141 1.23535156 76.02099609 C1.23747398 77.1714315 1.23747398 77.1714315 1.23963928 78.34510803 C1.24519015 80.76966424 1.25773319 83.19412453 1.27050781 85.61865234 C1.27552917 87.27294788 1.28009096 88.92724487 1.28417969 90.58154297 C1.29514343 94.61478247 1.31237357 98.6479512 1.33300781 102.68115234 C-1.14199219 103.17615234 -1.14199219 103.17615234 -3.66699219 103.68115234 C-8.13247683 97.47303955 -11.82511394 90.90434231 -15.47851562 84.20239258 C-17.96108584 79.67461771 -20.52650457 75.21520709 -23.20214844 70.79833984 C-23.79761475 69.81244873 -24.39308105 68.82655762 -25.0065918 67.81079102 C-26.17929038 65.87831588 -27.36084456 63.95118161 -28.55200195 62.0300293 C-29.08752686 61.14532959 -29.62305176 60.26062988 -30.17480469 59.34912109 C-30.65578613 58.56819092 -31.13676758 57.78726074 -31.63232422 56.98266602 C-32.83599297 54.30522729 -32.97947924 52.58789931 -32.66699219 49.68115234 C-31.40028663 47.16860461 -30.09321509 44.86832874 -28.60449219 42.49365234 C-27.69257214 40.99472398 -26.78254621 39.49464228 -25.87402344 37.99365234 C-25.11532959 36.74648437 -25.11532959 36.74648437 -24.34130859 35.47412109 C-20.40554655 28.90877875 -16.64716493 22.23677086 -12.84643555 15.5925293 C-12.23292236 14.52478271 -11.61940918 13.45703613 -10.98730469 12.35693359 C-10.44348145 11.40729736 -9.8996582 10.45766113 -9.33935547 9.47924805 C-8.51153564 8.09419067 -8.51153564 8.09419067 -7.66699219 6.68115234 C-7.10447754 5.58617432 -6.54196289 4.49119629 -5.96240234 3.36303711 C-3.66699219 0.68115234 -3.66699219 0.68115234 0 0 Z " fill="#EDAA97" transform="translate(222.6669921875,75.31884765625)"/>
<path d="M0 0 C-0.38671875 0.77859375 -0.7734375 1.5571875 -1.171875 2.359375 C-11.22831793 23.96579198 -12.90061715 47.978873 -7 71 C-6.81050781 71.8765625 -6.62101562 72.753125 -6.42578125 73.65625 C-6.02954911 75.45672886 -5.52974389 77.23418703 -5 79 C-4.01 79.495 -4.01 79.495 -3 80 C-18.42090254 80.75428328 -34.14952833 79.7602392 -47 70 C-49.23672378 67.35659917 -49.87988919 65.81601053 -50.37890625 62.42578125 C-49.82611887 57.42789947 -47.41707206 53.89599176 -44.875 49.625 C-36.53549168 35.00756945 -32.00126836 20.28834906 -28 4 C-24.9797577 3.35129661 -21.95886021 2.70595844 -18.9375 2.0625 C-17.66616211 1.78889648 -17.66616211 1.78889648 -16.36914062 1.50976562 C-2.76028963 -1.38014482 -2.76028963 -1.38014482 0 0 Z " fill="#00CA8A" transform="translate(241,248)"/>
<path d="M0 0 C3.41860039 0.78346656 6.83448584 1.57819591 10.25 2.375 C11.21808594 2.59671875 12.18617187 2.8184375 13.18359375 3.046875 C14.58544922 3.37558594 14.58544922 3.37558594 16.015625 3.7109375 C16.87446289 3.90993652 17.73330078 4.10893555 18.61816406 4.31396484 C20.9308541 4.98008405 22.89100908 5.85158187 25 7 C24.61908203 7.96486328 24.61908203 7.96486328 24.23046875 8.94921875 C16.63497108 28.89095608 15.34059161 48.79904123 23 69 C23.99 69.99 23.99 69.99 25 71 C9.17790997 71.52284487 -4.7891162 71.95897394 -18 62 C-20.35266465 59.64733535 -20.32224537 59.06301274 -20.3828125 55.8515625 C-20.26288104 50.76362276 -18.5832737 47.57675161 -15.875 43.375 C-8.65189108 31.38765237 -3.61717847 18.46906801 -0.921875 4.70703125 C-0.7475293 3.82120361 -0.57318359 2.93537598 -0.39355469 2.02270508 C-0.26368164 1.3552124 -0.13380859 0.68771973 0 0 Z " fill="#00CB8A" transform="translate(42,242)"/>
<path d="M0 0 C0.20753906 1.0415625 0.41507812 2.083125 0.62890625 3.15625 C5.22715869 25.05011413 14.01548323 42.09535888 32.54296875 55.20703125 C33.35378906 55.79871094 34.16460937 56.39039063 35 57 C35 57.33 35 57.66 35 58 C20.20595238 59.41044946 4.86981628 53.42119897 -6.5390625 44.1953125 C-10.10942604 41.22118602 -13.57440185 38.13910175 -17 35 C-17.70253906 34.35804688 -18.40507812 33.71609375 -19.12890625 33.0546875 C-24.24419751 28.14115946 -28.59084065 22.5405078 -33 17 C-34.05380859 15.69482422 -34.05380859 15.69482422 -35.12890625 14.36328125 C-35.76699219 13.56277344 -36.40507812 12.76226562 -37.0625 11.9375 C-37.63097656 11.22464844 -38.19945312 10.51179688 -38.78515625 9.77734375 C-40 8 -40 8 -40 6 C-37.2282397 5.24321338 -34.58846457 4.80410525 -31.7265625 4.5703125 C-30.90784668 4.4986084 -30.08913086 4.4269043 -29.24560547 4.35302734 C-27.94840576 4.24015381 -27.94840576 4.24015381 -26.625 4.125 C-19.10175363 3.43187154 -11.91142349 2.33424417 -4.5546875 0.5859375 C-2 0 -2 0 0 0 Z " fill="#00CA8A" transform="translate(416,270)"/>
<path d="M0 0 C5.43293549 1.8109785 7.48013876 7.98274878 10.25 12.75 C10.91257812 13.84828125 11.57515625 14.9465625 12.2578125 16.078125 C12.87914063 17.1403125 13.50046875 18.2025 14.140625 19.296875 C14.99962402 20.75625488 14.99962402 20.75625488 15.87597656 22.24511719 C17.17794133 25.43611858 17.08300418 26.77345224 16 30 C14.68635293 32.46089885 13.33252537 34.81493756 11.875 37.1875 C10.97773077 38.67882452 10.08200634 40.17107914 9.1875 41.6640625 C8.68863281 42.49454102 8.18976563 43.32501953 7.67578125 44.18066406 C4.35105323 49.77418958 1.11992609 55.42244523 -2.125 61.0625 C-2.80736518 62.24704035 -3.48981781 63.43153032 -4.17236328 64.6159668 C-5.78228402 67.41023752 -7.39148361 70.20492072 -9 73 C-9.99 73 -10.98 73 -12 73 C-12.02941647 68.72918152 -12.04693715 64.45838966 -12.0625 60.1875 C-12.07087891 58.99189453 -12.07925781 57.79628906 -12.08789062 56.56445312 C-12.11667267 46.00144166 -11.62155056 36.02394131 -8.8125 25.8125 C-8.49019409 24.61016724 -8.49019409 24.61016724 -8.16137695 23.38354492 C-5.95262744 15.39346246 -3.0855405 7.68734317 0 0 Z " fill="#EDAA97" transform="translate(86,101)"/>
<path d="M0 0 C5.99000559 2.70478934 10.08508527 7.35652771 12.890625 13.22265625 C13.71243839 17.33172321 14.28855591 21.19118083 13.515625 25.34765625 C11.12695318 28.14581467 9.55547662 29.08769334 6.015625 29.97265625 C2.90035143 29.19383786 1.49939245 27.66619478 -0.421875 25.14453125 C-2.04948989 22.39194725 -2.69956183 19.4265387 -3.484375 16.34765625 C-6.53421496 14.82273627 -9.1267119 15.11203077 -12.484375 15.34765625 C-15.37444081 17.04183276 -15.52913764 18.51178594 -16.421875 21.78515625 C-17.5507606 25.57024326 -18.17783118 27.20287107 -21.484375 29.34765625 C-25.17173506 29.34765625 -27.47198674 29.13144071 -30.421875 26.84765625 C-32.34121678 22.33155795 -32.25451504 17.87353223 -30.828125 13.1953125 C-25.19862129 0.55319426 -13.02936129 -3.42123166 0 0 Z " fill="#040504" transform="translate(444.484375,156.65234375)"/>
<path d="M0 0 C5.2036647 3.09794445 9.07078303 7.79701397 12.0625 13 C12.87076231 16.59227693 13.3293904 19.8533122 12.625 23.5 C10.5625 26.5625 10.5625 26.5625 7.625 28.5 C3.85651241 28.56497392 1.66376588 28.43130734 -1.1875 25.875 C-2.69804436 22.85391128 -3.47264553 19.74847608 -4.375 16.5 C-6.37185749 14.07855488 -6.37185749 14.07855488 -10.3125 14.125 C-13.58570598 14.21379345 -13.58570598 14.21379345 -16.25 16.0625 C-17.51841867 18.62475535 -17.51841867 18.62475535 -18.3125 22.0625 C-19.375 25.5 -19.375 25.5 -21.0625 27.5 C-24.54945294 29.00787154 -26.77391314 28.54758891 -30.375 27.5 C-32.88382813 24.74838205 -33.32644445 22.86763486 -33.8125 19.1875 C-32.826803 10.87948239 -28.70462382 6.4164212 -22.49609375 1.06640625 C-16.64441098 -3.25500221 -6.48827406 -2.89359177 0 0 Z " fill="#040505" transform="translate(309.375,157.5)"/>
<path d="M0 0 C2.29859209 1.46083643 4.00921826 3.10181276 6 5 C9.24890773 6.62445387 12.48972066 6.5697312 16 6 C19.25768586 4.44685201 22.43258031 2.56741969 25 0 C28.85797355 -0.36395977 31.15988698 -0.56007535 34.4375 1.625 C36.51114192 4.77693571 36.66859841 6.28556438 36 10 C31.89557054 16.70390146 25.28685482 19.57104839 18 22 C7.65475478 22.94753748 0.63849942 21.02642162 -7.5625 14.75 C-10.31488616 12.20088387 -11.54817893 10.53588495 -11.75 6.75 C-11 3 -11 3 -9.4375 1 C-5.98643194 -0.41582279 -3.70487648 -0.51101745 0 0 Z " fill="#030404" transform="translate(355,189)"/>
<path d="M0 0 C0.66 0.33 1.32 0.66 2 1 C-2.60131108 5.16958313 -7.2484861 9.21685336 -12.125 13.0625 C-23.92572961 22.67852231 -34.13729753 33.64334752 -43 46 C-43.5671875 46.77988281 -44.134375 47.55976562 -44.71875 48.36328125 C-45.82654993 49.89881504 -46.91661306 51.44714539 -48 53 C-50.55743667 50.51440143 -52.45143786 48.25198049 -54 45 C-53.51177589 37.31689434 -45.76031282 31.46341871 -40.3125 26.6015625 C-37.58399435 24.3410273 -34.80781947 22.16105278 -32 20 C-31.07574219 19.26007812 -30.15148437 18.52015625 -29.19921875 17.7578125 C-21.28234804 11.56572688 -12.85456203 6.71645027 -4 2 C-3.2265625 1.56558594 -2.453125 1.13117187 -1.65625 0.68359375 C-0.83640625 0.34521484 -0.83640625 0.34521484 0 0 Z " fill="#E2856C" transform="translate(144,31)"/>
</svg>
