<?xml version="1.0" standalone="no"?>
<!DOCTYPE svg PUBLIC "-//W3C//DTD SVG 20010904//EN"
 "http://www.w3.org/TR/2001/REC-SVG-20010904/DTD/svg10.dtd">
<svg version="1.0" xmlns="http://www.w3.org/2000/svg"
 width="512.000000pt" height="512.000000pt" viewBox="0 0 512.000000 512.000000"
 preserveAspectRatio="xMidYMid meet">

<g transform="translate(0.000000,512.000000) scale(0.100000,-0.100000)"
fill="#000000" stroke="none">
<path d="M3450 5113 c-339 -56 -587 -258 -741 -601 -82 -186 -137 -376 -217
-757 l-27 -129 -40 -7 c-140 -25 -335 -176 -528 -407 -433 -521 -889 -1446
-864 -1752 l5 -65 -116 -86 c-65 -47 -200 -144 -301 -215 -101 -71 -206 -148
-232 -171 -84 -77 -96 -154 -31 -216 43 -41 99 -60 201 -66 l93 -6 -53 -65
c-272 -331 -313 -467 -166 -542 156 -79 453 25 862 303 254 172 516 398 771
663 86 89 154 153 154 143 0 -27 59 -86 98 -97 25 -8 227 -10 614 -8 567 3
577 3 605 24 103 77 96 187 -24 345 l-49 65 74 44 c322 187 519 482 604 902
20 100 23 142 23 363 0 262 -15 397 -64 568 l-19 65 46 12 c76 19 184 67 257
115 37 25 70 45 72 45 1 0 20 -19 41 -42 68 -75 134 -84 192 -26 97 97 140
327 96 513 -46 192 -190 373 -373 467 -60 32 -64 35 -79 87 -87 301 -440 545
-779 540 -44 -1 -91 -4 -105 -6z m423 -426 c115 -53 181 -127 212 -242 l17
-61 -45 -65 c-104 -148 -171 -327 -183 -486 -6 -81 5 -203 23 -249 5 -14 -6
-11 -53 15 -202 114 -352 294 -425 509 -30 89 -33 107 -33 222 0 108 3 133 23
184 37 93 114 166 211 197 14 5 63 7 110 6 67 -2 97 -9 143 -30z m502 -312
c221 -134 329 -339 303 -580 -8 -75 -38 -164 -63 -185 -9 -8 -28 9 -76 67
-138 168 -239 257 -396 348 -46 26 -83 50 -83 52 0 10 46 94 85 153 48 74 141
180 159 180 7 0 39 -16 71 -35z m-190 -523 c78 -55 185 -154 185 -171 0 -29
-200 -129 -291 -146 l-37 -7 -18 54 c-15 42 -19 82 -19 193 0 77 3 148 7 158
7 16 11 16 55 -7 27 -13 80 -47 118 -74z m-966 -1319 c-219 -325 -555 -608
-838 -707 -112 -38 -243 -43 -306 -10 -55 29 -85 83 -85 156 0 47 -4 59 -22
72 -33 23 -50 20 -99 -19 -95 -76 -277 -128 -367 -105 -86 21 -112 63 -112
179 0 62 5 91 22 125 l21 45 39 -33 c52 -45 123 -66 223 -66 97 0 208 26 291
68 l59 30 20 -37 c26 -45 101 -96 173 -117 91 -27 233 -16 358 28 181 62 393
197 574 367 41 38 76 70 78 71 2 0 -11 -21 -29 -47z m-195 -440 c-126 -170
-336 -379 -485 -485 -207 -148 -447 -247 -595 -248 -118 0 -148 35 -137 168 5
75 5 80 -18 95 -36 26 -53 21 -116 -33 -118 -104 -271 -189 -370 -205 -87 -14
-153 35 -153 113 0 82 120 458 139 435 4 -4 20 -25 35 -46 81 -111 293 -127
485 -37 35 17 64 29 65 28 1 -2 9 -20 18 -40 66 -144 236 -200 453 -149 105
25 278 105 388 180 83 56 234 179 281 230 40 42 44 39 10 -6z m-1285 -794 l38
-40 -26 -18 c-144 -102 -450 -263 -659 -345 -269 -107 -535 -157 -626 -118
l-29 13 34 35 c19 20 115 93 214 162 99 69 237 168 306 219 l127 93 47 -21
c40 -18 62 -21 129 -17 96 6 189 41 306 116 l75 49 13 -44 c7 -24 30 -62 51
-84z m1648 63 c26 -27 61 -76 78 -111 42 -88 35 -95 -94 -99 l-101 -3 0 39 c0
25 -13 65 -34 108 -19 38 -34 70 -32 71 3 3 117 40 128 42 4 1 29 -21 55 -47z
m-667 -45 c120 0 232 4 270 11 l65 12 27 -32 c15 -17 37 -52 49 -77 37 -79 54
-76 -383 -79 -453 -3 -433 -7 -404 84 35 110 25 102 103 91 37 -5 160 -10 273
-10z"/>
<path d="M3703 4540 c-41 -25 -53 -48 -53 -104 0 -77 73 -130 146 -106 46 16
84 63 84 106 0 98 -95 154 -177 104z"/>
</g>
</svg>
