<?xml version="1.0" encoding="UTF-8"?>
<svg version="1.1" xmlns="http://www.w3.org/2000/svg" width="512" height="512">
<path d="M0 0 C1.00514648 0.00757324 2.01029297 0.01514648 3.04589844 0.02294922 C20.2446538 0.40335437 34.11005479 7.81043941 46.625 19.4375 C47.01215179 20.12949997 47.39930359 20.82149994 47.79818726 21.5344696 C50.08423827 23.91589845 51.75374512 23.94541121 54.97518921 24.03515625 C56.05988998 24.0347937 56.05988998 24.0347937 57.16650391 24.03442383 C58.31590454 24.05698494 58.31590454 24.05698494 59.48852539 24.08000183 C62.0264393 24.12315382 64.5633108 24.13578508 67.1015625 24.14453125 C68.86933786 24.1599273 70.63710931 24.17577754 72.40487671 24.19206238 C76.11554607 24.22055073 79.82584808 24.23193385 83.53662109 24.23364258 C88.27534735 24.23880967 93.0111718 24.30364844 97.74913979 24.38393116 C101.40399687 24.43612394 105.05816442 24.44720385 108.71335983 24.44714928 C110.45884258 24.45368737 112.20433762 24.4748557 113.94945145 24.51133156 C123.73923197 24.90371947 123.73923197 24.90371947 132.63725281 21.45901489 C134.86666185 19.2299856 136.72904804 16.94876694 138.625 14.4375 C153.10993268 1.81047318 170.44876981 -0.95872512 189.06689453 0.19824219 C208.09442587 1.97787386 223.20751682 14.96396036 236.625 27.4375 C237.21925781 27.97761719 237.81351562 28.51773437 238.42578125 29.07421875 C272.65418788 61.50542981 296.79820275 118.0382006 298.76367188 164.73193359 C299.71471162 200.85745801 293.11134876 233.08796005 267.81542969 260.390625 C255.77635361 273.03919816 255.77635361 273.03919816 248.625 277.4375 C249.2953795 284.53634008 252.59167693 290.82652015 255.38671875 297.29492188 C257.53284106 302.3754671 259.37177277 306.8954413 259.625 312.4375 C258.3125 315.375 258.3125 315.375 256.625 317.4375 C255.965 317.4375 255.305 317.4375 254.625 317.4375 C254.8415625 318.19675781 255.058125 318.95601563 255.28125 319.73828125 C255.5596875 320.73214844 255.838125 321.72601563 256.125 322.75 C256.54265625 324.22919922 256.54265625 324.22919922 256.96875 325.73828125 C257.625 328.4375 257.625 328.4375 257.625 331.4375 C258.718125 331.52 259.81125 331.6025 260.9375 331.6875 C264.625 332.4375 264.625 332.4375 266.25 334.06640625 C274.2965132 347.94206963 272.44071752 372.14648112 268.75 387.0625 C268.07431371 389.53000622 267.36859642 391.98960228 266.625 394.4375 C266.24494726 395.75710976 265.86726299 397.07740443 265.4921875 398.3984375 C265.20601563 399.40132813 264.91984375 400.40421875 264.625 401.4375 C265.21289307 401.53248779 265.80078613 401.62747559 266.40649414 401.7253418 C303.27606775 407.78338485 303.27606775 407.78338485 313.12109375 417.98828125 C316.5094561 422.90082044 316.46711959 428.69893247 315.625 434.4375 C312.98749048 440.13452057 308.60120913 443.88085643 302.7890625 446.15625 C299.94614909 447.18613561 297.10644312 448.20574907 294.22363281 449.11914062 C290.95365148 450.22417953 288.89582828 451.11153303 286.66796875 453.79296875 C285.55735496 456.60901945 285.26169795 458.73407137 285.1875 461.75 C284.72606494 468.46342773 282.97007462 473.15105225 278.125 477.875 C273.889186 480.52238375 270.75109403 480.50383629 265.828125 480.078125 C254.38864879 478.74892003 254.38864879 478.74892003 243.70654297 481.64453125 C241.30742334 484.29252916 240.24505939 486.86141562 238.94921875 490.203125 C237.19770511 494.48115831 234.69743882 496.40128059 230.625 498.4375 C225.32826201 498.92118416 220.3696161 499.19007949 215.4375 497.0625 C208.53881627 490.62372852 202.88691688 483.55827405 197.51025391 475.84692383 C194.44167573 471.48302758 191.18974908 467.32740341 187.75 463.25 C187.2977002 462.70947998 186.84540039 462.16895996 186.37939453 461.61206055 C182.31211614 456.59776506 182.31211614 456.59776506 176.625 454.109375 C175.965 454.13515625 175.305 454.1609375 174.625 454.1875 C173.965 454.20296875 173.305 454.2184375 172.625 454.234375 C170.45928807 454.45433012 168.66337069 454.64994769 166.625 455.4375 C165.28067614 457.2062147 165.28067614 457.2062147 164.375 459.375 C163.87226562 460.44041016 163.87226562 460.44041016 163.359375 461.52734375 C162.50538294 463.40755473 162.50538294 463.40755473 162.625 465.4375 C164.78039681 467.21323607 166.95020007 468.89600597 169.1875 470.5625 C176.19269227 475.92655118 183.78756528 481.74785617 186.625 490.4375 C186.81102796 494.98305267 186.21133608 498.4168409 183.9375 502.375 C180.38386695 505.54445651 177.68389035 506.49330445 172.88671875 506.36328125 C168.9238306 506.05611965 165.01747886 505.74040229 161.12890625 504.89453125 C157.48954416 504.15656701 155.57542413 503.82358182 152.36328125 505.8984375 C150.35228362 507.66753775 148.49731197 509.52477842 146.625 511.4375 C142.82232935 513.33883532 138.75724532 513.05376029 134.625 512.4375 C131.40079452 511.03115511 128.41691225 509.43647637 125.38671875 507.65234375 C121.29924029 505.85431574 119.04872539 506.90759324 115.01171875 508.41015625 C114.12097656 508.76980469 113.23023438 509.12945312 112.3125 509.5 C107.35970918 511.31069772 103.86781844 512.23725197 98.625 511.4375 C95.11303677 509.428473 92.93037916 507.35363747 91.625 503.4375 C90.12806136 490.46403182 97.66980211 476.87029684 104.625 466.4375 C104.955 463.7975 105.285 461.1575 105.625 458.4375 C95.395 458.4375 85.165 458.4375 74.625 458.4375 C74.625 465.380706 74.86356862 466.61816099 78.3125 472.0625 C83.6846821 480.91297063 90.72381008 492.70098976 88.14453125 503.4375 C87.14850694 506.07889044 85.80885865 508.21828392 84 510.375 C79.06244587 512.58390579 74.55493953 512.16490106 69.546875 510.27734375 C67.48812229 509.36713165 65.44476085 508.4209547 63.421875 507.43359375 C60.20293563 506.28718378 58.83303661 506.36471605 55.625 507.4375 C54.06160375 508.25121307 52.51999083 509.10783147 51 510 C45.5489312 512.76609295 40.65647247 513.90049109 34.625 512.4375 C31.51304769 510.46759429 29.07703148 508.17144954 26.625 505.4375 C26.295 505.1075 25.965 504.7775 25.625 504.4375 C21.60705089 504.83270811 17.60798457 505.30779182 13.60546875 505.8359375 C7.27386319 506.55272303 3.16391537 506.73727937 -2.375 503.4375 C-4.8992483 501.41810136 -5.32333532 500.59249404 -6.375 497.4375 C-6.97000283 491.36847115 -5.76543238 487.36737194 -2.375 482.4375 C3.38489312 475.62600813 10.30365094 470.45980861 17.625 465.4375 C17.08760944 463.78329778 16.51913992 462.13916705 15.9375 460.5 C15.62425781 459.58347656 15.31101563 458.66695313 14.98828125 457.72265625 C13.83083515 455.21116483 13.83083515 455.21116483 11.21484375 454.66015625 C10.36019531 454.58667969 9.50554687 454.51320313 8.625 454.4375 C6.76875 454.128125 6.76875 454.128125 4.875 453.8125 C0.96255087 453.91469084 -0.82448906 455.26889718 -3.625 457.9375 C-10.24988226 465.19060385 -15.93046195 473.28262488 -21.67431641 481.23681641 C-31.68427529 495.09213764 -31.68427529 495.09213764 -38.375 498.4375 C-43.80121447 498.93300761 -48.72169591 499.17230182 -53.75 496.9375 C-58.87501014 492.05653796 -62.303956 486.79700703 -65.375 480.4375 C-66.12595947 480.45321045 -66.87691895 480.4689209 -67.65063477 480.48510742 C-71.07951211 480.54777758 -74.50826855 480.58659261 -77.9375 480.625 C-79.70963867 480.66270508 -79.70963867 480.66270508 -81.51757812 480.70117188 C-89.60313888 480.76911776 -94.96478833 480.46879926 -101.1875 474.9375 C-105.10237546 469.79040144 -105.22925201 462.7330309 -105.625 456.5 C-106.0912942 453.23782681 -106.0912942 453.23782681 -108.921875 451.42578125 C-113.27126326 448.92143891 -117.68706836 447.41637302 -122.453125 445.90234375 C-127.75481383 444.0710352 -130.71394345 441.71245323 -134.375 437.4375 C-136.35219329 431.50592013 -136.3883456 424.81665922 -133.9375 419.0625 C-121.15786367 405.97116523 -101.592775 404.24443539 -84.375 401.4375 C-84.71273437 400.37273437 -85.05046875 399.30796875 -85.3984375 398.2109375 C-92.99418946 373.72754284 -92.99418946 373.72754284 -90.375 361.4375 C-88.60874163 359.04720082 -87.60367016 358.49599702 -84.6875 357.75 C-83.924375 357.646875 -83.16125 357.54375 -82.375 357.4375 C-82.07158575 355.3586618 -81.8083675 353.273927 -81.5625 351.1875 C-81.41167969 350.02734375 -81.26085937 348.8671875 -81.10546875 347.671875 C-81.23888672 346.07085937 -81.23888672 346.07085937 -81.375 344.4375 C-82.19613281 343.84453125 -83.01726562 343.2515625 -83.86328125 342.640625 C-86.375 340.4375 -86.375 340.4375 -86.80444336 338.33203125 C-86.94457303 331.94460931 -85.5615789 326.23108364 -83.625 320.1875 C-83.327146 319.229646 -83.02929199 318.27179199 -82.72241211 317.28491211 C-78.36530255 303.73100914 -72.82435921 290.58070431 -67.375 277.4375 C-68.28934814 276.99748657 -68.28934814 276.99748657 -69.22216797 276.54858398 C-91.10204681 265.25630358 -106.42682211 238.23726381 -114.04296875 215.72265625 C-122.06649786 189.90600148 -122.8052935 155.30323096 -112.36328125 129.984375 C-110.99258475 127.838937 -109.76999113 127.25863982 -107.375 126.4375 C-104.625 126.3125 -104.625 126.3125 -102.375 126.4375 C-102.230625 125.40625 -102.08625 124.375 -101.9375 123.3125 C-101.375 119.4375 -101.375 119.4375 -100.5625 116.3125 C-100.03621185 113.28433201 -100.03621185 113.28433201 -102.375 111 C-104.375 108.4375 -104.375 108.4375 -104.21484375 105.29296875 C-103.26560431 100.93529747 -101.79723737 97.22207825 -99.9375 93.1875 C-99.58405518 92.41100098 -99.23061035 91.63450195 -98.86645508 90.83447266 C-91.93754342 75.82107841 -84.19454751 61.75552396 -74.375 48.4375 C-73.73208008 47.55118896 -73.73208008 47.55118896 -73.07617188 46.64697266 C-55.60001149 22.70730104 -31.41553237 -0.33443368 0 0 Z " fill="#ADE194" transform="translate(166.375,-0.4375)"/>
<path d="M0 0 C7.85958554 8.05081633 6.45415954 25.28733438 6.42993164 35.68579102 C6.23819932 44.91633265 4.68025635 53.17667434 2 62 C1.61994726 63.31960976 1.24226299 64.63990443 0.8671875 65.9609375 C0.58101563 66.96382813 0.29484375 67.96671875 0 69 C0.8818396 69.14248169 0.8818396 69.14248169 1.78149414 69.2878418 C38.65106775 75.34588485 38.65106775 75.34588485 48.49609375 85.55078125 C51.8844561 90.46332044 51.84211959 96.26143247 51 102 C48.36249048 107.69702057 43.97620913 111.44335643 38.1640625 113.71875 C35.32114909 114.74863561 32.48144312 115.76824907 29.59863281 116.68164062 C26.32865148 117.78667953 24.27082828 118.67403303 22.04296875 121.35546875 C20.93235496 124.17151945 20.63669795 126.29657137 20.5625 129.3125 C20.10106494 136.02592773 18.34507462 140.71355225 13.5 145.4375 C9.264186 148.08488375 6.12609403 148.06633629 1.203125 147.640625 C-10.23635121 146.31142003 -10.23635121 146.31142003 -20.91845703 149.20703125 C-23.31757666 151.85502916 -24.37994061 154.42391562 -25.67578125 157.765625 C-27.42729489 162.04365831 -29.92756118 163.96378059 -34 166 C-39.29673799 166.48368416 -44.2553839 166.75257949 -49.1875 164.625 C-56.08618373 158.18622852 -61.73808312 151.12077405 -67.11474609 143.40942383 C-70.18332427 139.04552758 -73.43525092 134.88990341 -76.875 130.8125 C-77.3272998 130.27197998 -77.77959961 129.73145996 -78.24560547 129.17456055 C-82.31288386 124.16026506 -82.31288386 124.16026506 -88 121.671875 C-88.66 121.69765625 -89.32 121.7234375 -90 121.75 C-90.66 121.76546875 -91.32 121.7809375 -92 121.796875 C-94.16571193 122.01683012 -95.96162931 122.21244769 -98 123 C-99.34432386 124.7687147 -99.34432386 124.7687147 -100.25 126.9375 C-100.75273438 128.00291016 -100.75273438 128.00291016 -101.265625 129.08984375 C-102.11961706 130.97005473 -102.11961706 130.97005473 -102 133 C-99.84460319 134.77573607 -97.67479993 136.45850597 -95.4375 138.125 C-88.43230773 143.48905118 -80.83743472 149.31035617 -78 158 C-77.81397204 162.54555267 -78.41366392 165.9793409 -80.6875 169.9375 C-84.24113305 173.10695651 -86.94110965 174.05580445 -91.73828125 173.92578125 C-95.7011694 173.61861965 -99.60752114 173.30290229 -103.49609375 172.45703125 C-107.13545584 171.71906701 -109.04957587 171.38608182 -112.26171875 173.4609375 C-114.27271638 175.23003775 -116.12768803 177.08727842 -118 179 C-121.80267065 180.90133532 -125.86775468 180.61626029 -130 180 C-133.22420548 178.59365511 -136.20808775 176.99897637 -139.23828125 175.21484375 C-143.32575971 173.41681574 -145.57627461 174.47009324 -149.61328125 175.97265625 C-150.50402344 176.33230469 -151.39476562 176.69195312 -152.3125 177.0625 C-157.26529082 178.87319772 -160.75718156 179.79975197 -166 179 C-169.51196323 176.990973 -171.69462084 174.91613747 -173 171 C-174.49693864 158.02653182 -166.95519789 144.43279684 -160 134 C-159.67 131.36 -159.34 128.72 -159 126 C-169.23 126 -179.46 126 -190 126 C-190 132.943206 -189.76143138 134.18066099 -186.3125 139.625 C-180.9403179 148.47547063 -173.90118992 160.26348976 -176.48046875 171 C-177.47649306 173.64139044 -178.81614135 175.78078392 -180.625 177.9375 C-185.56255413 180.14640579 -190.07006047 179.72740106 -195.078125 177.83984375 C-197.13687771 176.92963165 -199.18023915 175.9834547 -201.203125 174.99609375 C-204.42206437 173.84968378 -205.79196339 173.92721605 -209 175 C-210.56339625 175.81371307 -212.10500917 176.67033147 -213.625 177.5625 C-219.0760688 180.32859295 -223.96852753 181.46299109 -230 180 C-233.11195231 178.03009429 -235.54796852 175.73394954 -238 173 C-238.33 172.67 -238.66 172.34 -239 172 C-243.01794911 172.39520811 -247.01701543 172.87029182 -251.01953125 173.3984375 C-257.35113681 174.11522303 -261.46108463 174.29977937 -267 171 C-269.5242483 168.98060136 -269.94833532 168.15499404 -271 165 C-271.59500283 158.93097115 -270.39043238 154.92987194 -267 150 C-261.24010688 143.18850813 -254.32134906 138.02230861 -247 133 C-247.53739056 131.34579778 -248.10586008 129.70166705 -248.6875 128.0625 C-249.00074219 127.14597656 -249.31398437 126.22945313 -249.63671875 125.28515625 C-250.79416485 122.77366483 -250.79416485 122.77366483 -253.41015625 122.22265625 C-254.26480469 122.14917969 -255.11945313 122.07570313 -256 122 C-257.2375 121.79375 -258.475 121.5875 -259.75 121.375 C-263.66244913 121.47719084 -265.44948906 122.83139718 -268.25 125.5 C-274.87488226 132.75310385 -280.55546195 140.84512488 -286.29931641 148.79931641 C-296.30927529 162.65463764 -296.30927529 162.65463764 -303 166 C-308.42621447 166.49550761 -313.34669591 166.73480182 -318.375 164.5 C-323.50001014 159.61903796 -326.928956 154.35950703 -330 148 C-330.75095947 148.01571045 -331.50191895 148.0314209 -332.27563477 148.04760742 C-335.70451211 148.11027758 -339.13326855 148.14909261 -342.5625 148.1875 C-343.74392578 148.21263672 -344.92535156 148.23777344 -346.14257812 148.26367188 C-354.22813888 148.33161776 -359.58978833 148.03129926 -365.8125 142.5 C-369.72737546 137.35290144 -369.85425201 130.2955309 -370.25 124.0625 C-370.7162942 120.80032681 -370.7162942 120.80032681 -373.546875 118.98828125 C-377.89626326 116.48393891 -382.31206836 114.97887302 -387.078125 113.46484375 C-392.37981383 111.6335352 -395.33894345 109.27495323 -399 105 C-400.97719329 99.06842013 -401.0133456 92.37915922 -398.5625 86.625 C-385.78286367 73.53366523 -366.217775 71.80693539 -349 69 C-349.33773437 67.93523437 -349.67546875 66.87046875 -350.0234375 65.7734375 C-357.61918946 41.29004284 -357.61918946 41.29004284 -355 29 C-353.27879408 26.94411515 -352.19253927 26.07805646 -349.6875 25.0625 C-345.81642308 24.97247496 -343.96636379 26.64039244 -341 29 C-339.78038478 31.43923045 -339.72920197 33.67025516 -339.50708008 36.35693359 C-337.95389488 53.96229761 -331.78242979 70.49385792 -318.671875 82.8125 C-301.63621715 96.75982222 -279.49971592 102.44327703 -258 105 C-258.65355469 103.34291016 -258.65355469 103.34291016 -259.3203125 101.65234375 C-264.21022556 88.98333757 -267.81396589 76.19060196 -271 63 C-271.21317871 62.1435791 -271.42635742 61.2871582 -271.64599609 60.40478516 C-276.46736703 40.99312755 -276.46736703 40.99312755 -275 34 C-272.91498587 31.22204348 -272.20242156 31.02998838 -268.625 30.5 C-263.92857537 31.14778271 -262.88737719 32.26948983 -260 36 C-258.96045098 39.27915463 -258.52533536 42.59768658 -258.0625 46 C-256.25226987 57.31956013 -253.47463261 68.08397832 -250 79 C-249.71141113 79.90830566 -249.42282227 80.81661133 -249.12548828 81.75244141 C-243.72598373 98.48827731 -237.130522 114.84580606 -229.20703125 130.5546875 C-227.79994314 133.40529318 -227.35874786 134.87389579 -228 138 C-231.34580736 141.6731146 -235.00135367 144.62981934 -239 147.5625 C-242.72838403 150.30647651 -246.40363935 153.08456793 -250 156 C-249.38125 155.835 -248.7625 155.67 -248.125 155.5 C-237.28515625 153.765625 -237.28515625 153.765625 -232.71484375 156.234375 C-230.71780964 157.74241571 -228.86174945 159.32930344 -227 161 C-225.67508126 162.0111222 -224.34391421 163.01426557 -223 164 C-222.23816406 163.4946875 -221.47632813 162.989375 -220.69140625 162.46875 C-209.491222 155.42144305 -209.491222 155.42144305 -202 157 C-199.20816374 157.83240679 -196.68011371 158.83049584 -194 160 C-195.05474339 157.80844386 -196.11710608 155.62141123 -197.1875 153.4375 C-197.50340088 152.7885376 -197.81930176 152.1395752 -198.14477539 151.47094727 C-199.80963389 148.12311108 -201.44050247 145.25020986 -203.9375 142.4375 C-209.81783606 134.65299311 -205.47961042 118.80194007 -204.5390625 109.4453125 C-204.38654721 107.88886017 -204.23440404 106.33237133 -204.08261108 104.77584839 C-203.76557597 101.53992108 -203.44401969 98.30448485 -203.11914062 95.06933594 C-202.70465749 90.93809924 -202.30181376 86.80582297 -201.90232277 82.67311287 C-201.59130099 79.46922031 -201.27408557 76.26596385 -200.95502853 73.0628624 C-200.80402231 71.53932353 -200.65492259 70.01559436 -200.50783157 68.49167252 C-200.30138908 66.36241798 -200.08657115 64.23416408 -199.86962891 62.10595703 C-199.74971588 60.8994046 -199.62980286 59.69285217 -199.5062561 58.44973755 C-198.97056855 54.79944778 -198.23875122 51.47731756 -197 48 C-193.51131349 45.67420899 -192.10281481 45.58134543 -188 46 C-185.83178711 47.06005859 -185.83178711 47.06005859 -184 49 C-183.63274329 51.6100831 -183.53200827 53.74964388 -183.62890625 56.3515625 C-183.64345352 57.09564362 -183.65800079 57.83972473 -183.67298889 58.60635376 C-183.91448514 67.31153433 -184.75723583 75.97670359 -185.65405273 84.63476562 C-185.94212508 87.41971304 -186.21707716 90.20574107 -186.49023438 92.9921875 C-186.66852666 94.77351214 -186.84753528 96.55476526 -187.02734375 98.3359375 C-187.1508445 99.57795425 -187.1508445 99.57795425 -187.27684021 100.84506226 C-187.6113749 104.0469018 -187.97854063 106.9356219 -189 110 C-179.76 110 -170.52 110 -161 110 C-161.3609375 106.25527344 -161.721875 102.51054687 -162.09375 98.65234375 C-162.44203719 95.01513059 -162.78918833 91.37781066 -163.13623047 87.74047852 C-163.3775556 85.21757815 -163.62005692 82.69479 -163.86376953 80.17211914 C-164.21437791 76.54081805 -164.56071935 72.90913109 -164.90625 69.27734375 C-165.07030334 67.59257179 -165.07030334 67.59257179 -165.2376709 65.87376404 C-166.64148767 51.00072077 -166.64148767 51.00072077 -164.4375 47.5625 C-161.05782196 45.39603972 -158.94016013 45.43711998 -155 46 C-152.2245279 48.12086458 -151.14251654 49.45028622 -150.25996399 52.85446167 C-150.14750839 53.95807037 -150.0350528 55.06167908 -149.91918945 56.19873047 C-149.78257401 57.45458954 -149.64595856 58.71044861 -149.50520325 60.00436401 C-149.37413384 61.37526425 -149.24350467 62.74620664 -149.11328125 64.1171875 C-148.9659292 65.53540205 -148.81707469 66.95346122 -148.66679382 68.37136841 C-148.27496803 72.10948059 -147.90476877 75.84943935 -147.53869629 79.59014893 C-147.24019598 82.60535642 -146.92707695 85.61895355 -146.6129427 88.63256645 C-145.31711874 101.06582472 -144.05040574 113.49319013 -143.21525574 125.96780396 C-143.07538281 127.93812139 -142.91204741 129.90696323 -142.72138977 131.87301636 C-142.12727162 138.25185279 -144.24000006 141.44770841 -148.109375 146.39453125 C-151.1456672 150.57884302 -153.03644864 155.24042389 -155 160 C-154.030625 159.505 -153.06125 159.01 -152.0625 158.5 C-147.0015432 156.42319303 -142.46370256 155.62942895 -137.23046875 157.70019531 C-133.04444654 159.59925121 -129.01311412 161.76224647 -125 164 C-124.54109375 163.51789063 -124.0821875 163.03578125 -123.609375 162.5390625 C-122.99578125 161.90742188 -122.3821875 161.27578125 -121.75 160.625 C-121.14671875 159.99851562 -120.5434375 159.37203125 -119.921875 158.7265625 C-116.351734 155.5192407 -113.70851683 154.74547013 -108.9375 154.875 C-108.08027344 154.89304687 -107.22304688 154.91109375 -106.33984375 154.9296875 C-105.56769531 154.95289063 -104.79554688 154.97609375 -104 155 C-103.01 155 -102.02 155 -101 155 C-106.31223858 150.12917952 -111.873277 145.83287759 -117.77734375 141.69921875 C-120.4362272 139.66650469 -120.88080415 138.79673019 -121.37109375 135.51953125 C-120.82217581 130.31347796 -118.43916218 126.30081365 -116.0625 121.6875 C-103.81425726 96.94988404 -94.17532864 69.20178389 -90.3659668 41.80004883 C-89.79480044 37.98898428 -89.42623322 35.57858518 -87.109375 32.43359375 C-83.94242763 30.28124248 -81.72997953 30.46714578 -78 31 C-75.5625 32.5 -75.5625 32.5 -74 35 C-73.66937086 40.86866718 -74.40659605 46.09950014 -75.6875 51.8125 C-75.86829102 52.6372583 -76.04908203 53.4620166 -76.23535156 54.31176758 C-80.08747349 71.58889535 -85.23586361 88.26617282 -91 105 C-65.14284045 100.62343037 -37.68973588 94.44051505 -21.1875 72.1875 C-11.25542113 56.99726172 -7.67834888 37.96175168 -10.45703125 20.0546875 C-10.80454817 18.45960984 -11.16291671 16.86683376 -11.53515625 15.27734375 C-12.37330544 11.17111704 -12.72477713 7.14481919 -12 3 C-8.48344335 -1.58217987 -5.36052378 -1.58830334 0 0 Z " fill="#010201" transform="translate(431,332)"/>
<path d="M0 0 C1.00514648 0.00757324 2.01029297 0.01514648 3.04589844 0.02294922 C20.2446538 0.40335437 34.11005479 7.81043941 46.625 19.4375 C47.01215179 20.12949997 47.39930359 20.82149994 47.79818726 21.5344696 C50.08423827 23.91589845 51.75374512 23.94541121 54.97518921 24.03515625 C56.05988998 24.0347937 56.05988998 24.0347937 57.16650391 24.03442383 C58.31590454 24.05698494 58.31590454 24.05698494 59.48852539 24.08000183 C62.0264393 24.12315382 64.5633108 24.13578508 67.1015625 24.14453125 C68.86933786 24.1599273 70.63710931 24.17577754 72.40487671 24.19206238 C76.11554607 24.22055073 79.82584808 24.23193385 83.53662109 24.23364258 C88.27534735 24.23880967 93.0111718 24.30364844 97.74913979 24.38393116 C101.40399687 24.43612394 105.05816442 24.44720385 108.71335983 24.44714928 C110.45884258 24.45368737 112.20433762 24.4748557 113.94945145 24.51133156 C123.73923197 24.90371947 123.73923197 24.90371947 132.63725281 21.45901489 C134.86666185 19.2299856 136.72904804 16.94876694 138.625 14.4375 C153.10993268 1.81047318 170.44876981 -0.95872512 189.06689453 0.19824219 C208.09442587 1.97787386 223.20751682 14.96396036 236.625 27.4375 C237.21925781 27.97761719 237.81351562 28.51773437 238.42578125 29.07421875 C272.65418788 61.50542981 296.79820275 118.0382006 298.76367188 164.73193359 C299.71471162 200.85745801 293.11134876 233.08796005 267.81542969 260.390625 C255.77635361 273.03919816 255.77635361 273.03919816 248.625 277.4375 C249.2953795 284.53634008 252.59167693 290.82652015 255.38671875 297.29492188 C257.53273259 302.37521029 259.37145196 306.89566429 259.625 312.4375 C258.27937601 315.38505732 257.53945456 316.98027272 254.625 318.4375 C251.75 318.75 251.75 318.75 248.625 318.4375 C245.24439763 315.66282025 243.7018899 312.88667629 242.08203125 308.8671875 C241.43137695 307.27583984 241.43137695 307.27583984 240.76757812 305.65234375 C240.32865234 304.55019531 239.88972656 303.44804687 239.4375 302.3125 C238.54844194 300.1222883 237.65913189 297.93217887 236.76953125 295.7421875 C236.38128174 294.77265137 235.99303223 293.80311523 235.59301758 292.80419922 C234.67450265 290.47373716 234.67450265 290.47373716 233.625 288.4375 C227.97872616 290.0998076 222.88824078 292.66499675 217.625 295.25 C195.15210811 306.09898229 195.15210811 306.09898229 186.625 305.4375 C184.25 303.875 184.25 303.875 182.625 301.4375 C182.0625 297.9375 182.0625 297.9375 182.625 294.4375 C187.08656939 289.65516418 193.5312182 287.94302903 199.5 285.6875 C233.91658291 272.25760178 259.8864136 251.42656689 275.625 217.4375 C276.02847656 216.56867188 276.43195313 215.69984375 276.84765625 214.8046875 C291.15429554 180.0988477 280.4771976 137.37896354 266.9375 104.3125 C252.36883505 69.96209256 230.30830919 34.23803638 195.1328125 18.3828125 C185.30612919 14.67867331 172.75533295 15.0752409 163.1484375 19.171875 C154.58671639 23.46598899 146.65287017 28.20292483 141.00453186 36.07427979 C138.58619515 38.90309044 137.04705462 39.93731494 133.33055115 40.31292725 C131.65490201 40.34820118 129.97817026 40.34529816 128.30249023 40.31152344 C126.92333939 40.32510391 126.92333939 40.32510391 125.5163269 40.33895874 C122.48772661 40.35951453 119.46205255 40.32949131 116.43359375 40.296875 C114.32422294 40.29651116 112.21485051 40.29851925 110.10548401 40.30279541 C105.68947358 40.30408903 101.27445903 40.28113785 96.85864258 40.24023438 C91.20001253 40.18912916 85.54294746 40.19136398 79.88416958 40.21084213 C75.5303234 40.22114068 71.17683669 40.20671677 66.82304573 40.18445587 C64.73667053 40.17609504 62.65025607 40.1746017 60.56387138 40.18010712 C57.64782746 40.18339084 54.73387443 40.15425663 51.81811523 40.11621094 C50.95719772 40.12319 50.09628021 40.13016907 49.20927429 40.13735962 C44.82976507 40.04406679 43.16168035 39.87915355 39.66371155 37.00054932 C38.99093674 36.15474304 38.31816193 35.30893677 37.625 34.4375 C37.026875 33.880625 36.42875 33.32375 35.8125 32.75 C34.625 31.4375 34.625 31.4375 34.625 29.4375 C34.04878906 29.16679687 33.47257813 28.89609375 32.87890625 28.6171875 C30.60537607 27.4272289 28.64182437 26.06272282 26.5625 24.5625 C15.36349913 16.9916052 1.79440862 14.53475351 -11.46484375 17.015625 C-25.28665939 21.09723499 -36.37077626 30.43327626 -46.375 40.4375 C-47.21546875 41.27796875 -48.0559375 42.1184375 -48.921875 42.984375 C-64.96379238 59.84371492 -75.77719665 80.37635141 -85.46484375 101.328125 C-85.79210449 102.03130859 -86.11936523 102.73449219 -86.45654297 103.45898438 C-87.29089065 105.25631388 -88.11663522 107.05763081 -88.94140625 108.859375 C-90.375 111.4375 -90.375 111.4375 -93.375 113.4375 C-96.8125 113.875 -96.8125 113.875 -100.375 113.4375 C-102.875 111.375 -102.875 111.375 -104.375 108.4375 C-104.03277823 102.77338052 -102.27543309 98.2594925 -99.9375 93.1875 C-99.58405518 92.41100098 -99.23061035 91.63450195 -98.86645508 90.83447266 C-91.93754342 75.82107841 -84.19454751 61.75552396 -74.375 48.4375 C-73.94638672 47.84662598 -73.51777344 47.25575195 -73.07617188 46.64697266 C-55.60001149 22.70730104 -31.41553237 -0.33443368 0 0 Z " fill="#010100" transform="translate(166.375,-0.4375)"/>
<path d="M0 0 C2.12890625 1.24609375 2.12890625 1.24609375 4 3 C5.51027369 9.82596142 3.51071482 17.06117812 1.75390625 23.6640625 C-4.83012193 52.79753436 0.69140865 83.18947896 16.23828125 108.37890625 C33.95928822 134.74430687 60.73972431 151.30767457 90.43798828 161.41479492 C96.51294695 163.53392489 96.51294695 163.53392489 99.0859375 165.99609375 C100.55806976 169.22346062 99.85412186 171.64452127 99 175 C97.875 176.9375 97.875 176.9375 96 178 C90.68857006 178.37469246 86.50641398 177.45133291 81.625 175.5 C80.94308594 175.23590332 80.26117188 174.97180664 79.55859375 174.69970703 C68.75804004 170.42817657 58.37103267 165.20866596 48 160 C47.60554688 161.216875 47.21109375 162.43375 46.8046875 163.6875 C44.74941028 169.85574112 42.42028321 175.91805597 40.125 182 C36.89314202 190.59027617 33.79999779 199.13754543 31.62158203 208.0625 C30.86682524 210.95787069 30.22578982 212.77374844 28.08984375 214.9140625 C24.9473816 216.54696807 22.4739279 216.37897395 19 216 C16.8400643 214.41837368 16.09769232 213.53155398 15.61035156 210.87988281 C15.69069121 204.43975316 16.78863437 198.87093688 18.75 192.75 C19.047854 191.792146 19.34570801 190.83429199 19.65258789 189.84741211 C24.00969745 176.29350914 29.55064079 163.14320431 35 150 C34.08565186 149.55998657 34.08565186 149.55998657 33.15283203 149.11108398 C11.27295319 137.81880358 -4.05182211 110.79976381 -11.66796875 88.28515625 C-19.68798379 62.4798084 -20.44124596 27.85583482 -9.98828125 2.55078125 C-7.46137034 -1.41437144 -4.14204251 -1.34616382 0 0 Z " fill="#010101" transform="translate(64,127)"/>
<path d="M0 0 C12.5258364 1.30613518 28.17954516 2.96437935 38.9375 10 C39.56591797 12.08398438 39.56591797 12.08398438 39.9375 14 C39.38811768 14.19110352 38.83873535 14.38220703 38.27270508 14.57910156 C35.76141888 15.45917698 33.25579659 16.35441989 30.75 17.25 C29.88568359 17.55035156 29.02136719 17.85070312 28.13085938 18.16015625 C20.58886879 20.87642872 15.77492233 24.03270805 11.94140625 31.20703125 C9.99941874 36.60983697 10.02657281 42.307438 9.9375 48 C9.19177734 47.97905273 8.44605469 47.95810547 7.67773438 47.93652344 C4.26446275 47.85283366 0.85140776 47.80117206 -2.5625 47.75 C-4.32207031 47.69972656 -4.32207031 47.69972656 -6.1171875 47.6484375 C-14.12836733 47.55842424 -20.11380203 48.16976297 -26.015625 53.89453125 C-26.44359375 54.52746094 -26.8715625 55.16039062 -27.3125 55.8125 C-27.78429687 56.49957031 -28.25609375 57.18664062 -28.7421875 57.89453125 C-30.61664672 60.88368368 -32.38176261 63.8971002 -34.0625 67 C-37.58107597 65.54296854 -39.36194051 63.73859134 -41.6875 60.75 C-42.37972656 59.86054688 -43.07195312 58.97109375 -43.78515625 58.0546875 C-46.72777423 54.10764246 -49.56577469 50.09127617 -52.3984375 46.06494141 C-55.67328195 41.44725771 -59.18685213 37.1323133 -63.0625 33 C-60.38671623 31.59732598 -57.77174983 30.50530752 -54.89453125 29.58984375 C-36.72623146 23.64319141 -20.64673578 16.64582387 -8.1171875 1.67578125 C-5.25684219 -0.65708594 -3.63543063 -0.34664416 0 0 Z " fill="#96D87A" transform="translate(426.0625,416)"/>
<path d="M0 0 C1.5625 1.53125 1.5625 1.53125 3 3.5 C15.66117489 18.74786654 36.62437875 25.72699564 55 31 C53.24963929 35.18836313 50.35656767 38.40726593 47.5 41.875 C42.82266087 47.60899257 38.41586539 53.45648158 34.29882812 59.60693359 C32.19172936 62.67303244 30.5607462 64.72946102 27 66 C26.70867187 65.5153125 26.41734375 65.030625 26.1171875 64.53125 C24.77374713 62.33442927 23.39600513 60.16380795 22 58 C21.53078125 57.27167969 21.0615625 56.54335938 20.578125 55.79296875 C20.09859375 55.09816406 19.6190625 54.40335937 19.125 53.6875 C18.69445312 53.05199219 18.26390625 52.41648437 17.8203125 51.76171875 C12.37009259 46.4869351 6.34375125 46.67581407 -0.85742188 46.73632812 C-2.03884766 46.76146484 -3.22027344 46.78660156 -4.4375 46.8125 C-5.64599609 46.82603516 -6.85449219 46.83957031 -8.09960938 46.85351562 C-11.06687082 46.88870054 -14.03319937 46.93793304 -17 47 C-17.03528809 46.08420166 -17.07057617 45.16840332 -17.10693359 44.22485352 C-17.49901379 35.3869912 -18.58008056 28.9707607 -25.125 22.75 C-29.95787697 18.93130278 -35.61219408 17.14407872 -41.3828125 15.1953125 C-43.28163763 14.53514749 -45.14532652 13.77559073 -47 13 C-47.33 12.01 -47.66 11.02 -48 10 C-42.41835135 7.0188922 -37.1256401 4.92771052 -31 3.375 C-30.18128418 3.16407715 -29.36256836 2.9531543 -28.51904297 2.73583984 C-7.39830198 -2.5004714 -7.39830198 -2.5004714 0 0 Z " fill="#96D87A" transform="translate(94,417)"/>
<path d="M0 0 C4.39463746 1.3021148 4.39463746 1.3021148 6.375 4 C7.02283333 7.2520375 7.32251912 10.47519123 7.65234375 13.7734375 C8.64791636 18.21853469 10.58595622 20.81196312 14.375 23.328125 C15.365 23.78445312 15.365 23.78445312 16.375 24.25 C17.035 24.56453125 17.695 24.8790625 18.375 25.203125 C27.64282784 28.89577516 42.12050592 28.80051601 51.375 25.3125 C55.88754149 23.02399682 59.14691944 20.21054501 61.625 15.75 C62.31521318 13.21921833 62.55407435 11.03990376 62.75 8.4375 C63.05561081 5.3295935 63.29950204 4.11464505 65.0625 1.4375 C68.12366743 -0.46538786 69.83049525 -0.59075079 73.375 0 C75.67775556 1.8670991 77.05323871 3.35647741 78.375 6 C79.13122481 15.52843261 76.85590585 23.46306323 70.6875 30.875 C62.05549645 39.79367526 51.35219876 43.02614284 39.17626953 43.35351562 C24.5814361 43.47348063 10.77213024 41.96637187 -0.4375 31.75 C-6.74016535 25.06712746 -9.08472804 16.42651703 -8.96484375 7.421875 C-8.625 5 -8.625 5 -6.5625 1.8125 C-3.625 0 -3.625 0 0 0 Z " fill="#020302" transform="translate(221.625,76)"/>
<path d="M0 0 C0.33 0 0.66 0 1 0 C-0.39935654 17.35202109 -7.29788434 31.09954094 -20.0859375 42.9296875 C-35.54166361 55.85733945 -59.89232982 64 -80 64 C-79.34065816 59.13451192 -78.03428754 54.74092364 -76.4375 50.125 C-76.20353516 49.43664062 -75.96957031 48.74828125 -75.72851562 48.0390625 C-75.15647501 46.35796355 -74.57881544 44.67877837 -74 43 C-72.77667969 42.79246094 -71.55335938 42.58492188 -70.29296875 42.37109375 C-44.85425787 37.8160088 -19.44541964 28.95811963 -4 7 C-2.54974807 4.7017194 -1.25826638 2.41167724 0 0 Z " fill="#96D87A" transform="translate(420,373)"/>
<path d="M0 0 C3.56431814 1.18810605 3.81848033 1.94032675 5.6875 5.0625 C18.77792355 25.22366327 42.13973639 33.1263975 64.515625 38.0546875 C65.30493408 38.23338379 66.09424316 38.41208008 66.9074707 38.59619141 C69.11496309 39.08104148 69.11496309 39.08104148 71.87109375 39.078125 C74.60761297 40.26311314 74.82131173 41.24390064 76.01953125 43.9296875 C76.63782599 45.57049547 77.23472889 47.21948808 77.8125 48.875 C78.12380859 49.70386719 78.43511719 50.53273438 78.75585938 51.38671875 C81 57.49275412 81 57.49275412 81 61 C74.60933993 61.25948156 69.06584472 60.35652683 62.875 58.8125 C61.48740479 58.46977051 61.48740479 58.46977051 60.07177734 58.12011719 C39.00093884 52.78916205 20.99941486 44.50921829 8.6875 25.8125 C4.1965603 18.1423758 0 8.99895959 0 0 Z " fill="#96D87A" transform="translate(92,376)"/>
<path d="M0 0 C-1.32 0.33 -2.64 0.66 -4 1 C-4.17015625 2.07894531 -4.17015625 2.07894531 -4.34375 3.1796875 C-7.68966795 17.55916823 -20.03393143 29.36423369 -32 37 C-40.31833904 41.74662284 -48.82148961 45.29351617 -58 48 C-62.50547245 42.44362331 -66.91417374 36.87337525 -71 31 C-70.030625 30.72027344 -69.06125 30.44054687 -68.0625 30.15234375 C-49.41201177 24.63140471 -28.56789686 17.28874564 -16.75 0.875 C-11.81010149 -2.49311262 -5.70103252 -0.77916683 0 0 Z " fill="#80CF5F" transform="translate(434,417)"/>
<path d="M0 0 C1.5625 1.53125 1.5625 1.53125 3 3.5 C15.66117489 18.74786654 36.62437875 25.72699564 55 31 C53.25477062 35.05214179 50.5771843 38.30603961 47.875 41.75 C47.40707031 42.35199219 46.93914062 42.95398438 46.45703125 43.57421875 C45.30774993 45.05186616 44.15428765 46.52626005 43 48 C24.32702143 43.6908511 6.0413727 32.40759368 -4.71484375 16.45703125 C-7.01534629 12.73910417 -9.04299235 9.07768816 -10.625 5 C-12.15023107 1.67222312 -12.79356771 1.36109779 -16 0 C-14.27185839 -0.19672365 -12.54240803 -0.38196799 -10.8125 -0.5625 C-9.84957031 -0.66691406 -8.88664062 -0.77132813 -7.89453125 -0.87890625 C-4.97528836 -1.00103382 -2.78108655 -0.89275215 0 0 Z " fill="#81D160" transform="translate(94,417)"/>
<path d="M0 0 C3.83030069 3.36602182 6.66335472 6.55390408 7.30078125 11.7578125 C7.55736117 19.29315955 5.24801155 25.21013049 0.6875 31.1875 C-3.53979534 35.41479534 -7.01171935 36.97458891 -12.9375 37.25 C-17.65465731 37.0868502 -20.39859729 36.09245861 -23.9375 32.8125 C-27.5672798 28.09378625 -27.55858382 22.89520105 -27.4140625 17.140625 C-26.451785 10.42045754 -22.84376826 5.09225613 -17.75 0.6875 C-12.4295621 -2.65406679 -5.65982248 -2.28801334 0 0 Z " fill="#020302" transform="translate(169.9375,42.1875)"/>
<path d="M0 0 C5.69932926 2.68836286 10.37742076 7.67757584 13.1484375 13.3515625 C15.07796947 19.35258396 15.0461151 25.8302798 12.3125 31.5 C11.549375 32.325 10.78625 33.15 10 34 C9.319375 34.78375 8.63875 35.5675 7.9375 36.375 C3.3908215 38.89018385 -0.92402614 38.73261478 -6 38 C-11.95718432 35.13172607 -15.58325467 30.49151765 -18.8125 24.8125 C-20.78137241 18.4913833 -21.27420794 12.59560876 -18.3125 6.5625 C-17.549375 5.716875 -16.78625 4.87125 -16 4 C-14.9790625 2.824375 -14.9790625 2.824375 -13.9375 1.625 C-9.38780891 -0.89185039 -5.07904671 -0.72664828 0 0 Z " fill="#010201" transform="translate(356,41)"/>
<path d="M0 0 C0.95693328 7.17699961 1 13.61778574 1 21 C-8.24 21 -17.48 21 -27 21 C-26.34 14.4 -25.68 7.8 -25 1 C-21.02084364 0.83308408 -17.04167564 0.66645506 -13.0625 0.5 C-11.35803711 0.42845703 -11.35803711 0.42845703 -9.61914062 0.35546875 C-7.99975586 0.28779297 -7.99975586 0.28779297 -6.34765625 0.21875 C-5.34742432 0.17685547 -4.34719238 0.13496094 -3.31665039 0.09179688 C-1 0 -1 0 0 0 Z " fill="#97D97B" transform="translate(269,421)"/>
</svg>
