<?xml version="1.0" encoding="UTF-8"?>
<svg version="1.1" xmlns="http://www.w3.org/2000/svg" width="512" height="512">
<path d="M0 0 C1.13066895 0.00845947 1.13066895 0.00845947 2.28417969 0.01708984 C37.960789 0.76250514 71.23227412 16.19674673 95.97265625 41.6015625 C116.41865849 64.08892471 128.42881692 91.76065487 138.9597168 119.89086914 C142.07068781 128.19891568 145.25661131 136.46146944 148.67578125 144.6484375 C148.99971359 145.43026901 149.32364594 146.21210052 149.65739441 147.0176239 C153.16415061 155.31816002 156.81520414 162.94930532 165.4453125 166.69140625 C176.17869056 170.0376947 187.38556388 169.25470192 197.4375 164.3125 C199.54123942 163.07525981 201.45758647 161.74793731 203.4375 160.3125 C204.4275 159.9825 205.4175 159.6525 206.4375 159.3125 C205.6640625 158.31992188 204.890625 157.32734375 204.09375 156.3046875 C189.43610974 137.28089144 177.95713293 116.81082479 176.4375 92.3125 C176.35822266 91.34570312 176.35822266 91.34570312 176.27734375 90.359375 C175.45942496 71.72505117 182.5527377 54.05228228 193.4375 39.3125 C194.118125 38.30316406 194.118125 38.30316406 194.8125 37.2734375 C197.00095229 34.23552018 198.34957932 33.33717949 202 32.3125 C206.86607143 32.3125 206.86607143 32.3125 209.4375 34.3125 C211.81396284 37.98603988 212.12758094 42.07705981 212.75 46.3125 C213.98459737 53.83552712 215.82217323 60.53376231 219.4375 67.3125 C219.8603125 68.11042969 220.283125 68.90835938 220.71875 69.73046875 C224.83951809 76.0979322 230.57413494 78.78959442 237.16040039 82.07885742 C245.72814907 86.36789023 251.16229024 91.20105623 256.2109375 99.39453125 C257.4231708 101.44133484 257.4231708 101.44133484 259.4375 103.3125 C260.25992187 102.90257812 261.08234375 102.49265625 261.9296875 102.0703125 C273.05741462 96.69919248 282.91446094 94.06808637 295.27734375 95.68359375 C308.25458773 97.3377234 318.83364541 92.54636245 329.4375 85.3125 C331.22433441 83.87381671 332.99595585 82.41598434 334.75 80.9375 C338.77416974 77.62271915 341.16089335 75.8986485 346.4375 76.3125 C349.375 77.5 349.375 77.5 351.4375 80.3125 C355.61269595 99.7628031 342.49223945 127.03664632 332.4375 143.3125 C321.13382887 160.55969825 305.4843688 173.65272026 284.98046875 178.0546875 C279.44200865 178.97881913 274.04947125 179.57352192 268.4375 179.3125 C268.42332031 180.00730469 268.40914063 180.70210937 268.39453125 181.41796875 C267.01996517 210.72966173 254.68982819 245.41655033 235.90234375 268.171875 C233.3311548 270.17397413 230.54614382 269.53858319 227.4375 269.3125 C226.7775 268.9825 226.1175 268.6525 225.4375 268.3125 C225.06625 269.1478125 225.06625 269.1478125 224.6875 270 C223.4375 272.3125 223.4375 272.3125 221.25 274.4375 C219.14519591 277.77615477 219.36951642 278.49905894 219.9375 282.25 C220.43185416 285.81566083 220.57857295 286.99829207 219.0625 290.375 C190.60532628 322.2199325 149.67867763 342.79006462 107.4375 348.3125 C106.1175 348.3125 104.7975 348.3125 103.4375 348.3125 C103.6641333 348.9108667 103.8907666 349.5092334 104.12426758 350.12573242 C117.4818773 385.58145254 117.4818773 385.58145254 112.4375 398.3125 C108.24180136 403.61882475 103.19642911 406.81960731 96.48828125 407.69921875 C77.18815898 408.37437381 60.36008201 397.73872973 46.4375 385.3125 C45.60992187 384.60480469 44.78234375 383.89710938 43.9296875 383.16796875 C36.52277093 376.72464791 28.9078977 369.51809655 23.4375 361.3125 C23.14617187 362.158125 22.85484375 363.00375 22.5546875 363.875 C19.10481739 373.42181036 15.68843936 381.30157452 6.4375 386.3125 C-2.68311045 389.86297741 -12.90343298 389.54576941 -21.9140625 385.75390625 C-46.46850562 372.39020491 -62.44346384 338.95801033 -70.875 313.5 C-73.36621394 307.30321693 -78.270442 304.44536647 -83.6484375 300.95703125 C-87.92086753 298.16153051 -91.73084116 294.92752539 -95.5625 291.5625 C-96.17270996 291.03148682 -96.78291992 290.50047363 -97.41162109 289.95336914 C-99.1474937 288.42582989 -100.86009156 286.8772045 -102.5625 285.3125 C-103.13556885 284.79051025 -103.7086377 284.26852051 -104.29907227 283.73071289 C-107.20395166 280.98042645 -108.91702013 279.21103717 -109.5 275.25 C-109.5625 271.3125 -109.5625 271.3125 -108.88671875 268.8359375 C-108.32000076 266.27836208 -108.32000076 266.27836208 -109.6796875 264.07421875 C-113.03283104 259.84779046 -113.03283104 259.84779046 -117.859375 258.01171875 C-120.17250009 258.13940144 -120.17250009 258.13940144 -122.3515625 258.6171875 C-125.4192889 258.19442662 -126.50043917 256.50750963 -128.30810547 254.12255859 C-149.00509758 224.25733876 -165.73479827 181.07112814 -160.09814453 144.28173828 C-158.65460456 136.85053212 -156.67809115 129.57708328 -154.5625 122.3125 C-154.27342773 121.30783691 -153.98435547 120.30317383 -153.68652344 119.26806641 C-141.31743752 77.20906497 -117.0144001 36.97417303 -77.8125 15.1796875 C-65.09766112 8.40915917 -46.32282046 -0.7470796 -31.5625 1.3125 C-28.6875 3.125 -28.6875 3.125 -26.5625 5.3125 C-26.5625 6.3025 -26.5625 7.2925 -26.5625 8.3125 C-21.6125 8.3125 -16.6625 8.3125 -11.5625 8.3125 C-11.2325 6.3325 -10.9025 4.3525 -10.5625 2.3125 C-6.92708309 -0.11111127 -4.20781737 -0.03312497 0 0 Z " fill="#8AC9FE" transform="translate(160.5625,52.6875)"/>
<path d="M0 0 C3.89973898 2.70034841 7.59047225 5.1978024 12.00488281 6.96948242 C15.84639157 8.53698915 18.7477679 9.95985853 21.62988281 13.06713867 C23.62005205 19.29993771 23.44723631 25.96630638 23.54345703 32.44848633 C24.10830651 49.56310645 32.26194775 68.01523607 41.62988281 82.06713867 C41.80932617 84.46118164 41.80932617 84.46118164 41.71972656 87.30932617 C41.6973291 88.36490723 41.67493164 89.42048828 41.65185547 90.50805664 C41.62397949 91.64130371 41.59610352 92.77455078 41.56738281 93.94213867 C41.33311488 115.99679112 44.95475064 137.03320334 53.96582031 157.28979492 C54.62988281 159.06713867 54.62988281 159.06713867 54.62988281 162.06713867 C19.43893901 154.94346584 -12.2149026 135.69599269 -38.15527344 111.46557617 C-42.72588234 106.88223564 -42.72588234 106.88223564 -48.56152344 105.07885742 C-49.22023437 105.26061523 -49.87894531 105.44237305 -50.55761719 105.62963867 C-52.44480469 105.84620117 -52.44480469 105.84620117 -54.37011719 106.06713867 C-57.55454997 103.08550109 -59.97128056 99.69729304 -62.37011719 96.06713867 C-62.01949219 95.38651367 -61.66886719 94.70588867 -61.30761719 94.00463867 C-60.10270995 90.22926265 -60.45473369 87.91006204 -61.37011719 84.06713867 C-62.903751 81.03860574 -62.903751 81.03860574 -64.93261719 78.12963867 C-78.24595207 57.52509247 -87.1956369 33.21364232 -91.37011719 9.06713867 C-91.74330078 7.21668945 -91.74330078 7.21668945 -92.12402344 5.32885742 C-92.67642506 1.6706453 -92.9741893 -1.28054842 -92.37011719 -4.93286133 C-89.5950642 -8.37487984 -86.30881329 -10.0332722 -82.37011719 -11.93286133 C-81.58894531 -12.38918945 -80.80777344 -12.84551758 -80.00292969 -13.31567383 C-50.80307546 -29.73444708 -24.74585982 -17.25318821 0 0 Z " fill="#FEE8C7" transform="translate(107.3701171875,214.932861328125)"/>
<path d="M0 0 C0.74926758 0.01466309 1.49853516 0.02932617 2.27050781 0.04443359 C38.02371831 1.21240156 71.033435 16.18174605 95.91015625 41.7265625 C116.35615849 64.21392471 128.36631692 91.88565487 138.8972168 120.01586914 C142.00818781 128.32391568 145.19411131 136.58646944 148.61328125 144.7734375 C148.93721359 145.55526901 149.26114594 146.33710052 149.59489441 147.1426239 C153.10165061 155.44316002 156.75270414 163.07430532 165.3828125 166.81640625 C176.11619056 170.1626947 187.32306388 169.37970192 197.375 164.4375 C199.47873942 163.20025981 201.39508647 161.87293731 203.375 160.4375 C204.365 160.1075 205.355 159.7775 206.375 159.4375 C205.6015625 158.44492188 204.828125 157.45234375 204.03125 156.4296875 C189.37360974 137.40589144 177.89463293 116.93582479 176.375 92.4375 C176.29572266 91.47070312 176.29572266 91.47070312 176.21484375 90.484375 C175.39692496 71.85005117 182.4902377 54.17728228 193.375 39.4375 C193.82875 38.76460937 194.2825 38.09171875 194.75 37.3984375 C196.93845229 34.36052018 198.28707932 33.46217949 201.9375 32.4375 C206.80357143 32.4375 206.80357143 32.4375 209.375 34.4375 C211.75146284 38.11103988 212.06508094 42.20205981 212.6875 46.4375 C213.92209737 53.96052712 215.75967323 60.65876231 219.375 67.4375 C219.7978125 68.23542969 220.220625 69.03335938 220.65625 69.85546875 C224.77701809 76.2229322 230.51163494 78.91459442 237.09790039 82.20385742 C245.66564907 86.49289023 251.09979024 91.32605623 256.1484375 99.51953125 C257.3606708 101.56633484 257.3606708 101.56633484 259.375 103.4375 C260.19742187 103.02757812 261.01984375 102.61765625 261.8671875 102.1953125 C272.99491462 96.82419248 282.85196094 94.19308637 295.21484375 95.80859375 C308.19208773 97.4627234 318.77114541 92.67136245 329.375 85.4375 C331.16183441 83.99881671 332.93345585 82.54098434 334.6875 81.0625 C338.71166974 77.74771915 341.09839335 76.0236485 346.375 76.4375 C349.3125 77.625 349.3125 77.625 351.375 80.4375 C355.55019595 99.8878031 342.42973945 127.16164632 332.375 143.4375 C321.07132887 160.68469825 305.4218688 173.77772026 284.91796875 178.1796875 C279.37950865 179.10381913 273.98697125 179.69852192 268.375 179.4375 C268.36082031 180.13230469 268.34664063 180.82710937 268.33203125 181.54296875 C266.963828 210.71897864 254.71070088 245.72243465 235.83203125 268.28125 C234.375 269.4375 234.375 269.4375 230.9375 269.9375 C227.375 269.4375 227.375 269.4375 224.9375 267.3125 C223.01857043 263.78166959 222.85950257 262.43374557 223.375 258.4375 C224.95629989 255.07613024 226.92120397 251.96802757 228.875 248.8125 C234.89040817 238.70377723 239.38218898 228.47842776 243.375 217.4375 C243.86030125 216.15480566 244.34595221 214.87224355 244.83203125 213.58984375 C249.70186141 200.06907662 252.82795795 185.43821667 252.80859375 171.03125 C253.66049898 167.13011158 255.15714817 165.7631105 258.375 163.4375 C261.46215114 162.75473986 264.47204656 162.7376645 267.625 162.75 C283.21689102 162.58836158 296.89578109 158.46284534 308.375 147.4375 C319.88270992 135.46871322 326.01311434 120.89354161 331.375 105.4375 C331.045 105.1075 330.715 104.7775 330.375 104.4375 C329.68535156 104.76363281 328.99570312 105.08976562 328.28515625 105.42578125 C327.34542969 105.86277344 326.40570313 106.29976563 325.4375 106.75 C324.52097656 107.17925781 323.60445313 107.60851562 322.66015625 108.05078125 C321.57605469 108.50839844 320.49195313 108.96601563 319.375 109.4375 C318.7670459 109.71456787 318.1590918 109.99163574 317.53271484 110.27709961 C309.58269377 113.47681883 301.19762722 112.60235219 292.80419922 112.30053711 C282.36994893 111.95520427 274.48843313 112.7467535 266.125 119.4375 C265.14466797 120.19740234 265.14466797 120.19740234 264.14453125 120.97265625 C262.6474367 122.21197293 261.22067965 123.53551204 259.8125 124.875 C257.375 126.4375 257.375 126.4375 253.75 126.5 C250.375 125.4375 250.375 125.4375 248.78125 123.2109375 C247.40789829 120.50238275 246.42597766 117.88855864 245.5 115 C243.81484896 110.15355785 241.82647471 107.1765976 238.375 103.4375 C238.375 102.7775 238.375 102.1175 238.375 101.4375 C237.86195313 101.18097656 237.34890625 100.92445313 236.8203125 100.66015625 C236.01335937 100.25667969 235.20640625 99.85320312 234.375 99.4375 C232.73144531 98.63119141 232.73144531 98.63119141 231.0546875 97.80859375 C216.29350944 90.39696123 206.47944731 81.49166774 200.4375 65.6875 C200.086875 64.615 199.73625 63.5425 199.375 62.4375 C193.57451454 68.23798546 192.916049 80.33799356 192.8125 88.25 C193.12426803 112.54971996 206.11362405 134.67825422 222.5625 151.8125 C224.86417533 154.44926411 225.34185366 155.21376219 225.875 158.8125 C221.41039596 169.60195977 211.33930027 176.30519205 201.03125 180.94140625 C195.53954027 183.15194537 190.32920846 185.10671064 184.375 185.4375 C183.61574219 185.499375 182.85648438 185.56125 182.07421875 185.625 C169.68858481 186.21217079 156.72217292 182.99747582 147.40625 174.6796875 C143.18094753 170.40563154 140.24485451 165.68476279 137.59375 160.32421875 C137.24993286 159.63182098 136.90611572 158.93942322 136.55187988 158.2260437 C132.42608398 149.7292395 129.16353791 140.90813013 125.875 132.0625 C110.52678236 90.95610984 92.38642904 48.42545987 50.44580078 28.52197266 C46.16301217 26.62519968 41.80907091 24.94621901 37.375 23.4375 C36.45364258 23.11144775 35.53228516 22.78539551 34.58300781 22.44946289 C25.25543401 19.33284597 16.00836077 18.21523789 6.28271484 17.30395508 C4.24851071 17.10825768 2.21857159 16.88577319 0.1875 16.66015625 C-1.00230469 16.54422119 -2.19210938 16.42828613 -3.41796875 16.30883789 C-7.40579486 15.22536108 -9.05389561 13.62489573 -11.625 10.4375 C-12.1875 7.375 -12.1875 7.375 -11.625 4.4375 C-8.41284427 -0.00638462 -5.1465399 -0.16280588 0 0 Z " fill="#000101" transform="translate(160.625,52.5625)"/>
<path d="M0 0 C3.5 0.5625 3.5 0.5625 5.68359375 1.97265625 C8.47768458 5.95648898 8.04779624 9.80746818 8.0625 14.5625 C8.48647171 31.22679082 10.7800743 46.87843935 16.5 62.5625 C16.94214844 63.79226563 17.38429688 65.02203125 17.83984375 66.2890625 C24.91655316 84.911982 34.79351616 101.7720485 48.4375 116.33984375 C50.28667699 118.33261214 51.98002474 120.38699936 53.6875 122.5 C63.42213141 133.60286302 80.32681688 146.7343923 95.37109375 147.7578125 C96.21800781 147.73460937 97.06492188 147.71140625 97.9375 147.6875 C98.80246094 147.66945313 99.66742188 147.65140625 100.55859375 147.6328125 C101.19925781 147.60960937 101.83992187 147.58640625 102.5 147.5625 C102.92801343 140.11048048 101.50678308 134.48359325 99 127.5 C98.26552341 125.3724309 97.53115146 123.24482568 96.796875 121.1171875 C96.41724609 120.03405273 96.03761719 118.95091797 95.64648438 117.83496094 C81.38378522 77.12430944 81.38378522 77.12430944 81.3671875 61.16796875 C81.36589844 59.96462891 81.36460937 58.76128906 81.36328125 57.52148438 C81.36714844 56.27689453 81.37101563 55.03230469 81.375 53.75 C81.37113281 52.51701172 81.36726562 51.28402344 81.36328125 50.01367188 C81.38297028 31.57489194 81.38297028 31.57489194 84.625 26.9375 C87.5 24.5625 87.5 24.5625 91.125 24.5 C95.71677069 25.94555744 95.71677069 25.94555744 97.5 28.5625 C97.72629418 31.18204369 97.77755414 33.55703634 97.6875 36.16796875 C97.67046021 37.30326775 97.67046021 37.30326775 97.65307617 38.46150208 C97.60442747 41.68809851 97.52153765 44.91353564 97.43847656 48.1394043 C97.1731426 59.41958887 98.02328279 69.53582273 100.5 80.5625 C100.90068695 82.56153327 101.29728055 84.5613971 101.6875 86.5625 C101.95728004 87.89604685 102.22762815 89.2294801 102.5 90.5625 C144.29524059 84.19689222 184.42258755 67.8866046 213.12890625 35.73828125 C214.5 34.5625 214.5 34.5625 217.9375 34.625 C221.81044892 35.64419709 223.3639111 36.18035925 225.5 39.5625 C225.76586794 44.1708776 224.56494833 46.87084611 221.6875 50.3125 C220.31619522 51.75292297 218.91731778 53.16732781 217.5 54.5625 C216.675 55.38621094 215.85 56.20992188 215 57.05859375 C188.22221223 82.683449 146.5218572 105.5625 108.5 105.5625 C108.7266333 106.1608667 108.9532666 106.7592334 109.18676758 107.37573242 C122.5443773 142.83145254 122.5443773 142.83145254 117.5 155.5625 C113.30430136 160.86882475 108.25892911 164.06960731 101.55078125 164.94921875 C82.25065898 165.62437381 65.42258201 154.98872973 51.5 142.5625 C50.67242187 141.85480469 49.84484375 141.14710938 48.9921875 140.41796875 C41.58527093 133.97464791 33.9703977 126.76809655 28.5 118.5625 C28.06300781 119.8309375 28.06300781 119.8309375 27.6171875 121.125 C24.16731739 130.67181036 20.75093936 138.55157452 11.5 143.5625 C2.37938955 147.11297741 -7.84093298 146.79576941 -16.8515625 143.00390625 C-41.40600562 129.64020491 -57.38096384 96.20801033 -65.8125 70.75 C-68.30371394 64.55321693 -73.207942 61.69536647 -78.5859375 58.20703125 C-82.85836753 55.41153051 -86.66834116 52.17752539 -90.5 48.8125 C-91.11020996 48.28148682 -91.72041992 47.75047363 -92.34912109 47.20336914 C-94.08500176 45.67582279 -95.79780054 44.12744937 -97.5 42.5625 C-98.35634033 41.78060303 -98.35634033 41.78060303 -99.22998047 40.98291016 C-104.27494984 36.19673432 -104.27494984 36.19673432 -104.625 32.4375 C-104.5 28.5625 -104.5 28.5625 -102.9375 26.125 C-99.95416385 24.21260503 -98.04345305 23.73185621 -94.5 23.5625 C-91.75390625 25.1875 -91.75390625 25.1875 -89.0625 27.5625 C-88.09957031 28.40039062 -87.13664062 29.23828125 -86.14453125 30.1015625 C-84.10520035 31.99931503 -82.16002896 33.9139551 -80.25 35.9375 C-71.33855364 45.1260966 -59.53510153 52.27440744 -48.5 58.5625 C-47.83081543 58.94760742 -47.16163086 59.33271484 -46.47216797 59.72949219 C-29.68327352 69.28525653 -11.79698147 75.54203399 6.5 81.5625 C5.81164062 79.74878906 5.81164062 79.74878906 5.109375 77.8984375 C-2.63454339 57.33102938 -7.63576638 37.64056957 -7.9375 15.5625 C-7.95973633 14.63695312 -7.98197266 13.71140625 -8.00488281 12.7578125 C-7.99085132 8.55460176 -7.85047494 6.16125956 -5.69140625 2.47265625 C-3.5 0.5625 -3.5 0.5625 0 0 Z " fill="#010202" transform="translate(155.5,295.4375)"/>
<path d="M0 0 C2.125 2.375 2.125 2.375 2.6875 5.3125 C1.96946224 9.22181672 0.99236942 10.60438231 -1.875 13.375 C-4.90043038 14.56701882 -8.00606167 15.17163259 -11.1875 15.8125 C-29.90361012 20.06002003 -46.32067396 27.77610212 -60.875 40.375 C-61.63296875 41.00019531 -62.3909375 41.62539062 -63.171875 42.26953125 C-89.76641362 64.78318378 -103.95320928 100.64746962 -112.875 133.375 C-111.88242188 132.90449219 -110.88984375 132.43398437 -109.8671875 131.94921875 C-91.18143389 123.2902498 -71.23136122 119.45034471 -51.37719727 126.62475586 C-38.40393451 131.7234867 -27.15515695 139.47882632 -15.67944336 147.2668457 C-8.04624566 152.38992395 -0.27347523 156.65428016 8.125 160.375 C8.92421875 160.75269531 9.7234375 161.13039062 10.546875 161.51953125 C20.2008567 165.49363274 32.70321498 164.45150235 42.2578125 160.76171875 C49.91259432 157.05947414 56.3252863 152.2467938 62.4375 146.375 C65.58062409 143.4538622 66.70552607 142.46295421 71 141.5625 C74.6498691 142.51146597 76.05013925 143.22121166 78.125 146.375 C78.8125 149.125 78.8125 149.125 78.125 152.375 C70.12294002 165.2054216 53.64043118 173.64724322 39.7421875 178.57421875 C20.7528476 182.77812229 2.40576727 177.13386933 -13.875 167.375 C-19.99632189 163.45590516 -26.05671448 159.44371935 -32.05688477 155.34155273 C-48.73371508 144.04116608 -65.08648327 136.3993918 -85.75390625 140.0625 C-96.69075934 142.75464845 -106.44714888 146.8342911 -114.875 154.375 C-115.535 154.375 -116.195 154.375 -116.875 154.375 C-112.20092226 184.65027627 -104.43376579 213.7173173 -87.3293457 239.55273438 C-83.08112665 246.08962539 -83.08112665 246.08962539 -83.875 250.375 C-85.375 253.1875 -85.375 253.1875 -87.875 255.375 C-93.27737467 256.31827177 -93.27737467 256.31827177 -95.875 255.375 C-119.92912078 230.25010755 -132.87630432 184.31891156 -132.27734375 150.37109375 C-131.78570182 139.73168251 -128.83856259 129.55137422 -125.875 119.375 C-125.58592773 118.37033691 -125.29685547 117.36567383 -124.99902344 116.33056641 C-112.62993752 74.27156497 -88.3269001 34.03667303 -49.125 12.2421875 C-37.58608282 6.09782606 -12.60138914 -7.1225243 0 0 Z " fill="#010202" transform="translate(131.875,55.625)"/>
<path d="M0 0 C3 1 3 1 3.9921875 2.58789062 C4.28351562 3.27044922 4.57484375 3.95300781 4.875 4.65625 C5.21474854 5.42332275 5.55449707 6.19039551 5.90454102 6.98071289 C6.26604248 7.81207764 6.62754395 8.64344238 7 9.5 C13.20103825 23.15417196 21.16968574 35.65278355 31 47 C32.04220703 48.2065625 32.04220703 48.2065625 33.10546875 49.4375 C52.0490683 70.89573666 73.97558433 87.03460241 100 99 C100.66628418 99.30776367 101.33256836 99.61552734 102.01904297 99.93261719 C117.48476078 107.66636881 117.48476078 107.66636881 134 111 C134.9829057 113.89461219 135.96143701 116.79058079 136.9375 119.6875 C137.21529297 120.50412109 137.49308594 121.32074219 137.77929688 122.16210938 C139.09735873 126.0845344 140.34053586 129.90130514 141 134 C105.8090562 126.87632717 74.15521459 107.62885402 48.21484375 83.3984375 C43.64423485 78.81509697 43.64423485 78.81509697 37.80859375 77.01171875 C37.14988281 77.19347656 36.49117187 77.37523437 35.8125 77.5625 C33.9253125 77.7790625 33.9253125 77.7790625 32 78 C28.81556721 75.01836242 26.39883663 71.63015437 24 68 C24.350625 67.319375 24.70125 66.63875 25.0625 65.9375 C26.26740724 62.16212397 25.9153835 59.84292337 25 56 C23.46636619 52.97146707 23.46636619 52.97146707 21.4375 50.0625 C11.50124893 34.68453902 4.30010713 17.80395234 0 0 Z " fill="#FBD9A5" transform="translate(21,243)"/>
<path d="M0 0 C-19.9208093 19.46523986 -44.47001689 31.22007605 -71 39 C-71.9288501 39.27755127 -72.8577002 39.55510254 -73.81469727 39.84106445 C-79.76386104 41.55383656 -85.52748076 42.6227884 -91.6875 43.1875 C-92.49638672 43.26935547 -93.30527344 43.35121094 -94.13867188 43.43554688 C-96.09163077 43.63199836 -98.04571083 43.81725569 -100 44 C-100.81977607 41.1685963 -101.63094274 38.33517098 -102.4375 35.5 C-102.66759766 34.70851563 -102.89769531 33.91703125 -103.13476562 33.1015625 C-105.01492087 26.45289758 -106.05590565 20.19141244 -106.02124023 13.25195312 C-106.01817368 12.45245239 -106.01510712 11.65295166 -106.01194763 10.82922363 C-106.00800491 10.22557983 -106.00406219 9.62193604 -106 9 C-104.14991333 9.01571045 -104.14991333 9.01571045 -102.26245117 9.03173828 C-97.58995587 9.06854066 -92.9174727 9.09111439 -88.24487305 9.10986328 C-86.24061921 9.11978612 -84.2363793 9.13332869 -82.23217773 9.15087891 C-63.75943718 9.30833019 -46.05334118 7.82360231 -27.90698242 4.39550781 C-25.77464792 3.99285227 -23.6405077 3.60112381 -21.50585938 3.2109375 C-13.27386528 1.69780728 -13.27386528 1.69780728 -5.13671875 -0.25 C-2 -1 -2 -1 0 0 Z " fill="#FCDAA6" transform="translate(358,342)"/>
<path d="M0 0 C0.93513428 0.41511841 0.93513428 0.41511841 1.88916016 0.83862305 C20.68443474 9.15917716 39.11012526 15.78302796 59 21 C59.29340878 31.69311984 59.39551028 41.76144124 52 50.3125 C48.27137405 53.45852815 44.70750193 53.38586081 40 53 C20.29395171 46.22483605 9.60955631 21.59156751 0.9609375 4.22265625 C0 2 0 2 0 0 Z " fill="#21A5FB" transform="translate(110,373)"/>
<path d="M0 0 C0.66 0 1.32 0 2 0 C3.08591613 1.58224899 4.0924146 3.21920412 5.0625 4.875 C8.21492873 9.98049268 11.72841287 14.29363161 15.8203125 18.66796875 C17.7462524 20.72851736 19.56456568 22.83873989 21.375 25 C34.65575299 40.13458808 55.38243683 56.9965275 76.1875 58.5625 C77.27417969 58.64628906 78.36085938 58.73007812 79.48046875 58.81640625 C80.31191406 58.87699219 81.14335937 58.93757813 82 59 C84.29641092 65.54750493 85.44134838 71.04876301 85 78 C83.41526434 79.58473566 81.82306002 79.24662754 79.625 79.3125 C61.17842355 78.99896046 44.7258532 63.61390093 32.28515625 51.31640625 C22.00820305 40.39004053 0 16.02564788 0 0 Z " fill="#5FB5FB" transform="translate(174,365)"/>
<path d="M0 0 C1.13877641 3.41632922 0.89712518 3.964113 -0.37109375 7.17578125 C-0.69376221 7.99691406 -1.01643066 8.81804687 -1.34887695 9.6640625 C-1.70812256 10.53804687 -2.06736816 11.41203125 -2.4375 12.3125 C-2.80512451 13.21097656 -3.17274902 14.10945312 -3.55151367 15.03515625 C-11.67400795 34.45285868 -22.35048687 49.88534387 -42.25 58.375 C-49.29083621 61.16705574 -56.48318003 61.1361929 -63.9375 61.0625 C-64.81212891 61.05798828 -65.68675781 61.05347656 -66.58789062 61.04882812 C-68.72529047 61.03714834 -70.86265463 61.01921689 -73 61 C-71.14617784 53.31319197 -67.51801445 48.37877374 -61.1875 43.64453125 C-57.06958687 41.32820512 -52.86358339 40.51729745 -48.25 39.625 C-31.89648009 36.35779036 -18.40210859 26.02408053 -9.171875 12.27734375 C-6.17464074 7.93619443 -6.17464074 7.93619443 -5 3 C-2.5 1.375 -2.5 1.375 0 0 Z " fill="#5FB6FC" transform="translate(492,155)"/>
<path d="M0 0 C0.66 0 1.32 0 2 0 C-3.00945988 18.2801343 -10.51500625 35.4050767 -20.75 51.3515625 C-22.24227149 54.51331272 -22.3711322 56.53919225 -22 60 C-21.34 61.32 -20.68 62.64 -20 64 C-22.64 67.63 -25.28 71.26 -28 75 C-29.258125 74.608125 -30.51625 74.21625 -31.8125 73.8125 C-34.34909211 73.36674388 -34.34909211 73.36674388 -37 74 C-38.98871659 75.72881089 -40.64598087 77.35683043 -42.375 79.3125 C-46.51835807 83.8946673 -49.31080523 86.12621661 -55.55859375 86.671875 C-61.36304718 87.22530756 -67.03530656 88.58496237 -72.73974609 89.76928711 C-73.61840332 89.94210205 -74.49706055 90.11491699 -75.40234375 90.29296875 C-76.19116943 90.4530542 -76.97999512 90.61313965 -77.79272461 90.77807617 C-80.13293532 91.01336558 -81.772475 90.70779091 -84 90 C-83.04480469 89.5153125 -82.08960938 89.030625 -81.10546875 88.53125 C-72.87152754 84.28864791 -65.31353793 79.72949976 -58 74 C-57.17113281 73.36320312 -56.34226562 72.72640625 -55.48828125 72.0703125 C-46.24482057 64.84387071 -37.37640715 57.15636627 -30 48 C-29.24203125 47.06800781 -28.4840625 46.13601563 -27.703125 45.17578125 C-16.55532852 31.22292789 -8.08728013 15.87291252 0 0 Z " fill="#60B6FC" transform="translate(407,257)"/>
<path d="M0 0 C4.77947603 2.94782055 8.26801075 6.60026882 10 12 C10.91874803 19.37295297 10.07480628 25.69780766 6 32 C1.6372094 36.15503867 -1.60588324 37.52842582 -7.54296875 37.48046875 C-12.07845141 36.59356197 -15.16253682 33.51790998 -18 30 C-21.07365477 24.05358293 -20.70635748 17.51173298 -20 11 C-18.40304397 6.344588 -15.7345457 3.19431783 -11.6875 0.4375 C-7.27759648 -1.28161493 -4.44728103 -1.65134797 0 0 Z " fill="#020203" transform="translate(142,145)"/>
<path d="M0 0 C-20.12310055 9.2572828 -43.54251495 17.67384982 -66 16 C-66.74258797 12.37988365 -67.05815773 8.96033933 -67.03125 5.27734375 C-67.02673828 4.47417725 -67.02222656 3.67101074 -67.01757812 2.84350586 C-67.01177734 2.23514893 -67.00597656 1.62679199 -67 1 C-65.14991333 1.01571045 -65.14991333 1.01571045 -63.26245117 1.03173828 C-58.58995587 1.06854066 -53.9174727 1.09111439 -49.24487305 1.10986328 C-47.24061921 1.11978612 -45.2363793 1.13332869 -43.23217773 1.15087891 C-32.03231661 1.24634024 -21.04641336 1.08116696 -9.92753601 -0.38278198 C-6.30765673 -0.84728121 -3.49694782 -1.0311416 0 0 Z " fill="#FDE8C7" transform="translate(319,350)"/>
<path d="M0 0 C4.84776944 1.59761712 9.6783305 3.22924586 14.48828125 4.9375 C29.0433836 10.14915008 29.0433836 10.14915008 44 14 C43.51952878 18.1425994 42.94448328 20.70545748 40.125 23.8125 C39.35542969 24.68841797 39.35542969 24.68841797 38.5703125 25.58203125 C36.15983661 27.758655 33.99530317 28.00046047 30.8125 28.3125 C23.21822834 27.69001872 17.15569016 23.44752168 12 18 C7.33082381 12.30626421 3.14171147 6.68110794 0 0 Z " fill="#5DB4FA" transform="translate(123,398)"/>
</svg>
