<?xml version="1.0" standalone="no"?>
<!DOCTYPE svg PUBLIC "-//W3C//DTD SVG 20010904//EN"
 "http://www.w3.org/TR/2001/REC-SVG-20010904/DTD/svg10.dtd">
<svg version="1.0" xmlns="http://www.w3.org/2000/svg"
 width="512.000000pt" height="512.000000pt" viewBox="0 0 512.000000 512.000000"
 preserveAspectRatio="xMidYMid meet">

<g transform="translate(0.000000,512.000000) scale(0.100000,-0.100000)"
fill="#000000" stroke="none">
<path d="M1910 4885 c-282 -53 -532 -224 -739 -504 l-62 -85 -128 -62 c-167
-81 -320 -185 -433 -292 -143 -136 -278 -321 -278 -380 0 -54 51 -86 104 -66
9 3 40 43 69 88 143 218 329 378 592 509 300 149 603 203 910 160 l45 -6 -43
-49 c-86 -101 -137 -174 -137 -196 0 -52 45 -89 95 -76 13 3 49 39 84 85 160
205 394 399 586 484 150 66 328 85 470 50 80 -19 231 -87 302 -136 69 -47 188
-164 238 -234 124 -174 207 -418 236 -694 22 -217 -4 -662 -51 -844 -66 -256
-186 -478 -354 -655 -63 -67 -86 -98 -86 -117 0 -38 15 -60 49 -74 38 -16 69
0 132 66 247 261 384 550 439 930 43 302 44 629 1 868 -11 60 -19 111 -17 113
2 1 47 -6 99 -17 260 -53 465 -204 618 -457 48 -78 64 -93 99 -93 45 0 87 51
74 92 -13 45 -140 224 -213 300 -41 43 -104 101 -140 128 -135 102 -343 181
-518 196 l-71 6 -18 46 c-81 216 -240 427 -416 552 -204 143 -444 214 -643
190 l-86 -10 -86 49 c-95 54 -221 103 -328 127 -98 21 -302 26 -395 8z m414
-170 c96 -28 186 -64 186 -74 0 -3 -28 -21 -63 -38 -81 -42 -196 -119 -271
-181 l-59 -49 -55 13 c-163 38 -426 42 -601 9 -46 -9 -85 -14 -88 -11 -9 8
108 125 177 177 79 60 215 131 290 153 149 43 338 44 484 1z"/>
<path d="M162 3335 c-22 -28 -73 -204 -102 -350 -67 -352 -77 -867 -24 -1420
41 -441 126 -1017 166 -1123 30 -81 130 -180 213 -212 202 -76 420 8 511 197
45 93 43 174 -10 607 -25 203 -44 371 -42 373 2 2 43 -8 92 -22 131 -38 244
-55 364 -55 l107 0 17 -60 c27 -95 159 -490 220 -660 62 -168 95 -228 160
-288 107 -99 197 -126 400 -120 138 3 142 4 219 40 91 43 172 119 211 195 14
28 37 99 52 157 l27 106 470 -2 470 -3 28 -108 c35 -134 66 -191 139 -261 102
-97 188 -126 380 -126 186 0 275 29 376 122 62 57 94 113 169 293 322 771 421
1508 279 2069 -34 134 -100 336 -119 362 -30 44 -105 38 -127 -11 -10 -22 -5
-47 35 -173 26 -81 56 -182 67 -224 127 -505 39 -1173 -252 -1905 -90 -227
-119 -279 -179 -323 -62 -44 -126 -60 -249 -60 -125 0 -191 16 -252 63 -67 51
-97 110 -134 264 -23 91 -41 144 -54 158 -20 19 -34 20 -553 23 -562 3 -599 1
-617 -41 -5 -12 -23 -78 -40 -146 -35 -142 -55 -186 -106 -235 -65 -64 -114
-80 -245 -84 -175 -6 -271 31 -334 126 -37 56 -182 462 -278 779 l-25 81 77
17 c175 37 405 129 544 219 32 20 62 36 68 36 5 0 31 -11 57 -24 74 -37 204
-75 302 -86 160 -20 354 17 512 96 91 46 109 84 67 138 -28 35 -61 34 -150 -9
-110 -52 -214 -75 -334 -75 -238 0 -448 104 -647 321 -71 78 -86 89 -115 89
-41 0 -73 -30 -73 -69 0 -36 47 -97 159 -205 60 -58 78 -82 69 -88 -59 -38
-242 -123 -328 -151 -143 -47 -267 -67 -425 -67 -197 0 -350 31 -517 106 -84
38 -113 36 -142 -9 -15 -21 -12 -57 35 -438 75 -611 75 -619 1 -701 -55 -61
-104 -82 -187 -82 -100 0 -173 42 -216 126 -39 77 -134 747 -175 1238 -24 284
-24 789 0 995 20 177 56 363 91 472 14 43 25 90 25 106 0 63 -89 92 -128 42z"/>
<path d="M1363 2596 c-82 -37 -120 -182 -71 -275 29 -56 64 -82 119 -88 57 -6
105 25 137 87 43 86 20 213 -49 263 -34 25 -96 31 -136 13z"/>
</g>
</svg>
