<?xml version="1.0" standalone="no"?>
<!DOCTYPE svg PUBLIC "-//W3C//DTD SVG 20010904//EN"
 "http://www.w3.org/TR/2001/REC-SVG-20010904/DTD/svg10.dtd">
<svg version="1.0" xmlns="http://www.w3.org/2000/svg"
 width="512.000000pt" height="512.000000pt" viewBox="0 0 512.000000 512.000000"
 preserveAspectRatio="xMidYMid meet">

<g transform="translate(0.000000,512.000000) scale(0.100000,-0.100000)"
fill="#000000" stroke="none">
<path d="M2521 4735 c-35 -8 -105 -34 -155 -59 -128 -63 -209 -140 -303 -285
-2 -2 -31 23 -65 55 -157 150 -318 217 -518 217 -186 0 -339 -59 -472 -182
-303 -280 -329 -764 -60 -1103 32 -41 77 -88 100 -106 l40 -32 -101 -103
c-197 -199 -338 -437 -401 -677 l-22 -85 -130 -42 c-71 -23 -182 -58 -247 -78
-67 -21 -131 -48 -147 -62 -56 -47 -47 -144 17 -176 15 -8 132 -47 258 -87
127 -39 235 -77 241 -83 7 -7 24 -55 38 -107 99 -351 370 -693 743 -938 770
-504 1921 -574 2752 -167 248 121 419 243 586 416 257 266 393 545 436 893 37
304 -47 669 -218 946 -139 224 -296 385 -546 557 -28 20 -47 40 -47 52 0 68
53 281 98 393 l27 66 61 0 c78 0 136 25 190 84 52 56 67 102 62 183 -3 48 -11
75 -34 111 -34 56 -111 108 -173 118 -96 15 -199 -36 -256 -129 -26 -42 -30
-58 -30 -119 0 -59 5 -79 27 -119 l27 -48 -29 -65 c-36 -80 -73 -200 -96 -314
-10 -47 -19 -87 -20 -89 -2 -2 -54 19 -116 47 -62 27 -162 67 -223 87 -60 21
-111 38 -113 40 -6 5 50 197 77 265 17 41 31 76 31 78 0 1 18 -1 39 -4 93 -15
205 47 252 137 83 164 -38 359 -223 359 -99 0 -196 -65 -234 -156 -23 -56 -18
-153 11 -209 l26 -48 -35 -86 c-36 -91 -70 -200 -82 -264 -6 -33 -10 -38 -28
-33 -11 3 -81 16 -154 28 -96 17 -131 26 -127 35 21 57 37 187 32 268 -12 188
-68 316 -197 446 -67 68 -101 94 -162 123 -132 63 -270 80 -407 51z m237 -150
c91 -22 159 -60 227 -129 137 -136 186 -344 130 -544 l-17 -60 -182 1 c-99 1
-230 -2 -290 -7 l-109 -8 7 28 c22 89 143 304 224 397 26 30 42 58 42 74 0 38
-37 73 -75 73 -81 0 -251 -254 -336 -500 -18 -52 -33 -96 -34 -97 -1 -2 -22
-7 -47 -11 l-45 -9 -6 106 c-7 115 -24 191 -63 279 -14 31 -23 66 -20 77 3 12
24 49 46 84 128 198 342 294 548 246z m-1082 -107 c189 -78 328 -228 390 -423
21 -63 26 -102 27 -189 l2 -109 -148 -47 c-99 -32 -150 -44 -152 -36 -79 230
-190 430 -303 546 -66 68 -97 76 -137 35 -38 -37 -32 -66 26 -132 98 -111 172
-240 243 -420 20 -51 36 -95 36 -98 0 -3 -46 -28 -102 -56 -57 -28 -158 -87
-226 -131 l-122 -80 -34 25 c-78 60 -143 140 -190 233 -180 360 -21 781 339
901 27 9 79 12 165 9 105 -3 135 -7 186 -28z m2266 -77 c54 -48 39 -129 -29
-157 -66 -28 -133 16 -133 88 0 87 96 128 162 69z m621 -132 c38 -41 37 -90
-2 -130 -54 -54 -140 -32 -162 40 -14 48 8 96 54 116 42 18 76 10 110 -26z
m-2509 -746 c-73 -101 -102 -147 -161 -258 -167 -309 -257 -622 -284 -989 -25
-321 25 -676 138 -991 54 -151 173 -386 267 -528 46 -70 81 -127 77 -127 -33
0 -274 91 -402 151 l-106 51 -61 101 c-168 280 -264 554 -314 892 -19 133 -16
463 6 605 45 292 123 529 257 775 100 184 108 192 245 254 117 52 374 144 382
136 2 -2 -18 -35 -44 -72z m1394 -289 c140 -29 286 -102 385 -193 87 -81 111
-82 195 -12 143 119 317 140 482 60 80 -40 148 -107 222 -219 162 -244 239
-490 239 -765 1 -575 -387 -1087 -951 -1254 -52 -16 -129 -35 -170 -42 -106
-19 -363 -16 -465 5 -548 115 -946 504 -1062 1038 -22 105 -25 388 -4 493 33
169 120 381 212 518 125 184 332 323 554 370 94 21 267 21 363 1z"/>
<path d="M3193 2208 c-29 -14 -43 -57 -43 -135 0 -67 18 -116 45 -127 56 -21
100 11 111 80 20 136 -33 221 -113 182z"/>
<path d="M4613 2210 c-34 -14 -43 -42 -43 -133 0 -70 3 -89 21 -111 27 -34 77
-36 107 -3 19 20 22 35 22 114 0 72 -4 95 -17 111 -21 25 -60 35 -90 22z"/>
<path d="M3716 2079 c-41 -32 -36 -82 11 -125 109 -100 273 -110 391 -24 76
55 89 104 40 150 -31 29 -54 25 -115 -17 -46 -31 -63 -37 -107 -37 -37 0 -62
6 -81 19 -90 64 -98 66 -139 34z"/>
</g>
</svg>
