<?xml version="1.0" standalone="no"?>
<!DOCTYPE svg PUBLIC "-//W3C//DTD SVG 20010904//EN"
 "http://www.w3.org/TR/2001/REC-SVG-20010904/DTD/svg10.dtd">
<svg version="1.0" xmlns="http://www.w3.org/2000/svg"
 width="512.000000pt" height="512.000000pt" viewBox="0 0 512.000000 512.000000"
 preserveAspectRatio="xMidYMid meet">

<g transform="translate(0.000000,512.000000) scale(0.100000,-0.100000)"
fill="#000000" stroke="none">
<path d="M2460 4784 c-142 -38 -306 -149 -491 -333 -332 -332 -597 -843 -634
-1226 l-7 -71 -77 -12 c-249 -40 -647 -223 -821 -377 -125 -111 -209 -242
-247 -385 -24 -89 -24 -290 1 -380 57 -213 190 -377 381 -470 135 -66 230 -84
440 -84 99 0 212 5 252 12 107 18 232 60 259 87 34 34 33 87 -2 114 -35 27
-46 27 -151 -9 -220 -73 -548 -62 -728 25 -84 41 -133 80 -191 154 l-43 55 39
43 c48 51 52 87 15 128 -26 27 -61 31 -106 11 -30 -13 -39 132 -14 249 44 208
183 357 464 495 242 120 364 161 543 180 137 15 148 25 148 130 0 221 95 504
266 791 96 160 183 276 298 397 303 317 568 418 642 245 37 -86 23 -264 -34
-449 l-27 -86 -91 -42 c-272 -124 -526 -297 -714 -485 -118 -119 -188 -212
-242 -318 -70 -140 -60 -223 25 -223 45 0 71 21 86 72 75 249 434 575 866 784
365 178 732 227 840 114 67 -70 25 -218 -110 -387 -302 -377 -908 -709 -1335
-730 -172 -8 -184 -22 -149 -166 30 -123 32 -314 5 -435 -19 -83 -19 -83 1
-110 48 -65 110 -51 150 35 95 199 577 469 988 552 358 72 679 45 925 -79 158
-79 332 -235 437 -390 218 -323 297 -729 198 -1013 -77 -222 -269 -423 -512
-533 -128 -58 -329 -104 -461 -104 -43 0 -58 -5 -77 -25 -33 -32 -33 -78 0
-110 l24 -25 250 0 c241 0 250 -1 256 -20 3 -11 3 -29 0 -40 -6 -20 -15 -20
-591 -20 -321 0 -584 3 -584 8 1 13 34 49 57 61 13 7 85 11 188 11 163 0 166
0 190 25 54 53 15 135 -65 135 -70 0 -192 30 -265 65 -183 88 -308 249 -349
448 -20 96 -20 158 0 255 51 251 245 444 497 496 42 9 95 16 117 16 81 0 119
82 64 137 -25 25 -29 26 -112 20 -286 -21 -538 -193 -662 -451 -61 -127 -74
-190 -74 -346 0 -156 13 -219 74 -346 62 -128 158 -238 289 -331 2 -1 -17 -25
-43 -54 -25 -28 -54 -73 -63 -100 l-18 -49 -347 0 c-213 0 -348 4 -348 9 0 6
17 23 37 38 36 28 39 28 206 33 162 5 170 6 188 29 26 32 24 77 -6 106 -13 14
-28 25 -33 25 -5 0 -14 25 -21 55 -27 119 -134 216 -286 260 -99 28 -174 74
-260 160 -80 78 -180 213 -244 328 -35 61 -54 77 -96 77 -34 0 -75 -42 -75
-77 0 -65 176 -318 314 -450 104 -100 190 -154 291 -185 117 -34 179 -79 199
-144 6 -20 2 -21 -81 -26 -64 -4 -102 -12 -138 -29 -101 -47 -172 -150 -182
-261 -5 -51 -3 -59 20 -82 l26 -26 1098 0 c1046 0 1100 1 1138 19 48 22 79 54
100 103 29 70 13 162 -37 215 -12 13 -20 24 -17 26 2 2 31 19 64 37 33 18 88
53 123 78 l63 44 52 -23 c43 -20 69 -24 152 -24 92 0 106 3 167 32 213 100
301 337 204 548 -28 63 -103 146 -156 176 l-37 21 -6 113 c-28 525 -328 1000
-772 1223 -409 204 -1025 166 -1562 -98 -131 -65 -342 -194 -357 -219 -15 -23
-26 -9 -26 32 0 23 -5 71 -10 106 -6 35 -9 65 -7 67 2 2 55 13 118 23 301 52
530 147 834 346 538 350 795 790 595 1018 -108 122 -336 152 -628 80 -35 -8
-65 -13 -68 -10 -2 2 5 42 16 88 58 243 26 449 -85 547 -77 68 -186 88 -305
56z m2273 -3581 c38 -41 57 -94 57 -163 0 -100 -46 -177 -134 -222 -44 -23
-130 -34 -163 -21 -22 8 -21 10 32 82 61 81 137 230 156 304 6 26 14 47 18 47
4 0 19 -12 34 -27z"/>
<path d="M2954 3825 c-352 -91 -663 -267 -919 -521 -100 -100 -212 -234 -226
-273 -19 -49 20 -101 75 -101 40 0 53 9 96 67 118 156 272 300 443 413 199
133 385 213 622 270 96 23 124 34 143 55 26 31 27 46 7 84 -26 52 -61 53 -241
6z"/>
<path d="M850 2574 c-69 -30 -130 -111 -130 -174 0 -41 39 -80 80 -80 33 0 80
37 80 63 0 21 34 47 61 47 13 0 38 -9 54 -20 84 -56 175 28 119 109 -42 60
-185 89 -264 55z"/>
</g>
</svg>
