<svg width="29" height="29" viewBox="0 0 29 29" fill="none" xmlns="http://www.w3.org/2000/svg">
<path fill-rule="evenodd" clip-rule="evenodd" d="M3.12501 14.4999C3.12461 11.7407 4.1271 9.07548 5.94578 7.00053C7.76446 4.92557 10.2753 3.5824 13.0108 3.22116C13.1817 3.19887 13.3554 3.21047 13.5219 3.25531C13.6884 3.30014 13.8445 3.37733 13.9811 3.48247C14.1178 3.58761 14.2324 3.71864 14.3184 3.86808C14.4045 4.01751 14.4602 4.18243 14.4825 4.35341C14.5048 4.52439 14.4932 4.69809 14.4484 4.86458C14.4035 5.03108 14.3263 5.18712 14.2212 5.32378C14.1161 5.46044 13.985 5.57506 13.8356 5.66109C13.6862 5.74712 13.5212 5.80287 13.3503 5.82516C11.725 6.04137 10.1932 6.70975 8.92939 7.75416C7.66555 8.79856 6.72049 10.177 6.20192 11.7323C5.68334 13.2877 5.6121 14.9575 5.99631 16.5514C6.38051 18.1452 7.20472 19.5991 8.37501 20.7474V18.4374C8.37501 18.0893 8.51329 17.7555 8.75943 17.5093C9.00557 17.2632 9.33941 17.1249 9.68751 17.1249C10.0356 17.1249 10.3694 17.2632 10.6156 17.5093C10.8617 17.7555 11 18.0893 11 18.4374V23.6874C11 24.0355 10.8617 24.3693 10.6156 24.6155C10.3694 24.8616 10.0356 24.9999 9.68751 24.9999H4.43751C4.26515 24.9999 4.09448 24.966 3.93524 24.9C3.776 24.834 3.63131 24.7374 3.50943 24.6155C3.38755 24.4936 3.29088 24.3489 3.22492 24.1897C3.15896 24.0304 3.12501 23.8598 3.12501 23.6874C3.12501 23.515 3.15896 23.3444 3.22492 23.1851C3.29088 23.0259 3.38755 22.8812 3.50943 22.7593C3.63131 22.6375 3.776 22.5408 3.93524 22.4748C4.09448 22.4089 4.26515 22.3749 4.43751 22.3749H6.29251C4.25702 20.2589 3.12156 17.436 3.12501 14.4999ZM25.875 5.31241C25.875 4.96431 25.7367 4.63047 25.4906 4.38433C25.2444 4.13819 24.9106 3.99991 24.5625 3.99991H19.3125C18.9644 3.99991 18.6306 4.13819 18.3844 4.38433C18.1383 4.63047 18 4.96431 18 5.31241V10.5624C18 10.9105 18.1383 11.2443 18.3844 11.4905C18.6306 11.7366 18.9644 11.8749 19.3125 11.8749C19.6606 11.8749 19.9944 11.7366 20.2406 11.4905C20.4867 11.2443 20.625 10.9105 20.625 10.5624V8.25241C21.7958 9.4006 22.6205 10.8546 23.005 12.4488C23.3895 14.0429 23.3184 15.713 22.7998 17.2687C22.2811 18.8244 21.3359 20.2031 20.0717 21.2476C18.8075 22.2921 17.2753 22.9605 15.6498 23.1764C15.4758 23.195 15.3074 23.2482 15.1544 23.3329C15.0013 23.4175 14.8667 23.5319 14.7585 23.6693C14.6502 23.8067 14.5706 23.9643 14.5241 24.133C14.4777 24.3016 14.4654 24.4778 14.488 24.6512C14.5107 24.8247 14.5677 24.9918 14.6559 25.1429C14.744 25.294 14.8615 25.4259 15.0013 25.5309C15.1412 25.636 15.3006 25.712 15.4703 25.7545C15.6399 25.7971 15.8164 25.8053 15.9893 25.7787C18.0739 25.5031 20.0414 24.6553 21.6734 23.3292C23.3053 22.003 24.5377 20.2506 25.2339 18.2664C25.93 16.2822 26.0626 14.1438 25.617 12.0888C25.1713 10.0338 24.1648 8.14249 22.7093 6.62491H24.5625C25.287 6.62491 25.875 6.03691 25.875 5.31241Z" fill="white"/>
</svg>
