<svg width="22" height="22" viewBox="0 0 22 22" fill="none" xmlns="http://www.w3.org/2000/svg">
<path fill-rule="evenodd" clip-rule="evenodd" d="M2.53492 11.0004C2.53462 8.94707 3.28066 6.96362 4.6341 5.41947C5.98754 3.87532 7.85609 2.87575 9.89176 2.60692C10.019 2.59033 10.1483 2.59897 10.2722 2.63233C10.3961 2.6657 10.5122 2.72314 10.6139 2.80139C10.7156 2.87963 10.8009 2.97714 10.8649 3.08835C10.9289 3.19956 10.9704 3.32228 10.987 3.44952C11.0036 3.57677 10.995 3.70603 10.9616 3.82994C10.9282 3.95384 10.8708 4.06996 10.7925 4.17166C10.7143 4.27337 10.6168 4.35866 10.5056 4.42268C10.3944 4.4867 10.2716 4.52819 10.1444 4.54478C8.93494 4.70568 7.79499 5.20308 6.85446 5.98032C5.91392 6.75755 5.21063 7.78335 4.82471 8.94083C4.43879 10.0983 4.38578 11.3409 4.6717 12.5271C4.95762 13.7132 5.57098 14.7952 6.44189 15.6497V13.9306C6.44189 13.6716 6.5448 13.4232 6.72798 13.24C6.91115 13.0568 7.15959 12.9539 7.41864 12.9539C7.67769 12.9539 7.92613 13.0568 8.1093 13.24C8.29248 13.4232 8.39538 13.6716 8.39538 13.9306V17.8376C8.39538 18.0967 8.29248 18.3451 8.1093 18.5283C7.92613 18.7115 7.67769 18.8144 7.41864 18.8144H3.51166C3.38339 18.8144 3.25638 18.7891 3.13788 18.74C3.01937 18.6909 2.9117 18.619 2.821 18.5283C2.7303 18.4376 2.65835 18.3299 2.60927 18.2114C2.56018 18.0929 2.53492 17.9659 2.53492 17.8376C2.53492 17.7093 2.56018 17.5823 2.60927 17.4638C2.65835 17.3453 2.7303 17.2377 2.821 17.147C2.9117 17.0563 3.01937 16.9843 3.13788 16.9352C3.25638 16.8861 3.38339 16.8609 3.51166 16.8609H4.89213C3.37734 15.2862 2.53235 13.1854 2.53492 11.0004ZM19.4652 4.1632C19.4652 3.90415 19.3622 3.65571 19.1791 3.47254C18.9959 3.28936 18.7475 3.18646 18.4884 3.18646H14.5814C14.3224 3.18646 14.0739 3.28936 13.8908 3.47254C13.7076 3.65571 13.6047 3.90415 13.6047 4.1632L13.6047 8.07018C13.6047 8.32922 13.7076 8.57766 13.8908 8.76084C14.0739 8.94401 14.3224 9.04692 14.5814 9.04692C14.8405 9.04692 15.0889 8.94401 15.2721 8.76084C15.4553 8.57766 15.5582 8.32922 15.5582 8.07018V6.35111C16.4295 7.20558 17.0432 8.28765 17.3293 9.47399C17.6155 10.6603 17.5626 11.9032 17.1766 13.0609C16.7906 14.2186 16.0872 15.2446 15.1464 16.022C14.2056 16.7993 13.0654 17.2966 11.8557 17.4573C11.7262 17.4712 11.6009 17.5108 11.487 17.5738C11.3731 17.6368 11.2729 17.7219 11.1924 17.8241C11.1118 17.9264 11.0525 18.0437 11.018 18.1692C10.9834 18.2947 10.9743 18.4258 10.9911 18.5549C11.008 18.684 11.0504 18.8084 11.116 18.9208C11.1816 19.0332 11.269 19.1314 11.3731 19.2095C11.4772 19.2877 11.5959 19.3443 11.7221 19.3759C11.8484 19.4076 11.9797 19.4137 12.1083 19.3939C13.6597 19.1889 15.1239 18.5579 16.3383 17.571C17.5528 16.5841 18.47 15.28 18.988 13.8034C19.5061 12.3267 19.6048 10.7354 19.2731 9.2061C18.9415 7.67678 18.1925 6.26931 17.1092 5.13994H18.4884C19.0276 5.13994 19.4652 4.70236 19.4652 4.1632Z" fill="white"/>
</svg>
