<svg width="22" height="22" viewBox="0 0 22 22" fill="none" xmlns="http://www.w3.org/2000/svg">
<path d="M11.1667 3.83333C15.2092 3.83333 18.5 7.12417 18.5 11.1667C18.5 15.2092 15.2092 18.5 11.1667 18.5C7.12417 18.5 3.83333 15.2092 3.83333 11.1667C3.83333 7.12417 7.12417 3.83333 11.1667 3.83333ZM11.1667 2C6.125 2 2 6.125 2 11.1667C2 16.2083 6.125 20.3333 11.1667 20.3333C16.2083 20.3333 20.3333 16.2083 20.3333 11.1667C20.3333 6.125 16.2083 2 11.1667 2ZM12.5417 15.2917C12.5417 14.5308 11.9275 13.9167 11.1667 13.9167C10.4058 13.9167 9.79167 14.5308 9.79167 15.2917C9.79167 16.0525 10.4058 16.6667 11.1667 16.6667C11.9275 16.6667 12.5417 16.0525 12.5417 15.2917ZM8.41667 11.1667C8.41667 10.4058 7.8025 9.79167 7.04167 9.79167C6.28083 9.79167 5.66667 10.4058 5.66667 11.1667C5.66667 11.9275 6.28083 12.5417 7.04167 12.5417C7.8025 12.5417 8.41667 11.9275 8.41667 11.1667ZM16.6667 11.1667C16.6667 10.4058 16.0525 9.79167 15.2917 9.79167C14.5308 9.79167 13.9167 10.4058 13.9167 11.1667C13.9167 11.9275 14.5308 12.5417 15.2917 12.5417C16.0525 12.5417 16.6667 11.9275 16.6667 11.1667Z" fill="#8F00FF"/>
</svg>
