<svg width="22" height="23" viewBox="0 0 22 23" fill="none" xmlns="http://www.w3.org/2000/svg">
<g clip-path="url(#clip0_999_1341)">
<path fill-rule="evenodd" clip-rule="evenodd" d="M2.81977 5.64859C2.88921 5.48113 3.00673 5.33801 3.1575 5.23734C3.30826 5.13667 3.48549 5.08296 3.66677 5.08301H12.8334C13.6761 5.08301 14.5105 5.24898 15.289 5.57145C16.0675 5.89392 16.7749 6.36656 17.3707 6.96241C17.9666 7.55825 18.4392 8.26562 18.7617 9.04412C19.0841 9.82263 19.2501 10.657 19.2501 11.4997C19.2501 12.3423 19.0841 13.1767 18.7617 13.9552C18.4392 14.7337 17.9666 15.4411 17.3707 16.0369C16.7749 16.6328 16.0675 17.1054 15.289 17.4279C14.5105 17.7504 13.6761 17.9163 12.8334 17.9163H4.58344C4.34032 17.9163 4.10717 17.8198 3.93526 17.6479C3.76335 17.4759 3.66677 17.2428 3.66677 16.9997C3.66677 16.7566 3.76335 16.5234 3.93526 16.3515C4.10717 16.1796 4.34032 16.083 4.58344 16.083H12.8334C14.049 16.083 15.2148 15.6001 16.0743 14.7406C16.9339 13.881 17.4168 12.7153 17.4168 11.4997C17.4168 10.2841 16.9339 9.11831 16.0743 8.25877C15.2148 7.39923 14.049 6.91634 12.8334 6.91634H5.87961L7.52319 8.55992C7.69017 8.73281 7.78256 8.96436 7.78047 9.20471C7.77839 9.44506 7.68198 9.67497 7.51202 9.84492C7.34207 10.0149 7.11215 10.1113 6.87181 10.1134C6.63146 10.1155 6.39991 10.0231 6.22702 9.85609L3.01869 6.64776C2.89042 6.51957 2.80305 6.35621 2.76764 6.17835C2.73224 6.0005 2.75038 5.81613 2.81977 5.64859Z" fill="#E28EFF"/>
</g>
<defs>
<clipPath id="clip0_999_1341">
<rect width="22" height="22" fill="white" transform="translate(0 0.5)"/>
</clipPath>
</defs>
</svg>
