<svg width="22" height="23" viewBox="0 0 22 23" fill="none" xmlns="http://www.w3.org/2000/svg">
<g clip-path="url(#clip0_999_4289)">
<path d="M11.5437 21.8192L11.5337 21.8211L11.4686 21.8532L11.4502 21.8568L11.4374 21.8532L11.3723 21.8211C11.3625 21.818 11.3552 21.8196 11.3503 21.8257L11.3467 21.8348L11.3311 22.2272L11.3357 22.2455L11.3448 22.2574L11.4402 22.3252L11.4539 22.3289L11.4649 22.3252L11.5602 22.2574L11.5712 22.2427L11.5749 22.2272L11.5593 21.8357C11.5569 21.826 11.5517 21.8205 11.5437 21.8192ZM11.7867 21.7157L11.7747 21.7175L11.6052 21.8027L11.596 21.8119L11.5932 21.822L11.6097 22.2162L11.6143 22.2272L11.6217 22.2336L11.8059 22.3188C11.8175 22.3219 11.8264 22.3194 11.8325 22.3115L11.8362 22.2987L11.805 21.7358C11.8019 21.7248 11.7958 21.7181 11.7867 21.7157ZM11.1312 21.7175C11.1272 21.715 11.1224 21.7143 11.1178 21.7153C11.1132 21.7163 11.1091 21.7191 11.1065 21.723L11.101 21.7358L11.0698 22.2987C11.0704 22.3097 11.0756 22.317 11.0854 22.3207L11.0992 22.3188L11.2834 22.2336L11.2926 22.2262L11.2962 22.2162L11.3118 21.822L11.3091 21.811L11.2999 21.8018L11.1312 21.7175Z" fill="#C090FF"/>
<path d="M9.59197 3.50811C9.75602 3.3113 9.9595 3.15107 10.1893 3.03774C10.4191 2.92441 10.6701 2.8605 10.9261 2.85013C11.1821 2.83977 11.4374 2.88318 11.6756 2.97756C11.9138 3.07195 12.1296 3.21521 12.309 3.39811L12.408 3.50811L16.0132 7.83294H18.7495C18.9418 7.83253 19.1321 7.87277 19.3079 7.95101C19.4836 8.02924 19.6408 8.14372 19.7693 8.28695C19.8977 8.43017 19.9944 8.59891 20.0531 8.78211C20.1118 8.96531 20.1311 9.15884 20.1098 9.35003L20.0255 10.0522L19.9338 10.7305L19.8586 11.2384L19.7716 11.7838L19.6726 12.3567L19.5607 12.9507L19.4361 13.5566C19.3701 13.8622 19.2992 14.1674 19.2234 14.4724C19.0205 15.2772 18.7657 16.0681 18.4607 16.8401L18.2581 17.3351L18.062 17.7824L17.8768 18.1803L17.7906 18.3581L17.5624 18.8073C17.2691 19.3664 16.7154 19.6964 16.1296 19.7441L15.983 19.7496H6.00872C5.68826 19.752 5.37316 19.6673 5.09708 19.5046C4.821 19.3418 4.59431 19.1072 4.44122 18.8256L4.22856 18.4131L4.06356 18.0739L3.97647 17.886L3.79314 17.4744C3.3745 16.5023 3.03484 15.4981 2.77747 14.4714C2.72771 14.2721 2.68004 14.0723 2.63447 13.8719L2.50431 13.2779L2.38789 12.6968L2.28522 12.1349L2.19356 11.5968L2.11381 11.0889L2.04597 10.6187L1.96347 9.99261L1.90297 9.48294L1.88739 9.34269C1.86843 9.1626 1.88547 8.98054 1.93752 8.8071C1.98957 8.63365 2.07559 8.47229 2.19057 8.3324C2.30556 8.1925 2.44721 8.07687 2.6073 7.99223C2.76739 7.90759 2.9427 7.85562 3.12306 7.83936L3.24772 7.83294H5.98764L9.59197 3.50811ZM18.2261 9.66628H3.77022L3.82706 10.1099L3.89672 10.6123L3.98106 11.1659L4.08006 11.7599C4.11672 11.9634 4.15522 12.1718 4.19556 12.3851L4.32664 13.0332C4.39631 13.3614 4.47331 13.695 4.55581 14.0269C4.78844 14.9534 5.09498 15.8599 5.47247 16.7374L5.65214 17.1417L5.81897 17.4937L5.96839 17.7898L6.03439 17.9163H15.9591L16.1003 17.6385L16.2626 17.3039L16.4404 16.9162C16.7768 16.1599 17.1618 15.158 17.4441 14.0269C17.5587 13.5685 17.6605 13.1029 17.7512 12.6454L17.8796 11.9689L17.9896 11.319L18.0381 11.0083L18.1252 10.4244L18.1958 9.90186L18.2261 9.66628ZM9.15381 12.2659L9.61214 15.0159C9.64414 15.2521 9.5829 15.4915 9.44141 15.6833C9.29991 15.875 9.08928 16.0042 8.85418 16.0433C8.61908 16.0824 8.37799 16.0284 8.18203 15.8927C7.98607 15.7571 7.85065 15.5504 7.80447 15.3166L7.34614 12.5666C7.32237 12.4462 7.32301 12.3223 7.34802 12.2022C7.37303 12.0821 7.42191 11.9682 7.49175 11.8673C7.56159 11.7664 7.65097 11.6806 7.7546 11.6148C7.85823 11.5491 7.974 11.5049 8.09504 11.4848C8.21608 11.4647 8.33993 11.469 8.45925 11.4976C8.57857 11.5263 8.69093 11.5785 8.78967 11.6514C8.8884 11.7242 8.97151 11.8162 9.03406 11.9217C9.09661 12.0273 9.13733 12.1444 9.15381 12.2659ZM13.794 11.4996L13.9003 11.5115C14.1222 11.5481 14.3228 11.665 14.4641 11.84C14.6054 12.0149 14.6775 12.2357 14.6666 12.4603L14.6547 12.5666L14.1964 15.3166C14.1575 15.5468 14.0323 15.7535 13.8462 15.8945C13.6602 16.0355 13.4273 16.1002 13.1952 16.0754C12.963 16.0506 12.7491 15.9382 12.597 15.7611C12.445 15.584 12.3662 15.3555 12.3768 15.1223L12.3887 15.0159L12.8471 12.2659C12.8836 12.0444 13.0003 11.844 13.1748 11.7027C13.3494 11.5615 13.5697 11.4892 13.794 11.4996ZM11 4.68144L8.37372 7.83294H13.6262L11 4.68144Z" fill="#C090FF"/>
</g>
<defs>
<clipPath id="clip0_999_4289">
<rect width="22" height="22" fill="none" transform="translate(0 0.5)"/>
</clipPath>
</defs>
</svg>
