<svg width="25" height="25" viewBox="0 0 25 25" fill="none" xmlns="http://www.w3.org/2000/svg">
<path d="M2.08325 11.3045C2.08325 7.85123 2.08325 6.12412 3.15651 5.05178C4.22977 3.97943 5.95596 3.97852 9.40926 3.97852H13.0723C16.5256 3.97852 18.2527 3.97852 19.325 5.05178C20.3974 6.12504 20.3983 7.85123 20.3983 11.3045V13.136C20.3983 16.5893 20.3983 18.3164 19.325 19.3888C18.2518 20.4611 16.5256 20.462 13.0723 20.462H9.40926C5.95596 20.462 4.22886 20.462 3.15651 19.3888C2.08417 18.3155 2.08325 16.5893 2.08325 13.136V11.3045Z" stroke="#D99BFF" stroke-width="2.1875"/>
<path d="M6.6619 3.97812V2.60449M15.8194 3.97812V2.60449M2.54102 8.55687H19.9403" stroke="#D99BFF" stroke-width="2.1875" stroke-linecap="round"/>
<path d="M16.7353 15.8825C16.7353 16.1253 16.6389 16.3583 16.4671 16.53C16.2954 16.7017 16.0625 16.7982 15.8196 16.7982C15.5767 16.7982 15.3438 16.7017 15.1721 16.53C15.0003 16.3583 14.9038 16.1253 14.9038 15.8825C14.9038 15.6396 15.0003 15.4067 15.1721 15.2349C15.3438 15.0632 15.5767 14.9667 15.8196 14.9667C16.0625 14.9667 16.2954 15.0632 16.4671 15.2349C16.6389 15.4067 16.7353 15.6396 16.7353 15.8825ZM16.7353 12.2195C16.7353 12.4623 16.6389 12.6953 16.4671 12.867C16.2954 13.0387 16.0625 13.1352 15.8196 13.1352C15.5767 13.1352 15.3438 13.0387 15.1721 12.867C15.0003 12.6953 14.9038 12.4623 14.9038 12.2195C14.9038 11.9766 15.0003 11.7437 15.1721 11.5719C15.3438 11.4002 15.5767 11.3037 15.8196 11.3037C16.0625 11.3037 16.2954 11.4002 16.4671 11.5719C16.6389 11.7437 16.7353 11.9766 16.7353 12.2195ZM12.1566 15.8825C12.1566 16.1253 12.0601 16.3583 11.8884 16.53C11.7166 16.7017 11.4837 16.7982 11.2408 16.7982C10.998 16.7982 10.765 16.7017 10.5933 16.53C10.4216 16.3583 10.3251 16.1253 10.3251 15.8825C10.3251 15.6396 10.4216 15.4067 10.5933 15.2349C10.765 15.0632 10.998 14.9667 11.2408 14.9667C11.4837 14.9667 11.7166 15.0632 11.8884 15.2349C12.0601 15.4067 12.1566 15.6396 12.1566 15.8825ZM12.1566 12.2195C12.1566 12.4623 12.0601 12.6953 11.8884 12.867C11.7166 13.0387 11.4837 13.1352 11.2408 13.1352C10.998 13.1352 10.765 13.0387 10.5933 12.867C10.4216 12.6953 10.3251 12.4623 10.3251 12.2195C10.3251 11.9766 10.4216 11.7437 10.5933 11.5719C10.765 11.4002 10.998 11.3037 11.2408 11.3037C11.4837 11.3037 11.7166 11.4002 11.8884 11.5719C12.0601 11.7437 12.1566 11.9766 12.1566 12.2195ZM7.57784 15.8825C7.57784 16.1253 7.48136 16.3583 7.30962 16.53C7.13789 16.7017 6.90496 16.7982 6.66209 16.7982C6.41922 16.7982 6.18629 16.7017 6.01456 16.53C5.84282 16.3583 5.74634 16.1253 5.74634 15.8825C5.74634 15.6396 5.84282 15.4067 6.01456 15.2349C6.18629 15.0632 6.41922 14.9667 6.66209 14.9667C6.90496 14.9667 7.13789 15.0632 7.30962 15.2349C7.48136 15.4067 7.57784 15.6396 7.57784 15.8825ZM7.57784 12.2195C7.57784 12.4623 7.48136 12.6953 7.30962 12.867C7.13789 13.0387 6.90496 13.1352 6.66209 13.1352C6.41922 13.1352 6.18629 13.0387 6.01456 12.867C5.84282 12.6953 5.74634 12.4623 5.74634 12.2195C5.74634 11.9766 5.84282 11.7437 6.01456 11.5719C6.18629 11.4002 6.41922 11.3037 6.66209 11.3037C6.90496 11.3037 7.13789 11.4002 7.30962 11.5719C7.48136 11.7437 7.57784 11.9766 7.57784 12.2195Z" fill="#D99BFF"/>
</svg>
