<svg width="6" height="7" viewBox="0 0 6 7" fill="none" xmlns="http://www.w3.org/2000/svg">
<path d="M6 1.66667V5.33333C6 5.51014 5.92976 5.67971 5.80474 5.80474C5.67971 5.92976 5.51014 6 5.33333 6H0.666667C0.489856 6 0.320286 5.92976 0.195262 5.80474C0.0702379 5.67971 0 5.51014 0 5.33333V1.66667H6ZM1.83333 4H1.5C1.41504 4.00009 1.33332 4.03263 1.27154 4.09095C1.20977 4.14927 1.17259 4.22898 1.16761 4.3138C1.16263 4.39861 1.19022 4.48213 1.24476 4.54728C1.29929 4.61243 1.37663 4.6543 1.461 4.66433L1.5 4.66667H1.83333C1.91829 4.66657 2.00001 4.63404 2.06179 4.57572C2.12357 4.51739 2.16075 4.43768 2.16572 4.35287C2.1707 4.26805 2.14311 4.18454 2.08858 4.11939C2.03405 4.05424 1.9567 4.01237 1.87233 4.00233L1.83333 4ZM3.16667 4H2.83333C2.74493 4 2.66014 4.03512 2.59763 4.09763C2.53512 4.16014 2.5 4.24493 2.5 4.33333C2.5 4.42174 2.53512 4.50652 2.59763 4.56904C2.66014 4.63155 2.74493 4.66667 2.83333 4.66667H3.16667C3.25507 4.66667 3.33986 4.63155 3.40237 4.56904C3.46488 4.50652 3.5 4.42174 3.5 4.33333C3.5 4.24493 3.46488 4.16014 3.40237 4.09763C3.33986 4.03512 3.25507 4 3.16667 4ZM1.83333 2.66667H1.5C1.41159 2.66667 1.32681 2.70179 1.2643 2.7643C1.20179 2.82681 1.16667 2.91159 1.16667 3C1.16667 3.08841 1.20179 3.17319 1.2643 3.2357C1.32681 3.29821 1.41159 3.33333 1.5 3.33333H1.83333C1.92174 3.33333 2.00652 3.29821 2.06904 3.2357C2.13155 3.17319 2.16667 3.08841 2.16667 3C2.16667 2.91159 2.13155 2.82681 2.06904 2.7643C2.00652 2.70179 1.92174 2.66667 1.83333 2.66667ZM3.16667 2.66667H2.83333C2.74837 2.66676 2.66666 2.69929 2.60488 2.75762C2.5431 2.81594 2.50592 2.89565 2.50094 2.98046C2.49596 3.06528 2.52356 3.14879 2.57809 3.21394C2.63262 3.2791 2.70997 3.32097 2.79433 3.331L2.83333 3.33333H3.16667C3.25163 3.33324 3.33334 3.30071 3.39512 3.24238C3.4569 3.18406 3.49408 3.10435 3.49906 3.01954C3.50404 2.93472 3.47644 2.85121 3.42191 2.78606C3.36738 2.7209 3.29003 2.67903 3.20567 2.669L3.16667 2.66667ZM4.5 2.66667H4.16667C4.07826 2.66667 3.99348 2.70179 3.93096 2.7643C3.86845 2.82681 3.83333 2.91159 3.83333 3C3.83333 3.08841 3.86845 3.17319 3.93096 3.2357C3.99348 3.29821 4.07826 3.33333 4.16667 3.33333H4.5C4.58841 3.33333 4.67319 3.29821 4.7357 3.2357C4.79821 3.17319 4.83333 3.08841 4.83333 3C4.83333 2.91159 4.79821 2.82681 4.7357 2.7643C4.67319 2.70179 4.58841 2.66667 4.5 2.66667ZM5.33333 0C5.51014 0 5.67971 0.0702379 5.80474 0.195262C5.92976 0.320286 6 0.489856 6 0.666667V1H0V0.666667C0 0.489856 0.0702379 0.320286 0.195262 0.195262C0.320286 0.0702379 0.489856 0 0.666667 0H5.33333Z" fill="current"/>
</svg>
