<svg width="22" height="23" viewBox="0 0 22 23" fill="none" xmlns="http://www.w3.org/2000/svg">
<path d="M17.5838 4.5C18.3132 4.5 19.0126 4.78973 19.5284 5.30546C20.0441 5.82118 20.3338 6.52065 20.3338 7.25V16.4167C20.3338 17.146 20.0441 17.8455 19.5284 18.3612C19.0126 18.8769 18.3132 19.1667 17.5838 19.1667H4.75049C4.02114 19.1667 3.32167 18.8769 2.80594 18.3612C2.29022 17.8455 2.00049 17.146 2.00049 16.4167V7.25C2.00049 6.52065 2.29022 5.82118 2.80594 5.30546C3.32167 4.78973 4.02114 4.5 4.75049 4.5H17.5838ZM18.5005 10H3.83382V16.4167C3.83385 16.6412 3.91628 16.8579 4.06548 17.0257C4.21467 17.1935 4.42026 17.3006 4.64324 17.3269L4.75049 17.3333H17.5838C17.8083 17.3333 18.025 17.2509 18.1928 17.1017C18.3606 16.9525 18.4678 16.7469 18.4941 16.5239L18.5005 16.4167V10ZM15.7505 12.75C15.9841 12.7503 16.2089 12.8397 16.3787 13.0001C16.5486 13.1605 16.6509 13.3797 16.6646 13.6129C16.6783 13.8462 16.6024 14.0758 16.4524 14.255C16.3025 14.4342 16.0897 14.5493 15.8577 14.5769L15.7505 14.5833H13.0005C12.7668 14.5831 12.5421 14.4936 12.3722 14.3332C12.2023 14.1728 12.1001 13.9536 12.0864 13.7204C12.0727 13.4872 12.1486 13.2575 12.2986 13.0783C12.4485 12.8992 12.6612 12.784 12.8932 12.7564L13.0005 12.75H15.7505ZM17.5838 6.33333H4.75049C4.50737 6.33333 4.27422 6.42991 4.10231 6.60182C3.9304 6.77373 3.83382 7.00688 3.83382 7.25V8.16667H18.5005V7.25C18.5005 7.00688 18.4039 6.77373 18.232 6.60182C18.0601 6.42991 17.8269 6.33333 17.5838 6.33333Z" fill="#C090FF"/>
</svg>
