<svg width="22" height="23" viewBox="0 0 22 23" fill="none" xmlns="http://www.w3.org/2000/svg">
<path d="M14.6172 3.5C12.9692 3.5 11.5066 4.15051 10.5156 5.26859C9.52469 4.15051 8.06207 3.5 6.41406 3.5C4.9787 3.50174 3.60262 4.0727 2.58766 5.08766C1.5727 6.10262 1.00174 7.4787 1 8.91406C1 14.8482 9.67973 19.5896 10.0489 19.7889C10.1923 19.8662 10.3527 19.9066 10.5156 19.9066C10.6786 19.9066 10.8389 19.8662 10.9824 19.7889C11.3515 19.5896 20.0312 14.8482 20.0312 8.91406C20.0295 7.4787 19.4585 6.10262 18.4436 5.08766C17.4286 4.0727 16.0526 3.50174 14.6172 3.5ZM14.1668 15.178C13.0244 16.1474 11.8031 17.02 10.5156 17.7866C9.22819 17.02 8.00689 16.1474 6.86441 15.178C5.0868 13.653 2.96875 11.3274 2.96875 8.91406C2.96875 8.00031 3.33174 7.12398 3.97786 6.47786C4.62398 5.83174 5.50031 5.46875 6.41406 5.46875C7.87422 5.46875 9.09648 6.23984 9.60426 7.4818C9.67816 7.66285 9.80432 7.81778 9.96663 7.92684C10.129 8.0359 10.3201 8.09415 10.5156 8.09415C10.7112 8.09415 10.9023 8.0359 11.0646 7.92684C11.2269 7.81778 11.3531 7.66285 11.427 7.4818C11.9348 6.23984 13.157 5.46875 14.6172 5.46875C15.5309 5.46875 16.4073 5.83174 17.0534 6.47786C17.6995 7.12398 18.0625 8.00031 18.0625 8.91406C18.0625 11.3274 15.9445 13.653 14.1668 15.178Z" fill="#C090FF"/>
</svg>
