<svg width="22" height="22" viewBox="0 0 22 22" fill="none" xmlns="http://www.w3.org/2000/svg">
<g clip-path="url(#clip0_1006_4555)">
<path fill-rule="evenodd" clip-rule="evenodd" d="M19.1803 5.14859C19.1109 4.98113 18.9934 4.83801 18.8426 4.73734C18.6918 4.63667 18.5146 4.58296 18.3333 4.58301H9.16667C7.46486 4.58301 5.83276 5.25905 4.6294 6.46241C3.42604 7.66576 2.75 9.29787 2.75 10.9997C2.75 12.7015 3.42604 14.3336 4.6294 15.5369C5.83276 16.7403 7.46486 17.4163 9.16667 17.4163H17.4167C17.6598 17.4163 17.8929 17.3198 18.0648 17.1479C18.2368 16.9759 18.3333 16.7428 18.3333 16.4997C18.3333 16.2566 18.2368 16.0234 18.0648 15.8515C17.8929 15.6796 17.6598 15.583 17.4167 15.583H9.16667C7.95109 15.583 6.7853 15.1001 5.92576 14.2406C5.06622 13.381 4.58333 12.2152 4.58333 10.9997C4.58333 9.7841 5.06622 8.61831 5.92576 7.75877C6.7853 6.89923 7.95109 6.41634 9.16667 6.41634H16.1205L14.4769 8.05992C14.3894 8.14448 14.3195 8.24563 14.2715 8.35747C14.2234 8.46931 14.1982 8.58959 14.1971 8.71131C14.196 8.83302 14.2192 8.95373 14.2653 9.06638C14.3114 9.17904 14.3795 9.28138 14.4656 9.36745C14.5516 9.45352 14.654 9.52159 14.7666 9.56768C14.8793 9.61377 15 9.63696 15.1217 9.6359C15.2434 9.63485 15.3637 9.60956 15.4755 9.56152C15.5874 9.51348 15.6885 9.44364 15.7731 9.35609L18.9814 6.14776C19.1097 6.01957 19.1971 5.85621 19.2325 5.67835C19.2679 5.5005 19.2497 5.31613 19.1803 5.14859Z" fill="#E28EFF"/>
</g>
<defs>
<clipPath id="clip0_1006_4555">
<rect width="22" height="22" fill="white"/>
</clipPath>
</defs>
</svg>
