<svg width="22" height="23" viewBox="0 0 22 23" fill="none" xmlns="http://www.w3.org/2000/svg">
<path d="M16.4598 2.48828L16.5615 2.53869L17.3554 2.99703C17.5156 3.08953 17.644 3.22835 17.7239 3.39523C17.8037 3.56211 17.8312 3.74924 17.8027 3.93203L17.7789 4.04203L17.2591 5.85978C17.2236 5.98398 17.1622 6.09927 17.079 6.19809C16.9958 6.29691 16.8927 6.37704 16.7764 6.43321C16.66 6.48938 16.5332 6.52034 16.404 6.52404C16.2749 6.52774 16.1465 6.50411 16.0271 6.45469L15.9189 6.40153L14.5128 8.83619C15.3561 9.49711 15.7677 10.2048 16.0473 10.8648C16.2517 11.3442 16.4268 11.9694 16.3278 12.6422C16.2315 13.2949 15.8905 13.8907 15.2828 14.3729L15.1095 14.5012C14.7126 14.7808 14.7062 15.1034 14.8089 15.5068L14.9051 15.8579C15.0729 16.4885 15.2727 17.4749 14.9711 18.617C14.7181 19.5731 14.1067 20.3266 13.4128 20.8271C12.7299 21.3203 11.8856 21.6255 11.0863 21.5843C9.8396 21.5201 8.56635 21.2084 6.8751 20.2322C5.18385 19.2559 4.27727 18.309 3.59893 17.2622C3.16352 16.5903 3.00585 15.7057 3.0911 14.8679C3.17727 14.0172 3.52468 13.1106 4.22593 12.4139C4.9446 11.6999 5.7476 11.3625 6.35994 11.1746L6.64868 11.0912L6.89802 11.027C7.37835 10.9042 7.63043 10.8134 7.70468 10.3579L7.72027 10.235C7.79818 9.36328 8.15844 8.69778 8.72219 8.25044C9.25385 7.82878 9.88452 7.66836 10.4015 7.60511C11.0542 7.52536 11.7958 7.52078 12.6804 7.82786L12.9251 7.91953L14.3313 5.48486C14.2195 5.42023 14.1226 5.3327 14.047 5.22802C13.9714 5.12334 13.9187 5.00387 13.8925 4.87743C13.8663 4.75099 13.8671 4.62043 13.8948 4.49431C13.9226 4.3682 13.9766 4.24937 14.0535 4.14561L14.1305 4.05394L15.4441 2.69544C15.5727 2.56245 15.7386 2.47149 15.9198 2.43451C16.1011 2.39753 16.2893 2.41628 16.4598 2.48828ZM10.6243 9.42469C10.2759 9.46778 10.0229 9.55944 9.86068 9.68778C9.74518 9.77944 9.61685 9.93436 9.56277 10.2653L9.54718 10.3973C9.4876 11.0683 9.27585 11.6219 8.87435 12.039C8.49302 12.435 7.9971 12.6239 7.48468 12.7687L6.9631 12.9117C6.47177 13.0538 5.99052 13.2444 5.51843 13.7138C5.16918 14.0612 4.9666 14.5461 4.91435 15.0539C4.8621 15.5746 4.97668 16.0174 5.1371 16.2639C5.6486 17.0541 6.3361 17.8039 7.79177 18.6445C9.24744 19.4851 10.2411 19.7051 11.1807 19.7537C11.474 19.7684 11.9159 19.6464 12.3403 19.3412C12.7546 19.0424 13.0727 18.6244 13.1983 18.1486C13.3688 17.5051 13.2936 16.9927 13.1708 16.4959L13.0846 16.1659C12.9288 15.5874 12.8004 14.998 12.9709 14.4049C13.113 13.9099 13.4247 13.491 13.8794 13.1326L14.0572 13.0006C14.4055 12.7568 14.4899 12.5386 14.5146 12.3745C14.5449 12.1701 14.4981 11.9052 14.3606 11.5816C14.1461 11.0774 13.85 10.5577 13.0479 10.0425L12.8674 9.93253L12.7995 9.89311C11.8517 9.35411 11.2073 9.35319 10.6243 9.42469ZM9.22819 15.24L10.022 15.6984C10.1271 15.7581 10.2193 15.8381 10.2934 15.9336C10.3675 16.0291 10.4219 16.1384 10.4536 16.2551C10.4853 16.3717 10.4936 16.4935 10.478 16.6134C10.4624 16.7333 10.4232 16.8489 10.3628 16.9536C10.3024 17.0583 10.2218 17.15 10.1258 17.2234C10.0297 17.2968 9.92013 17.3505 9.80325 17.3814C9.68638 17.4123 9.56455 17.4198 9.44477 17.4034C9.325 17.3871 9.20964 17.3472 9.10535 17.286L8.31152 16.8277C8.20643 16.7679 8.11419 16.688 8.04012 16.5925C7.96606 16.4969 7.91162 16.3877 7.87994 16.271C7.84827 16.1543 7.83998 16.0325 7.85557 15.9127C7.87115 15.7928 7.91029 15.6772 7.97074 15.5725C8.03118 15.4678 8.11174 15.3761 8.20777 15.3026C8.3038 15.2292 8.41341 15.1755 8.53028 15.1446C8.64716 15.1137 8.76899 15.1062 8.88877 15.1226C9.00854 15.139 9.1239 15.1789 9.22819 15.24ZM11.6876 11.8969C11.9834 12.0678 12.205 12.3428 12.3093 12.6681C12.4135 12.9935 12.3928 13.346 12.2514 13.6569L12.1909 13.7752C12.0171 14.0854 11.7301 14.3162 11.3898 14.4193C11.0496 14.5224 10.6826 14.4896 10.366 14.328C10.0494 14.1664 9.80763 13.8884 9.69154 13.5523C9.57545 13.2163 9.59402 12.8484 9.74335 12.5258L9.80935 12.4002C9.89956 12.2436 10.0197 12.1064 10.163 11.9963C10.3063 11.8862 10.4699 11.8054 10.6444 11.7586C10.819 11.7118 11.001 11.6998 11.1802 11.7234C11.3593 11.747 11.5321 11.8056 11.6885 11.896L11.6876 11.8969Z" fill="#A293FF"/>
</svg>
