<svg width="100%" height="100%" viewBox="0 0 23 20" fill="none" xmlns="http://www.w3.org/2000/svg">
<path d="M14.5267 17.5659L14.5259 17.5666C13.9224 18.0482 13.3768 18.4763 12.8491 18.7878C12.321 19.0996 11.8828 19.25 11.5 19.25C11.1174 19.25 10.6792 19.0995 10.1509 18.7875C9.62296 18.4758 9.07742 18.048 8.47362 17.5673C8.14039 17.3019 7.80044 17.0371 7.45785 16.7702C6.01562 15.6469 4.52686 14.4872 3.29768 13.0891C1.80223 11.3881 0.75 9.39212 0.75 6.7989C0.75 4.25042 2.17556 2.11159 4.1238 1.21195C6.0226 0.335137 8.56057 0.576455 10.957 3.09204L11.5 3.66209L12.043 3.09204C14.4393 0.576544 16.9772 0.335709 18.8761 1.21292C20.8244 2.113 22.25 4.25219 22.25 6.80006C22.25 9.39273 21.198 11.3887 19.7027 13.0895C18.4715 14.49 16.9795 15.6512 15.5346 16.7757C15.1947 17.0403 14.8574 17.3028 14.5267 17.5659Z" fill="current" stroke="white" stroke-width="1.5"/>
</svg>
