<svg width="28" height="29" viewBox="0 0 28 29" fill="none" xmlns="http://www.w3.org/2000/svg">
<g clip-path="url(#clip0_251_4923)">
<path d="M14.692 27.6348L14.6792 27.6372L14.5964 27.678L14.573 27.6827L14.5567 27.678L14.4739 27.6372C14.4614 27.6333 14.4521 27.6352 14.4459 27.643L14.4412 27.6547L14.4214 28.154L14.4272 28.1773L14.4389 28.1925L14.5602 28.2788L14.5777 28.2835L14.5917 28.2788L14.713 28.1925L14.727 28.1738L14.7317 28.154L14.7119 27.6558C14.7088 27.6434 14.7021 27.6364 14.692 27.6348ZM15.0012 27.503L14.986 27.5053L14.7702 27.6138L14.7585 27.6255L14.755 27.6383L14.776 28.14L14.7819 28.154L14.7912 28.1622L15.0257 28.2707C15.0405 28.2746 15.0518 28.2714 15.0595 28.2613L15.0642 28.245L15.0245 27.5287C15.0206 27.5147 15.0129 27.5061 15.0012 27.503ZM14.167 27.5053C14.1619 27.5022 14.1557 27.5012 14.1499 27.5025C14.144 27.5038 14.1389 27.5073 14.1355 27.5123L14.1285 27.5287L14.0889 28.245C14.0896 28.259 14.0963 28.2683 14.1087 28.273L14.1262 28.2707L14.3607 28.1622L14.3724 28.1528L14.377 28.14L14.3969 27.6383L14.3934 27.6243L14.3817 27.6127L14.167 27.5053Z" fill="current"/>
<path d="M12.5673 3.63621C12.95 3.33847 13.416 3.16736 13.9004 3.14666C14.3849 3.12596 14.8637 3.2567 15.2705 3.52071L15.4326 3.63738L25.214 11.244C26.0551 11.8985 25.6456 13.218 24.6318 13.3265L24.4965 13.3335H23.3333V22.6669C23.3335 23.2555 23.1112 23.8225 22.7109 24.2542C22.3106 24.6858 21.762 24.9502 21.175 24.9944L21 25.0002H6.99996C6.41149 25.0001 5.84479 24.7776 5.41339 24.3774C4.98199 23.9772 4.71776 23.4287 4.67362 22.8419L4.66662 22.6669V13.3335H3.50346C2.43829 13.3335 1.94946 12.0409 2.68329 11.3327L2.78596 11.244L12.5673 3.63621ZM14 5.47838L6.56246 11.2627C6.82962 11.4785 6.99996 11.8087 6.99996 12.1785V22.6669H10.5V16.8335C10.5 15.9053 10.8687 15.015 11.5251 14.3587C12.1815 13.7023 13.0717 13.3335 14 13.3335C14.9282 13.3335 15.8185 13.7023 16.4748 14.3587C17.1312 15.015 17.5 15.9053 17.5 16.8335V22.6669H21V12.1785C21 11.8087 21.1703 11.4785 21.4375 11.2627L14 5.47838ZM14 15.6669C13.6905 15.6669 13.3938 15.7898 13.175 16.0086C12.9562 16.2274 12.8333 16.5241 12.8333 16.8335V22.6669H15.1666V16.8335C15.1666 16.5241 15.0437 16.2274 14.8249 16.0086C14.6061 15.7898 14.3094 15.6669 14 15.6669Z" fill="current"/>
</g>
<defs>
<clipPath id="clip0_251_4923">
<rect width="28" height="28" fill="none" transform="translate(0 0.5)"/>
</clipPath>
</defs>
</svg>
