<svg width="current" height="current" viewBox="0 0 6 8" fill="none" xmlns="http://www.w3.org/2000/svg">
<path d="M3 0.666992C3.79565 0.666992 4.55871 0.983063 5.12132 1.54567C5.68393 2.10828 6 2.87134 6 3.66699C6 4.69166 5.44133 5.53033 4.85267 6.13199C4.55856 6.42935 4.23764 6.69893 3.894 6.93733L3.752 7.03399L3.68533 7.07832L3.55967 7.15833L3.44767 7.22666L3.309 7.30732C3.21488 7.36105 3.10838 7.38931 3 7.38931C2.89162 7.38931 2.78512 7.36105 2.691 7.30732L2.55233 7.22666L2.379 7.11999L2.315 7.07832L2.17833 6.98733C1.80761 6.7365 1.4623 6.45002 1.14733 6.13199C0.558667 5.52999 0 4.69166 0 3.66699C0 2.87134 0.31607 2.10828 0.87868 1.54567C1.44129 0.983063 2.20435 0.666992 3 0.666992ZM3 2.66699C2.86868 2.66699 2.73864 2.69286 2.61732 2.74311C2.49599 2.79337 2.38575 2.86703 2.29289 2.95989C2.20003 3.05274 2.12638 3.16298 2.07612 3.28431C2.02587 3.40563 2 3.53567 2 3.66699C2 3.79831 2.02587 3.92835 2.07612 4.04968C2.12638 4.171 2.20003 4.28124 2.29289 4.3741C2.38575 4.46696 2.49599 4.54062 2.61732 4.59087C2.73864 4.64113 2.86868 4.66699 3 4.66699C3.26522 4.66699 3.51957 4.56164 3.70711 4.3741C3.89464 4.18656 4 3.93221 4 3.66699C4 3.40178 3.89464 3.14742 3.70711 2.95989C3.51957 2.77235 3.26522 2.66699 3 2.66699Z" fill="current"/>
</svg>
