<svg width="100%" height="100%" viewBox="0 0 110 19" fill="none" xmlns="http://www.w3.org/2000/svg">
<path d="M0.54225 18C0.36625 18 0.27825 17.912 0.27825 17.736V6.12C0.27825 5.96 0.36625 5.88 0.54225 5.88H1.76625C1.94225 5.88 2.03025 5.96 2.03025 6.12L2.12625 8.136C2.52625 7.336 3.10225 6.72 3.85425 6.288C4.62225 5.856 5.43825 5.64 6.30225 5.64C7.27825 5.64 8.10225 5.88 8.77425 6.36C9.46225 6.824 9.94225 7.488 10.2143 8.352C10.6143 7.488 11.2143 6.824 12.0143 6.36C12.8143 5.88 13.6783 5.64 14.6063 5.64C15.9023 5.64 16.9263 6.04 17.6783 6.84C18.4303 7.64 18.8063 8.736 18.8063 10.128V17.736C18.8063 17.912 18.7263 18 18.5663 18H17.1503C16.9743 18 16.8863 17.912 16.8863 17.736V10.92C16.8863 8.584 15.9583 7.416 14.1023 7.416C13.4943 7.416 12.9183 7.576 12.3743 7.896C11.8303 8.2 11.3823 8.664 11.0303 9.288C10.6783 9.912 10.5023 10.68 10.5023 11.592V17.736C10.5023 17.912 10.4223 18 10.2623 18H8.84625C8.67025 18 8.58225 17.912 8.58225 17.736V10.92C8.58225 8.584 7.65425 7.416 5.79825 7.416C5.19025 7.416 4.61425 7.576 4.07025 7.896C3.52625 8.2 3.07825 8.664 2.72625 9.288C2.37425 9.912 2.19825 10.68 2.19825 11.592V17.736C2.19825 17.912 2.11825 18 1.95825 18H0.54225ZM27.5376 18.24C26.3376 18.24 25.2896 17.968 24.3936 17.424C23.4976 16.88 22.8096 16.136 22.3296 15.192C21.8496 14.232 21.6096 13.144 21.6096 11.928C21.6096 10.712 21.8496 9.632 22.3296 8.688C22.8256 7.728 23.5216 6.984 24.4176 6.456C25.3136 5.912 26.3536 5.64 27.5376 5.64C29.2976 5.64 30.6576 6.248 31.6176 7.464C32.5936 8.664 33.0656 10.272 33.0336 12.288C33.0336 12.464 32.9456 12.552 32.7696 12.552H23.6256C23.7376 13.768 24.1376 14.728 24.8256 15.432C25.5296 16.136 26.4336 16.488 27.5376 16.488C29.2016 16.488 30.3776 15.808 31.0656 14.448C31.1296 14.32 31.2416 14.28 31.4016 14.328L32.6016 14.76C32.6816 14.792 32.7296 14.84 32.7456 14.904C32.7776 14.952 32.7776 15.008 32.7456 15.072C32.2336 16.128 31.5296 16.92 30.6336 17.448C29.7536 17.976 28.7216 18.24 27.5376 18.24ZM30.9696 11.04C30.8896 9.936 30.5456 9.048 29.9376 8.376C29.3296 7.704 28.5296 7.368 27.5376 7.368C26.4976 7.368 25.6256 7.704 24.9216 8.376C24.2176 9.032 23.7936 9.92 23.6496 11.04H30.9696ZM35.9798 18C35.8038 18 35.7158 17.912 35.7158 17.736V0.24C35.7158 0.079999 35.8038 -1.43051e-06 35.9798 -1.43051e-06H37.3958C37.5558 -1.43051e-06 37.6358 0.079999 37.6358 0.24V17.736C37.6358 17.912 37.5558 18 37.3958 18H35.9798ZM46.6676 18.24C45.4516 18.24 44.3796 17.968 43.4516 17.424C42.5236 16.88 41.8036 16.136 41.2916 15.192C40.7796 14.232 40.5236 13.144 40.5236 11.928C40.5236 10.712 40.7796 9.632 41.2916 8.688C41.8036 7.728 42.5236 6.984 43.4516 6.456C44.3796 5.912 45.4516 5.64 46.6676 5.64C47.8836 5.64 48.9556 5.912 49.8836 6.456C50.8276 6.984 51.5556 7.728 52.0676 8.688C52.5796 9.632 52.8356 10.712 52.8356 11.928C52.8356 13.144 52.5796 14.232 52.0676 15.192C51.5556 16.136 50.8276 16.88 49.8836 17.424C48.9556 17.968 47.8836 18.24 46.6676 18.24ZM46.6676 16.464C47.8996 16.464 48.8996 16.048 49.6676 15.216C50.4516 14.384 50.8436 13.288 50.8436 11.928C50.8436 11.048 50.6676 10.264 50.3156 9.576C49.9636 8.888 49.4676 8.36 48.8276 7.992C48.2036 7.608 47.4836 7.416 46.6676 7.416C45.8516 7.416 45.1236 7.608 44.4836 7.992C43.8596 8.36 43.3716 8.888 43.0196 9.576C42.6676 10.264 42.4916 11.048 42.4916 11.928C42.4916 13.288 42.8756 14.384 43.6436 15.216C44.4276 16.048 45.4356 16.464 46.6676 16.464ZM60.6045 18.24C59.4525 18.24 58.4365 17.976 57.5565 17.448C56.6765 16.904 55.9965 16.16 55.5165 15.216C55.0525 14.256 54.8205 13.16 54.8205 11.928C54.8205 10.712 55.0525 9.632 55.5165 8.688C55.9965 7.728 56.6765 6.984 57.5565 6.456C58.4365 5.912 59.4525 5.64 60.6045 5.64C61.5485 5.64 62.4125 5.856 63.1965 6.288C63.9805 6.72 64.5725 7.304 64.9725 8.04V0.24C64.9725 0.079999 65.0605 -1.43051e-06 65.2365 -1.43051e-06H66.6525C66.8125 -1.43051e-06 66.8925 0.079999 66.8925 0.24V17.736C66.8925 17.912 66.8125 18 66.6525 18H65.4045C65.2285 18 65.1405 17.912 65.1405 17.736L65.0445 15.72C64.6445 16.488 64.0445 17.104 63.2445 17.568C62.4445 18.016 61.5645 18.24 60.6045 18.24ZM60.9645 16.464C62.1965 16.464 63.1965 16.048 63.9645 15.216C64.7485 14.384 65.1405 13.288 65.1405 11.928C65.1405 11.048 64.9645 10.264 64.6125 9.576C64.2605 8.888 63.7645 8.36 63.1245 7.992C62.5005 7.608 61.7805 7.416 60.9645 7.416C60.1485 7.416 59.4205 7.608 58.7805 7.992C58.1565 8.36 57.6685 8.888 57.3165 9.576C56.9645 10.264 56.7885 11.048 56.7885 11.928C56.7885 13.288 57.1725 14.384 57.9405 15.216C58.7245 16.048 59.7325 16.464 60.9645 16.464ZM71.5976 3.144C71.2296 3.144 70.9256 3.032 70.6856 2.808C70.4456 2.568 70.3256 2.272 70.3256 1.92C70.3256 1.568 70.4456 1.28 70.6856 1.056C70.9256 0.816 71.2296 0.696 71.5976 0.696C71.9656 0.696 72.2696 0.816 72.5096 1.056C72.7496 1.28 72.8696 1.568 72.8696 1.92C72.8696 2.272 72.7496 2.568 72.5096 2.808C72.2696 3.032 71.9656 3.144 71.5976 3.144ZM70.9016 18C70.7256 18 70.6376 17.912 70.6376 17.736V6.12C70.6376 5.96 70.7256 5.88 70.9016 5.88H72.3176C72.4776 5.88 72.5576 5.96 72.5576 6.12V17.736C72.5576 17.912 72.4776 18 72.3176 18H70.9016ZM76.5735 18C76.3975 18 76.3095 17.912 76.3095 17.736V0.24C76.3095 0.079999 76.3975 -1.43051e-06 76.5735 -1.43051e-06H77.9895C78.1495 -1.43051e-06 78.2295 0.079999 78.2295 0.24V11.352L83.8215 6C83.9015 5.92 84.0055 5.88 84.1335 5.88H85.9815C86.1255 5.88 86.1975 5.928 86.1975 6.024C86.1975 6.072 86.1655 6.128 86.1015 6.192L81.7095 10.296L86.7015 17.688C86.7335 17.752 86.7495 17.8 86.7495 17.832C86.7495 17.944 86.6775 18 86.5335 18H84.8295C84.7015 18 84.5975 17.944 84.5175 17.832L80.3175 11.664L78.2295 13.608V17.736C78.2295 17.912 78.1495 18 77.9895 18H76.5735ZM93.7485 18.24C92.5485 18.24 91.5005 17.968 90.6045 17.424C89.7085 16.88 89.0205 16.136 88.5405 15.192C88.0605 14.232 87.8205 13.144 87.8205 11.928C87.8205 10.712 88.0605 9.632 88.5405 8.688C89.0365 7.728 89.7325 6.984 90.6285 6.456C91.5245 5.912 92.5645 5.64 93.7485 5.64C95.5085 5.64 96.8685 6.248 97.8285 7.464C98.8045 8.664 99.2765 10.272 99.2445 12.288C99.2445 12.464 99.1565 12.552 98.9805 12.552H89.8365C89.9485 13.768 90.3485 14.728 91.0365 15.432C91.7405 16.136 92.6445 16.488 93.7485 16.488C95.4125 16.488 96.5885 15.808 97.2765 14.448C97.3405 14.32 97.4525 14.28 97.6125 14.328L98.8125 14.76C98.8925 14.792 98.9405 14.84 98.9565 14.904C98.9885 14.952 98.9885 15.008 98.9565 15.072C98.4445 16.128 97.7405 16.92 96.8445 17.448C95.9645 17.976 94.9325 18.24 93.7485 18.24ZM97.1805 11.04C97.1005 9.936 96.7565 9.048 96.1485 8.376C95.5405 7.704 94.7405 7.368 93.7485 7.368C92.7085 7.368 91.8365 7.704 91.1325 8.376C90.4285 9.032 90.0045 9.92 89.8605 11.04H97.1805ZM106.127 18.24C105.007 18.24 104.143 17.88 103.535 17.16C102.927 16.424 102.623 15.304 102.623 13.8V7.608H100.487C100.327 7.608 100.247 7.528 100.247 7.368V6.12C100.247 5.96 100.327 5.88 100.487 5.88H102.623V2.16C102.623 2 102.703 1.92 102.863 1.92H104.279C104.455 1.92 104.543 2 104.543 2.16V5.88H107.903C108.063 5.88 108.143 5.96 108.143 6.12V7.368C108.143 7.528 108.063 7.608 107.903 7.608H104.543V13.848C104.543 14.76 104.679 15.424 104.951 15.84C105.239 16.256 105.687 16.464 106.295 16.464C106.983 16.464 107.503 16.096 107.855 15.36C107.935 15.2 108.047 15.16 108.191 15.24L109.271 15.696C109.431 15.776 109.463 15.912 109.367 16.104C108.663 17.528 107.583 18.24 106.127 18.24Z" fill="url(#paint0_linear_160_368)"/>
<defs>
<linearGradient id="paint0_linear_160_368" x1="-2" y1="9" x2="110" y2="9" gradientUnits="userSpaceOnUse">
<stop stop-color="#A293FF"/>
<stop offset="1" stop-color="#E28EFF"/>
</linearGradient>
</defs>
</svg>
