<svg width="25" height="25" viewBox="0 0 25 25" fill="none" xmlns="http://www.w3.org/2000/svg">
<path d="M13.1176 24.227L13.1062 24.2291L13.0322 24.2656L13.0114 24.2697L12.9968 24.2656L12.9229 24.2291C12.9117 24.2257 12.9034 24.2274 12.8979 24.2343L12.8937 24.2447L12.876 24.6906L12.8812 24.7114L12.8916 24.725L12.9999 24.802L13.0156 24.8062L13.0281 24.802L13.1364 24.725L13.1489 24.7083L13.1531 24.6906L13.1354 24.2458C13.1326 24.2347 13.1267 24.2284 13.1176 24.227ZM13.3937 24.1093L13.3801 24.1114L13.1874 24.2083L13.177 24.2187L13.1739 24.2302L13.1926 24.6781L13.1979 24.6906L13.2062 24.6979L13.4156 24.7947C13.4288 24.7982 13.4388 24.7954 13.4458 24.7864L13.4499 24.7718L13.4145 24.1322C13.411 24.1197 13.4041 24.1121 13.3937 24.1093ZM12.6489 24.1114C12.6443 24.1086 12.6388 24.1077 12.6336 24.1089C12.6283 24.1101 12.6237 24.1132 12.6208 24.1177L12.6145 24.1322L12.5791 24.7718C12.5798 24.7843 12.5857 24.7927 12.5968 24.7968L12.6124 24.7947L12.8218 24.6979L12.8322 24.6895L12.8364 24.6781L12.8541 24.2302L12.851 24.2177L12.8406 24.2072L12.6489 24.1114Z" fill="#A293FF"/>
<path d="M20.8333 18.7498C21.0988 18.7501 21.3542 18.8518 21.5473 19.0341C21.7403 19.2163 21.8565 19.4654 21.8721 19.7305C21.8876 19.9955 21.8014 20.2565 21.631 20.4601C21.4606 20.6637 21.2188 20.7945 20.9552 20.8259L20.8333 20.8332H4.16667C3.90117 20.8329 3.6458 20.7312 3.45274 20.549C3.25968 20.3667 3.14351 20.1176 3.12795 19.8526C3.11239 19.5875 3.19862 19.3265 3.36903 19.1229C3.53943 18.9193 3.78115 18.7885 4.04479 18.7571L4.16667 18.7498H20.8333ZM20.8333 11.4582C21.1096 11.4582 21.3746 11.5679 21.5699 11.7633C21.7653 11.9586 21.875 12.2236 21.875 12.4998C21.875 12.7761 21.7653 13.0411 21.5699 13.2364C21.3746 13.4318 21.1096 13.5415 20.8333 13.5415H4.16667C3.8904 13.5415 3.62545 13.4318 3.4301 13.2364C3.23475 13.0411 3.125 12.7761 3.125 12.4998C3.125 12.2236 3.23475 11.9586 3.4301 11.7633C3.62545 11.5679 3.8904 11.4582 4.16667 11.4582H20.8333ZM20.8333 4.1665C21.1096 4.1665 21.3746 4.27625 21.5699 4.4716C21.7653 4.66695 21.875 4.9319 21.875 5.20817C21.875 5.48444 21.7653 5.74939 21.5699 5.94474C21.3746 6.14009 21.1096 6.24984 20.8333 6.24984H4.16667C3.8904 6.24984 3.62545 6.14009 3.4301 5.94474C3.23475 5.74939 3.125 5.48444 3.125 5.20817C3.125 4.9319 3.23475 4.66695 3.4301 4.4716C3.62545 4.27625 3.8904 4.1665 4.16667 4.1665H20.8333Z" fill="#A293FF"/>
</svg>
