<svg width="25" height="25" viewBox="0 0 25 25" fill="none" xmlns="http://www.w3.org/2000/svg">
<path d="M20.8333 18.7498C21.0988 18.7501 21.3542 18.8518 21.5473 19.0341C21.7403 19.2163 21.8565 19.4654 21.8721 19.7305C21.8876 19.9955 21.8014 20.2565 21.631 20.4601C21.4606 20.6637 21.2188 20.7945 20.9552 20.8259L20.8333 20.8332H4.16667C3.90117 20.8329 3.6458 20.7312 3.45274 20.549C3.25968 20.3667 3.14351 20.1176 3.12795 19.8526C3.11239 19.5875 3.19862 19.3265 3.36903 19.1229C3.53943 18.9193 3.78115 18.7885 4.04479 18.7571L4.16667 18.7498H20.8333ZM20.8333 11.4582C21.1096 11.4582 21.3746 11.5679 21.5699 11.7633C21.7653 11.9586 21.875 12.2236 21.875 12.4998C21.875 12.7761 21.7653 13.0411 21.5699 13.2364C21.3746 13.4318 21.1096 13.5415 20.8333 13.5415H4.16667C3.8904 13.5415 3.62545 13.4318 3.4301 13.2364C3.23475 13.0411 3.125 12.7761 3.125 12.4998C3.125 12.2236 3.23475 11.9586 3.4301 11.7633C3.62545 11.5679 3.8904 11.4582 4.16667 11.4582H20.8333ZM20.8333 4.1665C21.1096 4.1665 21.3746 4.27625 21.5699 4.4716C21.7653 4.66695 21.875 4.9319 21.875 5.20817C21.875 5.48444 21.7653 5.74939 21.5699 5.94474C21.3746 6.14009 21.1096 6.24984 20.8333 6.24984H4.16667C3.8904 6.24984 3.62545 6.14009 3.4301 5.94474C3.23475 5.74939 3.125 5.48444 3.125 5.20817C3.125 4.9319 3.23475 4.66695 3.4301 4.4716C3.62545 4.27625 3.8904 4.1665 4.16667 4.1665H20.8333Z" fill="#A293FF"/>
</svg>
