<svg width="22" height="23" viewBox="0 0 22 23" fill="none" xmlns="http://www.w3.org/2000/svg">
<path d="M3.5458 4.50415C4.53844 3.51077 5.82956 2.87046 7.22111 2.68144C8.61267 2.49243 10.0278 2.76514 11.2495 3.45776C12.4711 4.15038 13.4318 5.22464 13.9842 6.51578C14.5366 7.80691 14.6501 9.2436 14.3075 10.6055L14.2442 10.8402L17.3609 14.8478C17.6233 15.1851 17.7939 15.5846 17.856 16.0074C17.9182 16.4302 17.8698 16.8619 17.7156 17.2605C17.8073 17.288 17.9191 17.3027 18.0566 17.2752L18.1648 17.2467C18.3937 17.1761 18.6412 17.1978 18.8543 17.3074C19.0674 17.4169 19.2291 17.6056 19.3048 17.8329C19.3806 18.0602 19.3643 18.3081 19.2595 18.5236C19.1547 18.739 18.9697 18.9049 18.7441 18.9857C18.3553 19.1197 17.9398 19.1572 17.5332 19.0951C17.1267 19.033 16.7414 18.8731 16.4103 18.6291C16.03 18.7973 15.6135 18.867 15.1992 18.8317C14.7849 18.7965 14.3862 18.6574 14.0398 18.4274L13.8895 18.3202L9.88179 15.2026C8.51403 15.602 7.05224 15.5348 5.7269 15.0115C4.40157 14.4883 3.28809 13.5388 2.56203 12.3128C1.83598 11.0868 1.53865 9.65394 1.71694 8.24025C1.89523 6.82657 2.53899 5.51244 3.54671 4.50507L3.5458 4.50415ZM13.3624 12.6918C12.9221 13.3286 12.3703 13.8805 11.7335 14.3207L15.0151 16.8727C15.1387 16.966 15.2919 17.0115 15.4464 17.0007C15.6009 16.9899 15.7462 16.9237 15.8557 16.8141C15.9651 16.7045 16.0313 16.5591 16.0419 16.4046C16.0525 16.2501 16.0069 16.097 15.9135 15.9735L13.3624 12.6918ZM11.8435 6.4209L11.6574 6.7289C10.9181 7.91994 10.0446 9.02226 9.05404 10.0142C8.0623 11.0044 6.9603 11.8776 5.76963 12.6167L5.46163 12.8027C6.34441 13.4176 7.41534 13.7025 8.48697 13.6074C9.5586 13.5123 10.5626 13.0434 11.3234 12.2827C12.0841 11.5219 12.5531 10.5179 12.6481 9.44624C12.7432 8.37462 12.4584 7.30369 11.8435 6.4209ZM10.4703 5.1284C9.59251 4.59372 8.56053 4.36947 7.54 4.49164C6.51948 4.61381 5.56959 5.07532 4.84282 5.80209C4.11605 6.52887 3.65454 7.47875 3.53236 8.49928C3.41019 9.5198 3.63445 10.5518 4.16913 11.4296L4.46613 11.2618C5.66663 10.5562 6.77297 9.70153 7.75879 8.71807C8.64884 7.82583 9.43374 6.83457 10.0981 5.76365L10.2045 5.58949L10.3905 5.2714L10.4703 5.1284Z" fill="#C090FF"/>
</svg>
