<svg width="22" height="23" viewBox="0 0 22 23" fill="none" xmlns="http://www.w3.org/2000/svg">
<path d="M19.417 4.33264V15.1676C19.4168 15.9748 19.1503 16.7593 18.6589 17.3995C18.1674 18.0398 17.4784 18.4999 16.6988 18.7087C15.9191 18.9175 15.0923 18.8632 14.3467 18.5542C13.6011 18.2452 12.9782 17.6988 12.5747 16.9998C12.1712 16.3008 12.0097 15.4881 12.1151 14.6879C12.2205 13.8877 12.587 13.1446 13.1578 12.5739C13.7285 12.0033 14.4716 11.6368 15.2719 11.5315C16.0721 11.4262 16.8847 11.5878 17.5837 11.9914V8.00023L8.41701 9.52739V16.0843C8.41701 16.1393 8.41243 16.1925 8.40326 16.2438C8.46907 16.9487 8.29989 17.6556 7.92206 18.2543C7.54423 18.853 6.97898 19.3099 6.31438 19.5539C5.64978 19.7978 4.92315 19.8151 4.24771 19.603C3.57226 19.391 2.98593 18.9614 2.58006 18.3813C2.1742 17.8013 1.97159 17.1033 2.00381 16.396C2.03604 15.6888 2.30128 15.0121 2.75821 14.4713C3.21514 13.9306 3.8381 13.5561 4.53004 13.4063C5.22197 13.2566 5.94402 13.3398 6.58368 13.6432V5.86073C6.58363 5.42674 6.73753 5.00681 7.01801 4.67564C7.29849 4.34447 7.68736 4.12353 8.11543 4.05214L17.2821 2.52498C17.5447 2.48118 17.8137 2.4951 18.0703 2.56577C18.327 2.63644 18.5652 2.76215 18.7684 2.93418C18.9715 3.10621 19.1348 3.32042 19.2468 3.56192C19.3588 3.80342 19.4169 4.06643 19.417 4.33264ZM5.20868 15.1676C4.84401 15.1676 4.49427 15.3125 4.23641 15.5704C3.97855 15.8282 3.83368 16.178 3.83368 16.5426C3.83368 16.9073 3.97855 17.2571 4.23641 17.5149C4.49427 17.7728 4.84401 17.9176 5.20868 17.9176C5.57335 17.9176 5.92309 17.7728 6.18095 17.5149C6.43882 17.2571 6.58368 16.9073 6.58368 16.5426C6.58368 16.178 6.43882 15.8282 6.18095 15.5704C5.92309 15.3125 5.57335 15.1676 5.20868 15.1676ZM15.7503 13.3343C15.2641 13.3343 14.7978 13.5275 14.454 13.8713C14.1102 14.2151 13.917 14.6814 13.917 15.1676C13.917 15.6539 14.1102 16.1202 14.454 16.464C14.7978 16.8078 15.2641 17.001 15.7503 17.001C16.2366 17.001 16.7029 16.8078 17.0467 16.464C17.3905 16.1202 17.5837 15.6539 17.5837 15.1676C17.5837 14.6814 17.3905 14.2151 17.0467 13.8713C16.7029 13.5275 16.2366 13.3343 15.7503 13.3343ZM17.5837 4.33264L8.41701 5.86073V7.66931L17.5837 6.14123V4.33264Z" fill="currentColor"/>
</svg>
