<svg width="22" height="23" viewBox="0 0 22 23" fill="none" xmlns="http://www.w3.org/2000/svg">
<path fill-rule="evenodd" clip-rule="evenodd" d="M14.6667 2.33301C14.9098 2.33301 15.1429 2.42958 15.3148 2.60149C15.4868 2.7734 15.5833 3.00656 15.5833 3.24967H17.4167C17.9029 3.24967 18.3692 3.44283 18.713 3.78665C19.0568 4.13046 19.25 4.59678 19.25 5.08301V18.833C19.25 19.3192 19.0568 19.7856 18.713 20.1294C18.3692 20.4732 17.9029 20.6663 17.4167 20.6663H4.58333C4.0971 20.6663 3.63079 20.4732 3.28697 20.1294C2.94315 19.7856 2.75 19.3192 2.75 18.833V5.08301C2.75 4.59678 2.94315 4.13046 3.28697 3.78665C3.63079 3.44283 4.0971 3.24967 4.58333 3.24967H6.41667C6.41667 3.00656 6.51324 2.7734 6.68515 2.60149C6.85706 2.42958 7.09022 2.33301 7.33333 2.33301C7.57645 2.33301 7.80961 2.42958 7.98151 2.60149C8.15342 2.7734 8.25 3.00656 8.25 3.24967H13.75C13.75 3.00656 13.8466 2.7734 14.0185 2.60149C14.1904 2.42958 14.4236 2.33301 14.6667 2.33301ZM6.41667 5.08301C6.41667 5.32612 6.51324 5.55928 6.68515 5.73119C6.85706 5.9031 7.09022 5.99967 7.33333 5.99967C7.57645 5.99967 7.80961 5.9031 7.98151 5.73119C8.15342 5.55928 8.25 5.32612 8.25 5.08301H13.75C13.75 5.32612 13.8466 5.55928 14.0185 5.73119C14.1904 5.9031 14.4236 5.99967 14.6667 5.99967C14.9098 5.99967 15.1429 5.9031 15.3148 5.73119C15.4868 5.55928 15.5833 5.32612 15.5833 5.08301H17.4167V18.833H4.58333V5.08301H6.41667ZM11 8.74967C10.7569 8.74967 10.5237 8.84625 10.3518 9.01816C10.1799 9.19007 10.0833 9.42323 10.0833 9.66634C10.0833 9.90946 10.1799 10.1426 10.3518 10.3145C10.5237 10.4864 10.7569 10.583 11 10.583C11.2431 10.583 11.4763 10.4864 11.6482 10.3145C11.8201 10.1426 11.9167 9.90946 11.9167 9.66634C11.9167 9.42323 11.8201 9.19007 11.6482 9.01816C11.4763 8.84625 11.2431 8.74967 11 8.74967ZM8.25 9.66634C8.25 8.937 8.53973 8.23752 9.05546 7.7218C9.57118 7.20607 10.2707 6.91634 11 6.91634C11.7293 6.91634 12.4288 7.20607 12.9445 7.7218C13.4603 8.23752 13.75 8.937 13.75 9.66634C13.75 10.3957 13.4603 11.0952 12.9445 11.6109C12.4288 12.1266 11.7293 12.4163 11 12.4163C10.2707 12.4163 9.57118 12.1266 9.05546 11.6109C8.53973 11.0952 8.25 10.3957 8.25 9.66634ZM8.20325 16.3727C8.34258 15.9538 8.60658 15.6778 9.03008 15.4853C9.49025 15.2763 10.1429 15.1663 11 15.1663C11.8571 15.1663 12.5098 15.2763 12.9699 15.4853C13.3943 15.6778 13.6574 15.9528 13.7968 16.3727C13.8736 16.6034 14.0389 16.7941 14.2564 16.903C14.4738 17.0118 14.7256 17.0297 14.9563 16.9529C15.187 16.8761 15.3778 16.7108 15.4866 16.4933C15.5954 16.2758 15.6134 16.0241 15.5366 15.7933C15.2176 14.8373 14.5649 14.1965 13.728 13.8161C12.9277 13.4522 11.9763 13.333 11 13.333C10.0238 13.333 9.07225 13.4522 8.272 13.8161C7.436 14.1965 6.78242 14.8373 6.46342 15.7933C6.38659 16.0241 6.40457 16.2758 6.51338 16.4933C6.6222 16.7108 6.81295 16.8761 7.04367 16.9529C7.27438 17.0297 7.52617 17.0118 7.74363 16.903C7.9611 16.7941 8.12643 16.6034 8.20325 16.3727Z" fill="#E28EFF"/>
</svg>
