<svg width="28" height="29" viewBox="0 0 28 29" fill="none" xmlns="http://www.w3.org/2000/svg">
<g clip-path="url(#clip0_251_4927)">
<path fill-rule="evenodd" clip-rule="evenodd" d="M14.6932 27.6339L14.6792 27.6362L14.5964 27.677L14.573 27.6817L14.5567 27.677L14.4739 27.635C14.4614 27.6319 14.4521 27.6342 14.4459 27.642L14.4412 27.6537L14.4214 28.153L14.4272 28.1764L14.4389 28.1915L14.5602 28.2779L14.5777 28.2825L14.5917 28.2779L14.713 28.1915L14.727 28.1729L14.7317 28.153L14.7119 27.6549C14.7088 27.6424 14.7025 27.6354 14.6932 27.6339ZM15.0012 27.502L14.9849 27.5044L14.7702 27.6129L14.7585 27.6245L14.755 27.6374L14.776 28.139L14.7819 28.153L14.7912 28.1624L15.0257 28.2697C15.0405 28.2736 15.0518 28.2705 15.0595 28.2604L15.0642 28.244L15.0245 27.5277C15.0206 27.5129 15.0129 27.5044 15.0012 27.502ZM14.167 27.5044C14.1619 27.5012 14.1557 27.5002 14.1499 27.5015C14.144 27.5028 14.1389 27.5064 14.1355 27.5114L14.1285 27.5277L14.0889 28.244C14.0896 28.258 14.0963 28.2674 14.1087 28.272L14.1262 28.2697L14.3607 28.1612L14.3724 28.1519L14.3759 28.139L14.3969 27.6374L14.3934 27.6234L14.3817 27.6117L14.167 27.5044Z" fill="current"/>
<path fill-rule="evenodd" clip-rule="evenodd" d="M5.83346 10.9997C5.83346 8.83374 6.69387 6.75652 8.22542 5.22497C9.75696 3.69342 11.8342 2.83301 14.0001 2.83301C16.1661 2.83301 18.2433 3.69342 19.7748 5.22497C21.3064 6.75652 22.1668 8.83374 22.1668 10.9997V15.391L24.2925 19.6423C24.3903 19.838 24.4365 20.0555 24.4267 20.274C24.4169 20.4926 24.3513 20.705 24.2363 20.8911C24.1213 21.0772 23.9606 21.2308 23.7695 21.3373C23.5784 21.4438 23.3632 21.4997 23.1445 21.4997H18.5198C18.2603 22.501 17.6756 23.3877 16.8576 24.0208C16.0396 24.6538 15.0345 24.9973 14.0001 24.9973C12.9658 24.9973 11.9607 24.6538 11.1426 24.0208C10.3246 23.3877 9.73997 22.501 9.48046 21.4997H4.85579C4.63701 21.4997 4.42186 21.4438 4.23077 21.3373C4.03967 21.2308 3.87898 21.0772 3.76396 20.8911C3.64893 20.705 3.58339 20.4926 3.57356 20.274C3.56373 20.0555 3.60994 19.838 3.70779 19.6423L5.83346 15.391V10.9997ZM11.9795 21.4997C12.1843 21.8544 12.4788 22.1489 12.8335 22.3537C13.1882 22.5584 13.5906 22.6662 14.0001 22.6662C14.4097 22.6662 14.812 22.5584 15.1667 22.3537C15.5214 22.1489 15.816 21.8544 16.0208 21.4997H11.9795ZM14.0001 5.16634C12.453 5.16634 10.9693 5.78092 9.87533 6.87489C8.78137 7.96885 8.16679 9.45258 8.16679 10.9997V15.391C8.16676 15.7531 8.08249 16.1101 7.92062 16.434L6.55562 19.1663H21.4458L20.0808 16.434C19.9185 16.1102 19.8338 15.7532 19.8335 15.391V10.9997C19.8335 9.45258 19.2189 7.96885 18.1249 6.87489C17.0309 5.78092 15.5472 5.16634 14.0001 5.16634Z" fill="current"/>
</g>
<defs>
<clipPath id="clip0_251_4927">
<rect width="28" height="28" fill="none" transform="translate(0 0.5)"/>
</clipPath>
</defs>
</svg>
