<svg width="100%" height="100%" viewBox="0 0 26 27" fill="none" xmlns="http://www.w3.org/2000/svg">
<path fill="current" d="M6.25077 15.4586V13.4999H8.20835V15.4586H6.25077ZM4.29102 13.4999V11.5413H6.2486V13.4999H4.29102ZM12.9999 6.75077V4.79102H14.9586V6.7486L12.9999 6.75077ZM5.24977 9.70827H9.20827V5.74977H5.24977V9.70827ZM4.2921 10.667V4.79102H10.1659V10.6659L4.2921 10.667ZM5.24977 21.2501H9.3751V17.2916H5.24977V21.2501ZM4.2921 22.2078V16.3339H10.3338V22.2088L4.2921 22.2078ZM16.7916 9.70827H20.7501V5.74977H16.7916V9.70827ZM15.8328 10.667V4.79102H21.7088V10.6659L15.8328 10.667ZM10.167 15.4586V13.4999H8.20835V11.5413H12.1246V15.4586H10.167ZM11.0413 10.6659V6.75077H12.9999V8.70943H14.9586V10.6681L11.0413 10.6659ZM6.54327 8.41693V7.0411H7.91802V8.41693H6.54327ZM6.68843 19.8125V18.4367H8.06427V19.8125H6.68843ZM18.0851 8.41585V7.04218H19.4598V8.41802L18.0851 8.41585ZM17.3755 22.2078V18.9578H14.1255V17.8744H17.3755V14.6244H18.4588V17.8744H21.7088V18.9578H18.4588V22.2078H17.3755Z"/>
</svg>
