<svg width="25" height="25" viewBox="0 0 25 25" fill="none" xmlns="http://www.w3.org/2000/svg">
<path fill-rule="evenodd" clip-rule="evenodd" d="M10.9374 2.0835C9.52551 2.08362 8.13413 2.42138 6.87933 3.06859C5.62453 3.71581 4.5427 4.65372 3.7241 5.80407C2.9055 6.95442 2.37387 8.28386 2.17355 9.68146C1.97324 11.0791 2.11005 12.5043 2.57258 13.8383C3.03511 15.1722 3.80995 16.3763 4.83244 17.3499C5.85493 18.3235 7.09542 19.0385 8.45043 19.4352C9.80544 19.8319 11.2357 19.8988 12.6218 19.6303C14.0079 19.3618 15.3097 18.7657 16.4186 17.8918L20.2228 21.696C20.4193 21.8857 20.6824 21.9907 20.9555 21.9884C21.2286 21.986 21.4899 21.8764 21.683 21.6833C21.8762 21.4902 21.9857 21.2289 21.9881 20.9558C21.9905 20.6827 21.8855 20.4195 21.6957 20.2231L17.8916 16.4189C18.9207 15.1133 19.5615 13.5443 19.7406 11.8915C19.9197 10.2388 19.6299 8.56893 18.9043 7.07318C18.1787 5.57742 17.0467 4.31616 15.6377 3.43374C14.2288 2.55132 12.5999 2.08338 10.9374 2.0835ZM4.16656 10.9377C4.16656 9.14193 4.87992 7.41974 6.1497 6.14996C7.41947 4.88018 9.14166 4.16683 10.9374 4.16683C12.7331 4.16683 14.4553 4.88018 15.7251 6.14996C16.9949 7.41974 17.7082 9.14193 17.7082 10.9377C17.7082 12.7334 16.9949 14.4556 15.7251 15.7254C14.4553 16.9951 12.7331 17.7085 10.9374 17.7085C9.14166 17.7085 7.41947 16.9951 6.1497 15.7254C4.87992 14.4556 4.16656 12.7334 4.16656 10.9377Z" fill="#E28EFF"/>
</svg>
