<svg width="100%" height="100%" viewBox="0 0 27 27" fill="none" xmlns="http://www.w3.org/2000/svg">
<path d="M19.0884 7.914C18.666 7.4914 18.4186 6.92491 18.3958 6.32781C18.373 5.7307 18.5765 5.14701 18.9655 4.69345C18.9977 4.65573 19.0144 4.60724 19.0124 4.5577C19.0103 4.50817 18.9896 4.46124 18.9543 4.42634L16.7134 2.18283C16.6763 2.1458 16.6261 2.125 16.5737 2.125C16.5213 2.125 16.4711 2.1458 16.4341 2.18283L12.8621 5.75478C12.7303 5.88651 12.631 6.04717 12.5722 6.224C12.5135 6.40121 12.4143 6.56232 12.2826 6.69454C12.1508 6.82676 11.99 6.92645 11.813 6.98572C11.6361 7.04467 11.4753 7.14393 11.3433 7.27568L2.18283 16.4341C2.1458 16.4711 2.125 16.5213 2.125 16.5737C2.125 16.6261 2.1458 16.6763 2.18283 16.7134L4.4238 18.9543C4.4587 18.9896 4.50563 19.0103 4.55516 19.0124C4.6047 19.0144 4.65319 18.9977 4.69091 18.9655C5.14437 18.5761 5.7282 18.3723 6.32551 18.3949C6.92282 18.4176 7.48953 18.665 7.91219 19.0877C8.33486 19.5103 8.58228 20.0771 8.60493 20.6744C8.62758 21.2717 8.42379 21.8555 8.03435 22.309C8.00217 22.3467 7.98545 22.3952 7.98752 22.4447C7.98959 22.4942 8.01031 22.5412 8.04552 22.5761L10.2865 24.817C10.3235 24.8541 10.3738 24.8749 10.4261 24.8749C10.4785 24.8749 10.5288 24.8541 10.5658 24.817L19.7267 15.6566C19.8585 15.5246 19.9577 15.3638 20.0167 15.1869C20.0754 15.0097 20.1745 14.8486 20.3063 14.7163C20.4381 14.5841 20.5989 14.4844 20.7759 14.4252C20.9527 14.3663 21.1134 14.267 21.2451 14.1352L24.817 10.5633C24.8541 10.5262 24.8749 10.476 24.8749 10.4236C24.8749 10.3712 24.8541 10.321 24.817 10.284L22.5761 8.04298C22.5412 8.00777 22.4942 7.98705 22.4447 7.98498C22.3952 7.98291 22.3467 7.99963 22.309 8.03181C21.856 8.42149 21.2727 8.62584 20.6756 8.604C20.0785 8.58216 19.5117 8.33573 19.0884 7.914Z" stroke="current" stroke-width="1.25" stroke-miterlimit="10"/>
<path d="M13.2202 7.63186L12.3818 6.79346M15.4556 9.86725L14.8965 9.30865M17.691 12.1031L17.1324 11.544M20.2062 14.6178L19.3678 13.7794" stroke="current" stroke-width="1.25" stroke-miterlimit="10" stroke-linecap="round"/>
</svg>
