<svg width="26" height="27" viewBox="0 0 26 27" fill="none" xmlns="http://www.w3.org/2000/svg">
<path d="M18.5884 7.914C18.166 7.4914 17.9186 6.92491 17.8958 6.32781C17.873 5.7307 18.0765 5.14701 18.4655 4.69345C18.4977 4.65573 18.5144 4.60724 18.5124 4.5577C18.5103 4.50817 18.4896 4.46124 18.4543 4.42634L16.2134 2.18283C16.1763 2.1458 16.1261 2.125 16.0737 2.125C16.0213 2.125 15.9711 2.1458 15.9341 2.18283L12.3621 5.75478C12.2303 5.88651 12.131 6.04717 12.0722 6.224C12.0135 6.40121 11.9143 6.56232 11.7826 6.69454C11.6508 6.82676 11.49 6.92645 11.313 6.98572C11.1361 7.04467 10.9753 7.14393 10.8433 7.27568L1.68283 16.4341C1.6458 16.4711 1.625 16.5213 1.625 16.5737C1.625 16.6261 1.6458 16.6763 1.68283 16.7134L3.9238 18.9543C3.9587 18.9896 4.00563 19.0103 4.05516 19.0124C4.1047 19.0144 4.15319 18.9977 4.19091 18.9655C4.64437 18.5761 5.2282 18.3723 5.82551 18.3949C6.42282 18.4176 6.98953 18.665 7.41219 19.0877C7.83486 19.5103 8.08228 20.0771 8.10493 20.6744C8.12758 21.2717 7.92379 21.8555 7.53435 22.309C7.50217 22.3467 7.48545 22.3952 7.48752 22.4447C7.48959 22.4942 7.51031 22.5412 7.54552 22.5761L9.7865 24.817C9.82354 24.8541 9.87377 24.8749 9.92615 24.8749C9.97852 24.8749 10.0288 24.8541 10.0658 24.817L19.2267 15.6566C19.3585 15.5246 19.4577 15.3638 19.5167 15.1869C19.5754 15.0097 19.6745 14.8486 19.8063 14.7163C19.9381 14.5841 20.0989 14.4844 20.2759 14.4252C20.4527 14.3663 20.6134 14.267 20.7451 14.1352L24.317 10.5633C24.3541 10.5262 24.3749 10.476 24.3749 10.4236C24.3749 10.3712 24.3541 10.321 24.317 10.284L22.0761 8.04298C22.0412 8.00777 21.9942 7.98705 21.9447 7.98498C21.8952 7.98291 21.8467 7.99963 21.809 8.03181C21.356 8.42149 20.7727 8.62584 20.1756 8.604C19.5785 8.58216 19.0117 8.33573 18.5884 7.914Z" stroke="white" stroke-width="1.25" stroke-miterlimit="10"/>
<path d="M12.7207 7.63137L11.8823 6.79297M14.9561 9.86676L14.397 9.30816M17.1915 12.1027L16.6329 11.5436M19.7067 14.6173L18.8683 13.7789" stroke="white" stroke-width="1.25" stroke-miterlimit="10" stroke-linecap="round"/>
</svg>
