<svg width="19" height="19" viewBox="0 0 19 19" fill="none" xmlns="http://www.w3.org/2000/svg">
<path fill-rule="evenodd" clip-rule="evenodd" d="M8.06047 1.58313C8.11413 1.82016 8.07147 2.0688 7.94186 2.27439C7.81225 2.47997 7.6063 2.62567 7.3693 2.67946C7.18943 2.72039 7.01116 2.76809 6.83488 2.82246C6.71986 2.85797 6.59897 2.87048 6.47912 2.85927C6.35926 2.84807 6.24279 2.81336 6.13634 2.75714C6.0299 2.70092 5.93557 2.62428 5.85875 2.5316C5.78192 2.43893 5.7241 2.33203 5.68859 2.217C5.65308 2.10198 5.64057 1.98109 5.65178 1.86124C5.66299 1.74138 5.6977 1.62491 5.75392 1.51846C5.81014 1.41202 5.88678 1.31769 5.97945 1.24087C6.07213 1.16404 6.17903 1.10622 6.29405 1.07071C6.51405 1.00227 6.73711 0.942684 6.96322 0.891962C7.08065 0.865257 7.20219 0.861953 7.3209 0.88224C7.43961 0.902526 7.55316 0.946004 7.65506 1.01019C7.75695 1.07438 7.84521 1.15801 7.91477 1.25632C7.98433 1.35463 8.03384 1.46568 8.06047 1.58313ZM9.93963 1.58313C9.99342 1.34613 10.1391 1.14018 10.3447 1.01057C10.5503 0.880965 10.7989 0.838301 11.036 0.891962C15.1188 1.8178 18.1676 5.46796 18.1676 9.8313C18.1676 14.894 14.0628 18.998 9.00097 18.998C4.63672 18.998 0.986551 15.95 0.0607178 11.8672C0.0131964 11.6325 0.0593901 11.3886 0.189419 11.1875C0.319448 10.9864 0.52299 10.8442 0.756513 10.7913C0.990036 10.7384 1.235 10.7789 1.43902 10.9043C1.64303 11.0296 1.7899 11.2298 1.84822 11.462C2.13992 12.7397 2.76864 13.9158 3.66899 14.868C4.56934 15.8202 5.70841 16.5138 6.96769 16.8765C8.22697 17.2393 9.56045 17.2579 10.8294 16.9306C12.0983 16.6032 13.2564 15.9418 14.183 15.0152C15.1097 14.0885 15.7711 12.9305 16.0984 11.6616C16.4258 10.3926 16.4071 9.05913 16.0444 7.79985C15.6816 6.54057 14.9881 5.4015 14.0358 4.50115C13.0836 3.60081 11.9075 2.97208 10.6299 2.68038C10.3929 2.6264 10.187 2.48047 10.0575 2.2747C9.92808 2.06893 9.88567 1.82017 9.93963 1.58313ZM4.06288 3.15796C4.14486 3.24623 4.20864 3.34979 4.25057 3.46272C4.2925 3.57565 4.31176 3.69574 4.30725 3.81612C4.30273 3.93649 4.27454 4.0548 4.22427 4.16428C4.17401 4.27375 4.10266 4.37225 4.0143 4.45413C3.87863 4.57941 3.74816 4.70957 3.62288 4.84463C3.45636 5.0179 3.22846 5.11884 2.98824 5.12573C2.74803 5.13262 2.51471 5.04491 2.33853 4.88147C2.16235 4.71803 2.0574 4.49194 2.04628 4.25188C2.03515 4.01182 2.11874 3.777 2.27905 3.59796C2.43488 3.4293 2.59744 3.26643 2.76672 3.10938C2.85498 3.0274 2.95854 2.96362 3.07147 2.92169C3.1844 2.87976 3.30449 2.8605 3.42487 2.86502C3.54525 2.86953 3.66356 2.89772 3.77303 2.94799C3.88251 2.99826 3.981 3.06961 4.06288 3.15796ZM9.00005 4.3313C9.24317 4.3313 9.47632 4.42787 9.64823 4.59978C9.82014 4.77169 9.91672 5.00485 9.91672 5.24796V9.4518L12.3981 11.9332C12.5651 12.1061 12.6575 12.3376 12.6554 12.578C12.6533 12.8183 12.5569 13.0483 12.387 13.2182C12.217 13.3882 11.9871 13.4846 11.7468 13.4867C11.5064 13.4888 11.2749 13.3964 11.102 13.2294L8.35197 10.4794C8.18005 10.3075 8.08344 10.0744 8.08338 9.8313V5.24796C8.08338 5.00485 8.17996 4.77169 8.35187 4.59978C8.52378 4.42787 8.75694 4.3313 9.00005 4.3313ZM1.3853 6.5203C1.61758 6.59192 1.81189 6.75287 1.92552 6.96775C2.03915 7.18262 2.06278 7.43383 1.99122 7.66613C1.93685 7.84241 1.88915 8.02067 1.84822 8.20055C1.7899 8.43278 1.64303 8.63298 1.43902 8.75833C1.235 8.88368 0.990036 8.92422 0.756513 8.87129C0.52299 8.81836 0.319448 8.67615 0.189419 8.47509C0.0593901 8.27402 0.0131964 8.03006 0.0607178 7.79538C0.112051 7.56927 0.171635 7.34621 0.239468 7.12621C0.311096 6.89394 0.472045 6.69962 0.686921 6.58599C0.901797 6.47237 1.153 6.44873 1.3853 6.5203Z" fill="#C090FF"/>
</svg>
