<svg width="30" height="30" viewBox="0 0 30 30" fill="none" xmlns="http://www.w3.org/2000/svg">
<path d="M14.9677 3.62891C12.6771 3.62891 10.438 4.30815 8.53339 5.58074C6.62883 6.85333 5.1444 8.66211 4.26782 10.7783C3.39125 12.8946 3.1619 15.2232 3.60877 17.4698C4.05564 19.7164 5.15867 21.78 6.77837 23.3997C8.39807 25.0194 10.4617 26.1225 12.7083 26.5693C14.9549 27.0162 17.2835 26.7869 19.3998 25.9103C21.516 25.0337 23.3248 23.5493 24.5974 21.6447C25.87 19.7402 26.5492 17.501 26.5492 15.2104C26.546 12.1398 25.3247 9.19587 23.1535 7.02463C20.9822 4.85338 18.0383 3.63215 14.9677 3.62891ZM14.0768 9.86509C14.0768 9.62881 14.1707 9.40221 14.3378 9.23514C14.5048 9.06807 14.7314 8.97421 14.9677 8.97421C15.204 8.97421 15.4306 9.06807 15.5977 9.23514C15.7647 9.40221 15.8586 9.62881 15.8586 9.86509V16.1013C15.8586 16.3376 15.7647 16.5641 15.5977 16.7312C15.4306 16.8983 15.204 16.9922 14.9677 16.9922C14.7314 16.9922 14.5048 16.8983 14.3378 16.7312C14.1707 16.5641 14.0768 16.3376 14.0768 16.1013V9.86509ZM14.9677 21.4466C14.7034 21.4466 14.4451 21.3682 14.2253 21.2214C14.0055 21.0745 13.8343 20.8658 13.7331 20.6216C13.632 20.3775 13.6055 20.1088 13.6571 19.8495C13.7086 19.5903 13.8359 19.3522 14.0228 19.1653C14.2097 18.9784 14.4478 18.8512 14.707 18.7996C14.9662 18.748 15.2349 18.7745 15.4791 18.8756C15.7233 18.9768 15.932 19.1481 16.0788 19.3678C16.2257 19.5876 16.304 19.8459 16.304 20.1102C16.304 20.4647 16.1633 20.8046 15.9126 21.0552C15.662 21.3058 15.3221 21.4466 14.9677 21.4466Z" fill="currentColor"/>
</svg>
