<?xml version="1.0" encoding="UTF-8"?>
<!DOCTYPE svg PUBLIC "-//W3C//DTD SVG 1.1//EN" "http://www.w3.org/Graphics/SVG/1.1/DTD/svg11.dtd">
<svg xmlns="http://www.w3.org/2000/svg" version="1.1" width="512px" height="512px" style="shape-rendering:geometricPrecision; text-rendering:geometricPrecision; image-rendering:optimizeQuality; fill-rule:evenodd; clip-rule:evenodd" xmlns:xlink="http://www.w3.org/1999/xlink">
<g><path style="opacity:0.329" fill="#89898f" d="M 243.5,-0.5 C 243.833,-0.5 244.167,-0.5 244.5,-0.5C 244.5,47.5 244.5,95.5 244.5,143.5C 255.5,143.5 266.5,143.5 277.5,143.5C 277.5,143.833 277.5,144.167 277.5,144.5C 266.5,144.5 255.5,144.5 244.5,144.5C 233.5,144.5 222.5,144.5 211.5,144.5C 211.167,144.5 210.833,144.5 210.5,144.5C 221.321,143.505 232.321,143.172 243.5,143.5C 243.5,95.5 243.5,47.5 243.5,-0.5 Z"/></g>
<g><path style="opacity:1" fill="#000000" d="M 244.5,-0.5 C 277.833,-0.5 311.167,-0.5 344.5,-0.5C 344.5,10.5 344.5,21.5 344.5,32.5C 322.167,32.5 299.833,32.5 277.5,32.5C 277.5,69.5 277.5,106.5 277.5,143.5C 266.5,143.5 255.5,143.5 244.5,143.5C 244.5,95.5 244.5,47.5 244.5,-0.5 Z"/></g>
<g><path style="opacity:1" fill="#fefefe" d="M 344.5,33.5 C 344.5,44.5 344.5,55.5 344.5,66.5C 322.5,66.5 300.5,66.5 278.5,66.5C 278.5,55.5 278.5,44.5 278.5,33.5C 300.5,33.5 322.5,33.5 344.5,33.5 Z"/></g>
<g><path style="opacity:1" fill="#000000" d="M 344.5,33.5 C 355.5,33.5 366.5,33.5 377.5,33.5C 377.168,81.6696 377.501,129.67 378.5,177.5C 411.5,177.5 444.5,177.5 477.5,177.5C 477.5,188.5 477.5,199.5 477.5,210.5C 433.167,210.5 388.833,210.5 344.5,210.5C 344.5,162.5 344.5,114.5 344.5,66.5C 344.5,55.5 344.5,44.5 344.5,33.5 Z"/></g>
<g><path style="opacity:1" fill="#aaaab2" d="M 344.5,32.5 C 344.5,32.8333 344.5,33.1667 344.5,33.5C 322.5,33.5 300.5,33.5 278.5,33.5C 278.5,44.5 278.5,55.5 278.5,66.5C 278.831,92.672 278.498,118.672 277.5,144.5C 277.5,144.167 277.5,143.833 277.5,143.5C 277.5,106.5 277.5,69.5 277.5,32.5C 299.833,32.5 322.167,32.5 344.5,32.5 Z"/></g>
<g><path style="opacity:1" fill="#dfe2f9" d="M 278.5,66.5 C 300.5,66.5 322.5,66.5 344.5,66.5C 344.5,114.5 344.5,162.5 344.5,210.5C 388.664,211.499 432.997,211.832 477.5,211.5C 477.5,226.167 477.5,240.833 477.5,255.5C 455.5,255.5 433.5,255.5 411.5,255.5C 411.5,266.5 411.5,277.5 411.5,288.5C 433.327,289.497 455.327,289.831 477.5,289.5C 477.5,304.167 477.5,318.833 477.5,333.5C 455.5,333.5 433.5,333.5 411.5,333.5C 411.5,344.5 411.5,355.5 411.5,366.5C 433.327,367.497 455.327,367.831 477.5,367.5C 477.5,381.833 477.5,396.167 477.5,410.5C 455.327,410.169 433.327,410.503 411.5,411.5C 411.5,422.5 411.5,433.5 411.5,444.5C 422.5,444.5 433.5,444.5 444.5,444.5C 444.5,455.5 444.5,466.5 444.5,477.5C 355.5,477.5 266.5,477.5 177.5,477.5C 177.5,466.5 177.5,455.5 177.5,444.5C 166.5,444.5 155.5,444.5 144.5,444.5C 144.5,400.167 144.5,355.833 144.5,311.5C 155.5,311.5 166.5,311.5 177.5,311.5C 177.5,300.5 177.5,289.5 177.5,278.5C 166.5,278.5 155.5,278.5 144.5,278.5C 155.321,277.505 166.321,277.172 177.5,277.5C 188.5,277.5 199.5,277.5 210.5,277.5C 210.5,266.5 210.5,255.5 210.5,244.5C 210.833,244.5 211.167,244.5 211.5,244.5C 222.5,244.5 233.5,244.5 244.5,244.5C 244.5,233.5 244.5,222.5 244.5,211.5C 244.5,211.167 244.5,210.833 244.5,210.5C 244.5,199.5 244.5,188.5 244.5,177.5C 255.5,177.5 266.5,177.5 277.5,177.5C 277.5,166.5 277.5,155.5 277.5,144.5C 278.498,118.672 278.831,92.672 278.5,66.5 Z"/></g>
<g><path style="opacity:0.686" fill="#606168" d="M 344.5,-0.5 C 344.833,-0.5 345.167,-0.5 345.5,-0.5C 345.5,10.5 345.5,21.5 345.5,32.5C 356.5,32.5 367.5,32.5 378.5,32.5C 378.5,80.8333 378.5,129.167 378.5,177.5C 377.501,129.67 377.168,81.6696 377.5,33.5C 366.5,33.5 355.5,33.5 344.5,33.5C 344.5,33.1667 344.5,32.8333 344.5,32.5C 344.5,21.5 344.5,10.5 344.5,-0.5 Z"/></g>
<g><path style="opacity:1" fill="#010101" d="M 211.5,144.5 C 222.5,144.5 233.5,144.5 244.5,144.5C 244.5,155.5 244.5,166.5 244.5,177.5C 244.5,188.5 244.5,199.5 244.5,210.5C 233.5,210.5 222.5,210.5 211.5,210.5C 211.5,188.5 211.5,166.5 211.5,144.5 Z"/></g>
<g><path style="opacity:1" fill="#fefffe" d="M 244.5,144.5 C 255.5,144.5 266.5,144.5 277.5,144.5C 277.5,155.5 277.5,166.5 277.5,177.5C 266.5,177.5 255.5,177.5 244.5,177.5C 244.5,166.5 244.5,155.5 244.5,144.5 Z"/></g>
<g><path style="opacity:1" fill="#767678" d="M 210.5,144.5 C 210.833,144.5 211.167,144.5 211.5,144.5C 211.5,166.5 211.5,188.5 211.5,210.5C 222.5,210.5 233.5,210.5 244.5,210.5C 244.5,210.833 244.5,211.167 244.5,211.5C 233.5,211.5 222.5,211.5 211.5,211.5C 211.5,222.5 211.5,233.5 211.5,244.5C 211.167,244.5 210.833,244.5 210.5,244.5C 210.5,233.5 210.5,222.5 210.5,211.5C 199.5,211.5 188.5,211.5 177.5,211.5C 188.321,210.505 199.321,210.172 210.5,210.5C 210.5,188.5 210.5,166.5 210.5,144.5 Z"/></g>
<g><path style="opacity:1" fill="#6c6d78" d="M 477.5,177.5 C 478.495,188.321 478.828,199.321 478.5,210.5C 489.5,210.5 500.5,210.5 511.5,210.5C 511.5,210.833 511.5,211.167 511.5,211.5C 500.5,211.5 489.5,211.5 478.5,211.5C 478.829,226.343 478.496,241.01 477.5,255.5C 477.5,240.833 477.5,226.167 477.5,211.5C 432.997,211.832 388.664,211.499 344.5,210.5C 388.833,210.5 433.167,210.5 477.5,210.5C 477.5,199.5 477.5,188.5 477.5,177.5 Z"/></g>
<g><path style="opacity:1" fill="#161719" d="M 177.5,211.5 C 188.5,211.5 199.5,211.5 210.5,211.5C 210.5,222.5 210.5,233.5 210.5,244.5C 199.5,244.5 188.5,244.5 177.5,244.5C 118.167,244.5 58.8333,244.5 -0.5,244.5C -0.5,244.167 -0.5,243.833 -0.5,243.5C 58.8333,243.5 118.167,243.5 177.5,243.5C 177.5,232.833 177.5,222.167 177.5,211.5 Z"/></g>
<g><path style="opacity:1" fill="#fefefe" d="M 244.5,211.5 C 244.5,222.5 244.5,233.5 244.5,244.5C 233.5,244.5 222.5,244.5 211.5,244.5C 211.5,233.5 211.5,222.5 211.5,211.5C 222.5,211.5 233.5,211.5 244.5,211.5 Z"/></g>
<g><path style="opacity:1" fill="#000000" d="M 511.5,211.5 C 511.5,278.167 511.5,344.833 511.5,411.5C 500.5,411.5 489.5,411.5 478.5,411.5C 478.5,396.5 478.5,381.5 478.5,366.5C 456.167,366.5 433.833,366.5 411.5,366.5C 411.5,355.5 411.5,344.5 411.5,333.5C 433.5,333.5 455.5,333.5 477.5,333.5C 478.496,318.676 478.829,303.676 478.5,288.5C 456.167,288.5 433.833,288.5 411.5,288.5C 411.5,277.5 411.5,266.5 411.5,255.5C 433.5,255.5 455.5,255.5 477.5,255.5C 478.496,241.01 478.829,226.343 478.5,211.5C 489.5,211.5 500.5,211.5 511.5,211.5 Z"/></g>
<g><path style="opacity:1" fill="#010103" d="M -0.5,244.5 C 58.8333,244.5 118.167,244.5 177.5,244.5C 177.5,255.5 177.5,266.5 177.5,277.5C 166.321,277.172 155.321,277.505 144.5,278.5C 144.5,289.5 144.5,300.5 144.5,311.5C 144.5,355.833 144.5,400.167 144.5,444.5C 155.5,444.5 166.5,444.5 177.5,444.5C 177.5,455.5 177.5,466.5 177.5,477.5C 177.5,477.833 177.5,478.167 177.5,478.5C 118.167,478.5 58.8333,478.5 -0.5,478.5C -0.5,400.5 -0.5,322.5 -0.5,244.5 Z"/></g>
<g><path style="opacity:1" fill="#fefefe" d="M 177.5,244.5 C 188.5,244.5 199.5,244.5 210.5,244.5C 210.5,255.5 210.5,266.5 210.5,277.5C 199.5,277.5 188.5,277.5 177.5,277.5C 177.5,266.5 177.5,255.5 177.5,244.5 Z"/></g>
<g><path style="opacity:1" fill="#b2bbc9" d="M 110.5,278.5 C 84.8333,278.5 59.1667,278.5 33.5,278.5C 33.5,289.167 33.5,299.833 33.5,310.5C 59.1667,310.5 84.8333,310.5 110.5,310.5C 110.5,310.833 110.5,311.167 110.5,311.5C 84.5,311.5 58.5,311.5 32.5,311.5C 32.5,300.167 32.5,288.833 32.5,277.5C 58.672,277.169 84.672,277.502 110.5,278.5 Z"/></g>
<g><path style="opacity:1" fill="#fefffe" d="M 110.5,278.5 C 110.5,289.167 110.5,299.833 110.5,310.5C 84.8333,310.5 59.1667,310.5 33.5,310.5C 33.5,299.833 33.5,289.167 33.5,278.5C 59.1667,278.5 84.8333,278.5 110.5,278.5 Z"/></g>
<g><path style="opacity:1" fill="#fefefe" d="M 144.5,278.5 C 155.5,278.5 166.5,278.5 177.5,278.5C 177.5,289.5 177.5,300.5 177.5,311.5C 166.5,311.5 155.5,311.5 144.5,311.5C 144.5,300.5 144.5,289.5 144.5,278.5 Z"/></g>
<g><path style="opacity:1" fill="#848593" d="M 411.5,288.5 C 433.833,288.5 456.167,288.5 478.5,288.5C 478.829,303.676 478.496,318.676 477.5,333.5C 477.5,318.833 477.5,304.167 477.5,289.5C 455.327,289.831 433.327,289.497 411.5,288.5 Z"/></g>
<g><path style="opacity:1" fill="#006cf1" d="M 32.5,311.5 C 58.5,311.5 84.5,311.5 110.5,311.5C 110.5,355.833 110.5,400.167 110.5,444.5C 84.5,444.5 58.5,444.5 32.5,444.5C 32.5,400.167 32.5,355.833 32.5,311.5 Z"/></g>
<g><path style="opacity:1" fill="#9c9eae" d="M 411.5,366.5 C 433.833,366.5 456.167,366.5 478.5,366.5C 478.5,381.5 478.5,396.5 478.5,411.5C 478.167,411.5 477.833,411.5 477.5,411.5C 455.5,411.5 433.5,411.5 411.5,411.5C 433.327,410.503 455.327,410.169 477.5,410.5C 477.5,396.167 477.5,381.833 477.5,367.5C 455.327,367.831 433.327,367.497 411.5,366.5 Z"/></g>
<g><path style="opacity:1" fill="#000000" d="M 411.5,411.5 C 433.5,411.5 455.5,411.5 477.5,411.5C 477.5,433.5 477.5,455.5 477.5,477.5C 466.833,477.5 456.167,477.5 445.5,477.5C 445.167,477.5 444.833,477.5 444.5,477.5C 444.5,466.5 444.5,455.5 444.5,444.5C 433.5,444.5 422.5,444.5 411.5,444.5C 411.5,433.5 411.5,422.5 411.5,411.5 Z"/></g>
<g><path style="opacity:0.835" fill="#404148" d="M 477.5,411.5 C 477.833,411.5 478.167,411.5 478.5,411.5C 478.5,433.833 478.5,456.167 478.5,478.5C 467.5,478.5 456.5,478.5 445.5,478.5C 445.5,478.167 445.5,477.833 445.5,477.5C 456.167,477.5 466.833,477.5 477.5,477.5C 477.5,455.5 477.5,433.5 477.5,411.5 Z"/></g>
<g><path style="opacity:1" fill="#818290" d="M 177.5,478.5 C 177.5,478.167 177.5,477.833 177.5,477.5C 266.5,477.5 355.5,477.5 444.5,477.5C 444.833,477.5 445.167,477.5 445.5,477.5C 445.5,477.833 445.5,478.167 445.5,478.5C 445.5,489.5 445.5,500.5 445.5,511.5C 445.167,511.5 444.833,511.5 444.5,511.5C 444.5,500.5 444.5,489.5 444.5,478.5C 355.5,478.5 266.5,478.5 177.5,478.5 Z"/></g>
<g><path style="opacity:1" fill="#000000" d="M 177.5,478.5 C 266.5,478.5 355.5,478.5 444.5,478.5C 444.5,489.5 444.5,500.5 444.5,511.5C 355.5,511.5 266.5,511.5 177.5,511.5C 177.5,500.5 177.5,489.5 177.5,478.5 Z"/></g>
</svg>
