<?xml version="1.0" encoding="UTF-8"?>
<!DOCTYPE svg PUBLIC "-//W3C//DTD SVG 1.1//EN" "http://www.w3.org/Graphics/SVG/1.1/DTD/svg11.dtd">
<svg xmlns="http://www.w3.org/2000/svg" version="1.1" width="512px" height="512px" style="shape-rendering:geometricPrecision; text-rendering:geometricPrecision; image-rendering:optimizeQuality; fill-rule:evenodd; clip-rule:evenodd" xmlns:xlink="http://www.w3.org/1999/xlink">
<g><path style="opacity:1" fill="#000000" d="M 233.5,-0.5 C 248.167,-0.5 262.833,-0.5 277.5,-0.5C 277.5,10.5 277.5,21.5 277.5,32.5C 262.833,32.5 248.167,32.5 233.5,32.5C 233.5,21.5 233.5,10.5 233.5,-0.5 Z"/></g>
<g><path style="opacity:0.961" fill="#69675c" d="M 232.5,-0.5 C 232.833,-0.5 233.167,-0.5 233.5,-0.5C 233.5,10.5 233.5,21.5 233.5,32.5C 248.167,32.5 262.833,32.5 277.5,32.5C 277.5,32.8333 277.5,33.1667 277.5,33.5C 262.833,33.5 248.167,33.5 233.5,33.5C 233.5,44.5 233.5,55.5 233.5,66.5C 233.5,73.8333 233.5,81.1667 233.5,88.5C 233.167,88.5 232.833,88.5 232.5,88.5C 232.5,70.1667 232.5,51.8333 232.5,33.5C 221.833,33.5 211.167,33.5 200.5,33.5C 200.5,51.8333 200.5,70.1667 200.5,88.5C 200.5,99.5 200.5,110.5 200.5,121.5C 200.167,121.5 199.833,121.5 199.5,121.5C 199.5,110.5 199.5,99.5 199.5,88.5C 199.5,69.8333 199.5,51.1667 199.5,32.5C 210.5,32.5 221.5,32.5 232.5,32.5C 232.5,21.5 232.5,10.5 232.5,-0.5 Z"/></g>
<g><path style="opacity:1" fill="#000000" d="M 232.5,88.5 C 221.833,88.5 211.167,88.5 200.5,88.5C 200.5,70.1667 200.5,51.8333 200.5,33.5C 211.167,33.5 221.833,33.5 232.5,33.5C 232.5,51.8333 232.5,70.1667 232.5,88.5 Z"/></g>
<g><path style="opacity:1" fill="#fffefd" d="M 277.5,33.5 C 277.5,44.5 277.5,55.5 277.5,66.5C 262.833,66.5 248.167,66.5 233.5,66.5C 233.5,55.5 233.5,44.5 233.5,33.5C 248.167,33.5 262.833,33.5 277.5,33.5 Z"/></g>
<g><path style="opacity:0.961" fill="#585446" d="M 277.5,-0.5 C 277.833,-0.5 278.167,-0.5 278.5,-0.5C 278.5,10.5 278.5,21.5 278.5,32.5C 289.5,32.5 300.5,32.5 311.5,32.5C 311.5,51.1667 311.5,69.8333 311.5,88.5C 311.167,88.5 310.833,88.5 310.5,88.5C 310.5,70.1667 310.5,51.8333 310.5,33.5C 299.833,33.5 289.167,33.5 278.5,33.5C 278.5,51.8333 278.5,70.1667 278.5,88.5C 278.167,88.5 277.833,88.5 277.5,88.5C 277.5,81.1667 277.5,73.8333 277.5,66.5C 277.5,55.5 277.5,44.5 277.5,33.5C 277.5,33.1667 277.5,32.8333 277.5,32.5C 277.5,21.5 277.5,10.5 277.5,-0.5 Z"/></g>
<g><path style="opacity:1" fill="#000000" d="M 310.5,88.5 C 299.833,88.5 289.167,88.5 278.5,88.5C 278.5,70.1667 278.5,51.8333 278.5,33.5C 289.167,33.5 299.833,33.5 310.5,33.5C 310.5,51.8333 310.5,70.1667 310.5,88.5 Z"/></g>
<g><path style="opacity:1" fill="#fedd45" d="M 233.5,66.5 C 248.167,66.5 262.833,66.5 277.5,66.5C 277.5,73.8333 277.5,81.1667 277.5,88.5C 277.5,99.5 277.5,110.5 277.5,121.5C 288.321,122.495 299.321,122.828 310.5,122.5C 310.171,137.343 310.504,152.01 311.5,166.5C 322.5,166.5 333.5,166.5 344.5,166.5C 344.5,177.5 344.5,188.5 344.5,199.5C 355.321,200.495 366.321,200.828 377.5,200.5C 377.172,211.679 377.505,222.679 378.5,233.5C 411.5,233.5 444.5,233.5 477.5,233.5C 477.5,240.833 477.5,248.167 477.5,255.5C 466.833,255.5 456.167,255.5 445.5,255.5C 444.505,266.321 444.172,277.321 444.5,288.5C 433.321,288.172 422.321,288.505 411.5,289.5C 411.5,352.167 411.5,414.833 411.5,477.5C 392.833,477.5 374.167,477.5 355.5,477.5C 355.5,466.833 355.5,456.167 355.5,445.5C 337.341,444.503 319.008,444.17 300.5,444.5C 300.828,433.321 300.495,422.321 299.5,411.5C 270.167,411.5 240.833,411.5 211.5,411.5C 210.505,422.321 210.172,433.321 210.5,444.5C 191.992,444.17 173.659,444.503 155.5,445.5C 155.5,456.167 155.5,466.833 155.5,477.5C 136.833,477.5 118.167,477.5 99.5,477.5C 99.5,414.833 99.5,352.167 99.5,289.5C 88.6794,288.505 77.6794,288.172 66.5,288.5C 66.8279,277.321 66.4946,266.321 65.5,255.5C 54.8333,255.5 44.1667,255.5 33.5,255.5C 33.5,248.167 33.5,240.833 33.5,233.5C 66.5,233.5 99.5,233.5 132.5,233.5C 133.495,222.679 133.828,211.679 133.5,200.5C 144.679,200.828 155.679,200.495 166.5,199.5C 166.5,188.5 166.5,177.5 166.5,166.5C 177.5,166.5 188.5,166.5 199.5,166.5C 200.496,152.01 200.829,137.343 200.5,122.5C 211.679,122.828 222.679,122.495 233.5,121.5C 233.5,110.5 233.5,99.5 233.5,88.5C 233.5,81.1667 233.5,73.8333 233.5,66.5 Z"/></g>
<g><path style="opacity:1" fill="#000000" d="M 166.5,88.5 C 177.5,88.5 188.5,88.5 199.5,88.5C 199.5,99.5 199.5,110.5 199.5,121.5C 199.5,125.167 199.5,128.833 199.5,132.5C 188.5,132.5 177.5,132.5 166.5,132.5C 166.5,117.833 166.5,103.167 166.5,88.5 Z"/></g>
<g><path style="opacity:1" fill="#fefefd" d="M 200.5,88.5 C 211.167,88.5 221.833,88.5 232.5,88.5C 232.833,88.5 233.167,88.5 233.5,88.5C 233.5,99.5 233.5,110.5 233.5,121.5C 222.5,121.5 211.5,121.5 200.5,121.5C 200.5,110.5 200.5,99.5 200.5,88.5 Z"/></g>
<g><path style="opacity:1" fill="#fcfbfa" d="M 277.5,88.5 C 277.833,88.5 278.167,88.5 278.5,88.5C 289.167,88.5 299.833,88.5 310.5,88.5C 310.833,88.5 311.167,88.5 311.5,88.5C 311.5,99.5 311.5,110.5 311.5,121.5C 300.167,121.5 288.833,121.5 277.5,121.5C 277.5,110.5 277.5,99.5 277.5,88.5 Z"/></g>
<g><path style="opacity:1" fill="#000000" d="M 311.5,88.5 C 322.5,88.5 333.5,88.5 344.5,88.5C 344.5,103.167 344.5,117.833 344.5,132.5C 333.5,132.5 322.5,132.5 311.5,132.5C 311.5,128.833 311.5,125.167 311.5,121.5C 311.5,110.5 311.5,99.5 311.5,88.5 Z"/></g>
<g><path style="opacity:0.824" fill="#8b8466" d="M 344.5,88.5 C 345.496,102.99 345.829,117.657 345.5,132.5C 356.5,132.5 367.5,132.5 378.5,132.5C 378.5,143.5 378.5,154.5 378.5,165.5C 422.833,165.5 467.167,165.5 511.5,165.5C 511.5,165.833 511.5,166.167 511.5,166.5C 467.167,166.5 422.833,166.5 378.5,166.5C 378.5,177.5 378.5,188.5 378.5,199.5C 378.167,199.5 377.833,199.5 377.5,199.5C 377.5,188.5 377.5,177.5 377.5,166.5C 377.5,155.5 377.5,144.5 377.5,133.5C 366.5,133.5 355.5,133.5 344.5,133.5C 333.5,133.5 322.5,133.5 311.5,133.5C 311.5,133.167 311.5,132.833 311.5,132.5C 322.5,132.5 333.5,132.5 344.5,132.5C 344.5,117.833 344.5,103.167 344.5,88.5 Z"/></g>
<g><path style="opacity:0.824" fill="#8a8466" d="M 166.5,88.5 C 166.5,103.167 166.5,117.833 166.5,132.5C 177.5,132.5 188.5,132.5 199.5,132.5C 199.5,132.833 199.5,133.167 199.5,133.5C 188.5,133.5 177.5,133.5 166.5,133.5C 155.5,133.5 144.5,133.5 133.5,133.5C 133.5,144.5 133.5,155.5 133.5,166.5C 133.5,177.5 133.5,188.5 133.5,199.5C 133.167,199.5 132.833,199.5 132.5,199.5C 132.5,188.5 132.5,177.5 132.5,166.5C 88.1667,166.5 43.8333,166.5 -0.5,166.5C -0.5,166.167 -0.5,165.833 -0.5,165.5C 43.8333,165.5 88.1667,165.5 132.5,165.5C 132.5,154.5 132.5,143.5 132.5,132.5C 143.5,132.5 154.5,132.5 165.5,132.5C 165.171,117.657 165.504,102.99 166.5,88.5 Z"/></g>
<g><path style="opacity:1" fill="#000000" d="M 166.5,133.5 C 166.5,144.5 166.5,155.5 166.5,166.5C 155.5,166.5 144.5,166.5 133.5,166.5C 133.5,155.5 133.5,144.5 133.5,133.5C 144.5,133.5 155.5,133.5 166.5,133.5 Z"/></g>
<g><path style="opacity:1" fill="#fffefe" d="M 166.5,133.5 C 177.5,133.5 188.5,133.5 199.5,133.5C 199.5,144.5 199.5,155.5 199.5,166.5C 188.5,166.5 177.5,166.5 166.5,166.5C 166.5,155.5 166.5,144.5 166.5,133.5 Z"/></g>
<g><path style="opacity:1" fill="#f8e387" d="M 199.5,121.5 C 199.833,121.5 200.167,121.5 200.5,121.5C 211.5,121.5 222.5,121.5 233.5,121.5C 222.679,122.495 211.679,122.828 200.5,122.5C 200.829,137.343 200.496,152.01 199.5,166.5C 199.5,155.5 199.5,144.5 199.5,133.5C 199.5,133.167 199.5,132.833 199.5,132.5C 199.5,128.833 199.5,125.167 199.5,121.5 Z"/></g>
<g><path style="opacity:1" fill="#f8e387" d="M 277.5,121.5 C 288.833,121.5 300.167,121.5 311.5,121.5C 311.5,125.167 311.5,128.833 311.5,132.5C 311.5,132.833 311.5,133.167 311.5,133.5C 311.5,144.5 311.5,155.5 311.5,166.5C 310.504,152.01 310.171,137.343 310.5,122.5C 299.321,122.828 288.321,122.495 277.5,121.5 Z"/></g>
<g><path style="opacity:1" fill="#fffefe" d="M 311.5,133.5 C 322.5,133.5 333.5,133.5 344.5,133.5C 344.5,144.5 344.5,155.5 344.5,166.5C 333.5,166.5 322.5,166.5 311.5,166.5C 311.5,155.5 311.5,144.5 311.5,133.5 Z"/></g>
<g><path style="opacity:1" fill="#000000" d="M 344.5,133.5 C 355.5,133.5 366.5,133.5 377.5,133.5C 377.5,144.5 377.5,155.5 377.5,166.5C 366.5,166.5 355.5,166.5 344.5,166.5C 344.5,155.5 344.5,144.5 344.5,133.5 Z"/></g>
<g><path style="opacity:1" fill="#000000" d="M -0.5,166.5 C 43.8333,166.5 88.1667,166.5 132.5,166.5C 132.5,177.5 132.5,188.5 132.5,199.5C 99.1667,199.5 65.8333,199.5 32.5,199.5C 32.5,210.833 32.5,222.167 32.5,233.5C 32.5,240.833 32.5,248.167 32.5,255.5C 21.5,255.5 10.5,255.5 -0.5,255.5C -0.5,225.833 -0.5,196.167 -0.5,166.5 Z"/></g>
<g><path style="opacity:1" fill="#fffefe" d="M 133.5,166.5 C 144.5,166.5 155.5,166.5 166.5,166.5C 166.5,177.5 166.5,188.5 166.5,199.5C 155.5,199.5 144.5,199.5 133.5,199.5C 133.5,188.5 133.5,177.5 133.5,166.5 Z"/></g>
<g><path style="opacity:1" fill="#fffefe" d="M 344.5,166.5 C 355.5,166.5 366.5,166.5 377.5,166.5C 377.5,177.5 377.5,188.5 377.5,199.5C 366.5,199.5 355.5,199.5 344.5,199.5C 344.5,188.5 344.5,177.5 344.5,166.5 Z"/></g>
<g><path style="opacity:1" fill="#000000" d="M 511.5,166.5 C 511.5,196.167 511.5,225.833 511.5,255.5C 500.5,255.5 489.5,255.5 478.5,255.5C 478.5,248.167 478.5,240.833 478.5,233.5C 478.5,222.167 478.5,210.833 478.5,199.5C 445.167,199.5 411.833,199.5 378.5,199.5C 378.5,188.5 378.5,177.5 378.5,166.5C 422.833,166.5 467.167,166.5 511.5,166.5 Z"/></g>
<g><path style="opacity:1" fill="#a3a3a3" d="M 132.5,199.5 C 132.5,199.833 132.5,200.167 132.5,200.5C 99.5,200.5 66.5,200.5 33.5,200.5C 33.5,211.5 33.5,222.5 33.5,233.5C 33.1667,233.5 32.8333,233.5 32.5,233.5C 32.5,222.167 32.5,210.833 32.5,199.5C 65.8333,199.5 99.1667,199.5 132.5,199.5 Z"/></g>
<g><path style="opacity:1" fill="#a3a3a3" d="M 378.5,200.5 C 378.5,200.167 378.5,199.833 378.5,199.5C 411.833,199.5 445.167,199.5 478.5,199.5C 478.5,210.833 478.5,222.167 478.5,233.5C 478.167,233.5 477.833,233.5 477.5,233.5C 477.5,222.5 477.5,211.5 477.5,200.5C 444.5,200.5 411.5,200.5 378.5,200.5 Z"/></g>
<g><path style="opacity:1" fill="#fffefd" d="M 132.5,200.5 C 132.5,211.5 132.5,222.5 132.5,233.5C 99.5,233.5 66.5,233.5 33.5,233.5C 33.5,222.5 33.5,211.5 33.5,200.5C 66.5,200.5 99.5,200.5 132.5,200.5 Z"/></g>
<g><path style="opacity:1" fill="#feeda0" d="M 132.5,199.5 C 132.833,199.5 133.167,199.5 133.5,199.5C 144.5,199.5 155.5,199.5 166.5,199.5C 155.679,200.495 144.679,200.828 133.5,200.5C 133.828,211.679 133.495,222.679 132.5,233.5C 132.5,222.5 132.5,211.5 132.5,200.5C 132.5,200.167 132.5,199.833 132.5,199.5 Z"/></g>
<g><path style="opacity:1" fill="#feeda0" d="M 344.5,199.5 C 355.5,199.5 366.5,199.5 377.5,199.5C 377.833,199.5 378.167,199.5 378.5,199.5C 378.5,199.833 378.5,200.167 378.5,200.5C 378.5,211.5 378.5,222.5 378.5,233.5C 377.505,222.679 377.172,211.679 377.5,200.5C 366.321,200.828 355.321,200.495 344.5,199.5 Z"/></g>
<g><path style="opacity:1" fill="#fffefd" d="M 378.5,200.5 C 411.5,200.5 444.5,200.5 477.5,200.5C 477.5,211.5 477.5,222.5 477.5,233.5C 444.5,233.5 411.5,233.5 378.5,233.5C 378.5,222.5 378.5,211.5 378.5,200.5 Z"/></g>
<g><path style="opacity:0.392" fill="#695b1d" d="M 32.5,233.5 C 32.8333,233.5 33.1667,233.5 33.5,233.5C 33.5,240.833 33.5,248.167 33.5,255.5C 33.5,266.5 33.5,277.5 33.5,288.5C 44.1667,288.5 54.8333,288.5 65.5,288.5C 65.5,277.5 65.5,266.5 65.5,255.5C 66.4946,266.321 66.8279,277.321 66.5,288.5C 77.6794,288.172 88.6794,288.505 99.5,289.5C 88.5,289.5 77.5,289.5 66.5,289.5C 66.5,363.5 66.5,437.5 66.5,511.5C 66.1667,511.5 65.8333,511.5 65.5,511.5C 65.5,437.5 65.5,363.5 65.5,289.5C 54.5,289.5 43.5,289.5 32.5,289.5C 32.5,278.167 32.5,266.833 32.5,255.5C 32.5,248.167 32.5,240.833 32.5,233.5 Z"/></g>
<g><path style="opacity:1" fill="#000000" d="M 33.5,255.5 C 44.1667,255.5 54.8333,255.5 65.5,255.5C 65.5,266.5 65.5,277.5 65.5,288.5C 54.8333,288.5 44.1667,288.5 33.5,288.5C 33.5,277.5 33.5,266.5 33.5,255.5 Z"/></g>
<g><path style="opacity:1" fill="#000000" d="M 99.5,289.5 C 99.5,352.167 99.5,414.833 99.5,477.5C 117.993,478.497 136.659,478.83 155.5,478.5C 155.5,489.5 155.5,500.5 155.5,511.5C 125.833,511.5 96.1667,511.5 66.5,511.5C 66.5,437.5 66.5,363.5 66.5,289.5C 77.5,289.5 88.5,289.5 99.5,289.5 Z"/></g>
<g><path style="opacity:1" fill="#000000" d="M 411.5,289.5 C 422.5,289.5 433.5,289.5 444.5,289.5C 444.5,363.5 444.5,437.5 444.5,511.5C 414.833,511.5 385.167,511.5 355.5,511.5C 355.5,500.5 355.5,489.5 355.5,478.5C 374.341,478.83 393.007,478.497 411.5,477.5C 411.5,414.833 411.5,352.167 411.5,289.5 Z"/></g>
<g><path style="opacity:0.392" fill="#695b1d" d="M 477.5,233.5 C 477.833,233.5 478.167,233.5 478.5,233.5C 478.5,240.833 478.5,248.167 478.5,255.5C 478.5,266.833 478.5,278.167 478.5,289.5C 467.5,289.5 456.5,289.5 445.5,289.5C 445.5,363.5 445.5,437.5 445.5,511.5C 445.167,511.5 444.833,511.5 444.5,511.5C 444.5,437.5 444.5,363.5 444.5,289.5C 433.5,289.5 422.5,289.5 411.5,289.5C 422.321,288.505 433.321,288.172 444.5,288.5C 444.172,277.321 444.505,266.321 445.5,255.5C 445.5,266.5 445.5,277.5 445.5,288.5C 456.167,288.5 466.833,288.5 477.5,288.5C 477.5,277.5 477.5,266.5 477.5,255.5C 477.5,248.167 477.5,240.833 477.5,233.5 Z"/></g>
<g><path style="opacity:1" fill="#000000" d="M 445.5,255.5 C 456.167,255.5 466.833,255.5 477.5,255.5C 477.5,266.5 477.5,277.5 477.5,288.5C 466.833,288.5 456.167,288.5 445.5,288.5C 445.5,277.5 445.5,266.5 445.5,255.5 Z"/></g>
<g><path style="opacity:0.401" fill="#5d5119" d="M 211.5,411.5 C 211.5,422.5 211.5,433.5 211.5,444.5C 240.833,444.5 270.167,444.5 299.5,444.5C 299.5,433.5 299.5,422.5 299.5,411.5C 300.495,422.321 300.828,433.321 300.5,444.5C 319.008,444.17 337.341,444.503 355.5,445.5C 337.167,445.5 318.833,445.5 300.5,445.5C 300.167,445.5 299.833,445.5 299.5,445.5C 270.167,445.5 240.833,445.5 211.5,445.5C 211.167,445.5 210.833,445.5 210.5,445.5C 192.167,445.5 173.833,445.5 155.5,445.5C 173.659,444.503 191.992,444.17 210.5,444.5C 210.172,433.321 210.505,422.321 211.5,411.5 Z"/></g>
<g><path style="opacity:1" fill="#000000" d="M 211.5,411.5 C 240.833,411.5 270.167,411.5 299.5,411.5C 299.5,422.5 299.5,433.5 299.5,444.5C 270.167,444.5 240.833,444.5 211.5,444.5C 211.5,433.5 211.5,422.5 211.5,411.5 Z"/></g>
<g><path style="opacity:1" fill="#000000" d="M 155.5,445.5 C 173.833,445.5 192.167,445.5 210.5,445.5C 210.5,456.167 210.5,466.833 210.5,477.5C 192.167,477.5 173.833,477.5 155.5,477.5C 155.5,466.833 155.5,456.167 155.5,445.5 Z"/></g>
<g><path style="opacity:1" fill="#000000" d="M 300.5,445.5 C 318.833,445.5 337.167,445.5 355.5,445.5C 355.5,456.167 355.5,466.833 355.5,477.5C 337.167,477.5 318.833,477.5 300.5,477.5C 300.5,466.833 300.5,456.167 300.5,445.5 Z"/></g>
<g><path style="opacity:0.835" fill="#60541a" d="M 210.5,445.5 C 210.833,445.5 211.167,445.5 211.5,445.5C 211.5,456.5 211.5,467.5 211.5,478.5C 192.833,478.5 174.167,478.5 155.5,478.5C 136.659,478.83 117.993,478.497 99.5,477.5C 118.167,477.5 136.833,477.5 155.5,477.5C 173.833,477.5 192.167,477.5 210.5,477.5C 210.5,466.833 210.5,456.167 210.5,445.5 Z"/></g>
<g><path style="opacity:0.835" fill="#60541a" d="M 299.5,445.5 C 299.833,445.5 300.167,445.5 300.5,445.5C 300.5,456.167 300.5,466.833 300.5,477.5C 318.833,477.5 337.167,477.5 355.5,477.5C 374.167,477.5 392.833,477.5 411.5,477.5C 393.007,478.497 374.341,478.83 355.5,478.5C 336.833,478.5 318.167,478.5 299.5,478.5C 299.5,467.5 299.5,456.5 299.5,445.5 Z"/></g>
</svg>
