<?xml version="1.0" encoding="UTF-8"?>
<!DOCTYPE svg PUBLIC "-//W3C//DTD SVG 1.1//EN" "http://www.w3.org/Graphics/SVG/1.1/DTD/svg11.dtd">
<svg xmlns="http://www.w3.org/2000/svg" version="1.1" width="512px" height="512px" style="shape-rendering:geometricPrecision; text-rendering:geometricPrecision; image-rendering:optimizeQuality; fill-rule:evenodd; clip-rule:evenodd" xmlns:xlink="http://www.w3.org/1999/xlink">
<g><path style="opacity:1" fill="#000000" d="M 110.5,-0.5 C 229.167,-0.5 347.833,-0.5 466.5,-0.5C 466.5,21.5 466.5,43.5 466.5,65.5C 455.5,65.5 444.5,65.5 433.5,65.5C 433.5,54.8333 433.5,44.1667 433.5,33.5C 337.001,32.5006 240.335,32.1672 143.5,32.5C 143.5,54.8333 143.5,77.1667 143.5,99.5C 132.5,99.5 121.5,99.5 110.5,99.5C 110.5,66.1667 110.5,32.8333 110.5,-0.5 Z"/></g>
<g><path style="opacity:1" fill="#6d5e1d" d="M 433.5,33.5 C 337.167,33.5 240.833,33.5 144.5,33.5C 144.5,55.5 144.5,77.5 144.5,99.5C 144.167,99.5 143.833,99.5 143.5,99.5C 143.5,77.1667 143.5,54.8333 143.5,32.5C 240.335,32.1672 337.001,32.5006 433.5,33.5 Z"/></g>
<g><path style="opacity:1" fill="#fed943" d="M 433.5,33.5 C 433.5,44.1667 433.5,54.8333 433.5,65.5C 433.5,65.8333 433.5,66.1667 433.5,66.5C 422.5,66.5 411.5,66.5 400.5,66.5C 399.505,77.3206 399.172,88.3206 399.5,99.5C 388.5,99.5 377.5,99.5 366.5,99.5C 366.5,110.5 366.5,121.5 366.5,132.5C 355.321,132.172 344.321,132.505 333.5,133.5C 333.5,144.5 333.5,155.5 333.5,166.5C 322.5,166.5 311.5,166.5 300.5,166.5C 299.505,177.321 299.172,188.321 299.5,199.5C 288.321,199.172 277.321,199.505 266.5,200.5C 266.5,211.5 266.5,222.5 266.5,233.5C 255.5,233.5 244.5,233.5 233.5,233.5C 233.5,244.5 233.5,255.5 233.5,266.5C 277.833,266.5 322.167,266.5 366.5,266.5C 366.5,281.167 366.5,295.833 366.5,310.5C 355.321,310.172 344.321,310.505 333.5,311.5C 333.5,322.5 333.5,333.5 333.5,344.5C 322.5,344.5 311.5,344.5 300.5,344.5C 299.505,355.321 299.172,366.321 299.5,377.5C 288.321,377.172 277.321,377.505 266.5,378.5C 266.5,389.5 266.5,400.5 266.5,411.5C 255.5,411.5 244.5,411.5 233.5,411.5C 233.5,422.5 233.5,433.5 233.5,444.5C 233.167,444.5 232.833,444.5 232.5,444.5C 221.5,444.5 210.5,444.5 199.5,444.5C 199.5,455.5 199.5,466.5 199.5,477.5C 188.5,477.5 177.5,477.5 166.5,477.5C 166.5,418.5 166.5,359.5 166.5,300.5C 136.833,300.5 107.167,300.5 77.5,300.5C 77.5,267.167 77.5,233.833 77.5,200.5C 88.6794,200.828 99.6794,200.495 110.5,199.5C 111.498,166.671 111.832,133.671 111.5,100.5C 122.679,100.828 133.679,100.495 144.5,99.5C 144.5,77.5 144.5,55.5 144.5,33.5C 240.833,33.5 337.167,33.5 433.5,33.5 Z"/></g>
<g><path style="opacity:0.953" fill="#3d3511" d="M 466.5,-0.5 C 466.833,-0.5 467.167,-0.5 467.5,-0.5C 467.5,21.8333 467.5,44.1667 467.5,66.5C 456.5,66.5 445.5,66.5 434.5,66.5C 434.167,66.5 433.833,66.5 433.5,66.5C 433.5,66.1667 433.5,65.8333 433.5,65.5C 444.5,65.5 455.5,65.5 466.5,65.5C 466.5,43.5 466.5,21.5 466.5,-0.5 Z"/></g>
<g><path style="opacity:0.341" fill="#826f22" d="M 400.5,66.5 C 400.5,77.5 400.5,88.5 400.5,99.5C 411.5,99.5 422.5,99.5 433.5,99.5C 433.5,88.5 433.5,77.5 433.5,66.5C 433.833,66.5 434.167,66.5 434.5,66.5C 434.5,77.8333 434.5,89.1667 434.5,100.5C 423.167,100.5 411.833,100.5 400.5,100.5C 400.167,100.5 399.833,100.5 399.5,100.5C 399.5,100.167 399.5,99.8333 399.5,99.5C 399.172,88.3206 399.505,77.3206 400.5,66.5 Z"/></g>
<g><path style="opacity:1" fill="#000000" d="M 400.5,66.5 C 411.5,66.5 422.5,66.5 433.5,66.5C 433.5,77.5 433.5,88.5 433.5,99.5C 422.5,99.5 411.5,99.5 400.5,99.5C 400.5,88.5 400.5,77.5 400.5,66.5 Z"/></g>
<g><path style="opacity:1" fill="#000000" d="M 77.5,99.5 C 88.5,99.5 99.5,99.5 110.5,99.5C 110.5,132.833 110.5,166.167 110.5,199.5C 99.5,199.5 88.5,199.5 77.5,199.5C 77.5,166.167 77.5,132.833 77.5,99.5 Z"/></g>
<g><path style="opacity:1" fill="#b59b30" d="M 110.5,99.5 C 121.5,99.5 132.5,99.5 143.5,99.5C 143.833,99.5 144.167,99.5 144.5,99.5C 133.679,100.495 122.679,100.828 111.5,100.5C 111.832,133.671 111.498,166.671 110.5,199.5C 110.5,166.167 110.5,132.833 110.5,99.5 Z"/></g>
<g><path style="opacity:1" fill="#443b12" d="M 399.5,99.5 C 399.5,99.8333 399.5,100.167 399.5,100.5C 388.833,100.5 378.167,100.5 367.5,100.5C 367.5,111.167 367.5,121.833 367.5,132.5C 367.167,132.5 366.833,132.5 366.5,132.5C 366.5,121.5 366.5,110.5 366.5,99.5C 377.5,99.5 388.5,99.5 399.5,99.5 Z"/></g>
<g><path style="opacity:1" fill="#000000" d="M 399.5,100.5 C 399.5,111.167 399.5,121.833 399.5,132.5C 388.833,132.5 378.167,132.5 367.5,132.5C 367.5,121.833 367.5,111.167 367.5,100.5C 378.167,100.5 388.833,100.5 399.5,100.5 Z"/></g>
<g><path style="opacity:0.812" fill="#473d13" d="M 399.5,100.5 C 399.833,100.5 400.167,100.5 400.5,100.5C 400.5,111.5 400.5,122.5 400.5,133.5C 389.5,133.5 378.5,133.5 367.5,133.5C 367.5,133.167 367.5,132.833 367.5,132.5C 378.167,132.5 388.833,132.5 399.5,132.5C 399.5,121.833 399.5,111.167 399.5,100.5 Z"/></g>
<g><path style="opacity:1" fill="#000000" d="M 333.5,133.5 C 344.5,133.5 355.5,133.5 366.5,133.5C 366.5,144.5 366.5,155.5 366.5,166.5C 355.5,166.5 344.5,166.5 333.5,166.5C 333.5,155.5 333.5,144.5 333.5,133.5 Z"/></g>
<g><path style="opacity:0.529" fill="#74631f" d="M 333.5,133.5 C 344.321,132.505 355.321,132.172 366.5,132.5C 366.833,132.5 367.167,132.5 367.5,132.5C 367.5,132.833 367.5,133.167 367.5,133.5C 367.828,144.679 367.495,155.679 366.5,166.5C 366.5,155.5 366.5,144.5 366.5,133.5C 355.5,133.5 344.5,133.5 333.5,133.5 Z"/></g>
<g><path style="opacity:1" fill="#000000" d="M 300.5,166.5 C 311.5,166.5 322.5,166.5 333.5,166.5C 333.5,177.5 333.5,188.5 333.5,199.5C 322.5,199.5 311.5,199.5 300.5,199.5C 300.5,188.5 300.5,177.5 300.5,166.5 Z"/></g>
<g><path style="opacity:0.581" fill="#67571b" d="M 300.5,166.5 C 300.5,177.5 300.5,188.5 300.5,199.5C 311.5,199.5 322.5,199.5 333.5,199.5C 322.679,200.495 311.679,200.828 300.5,200.5C 300.5,211.167 300.5,221.833 300.5,232.5C 334.004,232.168 367.338,232.502 400.5,233.5C 400.167,233.5 399.833,233.5 399.5,233.5C 366.167,233.5 332.833,233.5 299.5,233.5C 299.5,222.5 299.5,211.5 299.5,200.5C 288.5,200.5 277.5,200.5 266.5,200.5C 277.321,199.505 288.321,199.172 299.5,199.5C 299.172,188.321 299.505,177.321 300.5,166.5 Z"/></g>
<g><path style="opacity:0.722" fill="#64561b" d="M 77.5,99.5 C 77.5,132.833 77.5,166.167 77.5,199.5C 88.5,199.5 99.5,199.5 110.5,199.5C 99.6794,200.495 88.6794,200.828 77.5,200.5C 66.5,200.5 55.5,200.5 44.5,200.5C 44.5,244.833 44.5,289.167 44.5,333.5C 43.5013,289.003 43.1679,244.336 43.5,199.5C 54.5,199.5 65.5,199.5 76.5,199.5C 76.1684,165.996 76.5017,132.662 77.5,99.5 Z"/></g>
<g><path style="opacity:1" fill="#020100" d="M 77.5,200.5 C 77.5,233.833 77.5,267.167 77.5,300.5C 107.167,300.5 136.833,300.5 166.5,300.5C 166.5,359.5 166.5,418.5 166.5,477.5C 177.321,478.495 188.321,478.828 199.5,478.5C 199.5,489.5 199.5,500.5 199.5,511.5C 177.167,511.5 154.833,511.5 132.5,511.5C 132.5,452.167 132.5,392.833 132.5,333.5C 103.167,333.5 73.8333,333.5 44.5,333.5C 44.5,289.167 44.5,244.833 44.5,200.5C 55.5,200.5 66.5,200.5 77.5,200.5 Z"/></g>
<g><path style="opacity:1" fill="#000000" d="M 266.5,200.5 C 277.5,200.5 288.5,200.5 299.5,200.5C 299.5,211.5 299.5,222.5 299.5,233.5C 332.833,233.5 366.167,233.5 399.5,233.5C 399.5,259.167 399.5,284.833 399.5,310.5C 388.833,310.5 378.167,310.5 367.5,310.5C 367.829,295.657 367.496,280.99 366.5,266.5C 322.167,266.5 277.833,266.5 233.5,266.5C 233.5,255.5 233.5,244.5 233.5,233.5C 244.5,233.5 255.5,233.5 266.5,233.5C 266.5,222.5 266.5,211.5 266.5,200.5 Z"/></g>
<g><path style="opacity:0.906" fill="#3d3410" d="M 399.5,233.5 C 399.833,233.5 400.167,233.5 400.5,233.5C 400.5,259.5 400.5,285.5 400.5,311.5C 389.5,311.5 378.5,311.5 367.5,311.5C 367.5,311.167 367.5,310.833 367.5,310.5C 378.167,310.5 388.833,310.5 399.5,310.5C 399.5,284.833 399.5,259.167 399.5,233.5 Z"/></g>
<g><path style="opacity:1" fill="#000000" d="M 333.5,311.5 C 344.5,311.5 355.5,311.5 366.5,311.5C 366.5,322.5 366.5,333.5 366.5,344.5C 355.5,344.5 344.5,344.5 333.5,344.5C 333.5,333.5 333.5,322.5 333.5,311.5 Z"/></g>
<g><path style="opacity:0.529" fill="#71611e" d="M 366.5,266.5 C 367.496,280.99 367.829,295.657 367.5,310.5C 367.5,310.833 367.5,311.167 367.5,311.5C 367.5,322.833 367.5,334.167 367.5,345.5C 356.167,345.5 344.833,345.5 333.5,345.5C 333.5,345.167 333.5,344.833 333.5,344.5C 344.5,344.5 355.5,344.5 366.5,344.5C 366.5,333.5 366.5,322.5 366.5,311.5C 355.5,311.5 344.5,311.5 333.5,311.5C 344.321,310.505 355.321,310.172 366.5,310.5C 366.5,295.833 366.5,281.167 366.5,266.5 Z"/></g>
<g><path style="opacity:1" fill="#000000" d="M 300.5,344.5 C 311.5,344.5 322.5,344.5 333.5,344.5C 333.5,344.833 333.5,345.167 333.5,345.5C 333.5,356.167 333.5,366.833 333.5,377.5C 322.5,377.5 311.5,377.5 300.5,377.5C 300.5,366.5 300.5,355.5 300.5,344.5 Z"/></g>
<g><path style="opacity:1" fill="#6a5a1c" d="M 300.5,344.5 C 300.5,355.5 300.5,366.5 300.5,377.5C 311.5,377.5 322.5,377.5 333.5,377.5C 322.679,378.495 311.679,378.828 300.5,378.5C 300.828,389.679 300.495,400.679 299.5,411.5C 299.5,411.167 299.5,410.833 299.5,410.5C 299.5,399.833 299.5,389.167 299.5,378.5C 288.833,378.5 278.167,378.5 267.5,378.5C 267.167,378.5 266.833,378.5 266.5,378.5C 277.321,377.505 288.321,377.172 299.5,377.5C 299.172,366.321 299.505,355.321 300.5,344.5 Z"/></g>
<g><path style="opacity:1" fill="#000000" d="M 267.5,378.5 C 278.167,378.5 288.833,378.5 299.5,378.5C 299.5,389.167 299.5,399.833 299.5,410.5C 288.833,410.5 278.167,410.5 267.5,410.5C 267.5,399.833 267.5,389.167 267.5,378.5 Z"/></g>
<g><path style="opacity:0.965" fill="#25200a" d="M 266.5,378.5 C 266.833,378.5 267.167,378.5 267.5,378.5C 267.5,389.167 267.5,399.833 267.5,410.5C 278.167,410.5 288.833,410.5 299.5,410.5C 299.5,410.833 299.5,411.167 299.5,411.5C 288.833,411.5 278.167,411.5 267.5,411.5C 267.167,411.5 266.833,411.5 266.5,411.5C 266.5,400.5 266.5,389.5 266.5,378.5 Z"/></g>
<g><path style="opacity:1" fill="#000000" d="M 266.5,411.5 C 266.5,422.5 266.5,433.5 266.5,444.5C 255.5,444.5 244.5,444.5 233.5,444.5C 233.5,433.5 233.5,422.5 233.5,411.5C 244.5,411.5 255.5,411.5 266.5,411.5 Z"/></g>
<g><path style="opacity:0.392" fill="#71611e" d="M 266.5,411.5 C 266.833,411.5 267.167,411.5 267.5,411.5C 267.5,422.833 267.5,434.167 267.5,445.5C 256.167,445.5 244.833,445.5 233.5,445.5C 233.167,445.5 232.833,445.5 232.5,445.5C 232.5,445.167 232.5,444.833 232.5,444.5C 232.833,444.5 233.167,444.5 233.5,444.5C 244.5,444.5 255.5,444.5 266.5,444.5C 266.5,433.5 266.5,422.5 266.5,411.5 Z"/></g>
<g><path style="opacity:0.835" fill="#524616" d="M 232.5,444.5 C 232.5,444.833 232.5,445.167 232.5,445.5C 232.833,445.5 233.167,445.5 233.5,445.5C 233.5,456.5 233.5,467.5 233.5,478.5C 222.5,478.5 211.5,478.5 200.5,478.5C 200.5,489.5 200.5,500.5 200.5,511.5C 200.167,511.5 199.833,511.5 199.5,511.5C 199.5,500.5 199.5,489.5 199.5,478.5C 188.321,478.828 177.321,478.495 166.5,477.5C 177.5,477.5 188.5,477.5 199.5,477.5C 199.5,466.5 199.5,455.5 199.5,444.5C 210.5,444.5 221.5,444.5 232.5,444.5 Z"/></g>
<g><path style="opacity:1" fill="#000000" d="M 232.5,445.5 C 232.5,456.167 232.5,466.833 232.5,477.5C 221.833,477.5 211.167,477.5 200.5,477.5C 200.5,466.833 200.5,456.167 200.5,445.5C 211.167,445.5 221.833,445.5 232.5,445.5 Z"/></g>
</svg>
