<?xml version="1.0" encoding="UTF-8"?>
<!DOCTYPE svg PUBLIC "-//W3C//DTD SVG 1.1//EN" "http://www.w3.org/Graphics/SVG/1.1/DTD/svg11.dtd">
<svg xmlns="http://www.w3.org/2000/svg" version="1.1" width="512px" height="512px" style="shape-rendering:geometricPrecision; text-rendering:geometricPrecision; image-rendering:optimizeQuality; fill-rule:evenodd; clip-rule:evenodd" xmlns:xlink="http://www.w3.org/1999/xlink">
<g><path style="opacity:1" fill="#000000" d="M 155.5,-0.5 C 222.167,-0.5 288.833,-0.5 355.5,-0.5C 355.5,10.5 355.5,21.5 355.5,32.5C 288.833,32.5 222.167,32.5 155.5,32.5C 155.5,21.5 155.5,10.5 155.5,-0.5 Z"/></g>
<g><path style="opacity:0.933" fill="#6c6751" d="M 154.5,-0.5 C 154.833,-0.5 155.167,-0.5 155.5,-0.5C 155.5,10.5 155.5,21.5 155.5,32.5C 155.5,32.8333 155.5,33.1667 155.5,33.5C 155.167,33.5 154.833,33.5 154.5,33.5C 136.5,33.5 118.5,33.5 100.5,33.5C 100.167,33.5 99.8333,33.5 99.5,33.5C 117.659,32.5032 135.992,32.1698 154.5,32.5C 154.5,21.5 154.5,10.5 154.5,-0.5 Z"/></g>
<g><path style="opacity:0.933" fill="#7d7a6c" d="M 355.5,-0.5 C 355.833,-0.5 356.167,-0.5 356.5,-0.5C 356.5,10.5 356.5,21.5 356.5,32.5C 375.008,32.1698 393.341,32.5032 411.5,33.5C 411.167,33.5 410.833,33.5 410.5,33.5C 392.5,33.5 374.5,33.5 356.5,33.5C 356.167,33.5 355.833,33.5 355.5,33.5C 288.833,33.5 222.167,33.5 155.5,33.5C 155.5,33.1667 155.5,32.8333 155.5,32.5C 222.167,32.5 288.833,32.5 355.5,32.5C 355.5,21.5 355.5,10.5 355.5,-0.5 Z"/></g>
<g><path style="opacity:1" fill="#fffefd" d="M 155.5,33.5 C 222.167,33.5 288.833,33.5 355.5,33.5C 355.5,44.5 355.5,55.5 355.5,66.5C 288.833,66.5 222.167,66.5 155.5,66.5C 155.5,55.5 155.5,44.5 155.5,33.5 Z"/></g>
<g><path style="opacity:1" fill="#343331" d="M 99.5,33.5 C 99.8333,33.5 100.167,33.5 100.5,33.5C 100.5,44.1667 100.5,54.8333 100.5,65.5C 118.5,65.5 136.5,65.5 154.5,65.5C 154.5,54.8333 154.5,44.1667 154.5,33.5C 154.833,33.5 155.167,33.5 155.5,33.5C 155.5,44.5 155.5,55.5 155.5,66.5C 148.167,66.5 140.833,66.5 133.5,66.5C 122.167,66.5 110.833,66.5 99.5,66.5C 99.5,66.1667 99.5,65.8333 99.5,65.5C 99.5,54.8333 99.5,44.1667 99.5,33.5 Z"/></g>
<g><path style="opacity:1" fill="#000000" d="M 100.5,33.5 C 118.5,33.5 136.5,33.5 154.5,33.5C 154.5,44.1667 154.5,54.8333 154.5,65.5C 136.5,65.5 118.5,65.5 100.5,65.5C 100.5,54.8333 100.5,44.1667 100.5,33.5 Z"/></g>
<g><path style="opacity:1" fill="#343331" d="M 355.5,33.5 C 355.833,33.5 356.167,33.5 356.5,33.5C 356.5,44.1667 356.5,54.8333 356.5,65.5C 374.5,65.5 392.5,65.5 410.5,65.5C 410.5,54.8333 410.5,44.1667 410.5,33.5C 410.833,33.5 411.167,33.5 411.5,33.5C 411.5,44.1667 411.5,54.8333 411.5,65.5C 411.5,65.8333 411.5,66.1667 411.5,66.5C 400.167,66.5 388.833,66.5 377.5,66.5C 370.167,66.5 362.833,66.5 355.5,66.5C 355.5,55.5 355.5,44.5 355.5,33.5 Z"/></g>
<g><path style="opacity:1" fill="#000000" d="M 356.5,33.5 C 374.5,33.5 392.5,33.5 410.5,33.5C 410.5,44.1667 410.5,54.8333 410.5,65.5C 392.5,65.5 374.5,65.5 356.5,65.5C 356.5,54.8333 356.5,44.1667 356.5,33.5 Z"/></g>
<g><path style="opacity:0.525" fill="#948c65" d="M 99.5,65.5 C 99.5,65.8333 99.5,66.1667 99.5,66.5C 88.5,66.5 77.5,66.5 66.5,66.5C 66.5,77.5 66.5,88.5 66.5,99.5C 66.1667,99.5 65.8333,99.5 65.5,99.5C 65.5,88.1667 65.5,76.8333 65.5,65.5C 76.8333,65.5 88.1667,65.5 99.5,65.5 Z"/></g>
<g><path style="opacity:1" fill="#000000" d="M 99.5,66.5 C 99.5,77.5 99.5,88.5 99.5,99.5C 88.5,99.5 77.5,99.5 66.5,99.5C 66.5,88.5 66.5,77.5 66.5,66.5C 77.5,66.5 88.5,66.5 99.5,66.5 Z"/></g>
<g><path style="opacity:1" fill="#fdfdfb" d="M 99.5,66.5 C 110.833,66.5 122.167,66.5 133.5,66.5C 133.5,77.5 133.5,88.5 133.5,99.5C 122.167,99.5 110.833,99.5 99.5,99.5C 99.5,88.5 99.5,77.5 99.5,66.5 Z"/></g>
<g><path style="opacity:1" fill="#fedd45" d="M 133.5,66.5 C 140.833,66.5 148.167,66.5 155.5,66.5C 222.167,66.5 288.833,66.5 355.5,66.5C 362.833,66.5 370.167,66.5 377.5,66.5C 377.5,77.5 377.5,88.5 377.5,99.5C 388.833,99.5 400.167,99.5 411.5,99.5C 411.5,110.833 411.5,122.167 411.5,133.5C 422.5,133.5 433.5,133.5 444.5,133.5C 444.5,140.833 444.5,148.167 444.5,155.5C 444.5,166.5 444.5,177.5 444.5,188.5C 455.5,188.5 466.5,188.5 477.5,188.5C 477.5,244.167 477.5,299.833 477.5,355.5C 466.5,355.5 455.5,355.5 444.5,355.5C 444.5,374.167 444.5,392.833 444.5,411.5C 433.5,411.5 422.5,411.5 411.5,411.5C 411.5,422.5 411.5,433.5 411.5,444.5C 392.833,444.5 374.167,444.5 355.5,444.5C 355.5,455.5 355.5,466.5 355.5,477.5C 288.833,477.5 222.167,477.5 155.5,477.5C 155.5,466.5 155.5,455.5 155.5,444.5C 136.833,444.5 118.167,444.5 99.5,444.5C 99.5,433.5 99.5,422.5 99.5,411.5C 88.5,411.5 77.5,411.5 66.5,411.5C 66.5,392.833 66.5,374.167 66.5,355.5C 55.5,355.5 44.5,355.5 33.5,355.5C 33.5,299.833 33.5,244.167 33.5,188.5C 44.5,188.5 55.5,188.5 66.5,188.5C 66.5,177.5 66.5,166.5 66.5,155.5C 66.5,148.167 66.5,140.833 66.5,133.5C 77.5,133.5 88.5,133.5 99.5,133.5C 99.5,122.167 99.5,110.833 99.5,99.5C 110.833,99.5 122.167,99.5 133.5,99.5C 133.5,88.5 133.5,77.5 133.5,66.5 Z"/></g>
<g><path style="opacity:1" fill="#fdfdfb" d="M 377.5,66.5 C 388.833,66.5 400.167,66.5 411.5,66.5C 411.5,77.5 411.5,88.5 411.5,99.5C 400.167,99.5 388.833,99.5 377.5,99.5C 377.5,88.5 377.5,77.5 377.5,66.5 Z"/></g>
<g><path style="opacity:1" fill="#000000" d="M 411.5,66.5 C 422.5,66.5 433.5,66.5 444.5,66.5C 444.5,77.5 444.5,88.5 444.5,99.5C 433.5,99.5 422.5,99.5 411.5,99.5C 411.5,88.5 411.5,77.5 411.5,66.5 Z"/></g>
<g><path style="opacity:0.525" fill="#948c65" d="M 411.5,66.5 C 411.5,66.1667 411.5,65.8333 411.5,65.5C 422.833,65.5 434.167,65.5 445.5,65.5C 445.5,76.8333 445.5,88.1667 445.5,99.5C 445.167,99.5 444.833,99.5 444.5,99.5C 444.5,88.5 444.5,77.5 444.5,66.5C 433.5,66.5 422.5,66.5 411.5,66.5 Z"/></g>
<g><path style="opacity:1" fill="#514f47" d="M 65.5,99.5 C 65.8333,99.5 66.1667,99.5 66.5,99.5C 66.5,110.833 66.5,122.167 66.5,133.5C 66.5,140.833 66.5,148.167 66.5,155.5C 55.5,155.5 44.5,155.5 33.5,155.5C 33.5,166.5 33.5,177.5 33.5,188.5C 33.1667,188.5 32.8333,188.5 32.5,188.5C 32.5,177.5 32.5,166.5 32.5,155.5C 21.5,155.5 10.5,155.5 -0.5,155.5C -0.5,155.167 -0.5,154.833 -0.5,154.5C 10.5,154.5 21.5,154.5 32.5,154.5C 32.5,136.167 32.5,117.833 32.5,99.5C 43.5,99.5 54.5,99.5 65.5,99.5 Z"/></g>
<g><path style="opacity:1" fill="#000000" d="M 33.5,100.5 C 44.1667,100.5 54.8333,100.5 65.5,100.5C 65.5,118.5 65.5,136.5 65.5,154.5C 54.8333,154.5 44.1667,154.5 33.5,154.5C 33.5,136.5 33.5,118.5 33.5,100.5 Z"/></g>
<g><path style="opacity:1" fill="#fdfdfb" d="M 66.5,99.5 C 77.5,99.5 88.5,99.5 99.5,99.5C 99.5,110.833 99.5,122.167 99.5,133.5C 88.5,133.5 77.5,133.5 66.5,133.5C 66.5,122.167 66.5,110.833 66.5,99.5 Z"/></g>
<g><path style="opacity:1" fill="#fdfdfb" d="M 411.5,99.5 C 422.5,99.5 433.5,99.5 444.5,99.5C 444.5,110.833 444.5,122.167 444.5,133.5C 433.5,133.5 422.5,133.5 411.5,133.5C 411.5,122.167 411.5,110.833 411.5,99.5 Z"/></g>
<g><path style="opacity:1" fill="#514f47" d="M 444.5,99.5 C 444.833,99.5 445.167,99.5 445.5,99.5C 456.5,99.5 467.5,99.5 478.5,99.5C 478.5,117.833 478.5,136.167 478.5,154.5C 489.5,154.5 500.5,154.5 511.5,154.5C 511.5,154.833 511.5,155.167 511.5,155.5C 500.5,155.5 489.5,155.5 478.5,155.5C 478.5,166.5 478.5,177.5 478.5,188.5C 478.167,188.5 477.833,188.5 477.5,188.5C 466.5,188.5 455.5,188.5 444.5,188.5C 444.5,177.5 444.5,166.5 444.5,155.5C 444.5,148.167 444.5,140.833 444.5,133.5C 444.5,122.167 444.5,110.833 444.5,99.5 Z"/></g>
<g><path style="opacity:1" fill="#000000" d="M 445.5,100.5 C 456.167,100.5 466.833,100.5 477.5,100.5C 477.5,118.5 477.5,136.5 477.5,154.5C 466.833,154.5 456.167,154.5 445.5,154.5C 445.5,136.5 445.5,118.5 445.5,100.5 Z"/></g>
<g><path style="opacity:1" fill="#010100" d="M 177.5,177.5 C 155.167,177.5 132.833,177.5 110.5,177.5C 110.5,166.5 110.5,155.5 110.5,144.5C 132.833,144.5 155.167,144.5 177.5,144.5C 177.5,155.5 177.5,166.5 177.5,177.5 Z"/></g>
<g><path style="opacity:1" fill="#010100" d="M 400.5,177.5 C 378.167,177.5 355.833,177.5 333.5,177.5C 333.5,166.5 333.5,155.5 333.5,144.5C 355.833,144.5 378.167,144.5 400.5,144.5C 400.5,155.5 400.5,166.5 400.5,177.5 Z"/></g>
<g><path style="opacity:1" fill="#000000" d="M -0.5,155.5 C 10.5,155.5 21.5,155.5 32.5,155.5C 32.5,166.5 32.5,177.5 32.5,188.5C 32.5,244.167 32.5,299.833 32.5,355.5C 21.5,355.5 10.5,355.5 -0.5,355.5C -0.5,288.833 -0.5,222.167 -0.5,155.5 Z"/></g>
<g><path style="opacity:1" fill="#fffefd" d="M 66.5,155.5 C 66.5,166.5 66.5,177.5 66.5,188.5C 55.5,188.5 44.5,188.5 33.5,188.5C 33.5,177.5 33.5,166.5 33.5,155.5C 44.5,155.5 55.5,155.5 66.5,155.5 Z"/></g>
<g><path style="opacity:1" fill="#fffefd" d="M 444.5,155.5 C 455.5,155.5 466.5,155.5 477.5,155.5C 477.5,166.5 477.5,177.5 477.5,188.5C 477.5,177.5 477.5,166.5 477.5,155.5C 466.5,155.5 455.5,155.5 444.5,155.5 Z"/></g>
<g><path style="opacity:1" fill="#000000" d="M 511.5,155.5 C 511.5,222.167 511.5,288.833 511.5,355.5C 500.5,355.5 489.5,355.5 478.5,355.5C 478.5,299.833 478.5,244.167 478.5,188.5C 478.5,177.5 478.5,166.5 478.5,155.5C 489.5,155.5 500.5,155.5 511.5,155.5 Z"/></g>
<g><path style="opacity:1" fill="#010000" d="M 110.5,177.5 C 110.5,199.833 110.5,222.167 110.5,244.5C 99.5,244.5 88.5,244.5 77.5,244.5C 77.5,222.167 77.5,199.833 77.5,177.5C 88.5,177.5 99.5,177.5 110.5,177.5 Z"/></g>
<g><path style="opacity:1" fill="#191506" d="M 177.5,177.5 C 188.679,177.172 199.679,177.505 210.5,178.5C 199.833,178.5 189.167,178.5 178.5,178.5C 178.5,200.167 178.5,221.833 178.5,243.5C 189.167,243.5 199.833,243.5 210.5,243.5C 199.679,244.495 188.679,244.828 177.5,244.5C 177.5,222.167 177.5,199.833 177.5,177.5 Z"/></g>
<g><path style="opacity:1" fill="#000000" d="M 210.5,178.5 C 210.5,200.167 210.5,221.833 210.5,243.5C 199.833,243.5 189.167,243.5 178.5,243.5C 178.5,221.833 178.5,200.167 178.5,178.5C 189.167,178.5 199.833,178.5 210.5,178.5 Z"/></g>
<g><path style="opacity:1" fill="#000000" d="M 300.5,178.5 C 311.167,178.5 321.833,178.5 332.5,178.5C 332.5,200.167 332.5,221.833 332.5,243.5C 321.833,243.5 311.167,243.5 300.5,243.5C 300.5,221.833 300.5,200.167 300.5,178.5 Z"/></g>
<g><path style="opacity:1" fill="#191506" d="M 300.5,178.5 C 311.321,177.505 322.321,177.172 333.5,177.5C 333.5,199.833 333.5,222.167 333.5,244.5C 322.321,244.828 311.321,244.495 300.5,243.5C 311.167,243.5 321.833,243.5 332.5,243.5C 332.5,221.833 332.5,200.167 332.5,178.5C 321.833,178.5 311.167,178.5 300.5,178.5 Z"/></g>
<g><path style="opacity:1" fill="#010000" d="M 400.5,177.5 C 411.5,177.5 422.5,177.5 433.5,177.5C 433.5,199.833 433.5,222.167 433.5,244.5C 422.5,244.5 411.5,244.5 400.5,244.5C 400.5,222.167 400.5,199.833 400.5,177.5 Z"/></g>
<g><path style="opacity:1" fill="#917e27" d="M 32.5,188.5 C 32.8333,188.5 33.1667,188.5 33.5,188.5C 33.5,244.167 33.5,299.833 33.5,355.5C 33.5,355.833 33.5,356.167 33.5,356.5C 33.1667,356.5 32.8333,356.5 32.5,356.5C 21.5,356.5 10.5,356.5 -0.5,356.5C -0.5,356.167 -0.5,355.833 -0.5,355.5C 10.5,355.5 21.5,355.5 32.5,355.5C 32.5,299.833 32.5,244.167 32.5,188.5 Z"/></g>
<g><path style="opacity:1" fill="#917e27" d="M 477.5,188.5 C 477.833,188.5 478.167,188.5 478.5,188.5C 478.5,244.167 478.5,299.833 478.5,355.5C 489.5,355.5 500.5,355.5 511.5,355.5C 511.5,355.833 511.5,356.167 511.5,356.5C 500.5,356.5 489.5,356.5 478.5,356.5C 478.167,356.5 477.833,356.5 477.5,356.5C 477.5,356.167 477.5,355.833 477.5,355.5C 477.5,299.833 477.5,244.167 477.5,188.5 Z"/></g>
<g><path style="opacity:1" fill="#893d1c" d="M 133.5,277.5 C 133.5,310.833 133.5,344.167 133.5,377.5C 144.5,377.5 155.5,377.5 166.5,377.5C 177.5,377.5 188.5,377.5 199.5,377.5C 199.5,377.833 199.5,378.167 199.5,378.5C 188.5,378.5 177.5,378.5 166.5,378.5C 155.167,378.5 143.833,378.5 132.5,378.5C 132.168,344.663 132.502,310.996 133.5,277.5 Z"/></g>
<g><path style="opacity:1" fill="#040000" d="M 133.5,277.5 C 214.833,277.5 296.167,277.5 377.5,277.5C 377.5,310.833 377.5,344.167 377.5,377.5C 366.5,377.5 355.5,377.5 344.5,377.5C 344.5,355.5 344.5,333.5 344.5,311.5C 285.167,311.5 225.833,311.5 166.5,311.5C 166.5,333.5 166.5,355.5 166.5,377.5C 155.5,377.5 144.5,377.5 133.5,377.5C 133.5,344.167 133.5,310.833 133.5,277.5 Z"/></g>
<g><path style="opacity:1" fill="#893d1c" d="M 377.5,277.5 C 378.498,310.996 378.832,344.663 378.5,378.5C 367.167,378.5 355.833,378.5 344.5,378.5C 333.5,378.5 322.5,378.5 311.5,378.5C 311.5,378.167 311.5,377.833 311.5,377.5C 322.5,377.5 333.5,377.5 344.5,377.5C 355.5,377.5 366.5,377.5 377.5,377.5C 377.5,344.167 377.5,310.833 377.5,277.5 Z"/></g>
<g><path style="opacity:1" fill="#fa0022" d="M 344.5,377.5 C 333.5,377.5 322.5,377.5 311.5,377.5C 310.505,388.321 310.172,399.321 310.5,410.5C 273.833,410.5 237.167,410.5 200.5,410.5C 200.828,399.321 200.495,388.321 199.5,377.5C 188.5,377.5 177.5,377.5 166.5,377.5C 166.5,355.5 166.5,333.5 166.5,311.5C 225.833,311.5 285.167,311.5 344.5,311.5C 344.5,333.5 344.5,355.5 344.5,377.5 Z"/></g>
<g><path style="opacity:1" fill="#020000" d="M 166.5,378.5 C 177.5,378.5 188.5,378.5 199.5,378.5C 199.5,389.5 199.5,400.5 199.5,411.5C 188.5,411.5 177.5,411.5 166.5,411.5C 166.5,400.5 166.5,389.5 166.5,378.5 Z"/></g>
<g><path style="opacity:1" fill="#020000" d="M 311.5,378.5 C 322.5,378.5 333.5,378.5 344.5,378.5C 344.5,389.5 344.5,400.5 344.5,411.5C 333.5,411.5 322.5,411.5 311.5,411.5C 311.5,400.5 311.5,389.5 311.5,378.5 Z"/></g>
<g><path style="opacity:0.965" fill="#342e0f" d="M 33.5,355.5 C 44.5,355.5 55.5,355.5 66.5,355.5C 66.5,374.167 66.5,392.833 66.5,411.5C 66.1667,411.5 65.8333,411.5 65.5,411.5C 54.5,411.5 43.5,411.5 32.5,411.5C 32.5,393.167 32.5,374.833 32.5,356.5C 32.8333,356.5 33.1667,356.5 33.5,356.5C 33.5,356.167 33.5,355.833 33.5,355.5 Z"/></g>
<g><path style="opacity:1" fill="#000000" d="M 33.5,356.5 C 44.1667,356.5 54.8333,356.5 65.5,356.5C 65.5,374.5 65.5,392.5 65.5,410.5C 54.8333,410.5 44.1667,410.5 33.5,410.5C 33.5,392.5 33.5,374.5 33.5,356.5 Z"/></g>
<g><path style="opacity:1" fill="#bf001a" d="M 199.5,377.5 C 200.495,388.321 200.828,399.321 200.5,410.5C 237.167,410.5 273.833,410.5 310.5,410.5C 310.172,399.321 310.505,388.321 311.5,377.5C 311.5,377.833 311.5,378.167 311.5,378.5C 311.5,389.5 311.5,400.5 311.5,411.5C 274.167,411.5 236.833,411.5 199.5,411.5C 199.5,400.5 199.5,389.5 199.5,378.5C 199.5,378.167 199.5,377.833 199.5,377.5 Z"/></g>
<g><path style="opacity:0.965" fill="#342e0f" d="M 477.5,355.5 C 477.5,355.833 477.5,356.167 477.5,356.5C 477.833,356.5 478.167,356.5 478.5,356.5C 478.5,374.833 478.5,393.167 478.5,411.5C 467.5,411.5 456.5,411.5 445.5,411.5C 445.167,411.5 444.833,411.5 444.5,411.5C 444.5,392.833 444.5,374.167 444.5,355.5C 455.5,355.5 466.5,355.5 477.5,355.5 Z"/></g>
<g><path style="opacity:1" fill="#000000" d="M 477.5,356.5 C 477.5,374.5 477.5,392.5 477.5,410.5C 466.833,410.5 456.167,410.5 445.5,410.5C 445.5,392.5 445.5,374.5 445.5,356.5C 456.167,356.5 466.833,356.5 477.5,356.5 Z"/></g>
<g><path style="opacity:1" fill="#000000" d="M 66.5,411.5 C 77.5,411.5 88.5,411.5 99.5,411.5C 99.5,422.5 99.5,433.5 99.5,444.5C 88.5,444.5 77.5,444.5 66.5,444.5C 66.5,433.5 66.5,422.5 66.5,411.5 Z"/></g>
<g><path style="opacity:1" fill="#020000" d="M 199.5,411.5 C 236.833,411.5 274.167,411.5 311.5,411.5C 311.5,422.5 311.5,433.5 311.5,444.5C 274.167,444.5 236.833,444.5 199.5,444.5C 199.5,433.5 199.5,422.5 199.5,411.5 Z"/></g>
<g><path style="opacity:1" fill="#000000" d="M 444.5,411.5 C 444.5,422.5 444.5,433.5 444.5,444.5C 433.5,444.5 422.5,444.5 411.5,444.5C 411.5,433.5 411.5,422.5 411.5,411.5C 422.5,411.5 433.5,411.5 444.5,411.5 Z"/></g>
<g><path style="opacity:0.392" fill="#70611f" d="M 65.5,411.5 C 65.8333,411.5 66.1667,411.5 66.5,411.5C 66.5,422.5 66.5,433.5 66.5,444.5C 77.5,444.5 88.5,444.5 99.5,444.5C 99.5,444.833 99.5,445.167 99.5,445.5C 88.1667,445.5 76.8333,445.5 65.5,445.5C 65.5,434.167 65.5,422.833 65.5,411.5 Z"/></g>
<g><path style="opacity:0.392" fill="#70611f" d="M 444.5,411.5 C 444.833,411.5 445.167,411.5 445.5,411.5C 445.5,422.833 445.5,434.167 445.5,445.5C 434.167,445.5 422.833,445.5 411.5,445.5C 411.5,445.167 411.5,444.833 411.5,444.5C 422.5,444.5 433.5,444.5 444.5,444.5C 444.5,433.5 444.5,422.5 444.5,411.5 Z"/></g>
<g><path style="opacity:1" fill="#362f0f" d="M 99.5,444.5 C 118.167,444.5 136.833,444.5 155.5,444.5C 155.5,455.5 155.5,466.5 155.5,477.5C 155.167,477.5 154.833,477.5 154.5,477.5C 154.5,477.833 154.5,478.167 154.5,478.5C 136.167,478.5 117.833,478.5 99.5,478.5C 99.5,467.5 99.5,456.5 99.5,445.5C 99.5,445.167 99.5,444.833 99.5,444.5 Z"/></g>
<g><path style="opacity:1" fill="#000000" d="M 154.5,477.5 C 136.5,477.5 118.5,477.5 100.5,477.5C 100.5,466.833 100.5,456.167 100.5,445.5C 118.5,445.5 136.5,445.5 154.5,445.5C 154.5,456.167 154.5,466.833 154.5,477.5 Z"/></g>
<g><path style="opacity:1" fill="#362f0f" d="M 411.5,444.5 C 411.5,444.833 411.5,445.167 411.5,445.5C 411.5,456.5 411.5,467.5 411.5,478.5C 393.167,478.5 374.833,478.5 356.5,478.5C 356.5,478.167 356.5,477.833 356.5,477.5C 356.167,477.5 355.833,477.5 355.5,477.5C 355.5,466.5 355.5,455.5 355.5,444.5C 374.167,444.5 392.833,444.5 411.5,444.5 Z"/></g>
<g><path style="opacity:1" fill="#000000" d="M 356.5,477.5 C 356.5,466.833 356.5,456.167 356.5,445.5C 374.5,445.5 392.5,445.5 410.5,445.5C 410.5,456.167 410.5,466.833 410.5,477.5C 392.5,477.5 374.5,477.5 356.5,477.5 Z"/></g>
<g><path style="opacity:1" fill="#8e7b26" d="M 154.5,477.5 C 154.833,477.5 155.167,477.5 155.5,477.5C 222.167,477.5 288.833,477.5 355.5,477.5C 355.833,477.5 356.167,477.5 356.5,477.5C 356.5,477.833 356.5,478.167 356.5,478.5C 356.5,489.5 356.5,500.5 356.5,511.5C 356.167,511.5 355.833,511.5 355.5,511.5C 355.5,500.5 355.5,489.5 355.5,478.5C 288.833,478.5 222.167,478.5 155.5,478.5C 155.5,489.5 155.5,500.5 155.5,511.5C 155.167,511.5 154.833,511.5 154.5,511.5C 154.5,500.5 154.5,489.5 154.5,478.5C 154.5,478.167 154.5,477.833 154.5,477.5 Z"/></g>
<g><path style="opacity:1" fill="#000000" d="M 355.5,511.5 C 288.833,511.5 222.167,511.5 155.5,511.5C 155.5,500.5 155.5,489.5 155.5,478.5C 222.167,478.5 288.833,478.5 355.5,478.5C 355.5,489.5 355.5,500.5 355.5,511.5 Z"/></g>
</svg>
