<?xml version="1.0" encoding="UTF-8"?>
<!DOCTYPE svg PUBLIC "-//W3C//DTD SVG 1.1//EN" "http://www.w3.org/Graphics/SVG/1.1/DTD/svg11.dtd">
<svg xmlns="http://www.w3.org/2000/svg" version="1.1" width="512px" height="512px" style="shape-rendering:geometricPrecision; text-rendering:geometricPrecision; image-rendering:optimizeQuality; fill-rule:evenodd; clip-rule:evenodd" xmlns:xlink="http://www.w3.org/1999/xlink">
<g><path style="opacity:1" fill="#000000" d="M 300.5,-0.5 C 370.833,-0.5 441.167,-0.5 511.5,-0.5C 511.5,118.167 511.5,236.833 511.5,355.5C 470.833,355.5 430.167,355.5 389.5,355.5C 389.5,344.5 389.5,333.5 389.5,322.5C 419.167,322.5 448.833,322.5 478.5,322.5C 478.831,299.994 478.497,277.66 477.5,255.5C 425.833,255.5 374.167,255.5 322.5,255.5C 322.5,244.5 322.5,233.5 322.5,222.5C 374.5,222.5 426.5,222.5 478.5,222.5C 478.5,196.167 478.5,169.833 478.5,143.5C 422.833,143.5 367.167,143.5 311.5,143.5C 311.5,132.5 311.5,121.5 311.5,110.5C 367.167,110.5 422.833,110.5 478.5,110.5C 478.5,84.5 478.5,58.5 478.5,32.5C 419.167,32.5 359.833,32.5 300.5,32.5C 300.5,21.5 300.5,10.5 300.5,-0.5 Z"/></g>
<g><path style="opacity:1" fill="#b18d3d" d="M 300.5,33.5 C 300.5,33.1667 300.5,32.8333 300.5,32.5C 359.833,32.5 419.167,32.5 478.5,32.5C 478.5,58.5 478.5,84.5 478.5,110.5C 422.833,110.5 367.167,110.5 311.5,110.5C 366.664,109.501 421.997,109.168 477.5,109.5C 477.5,84.1667 477.5,58.8333 477.5,33.5C 418.5,33.5 359.5,33.5 300.5,33.5 Z"/></g>
<g><path style="opacity:1" fill="#000000" d="M 233.5,33.5 C 255.5,33.5 277.5,33.5 299.5,33.5C 299.5,44.1667 299.5,54.8333 299.5,65.5C 277.5,65.5 255.5,65.5 233.5,65.5C 233.5,54.8333 233.5,44.1667 233.5,33.5 Z"/></g>
<g><path style="opacity:1" fill="#564917" d="M 299.5,-0.5 C 299.833,-0.5 300.167,-0.5 300.5,-0.5C 300.5,10.5 300.5,21.5 300.5,32.5C 300.5,32.8333 300.5,33.1667 300.5,33.5C 300.5,44.5 300.5,55.5 300.5,66.5C 278.167,66.5 255.833,66.5 233.5,66.5C 233.5,66.1667 233.5,65.8333 233.5,65.5C 255.5,65.5 277.5,65.5 299.5,65.5C 299.5,54.8333 299.5,44.1667 299.5,33.5C 277.5,33.5 255.5,33.5 233.5,33.5C 233.5,33.1667 233.5,32.8333 233.5,32.5C 255.5,32.5 277.5,32.5 299.5,32.5C 299.5,21.5 299.5,10.5 299.5,-0.5 Z"/></g>
<g><path style="opacity:1" fill="#fed943" d="M 300.5,33.5 C 359.5,33.5 418.5,33.5 477.5,33.5C 477.5,58.8333 477.5,84.1667 477.5,109.5C 421.997,109.168 366.664,109.501 311.5,110.5C 310.505,121.321 310.172,132.321 310.5,143.5C 288.327,143.169 266.327,143.503 244.5,144.5C 244.5,155.5 244.5,166.5 244.5,177.5C 233.5,177.5 222.5,177.5 211.5,177.5C 210.505,188.321 210.172,199.321 210.5,210.5C 199.321,210.172 188.321,210.505 177.5,211.5C 177.5,222.5 177.5,233.5 177.5,244.5C 166.5,244.5 155.5,244.5 144.5,244.5C 143.503,266.327 143.169,288.327 143.5,310.5C 132.321,310.172 121.321,310.505 110.5,311.5C 110.5,366.833 110.5,422.167 110.5,477.5C 84.8333,477.5 59.1667,477.5 33.5,477.5C 33.5,418.5 33.5,359.5 33.5,300.5C 44.5,300.5 55.5,300.5 66.5,300.5C 66.5,278.167 66.5,255.833 66.5,233.5C 77.6794,233.828 88.6794,233.495 99.5,232.5C 99.5,210.5 99.5,188.5 99.5,166.5C 110.5,166.5 121.5,166.5 132.5,166.5C 133.495,155.679 133.828,144.679 133.5,133.5C 144.679,133.828 155.679,133.495 166.5,132.5C 166.5,121.5 166.5,110.5 166.5,99.5C 188.5,99.5 210.5,99.5 232.5,99.5C 233.495,88.6794 233.828,77.6794 233.5,66.5C 255.833,66.5 278.167,66.5 300.5,66.5C 300.5,55.5 300.5,44.5 300.5,33.5 Z"/></g>
<g><path style="opacity:0.392" fill="#695a1c" d="M 233.5,32.5 C 233.5,32.8333 233.5,33.1667 233.5,33.5C 233.5,44.1667 233.5,54.8333 233.5,65.5C 233.5,65.8333 233.5,66.1667 233.5,66.5C 233.828,77.6794 233.495,88.6794 232.5,99.5C 232.5,88.5 232.5,77.5 232.5,66.5C 210.5,66.5 188.5,66.5 166.5,66.5C 166.5,77.5 166.5,88.5 166.5,99.5C 166.167,99.5 165.833,99.5 165.5,99.5C 165.5,88.1667 165.5,76.8333 165.5,65.5C 187.833,65.5 210.167,65.5 232.5,65.5C 232.172,54.3206 232.505,43.3206 233.5,32.5 Z"/></g>
<g><path style="opacity:1" fill="#000000" d="M 232.5,99.5 C 210.5,99.5 188.5,99.5 166.5,99.5C 166.5,88.5 166.5,77.5 166.5,66.5C 188.5,66.5 210.5,66.5 232.5,66.5C 232.5,77.5 232.5,88.5 232.5,99.5 Z"/></g>
<g><path style="opacity:1" fill="#010100" d="M 133.5,99.5 C 144.167,99.5 154.833,99.5 165.5,99.5C 165.833,99.5 166.167,99.5 166.5,99.5C 166.5,110.5 166.5,121.5 166.5,132.5C 155.5,132.5 144.5,132.5 133.5,132.5C 133.5,121.5 133.5,110.5 133.5,99.5 Z"/></g>
<g><path style="opacity:1" fill="#67581b" d="M 133.5,99.5 C 133.5,110.5 133.5,121.5 133.5,132.5C 144.5,132.5 155.5,132.5 166.5,132.5C 155.679,133.495 144.679,133.828 133.5,133.5C 133.828,144.679 133.495,155.679 132.5,166.5C 132.5,155.5 132.5,144.5 132.5,133.5C 121.5,133.5 110.5,133.5 99.5,133.5C 110.321,132.505 121.321,132.172 132.5,132.5C 132.172,121.321 132.505,110.321 133.5,99.5 Z"/></g>
<g><path style="opacity:1" fill="#010100" d="M 99.5,133.5 C 110.5,133.5 121.5,133.5 132.5,133.5C 132.5,144.5 132.5,155.5 132.5,166.5C 121.5,166.5 110.5,166.5 99.5,166.5C 99.5,166.167 99.5,165.833 99.5,165.5C 99.5,154.833 99.5,144.167 99.5,133.5 Z"/></g>
<g><path style="opacity:1" fill="#a97c45" d="M 311.5,110.5 C 311.5,121.5 311.5,132.5 311.5,143.5C 311.5,143.833 311.5,144.167 311.5,144.5C 289.167,144.5 266.833,144.5 244.5,144.5C 266.327,143.503 288.327,143.169 310.5,143.5C 310.172,132.321 310.505,121.321 311.5,110.5 Z"/></g>
<g><path style="opacity:1" fill="#020001" d="M 244.5,144.5 C 266.833,144.5 289.167,144.5 311.5,144.5C 311.5,155.5 311.5,166.5 311.5,177.5C 289.167,177.5 266.833,177.5 244.5,177.5C 244.5,166.5 244.5,155.5 244.5,144.5 Z"/></g>
<g><path style="opacity:1" fill="#ef71ad" d="M 311.5,144.5 C 366.833,144.5 422.167,144.5 477.5,144.5C 477.5,170.167 477.5,195.833 477.5,221.5C 425.664,221.168 373.997,221.501 322.5,222.5C 322.5,233.5 322.5,244.5 322.5,255.5C 311.5,255.5 300.5,255.5 289.5,255.5C 288.505,266.321 288.172,277.321 288.5,288.5C 277.321,288.172 266.321,288.505 255.5,289.5C 255.5,300.5 255.5,311.5 255.5,322.5C 244.5,322.5 233.5,322.5 222.5,322.5C 221.501,373.997 221.168,425.664 221.5,477.5C 195.833,477.5 170.167,477.5 144.5,477.5C 144.5,422.167 144.5,366.833 144.5,311.5C 155.5,311.5 166.5,311.5 177.5,311.5C 177.5,289.167 177.5,266.833 177.5,244.5C 188.5,244.5 199.5,244.5 210.5,244.5C 211.495,233.679 211.828,222.679 211.5,211.5C 222.679,211.828 233.679,211.495 244.5,210.5C 244.5,199.5 244.5,188.5 244.5,177.5C 266.833,177.5 289.167,177.5 311.5,177.5C 311.5,166.5 311.5,155.5 311.5,144.5 Z"/></g>
<g><path style="opacity:0.392" fill="#5c4f19" d="M 99.5,165.5 C 99.5,165.833 99.5,166.167 99.5,166.5C 88.5,166.5 77.5,166.5 66.5,166.5C 66.5,188.5 66.5,210.5 66.5,232.5C 77.5,232.5 88.5,232.5 99.5,232.5C 88.6794,233.495 77.6794,233.828 66.5,233.5C 66.5,255.833 66.5,278.167 66.5,300.5C 55.5,300.5 44.5,300.5 33.5,300.5C 33.1667,300.5 32.8333,300.5 32.5,300.5C 21.5,300.5 10.5,300.5 -0.5,300.5C -0.5,300.167 -0.5,299.833 -0.5,299.5C 10.5,299.5 21.5,299.5 32.5,299.5C 32.5,277.167 32.5,254.833 32.5,232.5C 43.5,232.5 54.5,232.5 65.5,232.5C 65.5,210.167 65.5,187.833 65.5,165.5C 76.8333,165.5 88.1667,165.5 99.5,165.5 Z"/></g>
<g><path style="opacity:1" fill="#000000" d="M 99.5,166.5 C 99.5,188.5 99.5,210.5 99.5,232.5C 88.5,232.5 77.5,232.5 66.5,232.5C 66.5,210.5 66.5,188.5 66.5,166.5C 77.5,166.5 88.5,166.5 99.5,166.5 Z"/></g>
<g><path style="opacity:1" fill="#020001" d="M 211.5,177.5 C 222.5,177.5 233.5,177.5 244.5,177.5C 244.5,188.5 244.5,199.5 244.5,210.5C 233.5,210.5 222.5,210.5 211.5,210.5C 211.5,199.5 211.5,188.5 211.5,177.5 Z"/></g>
<g><path style="opacity:1" fill="#020001" d="M 177.5,211.5 C 188.5,211.5 199.5,211.5 210.5,211.5C 210.5,222.5 210.5,233.5 210.5,244.5C 199.5,244.5 188.5,244.5 177.5,244.5C 177.5,233.5 177.5,222.5 177.5,211.5 Z"/></g>
<g><path style="opacity:1" fill="#7b434e" d="M 211.5,177.5 C 211.5,188.5 211.5,199.5 211.5,210.5C 222.5,210.5 233.5,210.5 244.5,210.5C 233.679,211.495 222.679,211.828 211.5,211.5C 211.828,222.679 211.495,233.679 210.5,244.5C 210.5,233.5 210.5,222.5 210.5,211.5C 199.5,211.5 188.5,211.5 177.5,211.5C 188.321,210.505 199.321,210.172 210.5,210.5C 210.172,199.321 210.505,188.321 211.5,177.5 Z"/></g>
<g><path style="opacity:1" fill="#793957" d="M 311.5,144.5 C 311.5,144.167 311.5,143.833 311.5,143.5C 367.167,143.5 422.833,143.5 478.5,143.5C 478.5,169.833 478.5,196.167 478.5,222.5C 426.5,222.5 374.5,222.5 322.5,222.5C 373.997,221.501 425.664,221.168 477.5,221.5C 477.5,195.833 477.5,170.167 477.5,144.5C 422.167,144.5 366.833,144.5 311.5,144.5 Z"/></g>
<g><path style="opacity:1" fill="#000000" d="M 33.5,233.5 C 44.1667,233.5 54.8333,233.5 65.5,233.5C 65.5,255.5 65.5,277.5 65.5,299.5C 54.8333,299.5 44.1667,299.5 33.5,299.5C 33.5,277.5 33.5,255.5 33.5,233.5 Z"/></g>
<g><path style="opacity:1" fill="#aa7c45" d="M 144.5,244.5 C 144.5,266.833 144.5,289.167 144.5,311.5C 144.167,311.5 143.833,311.5 143.5,311.5C 132.5,311.5 121.5,311.5 110.5,311.5C 121.321,310.505 132.321,310.172 143.5,310.5C 143.169,288.327 143.503,266.327 144.5,244.5 Z"/></g>
<g><path style="opacity:1" fill="#020001" d="M 144.5,244.5 C 155.5,244.5 166.5,244.5 177.5,244.5C 177.5,266.833 177.5,289.167 177.5,311.5C 166.5,311.5 155.5,311.5 144.5,311.5C 144.5,289.167 144.5,266.833 144.5,244.5 Z"/></g>
<g><path style="opacity:1" fill="#020101" d="M 289.5,255.5 C 300.5,255.5 311.5,255.5 322.5,255.5C 322.5,266.5 322.5,277.5 322.5,288.5C 311.5,288.5 300.5,288.5 289.5,288.5C 289.5,277.5 289.5,266.5 289.5,255.5 Z"/></g>
<g><path style="opacity:1" fill="#56a3fe" d="M 322.5,255.5 C 374.167,255.5 425.833,255.5 477.5,255.5C 477.5,277.5 477.5,299.5 477.5,321.5C 447.995,321.169 418.662,321.502 389.5,322.5C 388.505,333.321 388.172,344.321 388.5,355.5C 377.5,355.5 366.5,355.5 355.5,355.5C 355.5,366.5 355.5,377.5 355.5,388.5C 344.321,388.172 333.321,388.505 322.5,389.5C 321.502,418.662 321.169,447.995 321.5,477.5C 299.5,477.5 277.5,477.5 255.5,477.5C 255.5,425.833 255.5,374.167 255.5,322.5C 266.5,322.5 277.5,322.5 288.5,322.5C 289.495,311.679 289.828,300.679 289.5,289.5C 300.679,289.828 311.679,289.495 322.5,288.5C 322.5,277.5 322.5,266.5 322.5,255.5 Z"/></g>
<g><path style="opacity:1" fill="#020101" d="M 255.5,289.5 C 266.5,289.5 277.5,289.5 288.5,289.5C 288.5,300.5 288.5,311.5 288.5,322.5C 277.5,322.5 266.5,322.5 255.5,322.5C 255.5,311.5 255.5,300.5 255.5,289.5 Z"/></g>
<g><path style="opacity:1" fill="#5e456a" d="M 289.5,255.5 C 289.5,266.5 289.5,277.5 289.5,288.5C 300.5,288.5 311.5,288.5 322.5,288.5C 311.679,289.495 300.679,289.828 289.5,289.5C 289.828,300.679 289.495,311.679 288.5,322.5C 288.5,311.5 288.5,300.5 288.5,289.5C 277.5,289.5 266.5,289.5 255.5,289.5C 266.321,288.505 277.321,288.172 288.5,288.5C 288.172,277.321 288.505,266.321 289.5,255.5 Z"/></g>
<g><path style="opacity:1" fill="#000000" d="M -0.5,300.5 C 10.5,300.5 21.5,300.5 32.5,300.5C 32.5,359.833 32.5,419.167 32.5,478.5C 58.672,478.831 84.672,478.498 110.5,477.5C 110.5,422.167 110.5,366.833 110.5,311.5C 121.5,311.5 132.5,311.5 143.5,311.5C 143.5,367.167 143.5,422.833 143.5,478.5C 169.833,478.5 196.167,478.5 222.5,478.5C 222.5,426.5 222.5,374.5 222.5,322.5C 233.5,322.5 244.5,322.5 255.5,322.5C 255.5,374.167 255.5,425.833 255.5,477.5C 277.66,478.497 299.994,478.831 322.5,478.5C 322.5,448.833 322.5,419.167 322.5,389.5C 333.5,389.5 344.5,389.5 355.5,389.5C 355.5,430.167 355.5,470.833 355.5,511.5C 236.833,511.5 118.167,511.5 -0.5,511.5C -0.5,441.167 -0.5,370.833 -0.5,300.5 Z"/></g>
<g><path style="opacity:1" fill="#968027" d="M 32.5,300.5 C 32.8333,300.5 33.1667,300.5 33.5,300.5C 33.5,359.5 33.5,418.5 33.5,477.5C 59.1667,477.5 84.8333,477.5 110.5,477.5C 84.672,478.498 58.672,478.831 32.5,478.5C 32.5,419.167 32.5,359.833 32.5,300.5 Z"/></g>
<g><path style="opacity:1" fill="#3f76b8" d="M 477.5,255.5 C 478.497,277.66 478.831,299.994 478.5,322.5C 448.833,322.5 419.167,322.5 389.5,322.5C 418.662,321.502 447.995,321.169 477.5,321.5C 477.5,299.5 477.5,277.5 477.5,255.5 Z"/></g>
<g><path style="opacity:1" fill="#7d3b5a" d="M 143.5,311.5 C 143.833,311.5 144.167,311.5 144.5,311.5C 144.5,366.833 144.5,422.167 144.5,477.5C 170.167,477.5 195.833,477.5 221.5,477.5C 221.168,425.664 221.501,373.997 222.5,322.5C 222.5,374.5 222.5,426.5 222.5,478.5C 196.167,478.5 169.833,478.5 143.5,478.5C 143.5,422.833 143.5,367.167 143.5,311.5 Z"/></g>
<g><path style="opacity:0.341" fill="#284c76" d="M 389.5,322.5 C 389.5,333.5 389.5,344.5 389.5,355.5C 430.167,355.5 470.833,355.5 511.5,355.5C 511.5,355.833 511.5,356.167 511.5,356.5C 470.833,356.5 430.167,356.5 389.5,356.5C 389.167,356.5 388.833,356.5 388.5,356.5C 388.5,356.167 388.5,355.833 388.5,355.5C 388.172,344.321 388.505,333.321 389.5,322.5 Z"/></g>
<g><path style="opacity:1" fill="#101e2f" d="M 388.5,355.5 C 388.5,355.833 388.5,356.167 388.5,356.5C 377.833,356.5 367.167,356.5 356.5,356.5C 356.5,367.167 356.5,377.833 356.5,388.5C 356.167,388.5 355.833,388.5 355.5,388.5C 355.5,377.5 355.5,366.5 355.5,355.5C 366.5,355.5 377.5,355.5 388.5,355.5 Z"/></g>
<g><path style="opacity:1" fill="#000000" d="M 388.5,356.5 C 388.5,367.167 388.5,377.833 388.5,388.5C 377.833,388.5 367.167,388.5 356.5,388.5C 356.5,377.833 356.5,367.167 356.5,356.5C 367.167,356.5 377.833,356.5 388.5,356.5 Z"/></g>
<g><path style="opacity:0.812" fill="#1a324d" d="M 388.5,356.5 C 388.833,356.5 389.167,356.5 389.5,356.5C 389.5,367.5 389.5,378.5 389.5,389.5C 378.5,389.5 367.5,389.5 356.5,389.5C 356.5,389.167 356.5,388.833 356.5,388.5C 367.167,388.5 377.833,388.5 388.5,388.5C 388.5,377.833 388.5,367.167 388.5,356.5 Z"/></g>
<g><path style="opacity:0.341" fill="#284c76" d="M 322.5,389.5 C 333.321,388.505 344.321,388.172 355.5,388.5C 355.833,388.5 356.167,388.5 356.5,388.5C 356.5,388.833 356.5,389.167 356.5,389.5C 356.5,430.167 356.5,470.833 356.5,511.5C 356.167,511.5 355.833,511.5 355.5,511.5C 355.5,470.833 355.5,430.167 355.5,389.5C 344.5,389.5 333.5,389.5 322.5,389.5 Z"/></g>
<g><path style="opacity:1" fill="#396ba7" d="M 322.5,389.5 C 322.5,419.167 322.5,448.833 322.5,478.5C 299.994,478.831 277.66,478.497 255.5,477.5C 277.5,477.5 299.5,477.5 321.5,477.5C 321.169,447.995 321.502,418.662 322.5,389.5 Z"/></g>
</svg>
