<?xml version="1.0" encoding="UTF-8"?>
<!DOCTYPE svg PUBLIC "-//W3C//DTD SVG 1.1//EN" "http://www.w3.org/Graphics/SVG/1.1/DTD/svg11.dtd">
<svg xmlns="http://www.w3.org/2000/svg" version="1.1" width="512px" height="512px" style="shape-rendering:geometricPrecision; text-rendering:geometricPrecision; image-rendering:optimizeQuality; fill-rule:evenodd; clip-rule:evenodd" xmlns:xlink="http://www.w3.org/1999/xlink">
<g><path style="opacity:0.992" fill="#000000" d="M 240.5,59.5 C 230.5,59.5 220.5,59.5 210.5,59.5C 210.5,69.5 210.5,79.5 210.5,89.5C 200.5,89.5 190.5,89.5 180.5,89.5C 180.5,79.5 180.5,69.5 180.5,59.5C 170.5,59.5 160.5,59.5 150.5,59.5C 150.167,59.5 149.833,59.5 149.5,59.5C 149.5,49.5 149.5,39.5 149.5,29.5C 179.833,29.5 210.167,29.5 240.5,29.5C 240.5,39.5 240.5,49.5 240.5,59.5 Z"/></g>
<g><path style="opacity:0.972" fill="#000000" d="M 149.5,59.5 C 149.5,79.8333 149.5,100.167 149.5,120.5C 139.5,120.5 129.5,120.5 119.5,120.5C 119.5,100.167 119.5,79.8333 119.5,59.5C 129.5,59.5 139.5,59.5 149.5,59.5 Z"/></g>
<g><path style="opacity:0.957" fill="#000000" d="M 240.5,59.5 C 250.833,59.5 261.167,59.5 271.5,59.5C 271.5,79.8333 271.5,100.167 271.5,120.5C 261.167,120.5 250.833,120.5 240.5,120.5C 240.5,110.167 240.5,99.8333 240.5,89.5C 240.5,79.5 240.5,69.5 240.5,59.5 Z"/></g>
<g><path style="opacity:0.98" fill="#000000" d="M 391.5,89.5 C 371.167,89.5 350.833,89.5 330.5,89.5C 330.5,79.5 330.5,69.5 330.5,59.5C 350.833,59.5 371.167,59.5 391.5,59.5C 391.5,69.5 391.5,79.5 391.5,89.5 Z"/></g>
<g><path style="opacity:0.98" fill="#000000" d="M 481.5,89.5 C 461.167,89.5 440.833,89.5 420.5,89.5C 420.5,79.5 420.5,69.5 420.5,59.5C 440.833,59.5 461.167,59.5 481.5,59.5C 481.5,69.5 481.5,79.5 481.5,89.5 Z"/></g>
<g><path style="opacity:1" fill="#fea6b1" d="M 150.5,60.5 C 160.167,60.5 169.833,60.5 179.5,60.5C 179.5,70.1667 179.5,79.8333 179.5,89.5C 169.833,89.5 160.167,89.5 150.5,89.5C 150.5,79.8333 150.5,70.1667 150.5,60.5 Z"/></g>
<g><path style="opacity:1" fill="#b97881" d="M 150.5,60.5 C 150.5,60.1667 150.5,59.8333 150.5,59.5C 160.5,59.5 170.5,59.5 180.5,59.5C 180.5,69.5 180.5,79.5 180.5,89.5C 180.167,89.5 179.833,89.5 179.5,89.5C 179.5,79.8333 179.5,70.1667 179.5,60.5C 169.833,60.5 160.167,60.5 150.5,60.5 Z"/></g>
<g><path style="opacity:1" fill="#fda4b0" d="M 240.5,59.5 C 240.5,69.5 240.5,79.5 240.5,89.5C 230.5,89.5 220.5,89.5 210.5,89.5C 210.5,79.5 210.5,69.5 210.5,59.5C 220.5,59.5 230.5,59.5 240.5,59.5 Z"/></g>
<g><path style="opacity:0.96" fill="#000000" d="M 60.5,119.5 C 50.1667,119.5 39.8333,119.5 29.5,119.5C 29.5,109.5 29.5,99.5 29.5,89.5C 39.8333,89.5 50.1667,89.5 60.5,89.5C 60.5,99.5 60.5,109.5 60.5,119.5 Z"/></g>
<g><path style="opacity:0.987" fill="#000000" d="M 330.5,89.5 C 330.5,99.5 330.5,109.5 330.5,119.5C 330.5,139.833 330.5,160.167 330.5,180.5C 320.5,180.5 310.5,180.5 300.5,180.5C 300.5,150.167 300.5,119.833 300.5,89.5C 310.5,89.5 320.5,89.5 330.5,89.5 Z"/></g>
<g><path style="opacity:1" fill="#a26971" d="M 330.5,89.5 C 350.833,89.5 371.167,89.5 391.5,89.5C 391.5,99.5 391.5,109.5 391.5,119.5C 391.167,119.5 390.833,119.5 390.5,119.5C 390.5,109.833 390.5,100.167 390.5,90.5C 370.833,90.5 351.167,90.5 331.5,90.5C 331.5,100.167 331.5,109.833 331.5,119.5C 331.167,119.5 330.833,119.5 330.5,119.5C 330.5,109.5 330.5,99.5 330.5,89.5 Z"/></g>
<g><path style="opacity:0.988" fill="#000000" d="M 391.5,89.5 C 401.167,89.5 410.833,89.5 420.5,89.5C 420.5,99.5 420.5,109.5 420.5,119.5C 410.833,119.5 401.167,119.5 391.5,119.5C 391.5,109.5 391.5,99.5 391.5,89.5 Z"/></g>
<g><path style="opacity:0.993" fill="#000000" d="M 481.5,89.5 C 491.5,89.5 501.5,89.5 511.5,89.5C 511.5,119.833 511.5,150.167 511.5,180.5C 501.5,180.5 491.5,180.5 481.5,180.5C 481.5,160.5 481.5,140.5 481.5,120.5C 481.5,120.167 481.5,119.833 481.5,119.5C 481.5,109.833 481.5,100.167 481.5,90.5C 481.5,90.1667 481.5,89.8333 481.5,89.5 Z"/></g>
<g><path style="opacity:1" fill="#6d2f37" d="M 149.5,59.5 C 149.833,59.5 150.167,59.5 150.5,59.5C 150.5,59.8333 150.5,60.1667 150.5,60.5C 150.5,70.1667 150.5,79.8333 150.5,89.5C 150.5,99.5 150.5,109.5 150.5,119.5C 160.5,119.5 170.5,119.5 180.5,119.5C 180.5,129.5 180.5,139.5 180.5,149.5C 190.5,149.5 200.5,149.5 210.5,149.5C 210.5,149.833 210.5,150.167 210.5,150.5C 200.167,150.5 189.833,150.5 179.5,150.5C 179.5,140.5 179.5,130.5 179.5,120.5C 169.5,120.5 159.5,120.5 149.5,120.5C 149.5,100.167 149.5,79.8333 149.5,59.5 Z"/></g>
<g><path style="opacity:1" fill="#fc6278" d="M 150.5,89.5 C 160.167,89.5 169.833,89.5 179.5,89.5C 179.833,89.5 180.167,89.5 180.5,89.5C 190.5,89.5 200.5,89.5 210.5,89.5C 220.5,89.5 230.5,89.5 240.5,89.5C 240.5,99.8333 240.5,110.167 240.5,120.5C 230.5,120.5 220.5,120.5 210.5,120.5C 210.5,130.167 210.5,139.833 210.5,149.5C 200.5,149.5 190.5,149.5 180.5,149.5C 180.5,139.5 180.5,129.5 180.5,119.5C 170.5,119.5 160.5,119.5 150.5,119.5C 150.5,109.5 150.5,99.5 150.5,89.5 Z"/></g>
<g><path style="opacity:1" fill="#fea6b1" d="M 390.5,119.5 C 370.833,119.5 351.167,119.5 331.5,119.5C 331.5,109.833 331.5,100.167 331.5,90.5C 351.167,90.5 370.833,90.5 390.5,90.5C 390.5,100.167 390.5,109.833 390.5,119.5 Z"/></g>
<g><path style="opacity:1" fill="#fea5b1" d="M 481.5,90.5 C 481.5,100.167 481.5,109.833 481.5,119.5C 461.5,119.5 441.5,119.5 421.5,119.5C 421.5,109.833 421.5,100.167 421.5,90.5C 441.5,90.5 461.5,90.5 481.5,90.5 Z"/></g>
<g><path style="opacity:0.972" fill="#000000" d="M -0.5,119.5 C 9.5,119.5 19.5,119.5 29.5,119.5C 29.5,119.833 29.5,120.167 29.5,120.5C 29.5,130.167 29.5,139.833 29.5,149.5C 29.5,149.833 29.5,150.167 29.5,150.5C 19.5,150.5 9.5,150.5 -0.5,150.5C -0.5,140.167 -0.5,129.833 -0.5,119.5 Z"/></g>
<g><path style="opacity:0.951" fill="#000000" d="M 60.5,119.5 C 70.5,119.5 80.5,119.5 90.5,119.5C 90.5,129.833 90.5,140.167 90.5,150.5C 80.5,150.5 70.5,150.5 60.5,150.5C 60.5,140.167 60.5,129.833 60.5,119.5 Z"/></g>
<g><path style="opacity:1" fill="#87585e" d="M 420.5,89.5 C 440.833,89.5 461.167,89.5 481.5,89.5C 481.5,89.8333 481.5,90.1667 481.5,90.5C 461.5,90.5 441.5,90.5 421.5,90.5C 421.5,100.167 421.5,109.833 421.5,119.5C 421.5,119.833 421.5,120.167 421.5,120.5C 421.167,120.5 420.833,120.5 420.5,120.5C 410.833,120.5 401.167,120.5 391.5,120.5C 391.5,120.167 391.5,119.833 391.5,119.5C 401.167,119.5 410.833,119.5 420.5,119.5C 420.5,109.5 420.5,99.5 420.5,89.5 Z"/></g>
<g><path style="opacity:1" fill="#fed843" d="M 29.5,120.5 C 39.5,120.5 49.5,120.5 59.5,120.5C 59.5,130.167 59.5,139.833 59.5,149.5C 49.5,149.5 39.5,149.5 29.5,149.5C 29.5,139.833 29.5,130.167 29.5,120.5 Z"/></g>
<g><path style="opacity:1" fill="#63541a" d="M 29.5,120.5 C 29.5,120.167 29.5,119.833 29.5,119.5C 39.8333,119.5 50.1667,119.5 60.5,119.5C 60.5,129.833 60.5,140.167 60.5,150.5C 50.1667,150.5 39.8333,150.5 29.5,150.5C 29.5,150.167 29.5,149.833 29.5,149.5C 39.5,149.5 49.5,149.5 59.5,149.5C 59.5,139.833 59.5,130.167 59.5,120.5C 49.5,120.5 39.5,120.5 29.5,120.5 Z"/></g>
<g><path style="opacity:0.967" fill="#000000" d="M 149.5,120.5 C 159.5,120.5 169.5,120.5 179.5,120.5C 179.5,130.5 179.5,140.5 179.5,150.5C 169.5,150.5 159.5,150.5 149.5,150.5C 149.5,140.5 149.5,130.5 149.5,120.5 Z"/></g>
<g><path style="opacity:0.985" fill="#000000" d="M 240.5,120.5 C 240.5,130.5 240.5,140.5 240.5,150.5C 230.5,150.5 220.5,150.5 210.5,150.5C 210.5,150.167 210.5,149.833 210.5,149.5C 210.5,139.833 210.5,130.167 210.5,120.5C 220.5,120.5 230.5,120.5 240.5,120.5 Z"/></g>
<g><path style="opacity:1" fill="#b54656" d="M 330.5,119.5 C 330.833,119.5 331.167,119.5 331.5,119.5C 331.5,119.833 331.5,120.167 331.5,120.5C 331.5,140.167 331.5,159.833 331.5,179.5C 341.348,179.173 351.014,179.506 360.5,180.5C 350.5,180.5 340.5,180.5 330.5,180.5C 330.5,160.167 330.5,139.833 330.5,119.5 Z"/></g>
<g><path style="opacity:1" fill="#fd6278" d="M 421.5,119.5 C 441.5,119.5 461.5,119.5 481.5,119.5C 481.5,119.833 481.5,120.167 481.5,120.5C 480.503,139.993 480.17,159.66 480.5,179.5C 470.652,179.173 460.986,179.506 451.5,180.5C 450.506,189.986 450.173,199.652 450.5,209.5C 440.652,209.173 430.986,209.506 421.5,210.5C 421.5,220.5 421.5,230.5 421.5,240.5C 411.167,240.5 400.833,240.5 390.5,240.5C 390.5,230.5 390.5,220.5 390.5,210.5C 380.5,210.5 370.5,210.5 360.5,210.5C 360.5,200.5 360.5,190.5 360.5,180.5C 351.014,179.506 341.348,179.173 331.5,179.5C 331.5,159.833 331.5,140.167 331.5,120.5C 351.167,120.5 370.833,120.5 390.5,120.5C 390.5,130.5 390.5,140.5 390.5,150.5C 400.833,150.5 411.167,150.5 421.5,150.5C 421.5,140.5 421.5,130.5 421.5,120.5C 421.5,120.167 421.5,119.833 421.5,119.5 Z"/></g>
<g><path style="opacity:1" fill="#d65365" d="M 481.5,120.5 C 481.5,140.5 481.5,160.5 481.5,180.5C 471.5,180.5 461.5,180.5 451.5,180.5C 460.986,179.506 470.652,179.173 480.5,179.5C 480.17,159.66 480.503,139.993 481.5,120.5 Z"/></g>
<g><path style="opacity:1" fill="#fe8798" d="M 331.5,120.5 C 331.5,120.167 331.5,119.833 331.5,119.5C 351.167,119.5 370.833,119.5 390.5,119.5C 390.833,119.5 391.167,119.5 391.5,119.5C 391.5,119.833 391.5,120.167 391.5,120.5C 391.5,130.167 391.5,139.833 391.5,149.5C 401.167,149.5 410.833,149.5 420.5,149.5C 420.5,139.833 420.5,130.167 420.5,120.5C 420.833,120.5 421.167,120.5 421.5,120.5C 421.5,130.5 421.5,140.5 421.5,150.5C 411.167,150.5 400.833,150.5 390.5,150.5C 390.5,140.5 390.5,130.5 390.5,120.5C 370.833,120.5 351.167,120.5 331.5,120.5 Z"/></g>
<g><path style="opacity:1" fill="#fea6b1" d="M 391.5,120.5 C 401.167,120.5 410.833,120.5 420.5,120.5C 420.5,130.167 420.5,139.833 420.5,149.5C 410.833,149.5 401.167,149.5 391.5,149.5C 391.5,139.833 391.5,130.167 391.5,120.5 Z"/></g>
<g><path style="opacity:0.962" fill="#000000" d="M 29.5,150.5 C 39.8333,150.5 50.1667,150.5 60.5,150.5C 60.5,160.5 60.5,170.5 60.5,180.5C 50.1667,180.5 39.8333,180.5 29.5,180.5C 29.5,170.5 29.5,160.5 29.5,150.5 Z"/></g>
<g><path style="opacity:0.962" fill="#000000" d="M 179.5,150.5 C 189.833,150.5 200.167,150.5 210.5,150.5C 210.5,160.5 210.5,170.5 210.5,180.5C 200.167,180.5 189.833,180.5 179.5,180.5C 179.5,170.5 179.5,160.5 179.5,150.5 Z"/></g>
<g><path style="opacity:0.985" fill="#000000" d="M 330.5,180.5 C 340.5,180.5 350.5,180.5 360.5,180.5C 360.5,190.5 360.5,200.5 360.5,210.5C 350.5,210.5 340.5,210.5 330.5,210.5C 330.5,200.5 330.5,190.5 330.5,180.5 Z"/></g>
<g><path style="opacity:0.99" fill="#000000" d="M 451.5,180.5 C 461.5,180.5 471.5,180.5 481.5,180.5C 481.5,190.5 481.5,200.5 481.5,210.5C 471.5,210.5 461.5,210.5 451.5,210.5C 451.5,200.5 451.5,190.5 451.5,180.5 Z"/></g>
<g><path style="opacity:0.96" fill="#000000" d="M 150.5,270.5 C 140.5,270.5 130.5,270.5 120.5,270.5C 120.5,260.5 120.5,250.5 120.5,240.5C 100.167,240.5 79.8333,240.5 59.5,240.5C 59.5,250.5 59.5,260.5 59.5,270.5C 49.5,270.5 39.5,270.5 29.5,270.5C 29.5,260.167 29.5,249.833 29.5,239.5C 39.5,239.5 49.5,239.5 59.5,239.5C 59.5,229.5 59.5,219.5 59.5,209.5C 79.8333,209.5 100.167,209.5 120.5,209.5C 120.5,219.5 120.5,229.5 120.5,239.5C 130.5,239.5 140.5,239.5 150.5,239.5C 150.5,249.833 150.5,260.167 150.5,270.5 Z"/></g>
<g><path style="opacity:0.944" fill="#010101" d="M 301.5,270.5 C 301.167,270.5 300.833,270.5 300.5,270.5C 290.5,270.5 280.5,270.5 270.5,270.5C 270.5,260.5 270.5,250.5 270.5,240.5C 250.5,240.5 230.5,240.5 210.5,240.5C 210.5,250.5 210.5,260.5 210.5,270.5C 200.5,270.5 190.5,270.5 180.5,270.5C 180.5,280.5 180.5,290.5 180.5,300.5C 180.167,300.5 179.833,300.5 179.5,300.5C 179.5,290.5 179.5,280.5 179.5,270.5C 179.5,260.167 179.5,249.833 179.5,239.5C 189.5,239.5 199.5,239.5 209.5,239.5C 209.5,229.5 209.5,219.5 209.5,209.5C 230.167,209.5 250.833,209.5 271.5,209.5C 271.5,219.5 271.5,229.5 271.5,239.5C 281.5,239.5 291.5,239.5 301.5,239.5C 301.5,249.833 301.5,260.167 301.5,270.5 Z"/></g>
<g><path style="opacity:1" fill="#c84d5f" d="M 451.5,180.5 C 451.5,190.5 451.5,200.5 451.5,210.5C 441.5,210.5 431.5,210.5 421.5,210.5C 430.986,209.506 440.652,209.173 450.5,209.5C 450.173,199.652 450.506,189.986 451.5,180.5 Z"/></g>
<g><path style="opacity:0.985" fill="#000000" d="M 360.5,210.5 C 370.5,210.5 380.5,210.5 390.5,210.5C 390.5,220.5 390.5,230.5 390.5,240.5C 380.5,240.5 370.5,240.5 360.5,240.5C 360.5,230.5 360.5,220.5 360.5,210.5 Z"/></g>
<g><path style="opacity:0.99" fill="#000000" d="M 421.5,210.5 C 431.5,210.5 441.5,210.5 451.5,210.5C 451.5,220.5 451.5,230.5 451.5,240.5C 441.5,240.5 431.5,240.5 421.5,240.5C 421.5,230.5 421.5,220.5 421.5,210.5 Z"/></g>
<g><path style="opacity:1" fill="#fba3af" d="M 120.5,270.5 C 100.167,270.5 79.8333,270.5 59.5,270.5C 59.5,260.5 59.5,250.5 59.5,240.5C 79.8333,240.5 100.167,240.5 120.5,240.5C 120.5,250.5 120.5,260.5 120.5,270.5 Z"/></g>
<g><path style="opacity:1" fill="#fea6b1" d="M 270.5,270.5 C 250.5,270.5 230.5,270.5 210.5,270.5C 210.5,260.5 210.5,250.5 210.5,240.5C 230.5,240.5 250.5,240.5 270.5,240.5C 270.5,250.5 270.5,260.5 270.5,270.5 Z"/></g>
<g><path style="opacity:0.942" fill="#000000" d="M 390.5,240.5 C 400.833,240.5 411.167,240.5 421.5,240.5C 421.5,250.833 421.5,261.167 421.5,271.5C 411.167,271.5 400.833,271.5 390.5,271.5C 390.5,261.167 390.5,250.833 390.5,240.5 Z"/></g>
<g><path style="opacity:0.987" fill="#010101" d="M -0.5,270.5 C 9.5,270.5 19.5,270.5 29.5,270.5C 29.5,290.5 29.5,310.5 29.5,330.5C 39.5,330.5 49.5,330.5 59.5,330.5C 59.5,330.833 59.5,331.167 59.5,331.5C 49.5,331.5 39.5,331.5 29.5,331.5C 19.5,331.5 9.5,331.5 -0.5,331.5C -0.5,311.167 -0.5,290.833 -0.5,270.5 Z"/></g>
<g><path style="opacity:0.964" fill="#000000" d="M 301.5,270.5 C 311.5,270.5 321.5,270.5 331.5,270.5C 331.5,290.833 331.5,311.167 331.5,331.5C 321.5,331.5 311.5,331.5 301.5,331.5C 301.5,311.167 301.5,290.833 301.5,270.5 Z"/></g>
<g><path style="opacity:1" fill="#fda5b1" d="M 29.5,270.5 C 39.5,270.5 49.5,270.5 59.5,270.5C 59.5,290.5 59.5,310.5 59.5,330.5C 49.5,330.5 39.5,330.5 29.5,330.5C 29.5,310.5 29.5,290.5 29.5,270.5 Z"/></g>
<g><path style="opacity:1" fill="#fe6379" d="M 59.5,270.5 C 79.8333,270.5 100.167,270.5 120.5,270.5C 120.5,280.5 120.5,290.5 120.5,300.5C 130.5,300.5 140.5,300.5 150.5,300.5C 150.5,310.5 150.5,320.5 150.5,330.5C 160.5,330.5 170.5,330.5 180.5,330.5C 180.5,320.5 180.5,310.5 180.5,300.5C 190.5,300.5 200.5,300.5 210.5,300.5C 210.5,290.5 210.5,280.5 210.5,270.5C 230.5,270.5 250.5,270.5 270.5,270.5C 270.5,290.5 270.5,310.5 270.5,330.5C 270.5,330.833 270.5,331.167 270.5,331.5C 270.5,341.167 270.5,350.833 270.5,360.5C 260.5,360.5 250.5,360.5 240.5,360.5C 240.5,370.833 240.5,381.167 240.5,391.5C 230.5,391.5 220.5,391.5 210.5,391.5C 209.506,400.986 209.173,410.652 209.5,420.5C 199.652,420.173 189.986,420.506 180.5,421.5C 179.506,430.986 179.173,440.652 179.5,450.5C 169.833,450.5 160.167,450.5 150.5,450.5C 150.5,440.5 150.5,430.5 150.5,420.5C 140.5,420.5 130.5,420.5 120.5,420.5C 120.827,410.652 120.494,400.986 119.5,391.5C 110.014,390.506 100.348,390.173 90.5,390.5C 90.5,380.5 90.5,370.5 90.5,360.5C 80.1667,360.5 69.8333,360.5 59.5,360.5C 59.5,350.833 59.5,341.167 59.5,331.5C 59.5,331.167 59.5,330.833 59.5,330.5C 59.5,310.5 59.5,290.5 59.5,270.5 Z"/></g>
<g><path style="opacity:0.998" fill="#000000" d="M 150.5,270.5 C 160.167,270.5 169.833,270.5 179.5,270.5C 179.5,280.5 179.5,290.5 179.5,300.5C 169.833,300.5 160.167,300.5 150.5,300.5C 150.5,290.5 150.5,280.5 150.5,270.5 Z"/></g>
<g><path style="opacity:1" fill="#fba3af" d="M 120.5,270.5 C 130.5,270.5 140.5,270.5 150.5,270.5C 150.5,280.5 150.5,290.5 150.5,300.5C 140.5,300.5 130.5,300.5 120.5,300.5C 120.5,290.5 120.5,280.5 120.5,270.5 Z"/></g>
<g><path style="opacity:1" fill="#fea5b1" d="M 210.5,270.5 C 210.5,280.5 210.5,290.5 210.5,300.5C 200.5,300.5 190.5,300.5 180.5,300.5C 180.5,290.5 180.5,280.5 180.5,270.5C 190.5,270.5 200.5,270.5 210.5,270.5 Z"/></g>
<g><path style="opacity:1" fill="#fea5b1" d="M 270.5,270.5 C 280.5,270.5 290.5,270.5 300.5,270.5C 300.5,290.5 300.5,310.5 300.5,330.5C 290.5,330.5 280.5,330.5 270.5,330.5C 270.5,310.5 270.5,290.5 270.5,270.5 Z"/></g>
<g><path style="opacity:1" fill="#342224" d="M 300.5,270.5 C 300.833,270.5 301.167,270.5 301.5,270.5C 301.5,290.833 301.5,311.167 301.5,331.5C 291.167,331.5 280.833,331.5 270.5,331.5C 270.5,331.167 270.5,330.833 270.5,330.5C 280.5,330.5 290.5,330.5 300.5,330.5C 300.5,310.5 300.5,290.5 300.5,270.5 Z"/></g>
<g><path style="opacity:1" fill="#fda4b0" d="M 150.5,300.5 C 160.167,300.5 169.833,300.5 179.5,300.5C 179.833,300.5 180.167,300.5 180.5,300.5C 180.5,310.5 180.5,320.5 180.5,330.5C 170.5,330.5 160.5,330.5 150.5,330.5C 150.5,320.5 150.5,310.5 150.5,300.5 Z"/></g>
<g><path style="opacity:0.962" fill="#000000" d="M 421.5,360.5 C 411.167,360.5 400.833,360.5 390.5,360.5C 390.5,350.5 390.5,340.5 390.5,330.5C 400.833,330.5 411.167,330.5 421.5,330.5C 421.5,340.5 421.5,350.5 421.5,360.5 Z"/></g>
<g><path style="opacity:0.977" fill="#000000" d="M 29.5,331.5 C 39.5,331.5 49.5,331.5 59.5,331.5C 59.5,341.167 59.5,350.833 59.5,360.5C 59.5,360.833 59.5,361.167 59.5,361.5C 49.5,361.5 39.5,361.5 29.5,361.5C 29.5,351.5 29.5,341.5 29.5,331.5 Z"/></g>
<g><path style="opacity:0.973" fill="#000000" d="M 390.5,360.5 C 390.5,370.5 390.5,380.5 390.5,390.5C 380.5,390.5 370.5,390.5 360.5,390.5C 360.5,380.5 360.5,370.5 360.5,360.5C 370.5,360.5 380.5,360.5 390.5,360.5 Z"/></g>
<g><path style="opacity:0.979" fill="#000000" d="M 421.5,360.5 C 431.5,360.5 441.5,360.5 451.5,360.5C 451.5,370.5 451.5,380.5 451.5,390.5C 441.5,390.5 431.5,390.5 421.5,390.5C 421.5,380.5 421.5,370.5 421.5,360.5 Z"/></g>
<g><path style="opacity:0.977" fill="#000000" d="M 59.5,361.5 C 69.5,361.5 79.5,361.5 89.5,361.5C 89.5,371.5 89.5,381.5 89.5,391.5C 89.5,381.5 89.5,371.5 89.5,361.5C 79.5,361.5 69.5,361.5 59.5,361.5 Z"/></g>
<g><path style="opacity:0.955" fill="#020101" d="M 270.5,331.5 C 280.833,331.5 291.167,331.5 301.5,331.5C 301.5,341.5 301.5,351.5 301.5,361.5C 291.5,361.5 281.5,361.5 271.5,361.5C 271.5,371.5 271.5,381.5 271.5,391.5C 261.167,391.5 250.833,391.5 240.5,391.5C 240.5,381.167 240.5,370.833 240.5,360.5C 250.5,360.5 260.5,360.5 270.5,360.5C 270.5,350.833 270.5,341.167 270.5,331.5 Z"/></g>
<g><path style="opacity:1" fill="#955400" d="M 390.5,360.5 C 400.833,360.5 411.167,360.5 421.5,360.5C 421.5,370.5 421.5,380.5 421.5,390.5C 421.167,390.5 420.833,390.5 420.5,390.5C 420.5,380.833 420.5,371.167 420.5,361.5C 410.833,361.5 401.167,361.5 391.5,361.5C 391.5,371.167 391.5,380.833 391.5,390.5C 391.167,390.5 390.833,390.5 390.5,390.5C 390.5,380.5 390.5,370.5 390.5,360.5 Z"/></g>
<g><path style="opacity:1" fill="#fe9000" d="M 420.5,390.5 C 410.833,390.5 401.167,390.5 391.5,390.5C 391.5,380.833 391.5,371.167 391.5,361.5C 401.167,361.5 410.833,361.5 420.5,361.5C 420.5,371.167 420.5,380.833 420.5,390.5 Z"/></g>
<g><path style="opacity:1" fill="#85343f" d="M 59.5,361.5 C 59.5,361.167 59.5,360.833 59.5,360.5C 69.8333,360.5 80.1667,360.5 90.5,360.5C 90.5,370.5 90.5,380.5 90.5,390.5C 100.348,390.173 110.014,390.506 119.5,391.5C 109.5,391.5 99.5,391.5 89.5,391.5C 89.5,381.5 89.5,371.5 89.5,361.5C 79.5,361.5 69.5,361.5 59.5,361.5 Z"/></g>
<g><path style="opacity:0.962" fill="#000000" d="M 360.5,390.5 C 360.5,400.833 360.5,411.167 360.5,421.5C 350.5,421.5 340.5,421.5 330.5,421.5C 330.5,411.167 330.5,400.833 330.5,390.5C 340.5,390.5 350.5,390.5 360.5,390.5 Z"/></g>
<g><path style="opacity:0.968" fill="#000000" d="M 451.5,390.5 C 461.5,390.5 471.5,390.5 481.5,390.5C 481.5,400.833 481.5,411.167 481.5,421.5C 471.5,421.5 461.5,421.5 451.5,421.5C 451.5,411.167 451.5,400.833 451.5,390.5 Z"/></g>
<g><path style="opacity:0.977" fill="#000000" d="M 89.5,391.5 C 99.5,391.5 109.5,391.5 119.5,391.5C 119.5,401.5 119.5,411.5 119.5,421.5C 109.5,421.5 99.5,421.5 89.5,421.5C 89.5,411.5 89.5,401.5 89.5,391.5 Z"/></g>
<g><path style="opacity:0.987" fill="#000000" d="M 210.5,391.5 C 220.5,391.5 230.5,391.5 240.5,391.5C 240.5,401.5 240.5,411.5 240.5,421.5C 230.5,421.5 220.5,421.5 210.5,421.5C 210.5,411.5 210.5,401.5 210.5,391.5 Z"/></g>
<g><path style="opacity:1" fill="#915200" d="M 360.5,390.5 C 370.5,390.5 380.5,390.5 390.5,390.5C 390.5,390.833 390.5,391.167 390.5,391.5C 380.833,391.5 371.167,391.5 361.5,391.5C 361.5,401.167 361.5,410.833 361.5,420.5C 371.167,420.5 380.833,420.5 390.5,420.5C 390.5,420.833 390.5,421.167 390.5,421.5C 380.5,421.5 370.5,421.5 360.5,421.5C 360.5,411.167 360.5,400.833 360.5,390.5 Z"/></g>
<g><path style="opacity:1" fill="#fe9000" d="M 390.5,391.5 C 390.5,401.167 390.5,410.833 390.5,420.5C 380.833,420.5 371.167,420.5 361.5,420.5C 361.5,410.833 361.5,401.167 361.5,391.5C 371.167,391.5 380.833,391.5 390.5,391.5 Z"/></g>
<g><path style="opacity:1" fill="#fe9000" d="M 421.5,391.5 C 431.167,391.5 440.833,391.5 450.5,391.5C 450.5,401.167 450.5,410.833 450.5,420.5C 440.833,420.5 431.167,420.5 421.5,420.5C 421.5,410.833 421.5,401.167 421.5,391.5 Z"/></g>
<g><path style="opacity:1" fill="#903844" d="M 119.5,391.5 C 120.494,400.986 120.827,410.652 120.5,420.5C 130.5,420.5 140.5,420.5 150.5,420.5C 150.5,430.5 150.5,440.5 150.5,450.5C 150.5,450.833 150.5,451.167 150.5,451.5C 150.167,451.5 149.833,451.5 149.5,451.5C 149.5,441.5 149.5,431.5 149.5,421.5C 139.5,421.5 129.5,421.5 119.5,421.5C 119.5,411.5 119.5,401.5 119.5,391.5 Z"/></g>
<g><path style="opacity:1" fill="#b64656" d="M 210.5,391.5 C 210.5,401.5 210.5,411.5 210.5,421.5C 200.5,421.5 190.5,421.5 180.5,421.5C 189.986,420.506 199.652,420.173 209.5,420.5C 209.173,410.652 209.506,400.986 210.5,391.5 Z"/></g>
<g><path style="opacity:1" fill="#feb927" d="M 390.5,390.5 C 390.833,390.5 391.167,390.5 391.5,390.5C 401.167,390.5 410.833,390.5 420.5,390.5C 420.833,390.5 421.167,390.5 421.5,390.5C 421.5,390.833 421.5,391.167 421.5,391.5C 421.5,401.167 421.5,410.833 421.5,420.5C 421.5,420.833 421.5,421.167 421.5,421.5C 421.167,421.5 420.833,421.5 420.5,421.5C 410.833,421.5 401.167,421.5 391.5,421.5C 391.167,421.5 390.833,421.5 390.5,421.5C 390.5,421.167 390.5,420.833 390.5,420.5C 390.5,410.833 390.5,401.167 390.5,391.5C 390.5,391.167 390.5,390.833 390.5,390.5 Z"/></g>
<g><path style="opacity:1" fill="#fed943" d="M 391.5,391.5 C 401.167,391.5 410.833,391.5 420.5,391.5C 420.5,401.167 420.5,410.833 420.5,420.5C 410.833,420.5 401.167,420.5 391.5,420.5C 391.5,410.833 391.5,401.167 391.5,391.5 Z"/></g>
<g><path style="opacity:1" fill="#a05a00" d="M 421.5,391.5 C 421.5,391.167 421.5,390.833 421.5,390.5C 431.5,390.5 441.5,390.5 451.5,390.5C 451.5,400.833 451.5,411.167 451.5,421.5C 441.5,421.5 431.5,421.5 421.5,421.5C 421.5,421.167 421.5,420.833 421.5,420.5C 431.167,420.5 440.833,420.5 450.5,420.5C 450.5,410.833 450.5,401.167 450.5,391.5C 440.833,391.5 431.167,391.5 421.5,391.5 Z"/></g>
<g><path style="opacity:0.977" fill="#000000" d="M 119.5,421.5 C 129.5,421.5 139.5,421.5 149.5,421.5C 149.5,431.5 149.5,441.5 149.5,451.5C 139.5,451.5 129.5,451.5 119.5,451.5C 119.5,441.5 119.5,431.5 119.5,421.5 Z"/></g>
<g><path style="opacity:0.986" fill="#000000" d="M 180.5,421.5 C 190.5,421.5 200.5,421.5 210.5,421.5C 210.5,431.5 210.5,441.5 210.5,451.5C 200.5,451.5 190.5,451.5 180.5,451.5C 180.5,441.5 180.5,431.5 180.5,421.5 Z"/></g>
<g><path style="opacity:0.979" fill="#000000" d="M 360.5,421.5 C 370.5,421.5 380.5,421.5 390.5,421.5C 390.5,431.5 390.5,441.5 390.5,451.5C 380.5,451.5 370.5,451.5 360.5,451.5C 360.5,441.5 360.5,431.5 360.5,421.5 Z"/></g>
<g><path style="opacity:0.984" fill="#000000" d="M 421.5,421.5 C 431.5,421.5 441.5,421.5 451.5,421.5C 451.5,431.5 451.5,441.5 451.5,451.5C 441.5,451.5 431.5,451.5 421.5,451.5C 421.5,441.5 421.5,431.5 421.5,421.5 Z"/></g>
<g><path style="opacity:1" fill="#b84757" d="M 180.5,421.5 C 180.5,431.5 180.5,441.5 180.5,451.5C 170.5,451.5 160.5,451.5 150.5,451.5C 150.5,451.167 150.5,450.833 150.5,450.5C 160.167,450.5 169.833,450.5 179.5,450.5C 179.173,440.652 179.506,430.986 180.5,421.5 Z"/></g>
<g><path style="opacity:1" fill="#a75e00" d="M 390.5,421.5 C 390.833,421.5 391.167,421.5 391.5,421.5C 391.5,431.167 391.5,440.833 391.5,450.5C 401.167,450.5 410.833,450.5 420.5,450.5C 420.5,440.833 420.5,431.167 420.5,421.5C 420.833,421.5 421.167,421.5 421.5,421.5C 421.5,431.5 421.5,441.5 421.5,451.5C 411.167,451.5 400.833,451.5 390.5,451.5C 390.5,441.5 390.5,431.5 390.5,421.5 Z"/></g>
<g><path style="opacity:1" fill="#fe9000" d="M 391.5,421.5 C 401.167,421.5 410.833,421.5 420.5,421.5C 420.5,431.167 420.5,440.833 420.5,450.5C 410.833,450.5 401.167,450.5 391.5,450.5C 391.5,440.833 391.5,431.167 391.5,421.5 Z"/></g>
<g><path style="opacity:0.968" fill="#000000" d="M 149.5,451.5 C 149.833,451.5 150.167,451.5 150.5,451.5C 160.5,451.5 170.5,451.5 180.5,451.5C 180.5,461.5 180.5,471.5 180.5,481.5C 170.167,481.5 159.833,481.5 149.5,481.5C 149.5,471.5 149.5,461.5 149.5,451.5 Z"/></g>
<g><path style="opacity:0.968" fill="#000000" d="M 390.5,451.5 C 400.833,451.5 411.167,451.5 421.5,451.5C 421.5,461.5 421.5,471.5 421.5,481.5C 411.167,481.5 400.833,481.5 390.5,481.5C 390.5,471.5 390.5,461.5 390.5,451.5 Z"/></g>
</svg>
