<?xml version="1.0" encoding="UTF-8"?>
<!DOCTYPE svg PUBLIC "-//W3C//DTD SVG 1.1//EN" "http://www.w3.org/Graphics/SVG/1.1/DTD/svg11.dtd">
<svg xmlns="http://www.w3.org/2000/svg" version="1.1" width="512px" height="512px" style="shape-rendering:geometricPrecision; text-rendering:geometricPrecision; image-rendering:optimizeQuality; fill-rule:evenodd; clip-rule:evenodd" xmlns:xlink="http://www.w3.org/1999/xlink">
<g><path style="opacity:0.993" fill="#010201" d="M 119.5,-0.5 C 149.833,-0.5 180.167,-0.5 210.5,-0.5C 210.5,9.5 210.5,19.5 210.5,29.5C 200.5,29.5 190.5,29.5 180.5,29.5C 160.167,29.5 139.833,29.5 119.5,29.5C 119.5,19.5 119.5,9.5 119.5,-0.5 Z"/></g>
<g><path style="opacity:0.966" fill="#bb4799" d="M 360.5,-0.5 C 370.833,-0.5 381.167,-0.5 391.5,-0.5C 391.5,9.5 391.5,19.5 391.5,29.5C 401.5,29.5 411.5,29.5 421.5,29.5C 421.5,39.8333 421.5,50.1667 421.5,60.5C 411.5,60.5 401.5,60.5 391.5,60.5C 391.5,70.5 391.5,80.5 391.5,90.5C 381.167,90.5 370.833,90.5 360.5,90.5C 360.5,80.5 360.5,70.5 360.5,60.5C 350.5,60.5 340.5,60.5 330.5,60.5C 330.5,50.1667 330.5,39.8333 330.5,29.5C 340.5,29.5 350.5,29.5 360.5,29.5C 360.5,19.5 360.5,9.5 360.5,-0.5 Z M 361.5,30.5 C 371.167,30.5 380.833,30.5 390.5,30.5C 390.5,40.1667 390.5,49.8333 390.5,59.5C 380.833,59.5 371.167,59.5 361.5,59.5C 361.5,49.8333 361.5,40.1667 361.5,30.5 Z"/></g>
<g><path style="opacity:0.975" fill="#020201" d="M 119.5,29.5 C 119.173,39.6806 119.506,49.6806 120.5,59.5C 150.329,60.4981 180.329,60.8314 210.5,60.5C 210.5,70.5 210.5,80.5 210.5,90.5C 180.5,90.5 150.5,90.5 120.5,90.5C 120.5,150.5 120.5,210.5 120.5,270.5C 120.167,270.5 119.833,270.5 119.5,270.5C 109.5,270.5 99.5,270.5 89.5,270.5C 69.5,270.5 49.5,270.5 29.5,270.5C 29.5,260.167 29.5,249.833 29.5,239.5C 49.5,239.5 69.5,239.5 89.5,239.5C 89.5,169.5 89.5,99.5 89.5,29.5C 99.5,29.5 109.5,29.5 119.5,29.5 Z"/></g>
<g><path style="opacity:0.97" fill="#0c0802" d="M 210.5,29.5 C 220.5,29.5 230.5,29.5 240.5,29.5C 240.5,39.8333 240.5,50.1667 240.5,60.5C 230.5,60.5 220.5,60.5 210.5,60.5C 180.329,60.8314 150.329,60.4981 120.5,59.5C 140.5,59.5 160.5,59.5 180.5,59.5C 190.5,59.5 200.5,59.5 210.5,59.5C 210.5,49.5 210.5,39.5 210.5,29.5 Z"/></g>
<g><path style="opacity:1" fill="#fbc606" d="M 119.5,29.5 C 139.833,29.5 160.167,29.5 180.5,29.5C 180.5,39.5 180.5,49.5 180.5,59.5C 160.5,59.5 140.5,59.5 120.5,59.5C 119.506,49.6806 119.173,39.6806 119.5,29.5 Z"/></g>
<g><path style="opacity:1" fill="#f4851e" d="M 180.5,29.5 C 190.5,29.5 200.5,29.5 210.5,29.5C 210.5,39.5 210.5,49.5 210.5,59.5C 200.5,59.5 190.5,59.5 180.5,59.5C 180.5,49.5 180.5,39.5 180.5,29.5 Z"/></g>
<g><path style="opacity:0.971" fill="#bb4799" d="M 270.5,89.5 C 280.833,89.5 291.167,89.5 301.5,89.5C 301.5,99.8333 301.5,110.167 301.5,120.5C 291.167,120.5 280.833,120.5 270.5,120.5C 270.5,110.167 270.5,99.8333 270.5,89.5 Z"/></g>
<g><path style="opacity:0.946" fill="#ffc905" d="M 450.5,89.5 C 460.833,89.5 471.167,89.5 481.5,89.5C 481.5,99.8333 481.5,110.167 481.5,120.5C 471.167,120.5 460.833,120.5 450.5,120.5C 450.5,110.167 450.5,99.8333 450.5,89.5 Z"/></g>
<g><path style="opacity:0.979" fill="#020202" d="M 451.5,179.5 C 391.167,179.5 330.833,179.5 270.5,179.5C 270.5,169.5 270.5,159.5 270.5,149.5C 330.833,149.5 391.167,149.5 451.5,149.5C 451.5,159.5 451.5,169.5 451.5,179.5 Z"/></g>
<g><path style="opacity:0.972" fill="#020202" d="M 270.5,179.5 C 330.833,179.5 391.167,179.5 451.5,179.5C 461.5,179.5 471.5,179.5 481.5,179.5C 481.5,259.833 481.5,340.167 481.5,420.5C 451.167,420.5 420.833,420.5 390.5,420.5C 390.5,410.5 390.5,400.5 390.5,390.5C 410.5,390.5 430.5,390.5 450.5,390.5C 450.5,340.5 450.5,290.5 450.5,240.5C 390.833,240.5 331.167,240.5 271.5,240.5C 271.5,300.5 271.5,360.5 271.5,420.5C 281.5,420.5 291.5,420.5 301.5,420.5C 301.5,440.833 301.5,461.167 301.5,481.5C 291.5,481.5 281.5,481.5 271.5,481.5C 271.5,491.5 271.5,501.5 271.5,511.5C 240.833,511.5 210.167,511.5 179.5,511.5C 179.5,501.5 179.5,491.5 179.5,481.5C 179.833,481.5 180.167,481.5 180.5,481.5C 190.5,481.5 200.5,481.5 210.5,481.5C 230.5,481.5 250.5,481.5 270.5,481.5C 270.5,461.5 270.5,441.5 270.5,421.5C 240.338,420.502 210.005,420.169 179.5,420.5C 179.5,410.5 179.5,400.5 179.5,390.5C 199.5,390.5 219.5,390.5 239.5,390.5C 239.5,320.167 239.5,249.833 239.5,179.5C 249.833,179.5 260.167,179.5 270.5,179.5 Z"/></g>
<g><path style="opacity:1" fill="#e97098" d="M 421.5,180.5 C 421.5,190.5 421.5,200.5 421.5,210.5C 371.167,210.5 320.833,210.5 270.5,210.5C 270.5,200.5 270.5,190.5 270.5,180.5C 320.833,180.5 371.167,180.5 421.5,180.5 Z"/></g>
<g><path style="opacity:1" fill="#bb4798" d="M 421.5,180.5 C 431.5,180.5 441.5,180.5 451.5,180.5C 451.5,190.5 451.5,200.5 451.5,210.5C 441.5,210.5 431.5,210.5 421.5,210.5C 421.5,200.5 421.5,190.5 421.5,180.5 Z"/></g>
<g><path style="opacity:0.987" fill="#020202" d="M -0.5,270.5 C 9.5,270.5 19.5,270.5 29.5,270.5C 29.5,290.5 29.5,310.5 29.5,330.5C 29.5,330.833 29.5,331.167 29.5,331.5C 19.5,331.5 9.5,331.5 -0.5,331.5C -0.5,311.167 -0.5,290.833 -0.5,270.5 Z"/></g>
<g><path style="opacity:1" fill="#f5851e" d="M 89.5,270.5 C 99.5,270.5 109.5,270.5 119.5,270.5C 119.5,290.5 119.5,310.5 119.5,330.5C 99.5,330.5 79.5,330.5 59.5,330.5C 59.5,320.5 59.5,310.5 59.5,300.5C 69.5,300.5 79.5,300.5 89.5,300.5C 89.5,290.5 89.5,280.5 89.5,270.5 Z"/></g>
<g><path style="opacity:0.973" fill="#020202" d="M 120.5,270.5 C 130.5,270.5 140.5,270.5 150.5,270.5C 150.5,290.833 150.5,311.167 150.5,331.5C 140.5,331.5 130.5,331.5 120.5,331.5C 120.5,311.167 120.5,290.833 120.5,270.5 Z"/></g>
<g><path style="opacity:1" fill="#fec805" d="M 29.5,270.5 C 49.5,270.5 69.5,270.5 89.5,270.5C 89.5,280.5 89.5,290.5 89.5,300.5C 79.5,300.5 69.5,300.5 59.5,300.5C 59.5,310.5 59.5,320.5 59.5,330.5C 49.5,330.5 39.5,330.5 29.5,330.5C 29.5,310.5 29.5,290.5 29.5,270.5 Z"/></g>
<g><path style="opacity:0.966" fill="#ffc906" d="M 330.5,300.5 C 340.833,300.5 351.167,300.5 361.5,300.5C 361.5,310.833 361.5,321.167 361.5,331.5C 351.167,331.5 340.833,331.5 330.5,331.5C 330.5,321.167 330.5,310.833 330.5,300.5 Z"/></g>
<g><path style="opacity:1" fill="#81550b" d="M 119.5,270.5 C 119.833,270.5 120.167,270.5 120.5,270.5C 120.5,290.833 120.5,311.167 120.5,331.5C 90.1667,331.5 59.8333,331.5 29.5,331.5C 29.5,331.167 29.5,330.833 29.5,330.5C 39.5,330.5 49.5,330.5 59.5,330.5C 79.5,330.5 99.5,330.5 119.5,330.5C 119.5,310.5 119.5,290.5 119.5,270.5 Z"/></g>
<g><path style="opacity:0.973" fill="#020202" d="M 29.5,331.5 C 59.8333,331.5 90.1667,331.5 120.5,331.5C 120.5,341.5 120.5,351.5 120.5,361.5C 90.1667,361.5 59.8333,361.5 29.5,361.5C 29.5,351.5 29.5,341.5 29.5,331.5 Z"/></g>
<g><path style="opacity:0.983" fill="#bb4799" d="M 59.5,420.5 C 69.8333,420.5 80.1667,420.5 90.5,420.5C 90.5,430.833 90.5,441.167 90.5,451.5C 80.1667,451.5 69.8333,451.5 59.5,451.5C 59.5,441.167 59.5,430.833 59.5,420.5 Z"/></g>
<g><path style="opacity:0.968" fill="#020202" d="M 179.5,420.5 C 179.5,440.833 179.5,461.167 179.5,481.5C 169.5,481.5 159.5,481.5 149.5,481.5C 149.5,461.167 149.5,440.833 149.5,420.5C 159.5,420.5 169.5,420.5 179.5,420.5 Z"/></g>
<g><path style="opacity:0.974" fill="#020202" d="M 390.5,420.5 C 390.5,440.833 390.5,461.167 390.5,481.5C 380.5,481.5 370.5,481.5 360.5,481.5C 360.5,461.167 360.5,440.833 360.5,420.5C 370.5,420.5 380.5,420.5 390.5,420.5 Z"/></g>
<g><path style="opacity:0.987" fill="#020202" d="M 481.5,420.5 C 491.5,420.5 501.5,420.5 511.5,420.5C 511.5,440.833 511.5,461.167 511.5,481.5C 501.5,481.5 491.5,481.5 481.5,481.5C 481.5,461.5 481.5,441.5 481.5,421.5C 481.5,421.167 481.5,420.833 481.5,420.5 Z"/></g>
<g><path style="opacity:1" fill="#4d2533" d="M 179.5,420.5 C 210.005,420.169 240.338,420.502 270.5,421.5C 260.5,421.5 250.5,421.5 240.5,421.5C 220.5,421.5 200.5,421.5 180.5,421.5C 180.5,441.5 180.5,461.5 180.5,481.5C 180.167,481.5 179.833,481.5 179.5,481.5C 179.5,461.167 179.5,440.833 179.5,420.5 Z"/></g>
<g><path style="opacity:1" fill="#ea7098" d="M 240.5,421.5 C 240.5,431.5 240.5,441.5 240.5,451.5C 230.5,451.5 220.5,451.5 210.5,451.5C 210.5,461.5 210.5,471.5 210.5,481.5C 200.5,481.5 190.5,481.5 180.5,481.5C 180.5,461.5 180.5,441.5 180.5,421.5C 200.5,421.5 220.5,421.5 240.5,421.5 Z"/></g>
<g><path style="opacity:1" fill="#bc4798" d="M 240.5,421.5 C 250.5,421.5 260.5,421.5 270.5,421.5C 270.5,441.5 270.5,461.5 270.5,481.5C 250.5,481.5 230.5,481.5 210.5,481.5C 210.5,471.5 210.5,461.5 210.5,451.5C 220.5,451.5 230.5,451.5 240.5,451.5C 240.5,441.5 240.5,431.5 240.5,421.5 Z"/></g>
<g><path style="opacity:1" fill="#683245" d="M 390.5,420.5 C 420.833,420.5 451.167,420.5 481.5,420.5C 481.5,420.833 481.5,421.167 481.5,421.5C 471.5,421.5 461.5,421.5 451.5,421.5C 431.5,421.5 411.5,421.5 391.5,421.5C 391.5,441.5 391.5,461.5 391.5,481.5C 391.167,481.5 390.833,481.5 390.5,481.5C 390.5,461.167 390.5,440.833 390.5,420.5 Z"/></g>
<g><path style="opacity:1" fill="#ea7098" d="M 451.5,421.5 C 451.5,431.5 451.5,441.5 451.5,451.5C 441.5,451.5 431.5,451.5 421.5,451.5C 421.5,461.5 421.5,471.5 421.5,481.5C 411.5,481.5 401.5,481.5 391.5,481.5C 391.5,461.5 391.5,441.5 391.5,421.5C 411.5,421.5 431.5,421.5 451.5,421.5 Z"/></g>
<g><path style="opacity:1" fill="#bc4798" d="M 451.5,421.5 C 461.5,421.5 471.5,421.5 481.5,421.5C 481.5,441.5 481.5,461.5 481.5,481.5C 461.5,481.5 441.5,481.5 421.5,481.5C 421.5,471.5 421.5,461.5 421.5,451.5C 431.5,451.5 441.5,451.5 451.5,451.5C 451.5,441.5 451.5,431.5 451.5,421.5 Z"/></g>
<g><path style="opacity:0.993" fill="#010201" d="M 390.5,481.5 C 390.833,481.5 391.167,481.5 391.5,481.5C 401.5,481.5 411.5,481.5 421.5,481.5C 441.5,481.5 461.5,481.5 481.5,481.5C 481.5,491.5 481.5,501.5 481.5,511.5C 451.167,511.5 420.833,511.5 390.5,511.5C 390.5,501.5 390.5,491.5 390.5,481.5 Z"/></g>
</svg>
