<?xml version="1.0" encoding="UTF-8"?>
<!DOCTYPE svg PUBLIC "-//W3C//DTD SVG 1.1//EN" "http://www.w3.org/Graphics/SVG/1.1/DTD/svg11.dtd">
<svg xmlns="http://www.w3.org/2000/svg" version="1.1" width="512px" height="512px" style="shape-rendering:geometricPrecision; text-rendering:geometricPrecision; image-rendering:optimizeQuality; fill-rule:evenodd; clip-rule:evenodd" xmlns:xlink="http://www.w3.org/1999/xlink">
<g><path style="opacity:0.991" fill="#000000" d="M 361.5,59.5 C 361.167,59.5 360.833,59.5 360.5,59.5C 290.5,59.5 220.5,59.5 150.5,59.5C 150.167,59.5 149.833,59.5 149.5,59.5C 149.5,49.5 149.5,39.5 149.5,29.5C 220.167,29.5 290.833,29.5 361.5,29.5C 361.5,39.5 361.5,49.5 361.5,59.5 Z"/></g>
<g><path style="opacity:0.986" fill="#000000" d="M 149.5,59.5 C 149.5,69.5 149.5,79.5 149.5,89.5C 129.5,89.5 109.5,89.5 89.5,89.5C 89.5,79.5 89.5,69.5 89.5,59.5C 109.5,59.5 129.5,59.5 149.5,59.5 Z"/></g>
<g><path style="opacity:0.986" fill="#000000" d="M 361.5,59.5 C 381.5,59.5 401.5,59.5 421.5,59.5C 421.5,69.5 421.5,79.5 421.5,89.5C 401.5,89.5 381.5,89.5 361.5,89.5C 361.5,79.5 361.5,69.5 361.5,59.5 Z"/></g>
<g><path style="opacity:1" fill="#fda4b0" d="M 150.5,59.5 C 220.5,59.5 290.5,59.5 360.5,59.5C 360.5,69.5 360.5,79.5 360.5,89.5C 330.5,89.5 300.5,89.5 270.5,89.5C 260.5,89.5 250.5,89.5 240.5,89.5C 210.5,89.5 180.5,89.5 150.5,89.5C 150.5,79.5 150.5,69.5 150.5,59.5 Z"/></g>
<g><path style="opacity:0.981" fill="#000000" d="M 89.5,89.5 C 89.5,99.5 89.5,109.5 89.5,119.5C 79.5,119.5 69.5,119.5 59.5,119.5C 59.5,109.5 59.5,99.5 59.5,89.5C 69.5,89.5 79.5,89.5 89.5,89.5 Z"/></g>
<g><path style="opacity:1" fill="#99636a" d="M 149.5,59.5 C 149.833,59.5 150.167,59.5 150.5,59.5C 150.5,69.5 150.5,79.5 150.5,89.5C 150.5,89.8333 150.5,90.1667 150.5,90.5C 150.167,90.5 149.833,90.5 149.5,90.5C 129.833,90.5 110.167,90.5 90.5,90.5C 90.5,100.167 90.5,109.833 90.5,119.5C 90.1667,119.5 89.8333,119.5 89.5,119.5C 89.5,109.5 89.5,99.5 89.5,89.5C 109.5,89.5 129.5,89.5 149.5,89.5C 149.5,79.5 149.5,69.5 149.5,59.5 Z"/></g>
<g><path style="opacity:1" fill="#966168" d="M 360.5,59.5 C 360.833,59.5 361.167,59.5 361.5,59.5C 361.5,69.5 361.5,79.5 361.5,89.5C 381.5,89.5 401.5,89.5 421.5,89.5C 421.5,99.5 421.5,109.5 421.5,119.5C 431.5,119.5 441.5,119.5 451.5,119.5C 451.5,129.5 451.5,139.5 451.5,149.5C 461.5,149.5 471.5,149.5 481.5,149.5C 481.5,149.833 481.5,150.167 481.5,150.5C 471.5,150.5 461.5,150.5 451.5,150.5C 451.167,150.5 450.833,150.5 450.5,150.5C 450.5,150.167 450.5,149.833 450.5,149.5C 450.5,139.833 450.5,130.167 450.5,120.5C 440.833,120.5 431.167,120.5 421.5,120.5C 421.167,120.5 420.833,120.5 420.5,120.5C 420.5,120.167 420.5,119.833 420.5,119.5C 420.5,109.833 420.5,100.167 420.5,90.5C 400.5,90.5 380.5,90.5 360.5,90.5C 360.5,90.1667 360.5,89.8333 360.5,89.5C 360.5,79.5 360.5,69.5 360.5,59.5 Z"/></g>
<g><path style="opacity:0.981" fill="#000000" d="M 421.5,89.5 C 431.5,89.5 441.5,89.5 451.5,89.5C 451.5,99.5 451.5,109.5 451.5,119.5C 451.5,109.5 451.5,99.5 451.5,89.5C 441.5,89.5 431.5,89.5 421.5,89.5 Z"/></g>
<g><path style="opacity:1" fill="#fea6b1" d="M 149.5,90.5 C 149.5,100.167 149.5,109.833 149.5,119.5C 139.833,119.5 130.167,119.5 120.5,119.5C 120.167,119.5 119.833,119.5 119.5,119.5C 109.833,119.5 100.167,119.5 90.5,119.5C 90.5,109.833 90.5,100.167 90.5,90.5C 110.167,90.5 129.833,90.5 149.5,90.5 Z"/></g>
<g><path style="opacity:1" fill="#fe6379" d="M 150.5,89.5 C 180.5,89.5 210.5,89.5 240.5,89.5C 240.5,99.5 240.5,109.5 240.5,119.5C 220.167,119.5 199.833,119.5 179.5,119.5C 179.5,129.5 179.5,139.5 179.5,149.5C 169.652,149.173 159.986,149.506 150.5,150.5C 150.5,160.167 150.5,169.833 150.5,179.5C 150.5,179.833 150.5,180.167 150.5,180.5C 150.167,180.5 149.833,180.5 149.5,180.5C 139.681,179.506 129.681,179.173 119.5,179.5C 119.5,199.833 119.5,220.167 119.5,240.5C 109.5,240.5 99.5,240.5 89.5,240.5C 89.5,250.5 89.5,260.5 89.5,270.5C 99.5,270.5 109.5,270.5 119.5,270.5C 120.494,260.681 120.827,250.681 120.5,240.5C 130.5,240.5 140.5,240.5 150.5,240.5C 150.5,250.5 150.5,260.5 150.5,270.5C 160.5,270.5 170.5,270.5 180.5,270.5C 180.5,280.5 180.5,290.5 180.5,300.5C 180.5,300.833 180.5,301.167 180.5,301.5C 180.5,311.167 180.5,320.833 180.5,330.5C 190.167,330.5 199.833,330.5 209.5,330.5C 210.494,320.681 210.827,310.681 210.5,300.5C 240.5,300.5 270.5,300.5 300.5,300.5C 300.173,310.681 300.506,320.681 301.5,330.5C 311.167,330.5 320.833,330.5 330.5,330.5C 330.5,320.833 330.5,311.167 330.5,301.5C 330.5,301.167 330.5,300.833 330.5,300.5C 330.5,290.5 330.5,280.5 330.5,270.5C 340.5,270.5 350.5,270.5 360.5,270.5C 360.5,260.5 360.5,250.5 360.5,240.5C 370.833,240.5 381.167,240.5 391.5,240.5C 391.5,230.5 391.5,220.5 391.5,210.5C 401.5,210.5 411.5,210.5 421.5,210.5C 421.827,200.319 421.494,190.319 420.5,180.5C 410.833,180.5 401.167,180.5 391.5,180.5C 391.167,180.5 390.833,180.5 390.5,180.5C 380.833,180.5 371.167,180.5 361.5,180.5C 361.5,170.5 361.5,160.5 361.5,150.5C 371.5,150.5 381.5,150.5 391.5,150.5C 391.5,140.5 391.5,130.5 391.5,120.5C 400.986,119.506 410.652,119.173 420.5,119.5C 420.5,119.833 420.5,120.167 420.5,120.5C 420.5,130.5 420.5,140.5 420.5,150.5C 430.5,150.5 440.5,150.5 450.5,150.5C 450.833,150.5 451.167,150.5 451.5,150.5C 451.5,190.5 451.5,230.5 451.5,270.5C 451.5,280.5 451.5,290.5 451.5,300.5C 441.5,300.5 431.5,300.5 421.5,300.5C 421.5,310.5 421.5,320.5 421.5,330.5C 421.167,330.5 420.833,330.5 420.5,330.5C 400.5,330.5 380.5,330.5 360.5,330.5C 360.5,340.5 360.5,350.5 360.5,360.5C 290.5,360.5 220.5,360.5 150.5,360.5C 150.5,350.5 150.5,340.5 150.5,330.5C 130.5,330.5 110.5,330.5 90.5,330.5C 90.1667,330.5 89.8333,330.5 89.5,330.5C 89.5,320.5 89.5,310.5 89.5,300.5C 79.5,300.5 69.5,300.5 59.5,300.5C 59.5,290.5 59.5,280.5 59.5,270.5C 59.5,250.5 59.5,230.5 59.5,210.5C 69.6806,210.827 79.6806,210.494 89.5,209.5C 89.5,199.833 89.5,190.167 89.5,180.5C 79.8333,180.5 70.1667,180.5 60.5,180.5C 60.1667,180.5 59.8333,180.5 59.5,180.5C 59.5,170.5 59.5,160.5 59.5,150.5C 59.8333,150.5 60.1667,150.5 60.5,150.5C 70.1667,150.5 79.8333,150.5 89.5,150.5C 99.8333,150.5 110.167,150.5 120.5,150.5C 120.5,140.5 120.5,130.5 120.5,120.5C 130.5,120.5 140.5,120.5 150.5,120.5C 150.5,110.5 150.5,100.5 150.5,90.5C 150.5,90.1667 150.5,89.8333 150.5,89.5 Z"/></g>
<g><path style="opacity:1" fill="#825d1e" d="M 240.5,89.5 C 250.5,89.5 260.5,89.5 270.5,89.5C 270.5,99.5 270.5,109.5 270.5,119.5C 260.5,119.5 250.5,119.5 240.5,119.5C 240.5,109.5 240.5,99.5 240.5,89.5 Z"/></g>
<g><path style="opacity:1" fill="#fe6379" d="M 270.5,89.5 C 300.5,89.5 330.5,89.5 360.5,89.5C 360.5,89.8333 360.5,90.1667 360.5,90.5C 360.5,100.167 360.5,109.833 360.5,119.5C 360.5,129.5 360.5,139.5 360.5,149.5C 350.833,149.5 341.167,149.5 331.5,149.5C 331.5,139.5 331.5,129.5 331.5,119.5C 311.167,119.5 290.833,119.5 270.5,119.5C 270.5,109.5 270.5,99.5 270.5,89.5 Z"/></g>
<g><path style="opacity:1" fill="#ffa5b1" d="M 360.5,90.5 C 380.5,90.5 400.5,90.5 420.5,90.5C 420.5,100.167 420.5,109.833 420.5,119.5C 410.652,119.173 400.986,119.506 391.5,120.5C 391.167,120.5 390.833,120.5 390.5,120.5C 380.681,119.506 370.681,119.173 360.5,119.5C 360.5,109.833 360.5,100.167 360.5,90.5 Z"/></g>
<g><path style="opacity:0.981" fill="#000000" d="M 59.5,119.5 C 59.5,129.5 59.5,139.5 59.5,149.5C 49.5,149.5 39.5,149.5 29.5,149.5C 29.5,139.5 29.5,129.5 29.5,119.5C 39.5,119.5 49.5,119.5 59.5,119.5 Z"/></g>
<g><path style="opacity:1" fill="#ff8495" d="M 149.5,90.5 C 149.833,90.5 150.167,90.5 150.5,90.5C 150.5,100.5 150.5,110.5 150.5,120.5C 140.5,120.5 130.5,120.5 120.5,120.5C 120.5,120.167 120.5,119.833 120.5,119.5C 130.167,119.5 139.833,119.5 149.5,119.5C 149.5,109.833 149.5,100.167 149.5,90.5 Z"/></g>
<g><path style="opacity:0.981" fill="#000000" d="M 451.5,119.5 C 461.5,119.5 471.5,119.5 481.5,119.5C 481.5,129.5 481.5,139.5 481.5,149.5C 481.5,139.5 481.5,129.5 481.5,119.5C 471.5,119.5 461.5,119.5 451.5,119.5 Z"/></g>
<g><path style="opacity:1" fill="#9c656d" d="M 59.5,119.5 C 69.5,119.5 79.5,119.5 89.5,119.5C 89.5,119.833 89.5,120.167 89.5,120.5C 79.8333,120.5 70.1667,120.5 60.5,120.5C 60.5,130.5 60.5,140.5 60.5,150.5C 60.1667,150.5 59.8333,150.5 59.5,150.5C 49.5,150.5 39.5,150.5 29.5,150.5C 29.5,150.167 29.5,149.833 29.5,149.5C 39.5,149.5 49.5,149.5 59.5,149.5C 59.5,139.5 59.5,129.5 59.5,119.5 Z"/></g>
<g><path style="opacity:1" fill="#ffa5b1" d="M 89.5,120.5 C 89.5,130.167 89.5,139.833 89.5,149.5C 89.5,149.833 89.5,150.167 89.5,150.5C 79.8333,150.5 70.1667,150.5 60.5,150.5C 60.5,140.5 60.5,130.5 60.5,120.5C 70.1667,120.5 79.8333,120.5 89.5,120.5 Z"/></g>
<g><path style="opacity:1" fill="#beb9d6" d="M 89.5,119.5 C 89.8333,119.5 90.1667,119.5 90.5,119.5C 100.167,119.5 109.833,119.5 119.5,119.5C 119.5,119.833 119.5,120.167 119.5,120.5C 109.833,120.5 100.167,120.5 90.5,120.5C 90.5,130.167 90.5,139.833 90.5,149.5C 90.1667,149.5 89.8333,149.5 89.5,149.5C 89.5,139.833 89.5,130.167 89.5,120.5C 89.5,120.167 89.5,119.833 89.5,119.5 Z"/></g>
<g><path style="opacity:1" fill="#95c7ed" d="M 119.5,120.5 C 119.5,130.167 119.5,139.833 119.5,149.5C 109.833,149.5 100.167,149.5 90.5,149.5C 90.5,139.833 90.5,130.167 90.5,120.5C 100.167,120.5 109.833,120.5 119.5,120.5 Z"/></g>
<g><path style="opacity:1" fill="#c43b4e" d="M 240.5,119.5 C 250.5,119.5 260.5,119.5 270.5,119.5C 290.326,120.497 310.326,120.83 330.5,120.5C 330.5,130.5 330.5,140.5 330.5,150.5C 280.5,150.5 230.5,150.5 180.5,150.5C 180.5,140.5 180.5,130.5 180.5,120.5C 200.674,120.83 220.674,120.497 240.5,119.5 Z"/></g>
<g><path style="opacity:1" fill="#ffb064" d="M 360.5,119.5 C 370.681,119.173 380.681,119.506 390.5,120.5C 380.833,120.5 371.167,120.5 361.5,120.5C 361.5,130.167 361.5,139.833 361.5,149.5C 361.167,149.5 360.833,149.5 360.5,149.5C 360.5,139.5 360.5,129.5 360.5,119.5 Z"/></g>
<g><path style="opacity:1" fill="#fed943" d="M 390.5,120.5 C 390.5,130.167 390.5,139.833 390.5,149.5C 380.833,149.5 371.167,149.5 361.5,149.5C 361.5,139.833 361.5,130.167 361.5,120.5C 371.167,120.5 380.833,120.5 390.5,120.5 Z"/></g>
<g><path style="opacity:1" fill="#fea6b1" d="M 421.5,120.5 C 431.167,120.5 440.833,120.5 450.5,120.5C 450.5,130.167 450.5,139.833 450.5,149.5C 440.833,149.5 431.167,149.5 421.5,149.5C 421.5,139.833 421.5,130.167 421.5,120.5 Z"/></g>
<g><path style="opacity:0.994" fill="#000000" d="M -0.5,149.5 C 9.5,149.5 19.5,149.5 29.5,149.5C 29.5,149.833 29.5,150.167 29.5,150.5C 29.5,190.5 29.5,230.5 29.5,270.5C 29.5,280.5 29.5,290.5 29.5,300.5C 29.5,320.5 29.5,340.5 29.5,360.5C 29.5,360.833 29.5,361.167 29.5,361.5C 19.5,361.5 9.5,361.5 -0.5,361.5C -0.5,290.833 -0.5,220.167 -0.5,149.5 Z"/></g>
<g><path style="opacity:1" fill="#c39ab8" d="M 119.5,119.5 C 119.833,119.5 120.167,119.5 120.5,119.5C 120.5,119.833 120.5,120.167 120.5,120.5C 120.5,130.5 120.5,140.5 120.5,150.5C 110.167,150.5 99.8333,150.5 89.5,150.5C 89.5,150.167 89.5,149.833 89.5,149.5C 89.8333,149.5 90.1667,149.5 90.5,149.5C 100.167,149.5 109.833,149.5 119.5,149.5C 119.5,139.833 119.5,130.167 119.5,120.5C 119.5,120.167 119.5,119.833 119.5,119.5 Z"/></g>
<g><path style="opacity:1" fill="#e65267" d="M 240.5,119.5 C 220.674,120.497 200.674,120.83 180.5,120.5C 180.5,130.5 180.5,140.5 180.5,150.5C 180.167,150.5 179.833,150.5 179.5,150.5C 169.833,150.5 160.167,150.5 150.5,150.5C 159.986,149.506 169.652,149.173 179.5,149.5C 179.5,139.5 179.5,129.5 179.5,119.5C 199.833,119.5 220.167,119.5 240.5,119.5 Z"/></g>
<g><path style="opacity:1" fill="#e65267" d="M 270.5,119.5 C 290.833,119.5 311.167,119.5 331.5,119.5C 331.5,129.5 331.5,139.5 331.5,149.5C 341.167,149.5 350.833,149.5 360.5,149.5C 360.833,149.5 361.167,149.5 361.5,149.5C 361.5,149.833 361.5,150.167 361.5,150.5C 361.5,160.5 361.5,170.5 361.5,180.5C 361.167,180.5 360.833,180.5 360.5,180.5C 360.5,180.167 360.5,179.833 360.5,179.5C 360.5,169.833 360.5,160.167 360.5,150.5C 350.833,150.5 341.167,150.5 331.5,150.5C 331.167,150.5 330.833,150.5 330.5,150.5C 330.5,140.5 330.5,130.5 330.5,120.5C 310.326,120.83 290.326,120.497 270.5,119.5 Z"/></g>
<g><path style="opacity:1" fill="#ffa75a" d="M 390.5,120.5 C 390.833,120.5 391.167,120.5 391.5,120.5C 391.5,130.5 391.5,140.5 391.5,150.5C 381.5,150.5 371.5,150.5 361.5,150.5C 361.5,150.167 361.5,149.833 361.5,149.5C 371.167,149.5 380.833,149.5 390.5,149.5C 390.5,139.833 390.5,130.167 390.5,120.5 Z"/></g>
<g><path style="opacity:1" fill="#ff8495" d="M 420.5,120.5 C 420.833,120.5 421.167,120.5 421.5,120.5C 421.5,130.167 421.5,139.833 421.5,149.5C 431.167,149.5 440.833,149.5 450.5,149.5C 450.5,149.833 450.5,150.167 450.5,150.5C 440.5,150.5 430.5,150.5 420.5,150.5C 420.5,140.5 420.5,130.5 420.5,120.5 Z"/></g>
<g><path style="opacity:0.994" fill="#000000" d="M 481.5,149.5 C 491.5,149.5 501.5,149.5 511.5,149.5C 511.5,220.167 511.5,290.833 511.5,361.5C 501.5,361.5 491.5,361.5 481.5,361.5C 481.5,361.167 481.5,360.833 481.5,360.5C 481.5,340.5 481.5,320.5 481.5,300.5C 481.5,290.5 481.5,280.5 481.5,270.5C 481.5,230.5 481.5,190.5 481.5,150.5C 481.5,150.167 481.5,149.833 481.5,149.5 Z"/></g>
<g><path style="opacity:1" fill="#fea5b1" d="M 29.5,150.5 C 39.5,150.5 49.5,150.5 59.5,150.5C 59.5,160.5 59.5,170.5 59.5,180.5C 59.5,190.5 59.5,200.5 59.5,210.5C 59.5,230.5 59.5,250.5 59.5,270.5C 49.5,270.5 39.5,270.5 29.5,270.5C 29.5,230.5 29.5,190.5 29.5,150.5 Z"/></g>
<g><path style="opacity:1" fill="#c63c4f" d="M 150.5,150.5 C 160.167,150.5 169.833,150.5 179.5,150.5C 179.5,160.167 179.5,169.833 179.5,179.5C 169.833,179.5 160.167,179.5 150.5,179.5C 150.5,169.833 150.5,160.167 150.5,150.5 Z"/></g>
<g><path style="opacity:1" fill="#020200" d="M 180.5,150.5 C 230.5,150.5 280.5,150.5 330.5,150.5C 330.5,160.5 330.5,170.5 330.5,180.5C 280.5,180.5 230.5,180.5 180.5,180.5C 180.5,170.5 180.5,160.5 180.5,150.5 Z"/></g>
<g><path style="opacity:1" fill="#c63c4f" d="M 331.5,150.5 C 341.167,150.5 350.833,150.5 360.5,150.5C 360.5,160.167 360.5,169.833 360.5,179.5C 350.833,179.5 341.167,179.5 331.5,179.5C 331.5,169.833 331.5,160.167 331.5,150.5 Z"/></g>
<g><path style="opacity:1" fill="#fea5b1" d="M 451.5,150.5 C 461.5,150.5 471.5,150.5 481.5,150.5C 481.5,190.5 481.5,230.5 481.5,270.5C 471.5,270.5 461.5,270.5 451.5,270.5C 451.5,230.5 451.5,190.5 451.5,150.5 Z"/></g>
<g><path style="opacity:1" fill="#8d2a38" d="M 179.5,150.5 C 179.833,150.5 180.167,150.5 180.5,150.5C 180.5,160.5 180.5,170.5 180.5,180.5C 180.167,180.5 179.833,180.5 179.5,180.5C 169.833,180.5 160.167,180.5 150.5,180.5C 150.5,180.167 150.5,179.833 150.5,179.5C 160.167,179.5 169.833,179.5 179.5,179.5C 179.5,169.833 179.5,160.167 179.5,150.5 Z"/></g>
<g><path style="opacity:1" fill="#8d2a38" d="M 330.5,150.5 C 330.833,150.5 331.167,150.5 331.5,150.5C 331.5,160.167 331.5,169.833 331.5,179.5C 341.167,179.5 350.833,179.5 360.5,179.5C 360.5,179.833 360.5,180.167 360.5,180.5C 350.833,180.5 341.167,180.5 331.5,180.5C 331.167,180.5 330.833,180.5 330.5,180.5C 330.5,170.5 330.5,160.5 330.5,150.5 Z"/></g>
<g><path style="opacity:1" fill="#fed943" d="M 60.5,180.5 C 70.1667,180.5 79.8333,180.5 89.5,180.5C 89.5,190.167 89.5,199.833 89.5,209.5C 79.8333,209.5 70.1667,209.5 60.5,209.5C 60.5,199.833 60.5,190.167 60.5,180.5 Z"/></g>
<g><path style="opacity:1" fill="#f58699" d="M 149.5,180.5 C 139.833,180.5 130.167,180.5 120.5,180.5C 120.5,200.5 120.5,220.5 120.5,240.5C 120.827,250.681 120.494,260.681 119.5,270.5C 119.5,260.5 119.5,250.5 119.5,240.5C 119.5,220.167 119.5,199.833 119.5,179.5C 129.681,179.173 139.681,179.506 149.5,180.5 Z"/></g>
<g><path style="opacity:1" fill="#fba3af" d="M 149.5,180.5 C 149.833,180.5 150.167,180.5 150.5,180.5C 150.5,200.5 150.5,220.5 150.5,240.5C 140.5,240.5 130.5,240.5 120.5,240.5C 120.5,220.5 120.5,200.5 120.5,180.5C 130.167,180.5 139.833,180.5 149.5,180.5 Z"/></g>
<g><path style="opacity:1" fill="#000000" d="M 150.5,180.5 C 160.167,180.5 169.833,180.5 179.5,180.5C 179.5,200.5 179.5,220.5 179.5,240.5C 169.833,240.5 160.167,240.5 150.5,240.5C 150.5,220.5 150.5,200.5 150.5,180.5 Z"/></g>
<g><path style="opacity:1" fill="#000000" d="M 331.5,180.5 C 341.167,180.5 350.833,180.5 360.5,180.5C 360.5,200.5 360.5,220.5 360.5,240.5C 350.833,240.5 341.167,240.5 331.5,240.5C 331.5,220.5 331.5,200.5 331.5,180.5 Z"/></g>
<g><path style="opacity:1" fill="#fba3af" d="M 360.5,180.5 C 360.833,180.5 361.167,180.5 361.5,180.5C 371.167,180.5 380.833,180.5 390.5,180.5C 390.173,190.681 390.506,200.681 391.5,210.5C 391.5,220.5 391.5,230.5 391.5,240.5C 381.167,240.5 370.833,240.5 360.5,240.5C 360.5,220.5 360.5,200.5 360.5,180.5 Z"/></g>
<g><path style="opacity:1" fill="#ffc553" d="M 59.5,180.5 C 59.8333,180.5 60.1667,180.5 60.5,180.5C 60.5,190.167 60.5,199.833 60.5,209.5C 70.1667,209.5 79.8333,209.5 89.5,209.5C 79.6806,210.494 69.6806,210.827 59.5,210.5C 59.5,200.5 59.5,190.5 59.5,180.5 Z"/></g>
<g><path style="opacity:1" fill="#b7afcf" d="M 390.5,180.5 C 390.833,180.5 391.167,180.5 391.5,180.5C 391.5,190.167 391.5,199.833 391.5,209.5C 401.167,209.5 410.833,209.5 420.5,209.5C 420.5,199.833 420.5,190.167 420.5,180.5C 421.494,190.319 421.827,200.319 421.5,210.5C 411.5,210.5 401.5,210.5 391.5,210.5C 390.506,200.681 390.173,190.681 390.5,180.5 Z"/></g>
<g><path style="opacity:1" fill="#95c7ed" d="M 391.5,180.5 C 401.167,180.5 410.833,180.5 420.5,180.5C 420.5,190.167 420.5,199.833 420.5,209.5C 410.833,209.5 401.167,209.5 391.5,209.5C 391.5,199.833 391.5,190.167 391.5,180.5 Z"/></g>
<g><path style="opacity:1" fill="#7f5b1c" d="M 179.5,180.5 C 179.833,180.5 180.167,180.5 180.5,180.5C 180.5,190.5 180.5,200.5 180.5,210.5C 230.5,210.5 280.5,210.5 330.5,210.5C 330.5,200.5 330.5,190.5 330.5,180.5C 330.833,180.5 331.167,180.5 331.5,180.5C 331.5,200.5 331.5,220.5 331.5,240.5C 331.167,240.5 330.833,240.5 330.5,240.5C 280.5,240.5 230.5,240.5 180.5,240.5C 180.167,240.5 179.833,240.5 179.5,240.5C 179.5,220.5 179.5,200.5 179.5,180.5 Z"/></g>
<g><path style="opacity:1" fill="#bb8f4e" d="M 180.5,180.5 C 230.5,180.5 280.5,180.5 330.5,180.5C 330.5,190.5 330.5,200.5 330.5,210.5C 280.5,210.5 230.5,210.5 180.5,210.5C 180.5,200.5 180.5,190.5 180.5,180.5 Z"/></g>
<g><path style="opacity:1" fill="#96c5ec" d="M 119.5,240.5 C 119.5,250.5 119.5,260.5 119.5,270.5C 109.5,270.5 99.5,270.5 89.5,270.5C 89.5,260.5 89.5,250.5 89.5,240.5C 99.5,240.5 109.5,240.5 119.5,240.5 Z"/></g>
<g><path style="opacity:1" fill="#fca4b0" d="M 150.5,240.5 C 160.167,240.5 169.833,240.5 179.5,240.5C 179.833,240.5 180.167,240.5 180.5,240.5C 180.5,250.5 180.5,260.5 180.5,270.5C 170.5,270.5 160.5,270.5 150.5,270.5C 150.5,260.5 150.5,250.5 150.5,240.5 Z"/></g>
<g><path style="opacity:1" fill="#000000" d="M 180.5,240.5 C 230.5,240.5 280.5,240.5 330.5,240.5C 330.5,250.5 330.5,260.5 330.5,270.5C 280.5,270.5 230.5,270.5 180.5,270.5C 180.5,260.5 180.5,250.5 180.5,240.5 Z"/></g>
<g><path style="opacity:1" fill="#fca4b0" d="M 330.5,240.5 C 330.833,240.5 331.167,240.5 331.5,240.5C 341.167,240.5 350.833,240.5 360.5,240.5C 360.5,250.5 360.5,260.5 360.5,270.5C 350.5,270.5 340.5,270.5 330.5,270.5C 330.5,260.5 330.5,250.5 330.5,240.5 Z"/></g>
<g><path style="opacity:1" fill="#942a39" d="M 29.5,270.5 C 39.5,270.5 49.5,270.5 59.5,270.5C 59.5,280.5 59.5,290.5 59.5,300.5C 49.5,300.5 39.5,300.5 29.5,300.5C 29.5,290.5 29.5,280.5 29.5,270.5 Z"/></g>
<g><path style="opacity:1" fill="#fea5b1" d="M 180.5,270.5 C 230.5,270.5 280.5,270.5 330.5,270.5C 330.5,280.5 330.5,290.5 330.5,300.5C 320.5,300.5 310.5,300.5 300.5,300.5C 270.5,300.5 240.5,300.5 210.5,300.5C 200.5,300.5 190.5,300.5 180.5,300.5C 180.5,290.5 180.5,280.5 180.5,270.5 Z"/></g>
<g><path style="opacity:1" fill="#942a39" d="M 451.5,270.5 C 461.5,270.5 471.5,270.5 481.5,270.5C 481.5,280.5 481.5,290.5 481.5,300.5C 471.5,300.5 461.5,300.5 451.5,300.5C 451.5,290.5 451.5,280.5 451.5,270.5 Z"/></g>
<g><path style="opacity:1" fill="#bb8f4e" d="M 29.5,300.5 C 39.5,300.5 49.5,300.5 59.5,300.5C 69.5,300.5 79.5,300.5 89.5,300.5C 89.5,310.5 89.5,320.5 89.5,330.5C 89.5,330.833 89.5,331.167 89.5,331.5C 79.5,331.5 69.5,331.5 59.5,331.5C 59.5,341.167 59.5,350.833 59.5,360.5C 49.5,360.5 39.5,360.5 29.5,360.5C 29.5,340.5 29.5,320.5 29.5,300.5 Z"/></g>
<g><path style="opacity:1" fill="#952b3a" d="M 59.5,300.5 C 69.5,300.5 79.5,300.5 89.5,300.5C 89.5,310.5 89.5,320.5 89.5,330.5C 79.5,330.5 69.5,330.5 59.5,330.5C 59.5,320.5 59.5,310.5 59.5,300.5 Z"/></g>
<g><path style="opacity:1" fill="#805d1c" d="M 180.5,301.5 C 190.167,301.5 199.833,301.5 209.5,301.5C 209.5,311.167 209.5,320.833 209.5,330.5C 209.5,320.833 209.5,311.167 209.5,301.5C 199.833,301.5 190.167,301.5 180.5,301.5 Z"/></g>
<g><path style="opacity:1" fill="#986231" d="M 180.5,301.5 C 180.5,301.167 180.5,300.833 180.5,300.5C 190.5,300.5 200.5,300.5 210.5,300.5C 210.827,310.681 210.494,320.681 209.5,330.5C 209.5,320.833 209.5,311.167 209.5,301.5C 199.833,301.5 190.167,301.5 180.5,301.5 Z"/></g>
<g><path style="opacity:1" fill="#986231" d="M 300.5,300.5 C 310.5,300.5 320.5,300.5 330.5,300.5C 330.5,300.833 330.5,301.167 330.5,301.5C 320.833,301.5 311.167,301.5 301.5,301.5C 301.5,311.167 301.5,320.833 301.5,330.5C 300.506,320.681 300.173,310.681 300.5,300.5 Z"/></g>
<g><path style="opacity:1" fill="#805d1c" d="M 330.5,301.5 C 330.5,311.167 330.5,320.833 330.5,330.5C 320.833,330.5 311.167,330.5 301.5,330.5C 301.5,320.833 301.5,311.167 301.5,301.5C 311.167,301.5 320.833,301.5 330.5,301.5 Z"/></g>
<g><path style="opacity:1" fill="#952b3a" d="M 451.5,300.5 C 451.5,310.5 451.5,320.5 451.5,330.5C 441.5,330.5 431.5,330.5 421.5,330.5C 421.5,320.5 421.5,310.5 421.5,300.5C 431.5,300.5 441.5,300.5 451.5,300.5 Z"/></g>
<g><path style="opacity:1" fill="#bb8f4e" d="M 451.5,300.5 C 461.5,300.5 471.5,300.5 481.5,300.5C 481.5,320.5 481.5,340.5 481.5,360.5C 471.5,360.5 461.5,360.5 451.5,360.5C 451.5,350.833 451.5,341.167 451.5,331.5C 441.5,331.5 431.5,331.5 421.5,331.5C 421.5,331.167 421.5,330.833 421.5,330.5C 431.5,330.5 441.5,330.5 451.5,330.5C 451.5,320.5 451.5,310.5 451.5,300.5 Z"/></g>
<g><path style="opacity:1" fill="#ebc271" d="M 89.5,331.5 C 89.5,341.167 89.5,350.833 89.5,360.5C 79.8333,360.5 70.1667,360.5 60.5,360.5C 60.1667,360.5 59.8333,360.5 59.5,360.5C 59.5,350.833 59.5,341.167 59.5,331.5C 69.5,331.5 79.5,331.5 89.5,331.5 Z"/></g>
<g><path style="opacity:1" fill="#942a39" d="M 90.5,331.5 C 110.167,331.5 129.833,331.5 149.5,331.5C 149.5,341.167 149.5,350.833 149.5,360.5C 129.833,360.5 110.167,360.5 90.5,360.5C 90.5,350.833 90.5,341.167 90.5,331.5 Z"/></g>
<g><path style="opacity:1" fill="#942a39" d="M 420.5,331.5 C 420.5,341.167 420.5,350.833 420.5,360.5C 400.833,360.5 381.167,360.5 361.5,360.5C 361.5,350.833 361.5,341.167 361.5,331.5C 381.167,331.5 400.833,331.5 420.5,331.5 Z"/></g>
<g><path style="opacity:1" fill="#ebc271" d="M 421.5,331.5 C 431.5,331.5 441.5,331.5 451.5,331.5C 451.5,341.167 451.5,350.833 451.5,360.5C 451.167,360.5 450.833,360.5 450.5,360.5C 440.833,360.5 431.167,360.5 421.5,360.5C 421.5,350.833 421.5,341.167 421.5,331.5 Z"/></g>
<g><path style="opacity:1" fill="#c27a57" d="M 89.5,330.5 C 89.8333,330.5 90.1667,330.5 90.5,330.5C 90.5,330.833 90.5,331.167 90.5,331.5C 90.5,341.167 90.5,350.833 90.5,360.5C 110.167,360.5 129.833,360.5 149.5,360.5C 149.5,360.833 149.5,361.167 149.5,361.5C 129.5,361.5 109.5,361.5 89.5,361.5C 89.5,361.167 89.5,360.833 89.5,360.5C 89.5,350.833 89.5,341.167 89.5,331.5C 89.5,331.167 89.5,330.833 89.5,330.5 Z"/></g>
<g><path style="opacity:1" fill="#bc3f51" d="M 90.5,331.5 C 90.5,331.167 90.5,330.833 90.5,330.5C 110.5,330.5 130.5,330.5 150.5,330.5C 150.5,340.5 150.5,350.5 150.5,360.5C 220.5,360.5 290.5,360.5 360.5,360.5C 360.5,350.5 360.5,340.5 360.5,330.5C 380.5,330.5 400.5,330.5 420.5,330.5C 420.5,330.833 420.5,331.167 420.5,331.5C 400.833,331.5 381.167,331.5 361.5,331.5C 361.5,341.167 361.5,350.833 361.5,360.5C 361.5,360.833 361.5,361.167 361.5,361.5C 361.167,361.5 360.833,361.5 360.5,361.5C 290.5,361.5 220.5,361.5 150.5,361.5C 150.167,361.5 149.833,361.5 149.5,361.5C 149.5,361.167 149.5,360.833 149.5,360.5C 149.5,350.833 149.5,341.167 149.5,331.5C 129.833,331.5 110.167,331.5 90.5,331.5 Z"/></g>
<g><path style="opacity:1" fill="#c27a57" d="M 420.5,330.5 C 420.833,330.5 421.167,330.5 421.5,330.5C 421.5,330.833 421.5,331.167 421.5,331.5C 421.5,341.167 421.5,350.833 421.5,360.5C 421.5,360.833 421.5,361.167 421.5,361.5C 401.5,361.5 381.5,361.5 361.5,361.5C 361.5,361.167 361.5,360.833 361.5,360.5C 381.167,360.5 400.833,360.5 420.5,360.5C 420.5,350.833 420.5,341.167 420.5,331.5C 420.5,331.167 420.5,330.833 420.5,330.5 Z"/></g>
<g><path style="opacity:0.981" fill="#000000" d="M 29.5,361.5 C 39.5,361.5 49.5,361.5 59.5,361.5C 59.5,371.167 59.5,380.833 59.5,390.5C 59.5,390.833 59.5,391.167 59.5,391.5C 49.5,391.5 39.5,391.5 29.5,391.5C 29.5,381.5 29.5,371.5 29.5,361.5 Z"/></g>
<g><path style="opacity:1" fill="#785c32" d="M 29.5,361.5 C 29.5,361.167 29.5,360.833 29.5,360.5C 39.5,360.5 49.5,360.5 59.5,360.5C 59.8333,360.5 60.1667,360.5 60.5,360.5C 60.5,370.5 60.5,380.5 60.5,390.5C 60.1667,390.5 59.8333,390.5 59.5,390.5C 59.5,380.833 59.5,371.167 59.5,361.5C 49.5,361.5 39.5,361.5 29.5,361.5 Z"/></g>
<g><path style="opacity:1" fill="#bc904f" d="M 60.5,360.5 C 70.1667,360.5 79.8333,360.5 89.5,360.5C 89.5,360.833 89.5,361.167 89.5,361.5C 89.5,371.167 89.5,380.833 89.5,390.5C 79.8333,390.5 70.1667,390.5 60.5,390.5C 60.5,380.5 60.5,370.5 60.5,360.5 Z"/></g>
<g><path style="opacity:1" fill="#ebc271" d="M 89.5,361.5 C 109.5,361.5 129.5,361.5 149.5,361.5C 149.5,371.167 149.5,380.833 149.5,390.5C 129.833,390.5 110.167,390.5 90.5,390.5C 90.1667,390.5 89.8333,390.5 89.5,390.5C 89.5,380.833 89.5,371.167 89.5,361.5 Z"/></g>
<g><path style="opacity:1" fill="#ebc271" d="M 361.5,361.5 C 381.5,361.5 401.5,361.5 421.5,361.5C 421.5,371.167 421.5,380.833 421.5,390.5C 421.167,390.5 420.833,390.5 420.5,390.5C 400.833,390.5 381.167,390.5 361.5,390.5C 361.5,380.833 361.5,371.167 361.5,361.5 Z"/></g>
<g><path style="opacity:1" fill="#bc904f" d="M 421.5,360.5 C 431.167,360.5 440.833,360.5 450.5,360.5C 450.5,370.5 450.5,380.5 450.5,390.5C 440.833,390.5 431.167,390.5 421.5,390.5C 421.5,380.833 421.5,371.167 421.5,361.5C 421.5,361.167 421.5,360.833 421.5,360.5 Z"/></g>
<g><path style="opacity:1" fill="#785c32" d="M 450.5,360.5 C 450.833,360.5 451.167,360.5 451.5,360.5C 461.5,360.5 471.5,360.5 481.5,360.5C 481.5,360.833 481.5,361.167 481.5,361.5C 471.5,361.5 461.5,361.5 451.5,361.5C 451.5,371.167 451.5,380.833 451.5,390.5C 451.167,390.5 450.833,390.5 450.5,390.5C 450.5,380.5 450.5,370.5 450.5,360.5 Z"/></g>
<g><path style="opacity:0.981" fill="#000000" d="M 481.5,361.5 C 481.5,371.5 481.5,381.5 481.5,391.5C 471.5,391.5 461.5,391.5 451.5,391.5C 451.5,391.167 451.5,390.833 451.5,390.5C 451.5,380.833 451.5,371.167 451.5,361.5C 461.5,361.5 471.5,361.5 481.5,361.5 Z"/></g>
<g><path style="opacity:0.981" fill="#000000" d="M 59.5,391.5 C 69.5,391.5 79.5,391.5 89.5,391.5C 89.5,401.5 89.5,411.5 89.5,421.5C 89.5,411.5 89.5,401.5 89.5,391.5C 79.5,391.5 69.5,391.5 59.5,391.5 Z"/></g>
<g><path style="opacity:1" fill="#bb904e" d="M 90.5,391.5 C 110.167,391.5 129.833,391.5 149.5,391.5C 149.5,401.167 149.5,410.833 149.5,420.5C 129.833,420.5 110.167,420.5 90.5,420.5C 90.5,410.833 90.5,401.167 90.5,391.5 Z"/></g>
<g><path style="opacity:1" fill="#bb904e" d="M 420.5,391.5 C 420.5,401.167 420.5,410.833 420.5,420.5C 400.833,420.5 381.167,420.5 361.5,420.5C 361.5,410.833 361.5,401.167 361.5,391.5C 381.167,391.5 400.833,391.5 420.5,391.5 Z"/></g>
<g><path style="opacity:0.981" fill="#000000" d="M 451.5,391.5 C 451.5,401.5 451.5,411.5 451.5,421.5C 441.5,421.5 431.5,421.5 421.5,421.5C 421.5,411.5 421.5,401.5 421.5,391.5C 431.5,391.5 441.5,391.5 451.5,391.5 Z"/></g>
<g><path style="opacity:1" fill="#775c31" d="M 59.5,391.5 C 59.5,391.167 59.5,390.833 59.5,390.5C 59.8333,390.5 60.1667,390.5 60.5,390.5C 70.1667,390.5 79.8333,390.5 89.5,390.5C 89.8333,390.5 90.1667,390.5 90.5,390.5C 90.5,390.833 90.5,391.167 90.5,391.5C 90.5,401.167 90.5,410.833 90.5,420.5C 110.167,420.5 129.833,420.5 149.5,420.5C 149.5,420.833 149.5,421.167 149.5,421.5C 129.5,421.5 109.5,421.5 89.5,421.5C 89.5,411.5 89.5,401.5 89.5,391.5C 79.5,391.5 69.5,391.5 59.5,391.5 Z"/></g>
<g><path style="opacity:1" fill="#d09b5f" d="M 149.5,361.5 C 149.833,361.5 150.167,361.5 150.5,361.5C 150.5,371.167 150.5,380.833 150.5,390.5C 220.5,390.5 290.5,390.5 360.5,390.5C 360.5,380.833 360.5,371.167 360.5,361.5C 360.833,361.5 361.167,361.5 361.5,361.5C 361.5,371.167 361.5,380.833 361.5,390.5C 381.167,390.5 400.833,390.5 420.5,390.5C 420.5,390.833 420.5,391.167 420.5,391.5C 400.833,391.5 381.167,391.5 361.5,391.5C 361.5,401.167 361.5,410.833 361.5,420.5C 361.5,420.833 361.5,421.167 361.5,421.5C 361.167,421.5 360.833,421.5 360.5,421.5C 290.5,421.5 220.5,421.5 150.5,421.5C 150.167,421.5 149.833,421.5 149.5,421.5C 149.5,421.167 149.5,420.833 149.5,420.5C 149.5,410.833 149.5,401.167 149.5,391.5C 129.833,391.5 110.167,391.5 90.5,391.5C 90.5,391.167 90.5,390.833 90.5,390.5C 110.167,390.5 129.833,390.5 149.5,390.5C 149.5,380.833 149.5,371.167 149.5,361.5 Z"/></g>
<g><path style="opacity:1" fill="#ebc371" d="M 150.5,391.5 C 220.5,391.5 290.5,391.5 360.5,391.5C 360.5,401.167 360.5,410.833 360.5,420.5C 290.5,420.5 220.5,420.5 150.5,420.5C 150.5,410.833 150.5,401.167 150.5,391.5 Z"/></g>
<g><path style="opacity:1" fill="#942a39" d="M 150.5,361.5 C 220.5,361.5 290.5,361.5 360.5,361.5C 360.5,371.167 360.5,380.833 360.5,390.5C 290.5,390.5 220.5,390.5 150.5,390.5C 150.5,380.833 150.5,371.167 150.5,361.5 Z"/></g>
<g><path style="opacity:1" fill="#775c31" d="M 420.5,390.5 C 420.833,390.5 421.167,390.5 421.5,390.5C 431.167,390.5 440.833,390.5 450.5,390.5C 450.833,390.5 451.167,390.5 451.5,390.5C 451.5,390.833 451.5,391.167 451.5,391.5C 441.5,391.5 431.5,391.5 421.5,391.5C 421.5,401.5 421.5,411.5 421.5,421.5C 401.5,421.5 381.5,421.5 361.5,421.5C 361.5,421.167 361.5,420.833 361.5,420.5C 381.167,420.5 400.833,420.5 420.5,420.5C 420.5,410.833 420.5,401.167 420.5,391.5C 420.5,391.167 420.5,390.833 420.5,390.5 Z"/></g>
<g><path style="opacity:0.986" fill="#000000" d="M 89.5,421.5 C 109.5,421.5 129.5,421.5 149.5,421.5C 149.5,431.5 149.5,441.5 149.5,451.5C 129.5,451.5 109.5,451.5 89.5,451.5C 89.5,441.5 89.5,431.5 89.5,421.5 Z"/></g>
<g><path style="opacity:0.986" fill="#000000" d="M 361.5,421.5 C 381.5,421.5 401.5,421.5 421.5,421.5C 421.5,431.5 421.5,441.5 421.5,451.5C 401.5,451.5 381.5,451.5 361.5,451.5C 361.5,441.5 361.5,431.5 361.5,421.5 Z"/></g>
<g><path style="opacity:1" fill="#816336" d="M 149.5,421.5 C 149.833,421.5 150.167,421.5 150.5,421.5C 150.5,431.167 150.5,440.833 150.5,450.5C 220.5,450.5 290.5,450.5 360.5,450.5C 360.5,440.833 360.5,431.167 360.5,421.5C 360.833,421.5 361.167,421.5 361.5,421.5C 361.5,431.5 361.5,441.5 361.5,451.5C 290.833,451.5 220.167,451.5 149.5,451.5C 149.5,441.5 149.5,431.5 149.5,421.5 Z"/></g>
<g><path style="opacity:1" fill="#bb904e" d="M 150.5,421.5 C 220.5,421.5 290.5,421.5 360.5,421.5C 360.5,431.167 360.5,440.833 360.5,450.5C 290.5,450.5 220.5,450.5 150.5,450.5C 150.5,440.833 150.5,431.167 150.5,421.5 Z"/></g>
<g><path style="opacity:0.991" fill="#000000" d="M 149.5,451.5 C 220.167,451.5 290.833,451.5 361.5,451.5C 361.5,461.5 361.5,471.5 361.5,481.5C 290.833,481.5 220.167,481.5 149.5,481.5C 149.5,471.5 149.5,461.5 149.5,451.5 Z"/></g>
</svg>
