<?xml version="1.0" encoding="UTF-8"?>
<!DOCTYPE svg PUBLIC "-//W3C//DTD SVG 1.1//EN" "http://www.w3.org/Graphics/SVG/1.1/DTD/svg11.dtd">
<svg xmlns="http://www.w3.org/2000/svg" version="1.1" width="512px" height="512px" style="shape-rendering:geometricPrecision; text-rendering:geometricPrecision; image-rendering:optimizeQuality; fill-rule:evenodd; clip-rule:evenodd" xmlns:xlink="http://www.w3.org/1999/xlink">
<g><path style="opacity:0.972" fill="#000000" d="M 119.5,-0.5 C 129.833,-0.5 140.167,-0.5 150.5,-0.5C 150.5,9.5 150.5,19.5 150.5,29.5C 140.167,29.5 129.833,29.5 119.5,29.5C 119.5,19.5 119.5,9.5 119.5,-0.5 Z"/></g>
<g><path style="opacity:0.985" fill="#000000" d="M 119.5,29.5 C 119.5,39.5 119.5,49.5 119.5,59.5C 109.5,59.5 99.5,59.5 89.5,59.5C 89.5,49.5 89.5,39.5 89.5,29.5C 99.5,29.5 109.5,29.5 119.5,29.5 Z"/></g>
<g><path style="opacity:0.987" fill="#000000" d="M 150.5,29.5 C 160.5,29.5 170.5,29.5 180.5,29.5C 180.5,39.5 180.5,49.5 180.5,59.5C 170.5,59.5 160.5,59.5 150.5,59.5C 150.5,49.5 150.5,39.5 150.5,29.5 Z"/></g>
<g><path style="opacity:1" fill="#f2831f" d="M 119.5,29.5 C 129.833,29.5 140.167,29.5 150.5,29.5C 150.5,39.5 150.5,49.5 150.5,59.5C 140.167,59.5 129.833,59.5 119.5,59.5C 119.5,49.5 119.5,39.5 119.5,29.5 Z"/></g>
<g><path style="opacity:0.964" fill="#000000" d="M 89.5,59.5 C 89.5,69.5 89.5,79.5 89.5,89.5C 89.5,89.8333 89.5,90.1667 89.5,90.5C 79.5,90.5 69.5,90.5 59.5,90.5C 59.5,80.1667 59.5,69.8333 59.5,59.5C 69.5,59.5 79.5,59.5 89.5,59.5 Z"/></g>
<g><path style="opacity:0.949" fill="#000000" d="M 301.5,59.5 C 311.5,59.5 321.5,59.5 331.5,59.5C 331.5,69.8333 331.5,80.1667 331.5,90.5C 321.5,90.5 311.5,90.5 301.5,90.5C 301.5,80.1667 301.5,69.8333 301.5,59.5 Z"/></g>
<g><path style="opacity:1" fill="#af8a04" d="M 89.5,59.5 C 99.5,59.5 109.5,59.5 119.5,59.5C 119.5,59.8333 119.5,60.1667 119.5,60.5C 109.833,60.5 100.167,60.5 90.5,60.5C 90.5,70.1667 90.5,79.8333 90.5,89.5C 90.1667,89.5 89.8333,89.5 89.5,89.5C 89.5,79.5 89.5,69.5 89.5,59.5 Z"/></g>
<g><path style="opacity:1" fill="#fec905" d="M 119.5,60.5 C 129.5,60.5 139.5,60.5 149.5,60.5C 149.5,70.1667 149.5,79.8333 149.5,89.5C 139.833,89.5 130.167,89.5 120.5,89.5C 110.5,89.5 100.5,89.5 90.5,89.5C 90.5,79.8333 90.5,70.1667 90.5,60.5C 100.167,60.5 109.833,60.5 119.5,60.5 Z"/></g>
<g><path style="opacity:1" fill="#fbb00f" d="M 119.5,60.5 C 119.5,60.1667 119.5,59.8333 119.5,59.5C 129.833,59.5 140.167,59.5 150.5,59.5C 150.5,69.5 150.5,79.5 150.5,89.5C 150.167,89.5 149.833,89.5 149.5,89.5C 149.5,79.8333 149.5,70.1667 149.5,60.5C 139.5,60.5 129.5,60.5 119.5,60.5 Z"/></g>
<g><path style="opacity:1" fill="#f4841f" d="M 150.5,59.5 C 160.5,59.5 170.5,59.5 180.5,59.5C 180.5,69.5 180.5,79.5 180.5,89.5C 170.5,89.5 160.5,89.5 150.5,89.5C 150.5,79.5 150.5,69.5 150.5,59.5 Z"/></g>
<g><path style="opacity:1" fill="#6e67d5" d="M 210.5,60.5 C 230.5,60.5 250.5,60.5 270.5,60.5C 270.5,70.1667 270.5,79.8333 270.5,89.5C 250.5,89.5 230.5,89.5 210.5,89.5C 210.5,79.8333 210.5,70.1667 210.5,60.5 Z"/></g>
<g><path style="opacity:1" fill="#55479c" d="M 210.5,60.5 C 240.329,59.5019 270.329,59.1686 300.5,59.5C 300.5,69.5 300.5,79.5 300.5,89.5C 290.5,89.5 280.5,89.5 270.5,89.5C 270.5,79.8333 270.5,70.1667 270.5,60.5C 250.5,60.5 230.5,60.5 210.5,60.5 Z"/></g>
<g><path style="opacity:1" fill="#28244d" d="M 300.5,59.5 C 300.833,59.5 301.167,59.5 301.5,59.5C 301.5,69.8333 301.5,80.1667 301.5,90.5C 270.995,90.8315 240.662,90.4981 210.5,89.5C 230.5,89.5 250.5,89.5 270.5,89.5C 280.5,89.5 290.5,89.5 300.5,89.5C 300.5,79.5 300.5,69.5 300.5,59.5 Z"/></g>
<g><path style="opacity:0.982" fill="#020202" d="M 301.5,59.5 C 301.167,59.5 300.833,59.5 300.5,59.5C 270.329,59.1686 240.329,59.5019 210.5,60.5C 210.5,70.1667 210.5,79.8333 210.5,89.5C 240.662,90.4981 270.995,90.8315 301.5,90.5C 301.5,110.167 301.5,129.833 301.5,149.5C 341.167,149.5 380.833,149.5 420.5,149.5C 420.5,139.833 420.5,130.167 420.5,120.5C 410.5,120.5 400.5,120.5 390.5,120.5C 390.5,110.167 390.5,99.8333 390.5,89.5C 420.833,89.5 451.167,89.5 481.5,89.5C 481.5,99.8333 481.5,110.167 481.5,120.5C 471.5,120.5 461.5,120.5 451.5,120.5C 451.5,130.167 451.5,139.833 451.5,149.5C 461.5,149.5 471.5,149.5 481.5,149.5C 481.5,159.5 481.5,169.5 481.5,179.5C 481.5,179.833 481.5,180.167 481.5,180.5C 461.5,180.5 441.5,180.5 421.5,180.5C 291.167,180.5 160.833,180.5 30.5,180.5C 30.1667,180.5 29.8333,180.5 29.5,180.5C 29.5,180.167 29.5,179.833 29.5,179.5C 29.5,169.5 29.5,159.5 29.5,149.5C 59.5,149.5 89.5,149.5 119.5,149.5C 119.5,139.833 119.5,130.167 119.5,120.5C 129.833,120.5 140.167,120.5 150.5,120.5C 150.5,130.167 150.5,139.833 150.5,149.5C 170.167,149.5 189.833,149.5 209.5,149.5C 209.5,129.833 209.5,110.167 209.5,90.5C 199.833,90.5 190.167,90.5 180.5,90.5C 180.5,90.1667 180.5,89.8333 180.5,89.5C 180.5,79.5 180.5,69.5 180.5,59.5C 190.167,59.5 199.833,59.5 209.5,59.5C 209.5,49.5 209.5,39.5 209.5,29.5C 240.167,29.5 270.833,29.5 301.5,29.5C 301.5,39.5 301.5,49.5 301.5,59.5 Z"/></g>
<g><path style="opacity:0.971" fill="#000000" d="M 89.5,90.5 C 99.5,90.5 109.5,90.5 119.5,90.5C 119.5,100.5 119.5,110.5 119.5,120.5C 119.5,110.5 119.5,100.5 119.5,90.5C 109.5,90.5 99.5,90.5 89.5,90.5 Z"/></g>
<g><path style="opacity:0.973" fill="#000000" d="M 180.5,90.5 C 180.5,100.5 180.5,110.5 180.5,120.5C 170.5,120.5 160.5,120.5 150.5,120.5C 150.5,110.5 150.5,100.5 150.5,90.5C 160.5,90.5 170.5,90.5 180.5,90.5 Z"/></g>
<g><path style="opacity:1" fill="#a3690d" d="M 89.5,90.5 C 89.5,90.1667 89.5,89.8333 89.5,89.5C 89.8333,89.5 90.1667,89.5 90.5,89.5C 100.5,89.5 110.5,89.5 120.5,89.5C 120.5,99.5 120.5,109.5 120.5,119.5C 130.167,119.5 139.833,119.5 149.5,119.5C 149.5,109.5 149.5,99.5 149.5,89.5C 149.833,89.5 150.167,89.5 150.5,89.5C 160.5,89.5 170.5,89.5 180.5,89.5C 180.5,89.8333 180.5,90.1667 180.5,90.5C 170.5,90.5 160.5,90.5 150.5,90.5C 150.5,100.5 150.5,110.5 150.5,120.5C 140.167,120.5 129.833,120.5 119.5,120.5C 119.5,110.5 119.5,100.5 119.5,90.5C 109.5,90.5 99.5,90.5 89.5,90.5 Z"/></g>
<g><path style="opacity:1" fill="#f5841f" d="M 120.5,89.5 C 130.167,89.5 139.833,89.5 149.5,89.5C 149.5,99.5 149.5,109.5 149.5,119.5C 139.833,119.5 130.167,119.5 120.5,119.5C 120.5,109.5 120.5,99.5 120.5,89.5 Z"/></g>
<g><path style="opacity:1" fill="#6a64ce" d="M 240.5,119.5 C 250.5,119.5 260.5,119.5 270.5,119.5C 270.5,129.833 270.5,140.167 270.5,150.5C 260.5,150.5 250.5,150.5 240.5,150.5C 240.5,140.167 240.5,129.833 240.5,119.5 Z"/></g>
<g><path style="opacity:0.997" fill="#000000" d="M -0.5,179.5 C 9.5,179.5 19.5,179.5 29.5,179.5C 29.5,179.833 29.5,180.167 29.5,180.5C 29.5,280.833 29.5,381.167 29.5,481.5C 19.5,481.5 9.5,481.5 -0.5,481.5C -0.5,380.833 -0.5,280.167 -0.5,179.5 Z"/></g>
<g><path style="opacity:0.997" fill="#000000" d="M 481.5,179.5 C 491.5,179.5 501.5,179.5 511.5,179.5C 511.5,280.167 511.5,380.833 511.5,481.5C 501.5,481.5 491.5,481.5 481.5,481.5C 481.5,381.167 481.5,280.833 481.5,180.5C 481.5,180.167 481.5,179.833 481.5,179.5 Z"/></g>
<g><path style="opacity:1" fill="#e7f0f8" d="M 30.5,180.5 C 160.833,180.5 291.167,180.5 421.5,180.5C 421.5,190.5 421.5,200.5 421.5,210.5C 431.5,210.5 441.5,210.5 451.5,210.5C 451.5,220.5 451.5,230.5 451.5,240.5C 421.167,240.5 390.833,240.5 360.5,240.5C 360.5,250.5 360.5,260.5 360.5,270.5C 390.5,270.5 420.5,270.5 450.5,270.5C 450.5,330.5 450.5,390.5 450.5,450.5C 440.652,450.173 430.986,450.506 421.5,451.5C 420.506,460.986 420.173,470.652 420.5,480.5C 290.5,480.5 160.5,480.5 30.5,480.5C 30.5,380.5 30.5,280.5 30.5,180.5 Z"/></g>
<g><path style="opacity:1" fill="#b4b7dc" d="M 421.5,180.5 C 441.5,180.5 461.5,180.5 481.5,180.5C 481.5,280.833 481.5,381.167 481.5,481.5C 461.5,481.5 441.5,481.5 421.5,481.5C 421.5,471.5 421.5,461.5 421.5,451.5C 431.5,451.5 441.5,451.5 451.5,451.5C 451.5,391.167 451.5,330.833 451.5,270.5C 451.5,260.5 451.5,250.5 451.5,240.5C 451.5,230.5 451.5,220.5 451.5,210.5C 441.5,210.5 431.5,210.5 421.5,210.5C 421.5,200.5 421.5,190.5 421.5,180.5 Z"/></g>
<g><path style="opacity:1" fill="#000000" d="M 270.5,240.5 C 260.5,240.5 250.5,240.5 240.5,240.5C 210.5,240.5 180.5,240.5 150.5,240.5C 150.5,230.5 150.5,220.5 150.5,210.5C 190.5,210.5 230.5,210.5 270.5,210.5C 270.5,220.5 270.5,230.5 270.5,240.5 Z"/></g>
<g><path style="opacity:1" fill="#010304" d="M 120.5,240.5 C 130.5,240.5 140.5,240.5 150.5,240.5C 150.5,250.5 150.5,260.5 150.5,270.5C 140.5,270.5 130.5,270.5 120.5,270.5C 120.5,260.5 120.5,250.5 120.5,240.5 Z"/></g>
<g><path style="opacity:1" fill="#03a5de" d="M 150.5,240.5 C 180.5,240.5 210.5,240.5 240.5,240.5C 240.5,250.5 240.5,260.5 240.5,270.5C 220.5,270.5 200.5,270.5 180.5,270.5C 180.5,280.5 180.5,290.5 180.5,300.5C 170.5,300.5 160.5,300.5 150.5,300.5C 150.5,320.5 150.5,340.5 150.5,360.5C 159.986,361.494 169.652,361.827 179.5,361.5C 179.5,371.5 179.5,381.5 179.5,391.5C 199.833,391.5 220.167,391.5 240.5,391.5C 240.5,401.167 240.5,410.833 240.5,420.5C 210.5,420.5 180.5,420.5 150.5,420.5C 150.5,410.5 150.5,400.5 150.5,390.5C 140.5,390.5 130.5,390.5 120.5,390.5C 120.5,350.5 120.5,310.5 120.5,270.5C 130.5,270.5 140.5,270.5 150.5,270.5C 150.5,260.5 150.5,250.5 150.5,240.5 Z"/></g>
<g><path style="opacity:1" fill="#0d73c9" d="M 240.5,240.5 C 250.5,240.5 260.5,240.5 270.5,240.5C 270.5,250.5 270.5,260.5 270.5,270.5C 260.5,270.5 250.5,270.5 240.5,270.5C 240.5,260.5 240.5,250.5 240.5,240.5 Z"/></g>
<g><path style="opacity:1" fill="#000000" d="M 270.5,240.5 C 280.5,240.5 290.5,240.5 300.5,240.5C 300.5,250.5 300.5,260.5 300.5,270.5C 290.5,270.5 280.5,270.5 270.5,270.5C 270.5,260.5 270.5,250.5 270.5,240.5 Z"/></g>
<g><path style="opacity:1" fill="#f6da2b" d="M 451.5,240.5 C 451.5,250.5 451.5,260.5 451.5,270.5C 451.167,270.5 450.833,270.5 450.5,270.5C 420.5,270.5 390.5,270.5 360.5,270.5C 360.5,260.5 360.5,250.5 360.5,240.5C 390.833,240.5 421.167,240.5 451.5,240.5 Z"/></g>
<g><path style="opacity:1" fill="#04a5de" d="M 240.5,270.5 C 250.5,270.5 260.5,270.5 270.5,270.5C 270.5,280.5 270.5,290.5 270.5,300.5C 260.5,300.5 250.5,300.5 240.5,300.5C 240.5,290.5 240.5,280.5 240.5,270.5 Z"/></g>
<g><path style="opacity:1" fill="#56595d" d="M 90.5,270.5 C 90.5,310.5 90.5,350.5 90.5,390.5C 100.167,390.5 109.833,390.5 119.5,390.5C 119.5,390.833 119.5,391.167 119.5,391.5C 109.5,391.5 99.5,391.5 89.5,391.5C 89.1681,350.997 89.5014,310.663 90.5,270.5 Z"/></g>
<g><path style="opacity:1" fill="#000000" d="M 90.5,270.5 C 100.167,270.5 109.833,270.5 119.5,270.5C 119.5,310.5 119.5,350.5 119.5,390.5C 109.833,390.5 100.167,390.5 90.5,390.5C 90.5,350.5 90.5,310.5 90.5,270.5 Z"/></g>
<g><path style="opacity:1" fill="#29617b" d="M 120.5,240.5 C 120.5,250.5 120.5,260.5 120.5,270.5C 120.5,310.5 120.5,350.5 120.5,390.5C 130.5,390.5 140.5,390.5 150.5,390.5C 150.5,400.5 150.5,410.5 150.5,420.5C 180.5,420.5 210.5,420.5 240.5,420.5C 240.5,420.833 240.5,421.167 240.5,421.5C 210.5,421.5 180.5,421.5 150.5,421.5C 150.5,431.5 150.5,441.5 150.5,451.5C 149.506,441.681 149.173,431.681 149.5,421.5C 149.5,421.167 149.5,420.833 149.5,420.5C 149.5,410.833 149.5,401.167 149.5,391.5C 139.833,391.5 130.167,391.5 120.5,391.5C 120.167,391.5 119.833,391.5 119.5,391.5C 119.5,391.167 119.5,390.833 119.5,390.5C 119.5,350.5 119.5,310.5 119.5,270.5C 119.173,260.319 119.506,250.319 120.5,240.5 Z"/></g>
<g><path style="opacity:1" fill="#000000" d="M 240.5,270.5 C 240.5,280.5 240.5,290.5 240.5,300.5C 220.5,300.5 200.5,300.5 180.5,300.5C 180.5,290.5 180.5,280.5 180.5,270.5C 200.5,270.5 220.5,270.5 240.5,270.5 Z"/></g>
<g><path style="opacity:1" fill="#0c74c8" d="M 270.5,270.5 C 280.5,270.5 290.5,270.5 300.5,270.5C 300.5,310.5 300.5,350.5 300.5,390.5C 300.5,390.833 300.5,391.167 300.5,391.5C 290.5,391.5 280.5,391.5 270.5,391.5C 270.5,381.167 270.5,370.833 270.5,360.5C 270.5,340.5 270.5,320.5 270.5,300.5C 270.5,290.5 270.5,280.5 270.5,270.5 Z"/></g>
<g><path style="opacity:1" fill="#010203" d="M 300.5,270.5 C 310.5,270.5 320.5,270.5 330.5,270.5C 330.5,310.5 330.5,350.5 330.5,390.5C 320.5,390.5 310.5,390.5 300.5,390.5C 300.5,350.5 300.5,310.5 300.5,270.5 Z"/></g>
<g><path style="opacity:1" fill="#dbe2f1" d="M 450.5,270.5 C 450.833,270.5 451.167,270.5 451.5,270.5C 451.5,330.833 451.5,391.167 451.5,451.5C 441.5,451.5 431.5,451.5 421.5,451.5C 430.986,450.506 440.652,450.173 450.5,450.5C 450.5,390.5 450.5,330.5 450.5,270.5 Z"/></g>
<g><path style="opacity:1" fill="#010104" d="M 180.5,300.5 C 180.5,300.833 180.5,301.167 180.5,301.5C 180.5,321.167 180.5,340.833 180.5,360.5C 170.5,360.5 160.5,360.5 150.5,360.5C 150.5,340.5 150.5,320.5 150.5,300.5C 160.5,300.5 170.5,300.5 180.5,300.5 Z"/></g>
<g><path style="opacity:1" fill="#6d66d4" d="M 180.5,301.5 C 190.5,301.5 200.5,301.5 210.5,301.5C 210.5,321.167 210.5,340.833 210.5,360.5C 200.5,360.5 190.5,360.5 180.5,360.5C 180.5,340.833 180.5,321.167 180.5,301.5 Z"/></g>
<g><path style="opacity:1" fill="#54469a" d="M 180.5,301.5 C 180.5,301.167 180.5,300.833 180.5,300.5C 200.5,300.5 220.5,300.5 240.5,300.5C 240.5,320.5 240.5,340.5 240.5,360.5C 240.5,360.833 240.5,361.167 240.5,361.5C 220.5,361.5 200.5,361.5 180.5,361.5C 180.5,361.167 180.5,360.833 180.5,360.5C 190.5,360.5 200.5,360.5 210.5,360.5C 210.5,340.833 210.5,321.167 210.5,301.5C 200.5,301.5 190.5,301.5 180.5,301.5 Z"/></g>
<g><path style="opacity:1" fill="#000000" d="M 240.5,300.5 C 250.5,300.5 260.5,300.5 270.5,300.5C 270.5,320.5 270.5,340.5 270.5,360.5C 260.5,360.5 250.5,360.5 240.5,360.5C 240.5,340.5 240.5,320.5 240.5,300.5 Z"/></g>
<g><path style="opacity:1" fill="#026486" d="M 150.5,360.5 C 160.5,360.5 170.5,360.5 180.5,360.5C 180.5,360.833 180.5,361.167 180.5,361.5C 180.5,371.167 180.5,380.833 180.5,390.5C 200.5,390.5 220.5,390.5 240.5,390.5C 240.5,390.833 240.5,391.167 240.5,391.5C 220.167,391.5 199.833,391.5 179.5,391.5C 179.5,381.5 179.5,371.5 179.5,361.5C 169.652,361.827 159.986,361.494 150.5,360.5 Z"/></g>
<g><path style="opacity:1" fill="#000000" d="M 180.5,361.5 C 200.5,361.5 220.5,361.5 240.5,361.5C 240.5,371.167 240.5,380.833 240.5,390.5C 220.5,390.5 200.5,390.5 180.5,390.5C 180.5,380.833 180.5,371.167 180.5,361.5 Z"/></g>
<g><path style="opacity:1" fill="#04a3db" d="M 240.5,360.5 C 250.5,360.5 260.5,360.5 270.5,360.5C 270.5,370.833 270.5,381.167 270.5,391.5C 260.5,391.5 250.5,391.5 240.5,391.5C 240.5,391.167 240.5,390.833 240.5,390.5C 240.5,380.833 240.5,371.167 240.5,361.5C 240.5,361.167 240.5,360.833 240.5,360.5 Z"/></g>
<g><path style="opacity:1" fill="#858a8f" d="M 330.5,270.5 C 331.499,310.663 331.832,350.997 331.5,391.5C 321.167,391.5 310.833,391.5 300.5,391.5C 300.5,391.167 300.5,390.833 300.5,390.5C 310.5,390.5 320.5,390.5 330.5,390.5C 330.5,350.5 330.5,310.5 330.5,270.5 Z"/></g>
<g><path style="opacity:1" fill="#000000" d="M 120.5,391.5 C 130.167,391.5 139.833,391.5 149.5,391.5C 149.5,401.167 149.5,410.833 149.5,420.5C 139.833,420.5 130.167,420.5 120.5,420.5C 120.5,410.833 120.5,401.167 120.5,391.5 Z"/></g>
<g><path style="opacity:1" fill="#0c73c8" d="M 240.5,391.5 C 250.5,391.5 260.5,391.5 270.5,391.5C 270.5,401.5 270.5,411.5 270.5,421.5C 260.5,421.5 250.5,421.5 240.5,421.5C 240.5,421.167 240.5,420.833 240.5,420.5C 240.5,410.833 240.5,401.167 240.5,391.5 Z"/></g>
<g><path style="opacity:1" fill="#040405" d="M 270.5,391.5 C 280.5,391.5 290.5,391.5 300.5,391.5C 300.5,401.5 300.5,411.5 300.5,421.5C 290.5,421.5 280.5,421.5 270.5,421.5C 270.5,411.5 270.5,401.5 270.5,391.5 Z"/></g>
<g><path style="opacity:1" fill="#5c6063" d="M 119.5,391.5 C 119.833,391.5 120.167,391.5 120.5,391.5C 120.5,401.167 120.5,410.833 120.5,420.5C 130.167,420.5 139.833,420.5 149.5,420.5C 149.5,420.833 149.5,421.167 149.5,421.5C 139.5,421.5 129.5,421.5 119.5,421.5C 119.5,411.5 119.5,401.5 119.5,391.5 Z"/></g>
<g><path style="opacity:1" fill="#020202" d="M 240.5,421.5 C 250.5,421.5 260.5,421.5 270.5,421.5C 270.5,431.5 270.5,441.5 270.5,451.5C 230.5,451.5 190.5,451.5 150.5,451.5C 150.5,441.5 150.5,431.5 150.5,421.5C 180.5,421.5 210.5,421.5 240.5,421.5 Z"/></g>
<g><path style="opacity:1" fill="#bc758d" d="M 89.5,421.5 C 90.494,431.319 90.8274,441.319 90.5,451.5C 80.1667,451.5 69.8333,451.5 59.5,451.5C 59.5,441.167 59.5,430.833 59.5,420.5C 69.6806,420.173 79.6806,420.506 89.5,421.5 Z"/></g>
<g><path style="opacity:1" fill="#e97097" d="M 89.5,421.5 C 89.5,431.167 89.5,440.833 89.5,450.5C 79.8333,450.5 70.1667,450.5 60.5,450.5C 60.5,440.833 60.5,431.167 60.5,421.5C 70.1667,421.5 79.8333,421.5 89.5,421.5 Z"/></g>
<g><path style="opacity:1" fill="#cdd5dc" d="M 29.5,180.5 C 29.8333,180.5 30.1667,180.5 30.5,180.5C 30.5,280.5 30.5,380.5 30.5,480.5C 160.5,480.5 290.5,480.5 420.5,480.5C 420.173,470.652 420.506,460.986 421.5,451.5C 421.5,461.5 421.5,471.5 421.5,481.5C 290.833,481.5 160.167,481.5 29.5,481.5C 29.5,381.167 29.5,280.833 29.5,180.5 Z"/></g>
<g><path style="opacity:0.999" fill="#000000" d="M 29.5,481.5 C 160.167,481.5 290.833,481.5 421.5,481.5C 441.5,481.5 461.5,481.5 481.5,481.5C 481.5,491.5 481.5,501.5 481.5,511.5C 330.833,511.5 180.167,511.5 29.5,511.5C 29.5,501.5 29.5,491.5 29.5,481.5 Z"/></g>
</svg>
