<?xml version="1.0" encoding="UTF-8"?>
<!DOCTYPE svg PUBLIC "-//W3C//DTD SVG 1.1//EN" "http://www.w3.org/Graphics/SVG/1.1/DTD/svg11.dtd">
<svg xmlns="http://www.w3.org/2000/svg" version="1.1" width="512px" height="512px" style="shape-rendering:geometricPrecision; text-rendering:geometricPrecision; image-rendering:optimizeQuality; fill-rule:evenodd; clip-rule:evenodd" xmlns:xlink="http://www.w3.org/1999/xlink">
<g><path style="opacity:0.938" fill="#1e4d58" d="M 134.5,78.5 C 130.261,77.2042 126.261,75.5375 122.5,73.5C 123.786,68.129 126.12,63.2957 129.5,59C 135.016,57.0754 138.349,58.9087 139.5,64.5C 137.828,69.1847 136.161,73.8513 134.5,78.5 Z"/></g>
<g><path style="opacity:0.977" fill="#fec133" d="M 122.5,73.5 C 126.261,75.5375 130.261,77.2042 134.5,78.5C 147.864,83.682 160.531,90.182 172.5,98C 175.903,100.281 178.737,103.114 181,106.5C 183.534,110.404 182.701,113.238 178.5,115C 159.342,115.794 141.009,112.294 123.5,104.5C 119.703,102.604 115.703,101.27 111.5,100.5C 96.8299,94.3305 82.8299,86.8305 69.5,78C 67.3333,75.8333 65.1667,73.6667 63,71.5C 60.2071,66.7401 61.3738,63.5734 66.5,62C 85.9323,62.0532 104.599,65.8865 122.5,73.5 Z"/></g>
<g><path style="opacity:0.92" fill="#1d4c58" d="M 400.5,90.5 C 396.787,92.685 392.787,94.3517 388.5,95.5C 386.867,91.4333 385.533,87.2666 384.5,83C 386.179,76.448 390.012,74.948 396,78.5C 397.798,82.422 399.298,86.422 400.5,90.5 Z"/></g>
<g><path style="opacity:0.977" fill="#fec133" d="M 410.5,114.5 C 406.832,115.556 403.165,116.722 399.5,118C 398.944,118.383 398.611,118.883 398.5,119.5C 387.422,123.27 376.089,126.103 364.5,128C 359.833,128.667 355.167,128.667 350.5,128C 347.621,126.334 346.788,123.834 348,120.5C 359.635,109.26 373.135,100.927 388.5,95.5C 392.787,94.3517 396.787,92.685 400.5,90.5C 416.588,84.1431 433.255,80.9765 450.5,81C 455.226,83.4179 455.726,86.5846 452,90.5C 439.465,100.686 425.632,108.686 410.5,114.5 Z"/></g>
<g><path style="opacity:0.934" fill="#1c4c58" d="M 111.5,100.5 C 115.703,101.27 119.703,102.604 123.5,104.5C 119.68,115.462 115.18,126.129 110,136.5C 108.269,138.617 106.102,140.117 103.5,141C 97.7943,143.069 92.1276,145.235 86.5,147.5C 85.3334,217.498 85.1667,287.498 86,357.5C 97.1004,370.023 108.434,382.356 120,394.5C 121.576,403.59 118.076,406.424 109.5,403C 101.667,394.5 93.8333,386 86,377.5C 85.6667,391.5 85.3333,405.5 85,419.5C 80.6985,424.946 76.6985,424.613 73,418.5C 72.6667,404.833 72.3333,391.167 72,377.5C 63.9496,386.428 55.783,395.262 47.5,404C 41.984,405.925 38.6507,404.091 37.5,398.5C 38.1369,395.893 39.3035,393.56 41,391.5C 51.3333,380.5 61.6667,369.5 72,358.5C 72.8333,289.831 72.6666,221.164 71.5,152.5C 61.3713,156.765 51.0379,160.432 40.5,163.5C 34.9055,162.422 33.0722,159.088 35,153.5C 35.9025,152.299 37.0692,151.465 38.5,151C 58.8333,143.333 79.1667,135.667 99.5,128C 103.68,118.817 107.68,109.651 111.5,100.5 Z"/></g>
<g><path style="opacity:0.934" fill="#1c4c58" d="M 410.5,114.5 C 413.881,122.814 417.547,130.981 421.5,139C 438.833,145.333 456.167,151.667 473.5,158C 478.626,160.553 479.793,164.386 477,169.5C 475.687,170.573 474.187,171.24 472.5,171.5C 463.207,168.459 454.041,165.125 445,161.5C 444.333,222.833 444.333,284.167 445,345.5C 454,355.167 463,364.833 472,374.5C 475.933,378.264 476.433,382.431 473.5,387C 470.833,389 468.167,389 465.5,387C 458.302,380.136 451.468,372.97 445,365.5C 444.667,377.167 444.333,388.833 444,400.5C 442.179,403.991 439.346,405.157 435.5,404C 433.667,403.5 432.5,402.333 432,400.5C 431.667,388.833 431.333,377.167 431,365.5C 424.5,372.667 418,379.833 411.5,387C 405.761,389.464 402.094,387.631 400.5,381.5C 400.719,380.062 401.219,378.729 402,377.5C 412.036,367.132 421.703,356.466 431,345.5C 431.833,282.497 431.667,219.497 430.5,156.5C 426.61,154.722 422.61,153.222 418.5,152C 415.241,150.789 412.408,148.956 410,146.5C 406.062,137.512 402.229,128.512 398.5,119.5C 398.611,118.883 398.944,118.383 399.5,118C 403.165,116.722 406.832,115.556 410.5,114.5 Z"/></g>
<g><path style="opacity:0.985" fill="#357ca2" d="M 235.5,184.5 C 218.461,176.987 201.127,169.987 183.5,163.5C 178.174,160.847 176.007,156.514 177,150.5C 178.698,145.145 182.364,142.145 188,141.5C 206.976,148.27 225.809,155.437 244.5,163C 247,164.167 248.833,166 250,168.5C 252.322,180.344 247.489,185.677 235.5,184.5 Z"/></g>
<g><path style="opacity:0.982" fill="#347ca2" d="M 329.5,163.5 C 311.771,169.738 294.437,176.738 277.5,184.5C 265.511,185.677 260.678,180.344 263,168.5C 264.167,166 266,164.167 268.5,163C 287.191,155.437 306.024,148.27 325,141.5C 335.666,144.155 338.666,150.488 334,160.5C 332.871,162.141 331.371,163.141 329.5,163.5 Z"/></g>
<g><path style="opacity:0.991" fill="#1b4d59" d="M 183.5,163.5 C 201.127,169.987 218.461,176.987 235.5,184.5C 233.458,190.921 231.125,197.254 228.5,203.5C 247.155,204.5 265.821,204.833 284.5,204.5C 282.174,197.844 279.84,191.177 277.5,184.5C 294.437,176.738 311.771,169.738 329.5,163.5C 333.5,173.5 337.5,183.5 341.5,193.5C 323.129,201.679 304.462,209.346 285.5,216.5C 278.5,216.5 271.5,216.5 264.5,216.5C 264.5,230.167 264.5,243.833 264.5,257.5C 260.167,257.5 255.833,257.5 251.5,257.5C 251.5,243.833 251.5,230.167 251.5,216.5C 243.5,216.5 235.5,216.5 227.5,216.5C 208.508,209.328 189.841,201.661 171.5,193.5C 175.5,183.5 179.5,173.5 183.5,163.5 Z"/></g>
<g><path style="opacity:0.982" fill="#357ca2" d="M 171.5,193.5 C 189.841,201.661 208.508,209.328 227.5,216.5C 233.688,227.085 230.855,233.752 219,236.5C 199.298,229.598 179.798,222.098 160.5,214C 154.392,206.182 155.392,199.515 163.5,194C 166.146,193.503 168.813,193.336 171.5,193.5 Z"/></g>
<g><path style="opacity:0.986" fill="#357ca2" d="M 341.5,193.5 C 355.121,193.62 359.288,199.954 354,212.5C 352.421,214.041 350.587,215.208 348.5,216C 330.469,223.269 312.302,230.102 294,236.5C 282.145,233.769 279.312,227.103 285.5,216.5C 304.462,209.346 323.129,201.679 341.5,193.5 Z"/></g>
<g><path style="opacity:0.985" fill="#347ba2" d="M 211.5,244.5 C 181.095,240.633 150.762,236.299 120.5,231.5C 119.584,231.543 118.917,231.876 118.5,232.5C 108.783,228.185 106.616,221.518 112,212.5C 114.615,210.36 117.615,209.36 121,209.5C 132.191,210.813 143.358,212.313 154.5,214C 156.167,215.667 157.833,217.333 159.5,219C 179.289,227.228 199.289,234.895 219.5,242C 217.126,244.418 214.459,245.252 211.5,244.5 Z"/></g>
<g><path style="opacity:0.991" fill="#1c4d59" d="M 211.5,244.5 C 210.538,251.566 209.205,258.566 207.5,265.5C 190.279,276.39 177.279,291.057 168.5,309.5C 148.428,306.751 128.428,303.751 108.5,300.5C 111.744,277.794 115.077,255.127 118.5,232.5C 118.917,231.876 119.584,231.543 120.5,231.5C 150.762,236.299 181.095,240.633 211.5,244.5 Z"/></g>
<g><path style="opacity:0.963" fill="#347ca2" d="M 405.5,267.5 C 374.5,267.5 343.5,267.5 312.5,267.5C 303.276,266.074 299.776,260.741 302,251.5C 303.167,249 305,247.167 307.5,246C 324.603,244.854 341.77,244.354 359,244.5C 376.23,244.354 393.397,244.854 410.5,246C 416.109,249.277 417.942,254.11 416,260.5C 413.944,265.065 410.444,267.398 405.5,267.5 Z"/></g>
<g><path style="opacity:0.99" fill="#367da2" d="M 251.5,257.5 C 255.833,257.5 260.167,257.5 264.5,257.5C 308.611,263.442 335.777,288.108 346,331.5C 348.069,343.542 347.902,355.542 345.5,367.5C 343.035,374.894 340.368,382.227 337.5,389.5C 332.043,400.293 324.709,409.626 315.5,417.5C 311.648,419.925 307.981,422.591 304.5,425.5C 272.233,443.895 239.9,443.895 207.5,425.5C 205.172,422.801 202.506,420.301 199.5,418C 198.552,417.517 197.552,417.351 196.5,417.5C 181.975,404.129 172.309,387.795 167.5,368.5C 167.376,363.951 166.709,359.618 165.5,355.5C 164.295,314.053 181.961,283.886 218.5,265C 228.971,260.132 239.971,257.632 251.5,257.5 Z"/></g>
<g><path style="opacity:0.992" fill="#1b4c58" d="M 312.5,267.5 C 343.5,267.5 374.5,267.5 405.5,267.5C 405.5,279.833 405.5,292.167 405.5,304.5C 384.5,304.5 363.5,304.5 342.5,304.5C 335.088,291.241 325.254,279.908 313,270.5C 312.517,269.552 312.351,268.552 312.5,267.5 Z"/></g>
<g><path style="opacity:1" fill="#fec133" d="M 244.5,279.5 C 280.458,276.344 305.958,291.011 321,323.5C 330.289,354.177 323.122,380.344 299.5,402C 275.021,418.841 249.354,420.841 222.5,408C 191.926,387.283 181.76,359.117 192,323.5C 202.137,299.849 219.637,285.182 244.5,279.5 Z"/></g>
<g><path style="opacity:0.984" fill="#347ca2" d="M 108.5,300.5 C 128.428,303.751 148.428,306.751 168.5,309.5C 165.691,316.262 163.691,323.262 162.5,330.5C 153.788,329.874 145.122,328.874 136.5,327.5C 132.433,325.946 128.1,325.28 123.5,325.5C 117.504,324.715 111.504,323.882 105.5,323C 96.6295,320.021 94.1295,314.188 98,305.5C 100.55,301.808 104.05,300.142 108.5,300.5 Z"/></g>
<g><path style="opacity:0.994" fill="#347ba1" d="M 342.5,304.5 C 363.5,304.5 384.5,304.5 405.5,304.5C 415.722,306.605 418.888,312.605 415,322.5C 413.048,324.894 410.548,326.394 407.5,327C 401.509,327.499 395.509,327.666 389.5,327.5C 385.167,326.167 380.833,326.167 376.5,327.5C 367.827,327.666 359.16,327.5 350.5,327C 348.13,319.39 345.464,311.89 342.5,304.5 Z"/></g>
<g><path style="opacity:0.928" fill="#1c4d59" d="M 123.5,325.5 C 128.1,325.28 132.433,325.946 136.5,327.5C 136.183,336.418 136.516,345.251 137.5,354C 146.726,355.445 156.06,355.945 165.5,355.5C 166.709,359.618 167.376,363.951 167.5,368.5C 157.161,368.666 146.828,368.5 136.5,368C 129.667,366.5 125.5,362.333 124,355.5C 123.5,345.506 123.334,335.506 123.5,325.5 Z"/></g>
<g><path style="opacity:0.938" fill="#1c4d59" d="M 389.5,327.5 C 389.666,334.508 389.5,341.508 389,348.5C 388.275,350.949 387.275,353.283 386,355.5C 369.954,367.053 353.787,378.386 337.5,389.5C 340.368,382.227 343.035,374.894 345.5,367.5C 355.899,360.88 366.065,353.88 376,346.5C 376.5,340.175 376.666,333.842 376.5,327.5C 380.833,326.167 385.167,326.167 389.5,327.5 Z"/></g>
<g><path style="opacity:0.935" fill="#1c4d58" d="M 196.5,417.5 C 197.552,417.351 198.552,417.517 199.5,418C 202.506,420.301 205.172,422.801 207.5,425.5C 201.046,433.793 194.379,441.959 187.5,450C 178.844,451.183 176.01,447.683 179,439.5C 185.082,432.318 190.916,424.985 196.5,417.5 Z"/></g>
<g><path style="opacity:0.926" fill="#1c4c58" d="M 315.5,417.5 C 321.453,425.292 327.62,432.959 334,440.5C 335.47,448.532 332.303,451.532 324.5,449.5C 317.815,441.429 311.148,433.429 304.5,425.5C 307.981,422.591 311.648,419.925 315.5,417.5 Z"/></g>
</svg>
