<?xml version="1.0" encoding="UTF-8"?>
<!DOCTYPE svg PUBLIC "-//W3C//DTD SVG 1.1//EN" "http://www.w3.org/Graphics/SVG/1.1/DTD/svg11.dtd">
<svg xmlns="http://www.w3.org/2000/svg" version="1.1" width="512px" height="512px" style="shape-rendering:geometricPrecision; text-rendering:geometricPrecision; image-rendering:optimizeQuality; fill-rule:evenodd; clip-rule:evenodd" xmlns:xlink="http://www.w3.org/1999/xlink">
<g><path style="opacity:0.977" fill="#ffc233" d="M 124.5,136.5 C 125.527,132.554 125.694,128.554 125,124.5C 123.311,121.333 121.478,118.333 119.5,115.5C 210.526,89.4929 301.526,63.3262 392.5,37C 409.018,36.502 415.185,44.3354 411,60.5C 408.876,64.313 405.709,66.813 401.5,68C 309.186,90.9953 216.852,113.829 124.5,136.5 Z"/></g>
<g><path style="opacity:0.984" fill="#fec132" d="M 291.5,177.5 C 286.968,178.763 282.635,180.597 278.5,183C 265.473,190.179 252.473,197.346 239.5,204.5C 234.167,207.5 228.833,210.5 223.5,213.5C 223.668,205.835 220.668,199.835 214.5,195.5C 224.37,189.736 234.037,183.736 243.5,177.5C 313.996,134.53 384.662,91.6966 455.5,49C 465.682,43.989 473.849,46.1557 480,55.5C 482.661,63.5194 480.828,70.3527 474.5,76C 413.116,109.354 352.116,143.187 291.5,177.5 Z"/></g>
<g><path style="opacity:0.987" fill="#f48a3b" d="M 119.5,115.5 C 121.478,118.333 123.311,121.333 125,124.5C 125.694,128.554 125.527,132.554 124.5,136.5C 119.045,148.657 109.545,154.657 96,154.5C 83.7337,155.378 75.7337,150.045 72,138.5C 71.1678,125.345 77.0011,116.512 89.5,112C 100.121,108.272 110.121,109.439 119.5,115.5 Z"/></g>
<g><path style="opacity:0.975" fill="#674025" d="M 243.5,177.5 C 234.037,183.736 224.37,189.736 214.5,195.5C 200.035,191.101 187.702,194.435 177.5,205.5C 142.167,205.5 106.833,205.5 71.5,205.5C 65.2376,206.128 59.2376,205.295 53.5,203C 48.0342,197.108 47.2009,190.608 51,183.5C 52.9384,180.894 55.4384,179.061 58.5,178C 120.166,177.5 181.832,177.333 243.5,177.5 Z"/></g>
<g><path style="opacity:0.982" fill="#674025" d="M 291.5,177.5 C 351.168,177.333 410.834,177.5 470.5,178C 479.955,181.409 483.121,187.909 480,197.5C 478.5,201 476,203.5 472.5,205C 467.845,205.499 463.179,205.666 458.5,205.5C 385.331,205.833 312.331,205.499 239.5,204.5C 252.473,197.346 265.473,190.179 278.5,183C 282.635,180.597 286.968,178.763 291.5,177.5 Z"/></g>
<g><path style="opacity:1" fill="#f3893a" d="M 214.5,195.5 C 220.668,199.835 223.668,205.835 223.5,213.5C 220.896,226.941 212.896,235.441 199.5,239C 180.327,241.823 171.494,233.656 173,214.5C 174.527,211.447 176.027,208.447 177.5,205.5C 187.702,194.435 200.035,191.101 214.5,195.5 Z"/></g>
<g><path style="opacity:0.999" fill="#906140" d="M 239.5,204.5 C 312.331,205.499 385.331,205.833 458.5,205.5C 458.5,219.833 458.5,234.167 458.5,248.5C 441.833,248.5 425.167,248.5 408.5,248.5C 404.5,248.5 400.5,248.5 396.5,248.5C 377.167,248.5 357.833,248.5 338.5,248.5C 338.5,260.5 338.5,272.5 338.5,284.5C 337.505,272.678 337.172,260.678 337.5,248.5C 333.833,248.5 330.167,248.5 326.5,248.5C 326.828,260.678 326.495,272.678 325.5,284.5C 325.5,272.5 325.5,260.5 325.5,248.5C 307.5,248.5 289.5,248.5 271.5,248.5C 271.5,260.5 271.5,272.5 271.5,284.5C 270.505,272.678 270.172,260.678 270.5,248.5C 266.833,248.5 263.167,248.5 259.5,248.5C 259.828,260.678 259.495,272.678 258.5,284.5C 258.5,272.5 258.5,260.5 258.5,248.5C 240.167,248.5 221.833,248.5 203.5,248.5C 199.833,248.5 196.167,248.5 192.5,248.5C 192.828,260.678 192.495,272.678 191.5,284.5C 191.5,272.5 191.5,260.5 191.5,248.5C 172.167,248.5 152.833,248.5 133.5,248.5C 129.5,248.5 125.5,248.5 121.5,248.5C 104.833,248.5 88.1667,248.5 71.5,248.5C 71.5,234.167 71.5,219.833 71.5,205.5C 106.833,205.5 142.167,205.5 177.5,205.5C 176.027,208.447 174.527,211.447 173,214.5C 171.494,233.656 180.327,241.823 199.5,239C 212.896,235.441 220.896,226.941 223.5,213.5C 228.833,210.5 234.167,207.5 239.5,204.5 Z"/></g>
<g><path style="opacity:1" fill="#1c4d58" d="M 121.5,248.5 C 125.5,248.5 129.5,248.5 133.5,248.5C 133.333,261.171 133.5,273.838 134,286.5C 135,287.5 136,288.5 137,289.5C 137.667,312.5 137.667,335.5 137,358.5C 136.74,360.618 135.74,362.284 134,363.5C 133.5,375.829 133.333,388.162 133.5,400.5C 129.5,400.5 125.5,400.5 121.5,400.5C 121.667,388.162 121.5,375.829 121,363.5C 119.615,362.449 118.615,361.116 118,359.5C 117.333,336.167 117.333,312.833 118,289.5C 119,288.167 120,286.833 121,285.5C 121.5,273.171 121.667,260.838 121.5,248.5 Z"/></g>
<g><path style="opacity:1" fill="#214e58" d="M 203.5,248.5 C 203.333,260.505 203.5,272.505 204,284.5C 205.829,286.156 207.163,288.156 208,290.5C 208.667,313.167 208.667,335.833 208,358.5C 207.163,360.844 205.829,362.844 204,364.5C 203.5,376.495 203.333,388.495 203.5,400.5C 199.833,400.5 196.167,400.5 192.5,400.5C 192.828,388.322 192.495,376.322 191.5,364.5C 189.59,363.025 188.424,361.025 188,358.5C 187.333,335.5 187.333,312.5 188,289.5C 188.997,287.677 190.164,286.01 191.5,284.5C 192.495,272.678 192.828,260.678 192.5,248.5C 196.167,248.5 199.833,248.5 203.5,248.5 Z"/></g>
<g><path style="opacity:1" fill="#214e58" d="M 271.5,284.5 C 272.907,286.308 274.074,288.308 275,290.5C 275.667,313.167 275.667,335.833 275,358.5C 274.436,360.887 273.27,362.887 271.5,364.5C 270.505,376.322 270.172,388.322 270.5,400.5C 266.833,400.5 263.167,400.5 259.5,400.5C 259.828,388.655 259.495,376.988 258.5,365.5C 256.82,363.473 255.653,361.139 255,358.5C 254.333,335.5 254.333,312.5 255,289.5C 255.997,287.677 257.164,286.01 258.5,284.5C 259.495,272.678 259.828,260.678 259.5,248.5C 263.167,248.5 266.833,248.5 270.5,248.5C 270.172,260.678 270.505,272.678 271.5,284.5 Z"/></g>
<g><path style="opacity:1" fill="#204e58" d="M 338.5,284.5 C 339.907,286.308 341.074,288.308 342,290.5C 342.667,313.167 342.667,335.833 342,358.5C 341.074,360.692 339.907,362.692 338.5,364.5C 337.505,376.322 337.172,388.322 337.5,400.5C 333.833,400.5 330.167,400.5 326.5,400.5C 326.828,388.322 326.495,376.322 325.5,364.5C 323.73,362.887 322.564,360.887 322,358.5C 321.333,335.5 321.333,312.5 322,289.5C 322.997,287.677 324.164,286.01 325.5,284.5C 326.495,272.678 326.828,260.678 326.5,248.5C 330.167,248.5 333.833,248.5 337.5,248.5C 337.172,260.678 337.505,272.678 338.5,284.5 Z"/></g>
<g><path style="opacity:1" fill="#1f4e58" d="M 396.5,248.5 C 400.5,248.5 404.5,248.5 408.5,248.5C 408.5,248.833 408.5,249.167 408.5,249.5C 408.333,261.838 408.5,274.171 409,286.5C 410.385,287.551 411.385,288.884 412,290.5C 412.667,312.833 412.667,335.167 412,357.5C 411.527,359.779 410.527,361.779 409,363.5C 408.5,375.829 408.333,388.162 408.5,400.5C 404.5,400.5 400.5,400.5 396.5,400.5C 396.667,388.162 396.5,375.829 396,363.5C 394.615,362.449 393.615,361.116 393,359.5C 392.333,336.167 392.333,312.833 393,289.5C 393.615,287.884 394.615,286.551 396,285.5C 396.5,273.171 396.667,260.838 396.5,248.5 Z"/></g>
<g><path style="opacity:1" fill="#fec133" d="M 71.5,248.5 C 88.1667,248.5 104.833,248.5 121.5,248.5C 121.667,260.838 121.5,273.171 121,285.5C 120,286.833 119,288.167 118,289.5C 117.333,312.833 117.333,336.167 118,359.5C 118.615,361.116 119.615,362.449 121,363.5C 121.5,375.829 121.667,388.162 121.5,400.5C 104.833,400.5 88.1667,400.5 71.5,400.5C 71.5,349.833 71.5,299.167 71.5,248.5 Z"/></g>
<g><path style="opacity:1" fill="#fec133" d="M 133.5,248.5 C 152.833,248.5 172.167,248.5 191.5,248.5C 191.5,260.5 191.5,272.5 191.5,284.5C 190.164,286.01 188.997,287.677 188,289.5C 187.333,312.5 187.333,335.5 188,358.5C 188.424,361.025 189.59,363.025 191.5,364.5C 191.5,376.5 191.5,388.5 191.5,400.5C 172.167,400.5 152.833,400.5 133.5,400.5C 133.333,388.162 133.5,375.829 134,363.5C 135.74,362.284 136.74,360.618 137,358.5C 137.667,335.5 137.667,312.5 137,289.5C 136,288.5 135,287.5 134,286.5C 133.5,273.838 133.333,261.171 133.5,248.5 Z"/></g>
<g><path style="opacity:1" fill="#fec133" d="M 203.5,248.5 C 221.833,248.5 240.167,248.5 258.5,248.5C 258.5,260.5 258.5,272.5 258.5,284.5C 257.164,286.01 255.997,287.677 255,289.5C 254.333,312.5 254.333,335.5 255,358.5C 255.653,361.139 256.82,363.473 258.5,365.5C 258.5,377.167 258.5,388.833 258.5,400.5C 240.167,400.5 221.833,400.5 203.5,400.5C 203.333,388.495 203.5,376.495 204,364.5C 205.829,362.844 207.163,360.844 208,358.5C 208.667,335.833 208.667,313.167 208,290.5C 207.163,288.156 205.829,286.156 204,284.5C 203.5,272.505 203.333,260.505 203.5,248.5 Z"/></g>
<g><path style="opacity:1" fill="#fec133" d="M 325.5,284.5 C 324.164,286.01 322.997,287.677 322,289.5C 321.333,312.5 321.333,335.5 322,358.5C 322.564,360.887 323.73,362.887 325.5,364.5C 325.5,376.5 325.5,388.5 325.5,400.5C 307.5,400.5 289.5,400.5 271.5,400.5C 271.5,388.5 271.5,376.5 271.5,364.5C 273.27,362.887 274.436,360.887 275,358.5C 275.667,335.833 275.667,313.167 275,290.5C 274.074,288.308 272.907,286.308 271.5,284.5C 271.5,272.5 271.5,260.5 271.5,248.5C 289.5,248.5 307.5,248.5 325.5,248.5C 325.5,260.5 325.5,272.5 325.5,284.5 Z"/></g>
<g><path style="opacity:1" fill="#fdc133" d="M 396.5,248.5 C 396.667,260.838 396.5,273.171 396,285.5C 394.615,286.551 393.615,287.884 393,289.5C 392.333,312.833 392.333,336.167 393,359.5C 393.615,361.116 394.615,362.449 396,363.5C 396.5,375.829 396.667,388.162 396.5,400.5C 377.167,400.5 357.833,400.5 338.5,400.5C 338.5,388.5 338.5,376.5 338.5,364.5C 339.907,362.692 341.074,360.692 342,358.5C 342.667,335.833 342.667,313.167 342,290.5C 341.074,288.308 339.907,286.308 338.5,284.5C 338.5,272.5 338.5,260.5 338.5,248.5C 357.833,248.5 377.167,248.5 396.5,248.5 Z"/></g>
<g><path style="opacity:1" fill="#fec133" d="M 408.5,249.5 C 424.833,249.5 441.167,249.5 457.5,249.5C 457.5,299.833 457.5,350.167 457.5,400.5C 441.167,400.5 424.833,400.5 408.5,400.5C 408.333,388.162 408.5,375.829 409,363.5C 410.527,361.779 411.527,359.779 412,357.5C 412.667,335.167 412.667,312.833 412,290.5C 411.385,288.884 410.385,287.551 409,286.5C 408.5,274.171 408.333,261.838 408.5,249.5 Z"/></g>
<g><path style="opacity:0.906" fill="#e6ac35" d="M 408.5,249.5 C 408.5,249.167 408.5,248.833 408.5,248.5C 425.167,248.5 441.833,248.5 458.5,248.5C 458.5,299.167 458.5,349.833 458.5,400.5C 458.167,400.5 457.833,400.5 457.5,400.5C 457.5,350.167 457.5,299.833 457.5,249.5C 441.167,249.5 424.833,249.5 408.5,249.5 Z"/></g>
<g><path style="opacity:1" fill="#676f4b" d="M 191.5,364.5 C 192.495,376.322 192.828,388.322 192.5,400.5C 196.167,400.5 199.833,400.5 203.5,400.5C 199.5,401.833 195.5,401.833 191.5,400.5C 191.5,388.5 191.5,376.5 191.5,364.5 Z"/></g>
<g><path style="opacity:1" fill="#6e734a" d="M 258.5,365.5 C 259.495,376.988 259.828,388.655 259.5,400.5C 263.167,400.5 266.833,400.5 270.5,400.5C 266.5,401.833 262.5,401.833 258.5,400.5C 258.5,388.833 258.5,377.167 258.5,365.5 Z"/></g>
<g><path style="opacity:0.999" fill="#916140" d="M 271.5,364.5 C 271.5,376.5 271.5,388.5 271.5,400.5C 289.5,400.5 307.5,400.5 325.5,400.5C 325.5,388.5 325.5,376.5 325.5,364.5C 326.495,376.322 326.828,388.322 326.5,400.5C 330.167,400.5 333.833,400.5 337.5,400.5C 337.172,388.322 337.505,376.322 338.5,364.5C 338.5,376.5 338.5,388.5 338.5,400.5C 357.833,400.5 377.167,400.5 396.5,400.5C 400.5,400.5 404.5,400.5 408.5,400.5C 424.833,400.5 441.167,400.5 457.5,400.5C 457.833,400.5 458.167,400.5 458.5,400.5C 458.5,414.833 458.5,429.167 458.5,443.5C 329.5,443.5 200.5,443.5 71.5,443.5C 71.5,429.167 71.5,414.833 71.5,400.5C 88.1667,400.5 104.833,400.5 121.5,400.5C 125.5,400.5 129.5,400.5 133.5,400.5C 152.833,400.5 172.167,400.5 191.5,400.5C 195.5,401.833 199.5,401.833 203.5,400.5C 221.833,400.5 240.167,400.5 258.5,400.5C 262.5,401.833 266.5,401.833 270.5,400.5C 270.172,388.322 270.505,376.322 271.5,364.5 Z"/></g>
<g><path style="opacity:0.998" fill="#674025" d="M 71.5,443.5 C 200.5,443.5 329.5,443.5 458.5,443.5C 464.434,442.889 470.1,443.722 475.5,446C 483.677,454.299 483.344,462.299 474.5,470C 473.5,470.333 472.5,470.667 471.5,471C 333.5,471.667 195.5,471.667 57.5,471C 48.4993,465.993 46.3326,458.826 51,449.5C 52.9384,446.894 55.4384,445.061 58.5,444C 62.8206,443.501 67.1539,443.334 71.5,443.5 Z"/></g>
</svg>
