<?xml version="1.0" encoding="UTF-8"?>
<!DOCTYPE svg PUBLIC "-//W3C//DTD SVG 1.1//EN" "http://www.w3.org/Graphics/SVG/1.1/DTD/svg11.dtd">
<svg xmlns="http://www.w3.org/2000/svg" version="1.1" width="512px" height="512px" style="shape-rendering:geometricPrecision; text-rendering:geometricPrecision; image-rendering:optimizeQuality; fill-rule:evenodd; clip-rule:evenodd" xmlns:xlink="http://www.w3.org/1999/xlink">
<g><path style="opacity:0.99" fill="#357ca2" d="M 414.5,95.5 C 409.808,95.4249 405.474,96.4249 401.5,98.5C 296.578,126.814 191.578,154.981 86.5,183C 198.833,183.5 311.166,183.667 423.5,183.5C 428.267,184.797 432.934,184.797 437.5,183.5C 443.077,183.371 447.244,185.704 450,190.5C 450.5,211.831 450.667,233.164 450.5,254.5C 454.846,254.334 459.179,254.501 463.5,255C 467.798,256.77 470.298,259.937 471,264.5C 471.942,281.553 471.609,298.553 470,315.5C 465.798,320.737 460.298,322.737 453.5,321.5C 440.833,320.167 428.167,320.167 415.5,321.5C 308.833,321.5 202.167,321.5 95.5,321.5C 82.598,320.179 69.598,320.179 56.5,321.5C 48.8722,322.935 43.3722,320.268 40,313.5C 39.3333,296.5 39.3333,279.5 40,262.5C 40.6898,259.804 42.1898,257.637 44.5,256C 49.4012,254.675 54.4012,254.175 59.5,254.5C 59.3334,233.831 59.5,213.164 60,192.5C 62.1045,186.74 66.2711,183.574 72.5,183C 64.6067,178.07 62.44,171.237 66,162.5C 67.5629,159.272 70.0629,157.105 73.5,156C 191.5,124.333 309.5,92.6667 427.5,61C 442.286,60.1222 448.119,66.9555 445,81.5C 443.108,85.0579 440.275,87.5579 436.5,89C 429.049,91.1909 421.715,93.3576 414.5,95.5 Z"/></g>
<g><path style="opacity:0.944" fill="#1c4d59" d="M 414.5,95.5 C 421.853,124.912 429.52,154.246 437.5,183.5C 432.934,184.797 428.267,184.797 423.5,183.5C 416.324,155.13 408.991,126.797 401.5,98.5C 405.474,96.4249 409.808,95.4249 414.5,95.5 Z"/></g>
<g><path style="opacity:1" fill="#f0893d" d="M 217.5,208.5 C 242.502,208.333 267.502,208.5 292.5,209C 299.283,212.401 301.116,217.567 298,224.5C 296.039,227.135 293.539,228.969 290.5,230C 266.833,230.667 243.167,230.667 219.5,230C 212.334,227.166 209.834,221.999 212,214.5C 213.36,211.977 215.193,209.977 217.5,208.5 Z"/></g>
<g><path style="opacity:1" fill="#fcc035" d="M 95.5,254.5 C 95.5,266.167 95.5,277.833 95.5,289.5C 89.1667,289.5 82.8333,289.5 76.5,289.5C 76.5,277.833 76.5,266.167 76.5,254.5C 82.8333,254.5 89.1667,254.5 95.5,254.5 Z"/></g>
<g><path style="opacity:1" fill="#f48b3a" d="M 95.5,254.5 C 99.5,254.5 103.5,254.5 107.5,254.5C 107.5,266.167 107.5,277.833 107.5,289.5C 103.5,289.5 99.5,289.5 95.5,289.5C 95.5,277.833 95.5,266.167 95.5,254.5 Z"/></g>
<g><path style="opacity:1" fill="#fcc135" d="M 107.5,254.5 C 113.833,254.5 120.167,254.5 126.5,254.5C 125.522,266.086 125.189,277.753 125.5,289.5C 119.5,289.5 113.5,289.5 107.5,289.5C 107.5,277.833 107.5,266.167 107.5,254.5 Z"/></g>
<g><path style="opacity:1" fill="#f48d3a" d="M 126.5,254.5 C 130.167,254.5 133.833,254.5 137.5,254.5C 138.478,266.086 138.811,277.753 138.5,289.5C 134.167,289.5 129.833,289.5 125.5,289.5C 125.189,277.753 125.522,266.086 126.5,254.5 Z"/></g>
<g><path style="opacity:1" fill="#fcc135" d="M 137.5,254.5 C 143.833,254.5 150.167,254.5 156.5,254.5C 156.5,266.167 156.5,277.833 156.5,289.5C 150.5,289.5 144.5,289.5 138.5,289.5C 138.811,277.753 138.478,266.086 137.5,254.5 Z"/></g>
<g><path style="opacity:1" fill="#f48b3a" d="M 156.5,254.5 C 160.5,254.5 164.5,254.5 168.5,254.5C 168.5,266.167 168.5,277.833 168.5,289.5C 164.5,289.5 160.5,289.5 156.5,289.5C 156.5,277.833 156.5,266.167 156.5,254.5 Z"/></g>
<g><path style="opacity:1" fill="#fcc035" d="M 168.5,254.5 C 174.833,254.5 181.167,254.5 187.5,254.5C 187.5,266.167 187.5,277.833 187.5,289.5C 181.167,289.5 174.833,289.5 168.5,289.5C 168.5,277.833 168.5,266.167 168.5,254.5 Z"/></g>
<g><path style="opacity:1" fill="#f38a3b" d="M 187.5,254.5 C 191.5,254.5 195.5,254.5 199.5,254.5C 199.5,266.167 199.5,277.833 199.5,289.5C 195.5,289.5 191.5,289.5 187.5,289.5C 187.5,277.833 187.5,266.167 187.5,254.5 Z"/></g>
<g><path style="opacity:1" fill="#fcc035" d="M 199.5,254.5 C 205.833,254.5 212.167,254.5 218.5,254.5C 218.5,266.167 218.5,277.833 218.5,289.5C 212.167,289.5 205.833,289.5 199.5,289.5C 199.5,277.833 199.5,266.167 199.5,254.5 Z"/></g>
<g><path style="opacity:1" fill="#f38a3b" d="M 218.5,254.5 C 222.5,254.5 226.5,254.5 230.5,254.5C 230.5,266.167 230.5,277.833 230.5,289.5C 226.5,289.5 222.5,289.5 218.5,289.5C 218.5,277.833 218.5,266.167 218.5,254.5 Z"/></g>
<g><path style="opacity:1" fill="#fcc035" d="M 230.5,254.5 C 236.833,254.5 243.167,254.5 249.5,254.5C 249.5,266.167 249.5,277.833 249.5,289.5C 243.167,289.5 236.833,289.5 230.5,289.5C 230.5,277.833 230.5,266.167 230.5,254.5 Z"/></g>
<g><path style="opacity:1" fill="#f38b3b" d="M 249.5,254.5 C 253.5,254.5 257.5,254.5 261.5,254.5C 261.5,266.167 261.5,277.833 261.5,289.5C 257.5,289.5 253.5,289.5 249.5,289.5C 249.5,277.833 249.5,266.167 249.5,254.5 Z"/></g>
<g><path style="opacity:1" fill="#fcbf35" d="M 261.5,254.5 C 267.833,254.5 274.167,254.5 280.5,254.5C 280.5,266.167 280.5,277.833 280.5,289.5C 274.167,289.5 267.833,289.5 261.5,289.5C 261.5,277.833 261.5,266.167 261.5,254.5 Z"/></g>
<g><path style="opacity:1" fill="#f48b3a" d="M 280.5,254.5 C 284.5,254.5 288.5,254.5 292.5,254.5C 292.5,266.167 292.5,277.833 292.5,289.5C 288.5,289.5 284.5,289.5 280.5,289.5C 280.5,277.833 280.5,266.167 280.5,254.5 Z"/></g>
<g><path style="opacity:1" fill="#fcc135" d="M 292.5,254.5 C 298.5,254.5 304.5,254.5 310.5,254.5C 310.5,266.167 310.5,277.833 310.5,289.5C 304.5,289.5 298.5,289.5 292.5,289.5C 292.5,277.833 292.5,266.167 292.5,254.5 Z"/></g>
<g><path style="opacity:1" fill="#f48b3a" d="M 310.5,254.5 C 314.5,254.5 318.5,254.5 322.5,254.5C 322.5,266.167 322.5,277.833 322.5,289.5C 318.5,289.5 314.5,289.5 310.5,289.5C 310.5,277.833 310.5,266.167 310.5,254.5 Z"/></g>
<g><path style="opacity:1" fill="#fcc035" d="M 322.5,254.5 C 328.833,254.5 335.167,254.5 341.5,254.5C 341.5,266.167 341.5,277.833 341.5,289.5C 335.167,289.5 328.833,289.5 322.5,289.5C 322.5,277.833 322.5,266.167 322.5,254.5 Z"/></g>
<g><path style="opacity:1" fill="#f38a3b" d="M 341.5,254.5 C 345.5,254.5 349.5,254.5 353.5,254.5C 353.5,266.167 353.5,277.833 353.5,289.5C 349.5,289.5 345.5,289.5 341.5,289.5C 341.5,277.833 341.5,266.167 341.5,254.5 Z"/></g>
<g><path style="opacity:1" fill="#fcc035" d="M 353.5,254.5 C 359.833,254.5 366.167,254.5 372.5,254.5C 372.5,266.167 372.5,277.833 372.5,289.5C 366.167,289.5 359.833,289.5 353.5,289.5C 353.5,277.833 353.5,266.167 353.5,254.5 Z"/></g>
<g><path style="opacity:1" fill="#f38a3b" d="M 372.5,254.5 C 376.5,254.5 380.5,254.5 384.5,254.5C 384.5,266.167 384.5,277.833 384.5,289.5C 380.5,289.5 376.5,289.5 372.5,289.5C 372.5,277.833 372.5,266.167 372.5,254.5 Z"/></g>
<g><path style="opacity:1" fill="#fcc035" d="M 384.5,254.5 C 390.833,254.5 397.167,254.5 403.5,254.5C 403.5,266.167 403.5,277.833 403.5,289.5C 397.167,289.5 390.833,289.5 384.5,289.5C 384.5,277.833 384.5,266.167 384.5,254.5 Z"/></g>
<g><path style="opacity:1" fill="#f38a3b" d="M 403.5,254.5 C 407.5,254.5 411.5,254.5 415.5,254.5C 415.5,254.833 415.5,255.167 415.5,255.5C 415.5,266.833 415.5,278.167 415.5,289.5C 411.5,289.5 407.5,289.5 403.5,289.5C 403.5,277.833 403.5,266.167 403.5,254.5 Z"/></g>
<g><path style="opacity:1" fill="#fec232" d="M 415.5,255.5 C 421.5,255.5 427.5,255.5 433.5,255.5C 433.5,266.833 433.5,278.167 433.5,289.5C 427.5,289.5 421.5,289.5 415.5,289.5C 415.5,278.167 415.5,266.833 415.5,255.5 Z"/></g>
<g><path style="opacity:1" fill="#b0a35e" d="M 415.5,255.5 C 415.5,255.167 415.5,254.833 415.5,254.5C 421.833,254.5 428.167,254.5 434.5,254.5C 434.5,266.5 434.5,278.5 434.5,290.5C 314.999,290.833 195.666,290.5 76.5,289.5C 82.8333,289.5 89.1667,289.5 95.5,289.5C 99.5,289.5 103.5,289.5 107.5,289.5C 113.5,289.5 119.5,289.5 125.5,289.5C 129.833,289.5 134.167,289.5 138.5,289.5C 144.5,289.5 150.5,289.5 156.5,289.5C 160.5,289.5 164.5,289.5 168.5,289.5C 174.833,289.5 181.167,289.5 187.5,289.5C 191.5,289.5 195.5,289.5 199.5,289.5C 205.833,289.5 212.167,289.5 218.5,289.5C 222.5,289.5 226.5,289.5 230.5,289.5C 236.833,289.5 243.167,289.5 249.5,289.5C 253.5,289.5 257.5,289.5 261.5,289.5C 267.833,289.5 274.167,289.5 280.5,289.5C 284.5,289.5 288.5,289.5 292.5,289.5C 298.5,289.5 304.5,289.5 310.5,289.5C 314.5,289.5 318.5,289.5 322.5,289.5C 328.833,289.5 335.167,289.5 341.5,289.5C 345.5,289.5 349.5,289.5 353.5,289.5C 359.833,289.5 366.167,289.5 372.5,289.5C 376.5,289.5 380.5,289.5 384.5,289.5C 390.833,289.5 397.167,289.5 403.5,289.5C 407.5,289.5 411.5,289.5 415.5,289.5C 421.5,289.5 427.5,289.5 433.5,289.5C 433.5,278.167 433.5,266.833 433.5,255.5C 427.5,255.5 421.5,255.5 415.5,255.5 Z"/></g>
<g><path style="opacity:0.972" fill="#1c4d59" d="M 95.5,321.5 C 92.5001,365.499 89.5001,409.499 86.5,453.5C 79.5,453.5 72.5,453.5 65.5,453.5C 63.0275,409.411 60.0275,365.411 56.5,321.5C 69.598,320.179 82.598,320.179 95.5,321.5 Z"/></g>
<g><path style="opacity:0.973" fill="#1c4d59" d="M 453.5,321.5 C 450.677,365.516 447.677,409.516 444.5,453.5C 437.5,453.5 430.5,453.5 423.5,453.5C 420.928,409.495 418.262,365.495 415.5,321.5C 428.167,320.167 440.833,320.167 453.5,321.5 Z"/></g>
<g><path style="opacity:0.977" fill="#357ca3" d="M 317.5,374.5 C 307.735,373.183 298.068,373.183 288.5,374.5C 266.5,374.5 244.5,374.5 222.5,374.5C 212.833,373.167 203.167,373.167 193.5,374.5C 189.5,374.5 185.5,374.5 181.5,374.5C 180.008,359.622 186.342,350.122 200.5,346C 218.833,345.833 237.167,345.667 255.5,345.5C 275.216,345.357 294.882,345.857 314.5,347C 326.144,352.453 330.811,361.62 328.5,374.5C 324.833,374.5 321.167,374.5 317.5,374.5 Z"/></g>
<g><path style="opacity:0.967" fill="#1c4d59" d="M 222.5,374.5 C 221.426,400.83 220.426,427.163 219.5,453.5C 211.833,453.5 204.167,453.5 196.5,453.5C 195.474,427.168 194.474,400.835 193.5,374.5C 203.167,373.167 212.833,373.167 222.5,374.5 Z"/></g>
<g><path style="opacity:0.967" fill="#1c4d59" d="M 317.5,374.5 C 315.913,400.751 314.913,427.084 314.5,453.5C 306.391,454.114 298.558,453.447 291,451.5C 289.883,425.84 289.05,400.174 288.5,374.5C 298.068,373.183 307.735,373.183 317.5,374.5 Z"/></g>
</svg>
