<?xml version="1.0" encoding="UTF-8"?>
<!DOCTYPE svg PUBLIC "-//W3C//DTD SVG 1.1//EN" "http://www.w3.org/Graphics/SVG/1.1/DTD/svg11.dtd">
<svg xmlns="http://www.w3.org/2000/svg" version="1.1" width="512px" height="512px" style="shape-rendering:geometricPrecision; text-rendering:geometricPrecision; image-rendering:optimizeQuality; fill-rule:evenodd; clip-rule:evenodd" xmlns:xlink="http://www.w3.org/1999/xlink">
<g><path style="opacity:0.956" fill="#90603f" d="M 431.5,49.5 C 428.871,53.4627 425.871,57.1294 422.5,60.5C 419.204,56.7024 415.704,53.0357 412,49.5C 409.559,44.0442 411.226,40.3776 417,38.5C 418.5,39 420,39.5 421.5,40C 424.703,43.3709 428.036,46.5375 431.5,49.5 Z"/></g>
<g><path style="opacity:0.99" fill="#674025" d="M 471.5,89.5 C 467.498,91.8393 464.165,94.8393 461.5,98.5C 458.833,100.5 456.167,102.5 453.5,104.5C 449.544,106.788 446.211,109.788 443.5,113.5C 440.793,115.843 438.126,118.177 435.5,120.5C 431.428,122.208 428.095,124.874 425.5,128.5C 422.904,129.265 420.237,129.599 417.5,129.5C 407.191,122.525 398.525,113.858 391.5,103.5C 391.575,100.794 391.908,98.1272 392.5,95.5C 396.161,92.8353 399.161,89.502 401.5,85.5C 403.885,83.1162 405.885,80.4495 407.5,77.5C 411.132,74.8614 414.132,71.528 416.5,67.5C 418.529,65.1415 420.529,62.8082 422.5,60.5C 425.871,57.1294 428.871,53.4627 431.5,49.5C 435.769,47.2774 440.102,47.1108 444.5,49C 453.667,58.1667 462.833,67.3333 472,76.5C 474.035,80.9405 473.868,85.2739 471.5,89.5 Z"/></g>
<g><path style="opacity:0.929" fill="#90613f" d="M 416.5,67.5 C 414.132,71.528 411.132,74.8614 407.5,77.5C 403.202,73.7036 399.036,69.7036 395,65.5C 393.167,57.3333 396.333,54.1667 404.5,56C 408.369,60.037 412.369,63.8704 416.5,67.5 Z"/></g>
<g><path style="opacity:0.949" fill="#916140" d="M 401.5,85.5 C 399.161,89.502 396.161,92.8353 392.5,95.5C 386.201,90.7072 381.201,84.8739 377.5,78C 378.719,73.2293 381.719,71.2293 386.5,72C 391.669,76.3371 396.669,80.8371 401.5,85.5 Z"/></g>
<g><path style="opacity:0.942" fill="#90603f" d="M 471.5,89.5 C 475.164,93.3322 478.664,97.3322 482,101.5C 482.962,108.785 479.795,111.618 472.5,110C 468.63,106.298 464.963,102.464 461.5,98.5C 464.165,94.8393 467.498,91.8393 471.5,89.5 Z"/></g>
<g><path style="opacity:0.988" fill="#91613f" d="M 391.5,103.5 C 398.525,113.858 407.191,122.525 417.5,129.5C 385.833,164.167 354.167,198.833 322.5,233.5C 313.7,242.469 305.033,251.635 296.5,261C 291.433,264.265 286.433,264.265 281.5,261C 274.333,253.833 267.167,246.667 260,239.5C 256.385,233.878 256.718,228.545 261,223.5C 270.708,215.954 279.542,207.621 287.5,198.5C 322.193,166.805 356.859,135.138 391.5,103.5 Z"/></g>
<g><path style="opacity:0.95" fill="#91603f" d="M 453.5,104.5 C 457.13,108.631 460.963,112.631 465,116.5C 467.021,124.985 463.855,128.152 455.5,126C 451.296,121.964 447.296,117.798 443.5,113.5C 446.211,109.788 449.544,106.788 453.5,104.5 Z"/></g>
<g><path style="opacity:0.927" fill="#916040" d="M 435.5,120.5 C 441.479,124.972 446.146,130.472 449.5,137C 448.019,143.239 444.352,144.905 438.5,142C 433.963,137.631 429.63,133.131 425.5,128.5C 428.095,124.874 431.428,122.208 435.5,120.5 Z"/></g>
<g><path style="opacity:0.995" fill="#fec133" d="M 287.5,198.5 C 279.542,207.621 270.708,215.954 261,223.5C 256.718,228.545 256.385,233.878 260,239.5C 267.167,246.667 274.333,253.833 281.5,261C 286.433,264.265 291.433,264.265 296.5,261C 305.033,251.635 313.7,242.469 322.5,233.5C 331.13,245.087 337.963,257.753 343,271.5C 350.816,293.446 346.316,312.279 329.5,328C 316.833,335.667 304.167,343.333 291.5,351C 282.487,358.174 276.321,367.341 273,378.5C 270.385,391.588 268.218,404.755 266.5,418C 260.104,446.062 242.77,463.062 214.5,469C 184.545,473.179 156.545,467.513 130.5,452C 90.6808,428.501 64.8475,394.334 53,349.5C 46.4555,322.276 51.1222,297.276 67,274.5C 77.5314,262.755 90.6981,255.922 106.5,254C 117.558,252.706 128.558,251.039 139.5,249C 152.574,246.051 163.074,239.218 171,228.5C 178.667,215.833 186.333,203.167 194,190.5C 208.267,175.418 225.433,170.918 245.5,177C 260.809,181.82 274.809,188.987 287.5,198.5 Z"/></g>
<g><path style="opacity:1" fill="#674025" d="M 218.5,256.5 C 248.531,256.698 263.698,271.698 264,301.5C 260.799,319.7 250.299,331.2 232.5,336C 213.442,338.72 198.942,331.887 189,315.5C 180.385,294.58 184.885,277.08 202.5,263C 207.607,259.935 212.94,257.769 218.5,256.5 Z"/></g>
<g><path style="opacity:1" fill="#684125" d="M 133.5,314.5 C 135.989,314.298 138.323,314.798 140.5,316C 162,337.5 183.5,359 205,380.5C 207,383.5 207,386.5 205,389.5C 201.5,393 198,396.5 194.5,400C 192.635,401.301 190.635,401.635 188.5,401C 165.667,378.167 142.833,355.333 120,332.5C 119.333,331.167 119.333,329.833 120,328.5C 124.703,323.965 129.203,319.298 133.5,314.5 Z"/></g>
</svg>
