<?xml version="1.0" encoding="UTF-8"?>
<!DOCTYPE svg PUBLIC "-//W3C//DTD SVG 1.1//EN" "http://www.w3.org/Graphics/SVG/1.1/DTD/svg11.dtd">
<svg xmlns="http://www.w3.org/2000/svg" version="1.1" width="512px" height="512px" style="shape-rendering:geometricPrecision; text-rendering:geometricPrecision; image-rendering:optimizeQuality; fill-rule:evenodd; clip-rule:evenodd" xmlns:xlink="http://www.w3.org/1999/xlink">
<g><path style="opacity:0.933" fill="#1c4d59" d="M 462.5,49.5 C 459.769,53.2343 456.436,56.2343 452.5,58.5C 448.17,54.0021 444.003,49.3354 440,44.5C 439.865,37.9771 443.031,35.4771 449.5,37C 453.702,41.3702 458.036,45.5368 462.5,49.5 Z"/></g>
<g><path style="opacity:0.992" fill="#347ca2" d="M 462.5,49.5 C 466.886,48.7691 469.72,50.4358 471,54.5C 472.392,63.1872 473.892,71.8538 475.5,80.5C 462.4,105.202 448.4,129.369 433.5,153C 423.961,155.636 414.294,157.47 404.5,158.5C 396.532,151.365 389.032,143.698 382,135.5C 381.365,133.365 381.699,131.365 383,129.5C 385.782,127.229 387.949,124.563 389.5,121.5C 391.5,120.167 393.167,118.5 394.5,116.5C 398.436,114.234 401.769,111.234 404.5,107.5C 405.833,105.833 407.167,104.167 408.5,102.5C 412.833,100.167 416.167,96.8333 418.5,92.5C 420.5,91.1667 422.167,89.5 423.5,87.5C 427.436,85.2343 430.769,82.2343 433.5,78.5C 434.833,76.5 436.5,74.8333 438.5,73.5C 442.234,70.7689 445.234,67.4356 447.5,63.5C 449.5,62.1667 451.167,60.5 452.5,58.5C 456.436,56.2343 459.769,53.2343 462.5,49.5 Z"/></g>
<g><path style="opacity:0.933" fill="#1b4d59" d="M 447.5,63.5 C 445.234,67.4356 442.234,70.7689 438.5,73.5C 434.537,69.0355 430.37,64.7022 426,60.5C 425.209,52.9492 428.376,50.1159 435.5,52C 439.369,56.037 443.369,59.8704 447.5,63.5 Z"/></g>
<g><path style="opacity:0.932" fill="#1c4c58" d="M 433.5,78.5 C 430.769,82.2343 427.436,85.2343 423.5,87.5C 419.17,83.0021 415.003,78.3354 411,73.5C 411.184,67.3215 414.351,64.8215 420.5,66C 424.702,70.3702 429.036,74.5368 433.5,78.5 Z"/></g>
<g><path style="opacity:0.934" fill="#1b4a55" d="M 418.5,92.5 C 416.167,96.8333 412.833,100.167 408.5,102.5C 404.503,98.335 400.67,94.0017 397,89.5C 395.916,81.6484 399.083,78.815 406.5,81C 410.369,85.037 414.369,88.8704 418.5,92.5 Z"/></g>
<g><path style="opacity:0.933" fill="#1b4a56" d="M 404.5,107.5 C 401.769,111.234 398.436,114.234 394.5,116.5C 388.889,112.39 384.556,107.224 381.5,101C 382.594,95.4478 385.927,93.4478 391.5,95C 395.702,99.3702 400.036,103.537 404.5,107.5 Z"/></g>
<g><path style="opacity:0.985" fill="#1c4c58" d="M 389.5,121.5 C 387.949,124.563 385.782,127.229 383,129.5C 381.699,131.365 381.365,133.365 382,135.5C 389.032,143.698 396.532,151.365 404.5,158.5C 367.17,197.83 329.503,236.83 291.5,275.5C 284.671,281.496 278.338,287.996 272.5,295C 268.292,297.65 263.959,297.983 259.5,296C 252.968,289.802 246.801,283.302 241,276.5C 240.333,273.5 240.333,270.5 241,267.5C 255.062,253.271 269.228,239.271 283.5,225.5C 315.634,194.2 347.968,163.034 380.5,132C 375.966,127.801 371.799,123.301 368,118.5C 367.003,111.167 370.17,108.334 377.5,110C 381.369,114.037 385.369,117.87 389.5,121.5 Z"/></g>
<g><path style="opacity:0.995" fill="#357da2" d="M 283.5,225.5 C 269.228,239.271 255.062,253.271 241,267.5C 240.333,270.5 240.333,273.5 241,276.5C 246.801,283.302 252.968,289.802 259.5,296C 263.959,297.983 268.292,297.65 272.5,295C 278.338,287.996 284.671,281.496 291.5,275.5C 296.256,307.211 312.589,315.378 340.5,300C 353.627,296.062 360.96,300.896 362.5,314.5C 360.758,326.812 354.424,335.978 343.5,342C 330.811,349.206 317.144,352.873 302.5,353C 297.071,354.802 292.571,357.969 289,362.5C 284.554,369.058 280.887,376.058 278,383.5C 274.131,396.108 270.464,408.775 267,421.5C 258.711,452.577 238.545,470.077 206.5,474C 146.331,474.164 103.497,446.997 78,392.5C 66.2378,364.371 65.5712,336.038 76,307.5C 84.0733,291.429 96.5733,280.263 113.5,274C 131.775,267.097 150.442,261.43 169.5,257C 196.637,247.93 211.804,229.097 215,200.5C 221.298,184.535 232.131,172.701 247.5,165C 259.425,159.436 270.592,160.603 281,168.5C 281.418,170.788 280.751,172.788 279,174.5C 270.453,182.198 264.62,191.531 261.5,202.5C 264.051,214.718 271.385,222.385 283.5,225.5 Z"/></g>
<g><path style="opacity:1" fill="#fac035" d="M 203.5,277.5 C 205.655,277.372 207.655,277.872 209.5,279C 227,296.5 244.5,314 262,331.5C 262.851,339.154 259.684,341.654 252.5,339C 235.333,321.833 218.167,304.667 201,287.5C 198.712,283.318 199.545,279.984 203.5,277.5 Z"/></g>
<g><path style="opacity:1" fill="#fbc035" d="M 179.5,301.5 C 181.655,301.372 183.655,301.872 185.5,303C 202.667,320.167 219.833,337.333 237,354.5C 239.654,361.684 237.154,364.851 229.5,364C 212,346.5 194.5,329 177,311.5C 174.712,307.318 175.545,303.984 179.5,301.5 Z"/></g>
<g><path style="opacity:1" fill="#fcc134" d="M 149.5,339.5 C 166.632,356.132 183.632,372.965 200.5,390C 194.318,396.014 188.318,402.181 182.5,408.5C 165.167,391.833 148.167,374.833 131.5,357.5C 137.854,351.812 143.854,345.812 149.5,339.5 Z"/></g>
</svg>
