<?xml version="1.0" encoding="UTF-8"?>
<!DOCTYPE svg PUBLIC "-//W3C//DTD SVG 1.1//EN" "http://www.w3.org/Graphics/SVG/1.1/DTD/svg11.dtd">
<svg xmlns="http://www.w3.org/2000/svg" version="1.1" width="512px" height="512px" style="shape-rendering:geometricPrecision; text-rendering:geometricPrecision; image-rendering:optimizeQuality; fill-rule:evenodd; clip-rule:evenodd" xmlns:xlink="http://www.w3.org/1999/xlink">
<g><path style="opacity:0.991" fill="#f48a3b" d="M 445.5,167.5 C 410.167,131.5 374.5,95.8333 338.5,60.5C 331.247,55.5909 329.747,49.2576 334,41.5C 339.111,36.8657 344.611,36.3657 350.5,40C 389,78.5 427.5,117 466,155.5C 469.883,162.031 469.05,167.865 463.5,173C 455.864,176.29 449.864,174.457 445.5,167.5 Z"/></g>
<g><path style="opacity:0.991" fill="#fec133" d="M 338.5,60.5 C 374.5,95.8333 410.167,131.5 445.5,167.5C 397.832,164.653 358.499,181.153 327.5,217C 324.833,219 322.167,219 319.5,217C 309.333,206.833 299.167,196.667 289,186.5C 287,183.833 287,181.167 289,178.5C 324.457,147.338 340.957,108.005 338.5,60.5 Z"/></g>
<g><path style="opacity:0.993" fill="#fec133" d="M 296.5,240.5 C 289.5,245.5 283.5,251.5 278.5,258.5C 273.5,262.833 268.833,267.5 264.5,272.5C 260.167,274.833 256.833,278.167 254.5,282.5C 248.833,287.5 243.5,292.833 238.5,298.5C 234.5,300.5 231.5,303.5 229.5,307.5C 223.833,312.5 218.5,317.833 213.5,323.5C 209.167,325.833 205.833,329.167 203.5,333.5C 197.833,338.5 192.5,343.833 187.5,349.5C 183.564,351.766 180.231,354.766 177.5,358.5C 173.167,363.167 168.833,367.833 164.5,372.5C 157.479,377.521 151.479,383.521 146.5,390.5C 142.702,393.796 139.036,397.296 135.5,401C 133.167,401.667 130.833,401.667 128.5,401C 120.697,394.198 113.197,387.031 106,379.5C 104,376.167 104,372.833 106,369.5C 119.701,355.631 133.535,341.965 147.5,328.5C 151.234,325.769 154.234,322.436 156.5,318.5C 162.167,313.5 167.5,308.167 172.5,302.5C 176.833,300.167 180.167,296.833 182.5,292.5C 187.833,287.5 193.167,282.5 198.5,277.5C 202.167,274.5 205.5,271.167 208.5,267.5C 213.5,262.167 218.5,256.833 223.5,251.5C 227.833,249.167 231.167,245.833 233.5,241.5C 249.632,225.868 265.632,210.035 281.5,194C 284.211,192.195 286.878,192.195 289.5,194C 297.333,201.833 305.167,209.667 313,217.5C 313.706,219.971 313.373,222.305 312,224.5C 306.63,229.702 301.464,235.035 296.5,240.5 Z"/></g>
<g><path style="opacity:0.931" fill="#1c4c58" d="M 233.5,241.5 C 231.167,245.833 227.833,249.167 223.5,251.5C 219.537,247.036 215.37,242.702 211,238.5C 208.159,240.504 204.993,241.004 201.5,240C 198.346,237.225 197.846,234.058 200,230.5C 204.167,226.333 208.333,222.167 212.5,218C 218.629,215.064 222.296,216.898 223.5,223.5C 223.152,225.697 222.152,227.53 220.5,229C 224.702,233.37 229.036,237.537 233.5,241.5 Z"/></g>
<g><path style="opacity:0.983" fill="#f48a3a" d="M 296.5,240.5 C 308.908,248.744 318.742,259.41 326,272.5C 335.33,296.184 331.996,317.851 316,337.5C 291.833,361.667 267.667,385.833 243.5,410C 224.404,426.15 203.071,429.817 179.5,421C 175.5,418.667 171.5,416.333 167.5,414C 160.667,407.167 153.833,400.333 147,393.5C 146.517,392.552 146.351,391.552 146.5,390.5C 151.479,383.521 157.479,377.521 164.5,372.5C 172.647,379.808 180.98,386.975 189.5,394C 197.893,398.334 206.227,398.501 214.5,394.5C 217.516,394.159 220.182,392.993 222.5,391C 224.141,389.871 225.141,388.371 225.5,386.5C 231.167,381.5 236.5,376.167 241.5,370.5C 245.5,368.5 248.5,365.5 250.5,361.5C 256.167,356.5 261.5,351.167 266.5,345.5C 270.833,343.167 274.167,339.833 276.5,335.5C 282.167,330.5 287.5,325.167 292.5,319.5C 294.371,319.141 295.871,318.141 297,316.5C 298.993,314.182 300.159,311.516 300.5,308.5C 304.23,297.733 302.73,287.733 296,278.5C 290.333,272.833 284.667,267.167 279,261.5C 278.517,260.552 278.351,259.552 278.5,258.5C 283.5,251.5 289.5,245.5 296.5,240.5 Z"/></g>
<g><path style="opacity:0.945" fill="#1c4d58" d="M 208.5,267.5 C 205.5,271.167 202.167,274.5 198.5,277.5C 194.704,273.202 190.704,269.036 186.5,265C 183.348,266.186 180.015,266.519 176.5,266C 173.651,263.441 172.817,260.274 174,256.5C 178.5,252 183,247.5 187.5,243C 193.088,241.072 196.422,242.905 197.5,248.5C 196.928,250.921 196.428,253.254 196,255.5C 200.036,259.704 204.202,263.704 208.5,267.5 Z"/></g>
<g><path style="opacity:0.914" fill="#1c4c58" d="M 182.5,292.5 C 180.167,296.833 176.833,300.167 172.5,302.5C 168.537,298.036 164.37,293.702 160,289.5C 154.196,294.009 150.029,292.842 147.5,286C 147.625,284.373 148.125,282.873 149,281.5C 153.167,277.333 157.333,273.167 161.5,269C 167.232,266.533 170.899,268.366 172.5,274.5C 171.966,276.614 170.966,278.448 169.5,280C 173.702,284.37 178.036,288.537 182.5,292.5 Z"/></g>
<g><path style="opacity:0.941" fill="#1e4d58" d="M 264.5,272.5 C 276.167,284.833 288.167,296.833 300.5,308.5C 300.159,311.516 298.993,314.182 297,316.5C 295.871,318.141 294.371,319.141 292.5,319.5C 279.833,307.167 267.167,294.833 254.5,282.5C 256.833,278.167 260.167,274.833 264.5,272.5 Z"/></g>
<g><path style="opacity:0.936" fill="#1b4c58" d="M 156.5,318.5 C 154.234,322.436 151.234,325.769 147.5,328.5C 143.704,324.202 139.704,320.036 135.5,316C 133.254,316.428 130.921,316.928 128.5,317.5C 126.701,317.423 125.034,316.923 123.5,316C 122.39,313.263 122.223,310.429 123,307.5C 127.5,303 132,298.5 136.5,294C 142.352,291.96 145.685,293.96 146.5,300C 145.782,302.217 145.282,304.384 145,306.5C 149.037,310.369 152.87,314.369 156.5,318.5 Z"/></g>
<g><path style="opacity:0.982" fill="#1d4d58" d="M 238.5,298.5 C 251.167,310.833 263.833,323.167 276.5,335.5C 274.167,339.833 270.833,343.167 266.5,345.5C 254.167,332.833 241.833,320.167 229.5,307.5C 231.5,303.5 234.5,300.5 238.5,298.5 Z"/></g>
<g><path style="opacity:0.939" fill="#1d4d58" d="M 213.5,323.5 C 225.833,336.167 238.167,348.833 250.5,361.5C 248.5,365.5 245.5,368.5 241.5,370.5C 228.833,358.167 216.167,345.833 203.5,333.5C 205.833,329.167 209.167,325.833 213.5,323.5 Z"/></g>
<g><path style="opacity:0.944" fill="#1c4c57" d="M 187.5,349.5 C 200.167,361.833 212.833,374.167 225.5,386.5C 225.141,388.371 224.141,389.871 222.5,391C 220.182,392.993 217.516,394.159 214.5,394.5C 202.167,382.5 189.833,370.5 177.5,358.5C 180.231,354.766 183.564,351.766 187.5,349.5 Z"/></g>
<g><path style="opacity:1" fill="#ffe9b7" d="M 100.5,381.5 C 98.1667,381.5 95.8333,381.5 93.5,381.5C 95.9564,377.745 98.2897,377.745 100.5,381.5 Z"/></g>
<g><path style="opacity:1" fill="#ffc236" d="M 93.5,381.5 C 95.8333,381.5 98.1667,381.5 100.5,381.5C 108.833,389.167 116.833,397.167 124.5,405.5C 124.5,407.833 124.5,410.167 124.5,412.5C 116.638,423.568 108.305,434.235 99.5,444.5C 86.3604,432.135 73.6937,419.469 61.5,406.5C 72.1667,398.167 82.8333,389.833 93.5,381.5 Z"/></g>
<g><path style="opacity:0.977" fill="#f48a3a" d="M 61.5,406.5 C 73.6937,419.469 86.3604,432.135 99.5,444.5C 106.01,454.473 104.01,462.307 93.5,468C 88.8887,469.007 84.5554,468.34 80.5,466C 67,452.5 53.5,439 40,425.5C 34.7827,413.268 38.616,405.601 51.5,402.5C 55.2723,402.866 58.6057,404.199 61.5,406.5 Z"/></g>
<g><path style="opacity:1" fill="#ffe4aa" d="M 124.5,405.5 C 128.255,407.71 128.255,410.044 124.5,412.5C 124.5,410.167 124.5,407.833 124.5,405.5 Z"/></g>
</svg>
