<?xml version="1.0" encoding="UTF-8"?>
<!DOCTYPE svg PUBLIC "-//W3C//DTD SVG 1.1//EN" "http://www.w3.org/Graphics/SVG/1.1/DTD/svg11.dtd">
<svg xmlns="http://www.w3.org/2000/svg" version="1.1" width="512px" height="512px" style="shape-rendering:geometricPrecision; text-rendering:geometricPrecision; image-rendering:optimizeQuality; fill-rule:evenodd; clip-rule:evenodd" xmlns:xlink="http://www.w3.org/1999/xlink">
<g><path style="opacity:0.975" fill="#ffc233" d="M 339.5,78.5 C 282.5,78.5 225.5,78.5 168.5,78.5C 170.989,68.1841 175.655,59.0174 182.5,51C 184.5,50 186.5,49 188.5,48C 210.299,46.8669 232.132,46.3669 254,46.5C 273.833,46.6667 293.667,46.8333 313.5,47C 321.117,47.6343 326.951,51.1343 331,57.5C 334.399,64.2948 337.233,71.2948 339.5,78.5 Z"/></g>
<g><path style="opacity:0.999" fill="#674025" d="M 168.5,78.5 C 225.5,78.5 282.5,78.5 339.5,78.5C 350.973,75.5582 357.973,79.7249 360.5,91C 358.455,99.1061 356.788,107.273 355.5,115.5C 347.754,159.921 340.754,204.588 334.5,249.5C 340.5,249.5 346.5,249.5 352.5,249.5C 349.28,259.495 345.28,269.162 340.5,278.5C 333.08,278.203 325.746,278.536 318.5,279.5C 314.702,278.517 310.702,278.183 306.5,278.5C 297.5,278.5 288.5,278.5 279.5,278.5C 275.5,278.5 271.5,278.5 267.5,278.5C 258.5,278.5 249.5,278.5 240.5,278.5C 236.298,278.183 232.298,278.517 228.5,279.5C 219.584,278.529 210.584,278.196 201.5,278.5C 197.167,278.5 192.833,278.5 188.5,278.5C 181.5,278.5 174.5,278.5 167.5,278.5C 162.668,269.17 158.668,259.503 155.5,249.5C 161.5,249.5 167.5,249.5 173.5,249.5C 166.986,204.623 159.986,159.956 152.5,115.5C 151.16,107.306 149.494,99.1389 147.5,91C 150.024,79.7261 157.024,75.5594 168.5,78.5 Z"/></g>
<g><path style="opacity:1" fill="#90603f" d="M 163.5,103.5 C 175.186,103.168 186.852,103.501 198.5,104.5C 192.096,141.398 186.262,178.398 181,215.5C 174.846,178.244 169.013,140.91 163.5,103.5 Z"/></g>
<g><path style="opacity:1" fill="#90603f" d="M 212.5,103.5 C 223.833,103.5 235.167,103.5 246.5,103.5C 241.299,139.903 235.633,176.237 229.5,212.5C 222.926,176.298 217.259,139.965 212.5,103.5 Z"/></g>
<g><path style="opacity:1" fill="#90603f" d="M 261.5,103.5 C 272.833,103.5 284.167,103.5 295.5,103.5C 290.352,139.575 284.685,175.575 278.5,211.5C 272.016,175.629 266.349,139.629 261.5,103.5 Z"/></g>
<g><path style="opacity:1" fill="#90603f" d="M 309.5,103.5 C 321.167,103.5 332.833,103.5 344.5,103.5C 338.884,140.532 333.05,177.532 327,214.5C 321.411,177.451 315.578,140.451 309.5,103.5 Z"/></g>
<g><path style="opacity:0.98" fill="#90603f" d="M 152.5,115.5 C 159.986,159.956 166.986,204.623 173.5,249.5C 167.5,249.5 161.5,249.5 155.5,249.5C 151.602,240.259 148.769,230.593 147,220.5C 141.238,185.036 143.071,150.036 152.5,115.5 Z"/></g>
<g><path style="opacity:0.979" fill="#90603f" d="M 355.5,115.5 C 361.412,135.692 364.412,156.358 364.5,177.5C 363.887,191.879 362.72,206.212 361,220.5C 359.23,230.598 356.397,240.264 352.5,249.5C 346.5,249.5 340.5,249.5 334.5,249.5C 340.754,204.588 347.754,159.921 355.5,115.5 Z"/></g>
<g><path style="opacity:1" fill="#8f603f" d="M 204.5,138.5 C 205.268,139.263 205.768,140.263 206,141.5C 211.18,177.562 216.68,213.562 222.5,249.5C 210.833,249.5 199.167,249.5 187.5,249.5C 193.411,212.545 199.078,175.545 204.5,138.5 Z"/></g>
<g><path style="opacity:1" fill="#8f603f" d="M 253.5,138.5 C 260.228,175.244 266.228,212.244 271.5,249.5C 259.833,249.5 248.167,249.5 236.5,249.5C 242.249,212.51 247.915,175.51 253.5,138.5 Z"/></g>
<g><path style="opacity:1" fill="#8f603f" d="M 302.5,139.5 C 307.145,163.947 311.312,188.614 315,213.5C 316.994,225.452 318.494,237.452 319.5,249.5C 308.167,249.5 296.833,249.5 285.5,249.5C 290.607,212.748 296.274,176.082 302.5,139.5 Z"/></g>
<g><path style="opacity:0.99" fill="#f1893b" d="M 167.5,278.5 C 174.5,278.5 181.5,278.5 188.5,278.5C 195.869,300.107 203.536,321.607 211.5,343C 205.175,343.5 198.842,343.666 192.5,343.5C 191.119,334.976 188.952,326.642 186,318.5C 180.093,305.021 173.926,291.687 167.5,278.5 Z"/></g>
<g><path style="opacity:1" fill="#234e58" d="M 188.5,278.5 C 192.833,278.5 197.167,278.5 201.5,278.5C 209.228,300.018 216.562,321.685 223.5,343.5C 227.833,343.5 232.167,343.5 236.5,343.5C 233.178,322.258 230.511,300.925 228.5,279.5C 232.298,278.517 236.298,278.183 240.5,278.5C 243.249,300.155 245.915,321.822 248.5,343.5C 252.167,343.5 255.833,343.5 259.5,343.5C 261.757,321.777 264.424,300.111 267.5,278.5C 271.5,278.5 275.5,278.5 279.5,278.5C 276.751,300.155 274.085,321.822 271.5,343.5C 275.555,343.824 279.555,343.491 283.5,342.5C 291.175,321.138 298.842,299.805 306.5,278.5C 310.702,278.183 314.702,278.517 318.5,279.5C 310.966,300.77 303.632,322.104 296.5,343.5C 302.69,343.177 308.69,343.51 314.5,344.5C 314.577,348.215 314.244,351.881 313.5,355.5C 273.833,355.5 234.167,355.5 194.5,355.5C 193.741,351.523 193.075,347.523 192.5,343.5C 198.842,343.666 205.175,343.5 211.5,343C 203.536,321.607 195.869,300.107 188.5,278.5 Z"/></g>
<g><path style="opacity:1" fill="#f1893b" d="M 201.5,278.5 C 210.584,278.196 219.584,278.529 228.5,279.5C 230.511,300.925 233.178,322.258 236.5,343.5C 232.167,343.5 227.833,343.5 223.5,343.5C 216.562,321.685 209.228,300.018 201.5,278.5 Z"/></g>
<g><path style="opacity:1" fill="#f2893a" d="M 240.5,278.5 C 249.5,278.5 258.5,278.5 267.5,278.5C 264.424,300.111 261.757,321.777 259.5,343.5C 255.833,343.5 252.167,343.5 248.5,343.5C 245.915,321.822 243.249,300.155 240.5,278.5 Z"/></g>
<g><path style="opacity:1" fill="#f0883b" d="M 279.5,278.5 C 288.5,278.5 297.5,278.5 306.5,278.5C 298.842,299.805 291.175,321.138 283.5,342.5C 279.555,343.491 275.555,343.824 271.5,343.5C 274.085,321.822 276.751,300.155 279.5,278.5 Z"/></g>
<g><path style="opacity:0.989" fill="#f1893b" d="M 340.5,278.5 C 328.857,299.449 320.19,321.449 314.5,344.5C 308.69,343.51 302.69,343.177 296.5,343.5C 303.632,322.104 310.966,300.77 318.5,279.5C 325.746,278.536 333.08,278.203 340.5,278.5 Z"/></g>
<g><path style="opacity:0.995" fill="#ffc233" d="M 194.5,355.5 C 234.167,355.5 273.833,355.5 313.5,355.5C 312.564,375.349 315.231,394.682 321.5,413.5C 276.5,413.5 231.5,413.5 186.5,413.5C 192.594,394.656 195.261,375.323 194.5,355.5 Z"/></g>
<g><path style="opacity:1" fill="#2d5655" d="M 186.5,414.5 C 186.5,414.167 186.5,413.833 186.5,413.5C 231.5,413.5 276.5,413.5 321.5,413.5C 322.301,415.042 322.634,416.708 322.5,418.5C 321.751,417.469 321.085,416.302 320.5,415C 275.835,414.5 231.168,414.333 186.5,414.5 Z"/></g>
<g><path style="opacity:1" fill="#1d4d58" d="M 186.5,414.5 C 231.168,414.333 275.835,414.5 320.5,415C 321.085,416.302 321.751,417.469 322.5,418.5C 323.434,419.568 323.768,420.901 323.5,422.5C 323.5,423.5 323.5,424.5 323.5,425.5C 276.833,425.5 230.167,425.5 183.5,425.5C 183.926,421.573 184.926,417.907 186.5,414.5 Z"/></g>
<g><path style="opacity:1" fill="#858347" d="M 323.5,422.5 C 324.404,423.209 324.737,424.209 324.5,425.5C 277.5,426.833 230.5,426.833 183.5,425.5C 230.167,425.5 276.833,425.5 323.5,425.5C 323.5,424.5 323.5,423.5 323.5,422.5 Z"/></g>
<g><path style="opacity:0.996" fill="#fec133" d="M 183.5,425.5 C 230.5,426.833 277.5,426.833 324.5,425.5C 326.461,430.656 328.127,435.99 329.5,441.5C 279.167,441.5 228.833,441.5 178.5,441.5C 179.876,435.973 181.543,430.64 183.5,425.5 Z"/></g>
<g><path style="opacity:1" fill="#1d4d58" d="M 178.5,441.5 C 228.833,441.5 279.167,441.5 329.5,441.5C 330.482,444.763 331.149,448.097 331.5,451.5C 280.177,453.496 228.511,454.162 176.5,453.5C 176.5,452.5 176.5,451.5 176.5,450.5C 177.01,447.461 177.677,444.461 178.5,441.5 Z"/></g>
<g><path style="opacity:1" fill="#948a45" d="M 176.5,450.5 C 176.5,451.5 176.5,452.5 176.5,453.5C 228.511,454.162 280.177,453.496 331.5,451.5C 332.404,452.209 332.737,453.209 332.5,454.5C 280.167,454.5 227.833,454.5 175.5,454.5C 175.232,452.901 175.566,451.568 176.5,450.5 Z"/></g>
<g><path style="opacity:0.996" fill="#ffc232" d="M 175.5,454.5 C 227.833,454.5 280.167,454.5 332.5,454.5C 334.277,459.268 335.61,464.268 336.5,469.5C 336.44,474.071 334.44,477.571 330.5,480C 305.039,481.143 279.539,481.643 254,481.5C 228.461,481.643 202.961,481.143 177.5,480C 173.576,477.657 171.576,474.157 171.5,469.5C 172.078,464.181 173.411,459.181 175.5,454.5 Z"/></g>
</svg>
