<?xml version="1.0" encoding="UTF-8"?>
<!DOCTYPE svg PUBLIC "-//W3C//DTD SVG 1.1//EN" "http://www.w3.org/Graphics/SVG/1.1/DTD/svg11.dtd">
<svg xmlns="http://www.w3.org/2000/svg" version="1.1" width="512px" height="512px" style="shape-rendering:geometricPrecision; text-rendering:geometricPrecision; image-rendering:optimizeQuality; fill-rule:evenodd; clip-rule:evenodd" xmlns:xlink="http://www.w3.org/1999/xlink">
<g><path style="opacity:0.992" fill="#fec133" d="M 194.5,144.5 C 193.657,146.173 192.324,147.34 190.5,148C 192.5,151 194.5,154 196.5,157C 198.107,156.981 199.774,156.815 201.5,156.5C 205.687,162.873 209.353,169.539 212.5,176.5C 211.524,177.815 210.524,179.148 209.5,180.5C 211.265,183.709 213.265,186.709 215.5,189.5C 216.86,188.82 218.193,188.153 219.5,187.5C 223.137,194.451 227.137,201.118 231.5,207.5C 230.708,209.257 229.375,210.591 227.5,211.5C 229.5,214.833 231.5,218.167 233.5,221.5C 235.075,220.544 236.742,219.877 238.5,219.5C 241.647,226.461 245.313,233.127 249.5,239.5C 248.555,240.993 247.555,242.493 246.5,244C 248.2,247.232 250.034,250.399 252,253.5C 253.33,252.418 254.83,251.751 256.5,251.5C 280.208,293.373 304.541,334.873 329.5,376C 339.541,380.313 345.874,377.146 348.5,366.5C 347.973,363.419 347.14,360.419 346,357.5C 334.416,339.334 323.083,321.001 312,302.5C 296.367,274.578 293.2,245.245 302.5,214.5C 347.21,225.68 391.877,237.18 436.5,249C 442.051,250.544 447.384,252.378 452.5,254.5C 435.017,264.112 423.184,278.445 417,297.5C 416.146,306.047 417.146,314.381 420,322.5C 425.339,335.843 430.673,349.177 436,362.5C 443.274,396.673 434.108,425.506 408.5,449C 385.355,467.283 359.355,472.95 330.5,466C 305.462,458.448 287.462,442.948 276.5,419.5C 283.105,414.946 290.272,411.28 298,408.5C 304.157,417.472 309.824,426.805 315,436.5C 316.313,437.573 317.813,438.24 319.5,438.5C 335.849,429.996 351.849,420.996 367.5,411.5C 382.753,416.803 390.253,411.47 390,395.5C 386.65,387.742 380.816,384.575 372.5,386C 365.264,388.722 361.93,393.889 362.5,401.5C 349.726,408.39 337.059,415.556 324.5,423C 323.5,423.667 322.5,423.667 321.5,423C 304.177,394.186 287.511,365.019 271.5,335.5C 276.158,327.775 276.658,319.775 273,311.5C 262.267,299.99 251.267,299.657 240,310.5C 237.137,314.38 235.97,318.713 236.5,323.5C 234.579,324.363 232.579,325.029 230.5,325.5C 205.467,274.102 180.467,222.768 155.5,171.5C 155.5,171.167 155.5,170.833 155.5,170.5C 155.5,169.833 155.167,169.5 154.5,169.5C 154.5,169.167 154.5,168.833 154.5,168.5C 154.5,167.833 154.167,167.5 153.5,167.5C 152.674,164.515 151.341,161.849 149.5,159.5C 137.951,134.733 126.117,110.067 114,85.5C 104.021,76.879 96.1881,78.5457 90.5,90.5C 90.5,89.1667 90.5,87.8333 90.5,86.5C 80.779,85.9682 71.1123,84.9682 61.5,83.5C 66.3385,63.162 79.0052,50.662 99.5,46C 119.91,42.9086 136.41,49.4086 149,65.5C 164.178,91.8608 179.345,118.194 194.5,144.5 Z"/></g>
<g><path style="opacity:1" fill="#265058" d="M 61.5,83.5 C 71.1123,84.9682 80.779,85.9682 90.5,86.5C 90.5,87.8333 90.5,89.1667 90.5,90.5C 92.7784,97.3392 94.445,104.339 95.5,111.5C 95.6889,121.623 91.3556,129.123 82.5,134C 68.9181,141.707 55.4181,149.54 42,157.5C 37.1592,149.029 37.4925,140.696 43,132.5C 50.443,127.2 57.943,122.033 65.5,117C 60.1603,106.126 58.827,94.959 61.5,83.5 Z"/></g>
<g><path style="opacity:0.943" fill="#1d4d58" d="M 201.5,156.5 C 199.774,156.815 198.107,156.981 196.5,157C 194.5,154 192.5,151 190.5,148C 192.324,147.34 193.657,146.173 194.5,144.5C 198.217,142.891 201.717,140.891 205,138.5C 202.575,129.925 205.742,126.425 214.5,128C 218.377,133.585 221.877,139.418 225,145.5C 226.232,150.711 224.232,153.711 219,154.5C 216.047,154.192 213.714,152.858 212,150.5C 208.084,151.948 204.584,153.948 201.5,156.5 Z"/></g>
<g><path style="opacity:0.942" fill="#1d4d58" d="M 219.5,187.5 C 218.193,188.153 216.86,188.82 215.5,189.5C 213.265,186.709 211.265,183.709 209.5,180.5C 210.524,179.148 211.524,177.815 212.5,176.5C 216.633,174.6 220.633,172.433 224.5,170C 220.923,164.251 222.423,160.418 229,158.5C 230.763,158.975 232.43,159.642 234,160.5C 237,165.833 240,171.167 243,176.5C 244.493,184.677 241.326,187.51 233.5,185C 232.299,184.097 231.465,182.931 231,181.5C 227.192,183.653 223.358,185.653 219.5,187.5 Z"/></g>
<g><path style="opacity:0.964" fill="#1e4d58" d="M 149.5,159.5 C 151.341,161.849 152.674,164.515 153.5,167.5C 154.167,167.5 154.5,167.833 154.5,168.5C 154.5,168.833 154.5,169.167 154.5,169.5C 155.167,169.5 155.5,169.833 155.5,170.5C 155.5,170.833 155.5,171.167 155.5,171.5C 151.034,173.566 146.701,175.9 142.5,178.5C 167.26,229.685 192.26,280.685 217.5,331.5C 221.979,329.76 226.313,327.76 230.5,325.5C 232.579,325.029 234.579,324.363 236.5,323.5C 236.617,328.193 238.284,332.193 241.5,335.5C 239.302,335.12 237.635,335.787 236.5,337.5C 231.712,339.059 227.379,341.393 223.5,344.5C 234.577,367.654 245.911,390.654 257.5,413.5C 261.592,411.454 265.592,409.454 269.5,407.5C 277.403,404.549 285.07,401.049 292.5,397C 282.04,379.248 271.707,361.415 261.5,343.5C 258.358,342.833 255.358,342.166 252.5,341.5C 259.94,342.685 266.273,340.685 271.5,335.5C 287.511,365.019 304.177,394.186 321.5,423C 322.5,423.667 323.5,423.667 324.5,423C 337.059,415.556 349.726,408.39 362.5,401.5C 363.109,405.385 364.776,408.718 367.5,411.5C 351.849,420.996 335.849,429.996 319.5,438.5C 317.813,438.24 316.313,437.573 315,436.5C 309.824,426.805 304.157,417.472 298,408.5C 290.272,411.28 283.105,414.946 276.5,419.5C 268.972,423.096 261.305,426.43 253.5,429.5C 251.668,428.752 250.001,427.752 248.5,426.5C 207.441,342.881 166.774,259.048 126.5,175C 126.975,173.237 127.642,171.57 128.5,170C 135.592,166.454 142.592,162.954 149.5,159.5 Z M 236.5,337.5 C 247.5,360.833 258.5,384.167 269.5,407.5C 265.592,409.454 261.592,411.454 257.5,413.5C 245.911,390.654 234.577,367.654 223.5,344.5C 227.379,341.393 231.712,339.059 236.5,337.5 Z"/></g>
<g><path style="opacity:0.947" fill="#1d4d58" d="M 238.5,219.5 C 236.742,219.877 235.075,220.544 233.5,221.5C 231.5,218.167 229.5,214.833 227.5,211.5C 229.375,210.591 230.708,209.257 231.5,207.5C 235.593,206.287 239.259,204.287 242.5,201.5C 239.907,197.101 240.907,193.601 245.5,191C 250.027,190.35 253.194,192.184 255,196.5C 257.333,200.833 259.667,205.167 262,209.5C 262.448,216.375 259.282,218.875 252.5,217C 251,216.167 249.833,215 249,213.5C 245.391,215.385 241.891,217.385 238.5,219.5 Z"/></g>
<g><path style="opacity:0.986" fill="#f48a3a" d="M 452.5,254.5 C 447.384,252.378 442.051,250.544 436.5,249C 391.877,237.18 347.21,225.68 302.5,214.5C 291.694,212.222 288.194,205.889 292,195.5C 294.305,192.229 297.472,190.563 301.5,190.5C 355.29,204.198 408.957,218.364 462.5,233C 469.697,237.305 471.197,243.138 467,250.5C 465.786,252.049 464.286,253.215 462.5,254C 459.183,254.498 455.85,254.665 452.5,254.5 Z"/></g>
<g><path style="opacity:0.937" fill="#1d4d58" d="M 256.5,251.5 C 254.83,251.751 253.33,252.418 252,253.5C 250.034,250.399 248.2,247.232 246.5,244C 247.555,242.493 248.555,240.993 249.5,239.5C 253.593,238.287 257.259,236.287 260.5,233.5C 258.151,224.349 261.484,221.182 270.5,224C 273.793,229.418 276.96,234.918 280,240.5C 280.997,247.833 277.83,250.666 270.5,249C 269.333,247.833 268.167,246.667 267,245.5C 263.391,247.385 259.891,249.385 256.5,251.5 Z"/></g>
<g><path style="opacity:1" fill="#3a7ea1" d="M 357.5,295.5 C 373.014,294.51 378.847,301.51 375,316.5C 364.969,326.637 356.303,325.637 349,313.5C 347.3,305.237 350.133,299.237 357.5,295.5 Z"/></g>
<g><path style="opacity:1" fill="#377da1" d="M 271.5,335.5 C 266.273,340.685 259.94,342.685 252.5,341.5C 248.067,340.786 244.4,338.786 241.5,335.5C 238.284,332.193 236.617,328.193 236.5,323.5C 235.97,318.713 237.137,314.38 240,310.5C 251.267,299.657 262.267,299.99 273,311.5C 276.658,319.775 276.158,327.775 271.5,335.5 Z"/></g>
<g><path style="opacity:0.987" fill="#fdc133" d="M 241.5,335.5 C 244.4,338.786 248.067,340.786 252.5,341.5C 255.358,342.166 258.358,342.833 261.5,343.5C 271.707,361.415 282.04,379.248 292.5,397C 285.07,401.049 277.403,404.549 269.5,407.5C 258.5,384.167 247.5,360.833 236.5,337.5C 237.635,335.787 239.302,335.12 241.5,335.5 Z"/></g>
<g><path style="opacity:1" fill="#3a7ea1" d="M 383.5,340.5 C 399.95,339.772 405.45,347.105 400,362.5C 390,371.5 381.667,370.167 375,358.5C 373.3,350.237 376.133,344.237 383.5,340.5 Z"/></g>
<g><path style="opacity:1" fill="#3a7ea1" d="M 367.5,411.5 C 364.776,408.718 363.109,405.385 362.5,401.5C 361.93,393.889 365.264,388.722 372.5,386C 380.816,384.575 386.65,387.742 390,395.5C 390.253,411.47 382.753,416.803 367.5,411.5 Z"/></g>
</svg>
