<?xml version="1.0" encoding="UTF-8"?>
<!DOCTYPE svg PUBLIC "-//W3C//DTD SVG 1.1//EN" "http://www.w3.org/Graphics/SVG/1.1/DTD/svg11.dtd">
<svg xmlns="http://www.w3.org/2000/svg" version="1.1" width="512px" height="512px" style="shape-rendering:geometricPrecision; text-rendering:geometricPrecision; image-rendering:optimizeQuality; fill-rule:evenodd; clip-rule:evenodd" xmlns:xlink="http://www.w3.org/1999/xlink">
<g><path style="opacity:0.984" fill="#fdc134" d="M 290.5,118.5 C 263.814,114.599 237.148,114.599 210.5,118.5C 218.747,93.2 236.08,83.0334 262.5,88C 277.638,92.9667 286.972,103.133 290.5,118.5 Z"/></g>
<g><path style="opacity:0.991" fill="#367da2" d="M 290.5,118.5 C 311.146,122.494 330.479,129.828 348.5,140.5C 371.932,154.928 392.265,172.928 409.5,194.5C 419.863,208.241 428.196,223.241 434.5,239.5C 443.999,265.457 448.666,292.123 448.5,319.5C 448.667,351.835 448.5,384.168 448,416.5C 443.158,427.228 435.324,430.061 424.5,425C 415.712,413.046 406.378,401.546 396.5,390.5C 378.212,371.848 356.546,358.514 331.5,350.5C 327.89,349.297 324.223,348.297 320.5,347.5C 321.353,340.613 323.019,333.946 325.5,327.5C 330.167,328.833 334.833,330.167 339.5,331.5C 365.003,339.08 387.67,351.58 407.5,369C 408.745,369.791 410.078,370.291 411.5,370.5C 415.83,374.998 419.997,379.665 424,384.5C 424.5,363.503 424.667,342.503 424.5,321.5C 425.403,296.719 421.57,272.719 413,249.5C 412.623,248.058 411.79,247.058 410.5,246.5C 405.464,234.093 399.131,222.426 391.5,211.5C 380.398,194.564 366.398,180.397 349.5,169C 344.77,165.636 339.77,162.803 334.5,160.5C 320.056,152.463 304.723,146.796 288.5,143.5C 284.449,141.832 280.115,140.666 275.5,140C 255.032,137.41 234.699,138.076 214.5,142C 213.584,142.278 212.918,142.778 212.5,143.5C 196.295,146.941 180.962,152.608 166.5,160.5C 143.378,172.623 124.711,189.623 110.5,211.5C 102.067,222.018 95.4,233.685 90.5,246.5C 82.8728,263.243 78.3728,280.909 77,299.5C 76.2036,306.913 76.3703,314.246 77.5,321.5C 77.3334,342.169 77.5,362.836 78,383.5C 82.3702,379.298 86.5368,374.964 90.5,370.5C 111.526,352.834 135.193,339.834 161.5,331.5C 166.024,329.869 170.691,328.869 175.5,328.5C 178.274,334.493 180.274,340.826 181.5,347.5C 177.686,348.036 174.019,349.036 170.5,350.5C 145.137,358.006 123.47,371.339 105.5,390.5C 95.7232,400.114 87.2232,410.781 80,422.5C 71.0587,429.692 62.7254,429.025 55,420.5C 54.0266,418.608 53.3599,416.608 53,414.5C 52.5,382.835 52.3334,351.168 52.5,319.5C 52.666,292.037 57.666,265.37 67.5,239.5C 73.7035,223.42 81.7035,208.42 91.5,194.5C 100.112,184.904 109.112,175.404 118.5,166C 129.365,156.749 140.698,148.249 152.5,140.5C 170.709,130.208 190.043,122.875 210.5,118.5C 237.148,114.599 263.814,114.599 290.5,118.5 Z M 212.5,143.5 C 222.022,163.086 237.689,171.252 259.5,168C 273.315,164.68 282.982,156.514 288.5,143.5C 304.723,146.796 320.056,152.463 334.5,160.5C 329.101,188.548 340.101,206.381 367.5,214C 375.695,214.921 383.695,214.088 391.5,211.5C 399.131,222.426 405.464,234.093 410.5,246.5C 390.618,263.757 387.451,283.757 401,306.5C 407.151,314.154 414.984,319.154 424.5,321.5C 424.667,342.503 424.5,363.503 424,384.5C 419.997,379.665 415.83,374.998 411.5,370.5C 417.078,348.722 410.412,331.889 391.5,320C 371.324,311.547 353.991,315.38 339.5,331.5C 334.833,330.167 330.167,328.833 325.5,327.5C 327.322,318.636 324.322,311.802 316.5,307C 307.958,304.923 299.292,303.589 290.5,303C 266.5,302.333 242.5,302.333 218.5,303C 207.67,303.642 197.003,305.309 186.5,308C 177.726,312.045 174.06,318.879 175.5,328.5C 170.691,328.869 166.024,329.869 161.5,331.5C 155.266,322.538 146.599,317.372 135.5,316C 111.594,314.258 96.0942,324.758 89,347.5C 88.0266,355.323 88.5266,362.989 90.5,370.5C 86.5368,374.964 82.3702,379.298 78,383.5C 77.5,362.836 77.3334,342.169 77.5,321.5C 100.82,313.553 110.987,297.219 108,272.5C 105.861,261.22 100.027,252.553 90.5,246.5C 95.4,233.685 102.067,222.018 110.5,211.5C 137.166,219.412 156,210.746 167,185.5C 169.157,177.065 168.991,168.732 166.5,160.5C 180.962,152.608 196.295,146.941 212.5,143.5 Z"/></g>
<g><path style="opacity:0.984" fill="#fec133" d="M 152.5,140.5 C 140.698,148.249 129.365,156.749 118.5,166C 109.112,175.404 100.112,184.904 91.5,194.5C 81.7765,173.572 85.4432,155.405 102.5,140C 114.228,132.49 126.895,130.49 140.5,134C 144.975,135.402 148.975,137.569 152.5,140.5 Z"/></g>
<g><path style="opacity:0.985" fill="#fec133" d="M 409.5,194.5 C 392.265,172.928 371.932,154.928 348.5,140.5C 365.957,129.674 383.29,129.841 400.5,141C 416.478,156.716 419.478,174.549 409.5,194.5 Z"/></g>
<g><path style="opacity:0.984" fill="#fdc133" d="M 288.5,143.5 C 282.982,156.514 273.315,164.68 259.5,168C 237.689,171.252 222.022,163.086 212.5,143.5C 212.918,142.778 213.584,142.278 214.5,142C 234.699,138.076 255.032,137.41 275.5,140C 280.115,140.666 284.449,141.832 288.5,143.5 Z"/></g>
<g><path style="opacity:0.984" fill="#fec133" d="M 166.5,160.5 C 168.991,168.732 169.157,177.065 167,185.5C 156,210.746 137.166,219.412 110.5,211.5C 124.711,189.623 143.378,172.623 166.5,160.5 Z"/></g>
<g><path style="opacity:0.987" fill="#fdc134" d="M 334.5,160.5 C 339.77,162.803 344.77,165.636 349.5,169C 366.398,180.397 380.398,194.564 391.5,211.5C 383.695,214.088 375.695,214.921 367.5,214C 340.101,206.381 329.101,188.548 334.5,160.5 Z"/></g>
<g><path style="opacity:0.982" fill="#fec133" d="M 67.5,239.5 C 57.666,265.37 52.666,292.037 52.5,319.5C 28.271,306.659 21.1043,287.325 31,261.5C 39.1758,247.658 51.3424,240.324 67.5,239.5 Z"/></g>
<g><path style="opacity:0.986" fill="#fdc134" d="M 434.5,239.5 C 459.39,242.224 473.057,256.057 475.5,281C 474.425,299.549 465.425,312.382 448.5,319.5C 448.666,292.123 443.999,265.457 434.5,239.5 Z"/></g>
<g><path style="opacity:0.984" fill="#fdc134" d="M 90.5,246.5 C 100.027,252.553 105.861,261.22 108,272.5C 110.987,297.219 100.82,313.553 77.5,321.5C 76.3703,314.246 76.2036,306.913 77,299.5C 78.3728,280.909 82.8728,263.243 90.5,246.5 Z"/></g>
<g><path style="opacity:0.985" fill="#fdc133" d="M 410.5,246.5 C 411.79,247.058 412.623,248.058 413,249.5C 421.57,272.719 425.403,296.719 424.5,321.5C 414.984,319.154 407.151,314.154 401,306.5C 387.451,283.757 390.618,263.757 410.5,246.5 Z"/></g>
<g><path style="opacity:0.992" fill="#f38a3b" d="M 325.5,327.5 C 323.019,333.946 321.353,340.613 320.5,347.5C 316.881,354.566 311.048,358.232 303,358.5C 299.155,358.094 295.321,357.594 291.5,357C 266.833,356.333 242.167,356.333 217.5,357C 211.33,357.834 205.163,358.668 199,359.5C 190.291,359.616 184.458,355.616 181.5,347.5C 180.274,340.826 178.274,334.493 175.5,328.5C 174.06,318.879 177.726,312.045 186.5,308C 197.003,305.309 207.67,303.642 218.5,303C 242.5,302.333 266.5,302.333 290.5,303C 299.292,303.589 307.958,304.923 316.5,307C 324.322,311.802 327.322,318.636 325.5,327.5 Z"/></g>
<g><path style="opacity:0.983" fill="#fec133" d="M 161.5,331.5 C 135.193,339.834 111.526,352.834 90.5,370.5C 88.5266,362.989 88.0266,355.323 89,347.5C 96.0942,324.758 111.594,314.258 135.5,316C 146.599,317.372 155.266,322.538 161.5,331.5 Z"/></g>
<g><path style="opacity:0.981" fill="#fdc133" d="M 411.5,370.5 C 410.078,370.291 408.745,369.791 407.5,369C 387.67,351.58 365.003,339.08 339.5,331.5C 353.991,315.38 371.324,311.547 391.5,320C 410.412,331.889 417.078,348.722 411.5,370.5 Z"/></g>
<g><path style="opacity:0.985" fill="#fec133" d="M 170.5,350.5 C 171.087,379.074 157.253,395.074 129,398.5C 120.447,397.927 112.613,395.26 105.5,390.5C 123.47,371.339 145.137,358.006 170.5,350.5 Z"/></g>
<g><path style="opacity:0.984" fill="#fdc133" d="M 331.5,350.5 C 356.546,358.514 378.212,371.848 396.5,390.5C 380.529,400.365 364.529,400.532 348.5,391C 335.258,380.682 329.591,367.182 331.5,350.5 Z"/></g>
</svg>
