<?xml version="1.0" encoding="UTF-8"?>
<!DOCTYPE svg PUBLIC "-//W3C//DTD SVG 1.1//EN" "http://www.w3.org/Graphics/SVG/1.1/DTD/svg11.dtd">
<svg xmlns="http://www.w3.org/2000/svg" version="1.1" width="512px" height="512px" style="shape-rendering:geometricPrecision; text-rendering:geometricPrecision; image-rendering:optimizeQuality; fill-rule:evenodd; clip-rule:evenodd" xmlns:xlink="http://www.w3.org/1999/xlink">
<g><path style="opacity:0.996" fill="#fec133" d="M 145.5,60.5 C 144.5,60.5 143.5,60.5 142.5,60.5C 140.485,101.05 121.485,130.55 85.5,149C 72.2743,154.674 58.6076,157.841 44.5,158.5C 35.9846,132.784 38.4846,108.117 52,84.5C 71.7931,60.2295 97.2931,50.7295 128.5,56C 134.473,56.8202 140.139,58.3202 145.5,60.5 Z"/></g>
<g><path style="opacity:0.997" fill="#fec133" d="M 466.5,159.5 C 408,152 374.666,119 366.5,60.5C 387.781,52.3542 409.115,52.5209 430.5,61C 451.348,70.8392 464.515,87.0059 470,109.5C 471.511,120.122 471.844,130.789 471,141.5C 470.413,147.849 468.913,153.849 466.5,159.5 Z"/></g>
<g><path style="opacity:1" fill="#214e58" d="M 145.5,60.5 C 155.435,63.1434 164.768,67.1434 173.5,72.5C 168.145,119.323 144.812,153.823 103.5,176C 88.8693,182.819 73.536,186.986 57.5,188.5C 51.5485,179.257 47.2151,169.257 44.5,158.5C 58.6076,157.841 72.2743,154.674 85.5,149C 121.485,130.55 140.485,101.05 142.5,60.5C 143.5,60.5 144.5,60.5 145.5,60.5 Z"/></g>
<g><path style="opacity:1" fill="#204e58" d="M 366.5,60.5 C 374.666,119 408,152 466.5,159.5C 466.31,162.855 465.31,165.855 463.5,168.5C 462.069,169.78 461.402,171.447 461.5,173.5C 459.674,178.484 457.341,183.151 454.5,187.5C 427.843,186.332 404.176,177.165 383.5,160C 356.699,136.898 341.699,107.732 338.5,72.5C 347.095,66.8715 356.428,62.8715 366.5,60.5 Z"/></g>
<g><path style="opacity:1" fill="#f2893b" d="M 173.5,72.5 C 183.383,78.3846 192.383,85.3846 200.5,93.5C 191.599,145.463 163.266,182.63 115.5,205C 103.215,209.738 90.5479,212.905 77.5,214.5C 75.2034,212.706 73.0367,210.706 71,208.5C 66.2423,201.977 61.7423,195.311 57.5,188.5C 73.536,186.986 88.8693,182.819 103.5,176C 144.812,153.823 168.145,119.323 173.5,72.5 Z"/></g>
<g><path style="opacity:1" fill="#f28a3b" d="M 338.5,72.5 C 341.699,107.732 356.699,136.898 383.5,160C 404.176,177.165 427.843,186.332 454.5,187.5C 449.032,197.97 442.032,207.303 433.5,215.5C 381.591,207.094 344.425,179.094 322,131.5C 316.67,119.013 313.503,106.013 312.5,92.5C 315.764,90.9059 318.431,88.5725 320.5,85.5C 325.918,80.4242 331.918,76.0908 338.5,72.5 Z"/></g>
<g><path style="opacity:0.996" fill="#aa8866" d="M 320.5,85.5 C 318.431,88.5725 315.764,90.9059 312.5,92.5C 314.569,89.4275 317.236,87.0941 320.5,85.5 Z"/></g>
<g><path style="opacity:1" fill="#3b7da1" d="M 200.5,93.5 C 215.357,106.54 225.691,122.54 231.5,141.5C 221.823,141.195 212.156,141.028 202.5,141C 199.793,142.864 198.959,145.364 200,148.5C 206.333,158.5 212.667,168.5 219,178.5C 221.435,183.761 219.768,187.094 214,188.5C 199.758,186.231 185.591,183.564 171.5,180.5C 167.599,180.901 165.599,183.068 165.5,187C 168.793,202.051 170.96,217.218 172,232.5C 170.136,235.207 167.636,236.041 164.5,235C 154.5,228.667 144.5,222.333 134.5,216C 128.912,214.072 125.578,215.905 124.5,221.5C 125.388,230.151 126.055,238.818 126.5,247.5C 107.204,240.865 90.8704,229.865 77.5,214.5C 90.5479,212.905 103.215,209.738 115.5,205C 163.266,182.63 191.599,145.463 200.5,93.5 Z"/></g>
<g><path style="opacity:1" fill="#3a7da1" d="M 312.5,92.5 C 313.503,106.013 316.67,119.013 322,131.5C 344.425,179.094 381.591,207.094 433.5,215.5C 421.9,228.634 407.9,238.301 391.5,244.5C 389.5,244.833 387.5,245.167 385.5,245.5C 385.5,243.5 385.5,241.5 385.5,239.5C 385.603,232.471 385.77,225.471 386,218.5C 384.561,216.552 382.728,215.219 380.5,214.5C 369.705,220.734 359.038,227.234 348.5,234C 342.412,237.069 339.079,235.236 338.5,228.5C 340.342,216.108 342.508,203.774 345,191.5C 347.154,185.285 345.154,181.618 339,180.5C 325.097,182.79 311.263,185.456 297.5,188.5C 292.156,187.655 290.323,184.655 292,179.5C 298.333,169.167 304.667,158.833 311,148.5C 311.944,145.653 311.444,143.153 309.5,141C 299.492,140.553 289.492,140.72 279.5,141.5C 285.81,121.841 296.81,105.507 312.5,92.5 Z"/></g>
<g><path style="opacity:0.996" fill="#fdc133" d="M 231.5,141.5 C 233.264,145.205 234.431,149.205 235,153.5C 236.008,164.303 235.508,174.97 233.5,185.5C 222.491,217.175 201.158,238.509 169.5,249.5C 155.011,252.231 140.678,251.564 126.5,247.5C 126.055,238.818 125.388,230.151 124.5,221.5C 125.578,215.905 128.912,214.072 134.5,216C 144.5,222.333 154.5,228.667 164.5,235C 167.636,236.041 170.136,235.207 172,232.5C 170.96,217.218 168.793,202.051 165.5,187C 165.599,183.068 167.599,180.901 171.5,180.5C 185.591,183.564 199.758,186.231 214,188.5C 219.768,187.094 221.435,183.761 219,178.5C 212.667,168.5 206.333,158.5 200,148.5C 198.959,145.364 199.793,142.864 202.5,141C 212.156,141.028 221.823,141.195 231.5,141.5 Z"/></g>
<g><path style="opacity:0.994" fill="#fdc133" d="M 385.5,239.5 C 384.848,240.449 384.514,241.615 384.5,243C 384.608,244.681 385.275,245.848 386.5,246.5C 371.457,252.067 356.124,252.734 340.5,248.5C 309.437,238.103 288.77,217.437 278.5,186.5C 274.435,171.443 274.769,156.443 279.5,141.5C 289.492,140.72 299.492,140.553 309.5,141C 311.444,143.153 311.944,145.653 311,148.5C 304.667,158.833 298.333,169.167 292,179.5C 290.323,184.655 292.156,187.655 297.5,188.5C 311.263,185.456 325.097,182.79 339,180.5C 345.154,181.618 347.154,185.285 345,191.5C 342.508,203.774 340.342,216.108 338.5,228.5C 339.079,235.236 342.412,237.069 348.5,234C 359.038,227.234 369.705,220.734 380.5,214.5C 382.728,215.219 384.561,216.552 386,218.5C 385.77,225.471 385.603,232.471 385.5,239.5 Z"/></g>
<g><path style="opacity:0.784" fill="#c5a43f" d="M 463.5,168.5 C 463.598,170.553 462.931,172.22 461.5,173.5C 461.402,171.447 462.069,169.78 463.5,168.5 Z"/></g>
<g><path style="opacity:0.986" fill="#f48a3a" d="M 233.5,185.5 C 236.251,195.705 239.085,206.038 242,216.5C 245.471,223.768 248.638,231.101 251.5,238.5C 245.608,251.059 236.608,260.726 224.5,267.5C 214.841,262.665 204.841,258.498 194.5,255C 186.188,252.971 177.855,251.138 169.5,249.5C 201.158,238.509 222.491,217.175 233.5,185.5 Z"/></g>
<g><path style="opacity:0.99" fill="#f48a3b" d="M 278.5,186.5 C 288.77,217.437 309.437,238.103 340.5,248.5C 308.09,253.956 280.923,268.956 259,293.5C 227.635,330.359 196.135,367.025 164.5,403.5C 164.657,402.127 164.49,400.793 164,399.5C 150.965,386.632 138.131,373.632 125.5,360.5C 165.128,326.71 204.628,292.71 244,258.5C 262.719,238.058 274.219,214.058 278.5,186.5 Z"/></g>
<g><path style="opacity:0.988" fill="#979d72" d="M 385.5,239.5 C 385.5,241.5 385.5,243.5 385.5,245.5C 387.5,245.167 389.5,244.833 391.5,244.5C 390.22,245.931 388.553,246.598 386.5,246.5C 385.275,245.848 384.608,244.681 384.5,243C 384.514,241.615 384.848,240.449 385.5,239.5 Z"/></g>
<g><path style="opacity:0.993" fill="#f38a3b" d="M 386.5,361.5 C 385.761,361.369 385.094,361.536 384.5,362C 371.967,375.699 358.967,388.866 345.5,401.5C 317.532,369.359 289.698,337.025 262,304.5C 260.699,302.635 260.365,300.635 261,298.5C 267.538,290.294 275.038,283.128 283.5,277C 285.971,276.294 288.305,276.627 290.5,278C 322.397,306.072 354.397,333.905 386.5,361.5 Z"/></g>
<g><path style="opacity:1" fill="#3e7da0" d="M 125.5,360.5 C 138.131,373.632 150.965,386.632 164,399.5C 164.49,400.793 164.657,402.127 164.5,403.5C 163.833,404.833 162.833,405.833 161.5,406.5C 159.738,407.262 158.738,408.596 158.5,410.5C 157.5,411.833 156.5,413.167 155.5,414.5C 153.5,414.5 152.5,415.5 152.5,417.5C 151.5,418.833 150.5,420.167 149.5,421.5C 148.153,422.028 146.819,422.195 145.5,422C 131.632,407.965 117.632,394.131 103.5,380.5C 110.462,373.543 117.796,366.876 125.5,360.5 Z"/></g>
<g><path style="opacity:1" fill="#3b7da0" d="M 386.5,361.5 C 394.114,366.781 401.114,372.781 407.5,379.5C 393.449,394.552 378.782,408.886 363.5,422.5C 357.529,415.525 351.529,408.525 345.5,401.5C 358.967,388.866 371.967,375.699 384.5,362C 385.094,361.536 385.761,361.369 386.5,361.5 Z"/></g>
<g><path style="opacity:0.992" fill="#f48a3a" d="M 103.5,380.5 C 117.632,394.131 131.632,407.965 145.5,422C 146.819,422.195 148.153,422.028 149.5,421.5C 142.835,429 136.335,436.667 130,444.5C 116.162,455.631 101.662,456.797 86.5,448C 74.1948,437.747 70.3615,424.914 75,409.5C 76.4131,406.339 78.0797,403.339 80,400.5C 87.4315,393.225 95.2648,386.559 103.5,380.5 Z"/></g>
<g><path style="opacity:0.992" fill="#f38a3b" d="M 407.5,379.5 C 416.089,385.916 424.255,392.916 432,400.5C 439.424,412.267 440.424,424.6 435,437.5C 421.123,455.941 404.29,459.108 384.5,447C 377.137,439.081 370.137,430.915 363.5,422.5C 378.782,408.886 393.449,394.552 407.5,379.5 Z"/></g>
<g><path style="opacity:0.008" fill="#e1843d" d="M 161.5,406.5 C 161.262,408.404 160.262,409.738 158.5,410.5C 158.738,408.596 159.738,407.262 161.5,406.5 Z"/></g>
<g><path style="opacity:0.031" fill="#e39a49" d="M 155.5,414.5 C 154.833,415.833 153.833,416.833 152.5,417.5C 152.5,415.5 153.5,414.5 155.5,414.5 Z"/></g>
</svg>
