<?xml version="1.0" encoding="UTF-8"?>
<!DOCTYPE svg PUBLIC "-//W3C//DTD SVG 1.1//EN" "http://www.w3.org/Graphics/SVG/1.1/DTD/svg11.dtd">
<svg xmlns="http://www.w3.org/2000/svg" version="1.1" width="512px" height="512px" style="shape-rendering:geometricPrecision; text-rendering:geometricPrecision; image-rendering:optimizeQuality; fill-rule:evenodd; clip-rule:evenodd" xmlns:xlink="http://www.w3.org/1999/xlink">
<g><path style="opacity:0.95" fill="#29cf5a" d="M 261.5,-0.5 C 264.167,-0.5 266.833,-0.5 269.5,-0.5C 273.129,2.82691 274.296,6.82691 273,11.5C 276.373,8.11395 280.206,7.61395 284.5,10C 288.012,13.736 288.345,17.736 285.5,22C 297.239,23.3791 299.573,28.7124 292.5,38C 289.474,39.1825 286.474,40.3492 283.5,41.5C 278.669,29.9988 270.669,21.3321 259.5,15.5C 257.326,15.2503 255.659,14.2503 254.5,12.5C 255.568,7.35699 257.901,3.02365 261.5,-0.5 Z"/></g>
<g><path style="opacity:1" fill="#feb545" d="M 450.5,274.5 C 443.882,265.548 436.549,257.215 428.5,249.5C 446.803,217.255 456.803,182.588 458.5,145.5C 458.629,126.231 455.463,107.564 449,89.5C 440.589,83.0038 434.922,74.6705 432,64.5C 430.588,47.2088 430.088,29.8754 430.5,12.5C 430.913,9.58489 432.579,7.75156 435.5,7C 442.167,6.33333 448.833,6.33333 455.5,7C 458.333,7.83333 460.167,9.66667 461,12.5C 461.333,27.1667 461.667,41.8333 462,56.5C 464.889,61.397 468.555,65.7304 473,69.5C 479.158,79.6352 483.158,90.6352 485,102.5C 493.293,147.532 488.626,191.199 471,233.5C 465.208,247.751 458.375,261.418 450.5,274.5 Z"/></g>
<g><path style="opacity:0.983" fill="#fe5467" d="M 254.5,12.5 C 255.659,14.2503 257.326,15.2503 259.5,15.5C 263.783,27.0104 263.449,38.3438 258.5,49.5C 254.082,50.8299 252.415,53.8299 253.5,58.5C 247.401,62.0833 241.401,65.9166 235.5,70C 232.039,72.0655 228.373,73.5655 224.5,74.5C 216.86,68.0316 211.86,69.6983 209.5,79.5C 204.203,80.2745 198.87,80.6079 193.5,80.5C 193.5,81.5 193.5,82.5 193.5,83.5C 192.374,62.0277 198.541,42.6943 212,25.5C 223.458,12.4035 237.625,8.07015 254.5,12.5 Z"/></g>
<g><path style="opacity:1" fill="#d9445b" d="M 259.5,15.5 C 270.669,21.3321 278.669,29.9988 283.5,41.5C 287.725,59.3298 282.725,73.8298 268.5,85C 250.834,98.0042 231.167,103.671 209.5,102C 199.702,99.7017 194.369,93.535 193.5,83.5C 193.5,82.5 193.5,81.5 193.5,80.5C 198.87,80.6079 204.203,80.2745 209.5,79.5C 213.105,86.1302 217.939,87.1302 224,82.5C 224.497,79.854 224.664,77.1873 224.5,74.5C 228.373,73.5655 232.039,72.0655 235.5,70C 241.401,65.9166 247.401,62.0833 253.5,58.5C 256.889,65.6746 261.389,66.3413 267,60.5C 269.334,52.9895 266.501,49.3229 258.5,49.5C 263.449,38.3438 263.783,27.0104 259.5,15.5 Z"/></g>
<g><path style="opacity:1" fill="#ffcc5d" d="M 236.5,27.5 C 243.676,27.173 246.842,30.5064 246,37.5C 243.928,42.1433 240.428,43.6433 235.5,42C 230.003,36.6829 230.336,31.8495 236.5,27.5 Z"/></g>
<g><path style="opacity:1" fill="#ffcc5d" d="M 213.5,49.5 C 224.818,49.0807 227.485,53.5807 221.5,63C 217.22,65.4772 213.72,64.6439 211,60.5C 209.812,56.2586 210.645,52.5919 213.5,49.5 Z"/></g>
<g><path style="opacity:1" fill="#ffcb5d" d="M 235.5,49.5 C 243.161,48.663 246.661,51.9964 246,59.5C 242.455,65.2087 238.121,65.8754 233,61.5C 230.511,56.7565 231.345,52.7565 235.5,49.5 Z"/></g>
<g><path style="opacity:1" fill="#feca5d" d="M 258.5,49.5 C 266.501,49.3229 269.334,52.9895 267,60.5C 261.389,66.3413 256.889,65.6746 253.5,58.5C 252.415,53.8299 254.082,50.8299 258.5,49.5 Z"/></g>
<g><path style="opacity:0.998" fill="#fece5c" d="M 430.5,12.5 C 430.088,29.8754 430.588,47.2088 432,64.5C 434.922,74.6705 440.589,83.0038 449,89.5C 455.463,107.564 458.629,126.231 458.5,145.5C 456.803,182.588 446.803,217.255 428.5,249.5C 422.889,246.022 417.223,242.522 411.5,239C 405.429,238.287 401.262,240.787 399,246.5C 398.501,252.157 398.334,257.824 398.5,263.5C 398.832,272.525 398.498,281.525 397.5,290.5C 386.874,294.626 379.874,302.126 376.5,313C 346.014,323.652 324.347,343.818 311.5,373.5C 287.794,388.961 262.127,399.961 234.5,406.5C 244.22,370.697 235.887,340.03 209.5,314.5C 277.698,274.134 330.864,219.134 369,149.5C 382.466,124.234 395.133,98.5673 407,72.5C 411.542,65.981 417.376,60.981 424.5,57.5C 425.48,56.0186 426.647,54.6853 428,53.5C 429.113,39.7287 429.946,26.0621 430.5,12.5 Z"/></g>
<g><path style="opacity:1" fill="#fecb5d" d="M 224.5,74.5 C 224.664,77.1873 224.497,79.854 224,82.5C 217.939,87.1302 213.105,86.1302 209.5,79.5C 211.86,69.6983 216.86,68.0316 224.5,74.5 Z"/></g>
<g><path style="opacity:1" fill="#fecb5c" d="M 236.5,70.5 C 244.149,70.3144 247.315,73.981 246,81.5C 240.833,87.0923 236.167,86.759 232,80.5C 231.077,76.0165 232.577,72.6832 236.5,70.5 Z"/></g>
<g><path style="opacity:0.96" fill="#2bcf5a" d="M 326.5,141.5 C 321.194,132.413 313.694,130.08 304,134.5C 303.601,134.272 303.435,133.938 303.5,133.5C 305.349,129.36 305.849,125.026 305,120.5C 303.022,116.362 300.189,113.029 296.5,110.5C 297.757,107.904 298.924,105.237 300,102.5C 309.237,96.8666 314.403,99.5333 315.5,110.5C 325.128,106.96 329.295,110.293 328,120.5C 327.626,121.416 327.126,122.25 326.5,123C 333.067,121.65 337.067,124.317 338.5,131C 338.205,133.923 336.871,136.257 334.5,138C 331.763,139.076 329.096,140.243 326.5,141.5 Z"/></g>
<g><path style="opacity:0.99" fill="#5b86bc" d="M 163.5,110.5 C 172.791,130.204 170.958,148.87 158,166.5C 140.451,184.621 119.951,188.954 96.5,179.5C 95.8933,179.624 95.56,179.957 95.5,180.5C 83.467,154.941 88.1337,132.774 109.5,114C 125.164,103.888 141.83,101.888 159.5,108C 161.066,108.608 162.4,109.442 163.5,110.5 Z"/></g>
<g><path style="opacity:0.981" fill="#fe5367" d="M 296.5,110.5 C 300.189,113.029 303.022,116.362 305,120.5C 305.849,125.026 305.349,129.36 303.5,133.5C 299.935,138.616 294.935,141.116 288.5,141C 296.325,144.819 299.158,150.986 297,159.5C 293.656,167.76 287.489,171.26 278.5,170C 274.388,168.221 271.222,165.388 269,161.5C 266.64,176.007 258.474,181.007 244.5,176.5C 236.672,169.574 235.506,161.574 241,152.5C 244.155,149.333 247.988,147.499 252.5,147C 243.167,138 243.167,129 252.5,120C 260.815,116.037 267.981,117.537 274,124.5C 277.195,112.823 284.695,108.156 296.5,110.5 Z"/></g>
<g><path style="opacity:1" fill="#456ea2" d="M 163.5,110.5 C 181.651,119.764 190.984,134.764 191.5,155.5C 190.008,182.819 176.008,199.652 149.5,206C 125.581,209.442 107.581,200.942 95.5,180.5C 95.56,179.957 95.8933,179.624 96.5,179.5C 119.951,188.954 140.451,184.621 158,166.5C 170.958,148.87 172.791,130.204 163.5,110.5 Z"/></g>
<g><path style="opacity:1" fill="#315689" d="M 127.5,122.5 C 131.505,122.169 134.838,123.503 137.5,126.5C 142.373,121.22 147.206,121.22 152,126.5C 153.297,131.117 152.13,134.95 148.5,138C 153.381,142.375 153.715,147.042 149.5,152C 144.758,154.229 140.925,153.062 138,148.5C 132.952,155.148 127.952,155.148 123,148.5C 122.333,146.5 122.333,144.5 123,142.5C 124.167,140.833 125.333,139.167 126.5,137.5C 120.947,131.98 121.28,126.98 127.5,122.5 Z"/></g>
<g><path style="opacity:0.977" fill="#d9435b" d="M 326.5,141.5 C 329.516,153.63 324.849,160.797 312.5,163C 321.035,171.027 321.702,179.693 314.5,189C 305.639,194.449 297.806,193.282 291,185.5C 286.579,199.42 277.746,203.253 264.5,197C 263.382,195.926 262.382,194.76 261.5,193.5C 257.336,207.414 248.67,211.247 235.5,205C 227.285,196.04 227.618,187.374 236.5,179C 239.08,177.856 241.747,177.022 244.5,176.5C 258.474,181.007 266.64,176.007 269,161.5C 271.222,165.388 274.388,168.221 278.5,170C 287.489,171.26 293.656,167.76 297,159.5C 299.158,150.986 296.325,144.819 288.5,141C 294.935,141.116 299.935,138.616 303.5,133.5C 303.435,133.938 303.601,134.272 304,134.5C 313.694,130.08 321.194,132.413 326.5,141.5 Z"/></g>
<g><path style="opacity:0.978" fill="#28cf5a" d="M 120.5,285.5 C 117.97,291.756 115.637,298.09 113.5,304.5C 112.391,304.443 111.391,304.11 110.5,303.5C 110.5,302.833 110.167,302.5 109.5,302.5C 109.167,302.5 108.833,302.5 108.5,302.5C 108.5,301.833 108.167,301.5 107.5,301.5C 107.167,301.5 106.833,301.5 106.5,301.5C 91.9208,292.422 79.7541,280.756 70,266.5C 61.938,250.656 56.938,233.989 55,216.5C 58.0498,212.87 61.8831,211.703 66.5,213C 80.116,220.722 92.9493,229.556 105,239.5C 114.84,253.186 120.007,268.519 120.5,285.5 Z"/></g>
<g><path style="opacity:0.972" fill="#b66651" d="M 131.5,302.5 C 130.833,302.5 130.5,302.833 130.5,303.5C 127.232,305.154 123.899,306.821 120.5,308.5C 117.941,307.392 115.608,306.059 113.5,304.5C 115.637,298.09 117.97,291.756 120.5,285.5C 137.612,253.059 163.612,231.059 198.5,219.5C 207.402,221.879 211.236,227.546 210,236.5C 205.649,241.254 200.982,241.588 196,237.5C 165.583,250.416 144.083,272.083 131.5,302.5 Z"/></g>
<g><path style="opacity:0.994" fill="#2ccf5a" d="M 428.5,249.5 C 436.549,257.215 443.882,265.548 450.5,274.5C 456.604,287.64 461.437,301.307 465,315.5C 465.932,318.823 465.432,321.823 463.5,324.5C 460.794,326.527 457.794,327.36 454.5,327C 440.779,319.146 427.779,310.313 415.5,300.5C 407.805,292.107 402.471,282.44 399.5,271.5C 399.806,268.615 399.473,265.948 398.5,263.5C 398.334,257.824 398.501,252.157 399,246.5C 401.262,240.787 405.429,238.287 411.5,239C 417.223,242.522 422.889,246.022 428.5,249.5 Z"/></g>
<g><path style="opacity:1" fill="#b66751" d="M 399.5,271.5 C 402.471,282.44 407.805,292.107 415.5,300.5C 414.903,308.398 414.069,316.398 413,324.5C 408.291,328.769 403.958,328.436 400,323.5C 399.5,306.17 399.333,288.837 399.5,271.5 Z"/></g>
<g><path style="opacity:0.999" fill="#fe973b" d="M 398.5,263.5 C 399.473,265.948 399.806,268.615 399.5,271.5C 399.333,288.837 399.5,306.17 400,323.5C 403.958,328.436 408.291,328.769 413,324.5C 414.069,316.398 414.903,308.398 415.5,300.5C 427.779,310.313 440.779,319.146 454.5,327C 457.794,327.36 460.794,326.527 463.5,324.5C 464.833,325.833 466.167,327.167 467.5,328.5C 488.058,359.383 491.891,392.383 479,427.5C 456.704,472.743 420.204,493.243 369.5,489C 353.098,486.038 338.098,479.872 324.5,470.5C 312.307,453.594 305.64,434.594 304.5,413.5C 304.887,399.845 307.22,386.512 311.5,373.5C 324.347,343.818 346.014,323.652 376.5,313C 379.874,302.126 386.874,294.626 397.5,290.5C 398.498,281.525 398.832,272.525 398.5,263.5 Z"/></g>
<g><path style="opacity:0.996" fill="#fe5267" d="M 106.5,301.5 C 106.833,301.5 107.167,301.5 107.5,301.5C 108.167,301.5 108.5,301.833 108.5,302.5C 108.833,302.5 109.167,302.5 109.5,302.5C 110.167,302.5 110.5,302.833 110.5,303.5C 111.391,304.11 112.391,304.443 113.5,304.5C 115.608,306.059 117.941,307.392 120.5,308.5C 123.899,306.821 127.232,305.154 130.5,303.5C 131.167,303.5 131.5,303.167 131.5,302.5C 156.873,294.033 180.873,296.7 203.5,310.5C 217.523,334.799 220.357,360.466 212,387.5C 201.785,421.794 181.951,448.96 152.5,469C 142.179,474.551 131.179,477.885 119.5,479C 96.9963,479.168 74.6629,479.668 52.5,480.5C 14.5542,446.833 -0.945796,404.833 6,354.5C 19.332,315.233 46.832,296.4 88.5,298C 94.6065,298.721 100.606,299.888 106.5,301.5 Z"/></g>
<g><path style="opacity:1" fill="#d9435b" d="M 203.5,310.5 C 205.772,311.441 207.772,312.774 209.5,314.5C 235.887,340.03 244.22,370.697 234.5,406.5C 230.717,418.417 226.05,430.084 220.5,441.5C 206.889,465.943 187.556,484.443 162.5,497C 154.293,500.175 145.793,501.675 137,501.5C 122.511,500.915 108.011,500.749 93.5,501C 77.889,497.861 64.2224,491.028 52.5,480.5C 74.6629,479.668 96.9963,479.168 119.5,479C 131.179,477.885 142.179,474.551 152.5,469C 181.951,448.96 201.785,421.794 212,387.5C 220.357,360.466 217.523,334.799 203.5,310.5 Z"/></g>
<g><path style="opacity:0.999" fill="#ff7e3f" d="M 467.5,328.5 C 488.425,343.971 501.592,364.638 507,390.5C 513.341,440.317 494.841,477.483 451.5,502C 441.447,506.521 431.114,509.688 420.5,511.5C 411.167,511.5 401.833,511.5 392.5,511.5C 364.307,506.969 341.641,493.302 324.5,470.5C 338.098,479.872 353.098,486.038 369.5,489C 420.204,493.243 456.704,472.743 479,427.5C 491.891,392.383 488.058,359.383 467.5,328.5 Z"/></g>
<g><path style="opacity:1" fill="#ff7f3f" d="M 357.5,351.5 C 365.357,352.165 368.19,356.165 366,363.5C 361.667,368.833 357.333,368.833 353,363.5C 351.309,358.131 352.809,354.131 357.5,351.5 Z"/></g>
<g><path style="opacity:1" fill="#feb545" d="M 311.5,373.5 C 307.22,386.512 304.887,399.845 304.5,413.5C 278.06,427.425 250.06,436.758 220.5,441.5C 226.05,430.084 230.717,418.417 234.5,406.5C 262.127,399.961 287.794,388.961 311.5,373.5 Z"/></g>
<g><path style="opacity:1" fill="#ff7e3f" d="M 376.5,380.5 C 384.161,379.663 387.661,382.996 387,390.5C 382.748,396.653 378.081,396.986 373,391.5C 371.662,386.96 372.829,383.293 376.5,380.5 Z"/></g>
<g><path style="opacity:1" fill="#ff7e3f" d="M 336.5,402.5 C 346.11,402.936 348.776,407.436 344.5,416C 335.961,419.451 331.794,416.618 332,407.5C 333.366,405.638 334.866,403.972 336.5,402.5 Z"/></g>
</svg>
