<?xml version="1.0" encoding="UTF-8"?>
<!DOCTYPE svg PUBLIC "-//W3C//DTD SVG 1.1//EN" "http://www.w3.org/Graphics/SVG/1.1/DTD/svg11.dtd">
<svg xmlns="http://www.w3.org/2000/svg" version="1.1" width="512px" height="512px" style="shape-rendering:geometricPrecision; text-rendering:geometricPrecision; image-rendering:optimizeQuality; fill-rule:evenodd; clip-rule:evenodd" xmlns:xlink="http://www.w3.org/1999/xlink">
<g><path style="opacity:0.994" fill="#aa744c" d="M 314.5,81.5 C 310.195,107.414 301.862,132.08 289.5,155.5C 290.949,156.172 292.282,156.839 293.5,157.5C 221.163,155.337 186.663,190.337 190,262.5C 197.81,302.633 217.643,335.466 249.5,361C 279.488,385.785 313.822,401.119 352.5,407C 383.592,411.387 411.926,404.72 437.5,387C 444.767,380.238 451.434,373.072 457.5,365.5C 420.137,429.183 364.47,457.35 290.5,450C 234.852,440.631 195.352,410.465 172,359.5C 166.597,345.652 163.431,331.318 162.5,316.5C 161.446,299.705 163.113,283.205 167.5,267C 167.167,266.167 166.833,265.333 166.5,264.5C 135.666,277.208 103.666,285.208 70.5,288.5C 58.0713,278.88 49.238,266.547 44,251.5C 32.0163,206.022 41.0163,165.355 71,129.5C 115.727,84.3155 170.06,60.9821 234,59.5C 254.88,58.9522 275.047,62.4522 294.5,70C 301.719,73.1022 308.386,76.9355 314.5,81.5 Z"/></g>
<g><path style="opacity:0.995" fill="#915e3a" d="M 314.5,81.5 C 322.286,85.8381 329.119,91.5047 335,98.5C 347.682,113.862 356.682,131.196 362,150.5C 363.993,159.728 364.827,169.061 364.5,178.5C 342.176,167.002 318.509,160.002 293.5,157.5C 292.282,156.839 290.949,156.172 289.5,155.5C 301.862,132.08 310.195,107.414 314.5,81.5 Z"/></g>
<g><path style="opacity:1" fill="#bc8863" d="M 172.5,93.5 C 180.638,93.0756 188.638,93.909 196.5,96C 204.108,100.386 206.942,106.886 205,115.5C 196.385,132.781 183.219,145.281 165.5,153C 152.514,159.331 138.848,161.664 124.5,160C 113.126,157.743 108.293,150.91 110,139.5C 116.694,124.138 127.527,112.638 142.5,105C 152.223,100.043 162.223,96.21 172.5,93.5 Z"/></g>
<g><path style="opacity:1" fill="#7baa3c" d="M 293.5,157.5 C 318.509,160.002 342.176,167.002 364.5,178.5C 407.505,200.672 440.005,233.339 462,276.5C 473.16,299.916 474.827,323.916 467,348.5C 464.327,354.52 461.16,360.187 457.5,365.5C 451.434,373.072 444.767,380.238 437.5,387C 411.926,404.72 383.592,411.387 352.5,407C 313.822,401.119 279.488,385.785 249.5,361C 217.643,335.466 197.81,302.633 190,262.5C 186.663,190.337 221.163,155.337 293.5,157.5 Z"/></g>
<g><path style="opacity:1" fill="#5e8131" d="M 341.5,196.5 C 346.35,196.519 348.683,199.019 348.5,204C 348.595,211.959 345.262,217.793 338.5,221.5C 336.575,221.41 335.408,220.41 335,218.5C 332.851,209.82 335.018,202.487 341.5,196.5 Z"/></g>
<g><path style="opacity:1" fill="#5e8131" d="M 259.5,207.5 C 262.978,207.184 266.312,207.684 269.5,209C 272,211.5 274.5,214 277,216.5C 280.728,224.206 278.562,227.373 270.5,226C 262.669,222.064 259.003,215.897 259.5,207.5 Z"/></g>
<g><path style="opacity:1" fill="#5e8131" d="M 390.5,233.5 C 394.182,233.335 397.848,233.501 401.5,234C 404.448,237.927 403.782,241.261 399.5,244C 396.583,245.528 393.583,246.861 390.5,248C 386.495,249.098 382.995,248.265 380,245.5C 379.333,244.167 379.333,242.833 380,241.5C 382.94,237.963 386.44,235.297 390.5,233.5 Z"/></g>
<g><path style="opacity:1" fill="#f0e880" d="M 309.5,241.5 C 338.739,239.953 359.573,252.286 372,278.5C 377.539,293.301 374.706,306.135 363.5,317C 346.536,326.16 329.869,325.493 313.5,315C 294.189,303.21 285.355,286.043 287,263.5C 290.735,252.233 298.235,244.9 309.5,241.5 Z"/></g>
<g><path style="opacity:1" fill="#5e8131" d="M 240.5,263.5 C 244.846,263.334 249.179,263.501 253.5,264C 257.182,265.32 258.682,267.82 258,271.5C 251.507,276.568 244.341,277.735 236.5,275C 233.913,273.475 233.08,271.308 234,268.5C 235.965,266.45 238.132,264.783 240.5,263.5 Z"/></g>
<g><path style="opacity:0.998" fill="#915e3a" d="M 162.5,316.5 C 135.12,316.654 109.12,310.821 84.5,299C 79.2283,296.209 74.5616,292.709 70.5,288.5C 103.666,285.208 135.666,277.208 166.5,264.5C 166.833,265.333 167.167,266.167 167.5,267C 163.113,283.205 161.446,299.705 162.5,316.5 Z"/></g>
<g><path style="opacity:1" fill="#5f8131" d="M 407.5,282.5 C 414.761,282.049 421.261,284.049 427,288.5C 427.717,294.601 424.883,297.268 418.5,296.5C 411.552,296.528 406.219,293.695 402.5,288C 403.679,285.657 405.346,283.824 407.5,282.5 Z"/></g>
<g><path style="opacity:1" fill="#5f8131" d="M 273.5,312.5 C 280.913,311.744 283.08,314.744 280,321.5C 275.457,328.021 269.29,331.187 261.5,331C 259.052,327.858 259.219,324.692 262,321.5C 265.161,317.491 268.994,314.491 273.5,312.5 Z"/></g>
<g><path style="opacity:1" fill="#5e8131" d="M 385.5,331.5 C 397.139,331.973 403.305,337.973 404,349.5C 395.244,351.132 388.91,347.799 385,339.5C 384.278,336.739 384.445,334.073 385.5,331.5 Z"/></g>
<g><path style="opacity:1" fill="#5e8131" d="M 323.5,342.5 C 327.575,342.399 330.075,344.399 331,348.5C 332.061,354.724 331.394,360.724 329,366.5C 326.667,369.167 324.333,369.167 322,366.5C 318.248,358.13 318.748,350.13 323.5,342.5 Z"/></g>
</svg>
