<?xml version="1.0" encoding="UTF-8"?>
<!DOCTYPE svg PUBLIC "-//W3C//DTD SVG 1.1//EN" "http://www.w3.org/Graphics/SVG/1.1/DTD/svg11.dtd">
<svg xmlns="http://www.w3.org/2000/svg" version="1.1" width="512px" height="512px" style="shape-rendering:geometricPrecision; text-rendering:geometricPrecision; image-rendering:optimizeQuality; fill-rule:evenodd; clip-rule:evenodd" xmlns:xlink="http://www.w3.org/1999/xlink">
<g><path style="opacity:0.982" fill="#368b4c" d="M 327.5,-0.5 C 330.833,-0.5 334.167,-0.5 337.5,-0.5C 342.234,1.73934 345.401,5.40601 347,10.5C 352.252,35.3591 351.585,60.0257 345,84.5C 341.874,93.4178 337.708,101.751 332.5,109.5C 309.774,111.204 289.107,118.537 270.5,131.5C 272.139,126.563 273.473,121.563 274.5,116.5C 298.464,100.264 311.964,77.5977 315,48.5C 315.676,34.4858 315.509,20.4858 314.5,6.5C 318.706,3.89768 323.039,1.56434 327.5,-0.5 Z"/></g>
<g><path style="opacity:1" fill="#3ea359" d="M 314.5,6.5 C 315.509,20.4858 315.676,34.4858 315,48.5C 311.964,77.5977 298.464,100.264 274.5,116.5C 278.737,100.073 278.237,83.74 273,67.5C 271.122,61.362 268.955,55.362 266.5,49.5C 278.686,30.9843 294.686,16.6509 314.5,6.5 Z"/></g>
<g><path style="opacity:0.929" fill="#368b4c" d="M 193.5,120.5 C 196.956,132.393 201.456,143.727 207,154.5C 198.58,144.883 189.08,136.55 178.5,129.5C 178.5,128.833 178.167,128.5 177.5,128.5C 177.5,127.833 177.167,127.5 176.5,127.5C 163.599,108.716 150.432,90.0496 137,71.5C 133.993,64.1815 136.326,59.5148 144,57.5C 146.887,57.9031 149.221,59.2365 151,61.5C 164.698,81.5869 178.865,101.254 193.5,120.5 Z"/></g>
<g><path style="opacity:1" fill="#fe0c37" d="M 332.5,109.5 C 398.372,111.212 444.538,142.212 471,202.5C 494.104,275.53 497.77,349.53 482,424.5C 478.161,441.517 472.661,457.85 465.5,473.5C 454.635,478.049 443.302,480.716 431.5,481.5C 378.495,476.832 328.162,462.665 280.5,439C 266.113,431.474 251.78,423.974 237.5,416.5C 234.792,407.626 228.959,401.959 220,399.5C 218.167,399.519 216.667,400.185 215.5,401.5C 170.401,372 147.068,330 145.5,275.5C 145.567,251.31 151.9,228.977 164.5,208.5C 165.5,208.167 166.167,207.5 166.5,206.5C 201.558,181.978 236.224,156.978 270.5,131.5C 289.107,118.537 309.774,111.204 332.5,109.5 Z"/></g>
<g><path style="opacity:1" fill="#63c27c" d="M 212.5,32.5 C 224.935,49.2768 233.435,67.9435 238,88.5C 242.896,117.635 236.063,143.635 217.5,166.5C 180.358,180.503 146.691,174.67 116.5,149C 106.509,140.185 97.842,130.352 90.5,119.5C 120.205,111.337 148.872,114.004 176.5,127.5C 177.167,127.5 177.5,127.833 177.5,128.5C 178.167,128.5 178.5,128.833 178.5,129.5C 189.08,136.55 198.58,144.883 207,154.5C 201.456,143.727 196.956,132.393 193.5,120.5C 187.198,88.3832 193.531,59.0498 212.5,32.5 Z"/></g>
<g><path style="opacity:0.991" fill="#4cb967" d="M 266.5,49.5 C 268.955,55.362 271.122,61.362 273,67.5C 278.237,83.74 278.737,100.073 274.5,116.5C 273.473,121.563 272.139,126.563 270.5,131.5C 236.224,156.978 201.558,181.978 166.5,206.5C 146.067,207.142 127.067,202.308 109.5,192C 102.323,186.977 95.3225,181.81 88.5,176.5C 78.7537,166.91 70.2537,156.243 63,144.5C 61.114,137.451 62.9473,131.618 68.5,127C 75.6071,123.798 82.9404,121.298 90.5,119.5C 97.842,130.352 106.509,140.185 116.5,149C 146.691,174.67 180.358,180.503 217.5,166.5C 236.063,143.635 242.896,117.635 238,88.5C 233.435,67.9435 224.935,49.2768 212.5,32.5C 216.158,25.6616 220.824,19.4949 226.5,14C 235.679,9.4091 243.179,11.2424 249,19.5C 255.886,28.8859 261.719,38.8859 266.5,49.5 Z"/></g>
<g><path style="opacity:1" fill="#060000" d="M 410.5,161.5 C 414.131,161.16 417.464,161.994 420.5,164C 428.789,169.741 432.289,177.575 431,187.5C 427.974,190.864 424.474,191.364 420.5,189C 411.411,183.322 407.244,175.155 408,164.5C 409.045,163.627 409.878,162.627 410.5,161.5 Z"/></g>
<g><path style="opacity:1" fill="#090101" d="M 311.5,174.5 C 318.641,175.144 324.141,178.478 328,184.5C 331.527,189.275 332.86,194.608 332,200.5C 328.663,203.97 324.83,204.47 320.5,202C 311.596,196.127 307.762,187.961 309,177.5C 310.045,176.627 310.878,175.627 311.5,174.5 Z"/></g>
<g><path style="opacity:1" fill="#3fa359" d="M 88.5,176.5 C 95.3225,181.81 102.323,186.977 109.5,192C 127.067,202.308 146.067,207.142 166.5,206.5C 166.167,207.5 165.5,208.167 164.5,208.5C 158.8,212.354 153.467,216.688 148.5,221.5C 121.62,230.119 94.9529,229.286 68.5,219C 62.1667,216 55.8333,213 49.5,210C 45.5613,208.209 42.228,205.709 39.5,202.5C 53.6978,189.9 70.0311,181.233 88.5,176.5 Z"/></g>
<g><path style="opacity:0.98" fill="#368a4c" d="M 39.5,202.5 C 42.228,205.709 45.5613,208.209 49.5,210C 55.8333,213 62.1667,216 68.5,219C 94.9529,229.286 121.62,230.119 148.5,221.5C 138.421,232.661 130.087,244.994 123.5,258.5C 100.242,263.805 77.2416,262.305 54.5,254C 44.4362,250.135 34.7696,245.468 25.5,240C 19.4016,234.296 17.9016,227.462 21,219.5C 26.7368,213.259 32.9035,207.592 39.5,202.5 Z"/></g>
<g><path style="opacity:0.982" fill="#c70024" d="M 164.5,208.5 C 151.9,228.977 145.567,251.31 145.5,275.5C 147.068,330 170.401,372 215.5,401.5C 213.509,413.353 217.843,422.186 228.5,428C 237.572,429.085 240.572,425.252 237.5,416.5C 251.78,423.974 266.113,431.474 280.5,439C 328.162,462.665 378.495,476.832 431.5,481.5C 443.302,480.716 454.635,478.049 465.5,473.5C 453.993,494.662 436.326,507.329 412.5,511.5C 404.833,511.5 397.167,511.5 389.5,511.5C 328.576,502.913 271.243,483.413 217.5,453C 198.075,442.234 179.742,429.9 162.5,416C 118.043,371.337 105.043,318.837 123.5,258.5C 130.087,244.994 138.421,232.661 148.5,221.5C 153.467,216.688 158.8,212.354 164.5,208.5 Z"/></g>
<g><path style="opacity:1" fill="#080101" d="M 208.5,233.5 C 215.628,234.125 221.128,237.458 225,243.5C 228.467,248.988 229.301,254.821 227.5,261C 224.97,262.422 222.303,262.755 219.5,262C 210.925,257.358 205.925,250.191 204.5,240.5C 204.577,237.335 205.91,235.001 208.5,233.5 Z"/></g>
<g><path style="opacity:1" fill="#090101" d="M 386.5,264.5 C 398.188,267.176 404.855,274.509 406.5,286.5C 406.596,288.926 405.93,291.093 404.5,293C 396.388,293.94 390.221,290.773 386,283.5C 382.606,278.088 381.94,272.422 384,266.5C 384.995,265.934 385.828,265.267 386.5,264.5 Z"/></g>
<g><path style="opacity:1" fill="#050000" d="M 291.5,288.5 C 300.585,289.399 307.085,294.065 311,302.5C 313.409,307.719 312.909,312.553 309.5,317C 302.708,317.019 297.208,314.186 293,308.5C 288.996,303.443 287.662,297.776 289,291.5C 290.045,290.627 290.878,289.627 291.5,288.5 Z"/></g>
<g><path style="opacity:1" fill="#050000" d="M 173.5,319.5 C 180.468,319.067 185.968,321.733 190,327.5C 194.186,332.816 195.519,338.816 194,345.5C 191.159,347.504 187.993,348.004 184.5,347C 176.194,342.226 171.527,335.059 170.5,325.5C 170.628,323.045 171.628,321.045 173.5,319.5 Z"/></g>
<g><path style="opacity:1" fill="#080101" d="M 437.5,352.5 C 452.597,354.448 459.43,363.114 458,378.5C 454.458,382.216 450.625,382.382 446.5,379C 439.562,373.967 435.562,367.134 434.5,358.5C 434.628,356.045 435.628,354.045 437.5,352.5 Z"/></g>
<g><path style="opacity:1" fill="#090101" d="M 323.5,398.5 C 330.641,399.144 336.141,402.478 340,408.5C 343.527,413.275 344.86,418.608 344,424.5C 340.663,427.97 336.83,428.47 332.5,426C 323.632,420.149 319.799,411.983 321,401.5C 322.045,400.627 322.878,399.627 323.5,398.5 Z"/></g>
<g><path style="opacity:1" fill="#080000" d="M 237.5,416.5 C 240.572,425.252 237.572,429.085 228.5,428C 217.843,422.186 213.509,413.353 215.5,401.5C 216.667,400.185 218.167,399.519 220,399.5C 228.959,401.959 234.792,407.626 237.5,416.5 Z"/></g>
<g><path style="opacity:1" fill="#050000" d="M 402.5,442.5 C 413.414,442.557 420.581,447.89 424,458.5C 424.956,462.572 424.456,466.405 422.5,470C 419.833,470.667 417.167,470.667 414.5,470C 403.693,463.573 399.693,454.407 402.5,442.5 Z"/></g>
</svg>
