<?xml version="1.0" encoding="UTF-8"?>
<!DOCTYPE svg PUBLIC "-//W3C//DTD SVG 1.1//EN" "http://www.w3.org/Graphics/SVG/1.1/DTD/svg11.dtd">
<svg xmlns="http://www.w3.org/2000/svg" version="1.1" width="512px" height="512px" style="shape-rendering:geometricPrecision; text-rendering:geometricPrecision; image-rendering:optimizeQuality; fill-rule:evenodd; clip-rule:evenodd" xmlns:xlink="http://www.w3.org/1999/xlink">
<g><path style="opacity:0.985" fill="#fec107" d="M 233.5,-0.5 C 248.167,-0.5 262.833,-0.5 277.5,-0.5C 377.807,11.9842 449.307,63.9842 492,155.5C 500.79,176.37 506.623,198.037 509.5,220.5C 479.057,191.89 449.39,162.39 420.5,132C 419.906,131.536 419.239,131.369 418.5,131.5C 384.451,92.1581 341.785,67.4914 290.5,57.5C 282.833,49.1667 274.833,41.1667 266.5,33.5C 259.352,32.5084 252.019,32.175 244.5,32.5C 244.5,40.1667 244.5,47.8333 244.5,55.5C 176.361,60.6453 122.194,90.6453 82,145.5C 44.4491,201.93 34.7825,262.93 53,328.5C 65.8388,368.8 88.3388,402.467 120.5,429.5C 120.369,430.239 120.536,430.906 121,431.5C 145.368,455.701 169.535,480.035 193.5,504.5C 112.9,482.403 55.0671,433.403 20,357.5C 9.2841,332.054 2.45077,305.721 -0.5,278.5C -0.5,263.5 -0.5,248.5 -0.5,233.5C 11.9821,133.195 63.9821,61.6947 155.5,19C 180.687,8.70332 206.687,2.20332 233.5,-0.5 Z"/></g>
<g><path style="opacity:1" fill="#3b602b" d="M 266.5,33.5 C 266.5,40.8333 266.5,48.1667 266.5,55.5C 262.833,55.5 259.167,55.5 255.5,55.5C 251.833,55.5 248.167,55.5 244.5,55.5C 244.5,47.8333 244.5,40.1667 244.5,32.5C 252.019,32.175 259.352,32.5084 266.5,33.5 Z"/></g>
<g><path style="opacity:1" fill="#fba209" d="M 266.5,33.5 C 274.833,41.1667 282.833,49.1667 290.5,57.5C 282.5,56.8333 274.5,56.1667 266.5,55.5C 266.5,48.1667 266.5,40.8333 266.5,33.5 Z"/></g>
<g><path style="opacity:1" fill="#fa690d" d="M 244.5,55.5 C 248.167,55.5 251.833,55.5 255.5,55.5C 255.5,62.8333 255.5,70.1667 255.5,77.5C 255.5,84.8333 255.5,92.1667 255.5,99.5C 255.5,107.167 255.5,114.833 255.5,122.5C 255.5,162.833 255.5,203.167 255.5,243.5C 255.5,258.833 255.5,274.167 255.5,289.5C 255.5,330.167 255.5,370.833 255.5,411.5C 255.5,418.833 255.5,426.167 255.5,433.5C 255.5,440.833 255.5,448.167 255.5,455.5C 256.833,455.5 258.167,455.5 259.5,455.5C 258.432,456.434 257.099,456.768 255.5,456.5C 255.5,463.5 255.5,470.5 255.5,477.5C 204.568,477.748 159.568,461.748 120.5,429.5C 88.3388,402.467 65.8388,368.8 53,328.5C 34.7825,262.93 44.4491,201.93 82,145.5C 122.194,90.6453 176.361,60.6453 244.5,55.5 Z"/></g>
<g><path style="opacity:1" fill="#f94d11" d="M 255.5,55.5 C 259.167,55.5 262.833,55.5 266.5,55.5C 274.5,56.1667 282.5,56.8333 290.5,57.5C 341.785,67.4914 384.451,92.1581 418.5,131.5C 471.182,199.942 481.015,274.275 448,354.5C 418.456,414.714 371.29,453.881 306.5,472C 289.729,475.944 272.729,477.777 255.5,477.5C 255.5,470.5 255.5,463.5 255.5,456.5C 257.099,456.768 258.432,456.434 259.5,455.5C 338.228,450.904 394.728,413.237 429,342.5C 459.762,261.861 445.262,190.694 385.5,129C 348.848,95.4942 305.515,78.3276 255.5,77.5C 255.5,70.1667 255.5,62.8333 255.5,55.5 Z"/></g>
<g><path style="opacity:1" fill="#fffdfc" d="M 255.5,77.5 C 305.515,78.3276 348.848,95.4942 385.5,129C 445.262,190.694 459.762,261.861 429,342.5C 394.728,413.237 338.228,450.904 259.5,455.5C 258.167,455.5 256.833,455.5 255.5,455.5C 255.5,448.167 255.5,440.833 255.5,433.5C 280.723,433.289 304.723,427.789 327.5,417C 328.535,415.493 328.368,413.993 327,412.5C 323.97,407.326 320.804,402.326 317.5,397.5C 297.336,361.166 276.669,325.166 255.5,289.5C 255.5,274.167 255.5,258.833 255.5,243.5C 276.485,207.535 297.485,171.535 318.5,135.5C 321.821,129.527 325.155,123.527 328.5,117.5C 317.385,110.957 305.385,106.457 292.5,104C 280.308,101.294 267.975,99.7935 255.5,99.5C 255.5,92.1667 255.5,84.8333 255.5,77.5 Z"/></g>
<g><path style="opacity:1" fill="#fda40d" d="M 255.5,99.5 C 267.975,99.7935 280.308,101.294 292.5,104C 305.385,106.457 317.385,110.957 328.5,117.5C 325.155,123.527 321.821,129.527 318.5,135.5C 307.702,131.438 296.702,127.938 285.5,125C 275.597,123.015 265.597,122.182 255.5,122.5C 255.5,114.833 255.5,107.167 255.5,99.5 Z"/></g>
<g><path style="opacity:1" fill="#ffc20a" d="M 255.5,122.5 C 265.597,122.182 275.597,123.015 285.5,125C 296.702,127.938 307.702,131.438 318.5,135.5C 297.485,171.535 276.485,207.535 255.5,243.5C 255.5,203.167 255.5,162.833 255.5,122.5 Z"/></g>
<g><path style="opacity:1" fill="#fc870e" d="M 399.5,255.5 C 395.516,211.347 375.849,176.181 340.5,150C 338.963,148.89 338.297,147.39 338.5,145.5C 341.488,140.194 344.488,134.861 347.5,129.5C 348.365,128.417 349.365,128.251 350.5,129C 393.775,160.041 417.442,202.207 421.5,255.5C 414.167,255.5 406.833,255.5 399.5,255.5 Z"/></g>
<g><path style="opacity:0.986" fill="#fca309" d="M 418.5,131.5 C 419.239,131.369 419.906,131.536 420.5,132C 449.39,162.39 479.057,191.89 509.5,220.5C 509.976,224.993 510.642,229.327 511.5,233.5C 511.5,248.167 511.5,262.833 511.5,277.5C 499.018,377.805 447.018,449.305 355.5,492C 330.313,502.297 304.313,508.797 277.5,511.5C 262.833,511.5 248.167,511.5 233.5,511.5C 220.178,509.834 206.845,507.501 193.5,504.5C 169.535,480.035 145.368,455.701 121,431.5C 120.536,430.906 120.369,430.239 120.5,429.5C 159.568,461.748 204.568,477.748 255.5,477.5C 272.729,477.777 289.729,475.944 306.5,472C 371.29,453.881 418.456,414.714 448,354.5C 481.015,274.275 471.182,199.942 418.5,131.5 Z"/></g>
<g><path style="opacity:1" fill="#f94c0f" d="M 199.5,144.5 C 207.167,144.5 214.833,144.5 222.5,144.5C 222.5,151.833 222.5,159.167 222.5,166.5C 214.833,166.5 207.167,166.5 199.5,166.5C 199.5,159.167 199.5,151.833 199.5,144.5 Z"/></g>
<g><path style="opacity:1" fill="#fda40a" d="M 338.5,145.5 C 338.297,147.39 338.963,148.89 340.5,150C 375.849,176.181 395.516,211.347 399.5,255.5C 358.161,255.833 316.828,255.5 275.5,254.5C 296.274,217.94 317.274,181.607 338.5,145.5 Z"/></g>
<g><path style="opacity:1" fill="#f94d0f" d="M 99.5,210.5 C 106.841,210.334 114.174,210.5 121.5,211C 122.481,218.413 122.814,225.913 122.5,233.5C 114.833,233.5 107.167,233.5 99.5,233.5C 99.5,225.833 99.5,218.167 99.5,210.5 Z"/></g>
<g><path style="opacity:1" fill="#f84c0f" d="M 66.5,244.5 C 73.8333,244.5 81.1667,244.5 88.5,244.5C 88.5,251.833 88.5,259.167 88.5,266.5C 81.1667,266.5 73.8333,266.5 66.5,266.5C 66.5,259.167 66.5,251.833 66.5,244.5 Z"/></g>
<g><path style="opacity:1" fill="#ffc20b" d="M 421.5,278.5 C 414.167,278.5 406.833,278.5 399.5,278.5C 395.024,323.814 374.357,359.481 337.5,385.5C 316.608,350.06 295.941,314.393 275.5,278.5C 324.332,277.169 372.998,277.169 421.5,278.5 Z"/></g>
<g><path style="opacity:1" fill="#fda40c" d="M 421.5,278.5 C 417.172,332.185 393.005,374.185 349,404.5C 347.779,403.728 346.779,402.728 346,401.5C 342.887,396.271 340.053,390.938 337.5,385.5C 374.357,359.481 395.024,323.814 399.5,278.5C 406.833,278.5 414.167,278.5 421.5,278.5 Z"/></g>
<g><path style="opacity:1" fill="#fda40b" d="M 255.5,289.5 C 276.669,325.166 297.336,361.166 317.5,397.5C 297.795,406.259 277.129,410.925 255.5,411.5C 255.5,370.833 255.5,330.167 255.5,289.5 Z"/></g>
<g><path style="opacity:1" fill="#f94c0f" d="M 133.5,389.5 C 140.833,389.5 148.167,389.5 155.5,389.5C 155.5,396.833 155.5,404.167 155.5,411.5C 148.167,411.5 140.833,411.5 133.5,411.5C 133.5,404.167 133.5,396.833 133.5,389.5 Z"/></g>
<g><path style="opacity:1" fill="#fc870c" d="M 317.5,397.5 C 320.804,402.326 323.97,407.326 327,412.5C 328.368,413.993 328.535,415.493 327.5,417C 304.723,427.789 280.723,433.289 255.5,433.5C 255.5,426.167 255.5,418.833 255.5,411.5C 277.129,410.925 297.795,406.259 317.5,397.5 Z"/></g>
</svg>
