<?xml version="1.0" encoding="UTF-8"?>
<!DOCTYPE svg PUBLIC "-//W3C//DTD SVG 1.1//EN" "http://www.w3.org/Graphics/SVG/1.1/DTD/svg11.dtd">
<svg xmlns="http://www.w3.org/2000/svg" version="1.1" width="512px" height="512px" style="shape-rendering:geometricPrecision; text-rendering:geometricPrecision; image-rendering:optimizeQuality; fill-rule:evenodd; clip-rule:evenodd" xmlns:xlink="http://www.w3.org/1999/xlink">
<g><path style="opacity:0.998" fill="#98da7b" d="M 417.5,-0.5 C 421.167,-0.5 424.833,-0.5 428.5,-0.5C 476.807,51.6978 504.474,113.364 511.5,184.5C 511.5,188.5 511.5,192.5 511.5,196.5C 502.863,300.974 454.863,381.807 367.5,439C 279.997,489.54 188.997,496.873 94.5,461C 66.5186,449.312 40.8519,433.978 17.5,415C 14.9116,412.584 12.5782,410.084 10.5,407.5C 16.8333,400.5 23.5,393.833 30.5,387.5C 83.5522,439.699 147.552,464.532 222.5,462C 313.992,454.536 383.159,411.703 430,333.5C 449.128,298.95 459.628,261.95 461.5,222.5C 464.531,148.244 440.198,84.5776 388.5,31.5C 388.5,30.8333 388.167,30.5 387.5,30.5C 397.5,20.1667 407.5,9.83333 417.5,-0.5 Z"/></g>
<g><path style="opacity:1" fill="#fe4755" d="M 388.5,31.5 C 440.198,84.5776 464.531,148.244 461.5,222.5C 461.666,215.159 461.5,207.826 461,200.5C 452.121,288.641 409.954,355.474 334.5,401C 261.774,439.53 187.108,443.864 110.5,414C 87.3999,404.201 66.3999,391.201 47.5,375C 46.5,374.333 45.5,374.333 44.5,375C 43.2107,376.802 41.5441,377.969 39.5,378.5C 40.8333,376.5 42.5,374.833 44.5,373.5C 45.2389,373.631 45.9056,373.464 46.5,373C 160.368,258.965 274.368,145.132 388.5,31.5 Z"/></g>
<g><path style="opacity:1" fill="#5d5a5a" d="M 343.5,130.5 C 357.001,129.173 363.501,135.173 363,148.5C 361.567,153.598 358.4,157.098 353.5,159C 347.585,160.527 341.585,160.861 335.5,160C 328.442,157.724 325.608,152.891 327,145.5C 331.368,139.236 336.868,134.236 343.5,130.5 Z"/></g>
<g><path style="opacity:0.882" fill="#e0815c" d="M 387.5,30.5 C 388.167,30.5 388.5,30.8333 388.5,31.5C 274.368,145.132 160.368,258.965 46.5,373C 45.9056,373.464 45.2389,373.631 44.5,373.5C 158.5,258.833 272.833,144.5 387.5,30.5 Z"/></g>
<g><path style="opacity:1" fill="#fb2d3a" d="M 461.5,222.5 C 459.628,261.95 449.128,298.95 430,333.5C 383.159,411.703 313.992,454.536 222.5,462C 147.552,464.532 83.5522,439.699 30.5,387.5C 33.1667,384.167 36.1667,381.167 39.5,378.5C 41.5441,377.969 43.2107,376.802 44.5,375C 45.5,374.333 46.5,374.333 47.5,375C 66.3999,391.201 87.3999,404.201 110.5,414C 187.108,443.864 261.774,439.53 334.5,401C 409.954,355.474 452.121,288.641 461,200.5C 461.5,207.826 461.666,215.159 461.5,222.5 Z"/></g>
<g><path style="opacity:1" fill="#5f5a5a" d="M 336.5,211.5 C 346.353,210.159 353.52,213.826 358,222.5C 358.657,236.175 352.157,242.342 338.5,241C 330.83,238.763 324.997,234.263 321,227.5C 320.383,222.892 321.883,219.059 325.5,216C 329.157,214.178 332.824,212.678 336.5,211.5 Z"/></g>
<g><path style="opacity:1" fill="#82d361" d="M 511.5,196.5 C 511.5,209.167 511.5,221.833 511.5,234.5C 499.074,342.567 445.74,423.401 351.5,477C 314.315,496.291 274.981,507.791 233.5,511.5C 217.5,511.5 201.5,511.5 185.5,511.5C 114.09,504.453 52.0901,476.786 -0.5,428.5C -0.5,424.833 -0.5,421.167 -0.5,417.5C 3.16667,414.167 6.83333,410.833 10.5,407.5C 12.5782,410.084 14.9116,412.584 17.5,415C 40.8519,433.978 66.5186,449.312 94.5,461C 188.997,496.873 279.997,489.54 367.5,439C 454.863,381.807 502.863,300.974 511.5,196.5 Z"/></g>
<g><path style="opacity:1" fill="#5d5a5a" d="M 288.5,281.5 C 298.306,281.486 306.473,285.153 313,292.5C 317.186,301.259 315.352,308.425 307.5,314C 299.01,317.177 292.177,315.01 287,307.5C 282.474,300.974 281.141,293.974 283,286.5C 284.73,284.598 286.563,282.931 288.5,281.5 Z"/></g>
<g><path style="opacity:1" fill="#5f5a5a" d="M 222.5,320.5 C 227.62,320.476 231.787,322.476 235,326.5C 242.174,334.884 243.174,343.884 238,353.5C 229.309,360.733 221.309,360.067 214,351.5C 210.426,342.564 211.092,333.898 216,325.5C 217.965,323.45 220.132,321.783 222.5,320.5 Z"/></g>
<g><path style="opacity:1" fill="#5d5a5a" d="M 145.5,326.5 C 156.21,326.064 161.21,331.231 160.5,342C 161.221,357.958 153.887,364.625 138.5,362C 131.717,357.666 129.217,351.499 131,343.5C 134.46,336.524 139.294,330.858 145.5,326.5 Z"/></g>
</svg>
