<?xml version="1.0" encoding="UTF-8"?>
<!DOCTYPE svg PUBLIC "-//W3C//DTD SVG 1.1//EN" "http://www.w3.org/Graphics/SVG/1.1/DTD/svg11.dtd">
<svg xmlns="http://www.w3.org/2000/svg" version="1.1" width="512px" height="512px" style="shape-rendering:geometricPrecision; text-rendering:geometricPrecision; image-rendering:optimizeQuality; fill-rule:evenodd; clip-rule:evenodd" xmlns:xlink="http://www.w3.org/1999/xlink">
<g><path style="opacity:0.994" fill="#4fb96e" d="M 229.5,-0.5 C 241.167,-0.5 252.833,-0.5 264.5,-0.5C 295.611,4.09304 324.944,14.093 352.5,29.5C 354.657,31.4121 356.991,33.0787 359.5,34.5C 305.919,34.6403 255.253,46.807 207.5,71C 196.544,77.0599 186.378,84.2266 177,92.5C 174.839,101.662 178.339,105.829 187.5,105C 231.021,73.822 279.688,56.4887 333.5,53C 343.494,52.5002 353.494,52.3335 363.5,52.5C 361.503,57.829 359.503,63.1623 357.5,68.5C 345.069,101.75 325.735,130.25 299.5,154C 277.305,171.565 251.971,180.065 223.5,179.5C 209.358,178.811 195.358,176.811 181.5,173.5C 154.307,166.984 129.141,155.984 106,140.5C 105.654,138.782 105.154,137.115 104.5,135.5C 116.609,93.4226 138.276,57.2559 169.5,27C 186.933,12.1377 206.933,2.97106 229.5,-0.5 Z"/></g>
<g><path style="opacity:0.986" fill="#24ae5e" d="M 443.5,-0.5 C 447.167,-0.5 450.833,-0.5 454.5,-0.5C 466.793,4.95249 473.96,14.2858 476,27.5C 425.625,90.9448 394.292,162.945 382,243.5C 380.964,250.799 380.464,258.132 380.5,265.5C 368.5,265.5 356.5,265.5 344.5,265.5C 348.405,200.877 365.238,139.877 395,82.5C 402.332,69.5042 410.832,57.3376 420.5,46C 412.709,47.1986 405.042,49.1986 397.5,52C 384.022,57.2132 370.688,62.7132 357.5,68.5C 359.503,63.1623 361.503,57.829 363.5,52.5C 364.03,50.0763 364.864,47.743 366,45.5C 366.917,39.9993 364.75,36.3326 359.5,34.5C 356.991,33.0787 354.657,31.4121 352.5,29.5C 381.51,15.4966 411.843,5.49663 443.5,-0.5 Z"/></g>
<g><path style="opacity:1" fill="#4c8056" d="M 359.5,34.5 C 364.75,36.3326 366.917,39.9993 366,45.5C 364.864,47.743 364.03,50.0763 363.5,52.5C 353.494,52.3335 343.494,52.5002 333.5,53C 279.688,56.4887 231.021,73.822 187.5,105C 178.339,105.829 174.839,101.662 177,92.5C 186.378,84.2266 196.544,77.0599 207.5,71C 255.253,46.807 305.919,34.6403 359.5,34.5 Z"/></g>
<g><path style="opacity:0.984" fill="#26ad5e" d="M 181.5,173.5 C 195.358,176.811 209.358,178.811 223.5,179.5C 213.499,192.171 204.499,205.504 196.5,219.5C 184,215.934 171.333,213.267 158.5,211.5C 165.664,198.501 173.331,185.834 181.5,173.5 Z"/></g>
<g><path style="opacity:0.997" fill="#c03a2b" d="M 158.5,211.5 C 171.333,213.267 184,215.934 196.5,219.5C 233.588,236.265 257.922,264.265 269.5,303.5C 264.913,310.602 260.079,317.602 255,324.5C 238.038,354.066 233.538,385.399 241.5,418.5C 204.916,455.732 161.25,467.232 110.5,453C 64.7732,435.932 36.9398,403.432 27,355.5C 20.7596,308.179 35.5929,269.013 71.5,238C 97.0437,217.987 126.044,209.153 158.5,211.5 Z"/></g>
<g><path style="opacity:1" fill="#fefbfa" d="M 139.5,237.5 C 143.514,237.334 147.514,237.501 151.5,238C 159.5,242 160.5,247.333 154.5,254C 127.902,254.744 105.736,264.911 88,284.5C 82.8746,291.246 78.3746,298.412 74.5,306C 66.2284,309.911 61.5618,307.411 60.5,298.5C 70.4645,273.699 87.7978,255.866 112.5,245C 121.402,241.694 130.402,239.194 139.5,237.5 Z"/></g>
<g><path style="opacity:0.995" fill="#e64c3c" d="M 344.5,265.5 C 356.5,265.5 368.5,265.5 380.5,265.5C 435.217,276.049 469.384,308.382 483,362.5C 491.925,419.445 472.425,463.611 424.5,495C 409.371,503.431 393.371,508.931 376.5,511.5C 366.5,511.5 356.5,511.5 346.5,511.5C 300.09,504.047 266.923,479.047 247,436.5C 244.456,430.703 242.623,424.703 241.5,418.5C 233.538,385.399 238.038,354.066 255,324.5C 260.079,317.602 264.913,310.602 269.5,303.5C 289.964,282.101 314.964,269.434 344.5,265.5 Z"/></g>
<g><path style="opacity:1" fill="#fefbfb" d="M 351.5,290.5 C 355.514,290.334 359.514,290.501 363.5,291C 371.5,295 372.5,300.333 366.5,307C 329.258,308.275 302.591,325.609 286.5,359C 275.902,362.405 271.402,358.571 273,347.5C 289.359,314.912 315.526,295.912 351.5,290.5 Z"/></g>
<g><path style="opacity:1" fill="#fdf8f7" d="M 57.5,326.5 C 65.9552,325.461 70.1219,329.128 70,337.5C 66.3245,343.694 61.3245,345.027 55,341.5C 51.1021,335.551 51.9355,330.551 57.5,326.5 Z"/></g>
<g><path style="opacity:1" fill="#fefafa" d="M 269.5,379.5 C 281.569,379.402 284.569,384.569 278.5,395C 268.426,398.553 263.926,395.053 265,384.5C 266.025,382.313 267.525,380.646 269.5,379.5 Z"/></g>
</svg>
