<?xml version="1.0" encoding="UTF-8"?>
<!DOCTYPE svg PUBLIC "-//W3C//DTD SVG 1.1//EN" "http://www.w3.org/Graphics/SVG/1.1/DTD/svg11.dtd">
<svg xmlns="http://www.w3.org/2000/svg" version="1.1" width="512px" height="512px" style="shape-rendering:geometricPrecision; text-rendering:geometricPrecision; image-rendering:optimizeQuality; fill-rule:evenodd; clip-rule:evenodd" xmlns:xlink="http://www.w3.org/1999/xlink">
<g><path style="opacity:0.989" fill="#97da7b" d="M 241.5,-0.5 C 243.5,-0.5 245.5,-0.5 247.5,-0.5C 253.311,3.10429 259.311,6.60429 265.5,10C 269.025,12.698 272.358,15.5314 275.5,18.5C 246.789,12.2615 221.123,18.4282 198.5,37C 178.997,53.5133 164.497,73.68 155,97.5C 139.331,142.834 121.997,187.501 103,231.5C 82.1269,293.356 87.1269,353.023 118,410.5C 143.277,453.906 180.444,481.406 229.5,493C 239.121,494.286 248.788,494.786 258.5,494.5C 241.387,499.996 223.72,502.996 205.5,503.5C 163.365,489.337 130.531,463.337 107,425.5C 70.7876,363.049 63.7876,297.383 86,228.5C 105.609,183.611 123.275,137.944 139,91.5C 150.176,62.6316 168.009,38.7983 192.5,20C 207.334,9.34025 223.667,2.50692 241.5,-0.5 Z"/></g>
<g><path style="opacity:0.987" fill="#77cb7c" d="M 247.5,-0.5 C 254.833,-0.5 262.167,-0.5 269.5,-0.5C 298.617,4.81307 322.784,18.8131 342,41.5C 354.529,56.5414 364.529,73.2081 372,91.5C 379.11,113.049 386.776,134.382 395,155.5C 405.943,181.72 416.61,208.053 427,234.5C 445.251,296.319 439.918,355.985 411,413.5C 381.091,468.585 335.257,501.252 273.5,511.5C 261.5,511.5 249.5,511.5 237.5,511.5C 226.561,509.978 215.894,507.312 205.5,503.5C 223.72,502.996 241.387,499.996 258.5,494.5C 258.833,494.5 259.167,494.5 259.5,494.5C 301.906,492.377 337.74,476.044 367,445.5C 405.542,401.545 423.209,350.212 420,291.5C 419.492,275.117 416.825,259.117 412,243.5C 399.61,211.721 386.943,180.054 374,148.5C 367.197,129.09 360.197,109.757 353,90.5C 340.86,63.6988 322.36,42.5321 297.5,27C 290.705,23.6007 283.705,20.7673 276.5,18.5C 276.167,18.5 275.833,18.5 275.5,18.5C 272.358,15.5314 269.025,12.698 265.5,10C 259.311,6.60429 253.311,3.10429 247.5,-0.5 Z"/></g>
<g><path style="opacity:1" fill="#daef7f" d="M 275.5,18.5 C 275.833,18.5 276.167,18.5 276.5,18.5C 295.743,36.2658 310.576,57.2658 321,81.5C 328.136,101.91 335.47,122.243 343,142.5C 355.058,171.34 366.725,200.34 378,229.5C 399.559,308.015 385.226,379.015 335,442.5C 313.991,466.032 288.824,483.365 259.5,494.5C 259.167,494.5 258.833,494.5 258.5,494.5C 248.788,494.786 239.121,494.286 229.5,493C 180.444,481.406 143.277,453.906 118,410.5C 87.1269,353.023 82.1269,293.356 103,231.5C 121.997,187.501 139.331,142.834 155,97.5C 164.497,73.68 178.997,53.5133 198.5,37C 221.123,18.4282 246.789,12.2615 275.5,18.5 Z"/></g>
<g><path style="opacity:1" fill="#b6e97b" d="M 276.5,18.5 C 283.705,20.7673 290.705,23.6007 297.5,27C 322.36,42.5321 340.86,63.6988 353,90.5C 360.197,109.757 367.197,129.09 374,148.5C 386.943,180.054 399.61,211.721 412,243.5C 416.825,259.117 419.492,275.117 420,291.5C 423.209,350.212 405.542,401.545 367,445.5C 337.74,476.044 301.906,492.377 259.5,494.5C 288.824,483.365 313.991,466.032 335,442.5C 385.226,379.015 399.559,308.015 378,229.5C 366.725,200.34 355.058,171.34 343,142.5C 335.47,122.243 328.136,101.91 321,81.5C 310.576,57.2658 295.743,36.2658 276.5,18.5 Z"/></g>
<g><path style="opacity:1" fill="#d38b64" d="M 260.5,206.5 C 266.841,209.278 272.008,213.612 276,219.5C 287.35,237.545 294.35,257.211 297,278.5C 301.523,314.207 298.523,349.207 288,383.5C 284.972,392.557 280.639,400.89 275,408.5C 271.419,412.752 267.252,416.252 262.5,419C 263.094,419.464 263.761,419.631 264.5,419.5C 257.5,420.833 250.5,420.833 243.5,419.5C 249.442,419.788 249.775,418.955 244.5,417C 237.126,410.295 231.292,402.462 227,393.5C 219.457,375.922 214.791,357.589 213,338.5C 208.276,332.428 203.276,332.095 198,337.5C 198.645,364.258 205.479,389.258 218.5,412.5C 181.421,394.059 160.921,364.059 157,322.5C 154.218,277.229 171.718,242.396 209.5,218C 225.324,208.961 242.324,205.127 260.5,206.5 Z"/></g>
<g><path style="opacity:1" fill="#c5805d" d="M 260.5,206.5 C 271.921,206.777 282.588,209.444 292.5,214.5C 305.57,238.101 313.07,263.434 315,290.5C 319.5,333.549 312,374.215 292.5,412.5C 283.742,416.689 274.409,419.023 264.5,419.5C 263.761,419.631 263.094,419.464 262.5,419C 267.252,416.252 271.419,412.752 275,408.5C 280.639,400.89 284.972,392.557 288,383.5C 298.523,349.207 301.523,314.207 297,278.5C 294.35,257.211 287.35,237.545 276,219.5C 272.008,213.612 266.841,209.278 260.5,206.5 Z"/></g>
<g><path style="opacity:1" fill="#d48b64" d="M 292.5,214.5 C 316.001,224.499 333.168,241.166 344,264.5C 359.785,302.318 357.452,338.985 337,374.5C 325.954,391.721 311.121,404.388 292.5,412.5C 312,374.215 319.5,333.549 315,290.5C 313.07,263.434 305.57,238.101 292.5,214.5 Z"/></g>
<g><path style="opacity:1" fill="#c5805d" d="M 243.5,419.5 C 234.574,418.965 226.241,416.632 218.5,412.5C 205.479,389.258 198.645,364.258 198,337.5C 203.276,332.095 208.276,332.428 213,338.5C 214.791,357.589 219.457,375.922 227,393.5C 231.292,402.462 237.126,410.295 244.5,417C 249.775,418.955 249.442,419.788 243.5,419.5 Z"/></g>
</svg>
