<?xml version="1.0" encoding="UTF-8"?>
<!DOCTYPE svg PUBLIC "-//W3C//DTD SVG 1.1//EN" "http://www.w3.org/Graphics/SVG/1.1/DTD/svg11.dtd">
<svg xmlns="http://www.w3.org/2000/svg" version="1.1" width="512px" height="512px" style="shape-rendering:geometricPrecision; text-rendering:geometricPrecision; image-rendering:optimizeQuality; fill-rule:evenodd; clip-rule:evenodd" xmlns:xlink="http://www.w3.org/1999/xlink">
<g><path style="opacity:1" fill="#5169cc" d="M 378.5,126.5 C 386.763,143.887 391.43,162.22 392.5,181.5C 392.608,186.87 392.275,192.203 391.5,197.5C 373.218,193.972 354.885,193.639 336.5,196.5C 338.295,145.919 318.295,106.753 276.5,79C 259.166,68.8343 240.499,63.001 220.5,61.5C 279.275,45.3703 328.108,60.7037 367,107.5C 371.347,113.529 375.18,119.862 378.5,126.5 Z"/></g>
<g><path style="opacity:1" fill="#8ec737" d="M 511.5,107.5 C 511.5,120.167 511.5,132.833 511.5,145.5C 507.208,183.776 488.208,212.11 454.5,230.5C 450.793,228.312 447.46,225.645 444.5,222.5C 462.325,205.852 472.325,185.519 474.5,161.5C 480.748,160.375 485.081,156.875 487.5,151C 486.727,146.393 484.06,143.56 479.5,142.5C 475.615,144.275 471.615,145.775 467.5,147C 465.741,147.798 464.074,147.631 462.5,146.5C 470.36,136.786 476.693,126.12 481.5,114.5C 480.353,109.017 477.02,106.684 471.5,107.5C 472.209,106.596 473.209,106.263 474.5,106.5C 473.97,97.6794 472.47,89.0127 470,80.5C 469.163,76.8426 467.33,73.8426 464.5,71.5C 468.234,67.4521 472.234,63.6187 476.5,60C 488.431,53.9773 497.597,56.8106 504,68.5C 507.166,81.516 509.666,94.516 511.5,107.5 Z"/></g>
<g><path style="opacity:0.999" fill="#6c80d4" d="M 220.5,61.5 C 240.499,63.001 259.166,68.8343 276.5,79C 318.295,106.753 338.295,145.919 336.5,196.5C 332.051,197.029 327.718,198.029 323.5,199.5C 320.598,200.784 317.598,201.784 314.5,202.5C 310.603,200.114 307.103,197.114 304,193.5C 302.084,188.362 301.084,183.029 301,177.5C 298.923,172.879 295.423,171.045 290.5,172C 288.102,173.524 285.769,175.024 283.5,176.5C 276.566,178.509 270.233,177.342 264.5,173C 254.539,170.994 250.372,175.161 252,185.5C 250.266,194.233 245.266,200.233 237,203.5C 235,206.833 235,210.167 237,213.5C 244.139,216.802 248.972,222.136 251.5,229.5C 251.335,232.85 251.502,236.183 252,239.5C 252.996,241.66 254.496,243.327 256.5,244.5C 256.611,245.117 256.944,245.617 257.5,246C 243.181,264.785 234.848,285.952 232.5,309.5C 228.865,310.114 225.198,310.448 221.5,310.5C 183.348,297.518 156.181,272.518 140,235.5C 134.871,221.946 131.704,207.946 130.5,193.5C 128.948,140.43 150.615,99.9302 195.5,72C 203.41,67.4211 211.743,63.9211 220.5,61.5 Z"/></g>
<g><path style="opacity:0.994" fill="#a2e33f" d="M 464.5,71.5 C 467.33,73.8426 469.163,76.8426 470,80.5C 472.47,89.0127 473.97,97.6794 474.5,106.5C 473.209,106.263 472.209,106.596 471.5,107.5C 469.629,107.859 468.129,108.859 467,110.5C 457.035,130.801 443.035,147.801 425,161.5C 425.244,156.533 425.744,151.533 426.5,146.5C 425.318,138.597 420.985,136.431 413.5,140C 411.511,147.073 409.678,154.239 408,161.5C 406.657,166.364 404.823,171.031 402.5,175.5C 399.139,177.511 395.806,179.511 392.5,181.5C 391.43,162.22 386.763,143.887 378.5,126.5C 409.294,111.349 437.961,93.0161 464.5,71.5 Z"/></g>
<g><path style="opacity:1" fill="#82b732" d="M 471.5,107.5 C 477.02,106.684 480.353,109.017 481.5,114.5C 476.693,126.12 470.36,136.786 462.5,146.5C 464.074,147.631 465.741,147.798 467.5,147C 471.615,145.775 475.615,144.275 479.5,142.5C 484.06,143.56 486.727,146.393 487.5,151C 485.081,156.875 480.748,160.375 474.5,161.5C 464.64,163.742 454.64,164.909 444.5,165C 430.376,177.569 414.709,187.903 397.5,196C 396.748,196.671 396.414,197.504 396.5,198.5C 394.883,197.962 393.216,197.629 391.5,197.5C 392.275,192.203 392.608,186.87 392.5,181.5C 395.806,179.511 399.139,177.511 402.5,175.5C 404.823,171.031 406.657,166.364 408,161.5C 409.678,154.239 411.511,147.073 413.5,140C 420.985,136.431 425.318,138.597 426.5,146.5C 425.744,151.533 425.244,156.533 425,161.5C 443.035,147.801 457.035,130.801 467,110.5C 468.129,108.859 469.629,107.859 471.5,107.5 Z"/></g>
<g><path style="opacity:1" fill="#a2e340" d="M 474.5,161.5 C 472.325,185.519 462.325,205.852 444.5,222.5C 430.178,211.339 414.178,203.339 396.5,198.5C 396.414,197.504 396.748,196.671 397.5,196C 414.709,187.903 430.376,177.569 444.5,165C 454.64,164.909 464.64,163.742 474.5,161.5 Z"/></g>
<g><path style="opacity:1" fill="#3351c4" d="M 283.5,176.5 C 294.459,194.22 292.125,210.053 276.5,224C 268.835,228.832 260.501,230.665 251.5,229.5C 248.972,222.136 244.139,216.802 237,213.5C 235,210.167 235,206.833 237,203.5C 245.266,200.233 250.266,194.233 252,185.5C 250.372,175.161 254.539,170.994 264.5,173C 270.233,177.342 276.566,178.509 283.5,176.5 Z"/></g>
<g><path style="opacity:1" fill="#2a45af" d="M 314.5,202.5 C 292.798,211.531 274.464,225.198 259.5,243.5C 258.675,244.386 257.675,244.719 256.5,244.5C 254.496,243.327 252.996,241.66 252,239.5C 251.502,236.183 251.335,232.85 251.5,229.5C 260.501,230.665 268.835,228.832 276.5,224C 292.125,210.053 294.459,194.22 283.5,176.5C 285.769,175.024 288.102,173.524 290.5,172C 295.423,171.045 298.923,172.879 301,177.5C 301.084,183.029 302.084,188.362 304,193.5C 307.103,197.114 310.603,200.114 314.5,202.5 Z"/></g>
<g><path style="opacity:1" fill="#2944ae" d="M 130.5,193.5 C 131.704,207.946 134.871,221.946 140,235.5C 156.181,272.518 183.348,297.518 221.5,310.5C 224.505,312.277 227.838,313.277 231.5,313.5C 229.655,339.599 234.655,364.266 246.5,387.5C 216.209,437.813 171.542,460.313 112.5,455C 105.381,453.943 98.3809,452.443 91.5,450.5C 145.458,442.448 181.625,412.781 200,361.5C 202.124,355.674 203.291,349.674 203.5,343.5C 159.944,325.758 133.111,293.758 123,247.5C 120.644,234 120.144,220.5 121.5,207C 111.614,203.529 101.614,201.029 91.5,199.5C 104.144,195.46 117.144,193.46 130.5,193.5 Z"/></g>
<g><path style="opacity:1" fill="#3351c5" d="M 391.5,197.5 C 393.216,197.629 394.883,197.962 396.5,198.5C 414.178,203.339 430.178,211.339 444.5,222.5C 447.46,225.645 450.793,228.312 454.5,230.5C 491.973,271.412 502.14,318.412 485,371.5C 461.594,425.054 420.594,453.388 362,456.5C 348.558,456.176 335.391,454.176 322.5,450.5C 374.528,443.313 410.361,415.313 430,366.5C 439.33,340.274 439.83,313.941 431.5,287.5C 443.93,279.419 443.263,272.252 429.5,266C 424.744,260.063 422.578,253.23 423,245.5C 421.471,242.066 418.804,240.4 415,240.5C 412.093,241.226 409.26,242.226 406.5,243.5C 390.217,224.341 369.884,211.175 345.5,204C 338.03,202.493 330.696,200.993 323.5,199.5C 327.718,198.029 332.051,197.029 336.5,196.5C 354.885,193.639 373.218,193.972 391.5,197.5 Z"/></g>
<g><path style="opacity:0.997" fill="#3250c4" d="M 91.5,199.5 C 101.614,201.029 111.614,203.529 121.5,207C 120.144,220.5 120.644,234 123,247.5C 133.111,293.758 159.944,325.758 203.5,343.5C 203.291,349.674 202.124,355.674 200,361.5C 181.625,412.781 145.458,442.448 91.5,450.5C 39.8438,431.847 9.17715,395.513 -0.5,341.5C -0.5,330.5 -0.5,319.5 -0.5,308.5C 8.83047,254.18 39.4971,217.847 91.5,199.5 Z"/></g>
<g><path style="opacity:0.999" fill="#5068cc" d="M 323.5,199.5 C 330.696,200.993 338.03,202.493 345.5,204C 369.884,211.175 390.217,224.341 406.5,243.5C 406.5,244.167 406.167,244.5 405.5,244.5C 401.253,245.602 396.92,245.768 392.5,245C 379.083,236.724 372.916,240.557 374,256.5C 370.721,263.446 365.721,268.779 359,272.5C 357,275.5 357,278.5 359,281.5C 363.554,284.118 367.554,287.452 371,291.5C 372.122,293.407 372.955,295.407 373.5,297.5C 372.011,312.907 378.011,317.074 391.5,310C 398.643,307.785 405.31,308.785 411.5,313C 416.731,314.724 420.565,313.224 423,308.5C 422.987,302.945 423.987,297.612 426,292.5C 427.426,290.234 429.26,288.568 431.5,287.5C 439.83,313.941 439.33,340.274 430,366.5C 410.361,415.313 374.528,443.313 322.5,450.5C 288.931,439.389 263.597,418.389 246.5,387.5C 234.655,364.266 229.655,339.599 231.5,313.5C 227.838,313.277 224.505,312.277 221.5,310.5C 225.198,310.448 228.865,310.114 232.5,309.5C 234.848,285.952 243.181,264.785 257.5,246C 256.944,245.617 256.611,245.117 256.5,244.5C 257.675,244.719 258.675,244.386 259.5,243.5C 274.464,225.198 292.798,211.531 314.5,202.5C 317.598,201.784 320.598,200.784 323.5,199.5 Z"/></g>
<g><path style="opacity:1" fill="#213993" d="M 405.5,244.5 C 416.139,261.329 414.473,276.829 400.5,291C 392.457,296.911 383.457,299.078 373.5,297.5C 372.955,295.407 372.122,293.407 371,291.5C 367.554,287.452 363.554,284.118 359,281.5C 357,278.5 357,275.5 359,272.5C 365.721,268.779 370.721,263.446 374,256.5C 372.916,240.557 379.083,236.724 392.5,245C 396.92,245.768 401.253,245.602 405.5,244.5 Z"/></g>
<g><path style="opacity:1" fill="#192d7b" d="M 431.5,287.5 C 429.26,288.568 427.426,290.234 426,292.5C 423.987,297.612 422.987,302.945 423,308.5C 420.565,313.224 416.731,314.724 411.5,313C 405.31,308.785 398.643,307.785 391.5,310C 378.011,317.074 372.011,312.907 373.5,297.5C 383.457,299.078 392.457,296.911 400.5,291C 414.473,276.829 416.139,261.329 405.5,244.5C 406.167,244.5 406.5,244.167 406.5,243.5C 409.26,242.226 412.093,241.226 415,240.5C 418.804,240.4 421.471,242.066 423,245.5C 422.578,253.23 424.744,260.063 429.5,266C 443.263,272.252 443.93,279.419 431.5,287.5 Z"/></g>
<g><path style="opacity:1" fill="#213993" d="M 99.5,311.5 C 109.889,327.66 108.556,342.826 95.5,357C 87.2345,363.234 77.9012,365.734 67.5,364.5C 64.9395,357.604 60.2728,352.604 53.5,349.5C 49.5187,342.294 51.5187,337.46 59.5,335C 66.4538,329.148 69.2871,321.648 68,312.5C 69.9431,309.535 72.6098,307.869 76,307.5C 79.8949,308.057 83.3949,309.557 86.5,312C 90.9196,312.768 95.2529,312.602 99.5,311.5 Z"/></g>
<g><path style="opacity:1" fill="#192d7b" d="M 67.5,364.5 C 77.9012,365.734 87.2345,363.234 95.5,357C 108.556,342.826 109.889,327.66 99.5,311.5C 112.828,303.927 118.995,307.927 118,323.5C 118.725,325.949 119.725,328.283 121,330.5C 125.264,333.616 129.264,336.949 133,340.5C 134.624,347.745 131.79,352.245 124.5,354C 121.943,356.892 119.776,360.059 118,363.5C 117.881,368.282 117.215,372.949 116,377.5C 114.147,379.592 111.814,380.592 109,380.5C 103.49,377.944 97.6571,376.278 91.5,375.5C 87.2098,376.142 83.2098,377.642 79.5,380C 74.3747,381.569 70.5414,380.069 68,375.5C 67.5014,371.848 67.3347,368.182 67.5,364.5 Z"/></g>
</svg>
