<?xml version="1.0" encoding="UTF-8"?>
<!DOCTYPE svg PUBLIC "-//W3C//DTD SVG 1.1//EN" "http://www.w3.org/Graphics/SVG/1.1/DTD/svg11.dtd">
<svg xmlns="http://www.w3.org/2000/svg" version="1.1" width="512px" height="512px" style="shape-rendering:geometricPrecision; text-rendering:geometricPrecision; image-rendering:optimizeQuality; fill-rule:evenodd; clip-rule:evenodd" xmlns:xlink="http://www.w3.org/1999/xlink">
<g><path style="opacity:0.985" fill="#3bbb56" d="M 291.5,100.5 C 277.169,104.976 265.836,113.309 257.5,125.5C 252.613,123.76 247.613,122.427 242.5,121.5C 223.748,118.357 207.082,123.024 192.5,135.5C 190.742,131.133 189.575,126.466 189,121.5C 187.57,105.919 188.903,90.5854 193,75.5C 195.575,67.3615 198.409,59.3615 201.5,51.5C 208.918,57.4164 215.084,64.4164 220,72.5C 221.798,74.9725 224.132,76.6392 227,77.5C 237.278,67.1015 248.111,57.2682 259.5,48C 264.001,45.5841 268.334,42.9175 272.5,40C 277.731,38.2762 281.565,39.7762 284,44.5C 290.304,62.6582 292.804,81.3249 291.5,100.5 Z"/></g>
<g><path style="opacity:1" fill="#30aa44" d="M 201.5,51.5 C 198.409,59.3615 195.575,67.3615 193,75.5C 188.903,90.5854 187.57,105.919 189,121.5C 189.575,126.466 190.742,131.133 192.5,135.5C 185.965,141.562 180.632,148.562 176.5,156.5C 164.146,123.463 164.646,90.463 178,57.5C 180.039,53.2547 182.206,49.088 184.5,45C 192.026,42.0901 197.693,44.2568 201.5,51.5 Z"/></g>
<g><path style="opacity:0.952" fill="#925f3d" d="M 147.5,131.5 C 123.817,116.83 98.4837,105.664 71.5,98C 49.4127,92.9376 27.0794,91.271 4.5,93C 3.29493,91.6244 1.9616,90.4577 0.5,89.5C 0.974041,82.8373 1.47404,76.1706 2,69.5C 3.15137,64.0128 6.4847,61.0128 12,60.5C 63.1747,73.3312 108.341,96.9978 147.5,131.5 Z"/></g>
<g><path style="opacity:1" fill="#7f573c" d="M 0.5,89.5 C 1.9616,90.4577 3.29493,91.6244 4.5,93C 27.0794,91.271 49.4127,92.9376 71.5,98C 98.4837,105.664 123.817,116.83 147.5,131.5C 157.467,139.8 166.801,148.8 175.5,158.5C 175.244,161.598 174.578,164.598 173.5,167.5C 170.574,166.539 167.574,165.873 164.5,165.5C 163.167,165.167 161.833,164.833 160.5,164.5C 125.785,138.49 86.7849,122.324 43.5,116C 31.8063,115.208 20.1396,115.375 8.5,116.5C 4.66107,116.087 1.66107,114.42 -0.5,111.5C -0.5,105.833 -0.5,100.167 -0.5,94.5C 0.451145,93.0813 0.784479,91.4147 0.5,89.5 Z"/></g>
<g><path style="opacity:0.989" fill="#724da8" d="M 358.5,193.5 C 350.407,187.623 341.407,183.623 331.5,181.5C 318.458,178.216 305.791,179.55 293.5,185.5C 293.72,157.907 281.72,137.907 257.5,125.5C 265.836,113.309 277.169,104.976 291.5,100.5C 323.687,94.5117 347.52,105.845 363,134.5C 370.634,154.835 369.134,174.502 358.5,193.5 Z"/></g>
<g><path style="opacity:1" fill="#462f7a" d="M 242.5,121.5 C 213.909,128.309 197.409,146.309 193,175.5C 192.617,176.056 192.117,176.389 191.5,176.5C 186.058,172.446 180.058,169.446 173.5,167.5C 174.578,164.598 175.244,161.598 175.5,158.5C 176.338,158.158 176.672,157.492 176.5,156.5C 180.632,148.562 185.965,141.562 192.5,135.5C 207.082,123.024 223.748,118.357 242.5,121.5 Z"/></g>
<g><path style="opacity:1" fill="#553788" d="M 242.5,121.5 C 247.613,122.427 252.613,123.76 257.5,125.5C 281.72,137.907 293.72,157.907 293.5,185.5C 273.723,194.96 262.389,210.626 259.5,232.5C 252.982,228.772 245.982,226.438 238.5,225.5C 235.095,224.12 231.428,223.454 227.5,223.5C 223.493,223.835 219.493,224.168 215.5,224.5C 215.466,204.432 207.466,188.432 191.5,176.5C 192.117,176.389 192.617,176.056 193,175.5C 197.409,146.309 213.909,128.309 242.5,121.5 Z"/></g>
<g><path style="opacity:1" fill="#30aa44" d="M 114.5,160.5 C 93.7431,162.141 74.4097,168.308 56.5,179C 51.5656,181.665 50.3989,185.498 53,190.5C 63.1691,201.344 74.5024,210.677 87,218.5C 87.6667,220.5 87.6667,222.5 87,224.5C 72.3248,238.17 60.8248,254.17 52.5,272.5C 52.6279,276.085 54.2946,278.585 57.5,280C 64.5835,281.557 71.5835,282.724 78.5,283.5C 78.5,284.167 78.1667,284.5 77.5,284.5C 62.9762,284.794 48.6428,283.294 34.5,280C 30.7884,277.442 29.6217,273.942 31,269.5C 38.9698,253.192 49.6364,238.858 63,226.5C 66.3752,222.578 65.8752,219.078 61.5,216C 50.1777,209.352 40.011,201.185 31,191.5C 29.5432,188.634 29.2099,185.634 30,182.5C 48.3645,169.486 68.8645,161.986 91.5,160C 99.3446,159.178 107.011,159.344 114.5,160.5 Z"/></g>
<g><path style="opacity:0.997" fill="#3bbb56" d="M 114.5,160.5 C 124.097,160.877 133.43,162.544 142.5,165.5C 110.526,175.751 95.0259,197.751 96,231.5C 97.5052,243.501 102.005,254.168 109.5,263.5C 103.365,264.9 97.6987,267.4 92.5,271C 87.6646,275.003 82.9979,279.17 78.5,283.5C 71.5835,282.724 64.5835,281.557 57.5,280C 54.2946,278.585 52.6279,276.085 52.5,272.5C 60.8248,254.17 72.3248,238.17 87,224.5C 87.6667,222.5 87.6667,220.5 87,218.5C 74.5024,210.677 63.1691,201.344 53,190.5C 50.3989,185.498 51.5656,181.665 56.5,179C 74.4097,168.308 93.7431,162.141 114.5,160.5 Z"/></g>
<g><path style="opacity:1" fill="#7b54b9" d="M 160.5,164.5 C 161.833,164.833 163.167,165.167 164.5,165.5C 135.038,173.634 119.038,192.967 116.5,223.5C 117.608,253.432 132.275,273.265 160.5,283C 162.81,283.497 165.143,283.663 167.5,283.5C 156.067,286.429 144.734,285.596 133.5,281C 126.98,278.245 120.98,274.745 115.5,270.5C 113.5,268.167 111.5,265.833 109.5,263.5C 102.005,254.168 97.5052,243.501 96,231.5C 95.0259,197.751 110.526,175.751 142.5,165.5C 148.471,164.759 154.471,164.425 160.5,164.5 Z"/></g>
<g><path style="opacity:1" fill="#9165cb" d="M 164.5,165.5 C 167.574,165.873 170.574,166.539 173.5,167.5C 180.058,169.446 186.058,172.446 191.5,176.5C 207.466,188.432 215.466,204.432 215.5,224.5C 186.133,233.205 170.467,252.871 168.5,283.5C 168.167,283.5 167.833,283.5 167.5,283.5C 165.143,283.663 162.81,283.497 160.5,283C 132.275,273.265 117.608,253.432 116.5,223.5C 119.038,192.967 135.038,173.634 164.5,165.5 Z"/></g>
<g><path style="opacity:1" fill="#7b54ba" d="M 331.5,181.5 C 305.269,185.223 288.435,199.89 281,225.5C 279.619,234.632 279.119,243.632 279.5,252.5C 274.473,244.139 267.806,237.473 259.5,232.5C 262.389,210.626 273.723,194.96 293.5,185.5C 305.791,179.55 318.458,178.216 331.5,181.5 Z"/></g>
<g><path style="opacity:0.992" fill="#9165cb" d="M 331.5,181.5 C 341.407,183.623 350.407,187.623 358.5,193.5C 381.312,216.411 385.479,242.411 371,271.5C 368.615,274.379 366.448,277.379 364.5,280.5C 355.25,271.709 344.25,266.376 331.5,264.5C 315.836,262.078 301.17,265.078 287.5,273.5C 286.399,265.86 283.733,258.86 279.5,252.5C 279.119,243.632 279.619,234.632 281,225.5C 288.435,199.89 305.269,185.223 331.5,181.5 Z"/></g>
<g><path style="opacity:1" fill="#977ec8" d="M 238.5,225.5 C 213.597,230.897 197.43,245.897 190,270.5C 185.458,302.588 197.625,325.755 226.5,340C 231.295,342.033 236.295,342.866 241.5,342.5C 228.133,345.938 215.133,344.605 202.5,338.5C 196.984,335.911 191.984,332.578 187.5,328.5C 174.759,316.298 168.426,301.298 168.5,283.5C 170.467,252.871 186.133,233.205 215.5,224.5C 219.493,224.168 223.493,223.835 227.5,223.5C 231.428,223.454 235.095,224.12 238.5,225.5 Z"/></g>
<g><path style="opacity:1" fill="#a98cd7" d="M 238.5,225.5 C 245.982,226.438 252.982,228.772 259.5,232.5C 267.806,237.473 274.473,244.139 279.5,252.5C 283.733,258.86 286.399,265.86 287.5,273.5C 268.184,289.148 259.517,309.481 261.5,334.5C 255.279,338.277 248.612,340.944 241.5,342.5C 236.295,342.866 231.295,342.033 226.5,340C 197.625,325.755 185.458,302.588 190,270.5C 197.43,245.897 213.597,230.897 238.5,225.5 Z"/></g>
<g><path style="opacity:0.999" fill="#67449e" d="M 109.5,263.5 C 111.5,265.833 113.5,268.167 115.5,270.5C 97.5061,281.977 88.1728,298.477 87.5,320C 87.3601,343.727 97.3601,361.727 117.5,374C 123.764,376.968 130.097,379.468 136.5,381.5C 102.354,384.348 79.5202,369.682 68,337.5C 63.4251,318.425 66.5917,300.758 77.5,284.5C 78.1667,284.5 78.5,284.167 78.5,283.5C 82.9979,279.17 87.6646,275.003 92.5,271C 97.6987,267.4 103.365,264.9 109.5,263.5 Z"/></g>
<g><path style="opacity:1" fill="#987ec9" d="M 331.5,264.5 C 301.449,272.219 285.116,291.553 282.5,322.5C 284.079,354.075 300.079,374.075 330.5,382.5C 326.366,383.485 322.032,383.818 317.5,383.5C 310.687,382.796 304.02,381.462 297.5,379.5C 284.908,372.742 275.074,363.075 268,350.5C 266.088,344.901 263.922,339.568 261.5,334.5C 259.517,309.481 268.184,289.148 287.5,273.5C 301.17,265.078 315.836,262.078 331.5,264.5 Z"/></g>
<g><path style="opacity:1" fill="#7c54ba" d="M 422.5,264.5 C 402.364,268.232 387.697,279.232 378.5,297.5C 378.043,298.298 377.376,298.631 376.5,298.5C 374.179,292.522 370.845,287.189 366.5,282.5C 382.078,266.64 400.744,260.64 422.5,264.5 Z"/></g>
<g><path style="opacity:1" fill="#a98cd7" d="M 331.5,264.5 C 344.25,266.376 355.25,271.709 364.5,280.5C 365.5,280.833 366.167,281.5 366.5,282.5C 370.845,287.189 374.179,292.522 376.5,298.5C 388.19,328.239 381.523,353.072 356.5,373C 348.649,378.45 339.982,381.617 330.5,382.5C 300.079,374.075 284.079,354.075 282.5,322.5C 285.116,291.553 301.449,272.219 331.5,264.5 Z"/></g>
<g><path style="opacity:0.994" fill="#9165cb" d="M 422.5,264.5 C 443.202,268.023 458.036,279.356 467,298.5C 474.643,316.427 474.143,334.094 465.5,351.5C 455.802,368.699 441.135,379.032 421.5,382.5C 417.039,382.011 412.873,380.678 409,378.5C 417.191,402.024 413.691,423.69 398.5,443.5C 388.825,454.839 376.491,461.172 361.5,462.5C 323.662,449.163 308.995,422.83 317.5,383.5C 322.032,383.818 326.366,383.485 330.5,382.5C 339.982,381.617 348.649,378.45 356.5,373C 381.523,353.072 388.19,328.239 376.5,298.5C 377.376,298.631 378.043,298.298 378.5,297.5C 387.697,279.232 402.364,268.232 422.5,264.5 Z"/></g>
<g><path style="opacity:0.996" fill="#744eaa" d="M 115.5,270.5 C 120.98,274.745 126.98,278.245 133.5,281C 144.734,285.596 156.067,286.429 167.5,283.5C 167.833,283.5 168.167,283.5 168.5,283.5C 168.426,301.298 174.759,316.298 187.5,328.5C 185.27,336.861 182.603,345.194 179.5,353.5C 169.023,368.583 154.689,377.916 136.5,381.5C 130.097,379.468 123.764,376.968 117.5,374C 97.3601,361.727 87.3601,343.727 87.5,320C 88.1728,298.477 97.5061,281.977 115.5,270.5 Z"/></g>
<g><path style="opacity:0.999" fill="#67449e" d="M 187.5,328.5 C 191.984,332.578 196.984,335.911 202.5,338.5C 196.15,378.498 212.15,404.498 250.5,416.5C 214.815,419.311 191.649,403.645 181,369.5C 179.905,364.22 179.405,358.887 179.5,353.5C 182.603,345.194 185.27,336.861 187.5,328.5 Z"/></g>
<g><path style="opacity:0.993" fill="#744eaa" d="M 261.5,334.5 C 263.922,339.568 266.088,344.901 268,350.5C 275.074,363.075 284.908,372.742 297.5,379.5C 296.662,379.842 296.328,380.508 296.5,381.5C 295.662,381.842 295.328,382.508 295.5,383.5C 285.76,401.549 270.76,412.549 250.5,416.5C 212.15,404.498 196.15,378.498 202.5,338.5C 215.133,344.605 228.133,345.938 241.5,342.5C 248.612,340.944 255.279,338.277 261.5,334.5 Z"/></g>
<g><path style="opacity:0.988" fill="#724da9" d="M 465.5,351.5 C 490.072,358.737 505.405,374.737 511.5,399.5C 511.5,406.833 511.5,414.167 511.5,421.5C 501.81,457.648 478.144,474.148 440.5,471C 422.617,467.571 408.617,458.404 398.5,443.5C 413.691,423.69 417.191,402.024 409,378.5C 412.873,380.678 417.039,382.011 421.5,382.5C 441.135,379.032 455.802,368.699 465.5,351.5 Z"/></g>
<g><path style="opacity:0.999" fill="#7b54ba" d="M 297.5,379.5 C 304.02,381.462 310.687,382.796 317.5,383.5C 308.995,422.83 323.662,449.163 361.5,462.5C 331.455,465.328 309.955,452.994 297,425.5C 292.175,411.608 291.675,397.608 295.5,383.5C 296.338,383.158 296.672,382.492 296.5,381.5C 297.338,381.158 297.672,380.492 297.5,379.5 Z"/></g>
</svg>
