<?xml version="1.0" encoding="UTF-8"?>
<!DOCTYPE svg PUBLIC "-//W3C//DTD SVG 1.1//EN" "http://www.w3.org/Graphics/SVG/1.1/DTD/svg11.dtd">
<svg xmlns="http://www.w3.org/2000/svg" version="1.1" width="512px" height="512px" style="shape-rendering:geometricPrecision; text-rendering:geometricPrecision; image-rendering:optimizeQuality; fill-rule:evenodd; clip-rule:evenodd" xmlns:xlink="http://www.w3.org/1999/xlink">
<g><path style="opacity:0.989" fill="#cb8252" d="M 446.5,-0.5 C 466.833,-0.5 487.167,-0.5 507.5,-0.5C 508.5,1.16667 509.833,2.5 511.5,3.5C 511.5,6.5 511.5,9.5 511.5,12.5C 510.146,14.6959 508.146,16.1959 505.5,17C 495.839,17.4998 486.172,17.6665 476.5,17.5C 470.5,16.1667 464.5,16.1667 458.5,17.5C 455.15,17.665 451.817,17.4983 448.5,17C 442.839,15.1799 440.672,11.3465 442,5.5C 442.804,2.85408 444.304,0.854084 446.5,-0.5 Z"/></g>
<g><path style="opacity:0.993" fill="#24ae5f" d="M 380.5,119.5 C 380.5,121.167 380.5,122.833 380.5,124.5C 380.657,125.873 380.49,127.207 380,128.5C 356.112,110.311 329.279,98.8107 299.5,94C 278.714,91.723 259.38,95.8897 241.5,106.5C 240.5,104.833 239.167,103.5 237.5,102.5C 220.532,77.7619 211.032,50.4286 209,20.5C 210.543,18.6217 212.376,17.1217 214.5,16C 243.856,6.75346 273.523,5.42012 303.5,12C 327.302,19.4715 345.469,33.9715 358,55.5C 369.172,75.5145 376.672,96.8479 380.5,119.5 Z"/></g>
<g><path style="opacity:0.971" fill="#a56a42" d="M 476.5,17.5 C 474.892,46.3675 464.725,71.7008 446,93.5C 429.694,112.323 410.194,126.657 387.5,136.5C 385.5,134.5 383.5,132.5 381.5,130.5C 381.795,128.265 381.461,126.265 380.5,124.5C 380.5,122.833 380.5,121.167 380.5,119.5C 414.658,104.175 438.824,79.1754 453,44.5C 455.796,35.6881 457.629,26.6881 458.5,17.5C 464.5,16.1667 470.5,16.1667 476.5,17.5 Z"/></g>
<g><path style="opacity:1" fill="#4fba6e" d="M 380.5,124.5 C 381.461,126.265 381.795,128.265 381.5,130.5C 368.958,157.553 350.958,180.386 327.5,199C 302.736,215.933 275.736,220.6 246.5,213C 225.387,206.609 205.72,197.276 187.5,185C 185.513,182.86 184.18,180.36 183.5,177.5C 196.456,148.569 215.789,124.902 241.5,106.5C 259.38,95.8897 278.714,91.723 299.5,94C 329.279,98.8107 356.112,110.311 380,128.5C 380.49,127.207 380.657,125.873 380.5,124.5 Z"/></g>
<g><path style="opacity:0.998" fill="#f2d55a" d="M 237.5,102.5 C 239.167,103.5 240.5,104.833 241.5,106.5C 215.789,124.902 196.456,148.569 183.5,177.5C 184.18,180.36 185.513,182.86 187.5,185C 205.72,197.276 225.387,206.609 246.5,213C 275.736,220.6 302.736,215.933 327.5,199C 350.958,180.386 368.958,157.553 381.5,130.5C 383.5,132.5 385.5,134.5 387.5,136.5C 393.614,150.471 392.447,163.804 384,176.5C 383.333,179.833 383.333,183.167 384,186.5C 412.539,241.437 416.206,298.104 395,356.5C 364.884,430.617 311.717,479.784 235.5,504C 223.171,507.232 210.838,509.732 198.5,511.5C 185.167,511.5 171.833,511.5 158.5,511.5C 131.708,508.293 106.375,500.126 82.5,487C 79.8333,486.333 77.1667,486.333 74.5,487C 63.1134,494.479 50.78,496.479 37.5,493C 23.3671,486.935 16.0338,476.101 15.5,460.5C 16.3372,451.819 19.1705,443.819 24,436.5C 24.6667,433.833 24.6667,431.167 24,428.5C 11.0823,404.916 2.91566,379.916 -0.5,353.5C -0.5,339.833 -0.5,326.167 -0.5,312.5C 11.3131,233.533 51.3131,173.366 119.5,132C 156.229,111.818 195.563,101.984 237.5,102.5 Z"/></g>
<g><path style="opacity:1" fill="#f0c41b" d="M 91.5,216.5 C 103.17,216.675 106.17,221.841 100.5,232C 90.4261,235.553 85.9261,232.053 87,221.5C 88.025,219.313 89.525,217.646 91.5,216.5 Z"/></g>
<g><path style="opacity:1" fill="#f0c41c" d="M 144.5,233.5 C 153.015,233.844 156.515,238.177 155,246.5C 149.159,253.394 143.825,253.061 139,245.5C 138.333,243.167 138.333,240.833 139,238.5C 140.73,236.598 142.563,234.931 144.5,233.5 Z"/></g>
<g><path style="opacity:1" fill="#f0c41d" d="M 109.5,259.5 C 118.693,259.215 122.193,263.548 120,272.5C 114.257,279.421 108.924,279.088 104,271.5C 102.873,266.089 104.707,262.089 109.5,259.5 Z"/></g>
<g><path style="opacity:1" fill="#f0c41c" d="M 56.5,268.5 C 66.1569,267.658 69.9902,271.991 68,281.5C 65.0453,285.277 61.212,286.443 56.5,285C 51.9315,282.459 50.4315,278.625 52,273.5C 53.7073,271.963 55.2073,270.296 56.5,268.5 Z"/></g>
<g><path style="opacity:1" fill="#f0c41c" d="M 135.5,294.5 C 143.484,293.986 147.317,297.652 147,305.5C 144.549,311.089 140.383,312.922 134.5,311C 127.644,305.1 127.977,299.6 135.5,294.5 Z"/></g>
<g><path style="opacity:1" fill="#f0c41c" d="M 83.5,311.5 C 92.0149,311.844 95.5149,316.177 94,324.5C 88.2569,331.421 82.9235,331.088 78,323.5C 76.8735,318.089 78.7068,314.089 83.5,311.5 Z"/></g>
<g><path style="opacity:1" fill="#f0c41b" d="M 39.5,329.5 C 51.1697,329.675 54.1697,334.841 48.5,345C 38.4261,348.553 33.9261,345.053 35,334.5C 36.025,332.313 37.525,330.646 39.5,329.5 Z"/></g>
<g><path style="opacity:1" fill="#f0c41d" d="M 75.5,363.5 C 83.5227,363.683 87.0227,367.683 86,375.5C 80.3333,383.5 74.6667,383.5 69,375.5C 68.2941,369.91 70.4608,365.91 75.5,363.5 Z"/></g>
</svg>
