<?xml version="1.0" encoding="UTF-8"?>
<svg version="1.1" xmlns="http://www.w3.org/2000/svg" width="512" height="512">
<path d="M0 0 C0.71945801 0.18723633 1.43891602 0.37447266 2.18017578 0.56738281 C6.87052156 1.82728084 11.44266175 3.32465966 16 5 C16.67305176 5.24588867 17.34610352 5.49177734 18.03955078 5.74511719 C40.29850364 14.03695427 58.53548803 26.33217813 75.61181641 42.68359375 C76.76700602 43.77905319 77.94875508 44.84642136 79.13671875 45.90625 C97.0588899 62.43823177 109.03752831 86.97217845 116 110 C116.46986328 111.50046875 116.46986328 111.50046875 116.94921875 113.03125 C128.43149909 152.01499203 121.0765443 194.87421303 102.07177734 230.13671875 C99.77803545 234.1243812 97.10327429 237.84887639 94.37109375 241.546875 C92.80100969 243.81218298 92.80100969 243.81218298 93.17700195 245.90649414 C94.2379202 248.60521084 95.68737367 249.9623796 97.796875 251.94921875 C98.58473389 252.70638184 99.37259277 253.46354492 100.18432617 254.24365234 C101.45433472 255.45335693 101.45433472 255.45335693 102.75 256.6875 C115.15257763 268.79851193 125.47169911 281.89523615 134 297 C134.3604541 297.63341309 134.7209082 298.26682617 135.09228516 298.91943359 C159.33076726 341.850567 166.23029677 394.12250494 153.17773438 441.81958008 C137.88760092 494.53639107 137.88760092 494.53639107 118.95703125 505.09765625 C114.71025846 507.05574909 111.39061692 508.24999926 106.66501331 508.26006222 C105.6022728 508.26712781 104.5395323 508.2741934 103.44458753 508.2814731 C102.28312465 508.27905802 101.12166177 508.27664293 99.92500305 508.27415466 C98.68638667 508.27939134 97.44777028 508.28462802 96.17162007 508.29002339 C92.7360791 508.30243403 89.30074279 508.30586682 85.86519349 508.30542648 C82.15883333 508.30707536 78.45251038 508.32014328 74.74617004 508.33161926 C66.64274787 508.35446364 58.53935189 508.36238937 50.43590188 508.36744571 C45.37448693 508.3707036 40.31307958 508.37722668 35.25166893 508.3844471 C21.23359198 508.40401287 7.21552209 508.42041702 -6.80256939 508.42332363 C-7.69953198 508.4235112 -8.59649458 508.42369877 -9.52063786 508.42389202 C-11.33894686 508.42425827 -13.15725586 508.42462197 -14.97556486 508.42498314 C-15.87815726 508.42516595 -16.78074967 508.42534876 -17.71069336 508.42553711 C-18.61438964 508.42571766 -19.51808592 508.42589821 -20.44916693 508.42608423 C-35.08884189 508.42962507 -49.72836968 508.45664194 -64.36799362 508.494035 C-79.40415308 508.53213301 -94.44023956 508.55148122 -109.47644836 508.55178314 C-117.91636089 508.5523674 -126.35609789 508.56083901 -134.79596519 508.58978081 C-141.98343603 508.61431479 -149.17066733 508.6215641 -156.35816874 508.60653328 C-160.02332493 508.59937232 -163.68800832 508.6001858 -167.35311127 508.62294388 C-171.33231106 508.64741484 -175.31083944 508.63287491 -179.29008484 508.61473083 C-180.44039411 508.6279308 -181.59070338 508.64113077 -182.7758705 508.65473074 C-191.61385177 508.56281133 -198.16446656 506.33524647 -204.875 500.5 C-233.45214362 466.87983103 -241.16052901 418.70882153 -239 376 C-235.44565607 332.38270955 -216.14670337 289.42595496 -184.7109375 258.76953125 C-183.97375488 258.05007324 -183.23657227 257.33061523 -182.47705078 256.58935547 C-181.01127618 255.17307205 -179.5332907 253.76930055 -178.04248047 252.37939453 C-177.03918701 251.41622314 -177.03918701 251.41622314 -176.015625 250.43359375 C-175.41008789 249.86697021 -174.80455078 249.30034668 -174.18066406 248.71655273 C-172.77478601 247.06742447 -172.77478601 247.06742447 -173.19775391 244.98413086 C-174.47680223 241.82076333 -176.31954989 239.00647768 -178.125 236.125 C-199.8810222 200.38976035 -207.64519242 158.37230817 -197.88671875 117.38671875 C-197.59410156 116.26910156 -197.30148438 115.15148437 -197 114 C-196.69707031 112.81019531 -196.39414063 111.62039062 -196.08203125 110.39453125 C-191.3364286 93.58790239 -183.48716341 76.98288455 -173 63 C-172.26652344 61.97390625 -171.53304687 60.9478125 -170.77734375 59.890625 C-161.91182274 47.70534286 -151.13726751 36.93043094 -139 28 C-138.24976563 27.4328125 -137.49953125 26.865625 -136.7265625 26.28125 C-118.58288663 13.02009156 -97.81323219 4.10112296 -76 -1 C-74.72511719 -1.3196875 -73.45023438 -1.639375 -72.13671875 -1.96875 C-49.50624191 -7.02392779 -22.31162228 -5.90417633 0 0 Z " fill="#F0F1F1" transform="translate(296,4)"/>
<path d="M0 0 C0.71945801 0.18723633 1.43891602 0.37447266 2.18017578 0.56738281 C6.87052156 1.82728084 11.44266175 3.32465966 16 5 C16.67305176 5.24588867 17.34610352 5.49177734 18.03955078 5.74511719 C40.29850364 14.03695427 58.53548803 26.33217813 75.61181641 42.68359375 C76.76700602 43.77905319 77.94875508 44.84642136 79.13671875 45.90625 C97.0588899 62.43823177 109.03752831 86.97217845 116 110 C116.46986328 111.50046875 116.46986328 111.50046875 116.94921875 113.03125 C128.43149909 152.01499203 121.0765443 194.87421303 102.07177734 230.13671875 C99.77803545 234.1243812 97.10327429 237.84887639 94.37109375 241.546875 C92.80100969 243.81218298 92.80100969 243.81218298 93.17700195 245.90649414 C94.2379202 248.60521084 95.68737367 249.9623796 97.796875 251.94921875 C98.58473389 252.70638184 99.37259277 253.46354492 100.18432617 254.24365234 C101.45433472 255.45335693 101.45433472 255.45335693 102.75 256.6875 C115.15257763 268.79851193 125.47169911 281.89523615 134 297 C134.3604541 297.63341309 134.7209082 298.26682617 135.09228516 298.91943359 C159.33076726 341.850567 166.23029677 394.12250494 153.17773438 441.81958008 C137.88760092 494.53639107 137.88760092 494.53639107 118.95703125 505.09765625 C114.71025846 507.05574909 111.39061692 508.24999926 106.66501331 508.26006222 C105.6022728 508.26712781 104.5395323 508.2741934 103.44458753 508.2814731 C102.28312465 508.27905802 101.12166177 508.27664293 99.92500305 508.27415466 C98.68638667 508.27939134 97.44777028 508.28462802 96.17162007 508.29002339 C92.7360791 508.30243403 89.30074279 508.30586682 85.86519349 508.30542648 C82.15883333 508.30707536 78.45251038 508.32014328 74.74617004 508.33161926 C66.64274787 508.35446364 58.53935189 508.36238937 50.43590188 508.36744571 C45.37448693 508.3707036 40.31307958 508.37722668 35.25166893 508.3844471 C21.23359198 508.40401287 7.21552209 508.42041702 -6.80256939 508.42332363 C-7.69953198 508.4235112 -8.59649458 508.42369877 -9.52063786 508.42389202 C-11.33894686 508.42425827 -13.15725586 508.42462197 -14.97556486 508.42498314 C-15.87815726 508.42516595 -16.78074967 508.42534876 -17.71069336 508.42553711 C-18.61438964 508.42571766 -19.51808592 508.42589821 -20.44916693 508.42608423 C-35.08884189 508.42962507 -49.72836968 508.45664194 -64.36799362 508.494035 C-79.40415308 508.53213301 -94.44023956 508.55148122 -109.47644836 508.55178314 C-117.91636089 508.5523674 -126.35609789 508.56083901 -134.79596519 508.58978081 C-141.98343603 508.61431479 -149.17066733 508.6215641 -156.35816874 508.60653328 C-160.02332493 508.59937232 -163.68800832 508.6001858 -167.35311127 508.62294388 C-171.33231106 508.64741484 -175.31083944 508.63287491 -179.29008484 508.61473083 C-180.44039411 508.6279308 -181.59070338 508.64113077 -182.7758705 508.65473074 C-191.61385177 508.56281133 -198.16446656 506.33524647 -204.875 500.5 C-233.45214362 466.87983103 -241.16052901 418.70882153 -239 376 C-235.44565607 332.38270955 -216.14670337 289.42595496 -184.7109375 258.76953125 C-183.97375488 258.05007324 -183.23657227 257.33061523 -182.47705078 256.58935547 C-181.01127618 255.17307205 -179.5332907 253.76930055 -178.04248047 252.37939453 C-177.03918701 251.41622314 -177.03918701 251.41622314 -176.015625 250.43359375 C-175.41008789 249.86697021 -174.80455078 249.30034668 -174.18066406 248.71655273 C-172.77478601 247.06742447 -172.77478601 247.06742447 -173.19775391 244.98413086 C-174.47680223 241.82076333 -176.31954989 239.00647768 -178.125 236.125 C-199.8810222 200.38976035 -207.64519242 158.37230817 -197.88671875 117.38671875 C-197.59410156 116.26910156 -197.30148438 115.15148437 -197 114 C-196.69707031 112.81019531 -196.39414063 111.62039062 -196.08203125 110.39453125 C-191.3364286 93.58790239 -183.48716341 76.98288455 -173 63 C-172.26652344 61.97390625 -171.53304687 60.9478125 -170.77734375 59.890625 C-161.91182274 47.70534286 -151.13726751 36.93043094 -139 28 C-138.24976563 27.4328125 -137.49953125 26.865625 -136.7265625 26.28125 C-118.58288663 13.02009156 -97.81323219 4.10112296 -76 -1 C-74.72511719 -1.3196875 -73.45023438 -1.639375 -72.13671875 -1.96875 C-49.50624191 -7.02392779 -22.31162228 -5.90417633 0 0 Z M-149.53515625 59.2265625 C-171.59812428 84.05177217 -185.7210729 116.6253444 -185.33618164 149.9987793 C-185.31239914 152.19682183 -185.31567779 154.39365618 -185.32226562 156.59179688 C-185.30558433 164.88763262 -184.71336576 172.86035599 -183 181 C-182.79842285 181.96550781 -182.5968457 182.93101562 -182.38916016 183.92578125 C-177.7348889 205.2069538 -167.96528801 223.73455814 -155 241 C-154.02546875 242.31291016 -154.02546875 242.31291016 -153.03125 243.65234375 C-151.6974141 245.44232637 -150.35072639 247.22272844 -149 249 C-149.87398437 249.67482422 -149.87398437 249.67482422 -150.765625 250.36328125 C-157.8416271 255.91505019 -164.46195586 261.83505077 -171 268 C-172.175625 269.09441406 -172.175625 269.09441406 -173.375 270.2109375 C-203.58416802 299.23331678 -221.99439401 342.67774944 -223.28515625 384.30078125 C-223.82397317 414.44586849 -218.59776328 442.88833061 -205 470 C-204.65259766 470.70431152 -204.30519531 471.40862305 -203.94726562 472.13427734 C-202.91972943 474.20311986 -201.87256567 476.2601562 -200.8125 478.3125 C-200.34952515 479.21959717 -200.34952515 479.21959717 -199.87719727 480.14501953 C-197.14061059 485.25515406 -193.80579644 488.79613571 -189 492 C-186.65991946 492.3014817 -186.65991946 492.3014817 -184.00925732 492.25447559 C-182.97241588 492.26030779 -181.93557444 492.26613998 -180.86731356 492.27214891 C-179.72453316 492.26836958 -178.58175276 492.26459026 -177.40434265 492.26069641 C-176.19319772 492.26452196 -174.98205279 492.26834751 -173.7342065 492.27228898 C-170.36622631 492.28084273 -166.99846363 492.28037757 -163.63048947 492.27610838 C-160.00052488 492.27364797 -156.37058627 492.28264686 -152.7406311 492.29014587 C-145.62625942 492.30291475 -138.51192544 492.30468379 -131.39754423 492.30234561 C-125.61533966 492.30056447 -119.83314657 492.30230772 -114.05094337 492.30657005 C-113.22879989 492.30716524 -112.40665641 492.30776043 -111.55959949 492.30837366 C-109.88952948 492.30958538 -108.21945947 492.31079951 -106.54938946 492.31201603 C-90.87609906 492.32290033 -75.20283016 492.32072507 -59.52953855 492.31463119 C-45.18776659 492.30946316 -30.84606259 492.32071286 -16.50430407 492.33972941 C-1.78463216 492.35909764 12.9350076 492.36736547 27.65469235 492.36360615 C35.92119308 492.36169232 44.187636 492.36419924 52.45412636 492.37832069 C59.49276805 492.39022268 66.53131637 492.39165284 73.56995932 492.37953053 C77.16158179 492.37363302 80.75303336 492.37256622 84.34464455 492.38453293 C88.2376454 492.39735306 92.13038602 492.38694764 96.02339172 492.3742218 C97.15947996 492.38159609 98.2955682 492.38897037 99.46608335 492.39656812 C105.03194595 492.35817242 109.24985501 492.25823524 114 489 C139.45092573 457.88784321 146.12509501 409.77372496 142.5390625 371.10546875 C139.34667265 343.72185805 128.96595035 316.47153615 113 294 C112.59426758 293.42894531 112.18853516 292.85789062 111.77050781 292.26953125 C105.78145695 283.9675004 99.0633422 276.39622431 92 269 C91.23816406 268.19691406 90.47632813 267.39382813 89.69140625 266.56640625 C84.88760361 261.62559676 79.77636715 257.23249697 74.3828125 252.9453125 C72.46002428 251.3755608 70.70631644 249.79671731 69 248 C69.60585938 247.319375 70.21171875 246.63875 70.8359375 245.9375 C93.07356252 220.21027844 105.14803538 189.07231689 105.24023438 155.10083008 C105.24987179 152.96590152 105.28095148 150.83196681 105.3125 148.69726562 C105.52919573 120.46639044 95.27557252 92.25949875 78 70 C76.92298828 68.59234375 76.92298828 68.59234375 75.82421875 67.15625 C54.87172975 40.65860849 26.51107987 23.51343172 -6 15 C-7.78857422 14.52046875 -7.78857422 14.52046875 -9.61328125 14.03125 C-60.73934551 2.75113776 -113.68746617 22.3911727 -149.53515625 59.2265625 Z " fill="#636053" transform="translate(296,4)"/>
<path d="M0 0 C-2.32607503 2.32607503 -4.19227208 2.98975364 -7.25 4.1875 C-29.99707211 13.53004747 -51.53774007 27.57220358 -67 47 C-68.051875 48.29744141 -68.051875 48.29744141 -69.125 49.62109375 C-92.91033577 80.05476122 -104.82633119 118.66289639 -100.4609375 157.23828125 C-96.70114166 186.13437375 -85.79689278 211.98334816 -68 235 C-70.79908426 237.85312064 -73.64909176 240.61804214 -76.6015625 243.3125 C-85.07890243 251.0599052 -92.99222852 258.89168804 -100 268 C-100.710354 268.91458984 -100.710354 268.91458984 -101.43505859 269.84765625 C-117.20111451 290.40530572 -127.35371101 313.34508606 -133.8125 338.3125 C-134.0077124 339.06362061 -134.2029248 339.81474121 -134.40405273 340.58862305 C-137.55013756 353.52993534 -138.38223482 366.43639313 -138.3125 379.6875 C-138.31034485 380.43012085 -138.3081897 381.1727417 -138.30596924 381.93786621 C-138.2507747 393.83500158 -137.66736774 405.37190631 -135 417 C-134.80132324 417.86947266 -134.60264648 418.73894531 -134.39794922 419.63476562 C-129.82538213 438.9662777 -122.64372799 456.679779 -113 474 C-111.99439266 475.99718649 -110.99357231 477.99679905 -110 480 C-114.32328804 480.0744013 -118.64623255 480.12871968 -122.9699707 480.16479492 C-124.43943782 480.17984066 -125.90886034 480.20028238 -127.37817383 480.22631836 C-129.4957177 480.26288955 -131.61266565 480.27976801 -133.73046875 480.29296875 C-135.00301514 480.3086792 -136.27556152 480.32438965 -137.58666992 480.34057617 C-141.26115948 479.97394196 -143.07864173 479.20674352 -146 477 C-171.3535035 444.43208493 -178.89500717 396.44707215 -174.23120117 356.46630859 C-167.79268269 310.75679902 -142.36982536 269.21366089 -106.2421875 240.8046875 C-104.35944672 239.28931077 -102.66229439 237.74921175 -101 236 C-101.60585937 235.319375 -102.21171875 234.63875 -102.8359375 233.9375 C-130.38166133 202.06921643 -139.52916089 164.4209043 -137 123 C-135.45602707 108.15109764 -130.56374464 94.32760345 -124 81 C-123.62746094 80.23848633 -123.25492188 79.47697266 -122.87109375 78.69238281 C-116.99781988 66.92094832 -109.76246714 56.79028233 -101 47 C-100.3181665 46.23333008 -100.3181665 46.23333008 -99.62255859 45.45117188 C-75.71442023 19.0164495 -36.29213057 -1.45168522 0 0 Z " fill="#DFE0E0" transform="translate(248,16)"/>
<path d="M0 0 C4.30757797 2.42343927 6.86896719 4.78270886 9.625 8.875 C10.223125 9.761875 10.82125 10.64875 11.4375 11.5625 C13.8050176 18.16662804 13.55411922 25.57139174 10.73046875 32.02734375 C7.79649532 36.93112267 3.29526737 41.48417287 -2.171875 43.4296875 C-9.72130176 44.95563546 -17.09904042 45.14121839 -23.9375 41.3125 C-29.18296925 37.66310281 -33.17177255 33.33192353 -34.375 26.875 C-34.91013868 20.24751323 -35.03491851 13.64547152 -31.375 7.875 C-22.97563214 -1.52699511 -11.82409053 -5.46269458 0 0 Z " fill="#EF6C3B" transform="translate(269.375,162.125)"/>
<path d="M0 0 C6.37911583 3.50206515 10.51068136 8.00093842 12.8125 14.9375 C13.71938267 21.9922036 13.17706704 28.1748126 8.8125 33.9375 C4.28481265 38.72040146 -0.08919281 42.4106623 -6.80078125 43.2734375 C-14.13560039 43.37958539 -19.40531191 42.41023634 -24.90625 37.359375 C-29.99475726 31.8218818 -32.50368601 26.62678992 -32.1875 19 C-31.37568573 11.94956954 -28.8386497 7.5188826 -23.8125 2.625 C-15.74717839 -2.55984961 -8.80386602 -4.00536247 0 0 Z " fill="#646154" transform="translate(267.1875,355.0625)"/>
<path d="M0 0 C5.99645699 3.36998952 9.4766741 8.61752231 11.625 15.0625 C12.60844815 22.71934629 11.13892253 28.77331776 6.625 35.0625 C0.048423 41.4828019 -5.48320904 42.36855629 -14.46484375 42.28125 C-18.08893231 42.00883529 -20.37831963 41.10901343 -23.375 39.0625 C-24.220625 38.546875 -25.06625 38.03125 -25.9375 37.5 C-30.7629586 32.6745414 -33.64099869 26.79938753 -33.9375 19.9375 C-33.57741537 13.56600255 -31.10820188 9.12360494 -27.0625 4.3125 C-18.71267621 -2.67805015 -10.33834785 -4.49086603 0 0 Z " fill="#646153" transform="translate(268.375,272.9375)"/>
<path d="M0 0 C3.78824585 3.13883228 6.85426766 6.4798736 7.5625 11.4375 C7.05529676 16.00232917 5.16511406 19.33339305 2.1875 22.8125 C-2.35585552 25.79951459 -7.58455371 25.56151112 -12.8125 24.8125 C-16.05398234 23.20774247 -18.00724952 20.87396654 -20.1875 18 C-21.65045646 12.87965237 -21.49842776 9.15895078 -19.125 4.5 C-13.87572907 -1.60050405 -7.50034799 -3.1668136 0 0 Z " fill="#666355" transform="translate(212.8125,141.1875)"/>
<path d="M0 0 C3.89398123 1.32248419 5.65313142 2.60749082 8.375 5.6875 C10.34566859 9.70463213 10.86703785 12.61226302 10 17 C7.77864953 21.3604287 5.59457298 24.20212362 1 26 C-4.01414487 26.68031111 -7.82874671 26.55368338 -12.4375 24.375 C-16.1304962 20.95222304 -17.71144617 17.97865481 -18.4375 13 C-17.72084147 8.08577011 -15.10217354 5.19664556 -11.8125 1.625 C-7.82064334 -0.68140607 -4.50478565 -0.64467781 0 0 Z " fill="#656355" transform="translate(310,140)"/>
</svg>
