<?xml version="1.0" encoding="UTF-8"?>
<svg version="1.1" xmlns="http://www.w3.org/2000/svg" width="512" height="512">
<path d="M0 0 C1.813693 1.55805378 3.60429973 3.14325346 5.375 4.75 C5.88772461 5.2135791 6.40044922 5.6771582 6.92871094 6.15478516 C24.23990421 22.01558115 36.12057904 42.14879698 42.375 64.75 C42.85453125 66.47089844 42.85453125 66.47089844 43.34375 68.2265625 C47.54812831 86.40660575 47.42068895 107.78428933 42.375 125.75 C42.18164062 126.45060547 41.98828125 127.15121094 41.7890625 127.87304688 C39.34547715 136.50855682 36.20322738 144.65921012 32.0625 152.625 C31.73233887 153.2655835 31.40217773 153.90616699 31.06201172 154.56616211 C28.64612963 158.99640242 25.75592499 163.00167135 22.71020508 167.01611328 C22.2928434 167.56924698 21.87548172 168.12238068 21.44547272 168.692276 C20.4236087 170.04608019 19.39952862 171.3982112 18.375 172.75 C19.21278992 172.75808685 20.05057983 172.76617371 20.91375732 172.77450562 C28.85686202 172.85284595 36.79980624 172.9402513 44.74270248 173.03752708 C48.82501663 173.08721138 52.90730833 173.1335408 56.98974609 173.171875 C60.93859457 173.20908371 64.8872413 173.25553342 68.83591461 173.30806351 C70.33314683 173.32642048 71.83042198 173.34159526 73.32772064 173.35334396 C91.44133691 173.50039688 106.28565587 175.58684885 120.375 187.75 C130.03761847 197.6855738 134.80130294 210.75083481 134.74072266 224.47705078 C134.42186664 237.25176843 129.32809037 248.71787337 120.625 258 C108.20231849 269.64773163 93.75843708 272.38584489 77.23046875 272.140625 C75.72447978 272.13314232 74.21848092 272.12745901 72.71247864 272.12347412 C68.79474861 272.10837673 64.87763466 272.06923789 60.96014404 272.0246582 C56.94421721 271.98335702 52.92818847 271.9653896 48.91210938 271.9453125 C41.06612878 271.90272336 33.22065149 271.83467204 25.375 271.75 C25.37868717 272.64599537 25.38237434 273.54199074 25.38617325 274.46513748 C25.47463934 296.30035653 25.54076555 318.13554455 25.58224869 339.9709053 C25.60284456 350.53047384 25.63090817 361.08992249 25.67675781 371.64941406 C25.71671677 380.85665621 25.74245442 390.0638115 25.75135398 399.27113795 C25.7565534 404.14312036 25.76871163 409.01485436 25.79792023 413.8867569 C25.82523265 418.47994763 25.83341325 423.07278954 25.82743073 427.66605377 C25.82852392 429.34454245 25.83638305 431.02304377 25.8518219 432.70146179 C25.97250274 446.50772111 23.91324193 457.5449581 15.375 468.75 C14.26125 470.296875 14.26125 470.296875 13.125 471.875 C4.03212906 481.38118325 -7.23163246 486.7995892 -20.37036133 487.34204102 C-35.08354712 487.51808286 -46.48541403 483.63833762 -57.625 473.75 C-67.14841897 464.09634624 -71.79822793 452.64331888 -71.73852539 439.21777344 C-71.73867142 438.35887512 -71.73881744 437.49997681 -71.7389679 436.61505127 C-71.73827196 433.77980004 -71.73049445 430.94461474 -71.72265625 428.109375 C-71.72079094 426.14211055 -71.71936757 424.17484564 -71.71836853 422.20758057 C-71.71455227 417.03233556 -71.70472956 411.85711867 -71.69366455 406.68188477 C-71.6834313 401.39990621 -71.6788668 396.11792311 -71.67382812 390.8359375 C-71.66310651 380.47394599 -71.64604075 370.11197533 -71.625 359.75 C-74.265 359.75 -76.905 359.75 -79.625 359.75 C-79.61611755 360.82582336 -79.60723511 361.90164673 -79.5980835 363.0100708 C-79.51670428 373.18984515 -79.45689444 383.36955278 -79.41775131 393.54957962 C-79.39695032 398.78221533 -79.36877058 404.01458669 -79.32324219 409.24707031 C-79.279516 414.3045585 -79.25580669 419.36179373 -79.24549103 424.41945648 C-79.23814744 426.34101081 -79.22380816 428.2625526 -79.20207977 430.18399811 C-79.04138623 444.99433697 -80.37164149 456.60648489 -89.625 468.75 C-90.73875 470.296875 -90.73875 470.296875 -91.875 471.875 C-100.96787094 481.38118325 -112.23163246 486.7995892 -125.37036133 487.34204102 C-140.08354712 487.51808286 -151.48541403 483.63833762 -162.625 473.75 C-171.64309872 464.60857686 -176.7543861 453.40809032 -176.74525452 440.58734131 C-176.74610894 439.86521839 -176.74696337 439.14309548 -176.74784368 438.39909005 C-176.74949088 435.97925095 -176.74398955 433.55948116 -176.73852539 431.13964844 C-176.73824333 429.40509035 -176.73840162 427.67053214 -176.7389679 425.93597412 C-176.73925513 421.22560697 -176.73337031 416.51526522 -176.72639394 411.80490398 C-176.72014812 406.88281571 -176.71955563 401.96072688 -176.71836853 397.03863525 C-176.71525885 387.71728025 -176.70705033 378.39593695 -176.69701904 369.07458711 C-176.68584666 358.46284778 -176.68034461 347.85110789 -176.67532361 337.23936415 C-176.66486743 315.40956956 -176.64727498 293.57978552 -176.625 271.75 C-177.44804123 271.75888245 -178.27108246 271.76776489 -179.11906433 271.7769165 C-186.92925457 271.85753626 -194.73923903 271.9182026 -202.54973888 271.95724869 C-206.56385949 271.97799852 -210.57763224 272.00608078 -214.59155273 272.05175781 C-218.47547568 272.09567179 -222.35906705 272.11923149 -226.24321938 272.12950897 C-227.71459475 272.13681967 -229.18595489 272.15109206 -230.65718651 272.17292023 C-246.3893748 272.39674911 -260.16879636 268.97594897 -271.875 258 C-281.63838981 247.58702981 -286.27447405 234.87036097 -286.09985352 220.63793945 C-285.554183 208.126818 -279.72369124 195.4077855 -270.625 186.75 C-256.22100614 174.598267 -240.65223665 173.63811033 -222.65234375 173.43359375 C-221.11820466 173.41298457 -219.58407074 173.39198718 -218.04994202 173.37062073 C-214.04041775 173.31580882 -210.03084577 173.26622184 -206.02124023 173.21777344 C-201.91841459 173.16725707 -197.81565698 173.1117294 -193.71289062 173.05664062 C-185.68365152 172.94956024 -177.65435496 172.84800713 -169.625 172.75 C-170.2415596 171.93740723 -170.8581192 171.12481445 -171.49336243 170.28759766 C-172.31119179 169.20483249 -173.12890947 168.12198296 -173.9465332 167.0390625 C-174.35186531 166.50547119 -174.75719742 165.97187988 -175.17481232 165.42211914 C-178.46931549 161.05132451 -181.29423299 156.60228368 -183.8125 151.75 C-184.43511719 150.55685181 -184.43511719 150.55685181 -185.0703125 149.33959961 C-193.53757234 132.45948404 -197.02434987 114.2843856 -196.9375 95.5 C-196.93186035 94.22092773 -196.9262207 92.94185547 -196.92041016 91.62402344 C-196.50049393 58.90381813 -182.23910057 29.51721987 -159.11425781 6.70019531 C-144.3976512 -7.21528955 -126.0707023 -16.86315277 -106.625 -22.25 C-105.48933594 -22.5696875 -104.35367188 -22.889375 -103.18359375 -23.21875 C-67.34034366 -31.57057526 -28.74997535 -22.62767844 0 0 Z " fill="#C59C6D" transform="translate(331.625,25.25)"/>
<path d="M0 0 C1.813693 1.55805378 3.60429973 3.14325346 5.375 4.75 C5.88772461 5.2135791 6.40044922 5.6771582 6.92871094 6.15478516 C24.23990421 22.01558115 36.12057904 42.14879698 42.375 64.75 C42.85453125 66.47089844 42.85453125 66.47089844 43.34375 68.2265625 C47.54812831 86.40660575 47.42068895 107.78428933 42.375 125.75 C42.18164062 126.45060547 41.98828125 127.15121094 41.7890625 127.87304688 C39.34547715 136.50855682 36.20322738 144.65921012 32.0625 152.625 C31.73233887 153.2655835 31.40217773 153.90616699 31.06201172 154.56616211 C28.64612963 158.99640242 25.75592499 163.00167135 22.71020508 167.01611328 C22.2928434 167.56924698 21.87548172 168.12238068 21.44547272 168.692276 C20.4236087 170.04608019 19.39952862 171.3982112 18.375 172.75 C19.21278992 172.75808685 20.05057983 172.76617371 20.91375732 172.77450562 C28.85686202 172.85284595 36.79980624 172.9402513 44.74270248 173.03752708 C48.82501663 173.08721138 52.90730833 173.1335408 56.98974609 173.171875 C60.93859457 173.20908371 64.8872413 173.25553342 68.83591461 173.30806351 C70.33314683 173.32642048 71.83042198 173.34159526 73.32772064 173.35334396 C91.44133691 173.50039688 106.28565587 175.58684885 120.375 187.75 C130.03761847 197.6855738 134.80130294 210.75083481 134.74072266 224.47705078 C134.42186664 237.25176843 129.32809037 248.71787337 120.625 258 C108.20231849 269.64773163 93.75843708 272.38584489 77.23046875 272.140625 C75.72447978 272.13314232 74.21848092 272.12745901 72.71247864 272.12347412 C68.79474861 272.10837673 64.87763466 272.06923789 60.96014404 272.0246582 C56.94421721 271.98335702 52.92818847 271.9653896 48.91210938 271.9453125 C41.06612878 271.90272336 33.22065149 271.83467204 25.375 271.75 C25.37868717 272.64599537 25.38237434 273.54199074 25.38617325 274.46513748 C25.47463934 296.30035653 25.54076555 318.13554455 25.58224869 339.9709053 C25.60284456 350.53047384 25.63090817 361.08992249 25.67675781 371.64941406 C25.71671677 380.85665621 25.74245442 390.0638115 25.75135398 399.27113795 C25.7565534 404.14312036 25.76871163 409.01485436 25.79792023 413.8867569 C25.82523265 418.47994763 25.83341325 423.07278954 25.82743073 427.66605377 C25.82852392 429.34454245 25.83638305 431.02304377 25.8518219 432.70146179 C25.97250274 446.50772111 23.91324193 457.5449581 15.375 468.75 C14.26125 470.296875 14.26125 470.296875 13.125 471.875 C4.03212906 481.38118325 -7.23163246 486.7995892 -20.37036133 487.34204102 C-35.08354712 487.51808286 -46.48541403 483.63833762 -57.625 473.75 C-67.14841897 464.09634624 -71.79822793 452.64331888 -71.73852539 439.21777344 C-71.73867142 438.35887512 -71.73881744 437.49997681 -71.7389679 436.61505127 C-71.73827196 433.77980004 -71.73049445 430.94461474 -71.72265625 428.109375 C-71.72079094 426.14211055 -71.71936757 424.17484564 -71.71836853 422.20758057 C-71.71455227 417.03233556 -71.70472956 411.85711867 -71.69366455 406.68188477 C-71.6834313 401.39990621 -71.6788668 396.11792311 -71.67382812 390.8359375 C-71.66310651 380.47394599 -71.64604075 370.11197533 -71.625 359.75 C-74.265 359.75 -76.905 359.75 -79.625 359.75 C-79.61611755 360.82582336 -79.60723511 361.90164673 -79.5980835 363.0100708 C-79.51670428 373.18984515 -79.45689444 383.36955278 -79.41775131 393.54957962 C-79.39695032 398.78221533 -79.36877058 404.01458669 -79.32324219 409.24707031 C-79.279516 414.3045585 -79.25580669 419.36179373 -79.24549103 424.41945648 C-79.23814744 426.34101081 -79.22380816 428.2625526 -79.20207977 430.18399811 C-79.04138623 444.99433697 -80.37164149 456.60648489 -89.625 468.75 C-90.73875 470.296875 -90.73875 470.296875 -91.875 471.875 C-100.96787094 481.38118325 -112.23163246 486.7995892 -125.37036133 487.34204102 C-140.08354712 487.51808286 -151.48541403 483.63833762 -162.625 473.75 C-171.64309872 464.60857686 -176.7543861 453.40809032 -176.74525452 440.58734131 C-176.74610894 439.86521839 -176.74696337 439.14309548 -176.74784368 438.39909005 C-176.74949088 435.97925095 -176.74398955 433.55948116 -176.73852539 431.13964844 C-176.73824333 429.40509035 -176.73840162 427.67053214 -176.7389679 425.93597412 C-176.73925513 421.22560697 -176.73337031 416.51526522 -176.72639394 411.80490398 C-176.72014812 406.88281571 -176.71955563 401.96072688 -176.71836853 397.03863525 C-176.71525885 387.71728025 -176.70705033 378.39593695 -176.69701904 369.07458711 C-176.68584666 358.46284778 -176.68034461 347.85110789 -176.67532361 337.23936415 C-176.66486743 315.40956956 -176.64727498 293.57978552 -176.625 271.75 C-177.44804123 271.75888245 -178.27108246 271.76776489 -179.11906433 271.7769165 C-186.92925457 271.85753626 -194.73923903 271.9182026 -202.54973888 271.95724869 C-206.56385949 271.97799852 -210.57763224 272.00608078 -214.59155273 272.05175781 C-218.47547568 272.09567179 -222.35906705 272.11923149 -226.24321938 272.12950897 C-227.71459475 272.13681967 -229.18595489 272.15109206 -230.65718651 272.17292023 C-246.3893748 272.39674911 -260.16879636 268.97594897 -271.875 258 C-281.63838981 247.58702981 -286.27447405 234.87036097 -286.09985352 220.63793945 C-285.554183 208.126818 -279.72369124 195.4077855 -270.625 186.75 C-256.22100614 174.598267 -240.65223665 173.63811033 -222.65234375 173.43359375 C-221.11820466 173.41298457 -219.58407074 173.39198718 -218.04994202 173.37062073 C-214.04041775 173.31580882 -210.03084577 173.26622184 -206.02124023 173.21777344 C-201.91841459 173.16725707 -197.81565698 173.1117294 -193.71289062 173.05664062 C-185.68365152 172.94956024 -177.65435496 172.84800713 -169.625 172.75 C-170.2415596 171.93740723 -170.8581192 171.12481445 -171.49336243 170.28759766 C-172.31119179 169.20483249 -173.12890947 168.12198296 -173.9465332 167.0390625 C-174.35186531 166.50547119 -174.75719742 165.97187988 -175.17481232 165.42211914 C-178.46931549 161.05132451 -181.29423299 156.60228368 -183.8125 151.75 C-184.43511719 150.55685181 -184.43511719 150.55685181 -185.0703125 149.33959961 C-193.53757234 132.45948404 -197.02434987 114.2843856 -196.9375 95.5 C-196.93186035 94.22092773 -196.9262207 92.94185547 -196.92041016 91.62402344 C-196.50049393 58.90381813 -182.23910057 29.51721987 -159.11425781 6.70019531 C-144.3976512 -7.21528955 -126.0707023 -16.86315277 -106.625 -22.25 C-105.48933594 -22.5696875 -104.35367188 -22.889375 -103.18359375 -23.21875 C-67.34034366 -31.57057526 -28.74997535 -22.62767844 0 0 Z M-98.625 -7.25 C-100.07712891 -6.98509766 -100.07712891 -6.98509766 -101.55859375 -6.71484375 C-125.25686621 -1.72378793 -147.17463061 14.2714762 -161.4375 33.5625 C-168.56532577 44.56178443 -174.46283241 55.98953582 -177.625 68.75 C-177.92148438 69.72839844 -178.21796875 70.70679687 -178.5234375 71.71484375 C-183.15803095 88.91386255 -182.46120227 108.9641427 -176.625 125.75 C-176.40537598 126.41531738 -176.18575195 127.08063477 -175.95947266 127.76611328 C-171.63714068 140.8065246 -165.51822593 152.20571102 -156.625 162.75 C-155.99335938 163.51570312 -155.36171875 164.28140625 -154.7109375 165.0703125 C-147.063976 173.97744743 -138.02336019 181.73504766 -128.625 188.75 C-130.34030159 188.7654612 -130.34030159 188.7654612 -132.09025574 188.78123474 C-142.95898921 188.87973215 -153.82767506 188.98252534 -164.69633007 189.08933926 C-170.28166714 189.14409723 -175.86700967 189.19743208 -181.45239258 189.24731445 C-186.86006216 189.29566539 -192.26768058 189.34801574 -197.67528725 189.40294075 C-199.72053028 189.42304955 -201.76578714 189.44180679 -203.81105614 189.45907402 C-210.41680338 189.51541252 -217.02041721 189.61475124 -223.625 189.75 C-224.57647038 189.76570667 -225.52794075 189.78141335 -226.50824356 189.79759598 C-229.33630153 189.85089811 -232.1623424 189.93148421 -234.98950195 190.01977539 C-236.24694733 190.03911841 -236.24694733 190.03911841 -237.52979565 190.0588522 C-246.80035495 190.41395244 -254.90695873 194.39968309 -261.625 200.75 C-266.63479529 206.53736884 -268.87820191 212.17700062 -269.625 219.75 C-269.74875 220.98943359 -269.74875 220.98943359 -269.875 222.25390625 C-270.33104074 231.36046972 -267.29588436 238.13821337 -261.5 245.0625 C-255.86115687 251.00008978 -248.46560846 255.58424144 -240.11323547 255.87025452 C-238.63058586 255.8731558 -237.1479193 255.87049038 -235.6652832 255.86352539 C-234.85529877 255.86367142 -234.04531433 255.86381744 -233.21078491 255.8639679 C-230.53242315 255.863271 -227.85413087 255.85548903 -225.17578125 255.84765625 C-223.31918882 255.84579128 -221.4625959 255.84436775 -219.60600281 255.84336853 C-214.71844119 255.8395496 -209.83090926 255.82972461 -204.94335938 255.81866455 C-199.95638429 255.80843704 -194.96940442 255.80386803 -189.98242188 255.79882812 C-180.19660153 255.78810181 -170.41080324 255.77103284 -160.625 255.75 C-160.63053076 257.2063695 -160.63053076 257.2063695 -160.63617325 258.69216061 C-160.7250159 282.32889098 -160.79072412 305.96559967 -160.83224869 329.60246181 C-160.85286399 341.03313065 -160.88096499 352.46368912 -160.92675781 363.89428711 C-160.96665702 373.85850619 -160.99244031 383.82264532 -161.00135398 393.78694206 C-161.00656347 399.06179678 -161.01878639 404.3364228 -161.04792023 409.61120415 C-161.07513793 414.5794732 -161.08343211 419.54742007 -161.07743073 424.51575661 C-161.07852812 426.33579638 -161.08644402 428.15584731 -161.1018219 429.97582245 C-161.37889102 442.92262008 -161.37889102 442.92262008 -156.625 454.75 C-156.08359375 455.63171875 -155.5421875 456.5134375 -154.984375 457.421875 C-149.62570857 464.34131807 -144.10451415 468.38770226 -135.625 470.75 C-126.90517531 471.57497791 -119.14768573 471.50350811 -111.625 466.75 C-110.92890625 466.32589844 -110.2328125 465.90179688 -109.515625 465.46484375 C-102.40250448 460.66482445 -97.85133347 454.01695066 -95.625 445.75 C-95.34809548 442.40011077 -95.37203481 439.06518385 -95.39794922 435.70556641 C-95.39765717 434.70982605 -95.39736511 433.71408569 -95.39706421 432.68817139 C-95.39845337 429.40921196 -95.41399527 426.13048205 -95.4296875 422.8515625 C-95.43341909 420.57327397 -95.43626538 418.29498383 -95.43826294 416.01669312 C-95.44588783 410.02931259 -95.46552659 404.04202958 -95.4876709 398.0546875 C-95.50815391 391.94141967 -95.51726991 385.82813603 -95.52734375 379.71484375 C-95.5487735 367.72651284 -95.58394641 355.73827979 -95.625 343.75 C-82.425 343.75 -69.225 343.75 -55.625 343.75 C-55.64594727 346.79275146 -55.66689453 349.83550293 -55.68847656 352.97045898 C-55.75485181 363.04062774 -55.79897751 373.11080633 -55.83224869 383.18113613 C-55.85309439 389.28485657 -55.88135743 395.38835225 -55.92675781 401.49194336 C-55.97032239 407.38583132 -55.99415979 413.27950353 -56.00450897 419.17354012 C-56.01188124 421.41854306 -56.02627751 423.66353463 -56.04792023 425.90844536 C-56.07709461 429.06088353 -56.08095005 432.21243808 -56.07910156 435.36499023 C-56.10067322 436.747117 -56.10067322 436.747117 -56.12268066 438.15716553 C-56.06246165 447.69178814 -52.19324579 455.86276656 -45.625 462.75 C-36.28521336 470.31237662 -27.50656368 471.7547834 -15.625 470.75 C-12.24900547 469.88887676 -9.56163215 468.6056278 -6.625 466.75 C-5.92890625 466.32589844 -5.2328125 465.90179688 -4.515625 465.46484375 C2.6416041 460.63505945 7.05601968 454.02738862 9.375 445.75 C9.5531223 443.06792203 9.63713002 440.49418254 9.61550903 437.81533813 C9.61721788 437.03433664 9.61892673 436.25333514 9.62068737 435.44866693 C9.62397177 432.8414973 9.61299596 430.23458718 9.60205078 427.62744141 C9.60148644 425.75465908 9.60180367 423.88187631 9.60293579 422.00909424 C9.60350941 416.93106025 9.59175354 411.85312083 9.57778788 406.77510881 C9.56528211 401.46599336 9.56411014 396.15687572 9.56173706 390.8477478 C9.55552185 380.7968752 9.53911044 370.74604613 9.51903808 360.69519269 C9.49668039 349.2515047 9.48568597 337.80781463 9.47564721 326.36411023 C9.45474428 302.82604936 9.41956746 279.28802712 9.375 255.75 C10.39484482 255.75888245 11.41468964 255.76776489 12.46543884 255.7769165 C22.10164701 255.8581917 31.73778515 255.91805606 41.374259 255.95724869 C46.32785831 255.97807582 51.28117973 256.00630402 56.23461914 256.05175781 C61.01977309 256.09538992 65.80466063 256.11917373 70.58999825 256.12950897 C72.41076409 256.13686927 74.23151623 256.15124201 76.05216789 256.17292023 C89.28853751 256.55921329 89.28853751 256.55921329 101.375 251.75 C102.921875 250.88375 102.921875 250.88375 104.5 250 C111.38666571 244.61043553 116.3685434 238.38132515 118.375 229.75 C119.31051505 221.27249764 118.92124416 214.07214403 114.375 206.75 C113.95089844 206.05261719 113.52679688 205.35523438 113.08984375 204.63671875 C108.19291795 197.39363351 101.66743437 193.25416335 93.375 190.75 C81.20109011 188.77426112 68.4141882 189.72157579 56.13671875 189.87109375 C53.80117798 189.89543647 51.46563194 189.91927784 49.13008118 189.94264221 C43.02277557 190.00507044 36.91556494 190.07425101 30.80834961 190.14489746 C24.56042761 190.21595673 18.31243899 190.28054767 12.06445312 190.34570312 C-0.16543783 190.47418253 -12.39523813 190.60980434 -24.625 190.75 C-24.625 190.09 -24.625 189.43 -24.625 188.75 C-24.068125 188.50121094 -23.51125 188.25242188 -22.9375 187.99609375 C-0.93822956 176.14175714 17.94823678 151.11735717 25.00048828 127.67041016 C32.94214555 99.06615811 31.02633256 70.07695803 16.58984375 43.86181641 C1.98501543 18.47359997 -20.87893797 2.12249591 -48.625 -6.25 C-49.59308594 -6.60320313 -50.56117188 -6.95640625 -51.55859375 -7.3203125 C-59.36664479 -9.68759422 -67.41352491 -9.43287916 -75.5 -9.4375 C-76.62019531 -9.44974609 -77.74039063 -9.46199219 -78.89453125 -9.47460938 C-85.74191089 -9.48659429 -91.97273373 -8.83884323 -98.625 -7.25 Z " fill="#636052" transform="translate(331.625,25.25)"/>
<path d="M0 0 C-2.20389195 2.20389195 -4.45960813 3.24575666 -7.25488281 4.56176758 C-15.61157501 8.50627256 -22.88877255 13.04168273 -30 19 C-31.00804687 19.84433594 -32.01609375 20.68867187 -33.0546875 21.55859375 C-54.80341358 40.35412986 -68.92113606 68.255615 -71.32666016 96.88818359 C-72.17496935 112.12236884 -71.76951572 127.40470115 -67 142 C-66.78569336 142.6801416 -66.57138672 143.3602832 -66.35058594 144.06103516 C-61.41104064 159.40094765 -53.36427557 174.86175867 -41.734375 186.2109375 C-40 188 -40 188 -40 190 C-39.443125 190.20625 -38.88625 190.4125 -38.3125 190.625 C-35.07498698 192.55000774 -33.31768859 195.03850902 -31 198 C-35.29 198 -39.58 198 -44 198 C-44 198.66 -44 199.32 -44 200 C-69.41 200 -94.82 200 -121 200 C-121 199.67 -121 199.34 -121 199 C-96.25 198.67 -71.5 198.34 -46 198 C-50.62 194.04 -55.24 190.08 -60 186 C-79.89255935 168.91580197 -91.30745956 148.39748812 -97 123 C-97.1750708 122.38382812 -97.3501416 121.76765625 -97.53051758 121.1328125 C-103.04350739 96.08784162 -94.8969899 68.39597225 -81.6875 47.19921875 C-67.25084375 25.26977893 -45.27145394 9.72743532 -20 3 C-18.97261719 2.65066406 -17.94523437 2.30132813 -16.88671875 1.94140625 C-11.35605841 0.13776736 -5.79767479 -0.14494187 0 0 Z " fill="#AA8963" transform="translate(249,16)"/>
<path d="M0 0 C7.92 0 15.84 0 24 0 C24.32454549 18.8628533 24.57415055 37.72491437 24.72537041 56.5899868 C24.79746246 65.35018522 24.89567851 74.10861378 25.05615234 82.86767578 C25.19601206 90.50523065 25.28608638 98.14150373 25.31723893 105.7803036 C25.33544325 109.82318232 25.37797639 113.86239554 25.48022079 117.9040947 C26.1245005 144.37554879 26.1245005 144.37554879 20.96588135 150.32354736 C17.53771872 153.2811309 14.40625638 154.94954221 10 156 C5.90654354 155.10989178 2.99688616 152.88003864 0 150 C-0.61523914 147.16520309 -0.61523914 147.16520309 -0.60127258 143.82440186 C-0.6081459 142.55678009 -0.61501923 141.28915833 -0.62210083 139.98312378 C-0.60440617 138.58086566 -0.58623214 137.17861352 -0.56762695 135.77636719 C-0.5662164 134.29796395 -0.5670086 132.81955721 -0.56983948 131.34115601 C-0.5712748 127.32881744 -0.541867 123.31722537 -0.50696969 119.30506039 C-0.47572517 115.11171688 -0.47277697 110.91835649 -0.46684265 106.72491455 C-0.45129855 98.78462273 -0.4102626 90.84467489 -0.3600952 82.90453458 C-0.30421922 73.86475918 -0.27671966 64.8249674 -0.25161803 55.78506231 C-0.19934709 37.18984108 -0.11038749 18.59496079 0 0 Z " fill="#AB8A64" transform="translate(171,281)"/>
<path d="M0 0 C3.01701279 2.2313892 3.89933395 3.50390325 4.65234375 7.21484375 C4.74644531 8.44332031 4.84054688 9.67179687 4.9375 10.9375 C6.53353321 26.41618894 13.47172568 38.86073865 25.265625 48.95703125 C37.4531591 58.0628603 51.34985499 60.66032007 66.26171875 58.53515625 C80.7273635 55.6420273 92.6186183 47.93930547 100.875 35.625 C106.27253806 26.45553534 108.44175067 17.81033876 109.3125 7.28515625 C110.09563909 3.54299729 110.95089541 2.24816226 114 0 C117.86993279 -0.55284754 119.99957944 -0.74184484 123.19140625 1.625 C127.18816956 6.87344944 125.42401035 14.81374743 124.59765625 21.0234375 C120.9240464 38.55111847 110.46368061 53.79916373 95.96875 64.06640625 C87.78339494 69.39765724 79.39372999 72.40335919 70 75 C69.3611084 75.17724609 68.7222168 75.35449219 68.06396484 75.53710938 C57.85626423 77.82641626 45.73967949 76.37823848 36 73 C35.00613281 72.6596875 34.01226562 72.319375 32.98828125 71.96875 C25.4069444 69.09541363 19.33295782 65.00841762 13 60 C11.96875 59.2575 10.9375 58.515 9.875 57.75 C-4.65721418 43.84962122 -10.97901634 26.86032998 -11.4609375 7.1015625 C-11 4 -11 4 -9.1953125 1.6171875 C-5.99899686 -0.73739377 -3.86731677 -0.55247382 0 0 Z " fill="#FDFDFC" transform="translate(199,118)"/>
<path d="M0 0 C2.52034737 1.59179834 4.86594788 3.25389829 7.1875 5.125 C7.97769531 5.75664062 8.76789063 6.38828125 9.58203125 7.0390625 C10.17371094 7.52117187 10.76539063 8.00328125 11.375 8.5 C15.17340345 6.40700218 18.61669241 4.33908191 22 1.625 C25.375 -0.5 25.375 -0.5 27.875 -0.125 C28.7 0.41125 29.525 0.9475 30.375 1.5 C30.98988281 1.72042969 31.60476563 1.94085938 32.23828125 2.16796875 C34.76882935 3.32928241 35.83460887 4.14638562 37.375 6.5 C38.76016863 15.46665823 38.53595324 24.76618216 33.375 32.5 C32.61123047 33.66789062 32.61123047 33.66789062 31.83203125 34.859375 C26.69606273 42.05208148 20.88796614 46.12838291 12.375 48.5 C3.65517531 49.32497791 -4.10231427 49.25350811 -11.625 44.5 C-12.66914063 43.86384766 -12.66914063 43.86384766 -13.734375 43.21484375 C-20.74885425 38.48138877 -25.59760816 31.74097239 -27.625 23.5 C-27.8563255 19.7039267 -27.81376242 15.926221 -27.75 12.125 C-27.74097656 11.10277344 -27.73195313 10.08054687 -27.72265625 9.02734375 C-27.6992043 6.51798478 -27.66638355 4.00911664 -27.625 1.5 C-24.76778027 2.90767785 -22.06689731 4.4201317 -19.375 6.125 C-18.66859375 6.57101562 -17.9621875 7.01703125 -17.234375 7.4765625 C-16.70328125 7.81429688 -16.1721875 8.15203125 -15.625 8.5 C-14.74457031 7.82710938 -13.86414063 7.15421875 -12.95703125 6.4609375 C-11.78455992 5.5979986 -10.61134331 4.73607168 -9.4375 3.875 C-8.85935547 3.42898438 -8.28121094 2.98296875 -7.68554688 2.5234375 C-3.32129941 -0.63262846 -3.32129941 -0.63262846 0 0 Z " fill="#C59C6D" transform="translate(303.625,447.5)"/>
<path d="M0 0 C3.46043831 1.98975203 6.25294921 4.51936303 9.21875 7.171875 C11.44926127 8.74013718 11.44926127 8.74013718 14 7.875 C17.46043831 5.88524797 20.25294921 3.35563697 23.21875 0.703125 C25.5 -0.5625 25.5 -0.5625 28.0546875 0.07421875 C30.21219296 1.27704528 32.16559917 2.50137151 34.125 4 C36.37136309 5.7127248 37.75008426 6.52086142 40.5 7.4375 C41.2763244 25.01262188 41.2763244 25.01262188 36.5 32.4375 C36.07589844 33.13230469 35.65179688 33.82710938 35.21484375 34.54296875 C30.41925319 41.66288454 23.7704373 46.19949729 15.5 48.4375 C6.78017531 49.26247791 -0.97731427 49.19100811 -8.5 44.4375 C-9.54414063 43.80134766 -9.54414063 43.80134766 -10.609375 43.15234375 C-17.64215832 38.40653696 -22.43330613 31.68513944 -24.5 23.4375 C-24.72788295 19.97396671 -24.68933235 16.53149841 -24.625 13.0625 C-24.61597656 12.13566406 -24.60695312 11.20882813 -24.59765625 10.25390625 C-24.57422937 7.98149923 -24.54142748 5.7096382 -24.5 3.4375 C-22.19259507 4.53123872 -20.47245555 5.46237886 -18.5625 7.1875 C-17.881875 7.6 -17.20125 8.0125 -16.5 8.4375 C-11.61857824 7.00799879 -8.50154803 4.0304338 -4.78125 0.703125 C-2.5 -0.5625 -2.5 -0.5625 0 0 Z " fill="#C59C6D" transform="translate(195.5,447.5625)"/>
<path d="M0 0 C0.97453125 0.00902344 1.9490625 0.01804688 2.953125 0.02734375 C5.34385672 0.0507823 7.73446099 0.08664911 10.125 0.125 C8.145 3.425 6.165 6.725 4.125 10.125 C4.78628906 10.94484375 5.44757813 11.7646875 6.12890625 12.609375 C6.98243806 13.69739357 7.83526629 14.78596435 8.6875 15.875 C9.12513672 16.41382813 9.56277344 16.95265625 10.01367188 17.5078125 C13.1155914 21.51344086 13.1155914 21.51344086 13.15625 24.15625 C11.70049489 26.93541885 9.94450357 29.36566191 8.0625 31.875 C7.32902344 32.85984375 6.59554687 33.8446875 5.83984375 34.859375 C5.27394531 35.60703125 4.70804688 36.3546875 4.125 37.125 C6.15192859 40.87857146 8.05375298 44.16293272 10.9375 47.3125 C13.125 50.125 13.125 50.125 12.92578125 51.94140625 C11.05961322 57.03012786 9.13539211 61.36723102 5.125 65.125 C-2.3728635 66.98460601 -10.5483553 65.87153807 -17.52734375 62.5859375 C-26.5519449 56.96996274 -33.40250449 49.63310594 -35.875 39.125 C-36.79987813 28.04573072 -35.06005145 19.4666858 -28.16015625 10.61328125 C-20.09099511 1.82686135 -11.53702295 -0.20322669 0 0 Z " fill="#AA8963" transform="translate(97.875,215.875)"/>
<path d="M0 0 C31.83772571 -0.30257606 31.83772571 -0.30257606 41 5 C41.92039062 5.50660156 41.92039062 5.50660156 42.859375 6.0234375 C49.96367754 10.45576785 54.87505772 17.99370088 57 26 C58.03023391 36.11066763 57.1464667 44.47671424 50.9765625 52.6953125 C45.17774396 59.48369052 39.70207017 63.64591397 31 66 C27.8692188 66.22969161 24.76194506 66.19004033 21.625 66.125 C20.79355469 66.11597656 19.96210938 66.10695313 19.10546875 66.09765625 C17.07018663 66.0742622 15.03505436 66.03839725 13 66 C14.75063549 62.14688561 17.1979343 59.27623635 19.953125 56.09765625 C21.28048853 54.00070874 21.28048853 54.00070874 20.40625 51.52734375 C18.4595563 48.02870257 15.92498855 45.2547116 13.265625 42.28125 C12 40 12 40 12.5625 37.5 C14.55225203 34.03956169 17.08186303 31.24705079 19.734375 28.28125 C21.30263718 26.05073873 21.30263718 26.05073873 20.4375 23.5 C18.44774797 20.03956169 15.91813697 17.24705079 13.265625 14.28125 C12 12 12 12 12.546875 9.59375 C14.20506569 6.63396877 16.1181105 3.82283425 18 1 C12.06 1 6.12 1 0 1 C0 0.67 0 0.34 0 0 Z " fill="#C59B6D" transform="translate(393,215)"/>
<path d="M0 0 C3.34194014 2.10640201 6.17875249 4.61805681 9.1171875 7.24609375 C11.34769877 8.81435593 11.34769877 8.81435593 13.8984375 7.94921875 C17.35887581 5.95946672 20.15138671 3.42985572 23.1171875 0.77734375 C25.3984375 -0.48828125 25.3984375 -0.48828125 27.84765625 0.12109375 C29.11029297 0.80945313 29.11029297 0.80945313 30.3984375 1.51171875 C31.28144531 1.94484375 32.16445312 2.37796875 33.07421875 2.82421875 C36.22833191 4.84285117 38.22490964 6.43151927 40.3984375 9.51171875 C41.64747471 15.42067748 40.97149847 21.55188462 40.3984375 27.51171875 C35.98474969 26.54664015 33.26356621 24.32780922 29.71484375 21.59375 C27.42687428 20.23181538 27.42687428 20.23181538 24.9140625 21.109375 C22.25352329 22.59250167 19.95702493 24.22569306 17.5859375 26.13671875 C16.79574219 26.76835937 16.00554687 27.4 15.19140625 28.05078125 C14.59972656 28.53289062 14.00804687 29.015 13.3984375 29.51171875 C9.09697774 27.56463766 5.62927351 24.67905212 1.93359375 21.77734375 C-0.52563895 20.21528016 -0.52563895 20.21528016 -3.1171875 21.08203125 C-5.7429624 22.59309039 -8.05544818 24.23574601 -10.4140625 26.13671875 C-11.59935547 27.08417969 -11.59935547 27.08417969 -12.80859375 28.05078125 C-13.40027344 28.53289062 -13.99195313 29.015 -14.6015625 29.51171875 C-15.95506844 28.8870237 -17.2824043 28.20601254 -18.6015625 27.51171875 C-19.66632813 27.021875 -20.73109375 26.53203125 -21.828125 26.02734375 C-24.6015625 23.51171875 -24.6015625 23.51171875 -25.08105469 21.31445312 C-25.19326901 18.60689663 -25.12435221 15.96740721 -24.9765625 13.26171875 C-24.94949219 12.32585937 -24.92242187 11.39 -24.89453125 10.42578125 C-24.82390773 8.11874635 -24.72536829 5.81641106 -24.6015625 3.51171875 C-22.01367188 5.02539062 -22.01367188 5.02539062 -19.42578125 6.5390625 C-17.46336695 7.65073122 -17.46336695 7.65073122 -14.6015625 8.51171875 C-11.98191583 6.65706862 -9.57665424 4.69013412 -7.16015625 2.58398438 C-3.24228594 -0.60853715 -3.24228594 -0.60853715 0 0 Z " fill="#FDFCFC" transform="translate(195.6015625,427.48828125)"/>
<path d="M0 0 C3.79840345 2.09299782 7.24169241 4.16091809 10.625 6.875 C11.73875 7.57625 12.8525 8.2775 14 9 C17.91264611 7.96000978 20.69103882 5.89080453 23.8125 3.375 C24.60269531 2.74335938 25.39289063 2.11171875 26.20703125 1.4609375 C26.79871094 0.97882813 27.39039063 0.49671875 28 0 C28.57234375 0.29003906 29.1446875 0.58007812 29.734375 0.87890625 C31.95129482 2.01609655 31.95129482 2.01609655 34.140625 2.83984375 C36.95262305 4.30312422 38.25116719 5.3059647 40 8 C41.0554574 14.25144568 40.44824142 20.71216901 40 27 C36.03520428 25.52069807 33.22411767 23.76352943 30 21 C26.10993227 22.38780795 23.03441292 24.2152227 19.6875 26.625 C18.80449219 27.25664062 17.92148437 27.88828125 17.01171875 28.5390625 C16.34785156 29.02117187 15.68398438 29.50328125 15 30 C13.58235006 29.06398754 12.16592432 28.1261208 10.75 27.1875 C9.96109375 26.66542969 9.1721875 26.14335937 8.359375 25.60546875 C6 24 6 24 4.015625 22.17578125 C2.01980347 20.69947199 2.01980347 20.69947199 -0.41796875 21.5859375 C-3.19619649 23.107448 -5.74183248 24.77411938 -8.3125 26.625 C-9.19550781 27.25664062 -10.07851563 27.88828125 -10.98828125 28.5390625 C-11.65214844 29.02117187 -12.31601562 29.50328125 -13 30 C-17 27.33333333 -21 24.66666667 -25 22 C-25.34057617 20.02880859 -25.34057617 20.02880859 -25.29296875 17.6484375 C-25.28330078 16.79765625 -25.27363281 15.946875 -25.26367188 15.0703125 C-25.23853516 14.18085938 -25.21339844 13.29140625 -25.1875 12.375 C-25.17396484 11.4778125 -25.16042969 10.580625 -25.14648438 9.65625 C-25.11106925 7.43690211 -25.06168461 5.21874812 -25 3 C-21.87431264 4.16157301 -19.70482968 5.22137774 -17 7.25 C-16.01 7.8275 -15.02 8.405 -14 9 C-10.09657681 7.91394117 -7.31433747 5.89513767 -4.1875 3.375 C-3.39730469 2.74335938 -2.60710937 2.11171875 -1.79296875 1.4609375 C-1.20128906 0.97882813 -0.60960937 0.49671875 0 0 Z " fill="#FEFDFC" transform="translate(301,427)"/>
<path d="M0 0 C0.79075928 0.00523682 1.58151855 0.01047363 2.39624023 0.01586914 C3.67724609 0.02070313 3.67724609 0.02070313 4.98413086 0.02563477 C5.88196289 0.03401367 6.77979492 0.04239258 7.70483398 0.05102539 C8.6065332 0.05553711 9.50823242 0.06004883 10.43725586 0.06469727 C12.67234712 0.07652315 14.90730835 0.09300319 17.14233398 0.11352539 C15.8298686 3.55446725 14.47644531 6.24893422 12.14233398 9.11352539 C13.69074973 12.4606059 15.63339262 15.36020051 17.76733398 18.36352539 C18.39897461 19.25555664 19.03061523 20.14758789 19.68139648 21.06665039 C20.16350586 21.74211914 20.64561523 22.41758789 21.14233398 23.11352539 C19.59391823 26.4606059 17.65127535 29.36020051 15.51733398 32.36352539 C14.88569336 33.25555664 14.25405273 34.14758789 13.60327148 35.06665039 C13.12116211 35.74211914 12.63905273 36.41758789 12.14233398 37.11352539 C13.69074973 40.4606059 15.63339262 43.36020051 17.76733398 46.36352539 C18.39897461 47.25555664 19.03061523 48.14758789 19.68139648 49.06665039 C20.16350586 49.74211914 20.64561523 50.41758789 21.14233398 51.11352539 C20.86260742 51.66524414 20.58288086 52.21696289 20.29467773 52.78540039 C19.49894533 54.39304958 18.7650858 56.0322848 18.08374023 57.69165039 C16.38744128 60.97852995 15.11409386 62.85937799 12.14233398 65.11352539 C5.92128533 66.41050294 -0.58222264 65.67775107 -6.85766602 65.11352539 C-5.37232536 61.04801552 -3.5020828 58.17558868 -0.78344727 54.85961914 C0.30541395 53.16879628 0.30541395 53.16879628 0.04077148 51.25805664 C-1.20519587 48.28398673 -2.9879332 45.93983581 -4.92016602 43.36352539 C-5.65364258 42.37868164 -6.38711914 41.39383789 -7.14282227 40.37915039 C-7.7087207 39.63149414 -8.27461914 38.88383789 -8.85766602 38.11352539 C-7.92165355 36.69587545 -6.98378682 35.27944971 -6.04516602 33.86352539 C-5.5230957 33.07461914 -5.00102539 32.28571289 -4.46313477 31.47290039 C-2.85766602 29.11352539 -2.85766602 29.11352539 -1.09594727 27.06665039 C0.32307817 25.23251728 0.32307817 25.23251728 0.08374023 23.22290039 C-1.22196267 20.29725904 -2.99969773 17.92414977 -4.92016602 15.36352539 C-5.65364258 14.37868164 -6.38711914 13.39383789 -7.14282227 12.37915039 C-7.99166992 11.25766602 -7.99166992 11.25766602 -8.85766602 10.11352539 C-7.87990534 8.63342896 -6.90041662 7.15447395 -5.92016602 5.67602539 C-5.37489258 4.85231445 -4.82961914 4.02860352 -4.26782227 3.17993164 C-2.18906708 0.13377792 -2.18906708 0.13377792 0 0 Z " fill="#FDFDFC" transform="translate(393.857666015625,215.886474609375)"/>
<path d="M0 0 C0.79075928 0.00523682 1.58151855 0.01047363 2.39624023 0.01586914 C3.67724609 0.02070313 3.67724609 0.02070313 4.98413086 0.02563477 C5.88196289 0.03401367 6.77979492 0.04239258 7.70483398 0.05102539 C8.6065332 0.05553711 9.50823242 0.06004883 10.43725586 0.06469727 C12.67234712 0.07652315 14.90730835 0.09300319 17.14233398 0.11352539 C16.05880688 2.38467391 15.08786698 4.17807887 13.45483398 6.11352539 C11.94329633 7.96361867 11.94329633 7.96361867 12.30639648 9.87915039 C13.45496471 12.94915518 15.24164397 15.2459387 17.20483398 17.86352539 C17.93831055 18.84836914 18.67178711 19.83321289 19.42749023 20.84790039 C19.99338867 21.59555664 20.55928711 22.34321289 21.14233398 23.11352539 C19.1154054 26.86709685 17.213581 30.15145811 14.32983398 33.30102539 C11.92044287 35.76015458 11.92044287 35.76015458 12.25170898 37.92993164 C13.47715992 40.93443635 15.26054456 43.27113949 17.20483398 45.86352539 C17.93831055 46.84836914 18.67178711 47.83321289 19.42749023 48.84790039 C19.99338867 49.59555664 20.55928711 50.34321289 21.14233398 51.11352539 C20.251616 52.7921862 19.34367663 54.46349871 18.36108398 56.09008789 C17.11942443 58.07872218 17.11942443 58.07872218 16.17358398 60.13696289 C14.66962908 62.62661796 13.72492218 63.69563383 11.14233398 65.11352539 C5.19308024 65.99362633 -0.88345671 65.50804865 -6.85766602 65.11352539 C-5.37232536 61.04801552 -3.5020828 58.17558868 -0.78344727 54.85961914 C0.30541395 53.16879628 0.30541395 53.16879628 0.04077148 51.25805664 C-1.20519587 48.28398673 -2.9879332 45.93983581 -4.92016602 43.36352539 C-5.65364258 42.37868164 -6.38711914 41.39383789 -7.14282227 40.37915039 C-7.7087207 39.63149414 -8.27461914 38.88383789 -8.85766602 38.11352539 C-7.92165355 36.69587545 -6.98378682 35.27944971 -6.04516602 33.86352539 C-5.5230957 33.07461914 -5.00102539 32.28571289 -4.46313477 31.47290039 C-2.85766602 29.11352539 -2.85766602 29.11352539 -1.09594727 27.06665039 C0.32307817 25.23251728 0.32307817 25.23251728 0.08374023 23.22290039 C-1.22196267 20.29725904 -2.99969773 17.92414977 -4.92016602 15.36352539 C-5.65364258 14.37868164 -6.38711914 13.39383789 -7.14282227 12.37915039 C-7.99166992 11.25766602 -7.99166992 11.25766602 -8.85766602 10.11352539 C-7.87990534 8.63342896 -6.90041662 7.15447395 -5.92016602 5.67602539 C-5.37489258 4.85231445 -4.82961914 4.02860352 -4.26782227 3.17993164 C-2.18906708 0.13377792 -2.18906708 0.13377792 0 0 Z " fill="#FEFDFC" transform="translate(109.857666015625,215.886474609375)"/>
<path d="M0 0 C0.99 0.33 1.98 0.66 3 1 C3.00410889 1.69448242 3.00821777 2.38896484 3.01245117 3.10449219 C3.1958785 20.7898214 3.33058031 32.96618899 16.20703125 46.13671875 C18 48 18 48 18 49 C1.56393957 49.77957599 1.56393957 49.77957599 -6 45 C-7.04414063 44.36384766 -7.04414063 44.36384766 -8.109375 43.71484375 C-15.14215832 38.96903696 -19.93330613 32.24763944 -22 24 C-22.22788295 20.53646671 -22.18933235 17.09399841 -22.125 13.625 C-22.11597656 12.69816406 -22.10695312 11.77132813 -22.09765625 10.81640625 C-22.07422937 8.54399923 -22.04142748 6.2721382 -22 4 C-19.69259507 5.09373872 -17.97245555 6.02487886 -16.0625 7.75 C-15.381875 8.1625 -14.70125 8.575 -14 9 C-9.12974325 7.56087572 -5.88561091 4.59883933 -2.0859375 1.36328125 C-1.39757812 0.91339844 -0.70921875 0.46351563 0 0 Z " fill="#AA8A64" transform="translate(193,447)"/>
<path d="M0 0 C-2.97 4.95 -2.97 4.95 -6 10 C-5.00806641 11.22976562 -5.00806641 11.22976562 -3.99609375 12.484375 C-3.14256194 13.57239357 -2.28973371 14.66096435 -1.4375 15.75 C-0.99986328 16.28882813 -0.56222656 16.82765625 -0.11132812 17.3828125 C2.9905914 21.38844086 2.9905914 21.38844086 3.03125 24.03125 C1.57549489 26.81041885 -0.18049643 29.24066191 -2.0625 31.75 C-2.79597656 32.73484375 -3.52945313 33.7196875 -4.28515625 34.734375 C-5.13400391 35.85585937 -5.13400391 35.85585937 -6 37 C-3.97307141 40.75357146 -2.07124702 44.03793272 0.8125 47.1875 C3 50 3 50 2.859375 51.84765625 C1.74778641 54.6316804 0.19364891 56.8233215 -1.5625 59.25 C-2.20316406 60.14203125 -2.84382813 61.0340625 -3.50390625 61.953125 C-3.99761719 62.62859375 -4.49132812 63.3040625 -5 64 C-12.92565413 59.59537127 -16.83896492 52.58987695 -20.0859375 44.2734375 C-22.73643823 34.78147334 -21.59430606 24.11818695 -18 15 C-15.95801341 11.39501133 -13.63283378 8.1932596 -11 5 C-10.55269531 4.42894531 -10.10539062 3.85789063 -9.64453125 3.26953125 C-6.67570564 -0.16047116 -4.41189111 -0.51301059 0 0 Z " fill="#C69C6E" transform="translate(108,216)"/>
<path d="M0 0 C3.94322151 2.05515358 6.4302283 4.11037878 7.96875 8.2734375 C8.50611349 12.85994844 8.55738681 16.8483168 6.78125 21.1484375 C2.94369584 25.64763893 -0.39430146 28.02466877 -6.34375 28.5859375 C-11.41642063 28.15605016 -14.07811239 25.95717682 -17.84375 22.7109375 C-20.68736345 19.26866859 -20.36186314 15.0141396 -20.3125 10.78125 C-19.78060905 6.03855566 -17.34816405 3.40222097 -13.84375 0.3984375 C-9.23944071 -1.44328621 -4.71308238 -1.68583331 0 0 Z " fill="#FBEC22" transform="translate(262.03125,294.7265625)"/>
<path d="M0 0 C3.17387864 2.14052281 4.84820787 3.41688375 6.6875 6.8125 C7.48589985 12.14874392 7.35689689 16.42412126 5 21.3125 C0.94904219 25.69191385 -1.79775031 27.0060156 -7.75 27.3125 C-11.49526761 27.21154939 -13.91785952 26.9223855 -16.875 24.5625 C-21.22718328 19.65234451 -21.8115298 15.98256337 -21.69921875 9.51171875 C-21.08527065 5.22648505 -19.52695287 3.66167413 -16.3125 0.8125 C-11.08412975 -2.30730941 -5.61517486 -2.01298721 0 0 Z " fill="#FBEC21" transform="translate(263.3125,243.1875)"/>
<path d="M0 0 C0.99 0.33 1.98 0.66 3 1 C3 7.6 3 14.2 3 21 C1.68 21.33 0.36 21.66 -1 22 C-2.95809166 23.29354379 -4.87257564 24.65443173 -6.75 26.0625 C-7.73484375 26.79597656 -8.7196875 27.52945312 -9.734375 28.28515625 C-10.85585937 29.13400391 -10.85585937 29.13400391 -12 30 C-13.35350594 29.37530495 -14.6808418 28.69429379 -16 28 C-17.06476563 27.51015625 -18.12953125 27.0203125 -19.2265625 26.515625 C-22 24 -22 24 -22.47949219 21.80273438 C-22.59170651 19.09517788 -22.52278971 16.45568846 -22.375 13.75 C-22.34792969 12.81414062 -22.32085937 11.87828125 -22.29296875 10.9140625 C-22.22234523 8.6070276 -22.12380579 6.30469231 -22 4 C-19.41210938 5.51367188 -19.41210938 5.51367188 -16.82421875 7.02734375 C-14.86180445 8.13901247 -14.86180445 8.13901247 -12 9 C-9.88211816 7.56454675 -7.96162992 6.12521513 -6 4.5 C-4.03837008 2.87478487 -2.11788184 1.43545325 0 0 Z " fill="#D8D8D7" transform="translate(193,427)"/>
<path d="M0 0 C3.22206103 1.64712285 5.2815617 3.98765512 7.375 6.9375 C8.25688519 9.84772112 8.36405994 11.96616714 8 15 C5.86199129 18.89423016 3.76766669 21.65114833 0 24 C-4.77153538 24.86120395 -8.79427124 24.70334178 -13 22.25 C-16.72489143 18.05949714 -17.44181007 14.6871557 -17.32421875 9.1875 C-16.83827138 5.90881896 -15.37037765 4.2349275 -13 2 C-8.75091594 -0.83272271 -4.98854595 -0.76806539 0 0 Z " fill="#FDFCFC" transform="translate(299,82)"/>
<path d="M0 0 C3.39488422 2.05107588 4.80323081 3.70484621 7 7 C7.77286121 11.7180481 7.42364132 15.19654232 5.1875 19.4375 C2.90277746 22.11388926 1.2738156 23.7917169 -2.26953125 24.37109375 C-9.98271423 24.57251327 -9.98271423 24.57251327 -13.5 21.75 C-16.5835382 18.35810798 -17.78565335 16.64332434 -18.375 12.125 C-17.81399594 7.44996619 -15.63336228 4.46967779 -12.16796875 1.3515625 C-8.36021932 -1.02227768 -4.33223952 -0.64597413 0 0 Z " fill="#FDFCFC" transform="translate(223,82)"/>
</svg>
