<?xml version="1.0" encoding="UTF-8"?>
<svg version="1.1" xmlns="http://www.w3.org/2000/svg" width="512" height="512">
<path d="M0 0 C3.71210793 3.53945175 6.69704829 7.40551433 9.6875 11.5625 C10.6775 12.91794922 10.6775 12.91794922 11.6875 14.30078125 C16.6875 21.26650706 16.6875 21.26650706 16.6875 23.5625 C17.23535156 23.64886719 17.78320312 23.73523438 18.34765625 23.82421875 C23.85884435 24.80099843 29.17577085 26.22028085 34.5 27.9375 C36.36591797 28.53691406 36.36591797 28.53691406 38.26953125 29.1484375 C43.67859922 31.38624619 47.16189225 34.25872372 49.6875 39.5625 C51.24898693 44.84753269 50.44131332 49.43827896 48.6875 54.5625 C46.94830013 57.57733803 44.87650434 60.2373838 42.6875 62.9375 C41.60390423 64.32010686 40.5205607 65.70291146 39.4375 67.0859375 C38.95796875 67.68325684 38.4784375 68.28057617 37.984375 68.89599609 C31.44317346 77.30153858 32.21902224 92.16801139 33.33984375 102.55523682 C34.93925537 111.78976103 41.29179254 119.81717638 46.50732422 127.34570312 C50.17362105 132.75523582 53.40005465 138.41791137 56.6875 144.0625 C58.02707073 146.31994583 59.36821466 148.57645887 60.7109375 150.83203125 C65.25648626 158.50306115 69.71161012 166.22506503 74.1550293 173.95556641 C79.16021672 182.66215292 84.21503296 191.33895594 89.29736328 200.00073242 C89.84505371 200.9363501 90.39274414 201.87196777 90.95703125 202.8359375 C91.67789917 204.06449463 91.67789917 204.06449463 92.41333008 205.31787109 C95.76885867 211.22910502 96.62614906 215.72100636 95.6875 222.5625 C93.89244017 226.83828628 91.47168283 229.07630665 87.5625 231.5 C84.6875 232.5625 84.6875 232.5625 81.6875 232.5625 C93.02444967 252.25475761 104.43101739 271.90506533 115.92868042 291.50402832 C117.73413717 294.58172061 119.53737749 297.66066221 121.33544922 300.74267578 C124.78837256 306.65588713 128.27271504 312.54390133 131.84375 318.38671875 C132.81731445 319.99933594 132.81731445 319.99933594 133.81054688 321.64453125 C135.02090631 323.64710306 136.24519977 325.64135078 137.48632812 327.625 C140.99467056 333.47084353 143.11718873 338.63830822 142.6875 345.5625 C141.27524019 350.46121271 139.39248665 353.47281264 134.9375 356.0625 C133.865 356.5575 132.7925 357.0525 131.6875 357.5625 C133.04767903 361.176922 134.66711926 364.44862993 136.6015625 367.7890625 C137.189375 368.80677734 137.7771875 369.82449219 138.3828125 370.87304688 C139.01960938 371.96681641 139.65640625 373.06058594 140.3125 374.1875 C140.98451541 375.34692384 141.65638766 376.50643066 142.328125 377.66601562 C147.72362817 386.96521736 153.20711812 396.21185077 158.70361328 405.45166016 C163.89171525 414.18481847 168.97777443 422.9733476 174.03637695 431.78198242 C178.25104367 439.10767234 182.53141083 446.39192608 186.85302734 453.65478516 C188.5261107 456.47096894 190.18958929 459.29283187 191.85546875 462.11328125 C194.32022477 466.28091438 196.82387228 470.42046244 199.36328125 474.54296875 C200.47183135 476.38252502 201.57993116 478.22235276 202.6875 480.0625 C203.19821045 480.86792236 203.7089209 481.67334473 204.23510742 482.50317383 C207.79278922 488.49430247 208.56186177 493.63712476 207.6875 500.5625 C206.09040501 504.31567323 203.75103956 506.88190288 200.6875 509.5625 C197.21787681 510.71904106 194.52904533 510.69028674 190.86673164 510.69392776 C189.81530626 510.69700672 189.81530626 510.69700672 188.74263996 510.70014787 C186.37618959 510.70583611 184.00979709 510.70435838 181.64334106 510.70294189 C179.93664733 510.70552448 178.22995419 510.70853734 176.5232619 510.7119453 C171.81943844 510.72003096 167.11563022 510.72180573 162.41180062 510.72254276 C157.34422154 510.72439057 152.27665042 510.73193647 147.20907593 510.73867798 C136.12249565 510.75227239 125.03591899 510.75828759 113.94933176 510.76268864 C107.03095707 510.76544888 100.11258379 510.7696858 93.19421005 510.77419281 C74.05063273 510.78638635 54.90705654 510.79668587 35.76347542 510.8000679 C33.92488359 510.80039725 33.92488359 510.80039725 32.04914849 510.80073325 C30.82044162 510.80095153 29.59173475 510.80116981 28.32579434 510.8013947 C25.83584857 510.80183817 23.3459028 510.80228474 20.85595703 510.80273438 C19.62085057 510.8029558 18.38574411 510.80317723 17.11321019 510.80340537 C-2.9100705 510.8073553 -22.93331483 510.82481486 -42.95658146 510.8480939 C-63.49919746 510.87178459 -84.0417952 510.88426869 -104.58442509 510.88543582 C-116.124448 510.8863538 -127.66442355 510.8921372 -139.20443344 510.91025543 C-149.02891514 510.92562558 -158.85333484 510.93079514 -168.67782627 510.92251733 C-173.6930732 510.91860001 -178.70819513 510.91959301 -183.72342682 510.93357468 C-188.31145737 510.94624878 -192.89926818 510.94517358 -197.48729815 510.93298396 C-199.15014181 510.93101566 -200.81300069 510.93415725 -202.47582291 510.94282833 C-204.73083452 510.95384621 -206.98506031 510.94648655 -209.24004936 510.9344368 C-210.49415828 510.93503389 -211.74826719 510.93563097 -213.04037941 510.93624616 C-217.89790348 510.38141301 -220.3809302 508.62345449 -223.5625 505 C-227.12773943 500.0341308 -227.1869018 495.55105015 -226.3125 489.5625 C-224.45134119 484.94752627 -221.91595208 480.78755355 -219.3125 476.5625 C-218.58183121 475.3367785 -217.85343933 474.10969717 -217.12719727 472.88134766 C-215.62267664 470.34546411 -214.10492811 467.81830861 -212.57470703 465.29785156 C-209.75296361 460.64855723 -206.99186004 455.96432756 -204.2265625 451.28125 C-202.23988534 447.92038904 -200.24326915 444.56556805 -198.24609375 441.2109375 C-194.37741384 434.69416192 -190.58663427 428.13436573 -186.8125 421.5625 C-181.66744076 412.60766789 -176.45884132 403.69337209 -171.1875 394.8125 C-170.5275 393.70011963 -169.8675 392.58773926 -169.1875 391.44165039 C-165.93829116 385.97024919 -162.68037709 380.50417405 -159.4140625 375.04296875 C-158.50164795 373.5120459 -158.50164795 373.5120459 -157.57080078 371.95019531 C-156.42444205 370.02675753 -155.27454331 368.10542383 -154.12060547 366.18652344 C-153.61674316 365.33993164 -153.11288086 364.49333984 -152.59375 363.62109375 C-152.15095703 362.88173584 -151.70816406 362.14237793 -151.25195312 361.38061523 C-150.15948128 359.60744566 -150.15948128 359.60744566 -150.3125 357.5625 C-151.92125 356.82 -151.92125 356.82 -153.5625 356.0625 C-158.02050522 353.47105794 -159.89382676 350.46119703 -161.3125 345.5625 C-161.91920105 337.02223481 -158.1466923 330.80647239 -153.8125 323.75 C-152.79205903 322.0368041 -151.77164128 320.32359407 -150.75230408 318.60974121 C-149.67821011 316.80991894 -148.59606013 315.015151 -147.51220703 313.22119141 C-145.32000801 309.58574307 -143.16821459 305.92757712 -141.02734375 302.26171875 C-140.49843788 301.35614731 -140.49843788 301.35614731 -139.95884705 300.43228149 C-139.24627555 299.21191318 -138.53380707 297.99148471 -137.82144165 296.77099609 C-136.03437764 293.71289688 -134.2395082 290.65938724 -132.4453125 287.60546875 C-126.96803308 278.27821356 -121.52201232 268.93275354 -116.07568359 259.58740234 C-112.86444649 254.07823208 -109.65079046 248.57047278 -106.4375 243.0625 C-105.2525945 241.03125564 -104.06769772 239.00000619 -102.8828125 236.96875 C-102.02604167 235.5 -101.16927083 234.03125 -100.3125 232.5625 C-101.07304687 232.43359375 -101.83359375 232.3046875 -102.6171875 232.171875 C-107.06454677 231.16638508 -110.14824646 228.84317889 -113.1875 225.5 C-115.18049152 220.29607769 -115.29734143 214.44339401 -113.48632812 209.14575195 C-112.30429616 206.76806895 -111.00913464 204.51593014 -109.625 202.25 C-109.13169189 201.39954102 -108.63838379 200.54908203 -108.13012695 199.67285156 C-106.5466574 196.95549983 -104.93096015 194.25912741 -103.3125 191.5625 C-102.26623679 189.78372249 -101.22195983 188.00377516 -100.1796875 186.22265625 C-98.03094323 182.56002397 -95.86848478 178.90600156 -93.6953125 175.2578125 C-90.22127713 169.42070722 -86.79362165 163.55719087 -83.375 157.6875 C-82.7967749 156.69516357 -82.2185498 155.70282715 -81.62280273 154.68041992 C-80.44706075 152.66222871 -79.27152458 150.64391759 -78.09619141 148.62548828 C-75.68341672 144.48222642 -73.26945186 140.3396614 -70.85351562 136.19824219 C-69.67163239 134.17022335 -68.49189794 132.14095052 -67.31445312 130.11035156 C-64.65619834 125.53359632 -61.97200151 120.98230181 -59.17578125 116.48828125 C-58.46180176 115.32607056 -58.46180176 115.32607056 -57.73339844 114.14038086 C-56.85888734 112.72220803 -55.97115843 111.31205829 -55.06738281 109.91235352 C-52.38331093 105.53120073 -52.24823119 103.48035754 -53.3125 98.5625 C-53.24430097 96.71814565 -53.1308435 94.87525681 -52.98828125 93.03515625 C-51.84270847 79.12894925 -51.84270847 79.12894925 -57.40698242 66.84350586 C-59.47412471 64.54163425 -61.65522379 62.37781786 -63.85913086 60.20800781 C-68.13638376 55.36529245 -69.96850381 50.03973281 -69.62890625 43.6640625 C-68.84196988 38.43725058 -66.34579339 35.07009688 -62.30615234 31.77636719 C-59.05255753 29.79536383 -55.52355827 29.08228467 -51.85864258 28.1418457 C-40.49817407 25.17075389 -33.86452013 21.86562479 -27.80029297 11.64160156 C-27.00877697 10.24256928 -26.22418104 8.83959109 -25.44775391 7.43212891 C-19.8124132 -1.84861069 -9.82920366 -4.26550348 0 0 Z " fill="#626052" transform="translate(265.3125,1.4375)"/>
<path d="M0 0 C0.72570596 -0.0134968 1.45141191 -0.0269936 2.19910896 -0.0408994 C3.45475393 -0.07483542 3.45475393 -0.07483542 4.73576546 -0.10945702 C6.12307029 -0.12397508 6.12307029 -0.12397508 7.53840148 -0.13878644 C8.51704095 -0.16039999 9.49568042 -0.18201354 10.50397563 -0.20428205 C13.80464219 -0.27279506 17.10524048 -0.31926751 20.40629089 -0.36537945 C22.76484884 -0.40870889 25.12338963 -0.45298158 27.48191345 -0.49813092 C49.05603559 -0.88966508 70.63519459 -1.08742902 92.21221626 -1.24165928 C95.1027569 -1.26268496 97.99329462 -1.28406593 100.88382995 -1.30580914 C101.96143116 -1.31388796 101.96143116 -1.31388796 103.06080209 -1.32212998 C114.67229446 -1.41213534 126.27968555 -1.60622941 137.88903762 -1.8418685 C149.82202296 -2.08205942 161.75289569 -2.21881136 173.68825221 -2.25873685 C180.38582692 -2.28388273 187.0750425 -2.35751984 193.77033889 -2.5427438 C235.67194161 -3.65145929 235.67194161 -3.65145929 243.94934356 2.97778308 C249.8238108 8.78798764 252.59209615 16.07871306 254.99097335 23.8691138 C257.0697298 29.85566384 260.41409572 35.01327444 263.71830261 40.40366352 C264.96375926 42.55652641 266.20403963 44.71239965 267.43705261 46.87241352 C271.30843058 53.58280201 275.25733826 60.24587238 279.21830261 66.90366352 C285.07674681 76.75083569 290.84328331 86.64596998 296.54300964 96.58579242 C299.87530416 102.38435643 303.24734746 108.15586439 306.67924011 113.89585102 C307.04934204 114.51574909 307.41944396 115.13564716 307.8007611 115.77433002 C309.59528525 118.77861249 311.39539517 121.77931167 313.20463073 124.77475727 C313.84593933 125.8459682 314.48724792 126.91717914 315.14799011 128.02085102 C315.7175946 128.9655727 316.28719909 129.91029438 316.87406433 130.88364398 C318.21830261 133.40366352 318.21830261 133.40366352 319.21830261 137.40366352 C187.21830261 137.40366352 55.21830261 137.40366352 -80.78169739 137.40366352 C-79.40716293 133.28006012 -78.47466127 130.56077919 -76.34029114 127.02475727 C-75.84794983 126.20120746 -75.35560853 125.37765766 -74.84834778 124.5291518 C-74.04191834 123.1985976 -74.04191834 123.1985976 -73.21919739 121.84116352 C-72.03882878 119.86891475 -70.85917827 117.89623607 -69.68013489 115.92319477 C-69.04946106 114.87083637 -68.41878724 113.81847797 -67.76900208 112.73422992 C-64.62573339 107.46635873 -61.52590993 102.17322346 -58.42723572 96.87903583 C-57.33624774 95.01508153 -56.24447929 93.15158624 -55.152547 91.288185 C-50.12054454 82.69932813 -45.10274519 74.10223059 -40.09053528 65.50180805 C-35.14267402 57.0147293 -30.1750091 48.53934161 -25.20354187 40.06607807 C-21.34730973 33.49348628 -17.49523977 26.91857149 -13.66060364 20.33335102 C-13.01607239 19.22669086 -12.37154114 18.1200307 -11.70747864 16.97983539 C-10.4943815 14.89569889 -9.28209955 12.81108761 -8.07075989 10.72592914 C-7.2644513 9.34050922 -7.2644513 9.34050922 -6.44185364 7.92710102 C-5.97400452 7.12192035 -5.5061554 6.31673969 -5.02412903 5.48715961 C-2.02570128 0.45894533 -2.02570128 0.45894533 0 0 Z " fill="#00997C" transform="translate(136.78169739246368,358.5963364839554)"/>
<path d="M0 0 C1.18462326 -0.02016174 2.36924652 -0.04032349 3.58976746 -0.06109619 C5.55722931 -0.08633865 5.55722931 -0.08633865 7.56443787 -0.11209106 C8.95060608 -0.13307717 10.33677038 -0.1543235 11.72293091 -0.17581177 C24.39910274 -0.36385624 37.07659118 -0.46643668 49.75384617 -0.54795647 C59.12529187 -0.60950199 68.4943329 -0.71294753 77.86466271 -0.87065113 C84.45238265 -0.97779196 91.03944178 -1.03501573 97.62799209 -1.05608761 C101.56323434 -1.07014997 105.49533158 -1.1064896 109.42961311 -1.19732285 C113.13672191 -1.28202385 116.83918562 -1.30470767 120.54713631 -1.28096008 C122.54761596 -1.2838678 124.5476806 -1.35123885 126.54695129 -1.4208374 C130.29661485 -1.36069956 133.0490687 -1.16869616 136.54270935 0.20773315 C140.1366805 4.18466922 142.24060546 8.36044893 144.54270935 13.20773315 C145.72771226 15.27864679 146.927106 17.34147372 148.1481781 19.3913269 C149.34376059 21.4750611 150.53773083 23.55972107 151.73020935 25.64523315 C156.47319324 33.90384204 161.24745908 42.1410715 166.10520935 50.33273315 C171.76515442 59.87890811 177.36945991 69.45645537 182.9528656 79.0475769 C185.47379536 83.3776527 188.00369033 87.70235234 190.5388031 92.0241394 C191.18792664 93.13224976 191.83705017 94.24036011 192.50584412 95.38204956 C193.76116321 97.52463607 195.01811038 99.6662697 196.27684021 101.80685425 C196.8363739 102.76285522 197.39590759 103.7188562 197.97239685 104.7038269 C198.46981384 105.55130493 198.96723083 106.39878296 199.47972107 107.27194214 C200.54270935 109.20773315 200.54270935 109.20773315 200.54270935 110.20773315 C111.44270935 110.20773315 22.34270935 110.20773315 -69.45729065 110.20773315 C-63.83820133 98.96955452 -63.83820133 98.96955452 -60.99635315 94.23898315 C-60.36793518 93.18710815 -59.73951721 92.13523315 -59.09205627 91.05148315 C-58.42883362 89.94804565 -57.76561096 88.84460815 -57.08229065 87.70773315 C-55.64494666 85.30293968 -54.21087413 82.89620599 -52.77760315 80.48898315 C-52.23399139 79.5765686 -52.23399139 79.5765686 -51.67939758 78.64572144 C-48.04474882 72.53455563 -44.49604071 66.3748514 -40.95729065 60.20773315 C-35.12084637 50.04533554 -29.1806244 39.94966439 -23.18946838 29.87814331 C-18.61284461 22.17880028 -14.09319219 14.4492059 -9.64186096 6.67672729 C-5.85864985 0.09028454 -5.85864985 0.09028454 0 0 Z " fill="#00B393" transform="translate(190.45729064941406,232.79226684570313)"/>
<path d="M0 0 C3.70785646 1.36534787 6.65340984 2.22805135 10.6171875 2.2421875 C14.9835802 3.30043746 15.27065458 3.71769776 17.515625 7.3515625 C18.52205312 9.23568955 19.49928088 11.13558912 20.453125 13.046875 C21.57730799 15.16458009 22.70506319 17.28039182 23.8359375 19.39453125 C24.71620605 21.06346436 24.71620605 21.06346436 25.61425781 22.76611328 C28.67876928 28.44188796 32.00878185 33.95508194 35.328125 39.484375 C41.23284812 49.38820605 47.03579639 59.34607555 52.77514648 69.34667969 C58.26365594 78.89051895 63.87527386 88.35901058 69.52734375 97.80664062 C70.171875 98.88751953 70.81640625 99.96839844 71.48046875 101.08203125 C72.05531006 102.04246338 72.63015137 103.00289551 73.22241211 103.99243164 C74.453125 106.171875 74.453125 106.171875 74.453125 107.171875 C15.713125 107.171875 -43.026875 107.171875 -103.546875 107.171875 C-96.78804664 94.78068967 -96.78804664 94.78068967 -94.27734375 90.4296875 C-93.70749756 89.44145996 -93.13765137 88.45323242 -92.55053711 87.43505859 C-91.65153687 85.88165771 -91.65153687 85.88165771 -90.734375 84.296875 C-90.09056885 83.1826416 -89.4467627 82.0684082 -88.78344727 80.92041016 C-82.12222679 69.40259783 -75.38432483 57.92976643 -68.64752197 46.45606995 C-65.68627797 41.41169957 -62.73043596 36.36419789 -59.78295898 31.31176758 C-58.60241256 29.29184256 -57.4171754 27.27465027 -56.22680664 25.26049805 C-53.79021995 21.12238236 -51.4143457 17.00483075 -49.32421875 12.6796875 C-45.03417135 3.92549759 -45.03417135 3.92549759 -40.92578125 1.84375 C-37.984375 1.109375 -37.984375 1.109375 -34.91015625 0.68359375 C-30.92876759 0.07783078 -27.43381566 -1.1838328 -23.671875 -2.578125 C-14.59354026 -5.93190471 -8.58928589 -3.27505145 0 0 Z " fill="#00987B" transform="translate(270.546875,110.828125)"/>
<path d="M0 0 C1.98684692 -0.36076355 1.98684692 -0.36076355 4.44970703 -0.34057617 C5.83091232 -0.34023628 5.83091232 -0.34023628 7.24002075 -0.33988953 C8.73382767 -0.31666374 8.73382767 -0.31666374 10.2578125 -0.29296875 C11.27600067 -0.28872391 12.29418884 -0.28447906 13.3432312 -0.28010559 C16.60408673 -0.26327579 19.86433041 -0.22561546 23.125 -0.1875 C25.33202234 -0.17245874 27.53905434 -0.15876937 29.74609375 -0.14648438 C35.16427223 -0.1133583 40.58209242 -0.06311653 46 0 C45.46890625 0.92723877 44.9378125 1.85447754 44.390625 2.80981445 C40.89443796 8.91816478 37.4124369 15.03187568 34 21.1875 C29.58947556 29.08096233 24.96307114 36.84488698 20.3397522 44.61483765 C14.5882863 54.28362927 8.90328214 63.98823689 3.32739258 73.75976562 C0.50320791 78.70407818 -2.35210595 83.60867514 -5.3828125 88.4296875 C-12.22851399 99.17687073 -12.22851399 99.17687073 -13.140625 111.67578125 C-13 114 -13 114 -14.6875 117.0625 C-18.62323689 120.36000929 -20.75071975 122 -26 122 C-26.66 123.65 -27.32 125.3 -28 127 C-29.65 130.3 -31.3 133.6 -33 137 C-48.18 137 -63.36 137 -79 137 C-77.62546553 132.8763966 -76.69296387 130.15711567 -74.55859375 126.62109375 C-74.06625244 125.79754395 -73.57391113 124.97399414 -73.06665039 124.12548828 C-72.26022095 122.79493408 -72.26022095 122.79493408 -71.4375 121.4375 C-70.25713138 119.46525123 -69.07748088 117.49257255 -67.8984375 115.51953125 C-67.26776367 114.46717285 -66.63708984 113.41481445 -65.98730469 112.33056641 C-62.844036 107.06269521 -59.74421254 101.76955995 -56.64553833 96.47537231 C-55.55455035 94.61141801 -54.4627819 92.74792273 -53.37084961 90.88452148 C-48.33884714 82.29566461 -43.32104779 73.69856707 -38.30883789 65.09814453 C-33.36097663 56.61106578 -28.39331171 48.13567809 -23.42184448 39.66241455 C-19.56561233 33.08982276 -15.71354238 26.51490798 -11.87890625 19.9296875 C-11.234375 18.82302734 -10.58984375 17.71636719 -9.92578125 16.57617188 C-8.71268411 14.49203538 -7.50040216 12.4074241 -6.2890625 10.32226562 C-5.48275391 8.9368457 -5.48275391 8.9368457 -4.66015625 7.5234375 C-4.19230713 6.71825684 -3.72445801 5.91307617 -3.24243164 5.08349609 C-2.21304887 3.35727236 -1.11486146 1.6722922 0 0 Z " fill="#0D876F" transform="translate(135,359)"/>
<path d="M0 0 C1.04623504 0.00092179 2.09247007 0.00184359 3.1704092 0.00279331 C4.36659374 0.00141865 5.56277828 0.00004398 6.79521084 -0.00137234 C8.13279653 0.00216726 9.47038198 0.00580208 10.80796719 0.00952244 C12.20711166 0.00980431 13.60625627 0.00964658 15.00540066 0.00907993 C18.81515014 0.00879195 22.62486841 0.01468885 26.43461061 0.02165389 C30.41179863 0.02788724 34.38898731 0.02849121 38.36617947 0.0296793 C45.90267094 0.03279267 53.43914798 0.04100614 60.97563308 0.05102879 C69.55348383 0.06218974 78.13133525 0.06770033 86.70919144 0.07272422 C104.35923101 0.08318875 122.00925712 0.1007883 139.65928555 0.12304783 C139.65928555 0.45304783 139.65928555 0.78304783 139.65928555 1.12304783 C138.45231518 1.07784 137.24534481 1.03263218 136.00179958 0.98605442 C124.57294278 0.57528688 113.14797907 0.30446832 101.71247673 0.16708279 C95.83326035 0.09204338 89.96340481 -0.03047378 84.08824062 -0.26562405 C59.52385902 -2.64938184 59.52385902 -2.64938184 37.14054775 4.56286716 C31.58243954 10.20801884 28.94785738 17.58874468 26.66248989 25.02545261 C25.35689281 29.05674621 23.5304294 32.11133736 21.22178555 35.65429783 C20.62446621 36.65670506 20.02714687 37.65911228 19.41172695 38.69189548 C18.83342129 39.65917576 18.25511562 40.62645603 17.65928555 41.62304783 C13.51440867 48.57524474 9.40101587 55.54061188 5.38584805 62.56836033 C5.03907009 63.17440098 4.69229214 63.78044163 4.33500576 64.40484715 C2.66757127 67.32057152 1.00663389 70.23955871 -0.64540195 73.16406345 C-1.23321445 74.19466892 -1.82102695 75.22527439 -2.42665195 76.28711033 C-2.94276035 77.19928318 -3.45886875 78.11145603 -3.9906168 79.05127048 C-5.34071445 81.12304783 -5.34071445 81.12304783 -7.34071445 82.12304783 C-7.71196445 81.35992283 -8.08321445 80.59679783 -8.46571445 79.81054783 C-10.77295945 76.50349667 -12.58254958 75.52314847 -16.34071445 74.12304783 C-20.38660156 73.53302263 -21.98589107 73.92516556 -25.59071445 75.93554783 C-28.48613684 78.00984446 -28.48613684 78.00984446 -30.34071445 81.12304783 C-30.67324606 86.19415482 -30.66101621 90.48244433 -28.34071445 95.12304783 C-24.64203423 97.34225596 -20.57821288 97.6245186 -16.34071445 98.12304783 C-17.94695954 102.54022182 -19.92503741 105.89561301 -22.34071445 110.12304783 C-36.86071445 110.12304783 -51.38071445 110.12304783 -66.34071445 110.12304783 C-60.72162514 98.88486919 -60.72162514 98.88486919 -57.87977695 94.15429783 C-57.25135899 93.10242283 -56.62294102 92.05054783 -55.97548008 90.96679783 C-55.31225742 89.86336033 -54.64903477 88.75992283 -53.96571445 87.62304783 C-52.52837046 85.21825436 -51.09429793 82.81152066 -49.66102695 80.40429783 C-49.1174152 79.49188328 -49.1174152 79.49188328 -48.56282139 78.56103611 C-44.92817262 72.4498703 -41.37946452 66.29016608 -37.84071445 60.12304783 C-32.00427018 49.96065021 -26.06404821 39.86497907 -20.07289219 29.79345798 C-15.49626841 22.09411495 -10.97661599 14.36452057 -6.52528477 6.59204197 C-2.8241322 0.14846037 -2.8241322 0.14846037 0 0 Z " fill="#0E9C83" transform="translate(187.34071445465088,232.87695217132568)"/>
<path d="M0 0 C-4.14594753 7.1340322 -8.32537694 14.24621845 -12.54418945 21.33740234 C-20.66139699 34.98193071 -28.64075081 48.70004501 -36.53637695 62.47412109 C-37.99908928 64.99842831 -39.49243693 67.50226569 -41 70 C-40.13375 69.9175 -39.2675 69.835 -38.375 69.75 C-33.25887297 70.12897237 -30.405406 72.41325129 -27.0625 76.1875 C-25.50540828 80.30921338 -25.74132045 83.79677314 -27 88 C-30.3708083 92.28183757 -33.45410143 94.60397133 -38.8125 95.4375 C-43.11701495 94.84668422 -45.82742515 92.90274245 -49 90 C-49.66 89.01 -50.32 88.02 -51 87 C-54.96 93.93 -58.92 100.86 -63 108 C-16.14 108 30.72 108 79 108 C79 108.33 79 108.66 79 109 C20.26 109 -38.48 109 -99 109 C-92.24117164 96.60881467 -92.24117164 96.60881467 -89.73046875 92.2578125 C-89.16062256 91.26958496 -88.59077637 90.28135742 -88.00366211 89.26318359 C-87.10466187 87.70978271 -87.10466187 87.70978271 -86.1875 86.125 C-85.54369385 85.0107666 -84.8998877 83.8965332 -84.23657227 82.74853516 C-77.57535179 71.23072283 -70.83744983 59.75789143 -64.10064697 48.28419495 C-61.13940297 43.23982457 -58.18356096 38.19232289 -55.23608398 33.13989258 C-54.05553756 31.11996756 -52.8703004 29.10277527 -51.67993164 27.08862305 C-49.24334495 22.95050736 -46.8674707 18.83295575 -44.77734375 14.5078125 C-40.48729635 5.75362259 -40.48729635 5.75362259 -36.37890625 3.671875 C-33.4375 2.9375 -33.4375 2.9375 -30.36328125 2.51171875 C-26.38189259 1.90595578 -22.88694066 0.6442922 -19.125 -0.75 C-11.62328797 -3.52133311 -7.38861623 -2.49745218 0 0 Z " fill="#0D8770" transform="translate(266,109)"/>
<path d="M0 0 C3.34895232 1.11631744 3.71939691 1.64302044 5.59375 4.45703125 C6.06683594 5.15763672 6.53992188 5.85824219 7.02734375 6.58007812 C7.75630859 7.68512695 7.75630859 7.68512695 8.5 8.8125 C9.46809999 10.25694628 10.43683158 11.70096949 11.40625 13.14453125 C11.85613281 13.82080566 12.30601562 14.49708008 12.76953125 15.19384766 C13.7452783 16.62610493 14.78427594 18.01523855 15.84375 19.38671875 C17 21 17 21 17 23 C17.53625 23.08636719 18.0725 23.17273438 18.625 23.26171875 C26.98223046 24.75997224 34.94186506 27.38060626 43 30 C43 34.43487371 42.85396041 34.59482351 39.97265625 37.52734375 C28.01140156 50.79834815 27.12040456 62.27811188 27.86962891 79.6394043 C27.91265137 80.41840088 27.95567383 81.19739746 28 82 C21.52451792 81.33012254 15.89868629 79.33139694 9.84765625 76.99609375 C0.87411478 73.77916379 -6.22102516 75.73226504 -14.875 79.0625 C-22.64559497 82 -22.64559497 82 -26 82 C-25.98316162 81.17910889 -25.96632324 80.35821777 -25.94897461 79.51245117 C-25.90730306 76.41195689 -25.90693209 73.314722 -25.93286133 70.21411133 C-25.93739273 68.23436627 -25.89600671 66.25468483 -25.85351562 64.27539062 C-25.98297257 54.04829165 -28.918582 49.16140891 -36 42 C-37.3904706 40.34621819 -38.76819273 38.68151027 -40.125 37 C-40.99511719 35.948125 -40.99511719 35.948125 -41.8828125 34.875 C-42.43582031 33.946875 -42.43582031 33.946875 -43 33 C-42.67 32.01 -42.34 31.02 -42 30 C-39.72192383 29.24243164 -39.72192383 29.24243164 -36.70703125 28.66015625 C-23.81861741 25.7459091 -14.86278532 23.15666833 -7.5 11.625 C-5.96207654 9.09201593 -4.48466477 6.55557281 -3.09960938 3.93603516 C-2 2 -2 2 0 0 Z " fill="#EFD254" transform="translate(255,16)"/>
<path d="M0 0 C0.47308594 0.96679688 0.94617188 1.93359375 1.43359375 2.9296875 C5.67907846 11.3782347 10.16642165 18.34376365 17 25 C17.66257813 25.69480469 18.32515625 26.38960937 19.0078125 27.10546875 C29.2037495 37.12695055 42.17409828 41.69568305 56 44 C56 38.39 56 32.78 56 27 C56.33 27 56.66 27 57 27 C57 36.24 57 45.48 57 55 C49.16065192 53.88009313 49.16065192 53.88009313 45.6953125 52.5546875 C44.94636719 52.28269531 44.19742188 52.01070312 43.42578125 51.73046875 C41.89620972 51.1617486 40.37009005 50.58365396 38.84765625 49.99609375 C29.87411478 46.77916379 22.77897484 48.73226504 14.125 52.0625 C6.35440503 55 6.35440503 55 3 55 C3.01683838 54.17910889 3.03367676 53.35821777 3.05102539 52.51245117 C3.09269694 49.41195689 3.09306791 46.314722 3.06713867 43.21411133 C3.06260727 41.23436627 3.10399329 39.25468483 3.14648438 37.27539062 C3.01702743 27.04829165 0.081418 22.16140891 -7 15 C-8.3904706 13.34621819 -9.76819273 11.68151027 -11.125 10 C-11.70507812 9.29875 -12.28515625 8.5975 -12.8828125 7.875 C-13.25148437 7.25625 -13.62015625 6.6375 -14 6 C-13.67 5.01 -13.34 4.02 -13 3 C-11.07421875 2.05078125 -11.07421875 2.05078125 -8.6875 1.3125 C-7.90761719 1.06113281 -7.12773437 0.80976562 -6.32421875 0.55078125 C-4 0 -4 0 0 0 Z " fill="#DDC353" transform="translate(226,43)"/>
<path d="M0 0 C3.78580423 2.03850997 7.05061257 4.10122513 9 8 C9.53622663 13.54100846 9.28076839 17.29756531 6 22 C2.13530061 24.6963019 -1.39794289 25.59969567 -6.0390625 25.421875 C-10.28601108 24.50818885 -12.85847033 21.55663137 -15.375 18.125 C-16.75017467 13.44940611 -16.55896687 10.07652879 -14.3125 5.75 C-10.05820349 0.69083658 -6.64730633 -0.81633587 0 0 Z " fill="#F8FDFC" transform="translate(347,306)"/>
<path d="M0 0 C3.78171013 2.03630545 7.09528802 4.08475871 9 8 C9.57729504 12.26556888 9.44900325 15.85254726 7.875 19.875 C5.05324591 23.07298797 2.24877341 24.63843251 -1.9921875 25.3203125 C-5.55684323 25.52208547 -7.7484934 25.15090396 -10.8125 23.3125 C-14.14937042 19.78495127 -15.81530225 17.45119661 -16.4375 12.5625 C-15.79673956 7.34487925 -13.73597372 4.40754626 -9.6875 1.125 C-6.16108808 -0.35117243 -3.79611 -0.46618895 0 0 Z " fill="#F8FDFC" transform="translate(230,306)"/>
<path d="M0 0 C3.14847243 1.300456 4.61740061 2.5514352 6.8125 5.125 C8.47565291 9.15158072 8.70289206 12.70454854 8 17 C5.74596628 20.8402056 3.14452928 23.34218829 -1 25 C-5.87714838 25.30204562 -9.0632493 24.73744204 -12.9375 21.6875 C-16.29116737 17.31756979 -17.67626608 14.6355507 -17 9 C-12.70358364 1.17438448 -8.7598047 -1.14394587 0 0 Z " fill="#E9D156" transform="translate(348,456)"/>
<path d="M0 0 C3.88949792 2.00031321 6.38661858 4.95529031 8 9 C8.33403245 13.78779839 7.66898085 17.15021351 4.6875 20.9375 C1.35070671 23.49829485 -0.64951936 24.78992523 -4.8125 25.4375 C-9.11701495 24.84668422 -11.82742515 22.90274245 -15 20 C-17.69621247 15.9556813 -17.54319098 12.74665346 -17 8 C-13.62388355 0.23493217 -7.92869491 -1.35062942 0 0 Z " fill="#F8FCFB" transform="translate(173,456)"/>
<path d="M0 0 C3.94032111 3.18579153 6.79222758 6.16467696 7.375 11.3125 C6.83664378 16.60633621 4.79709427 19.50242144 0.75 22.875 C-3.96206832 24.80266431 -8.09270848 24.76291661 -12.8125 22.875 C-16.07429345 20.07917704 -17.58453001 17.28736773 -18.35546875 13.04296875 C-18.63074336 9.15192488 -18.19429347 6.71808742 -15.75 3.625 C-10.69655561 -1.19874237 -6.68713218 -1.87478527 0 0 Z " fill="#EAD156" transform="translate(174,307)"/>
<path d="M0 0 C4.18531174 1.72871572 6.23950002 3.83039478 8 8 C8.53635899 12.82723092 8.52017901 14.97890786 6.3125 19.3125 C2.95077759 23.21936658 0.71357583 24.78190853 -4.4375 25.4375 C-8.7426591 24.90879625 -10.72712679 23.82657232 -14 21 C-16.64201025 16.94891762 -17.70236884 13.8162435 -17 9 C-12.70358364 1.17438448 -8.7598047 -1.14394587 0 0 Z " fill="#F8FCFB" transform="translate(289,179)"/>
<path d="M0 0 C3.22206103 1.64712285 5.2815617 3.98765512 7.375 6.9375 C8.69420276 11.29086911 8.48163573 14.07377744 6.375 18.125 C3.09546599 22.09496222 0.19448214 24.57978002 -4.9375 25.5625 C-9.0840061 24.80089684 -11.99653804 22.94153491 -15 20 C-17.58493119 15.84870323 -17.70568718 11.76126293 -17 7 C-12.73837849 0.0932341 -7.69565324 -1.1848673 0 0 Z " fill="#F8FCFB" transform="translate(290,456)"/>
<path d="M0 0 C3.91074927 3.16188239 6.75229308 6.15989144 7.4375 11.25 C6.81104132 16.61964585 4.40136995 20.09546521 0.1875 23.4375 C-4.43729773 24.6267337 -8.42839731 24.62864107 -12.8125 22.875 C-16.07429345 20.07917704 -17.58453001 17.28736773 -18.35546875 13.04296875 C-18.63074336 9.15192488 -18.19429347 6.71808742 -15.75 3.625 C-10.69655561 -1.19874237 -6.68713218 -1.87478527 0 0 Z " fill="#EAD256" transform="translate(291,307)"/>
<path d="M0 0 C3.8026029 2.0050088 5.61790841 3.42686262 8 7 C8.75880093 11.63221499 8.41508256 15.16983489 6.3125 19.375 C3.14386908 22.97182428 0.84262351 24.72556671 -3.9375 25.4375 C-9.18625433 24.68767795 -12.06063497 22.13712609 -15.375 18.125 C-17.21019695 14.59577511 -17.651794 12.91076402 -17 9 C-12.78298671 1.3190115 -8.69521092 -1.38641145 0 0 Z " fill="#EAD155" transform="translate(231,456)"/>
<path d="M0 0 C4.32777286 2.20471448 7.26335482 4.40299806 9 9 C9.29338391 13.88084135 8.74119071 17.05848747 5.6875 20.9375 C2.35070671 23.49829485 0.35048064 24.78992523 -3.8125 25.4375 C-8.79346622 24.75383797 -12.33482144 22.09957297 -15.4375 18.1875 C-16.63205664 13.54200195 -16.65833623 9.55921739 -14.8125 5.1875 C-10.75422844 0.28958605 -6.26963753 -1.10640662 0 0 Z " fill="#EAD155" transform="translate(231,179)"/>
<path d="M0 0 C3.39488422 2.05107588 4.80323081 3.70484621 7 7 C7.66100598 11.04257341 7.91928345 15.20172043 6.01953125 18.91796875 C2.84955559 22.86824611 0.09151106 24.67465384 -4.8125 25.4375 C-9.11701495 24.84668422 -11.82742515 22.90274245 -15 20 C-17.82605874 15.7609119 -17.66012246 11.97875497 -17 7 C-12.77157233 0.00122316 -7.68984639 -1.01958027 0 0 Z " fill="#F9FCFC" transform="translate(407,456)"/>
<path d="M0 0 C3.8026029 2.0050088 5.61790841 3.42686262 8 7 C8.70351326 11.82642815 8.73487541 15.7836545 6.1875 20 C1.87522351 23.94265279 -0.83190947 24.48543347 -6.484375 24.39453125 C-10.5514375 23.75668449 -12.23237372 21.9805206 -15 19 C-16.84977549 15.30044901 -16.47056911 11.03799166 -16 7 C-11.99730813 0.37485483 -7.34089229 -1.03975096 0 0 Z " fill="#ECD255" transform="translate(114,456)"/>
</svg>
