<?xml version="1.0" encoding="UTF-8"?>
<svg version="1.1" xmlns="http://www.w3.org/2000/svg" width="512" height="512">
<path d="M0 0 C7.59045445 4.02845348 13.1538433 9.29619492 16.125 17.4375 C16.91964466 20.24284769 17.29591954 22.85589072 17.44140625 25.765625 C17.48330078 26.56484375 17.52519531 27.3640625 17.56835938 28.1875 C17.60767578 29.0125 17.64699219 29.8375 17.6875 30.6875 C17.73068359 31.52796875 17.77386719 32.3684375 17.81835938 33.234375 C17.92408543 35.30190671 18.02501295 37.36968281 18.125 39.4375 C18.95902344 38.54546875 19.79304688 37.6534375 20.65234375 36.734375 C28.46722513 28.53737061 34.99932648 22.22892324 46.8046875 21.40625 C55.51561213 21.52356885 62.37251419 24.12505917 68.8125 29.96875 C74.35815473 35.84714402 77.28319322 42.87085998 77.625 50.9375 C77.05605066 63.19577219 70.22493889 70.76619177 61.55175781 78.82992554 C59.74785309 80.4241197 57.93634068 82.00973819 56.11813354 83.58760071 C28.30106104 105.92416473 28.30106104 105.92416473 14.64263916 136.90049744 C14.36669918 145.18249041 15.31757011 153.36560386 17.125 161.4375 C17.84042969 161.71335938 18.55585938 161.98921875 19.29296875 162.2734375 C22.08238855 163.41998522 24.74790358 164.69977115 27.4375 166.0625 C28.32050781 166.50851563 29.20351563 166.95453125 30.11328125 167.4140625 C31.10908203 167.92066406 31.10908203 167.92066406 32.125 168.4375 C32.88397583 167.67186234 33.64295166 166.90622467 34.42492676 166.11738586 C41.59597079 158.88539511 48.7750232 151.66143906 55.96189117 144.44517231 C59.6560328 140.73540817 63.34734538 137.02291952 67.03222656 133.30395508 C70.59175022 129.71171651 74.15865851 126.12696282 77.73069763 122.54717064 C79.08880942 121.18353711 80.44428831 119.81727586 81.79701233 118.4482975 C83.69946111 116.52391364 85.61125569 114.60928415 87.52539062 112.6965332 C88.07637421 112.13476379 88.62735779 111.57299438 89.19503784 110.99420166 C96.45564919 103.78980229 104.05372926 99.51460238 114.4375 99.0625 C122.94869459 99.23786802 130.19730019 102.37194671 136.125 108.4375 C142.23408087 116.65668123 144.09663666 124.2288375 143.125 134.4375 C141.8310757 140.95650795 138.63209192 145.24517134 134.15527344 150.06103516 C133.42797594 150.84346557 133.42797594 150.84346557 132.68598557 151.64170265 C128.06262991 156.57794513 123.2652635 161.33172293 118.41239166 166.04188156 C115.84994813 168.53371586 113.30567136 171.04405206 110.7578125 173.55078125 C107.54738156 176.70710198 104.33178229 179.85766174 101.09863281 182.99072266 C98.45129858 185.55704621 95.82131177 188.14004761 93.20217133 190.7351265 C92.20842116 191.71347347 91.20841445 192.68550856 90.20206451 193.65089035 C88.8053046 194.99224218 87.43181391 196.35769857 86.05957031 197.72412109 C85.2733429 198.49178802 84.48711548 199.25945496 83.67706299 200.05038452 C81.80991592 202.39718085 81.80991592 202.39718085 82.34393311 205.52896118 C82.73056122 206.9686879 82.73056122 206.9686879 83.125 208.4375 C83.8393287 212.56473247 84.17632152 216.49289214 84.15234375 220.671875 C84.148396 221.56616211 84.14444824 222.46044922 84.14038086 223.38183594 C84.13276733 224.39938965 84.13276733 224.39938965 84.125 225.4375 C107.22205478 228.12337974 107.22205478 228.12337974 127.90332031 219.46679688 C134.74581759 213.64096709 140.70975672 206.869816 146.58282471 200.0914917 C149.93286509 196.26558983 153.40872481 192.55413715 156.87287712 188.83179092 C159.56388887 185.93786007 162.2307741 183.03172158 164.83474731 180.059021 C171.65541628 172.36197954 178.73747421 166.33511241 189.3515625 165.19921875 C197.9101687 164.93437589 204.71006501 167.22346623 211.4375 172.5625 C217.57579838 178.39015575 220.75618267 185.5685826 221.19140625 193.99609375 C220.86067241 206.15542625 214.74232417 213.20556004 206.234375 221.3359375 C204.08292468 223.25666122 204.08292468 223.25666122 203.125 225.4375 C204.30835938 225.39109375 205.49171875 225.3446875 206.7109375 225.296875 C219.04379169 224.95364318 228.07089231 225.75613296 237.43359375 234.5703125 C243.86885349 241.67436366 244.44306627 248.70249339 244.328125 257.96484375 C243.80842814 266.84966116 239.666629 272.51388586 233.125 278.4375 C228.01727208 281.79954876 222.8907576 283.44921212 216.796875 283.75390625 C215.99765625 283.79580078 215.1984375 283.83769531 214.375 283.88085938 C213.55 283.92017578 212.725 283.95949219 211.875 284 C211.03453125 284.04318359 210.1940625 284.08636719 209.328125 284.13085938 C207.26059329 284.23658543 205.19281719 284.33751295 203.125 284.4375 C204.01703125 285.27152344 204.9090625 286.10554688 205.828125 286.96484375 C214.41193768 295.14728145 220.39345314 301.64176818 221.15625 313.9609375 C221.05064245 322.33033609 218.19045538 328.94683118 212.59375 335.12890625 C206.93012809 340.45858819 199.97931681 343.5664611 192.1875 343.9375 C179.68229384 343.29169123 171.97164311 336.6780244 163.71417236 327.86425781 C162.10038025 326.06062488 160.49537092 324.24910282 158.89831543 322.43063354 C136.82881458 294.95588705 136.82881458 294.95588705 106.52914429 280.95513916 C98.94745161 280.68166911 91.47799916 281.61493791 84.125 283.4375 C84.13732666 284.10354248 84.14965332 284.76958496 84.16235352 285.45581055 C84.17194092 286.34051025 84.18152832 287.22520996 84.19140625 288.13671875 C84.20989624 289.44515747 84.20989624 289.44515747 84.22875977 290.7800293 C84.09808023 294.12696287 83.38532923 297.12537269 82.46484375 300.33203125 C82.0201302 303.0872106 82.30187694 304.75160337 83.125 307.4375 C85.24433649 310.11633006 85.24433649 310.11633006 88.02441406 312.7434082 C88.53346786 313.24822723 89.04252167 313.75304626 89.56700134 314.27316284 C90.67131621 315.36562645 91.78026816 316.45341824 92.89328766 317.5370121 C94.65980884 319.25695931 96.4138361 320.98881884 98.16522217 322.72416687 C101.89071216 326.41080076 105.63242325 330.08072713 109.375 333.75 C113.69968153 337.99408184 118.01746466 342.24493651 122.32390594 346.50752831 C124.04400046 348.20461319 125.77333393 349.89186113 127.503479 351.57868958 C136.03379697 359.96362578 143.00537 367.67814787 143.5 380.1875 C143.33641329 388.97755945 140.413662 396.29176214 134.125 402.4375 C126.24749154 408.29262534 118.92799247 410.42042037 109.125 409.4375 C102.274488 408.15547561 97.64857109 405.31666731 92.58886719 400.57495117 C92.07308987 400.09289561 91.55731255 399.61084005 91.02590561 399.11417675 C84.93855295 393.38764335 79.03579002 387.47369873 73.140625 381.55078125 C71.9473038 380.35558856 70.75375687 379.1606212 69.55999756 377.96586609 C66.46065149 374.86275232 63.36432338 371.75664504 60.26867676 368.64984131 C57.09244164 365.46326648 53.91327487 362.27961923 50.734375 359.09570312 C44.52842424 352.87911678 38.3256679 346.65935568 32.125 340.4375 C30.87783203 341.06978516 30.87783203 341.06978516 29.60546875 341.71484375 C27.97544922 342.53662109 27.97544922 342.53662109 26.3125 343.375 C25.23355469 343.92027344 24.15460938 344.46554687 23.04296875 345.02734375 C20.125 346.4375 20.125 346.4375 17.125 347.4375 C13.62450432 360.23387048 12.21822262 374.16478586 18.125 386.4375 C26.88732949 399.93530281 40.11861994 410.89531581 51.88354492 421.6862793 C52.49017755 422.24305107 53.09681017 422.79982285 53.7218256 423.37346649 C56.62040483 426.02404855 59.53730434 428.64624718 62.50416565 431.22024536 C70.28467098 438.05404175 76.22648734 445.04156202 77.36328125 455.6640625 C77.62812411 464.2226687 75.33903377 471.02256501 70 477.75 C64.17234425 483.88829838 56.9939174 487.06868267 48.56640625 487.50390625 C34.84643549 487.13072305 27.03884327 478.79375828 18.125 469.4375 C18.09921875 470.62085938 18.0734375 471.80421875 18.046875 473.0234375 C17.66687864 485.07365761 16.6485211 494.58643762 8.0625 503.74609375 C1.16535011 509.76719436 -6.40689285 510.80239822 -15.296875 510.7109375 C-23.74967246 510.06498136 -30.29318373 505.68862908 -35.875 499.4375 C-39.19756384 494.30000967 -40.88627843 489.21193148 -41.19140625 483.109375 C-41.23330078 482.31015625 -41.27519531 481.5109375 -41.31835938 480.6875 C-41.35767578 479.8625 -41.39699219 479.0375 -41.4375 478.1875 C-41.48068359 477.34703125 -41.52386719 476.5065625 -41.56835938 475.640625 C-41.67408543 473.57309329 -41.77501295 471.50531719 -41.875 469.4375 C-42.70902344 470.32953125 -43.54304687 471.2215625 -44.40234375 472.140625 C-52.21722513 480.33762939 -58.74932648 486.64607676 -70.5546875 487.46875 C-79.26561213 487.35143115 -86.12251419 484.74994083 -92.5625 478.90625 C-98.10815473 473.02785598 -101.03319322 466.00414002 -101.375 457.9375 C-100.80605066 445.67922781 -93.97493889 438.10880823 -85.30175781 430.04507446 C-83.49785309 428.4508803 -81.68634068 426.86526181 -79.86813354 425.28739929 C-52.05106104 402.95083527 -52.05106104 402.95083527 -38.39263916 371.97450256 C-38.11669918 363.69250959 -39.06757011 355.50939614 -40.875 347.4375 C-41.59042969 347.16164063 -42.30585938 346.88578125 -43.04296875 346.6015625 C-45.83238855 345.45501478 -48.49790358 344.17522885 -51.1875 342.8125 C-52.07050781 342.36648438 -52.95351562 341.92046875 -53.86328125 341.4609375 C-54.52714844 341.12320312 -55.19101563 340.78546875 -55.875 340.4375 C-56.63397583 341.20313766 -57.39295166 341.96877533 -58.17492676 342.75761414 C-65.34597079 349.98960489 -72.5250232 357.21356094 -79.71189117 364.42982769 C-83.4060328 368.13959183 -87.09734538 371.85208048 -90.78222656 375.57104492 C-94.34175022 379.16328349 -97.90865851 382.74803718 -101.48069763 386.32782936 C-102.83880942 387.69146289 -104.19428831 389.05772414 -105.54701233 390.4267025 C-107.44946111 392.35108636 -109.36125569 394.26571585 -111.27539062 396.1784668 C-111.82637421 396.74023621 -112.37735779 397.30200562 -112.94503784 397.88079834 C-120.20564919 405.08519771 -127.80372926 409.36039762 -138.1875 409.8125 C-146.69869459 409.63713198 -153.94730019 406.50305329 -159.875 400.4375 C-165.98408087 392.21831877 -167.84663666 384.6461625 -166.875 374.4375 C-165.5810757 367.91849205 -162.38209192 363.62982866 -157.90527344 358.81396484 C-157.42040844 358.29234457 -156.93554344 357.7707243 -156.43598557 357.23329735 C-151.81262991 352.29705487 -147.0152635 347.54327707 -142.16239166 342.83311844 C-139.59994813 340.34128414 -137.05567136 337.83094794 -134.5078125 335.32421875 C-131.29738156 332.16789802 -128.08178229 329.01733826 -124.84863281 325.88427734 C-122.20129858 323.31795379 -119.57131177 320.73495239 -116.95217133 318.1398735 C-115.95842116 317.16152653 -114.95841445 316.18949144 -113.95206451 315.22410965 C-112.5553046 313.88275782 -111.18181391 312.51730143 -109.80957031 311.15087891 C-109.0233429 310.38321198 -108.23711548 309.61554504 -107.42706299 308.82461548 C-105.55991592 306.47781915 -105.55991592 306.47781915 -106.09393311 303.34603882 C-106.35168518 302.38622101 -106.60943726 301.4264032 -106.875 300.4375 C-107.5893287 296.31026753 -107.92632152 292.38210786 -107.90234375 288.203125 C-107.898396 287.30883789 -107.89444824 286.41455078 -107.89038086 285.49316406 C-107.88530518 284.81479492 -107.88022949 284.13642578 -107.875 283.4375 C-130.97205478 280.75162026 -130.97205478 280.75162026 -151.65332031 289.40820312 C-158.49581759 295.23403291 -164.45975672 302.005184 -170.33282471 308.7835083 C-173.68286509 312.60941017 -177.15872481 316.32086285 -180.62287712 320.04320908 C-183.31388887 322.93713993 -185.9807741 325.84327842 -188.58474731 328.815979 C-195.37547082 336.47922739 -202.53970705 342.70036525 -213.171875 343.640625 C-221.73400781 343.80423263 -228.07064883 341.76264439 -234.875 336.4375 C-241.15266822 330.28262235 -244.24387093 323.79218485 -244.87109375 314.984375 C-244.88495347 305.94783841 -241.4966368 299.25596489 -235.359375 292.78515625 C-233.58526475 291.01864933 -231.79439518 289.26875634 -229.984375 287.5390625 C-227.83292468 285.61833878 -227.83292468 285.61833878 -226.875 283.4375 C-228.05835938 283.48390625 -229.24171875 283.5303125 -230.4609375 283.578125 C-242.79379169 283.92135682 -251.82089231 283.11886704 -261.18359375 274.3046875 C-267.61885349 267.20063634 -268.19306627 260.17250661 -268.078125 250.91015625 C-267.55842814 242.02533884 -263.416629 236.36111414 -256.875 230.4375 C-251.77304284 227.07924972 -246.6696081 225.29610994 -240.546875 225.33984375 C-239.74765625 225.34306641 -238.9484375 225.34628906 -238.125 225.34960938 C-237.3 225.35798828 -236.475 225.36636719 -235.625 225.375 C-234.78453125 225.37951172 -233.9440625 225.38402344 -233.078125 225.38867188 C-231.01038599 225.40042039 -228.94268376 225.41835478 -226.875 225.4375 C-227.51115234 224.71046875 -227.51115234 224.71046875 -228.16015625 223.96875 C-229.39683747 222.55540004 -230.63102998 221.13987019 -231.86328125 219.72265625 C-233.15472181 218.25568008 -234.46337917 216.80358436 -235.79296875 215.37109375 C-242.13337228 208.46289289 -244.86056667 201.84803004 -244.875 192.4375 C-244.13322912 184.29150702 -240.61889207 177.76916376 -234.6875 172.1875 C-228.48170287 167.27121916 -221.37927982 164.65646912 -213.44140625 165.06640625 C-199.58982668 167.06929827 -191.5040502 176.36088367 -182.64831543 186.44436646 C-160.57881458 213.91911295 -160.57881458 213.91911295 -130.27914429 227.91986084 C-122.69745161 228.19333089 -115.22799916 227.26006209 -107.875 225.4375 C-107.89348999 224.43843628 -107.89348999 224.43843628 -107.91235352 223.41918945 C-107.92194092 222.53448975 -107.93152832 221.64979004 -107.94140625 220.73828125 C-107.95989624 219.42984253 -107.95989624 219.42984253 -107.97875977 218.0949707 C-107.84808023 214.74803713 -107.13532923 211.74962731 -106.21484375 208.54296875 C-105.7701302 205.7877894 -106.05187694 204.12339663 -106.875 201.4375 C-108.99433649 198.75866994 -108.99433649 198.75866994 -111.77441406 196.1315918 C-112.53799477 195.37436325 -112.53799477 195.37436325 -113.31700134 194.60183716 C-114.42131621 193.50937355 -115.53026816 192.42158176 -116.64328766 191.3379879 C-118.40980884 189.61804069 -120.1638361 187.88618116 -121.91522217 186.15083313 C-125.64071216 182.46419924 -129.38242325 178.79427287 -133.125 175.125 C-137.44968153 170.88091816 -141.76746466 166.63006349 -146.07390594 162.36747169 C-147.79400046 160.67038681 -149.52333393 158.98313887 -151.253479 157.29631042 C-159.78379697 148.91137422 -166.75537 141.19685213 -167.25 128.6875 C-167.08641329 119.89744055 -164.163662 112.58323786 -157.875 106.4375 C-149.65581877 100.32841913 -142.0836625 98.46586334 -131.875 99.4375 C-125.41730815 100.71925399 -121.14262463 103.86221249 -116.37402344 108.30004883 C-115.85570827 108.78210439 -115.33739311 109.26415995 -114.80337143 109.76082325 C-108.69712095 115.47799426 -102.79090456 121.39616265 -96.890625 127.32421875 C-95.6973038 128.51941144 -94.50375687 129.7143788 -93.30999756 130.90913391 C-90.21065149 134.01224768 -87.11432338 137.11835496 -84.01867676 140.22515869 C-80.84244164 143.41173352 -77.66327487 146.59538077 -74.484375 149.77929688 C-68.27842424 155.99588322 -62.0756679 162.21564432 -55.875 168.4375 C-55.04355469 168.01597656 -54.21210938 167.59445313 -53.35546875 167.16015625 C-52.26878906 166.61230469 -51.18210938 166.06445312 -50.0625 165.5 C-48.98355469 164.95472656 -47.90460938 164.40945312 -46.79296875 163.84765625 C-43.875 162.4375 -43.875 162.4375 -40.875 161.4375 C-37.37450432 148.64112952 -35.96822262 134.71021414 -41.875 122.4375 C-50.63732949 108.93969719 -63.86861994 97.97968419 -75.63354492 87.1887207 C-76.24017755 86.63194893 -76.84681017 86.07517715 -77.4718256 85.50153351 C-80.37040483 82.85095145 -83.28730434 80.22875282 -86.25416565 77.65475464 C-94.03467098 70.82095825 -99.97648734 63.83343798 -101.11328125 53.2109375 C-101.37812411 44.6523313 -99.08903377 37.85243499 -93.75 31.125 C-87.92234425 24.98670162 -80.7439174 21.80631733 -72.31640625 21.37109375 C-58.59643549 21.74427695 -50.78884327 30.08124172 -41.875 39.4375 C-41.84921875 38.25414062 -41.8234375 37.07078125 -41.796875 35.8515625 C-41.41687864 23.80134239 -40.3985211 14.28856238 -31.8125 5.12890625 C-23.38242508 -2.23041319 -10.36098517 -4.23858484 0 0 Z M-17.86328125 214.21875 C-18.88099609 214.81429687 -19.89871094 215.40984375 -20.94726562 216.0234375 C-22.01654297 216.65507812 -23.08582031 217.28671875 -24.1875 217.9375 C-25.72760742 218.83855469 -25.72760742 218.83855469 -27.29882812 219.7578125 C-29.41009066 220.9974045 -31.50732303 222.26116239 -33.59082031 223.546875 C-36.875 225.4375 -36.875 225.4375 -40.51074219 226.953125 C-44.4304292 228.76171445 -46.9680472 230.22730691 -49.875 233.4375 C-51.96726428 239.24202839 -51.74511354 245.45744679 -51.56982422 251.54589844 C-51.49998729 254.43802644 -51.56910132 257.30399259 -51.65234375 260.1953125 C-51.84388043 270.006811 -51.84388043 270.006811 -47.30566406 278.26318359 C-43.92060497 280.35634795 -40.54060934 281.89496969 -36.875 283.4375 C-34.73898521 284.70679625 -32.62337436 286.01115666 -30.53125 287.3515625 C-28.48007919 288.59005424 -26.4280002 289.82704314 -24.375 291.0625 C-23.33085937 291.71089844 -22.28671875 292.35929687 -21.2109375 293.02734375 C-19.69886719 293.93033203 -19.69886719 293.93033203 -18.15625 294.8515625 C-16.81143555 295.67068115 -16.81143555 295.67068115 -15.43945312 296.50634766 C-12.92303956 297.69187005 -12.92303956 297.69187005 -10.44506836 296.82128906 C-9.5969458 296.36463867 -8.74882324 295.90798828 -7.875 295.4375 C-6.36885132 294.62949951 -6.36885132 294.62949951 -4.83227539 293.80517578 C-3.72360107 293.1707959 -2.61492676 292.53641602 -1.47265625 291.8828125 C-0.87247177 291.53999237 -0.27228729 291.19717224 0.34608459 290.84396362 C1.61011088 290.12099698 2.87323428 289.39644969 4.13549805 288.67041016 C6.05091639 287.56915988 7.96953389 286.47365872 9.88867188 285.37890625 C15.02415212 282.43802187 15.02415212 282.43802187 20.125 279.4375 C21.77991455 278.61693115 21.77991455 278.61693115 23.46826172 277.77978516 C26.34189883 275.24627344 26.55815454 274.83450393 27.01245117 271.25488281 C27.0992263 269.55155113 27.14879586 267.84605783 27.16796875 266.140625 C27.19031082 265.23302429 27.21265289 264.32542358 27.235672 263.39031982 C27.27039714 261.47072274 27.28869394 259.55076809 27.29174805 257.63085938 C27.31236869 254.70612395 27.43395134 251.79681496 27.56054688 248.875 C27.97720783 238.98593716 27.97720783 238.98593716 23.59301758 230.58984375 C20.19506476 228.48606952 16.81648386 226.96099304 13.125 225.4375 C10.95555948 224.18989843 8.80489981 222.9089823 6.67578125 221.59375 C4.59729244 220.37340054 2.51786968 219.15464032 0.4375 217.9375 C-0.63177734 217.30585938 -1.70105469 216.67421875 -2.80273438 216.0234375 C-3.82044922 215.42789063 -4.83816406 214.83234375 -5.88671875 214.21875 C-7.25509888 213.4153418 -7.25509888 213.4153418 -8.65112305 212.59570312 C-12.60155953 210.53830158 -14.21383107 212.07607184 -17.86328125 214.21875 Z " fill="#636053" transform="translate(267.875,1.5625)"/>
<path d="M0 0 C0.86326904 0.49314697 1.72653809 0.98629395 2.6159668 1.49438477 C3.58421387 2.0408667 4.55246094 2.58734863 5.55004883 3.15039062 C6.54504395 3.71894775 7.54003906 4.28750488 8.56518555 4.87329102 C10.46392109 5.9271853 12.36366306 6.9792684 14.2644043 8.02954102 C27.90500207 15.63446603 41.4779893 23.34998632 54.91235352 31.31469727 C56.69679441 32.36309324 58.49310918 33.39151011 60.30004883 34.40063477 C61.17258301 34.89692383 62.04511719 35.39321289 62.9440918 35.90454102 C64.09953491 36.54746094 64.09953491 36.54746094 65.27832031 37.20336914 C69.87005185 40.55635768 72.29813935 43.19106652 73.18664551 48.7881012 C73.21006383 50.28449634 73.20634999 51.7814783 73.18041992 53.27783203 C73.18596893 54.09973022 73.19151794 54.92162842 73.19723511 55.76843262 C73.20899909 58.47195639 73.18479234 61.17379198 73.15893555 63.87719727 C73.15722365 65.76236393 73.15729093 67.64753297 73.15905762 69.53269958 C73.15740628 73.4777615 73.13874097 77.42225387 73.10717773 81.3671875 C73.06747353 86.42020964 73.06313683 91.47248716 73.07064056 96.52563572 C73.07371186 100.41618148 73.06158449 104.30656028 73.04450989 108.19706535 C73.03748669 110.0601592 73.03435453 111.92327197 73.03520203 113.78637886 C73.03340157 116.39064793 73.01199979 118.99402926 72.98510742 121.59814453 C72.98803802 122.36555466 72.99096863 123.13296478 72.99398804 123.92362976 C72.92243012 128.42149261 72.31465411 131.28425171 69.56518555 134.87329102 C66.28274148 137.83081875 62.7741559 140.03205651 58.9362793 142.20141602 C57.2800354 143.14235107 57.2800354 143.14235107 55.59033203 144.10229492 C54.39448796 144.77602789 53.19860481 145.44969151 52.00268555 146.12329102 C50.76162772 146.82645655 49.52082789 147.53007763 48.28027344 148.23413086 C45.69129253 149.70309058 43.10119932 151.17006316 40.51049805 152.63598633 C36.62612293 154.83612442 32.75069618 157.05165943 28.87768555 159.27172852 C28.25547623 159.62823486 27.63326691 159.98474121 26.99220276 160.35205078 C24.01735571 162.05668501 21.04291613 163.76202508 18.06884766 165.46801758 C14.90555489 167.27802876 11.73732173 169.07882889 8.56518555 170.87329102 C7.53925293 171.45594727 6.51332031 172.03860352 5.45629883 172.63891602 C4.48289551 173.18290039 3.50949219 173.72688477 2.5065918 174.28735352 C1.21990601 175.00979248 1.21990601 175.00979248 -0.09277344 175.74682617 C-3.75958508 177.51047351 -6.4986842 177.992711 -10.43481445 176.87329102 C-12.13587626 176.0482595 -13.80710614 175.16050764 -15.4543457 174.23266602 C-16.42710449 173.68900391 -17.39986328 173.1453418 -18.40209961 172.58520508 C-19.40289551 172.02027344 -20.40369141 171.4553418 -21.43481445 170.87329102 C-23.33420161 169.82057155 -25.23394139 168.76848809 -27.1340332 167.71704102 C-40.77302361 160.11301214 -54.33346069 152.38302298 -67.77807617 144.43969727 C-69.5818338 143.37620628 -71.39097714 142.32180779 -73.20483398 141.27563477 C-74.0863916 140.76129883 -74.96794922 140.24696289 -75.8762207 139.71704102 C-77.04906616 139.03931641 -77.04906616 139.03931641 -78.24560547 138.34790039 C-81.78965061 135.96069925 -84.0704587 133.96635827 -85.43481445 129.87329102 C-85.55664027 127.188008 -85.62329164 124.52738794 -85.64355469 121.84106445 C-85.65333847 121.02281693 -85.66312225 120.2045694 -85.67320251 119.36152649 C-85.7031315 116.65192283 -85.72453531 113.94236845 -85.7434082 111.23266602 C-85.75326594 109.84324673 -85.75326594 109.84324673 -85.76332283 108.42575836 C-85.79590598 103.52237983 -85.82035904 98.61902293 -85.83984375 93.71557617 C-85.8576542 89.66089218 -85.89247153 85.60690398 -85.94238281 81.55249023 C-86.00261721 76.65359164 -86.03332378 71.755338 -86.04301643 66.85608673 C-86.05156679 64.99176783 -86.07037464 63.12746598 -86.09976006 61.26335907 C-86.13874959 58.6491773 -86.13970032 56.03750009 -86.13183594 53.4230957 C-86.15183655 52.65816299 -86.17183716 51.89323029 -86.19244385 51.1051178 C-86.12179543 45.85383009 -84.64895661 43.16323215 -81.08215427 39.33627701 C-78.19565577 36.7728066 -74.98361496 35.05390079 -71.55981445 33.31079102 C-69.94896417 32.45287825 -68.33966913 31.59204089 -66.73168945 30.72875977 C-65.44681641 30.04305908 -65.44681641 30.04305908 -64.13598633 29.34350586 C-59.29864183 26.71059836 -54.55874743 23.91155613 -49.80981445 21.12329102 C-48.81328857 20.5403125 -47.8167627 19.95733398 -46.79003906 19.35668945 C-42.54758546 16.87406094 -38.30809775 14.38641307 -34.07006836 11.89624023 C-31.83046496 10.58054969 -29.59024432 9.26590919 -27.34936523 7.95239258 C-25.23559056 6.71336049 -23.12322952 5.47191288 -21.01245117 4.2277832 C-19.58763428 3.3929541 -19.58763428 3.3929541 -18.1340332 2.54125977 C-16.87852661 1.8029895 -16.87852661 1.8029895 -15.59765625 1.04980469 C-10.48494403 -1.73133993 -5.31935164 -2.46152691 0 0 Z M-12.4230957 47.65454102 C-13.44081055 48.25008789 -14.45852539 48.84563477 -15.50708008 49.45922852 C-16.57635742 50.09086914 -17.64563477 50.72250977 -18.74731445 51.37329102 C-20.28742188 52.2743457 -20.28742188 52.2743457 -21.85864258 53.19360352 C-23.96990511 54.43319551 -26.06713749 55.69695341 -28.15063477 56.98266602 C-31.43481445 58.87329102 -31.43481445 58.87329102 -35.07055664 60.38891602 C-38.99024365 62.19750546 -41.52786165 63.66309793 -44.43481445 66.87329102 C-46.52707874 72.67781941 -46.304928 78.89323781 -46.12963867 84.98168945 C-46.05980174 87.87381745 -46.12891577 90.7397836 -46.2121582 93.63110352 C-46.40369488 103.44260201 -46.40369488 103.44260201 -41.86547852 111.69897461 C-38.48041942 113.79213897 -35.1004238 115.3307607 -31.43481445 116.87329102 C-29.29879966 118.14258726 -27.18318881 119.44694768 -25.09106445 120.78735352 C-23.03989365 122.02584526 -20.98781465 123.26283415 -18.93481445 124.49829102 C-17.89067383 125.14668945 -16.8465332 125.79508789 -15.77075195 126.46313477 C-14.25868164 127.36612305 -14.25868164 127.36612305 -12.71606445 128.28735352 C-11.37125 129.10647217 -11.37125 129.10647217 -9.99926758 129.94213867 C-7.48285401 131.12766106 -7.48285401 131.12766106 -5.00488281 130.25708008 C-4.15676025 129.80042969 -3.3086377 129.3437793 -2.43481445 128.87329102 C-0.92866577 128.06529053 -0.92866577 128.06529053 0.60791016 127.2409668 C1.71658447 126.60658691 2.82525879 125.97220703 3.9675293 125.31860352 C4.56771378 124.97578339 5.16789825 124.63296326 5.78627014 124.27975464 C7.05029643 123.55678799 8.31341983 122.83224071 9.57568359 122.10620117 C11.49110193 121.0049509 13.40971944 119.90944974 15.32885742 118.81469727 C20.46433767 115.87381289 20.46433767 115.87381289 25.56518555 112.87329102 C27.2201001 112.05272217 27.2201001 112.05272217 28.90844727 111.21557617 C31.78208438 108.68206446 31.99834008 108.27029495 32.45263672 104.69067383 C32.53941185 102.98734215 32.58898141 101.28184885 32.6081543 99.57641602 C32.63049637 98.66881531 32.65283844 97.7612146 32.67585754 96.82611084 C32.71058269 94.90651376 32.72887949 92.9865591 32.73193359 91.06665039 C32.75255424 88.14191497 32.87413689 85.23260598 33.00073242 82.31079102 C33.41739338 72.42172818 33.41739338 72.42172818 29.03320312 64.02563477 C25.63525031 61.92186054 22.25666941 60.39678405 18.56518555 58.87329102 C16.39574503 57.62568944 14.24508535 56.34477332 12.1159668 55.02954102 C10.03747798 53.80919156 7.95805522 52.59043134 5.87768555 51.37329102 C4.8084082 50.74165039 3.73913086 50.11000977 2.63745117 49.45922852 C1.61973633 48.86368164 0.60202148 48.26813477 -0.4465332 47.65454102 C-1.81491333 46.85113281 -1.81491333 46.85113281 -3.2109375 46.03149414 C-7.16137398 43.9740926 -8.77364553 45.51186286 -12.4230957 47.65454102 Z " fill="#43A7EB" transform="translate(262.434814453125,168.126708984375)"/>
<path d="M0 0 C2.47167969 1.16064453 2.47167969 1.16064453 4.921875 2.6328125 C6.34113281 3.47392578 6.34113281 3.47392578 7.7890625 4.33203125 C9.25472656 5.21955078 9.25472656 5.21955078 10.75 6.125 C23.7547329 13.89430318 36.87211792 21.42622188 50 29 C50 49.46 50 69.92 50 91 C37.5 98.125 37.5 98.125 33.35888672 100.47875977 C27.1968702 103.98646699 21.07026602 107.5372333 15.0078125 111.21484375 C13.92951172 111.86372559 12.85121094 112.51260742 11.74023438 113.18115234 C9.69926112 114.41373384 7.66630943 115.65971965 5.64257812 116.92041016 C4.72154297 117.47390137 3.80050781 118.02739258 2.8515625 118.59765625 C2.05572754 119.08758057 1.25989258 119.57750488 0.43994141 120.08227539 C-2.81214572 121.30546886 -4.6691037 120.91120209 -8 120 C-10.68701172 118.73168945 -10.68701172 118.73168945 -13.4296875 117.11328125 C-14.47511719 116.50291016 -15.52054688 115.89253906 -16.59765625 115.26367188 C-17.67917969 114.61978516 -18.76070312 113.97589844 -19.875 113.3125 C-20.88691406 112.71888672 -21.89882812 112.12527344 -22.94140625 111.51367188 C-24.59351957 110.54412648 -26.24492266 109.57210435 -27.86480713 108.54962158 C-31.84667092 106.07983768 -35.83040374 104.22371339 -40.18261719 102.47753906 C-46.88377969 99.56820473 -53.21588122 96.67759119 -58 91 C-61.56824324 81.63718492 -60.3875302 71.10784914 -59.64794922 61.29785156 C-59.39982396 57.65376778 -59.29231108 54.00560763 -59.171875 50.35546875 C-58.91642851 43.22710621 -58.50854884 36.11516721 -58 29 C-57.28700745 28.59011841 -56.57401489 28.18023682 -55.8394165 27.75793457 C-52.52247742 25.85021121 -49.20626188 23.9412354 -45.890625 22.03125 C-45.2940937 21.68763931 -44.69756241 21.34402863 -44.08295441 20.99000549 C-37.35525024 17.11291369 -30.6378905 13.22232839 -23.984375 9.21875 C-22.9221875 8.58582031 -21.86 7.95289063 -20.765625 7.30078125 C-18.67007488 6.04942295 -16.5820231 4.78545644 -14.5 3.51171875 C-13.46359375 2.89941406 -12.4271875 2.28710938 -11.359375 1.65625 C-10.46702148 1.11806641 -9.57466797 0.57988281 -8.65527344 0.02539062 C-5.27583912 -1.27965021 -3.46505201 -0.96814282 0 0 Z M-9.98828125 19.78125 C-11.00599609 20.37679687 -12.02371094 20.97234375 -13.07226562 21.5859375 C-14.14154297 22.21757812 -15.21082031 22.84921875 -16.3125 23.5 C-17.85260742 24.40105469 -17.85260742 24.40105469 -19.42382812 25.3203125 C-21.53509066 26.5599045 -23.63232303 27.82366239 -25.71582031 29.109375 C-29 31 -29 31 -32.63574219 32.515625 C-36.5554292 34.32421445 -39.0930472 35.78980691 -42 39 C-44.09226428 44.80452839 -43.87011354 51.01994679 -43.69482422 57.10839844 C-43.62498729 60.00052644 -43.69410132 62.86649259 -43.77734375 65.7578125 C-43.96888043 75.569311 -43.96888043 75.569311 -39.43066406 83.82568359 C-36.04560497 85.91884795 -32.66560934 87.45746969 -29 89 C-26.86398521 90.26929625 -24.74837436 91.57365666 -22.65625 92.9140625 C-20.60507919 94.15255424 -18.5530002 95.38954314 -16.5 96.625 C-15.45585937 97.27339844 -14.41171875 97.92179687 -13.3359375 98.58984375 C-11.82386719 99.49283203 -11.82386719 99.49283203 -10.28125 100.4140625 C-8.93643555 101.23318115 -8.93643555 101.23318115 -7.56445312 102.06884766 C-5.04803956 103.25437005 -5.04803956 103.25437005 -2.57006836 102.38378906 C-1.7219458 101.92713867 -0.87382324 101.47048828 0 101 C1.50614868 100.19199951 1.50614868 100.19199951 3.04272461 99.36767578 C4.15139893 98.7332959 5.26007324 98.09891602 6.40234375 97.4453125 C7.00252823 97.10249237 7.60271271 96.75967224 8.22108459 96.40646362 C9.48511088 95.68349698 10.74823428 94.95894969 12.01049805 94.23291016 C13.92591639 93.13165988 15.84453389 92.03615872 17.76367188 90.94140625 C22.89915212 88.00052187 22.89915212 88.00052187 28 85 C29.65491455 84.17943115 29.65491455 84.17943115 31.34326172 83.34228516 C34.21689883 80.80877344 34.43315454 80.39700393 34.88745117 76.81738281 C34.9742263 75.11405113 35.02379586 73.40855783 35.04296875 71.703125 C35.06531082 70.79552429 35.08765289 69.88792358 35.110672 68.95281982 C35.14539714 67.03322274 35.16369394 65.11326809 35.16674805 63.19335938 C35.18736869 60.26862395 35.30895134 57.35931496 35.43554688 54.4375 C35.85220783 44.54843716 35.85220783 44.54843716 31.46801758 36.15234375 C28.07006476 34.04856952 24.69148386 32.52349304 21 31 C18.83055948 29.75239843 16.67989981 28.4714823 14.55078125 27.15625 C12.47229244 25.93590054 10.39286968 24.71714032 8.3125 23.5 C7.24322266 22.86835938 6.17394531 22.23671875 5.07226562 21.5859375 C4.05455078 20.99039063 3.03683594 20.39484375 1.98828125 19.78125 C0.61990112 18.9778418 0.61990112 18.9778418 -0.77612305 18.15820312 C-4.72655953 16.10080158 -6.33883107 17.63857184 -9.98828125 19.78125 Z " fill="#626154" transform="translate(260,196)"/>
<path d="M0 0 C17.61131901 -0.11293539 35.22232828 -0.20501194 52.83390903 -0.25906086 C61.0115564 -0.28482548 69.18896255 -0.31994239 77.36645508 -0.37719727 C84.49527126 -0.42708596 91.62391273 -0.45930369 98.75289863 -0.47044247 C102.52656719 -0.47695211 106.29973597 -0.49221427 110.07324409 -0.52865028 C113.62823138 -0.56269682 117.18251508 -0.57303595 120.73764992 -0.56553841 C122.65796528 -0.56756063 124.57820475 -0.59441064 126.49832153 -0.62210083 C133.6997906 -0.57920632 137.70216213 -0.02672342 143 5 C145.6979409 9.04691135 145.65804393 12.24746049 145 17 C142.74087131 21.51825738 140.47600058 23.76098668 136 26 C133.26079845 26.36914349 133.26079845 26.36914349 130.23564148 26.36076355 C128.50884407 26.36694954 128.50884407 26.36694954 126.74716187 26.3732605 C125.49343781 26.36247467 124.23971375 26.35168884 122.94799805 26.34057617 C121.60737629 26.33972947 120.26675315 26.34020589 118.9261322 26.34190369 C115.2941903 26.34276339 111.66254646 26.32514191 108.03067374 26.30418181 C104.23236339 26.28541075 100.43404599 26.28366424 96.63569641 26.28010559 C89.44635576 26.27078637 82.25715219 26.24617431 75.06787187 26.21605712 C66.8817158 26.18250924 58.69555313 26.16602613 50.50934541 26.15097082 C33.67280408 26.11962458 16.83645152 26.06461412 0 26 C0 17.42 0 8.84 0 0 Z " fill="#43A7EB" transform="translate(351,243)"/>
<path d="M0 0 C1.72679741 -0.00618599 1.72679741 -0.00618599 3.48847961 -0.01249695 C5.3690657 0.00368179 5.3690657 0.00368179 7.28764343 0.02018738 C8.62826519 0.02103408 9.96888833 0.02055766 11.30950928 0.01885986 C14.94145118 0.01800016 18.57309502 0.03562164 22.20496774 0.05658174 C26.00327809 0.0753528 29.80159549 0.07709931 33.59994507 0.08065796 C40.78928572 0.08997718 47.97848929 0.11458924 55.16776961 0.14470643 C63.35392568 0.17825431 71.54008835 0.19473742 79.72629607 0.20979273 C96.5628374 0.24113897 113.39918996 0.29614943 130.23564148 0.36076355 C130.23564148 8.94076355 130.23564148 17.52076355 130.23564148 26.36076355 C112.62432247 26.47369894 95.0133132 26.56577549 77.40173244 26.61982441 C69.22408508 26.64558903 61.04667893 26.68070594 52.8691864 26.73796082 C45.74037022 26.78784951 38.61172875 26.82006724 31.48274285 26.83120602 C27.70907429 26.83771566 23.93590551 26.85297782 20.16239738 26.88941383 C16.6074101 26.92346037 13.0531264 26.9337995 9.49799156 26.92630196 C7.5776762 26.92832418 5.65743673 26.95517419 3.73731995 26.98286438 C-3.46391175 26.93997129 -7.44575356 26.35791679 -12.76435852 21.36076355 C-15.51626155 17.40015173 -15.43940823 13.01943991 -14.76435852 8.36076355 C-11.31402441 2.48241655 -6.73065658 -0.01864448 0 0 Z " fill="#43A7EB" transform="translate(30.764358520507813,242.6392364501953)"/>
<path d="M0 0 C4.52082534 2.26041267 6.74961747 4.52878506 9 9 C9.36914349 11.62987995 9.36914349 11.62987995 9.36076355 14.49861145 C9.36488754 15.59091064 9.36901154 16.68320984 9.3732605 17.80860901 C9.36247467 18.9968779 9.35168884 20.18514679 9.34057617 21.40942383 C9.34123329 23.29783493 9.34123329 23.29783493 9.34190369 25.22439575 C9.3427631 28.66833389 9.32514632 32.11195746 9.30418181 35.55582261 C9.28540595 39.15794157 9.28366386 42.76006805 9.28010559 46.36222839 C9.27078777 53.179705 9.24617764 59.99703699 9.21605712 66.81444997 C9.18250485 74.57739657 9.16602504 82.34035015 9.15097082 90.10335124 C9.11962778 106.06898453 9.0668725 122.0344736 9 138 C7.97741592 137.78364143 7.97741592 137.78364143 6.93417358 137.56291199 C6.03727814 137.37739273 5.14038269 137.19187347 4.21630859 137.00073242 C3.32833588 136.81524338 2.44036316 136.62975433 1.52548218 136.43864441 C-1.5427629 135.90572893 -4.28470021 135.96867308 -7.375 136.3125 C-8.35210937 136.41175781 -9.32921875 136.51101562 -10.3359375 136.61328125 C-12.62223022 136.94516245 -14.76821986 137.42080699 -17 138 C-17.11689783 121.30144279 -17.20501951 104.60301869 -17.25906086 87.90415096 C-17.28482227 80.15023543 -17.31993289 72.39657442 -17.37719727 64.64282227 C-17.42709596 57.88316997 -17.45930603 51.12370204 -17.47044247 44.36387068 C-17.47695046 40.78580972 -17.49220171 37.20827608 -17.52865028 33.63038445 C-17.56904879 29.63217844 -17.56994533 25.63488414 -17.56762695 21.63647461 C-17.58560333 20.45539627 -17.60357971 19.27431793 -17.62210083 18.05744934 C-17.57783086 11.00441588 -16.87515834 7.21192555 -12 2 C-7.95308865 -0.6979409 -4.75253951 -0.65804393 0 0 Z " fill="#43A6EA" transform="translate(260,16)"/>
<path d="M0 0 C1.02700264 0.21635857 1.02700264 0.21635857 2.07475281 0.43708801 C2.97393936 0.62260727 3.87312592 0.80812653 4.79956055 0.99926758 C6.13593819 1.27750114 6.13593819 1.27750114 7.49931335 1.56135559 C10.38342654 2.06725669 12.909781 2.04870791 15.8125 1.6875 C16.68519531 1.58824219 17.55789063 1.48898437 18.45703125 1.38671875 C20.99114506 1.0013466 23.48852344 0.51046697 26 0 C26.09352025 16.56819439 26.16401675 33.13630291 26.20724869 49.70469761 C26.22785729 57.39802954 26.25594511 65.09119729 26.30175781 72.78442383 C26.34167798 79.49133778 26.36744519 86.19813281 26.37635398 92.90516227 C26.38156004 96.45519515 26.39376002 100.00488784 26.42292023 103.55481148 C26.45524007 107.52171234 26.45595607 111.48828307 26.45410156 115.45532227 C26.47567322 117.21291367 26.47567322 117.21291367 26.49768066 119.00601196 C26.46445629 125.57175113 25.95491076 129.67813593 22 135 C18.35734785 138.22634905 14.85465956 138.52746208 10.1484375 138.34765625 C6.80557666 137.80672059 5.23259827 136.49525689 3 134 C-0.94129507 128.20006821 -0.40246663 122.31300103 -0.34057617 115.56884766 C-0.34101425 114.31951447 -0.34145233 113.07018127 -0.34190369 111.7829895 C-0.34017578 108.3700151 -0.32516457 104.95758981 -0.30418181 101.54471254 C-0.28538637 97.9732962 -0.28366232 94.40187199 -0.28010559 90.83041382 C-0.27079351 84.07317693 -0.24619118 77.31608621 -0.21605712 70.55891359 C-0.18248694 62.86365736 -0.16602054 55.16839404 -0.15097082 47.47308278 C-0.11964079 31.64863729 -0.06689672 15.82433752 0 0 Z " fill="#43A6EA" transform="translate(243,358)"/>
<path d="M0 0 C2.82794311 1.77271408 4.9818032 3.90034969 7.3530426 6.25163269 C8.10746895 6.9959832 8.10746895 6.9959832 8.87713623 7.75537109 C10.53451053 9.39378339 12.18427263 11.039604 13.83326721 12.68644714 C14.98606953 13.83281966 16.13902079 14.97904241 17.29211426 16.12512207 C19.70727779 18.52831686 22.11827739 20.9356039 24.52687073 23.34538269 C27.60568063 26.42439561 30.69800401 29.48943263 33.79409122 32.55105877 C36.17993772 34.91460663 38.55657633 37.28725169 40.93076897 39.66250038 C42.06658394 40.79596327 43.20562513 41.92620318 44.34799385 43.05306053 C45.94924266 44.63459257 47.53717938 46.22844725 49.12257385 47.82585144 C50.02762161 48.72804916 50.93266937 49.63024689 51.86514282 50.55978394 C54.84430507 54.17722413 56.89720849 57.87048422 57.42311096 62.62004089 C56.74809143 67.66159302 55.33862372 70.14342308 51.17311096 73.36222839 C48.15347094 75.11044104 46.36669605 75.36222839 42.86061096 75.36222839 C32.85624706 72.64918056 25.48004726 62.96263621 18.36061096 55.81535339 C17.1392229 54.59531447 15.91753823 53.37557241 14.6955719 52.15611267 C12.15080822 49.61428182 9.60965838 47.06890785 7.07106018 44.5209198 C3.81158346 41.2499765 0.5431108 37.98819225 -2.72805786 34.72894669 C-5.24515298 32.21905796 -7.75749093 29.70445119 -10.26838684 27.18836212 C-11.47264187 25.98277097 -12.67838974 24.77866912 -13.88563538 23.57607269 C-15.56363683 21.90312423 -17.2351378 20.22394585 -18.90501404 18.54289246 C-19.65759743 17.79638176 -19.65759743 17.79638176 -20.42538452 17.03479004 C-23.82688904 13.59077099 -23.82688904 13.59077099 -23.82688904 11.36222839 C-21.21713487 9.93872612 -18.60663248 8.51701878 -15.99095154 7.10441589 C-13.90447673 5.9555668 -11.83580329 4.77369161 -9.78782654 3.55754089 C-8.35309998 2.71836121 -8.35309998 2.71836121 -6.88938904 1.86222839 C-6.0141156 1.33629089 -5.13884216 0.81035339 -4.23704529 0.26847839 C-1.82688904 -0.63777161 -1.82688904 -0.63777161 0 0 Z " fill="#43A6E9" transform="translate(337.82688903808594,319.6377716064453)"/>
<path d="M0 0 C2.22166652 0.98907437 4.29761451 2.09373695 6.39515686 3.32675171 C7.2394928 3.81981812 8.08382874 4.31288452 8.95375061 4.82089233 C10.26279358 5.59529663 10.26279358 5.59529663 11.59828186 6.38534546 C12.48644592 6.90548218 13.37460999 7.4256189 14.28968811 7.96151733 C16.47852446 9.24422251 18.66456167 10.53145602 20.84828186 11.82284546 C20.38404809 16.1238511 17.63253119 18.46170111 14.70521545 21.35409546 C14.17011353 21.89445435 13.6350116 22.43481323 13.08369446 22.99154663 C11.3121774 24.77626861 9.52990736 26.54978982 7.74671936 28.32284546 C6.50894487 29.56264142 5.27161596 30.80288238 4.03471375 32.04354858 C1.43852395 34.64416315 -1.16301808 37.23927085 -3.76841736 39.83065796 C-7.09735691 43.14255931 -10.4127184 46.46767354 -13.72413063 49.79708862 C-16.27870519 52.36254249 -18.84043056 54.9207601 -21.40432358 57.47689819 C-22.62885282 58.69943411 -23.85117938 59.92418061 -25.07120132 61.1512146 C-26.78437692 62.87206679 -28.50698037 64.58291443 -30.23228455 66.29159546 C-30.72918793 66.79457153 -31.22609131 67.29754761 -31.73805237 67.81576538 C-35.61632197 71.62559493 -40.09789464 75.39415415 -45.62828064 76.17050171 C-49.67317825 75.63363348 -51.76953701 75.11557994 -55.08921814 72.57284546 C-58.11660718 68.53632674 -59.0811785 66.21012499 -59.33921814 61.13534546 C-58.70272745 57.19187487 -56.95711384 55.15158456 -54.26622009 52.25912476 C-53.45093842 51.38073944 -52.63565674 50.50235413 -51.79566956 49.59735107 C-47.28506641 44.86402138 -42.73225338 40.17600888 -38.13218689 35.52987671 C-37.62690271 35.01926886 -37.12161854 34.508661 -36.60102272 33.98258018 C-33.94110874 31.29625967 -31.2777523 28.61340268 -28.61192322 25.93295288 C-26.41413201 23.72168535 -24.22389904 21.50330745 -22.03965759 19.27865601 C-19.38187822 16.57175552 -16.71221313 13.87715401 -14.03333473 11.19113731 C-13.01916473 10.17024708 -12.00926042 9.14510076 -11.00375938 8.11567116 C-9.60673216 6.68722871 -8.19248292 5.27569029 -6.77745056 3.86508179 C-5.9785289 3.05807327 -5.17960724 2.25106476 -4.35647583 1.41960144 C-2.15171814 -0.17715454 -2.15171814 -0.17715454 0 0 Z " fill="#43A6E9" transform="translate(176.15171813964844,319.1771545410156)"/>
<path d="M0 0 C8.61426116 4.31781984 15.20522589 11.76727137 21.91015625 18.51171875 C23.12996965 19.72950795 24.35022782 20.94685181 25.57090759 22.16377258 C28.11133361 24.69980164 30.64631823 27.24111256 33.17749023 29.78637695 C36.42566433 33.05175124 39.68727171 36.30332429 42.952981 39.55115032 C45.46761876 42.0549724 47.97509859 44.56586434 50.48043633 47.07898903 C51.68115396 48.28170914 52.88410751 49.48220129 54.0893116 50.68042564 C55.76489333 52.34841762 57.43060604 54.02567047 59.09399414 55.70581055 C59.84422096 56.44692833 59.84422096 56.44692833 60.60960388 57.20301819 C64 60.65718208 64 60.65718208 64 64 C61.01300588 66.4570701 57.57764701 68.28824666 54.25 70.25 C53.32960938 70.8171875 52.40921875 71.384375 51.4609375 71.96875 C50.12675781 72.76539063 50.12675781 72.76539063 48.765625 73.578125 C47.94868164 74.06700195 47.13173828 74.55587891 46.29003906 75.05957031 C43.48613353 76.21102491 42.79443197 76.10302881 40 75 C37.52708435 72.9147644 37.52708435 72.9147644 34.72827148 70.13232422 C34.21556702 69.626483 33.70286255 69.12064178 33.17462158 68.59947205 C31.48235068 66.92549682 29.80139552 65.24067092 28.12109375 63.5546875 C26.94609018 62.38424581 25.77071542 61.21417664 24.59498596 60.04446411 C22.13125341 57.58966919 19.67328858 55.12926884 17.21899414 52.66503906 C14.08133203 49.5159123 10.92814684 46.38287237 7.77017117 43.25413322 C5.33779808 40.84015977 2.91486083 38.41688444 0.494524 35.99084854 C-0.66375864 34.83241301 -1.82513114 33.67705807 -2.98968697 32.52492905 C-4.62215965 30.90742747 -6.24124064 29.27756099 -7.85766602 27.64404297 C-8.78047867 26.72106415 -9.70329132 25.79808533 -10.65406799 24.84713745 C-13.65255635 21.20802581 -15.72066891 17.52270887 -16.25 12.7421875 C-15.57407159 7.69384716 -14.12853061 5.26441955 -10 2 C-6.64876463 -0.2701917 -4.00029881 -0.60381869 0 0 Z " fill="#43A6E9" transform="translate(133,117)"/>
<path d="M0 0 C3.65281873 2.79790371 5.95131166 5.49064013 7 10 C7.22391692 14.40369949 7.00333038 16.68809245 4.30763245 20.21286011 C3.22638344 21.37762375 3.22638344 21.37762375 2.12329102 22.56591797 C0.90042892 23.88351105 0.90042892 23.88351105 -0.34713745 25.22772217 C-4.886087 29.97098685 -9.50582612 34.62846158 -14.16015625 39.2578125 C-15.20126547 40.29705063 -16.24214968 41.33651421 -17.28282166 42.37619019 C-19.98812086 45.07771851 -22.69641169 47.77622721 -25.40539551 50.47406006 C-28.18292928 53.2412612 -30.95754211 56.01138794 -33.73242188 58.78125 C-39.1521368 64.1903237 -44.57502415 69.59620214 -50 75 C-55.42564132 73.23297423 -59.97187396 70.94204775 -64.875 68.0625 C-65.65875 67.61970703 -66.4425 67.17691406 -67.25 66.72070312 C-67.98992187 66.28822266 -68.72984375 65.85574219 -69.4921875 65.41015625 C-70.50321533 64.82439819 -70.50321533 64.82439819 -71.53466797 64.22680664 C-72.01822754 63.82196045 -72.50178711 63.41711426 -73 63 C-73 59.3662706 -71.91776905 58.55546006 -69.46046448 56.05387878 C-68.9384697 55.5379567 -68.41647491 55.02203461 -67.87866211 54.49047852 C-67.33395264 53.94051208 -66.78924316 53.39054565 -66.22802734 52.82391357 C-64.41862738 51.00127282 -62.59842579 49.18986968 -60.77734375 47.37890625 C-59.5157194 46.11526119 -58.25454069 44.85117105 -56.99378967 43.58665466 C-54.34454823 40.93298337 -51.6899402 38.28482998 -49.03149414 35.64038086 C-45.63415388 32.26006276 -42.25036542 28.86655109 -38.87055111 25.46872044 C-36.26536264 22.8526523 -33.65302194 20.24382018 -31.03851509 17.63706779 C-29.78886569 16.38941248 -28.54142116 15.13954456 -27.296278 13.88739204 C-25.54707209 12.13051087 -23.78843438 10.38362661 -22.02709961 8.63891602 C-21.26536186 7.86806923 -21.26536186 7.86806923 -20.48823547 7.08164978 C-14.40489396 1.1034979 -8.55530052 -2.77686114 0 0 Z " fill="#43A6E9" transform="translate(388,118)"/>
<path d="M0 0 C3.45658479 2.04573386 4.7785359 3.66780385 7 7 C7.44140625 9.19921875 7.44140625 9.19921875 7.5625 11.6875 C7.62566406 12.49574219 7.68882812 13.30398437 7.75390625 14.13671875 C5.68981391 21.97599175 -3.25631433 28.35318822 -8.875 33.875 C-10.39550816 35.37008161 -11.91385411 36.86736644 -13.4296875 38.3671875 C-14.09210449 39.01800293 -14.75452148 39.66881836 -15.43701172 40.33935547 C-17.08544452 41.93142515 -17.08544452 41.93142515 -18 44 C-30.21 44 -42.42 44 -55 44 C-48.24827884 36.12299198 -48.24827884 36.12299198 -45.15356445 33.02416992 C-44.4629744 32.3304277 -43.77238434 31.63668549 -43.06086731 30.92192078 C-42.33566391 30.19874161 -41.61046051 29.47556244 -40.86328125 28.73046875 C-39.72139595 27.58714836 -39.72139595 27.58714836 -38.55644226 26.42073059 C-36.95837132 24.82198307 -35.35905258 23.22448195 -33.75854492 21.62817383 C-31.30596689 19.18098123 -28.85880849 16.72845943 -26.41210938 14.27539062 C-24.85448746 12.718429 -23.29655565 11.16177734 -21.73828125 9.60546875 C-21.00700516 8.87216843 -20.27572906 8.1388681 -19.52229309 7.38334656 C-18.50059273 6.36637444 -18.50059273 6.36637444 -17.45825195 5.32885742 C-16.86123978 4.73264084 -16.2642276 4.13642426 -15.64912415 3.5221405 C-10.84254505 -0.91432885 -6.24876305 -0.75936652 0 0 Z " fill="#90DBFB" transform="translate(465,184)"/>
<path d="M0 0 C5.24132847 4.3896766 10.16772479 8.99410984 15.015625 13.8125 C15.75327087 14.5444458 16.49091675 15.2763916 17.25091553 16.03051758 C18.79854492 17.56875745 20.34476951 19.10841187 21.88964844 20.64941406 C24.25008797 23.0000876 26.62098459 25.33987826 28.9921875 27.6796875 C30.50065738 29.18163172 32.00849207 30.68421422 33.515625 32.1875 C34.22189026 32.88141846 34.92815552 33.57533691 35.65582275 34.2902832 C40.05025672 38.70476342 43.50739839 42.62216037 44.4375 49 C43.7699315 53.57761258 41.59310393 56.59847186 38.1484375 59.62890625 C34.93191503 61.68163241 32.44763514 61.79365376 28.6875 61.640625 C23.72133463 60.45682977 20.98493538 57.09897506 17.578125 53.48291016 C15.77786126 51.79126382 13.85875956 50.48806422 11.8125 49.10546875 C6.36170336 45.08719949 1.04070553 40.94342589 -0.42565918 33.97808838 C-1.87527242 22.76400068 -0.93425711 11.22545852 0 0 Z " fill="#91DCFD" transform="translate(285,411)"/>
<path d="M0 0 C-4.38519321 5.23139879 -8.97719635 10.1641468 -13.77734375 15.015625 C-14.87170494 16.12209381 -14.87170494 16.12209381 -15.98817444 17.25091553 C-17.52213539 18.79862317 -19.05759518 20.34484659 -20.59448242 21.88964844 C-22.15919251 23.46593448 -23.71941093 25.0466917 -25.27514648 26.63183594 C-27.53696132 28.93631753 -29.81173515 31.22726264 -32.08984375 33.515625 C-32.77860092 34.22189026 -33.46735809 34.92815552 -34.17698669 35.65582275 C-38.21555666 39.67651301 -41.53844797 42.26240221 -47 44 C-52.33248998 43.90806052 -55.18704635 42.70401211 -59 39 C-61.04434593 35.9334811 -61.38988272 34.85950668 -61.5625 31.3125 C-61.62566406 30.50425781 -61.68882813 29.69601562 -61.75390625 28.86328125 C-60.74352222 25.02591598 -58.65616387 23.05331222 -55.97387695 20.19213867 C-53.99198532 17.9910991 -52.34062163 15.70667657 -50.64453125 13.28125 C-37.0991071 -4.34546777 -20.2500974 -1.91594808 0 0 Z " fill="#91DCFD" transform="translate(101,285)"/>
<path d="M0 0 C9.12019273 6.57876526 16.93264846 15.77987283 24.85351562 23.72314453 C27.15118966 26.02625158 29.45425506 28.3238728 31.7578125 30.62109375 C33.21646721 32.08040801 34.67481237 33.54003175 36.1328125 35 C36.82327667 35.68843994 37.51374084 36.37687988 38.22512817 37.08618164 C38.85353607 37.7177417 39.48194397 38.34930176 40.12939453 39 C40.68547394 39.556875 41.24155334 40.11375 41.81448364 40.6875 C43 42 43 42 43 43 C11.43198312 47.11206633 11.43198312 47.11206633 1.08584595 39.25726318 C-5.39465313 33.70020725 -17.17356558 23.56425052 -18.2734375 14.828125 C-18.58146625 7.00893364 -18.58146625 7.00893364 -15.75 3.5 C-10.60601408 -1.17635084 -6.63293929 -2.08200945 0 0 Z " fill="#91DCFD" transform="translate(58,184)"/>
<path d="M0 0 C3.93966237 31.73075222 3.93966237 31.73075222 -3.55885315 41.73027039 C-9.11520893 48.25681031 -19.6908005 60.08035397 -28.3046875 61.3359375 C-35.23195876 61.44121518 -35.23195876 61.44121518 -38.9375 59.3125 C-42.30150367 55.54073831 -44.30473437 52.99401998 -44.25 47.8125 C-42.250857 36.60361961 -27.06051341 25.90818797 -19.27685547 18.14648438 C-16.97374842 15.84881034 -14.6761272 13.54574494 -12.37890625 11.2421875 C-10.91959199 9.78353279 -9.45996825 8.32518763 -8 6.8671875 C-6.96734009 5.83149124 -6.96734009 5.83149124 -5.91381836 4.77487183 C-5.2822583 4.14646393 -4.65069824 3.51805603 -4 2.87060547 C-3.443125 2.31452606 -2.88625 1.75844666 -2.3125 1.18551636 C-1 0 -1 0 0 0 Z " fill="#91DCFD" transform="translate(227,411)"/>
<path d="M0 0 C3.29587509 2.08924963 5.75789388 4.68948057 8.421875 7.51708984 C10.22213874 9.20873618 12.14124044 10.51193578 14.1875 11.89453125 C19.63829664 15.91280051 24.95929447 20.05657411 26.42565918 27.02191162 C27.87527242 38.23599932 26.93425711 49.77454148 26 61 C20.76860121 56.61480679 15.8358532 52.02280365 10.984375 47.22265625 C10.24672913 46.49308212 9.50908325 45.763508 8.74908447 45.01182556 C7.20137683 43.47786461 5.65515341 41.94240482 4.11035156 40.40551758 C2.53406552 38.84080749 0.9533083 37.28058907 -0.63183594 35.72485352 C-2.93631753 33.46303868 -5.22726264 31.18826485 -7.515625 28.91015625 C-8.22189026 28.22139908 -8.92815552 27.53264191 -9.65582275 26.82301331 C-14.08241859 22.37673272 -17.88955951 18.11878075 -18.06640625 11.5234375 C-17.01969651 7.06072157 -15.88161725 3.5734167 -11.890625 0.83203125 C-7.80085116 -0.96780724 -4.30946086 -1.17062967 0 0 Z " fill="#91DDFD" transform="translate(201,40)"/>
<path d="M0 0 C3.69062733 1.96309964 4.81720211 3.67705706 6.875 7.3125 C8.23019583 11.75453079 8.49967537 13.57595765 7 18 C0.08612712 27.00860906 -8.69881675 34.85182101 -16.72314453 42.85351562 C-19.02625158 45.15118966 -21.3238728 47.45425506 -23.62109375 49.7578125 C-25.08040801 51.21646721 -26.54003175 52.67481237 -28 54.1328125 C-28.68843994 54.82327667 -29.37687988 55.51374084 -30.08618164 56.22512817 C-30.7177417 56.85353607 -31.34930176 57.48194397 -32 58.12939453 C-32.556875 58.68547394 -33.11375 59.24155334 -33.6875 59.81448364 C-35 61 -35 61 -36 61 C-39.93966237 29.26924778 -39.93966237 29.26924778 -32.44114685 19.26972961 C-24.22577609 9.61988943 -13.33432709 -1.68545894 0 0 Z " fill="#91DDFD" transform="translate(321,40)"/>
<path d="M0 0 C31.56801688 -4.11206633 31.56801688 -4.11206633 41.91415405 3.74273682 C48.39465313 9.29979275 60.17356558 19.43574948 61.2734375 28.171875 C61.58137554 35.98876369 61.58137554 35.98876369 58.625 39.5625 C54.57681558 43.32152839 51.54011374 43.69678118 46.09716797 43.54296875 C42.49184663 42.91091494 41.31283229 42.03191892 38.6953125 39.5234375 C37.83583008 38.70665527 36.97634766 37.88987305 36.09082031 37.04833984 C35.05901821 36.03377887 34.02889836 35.01750564 33 34 C32.38217651 33.39472473 31.76435303 32.78944946 31.12780762 32.16583252 C26.77334759 27.8966227 22.4524154 23.59496602 18.14648438 19.27685547 C15.84881034 16.97374842 13.54574494 14.6761272 11.2421875 12.37890625 C9.78353279 10.91959199 8.32518763 9.45996825 6.8671875 8 C6.17672333 7.31156006 5.48625916 6.62312012 4.77487183 5.91381836 C4.14646393 5.2822583 3.51805603 4.65069824 2.87060547 4 C2.31452606 3.443125 1.75844666 2.88625 1.18551636 2.3125 C0 1 0 1 0 0 Z " fill="#91DDFD" transform="translate(411,285)"/>
</svg>
