<?xml version="1.0" encoding="UTF-8"?>
<svg version="1.1" xmlns="http://www.w3.org/2000/svg" width="512" height="512">
<path d="M0 0 C1.09225891 0.3480217 2.18451782 0.6960434 3.30987549 1.05461121 C6.75938421 2.15823499 10.19981462 3.28755494 13.640625 4.41796875 C15.9616887 5.16512496 18.28330011 5.91058192 20.60546875 6.65429688 C24.87159709 8.02458121 29.13488345 9.40284951 33.39355469 10.79614258 C34.32190628 11.09962616 35.25025787 11.40310974 36.20674133 11.71578979 C37.97846383 12.303097 39.74650961 12.90162932 41.51042175 13.51199341 C42.71170464 13.92649246 42.71170464 13.92649246 43.93725586 14.34936523 C44.63523788 14.59484604 45.33321991 14.84032684 46.05235291 15.09324646 C48.67549697 15.8241681 50.3834227 15.63545456 52.890625 14.60546875 C54.83229117 13.17398311 54.83229117 13.17398311 56.578125 11.35546875 C66.06255945 2.67328909 76.97734901 0.09964632 89.55859375 0.36328125 C99.84549598 1.11098106 107.68251565 4.41633798 115.890625 10.60546875 C116.54351501 11.41392242 116.54351501 11.41392242 117.20959473 12.2387085 C119.00950847 14.28491318 120.4013953 15.46412554 122.890625 16.60546875 C127.63496366 16.27211569 131.88263521 14.66183319 136.33984375 13.0703125 C137.6419511 12.63484477 138.94518374 12.20272877 140.24946594 11.77381897 C143.67415091 10.63787808 147.0820656 9.45806481 150.48828125 8.26806641 C153.95280685 7.06600554 157.43080773 5.90442424 160.90820312 4.74023438 C167.02279032 2.68939444 173.12405058 0.60231351 179.21684265 -1.5125885 C187.34785811 -4.1945907 196.21528347 -5.06084813 204.203125 -1.45703125 C211.29449779 2.6314801 216.7996621 8.68538065 219.41796875 16.48828125 C220.92137347 23.22254042 221.05097568 29.78099532 221.05859375 36.65625 C221.06192215 37.71023483 221.06525055 38.76421967 221.06867981 39.85014343 C221.07372646 42.07318691 221.07608884 44.29623791 221.07592773 46.51928711 C221.07811109 49.89645042 221.09628261 53.27328513 221.11523438 56.65039062 C221.1181695 58.81900931 221.1201535 60.98762953 221.12109375 63.15625 C221.12827927 64.15449295 221.13546478 65.1527359 221.14286804 66.18122864 C221.11578539 74.61129163 220.34646556 82.71313087 216.265625 90.23046875 C215.81960938 91.06835938 215.37359375 91.90625 214.9140625 92.76953125 C214.57632812 93.37539062 214.23859375 93.98125 213.890625 94.60546875 C214.68984375 95.43046875 215.4890625 96.25546875 216.3125 97.10546875 C233.87603733 115.46979985 247.53747495 135.92006585 256.890625 159.60546875 C257.56351562 161.27222656 257.56351562 161.27222656 258.25 162.97265625 C267.03916947 186.03066257 270.07529792 210.32287503 270.00415039 234.86279297 C270.00386736 236.22444659 270.00402851 237.58610037 270.0045929 238.94775391 C270.00487635 242.59558267 269.99905367 246.24337763 269.99201894 249.89119864 C269.98570922 253.72150081 269.98517564 257.55180402 269.98399353 261.3821106 C269.98090245 268.61359224 269.97271944 275.84505852 269.96264404 283.07653344 C269.95141333 291.31853712 269.94595503 299.56054159 269.94094861 307.80255103 C269.93053464 324.73686578 269.91297886 341.67116563 269.890625 358.60546875 C271.13392578 358.74791016 272.37722656 358.89035156 273.65820312 359.03710938 C277.77784365 359.50908478 281.52713304 360.62272053 285.390625 362.10546875 C286.07423096 362.36682617 286.75783691 362.62818359 287.4621582 362.89746094 C310.97688757 372.242059 327.52304266 387.6276117 342.890625 407.60546875 C342.890625 427.40546875 342.890625 447.20546875 342.890625 467.60546875 C277.220625 467.60546875 211.550625 467.60546875 143.890625 467.60546875 C143.560625 469.25546875 143.230625 470.90546875 142.890625 472.60546875 C135.35889269 488.23654219 123.655646 499.69290131 107.328125 505.60546875 C91.78123509 510.68776647 75.93264532 510.15122704 60.890625 503.60546875 C46.68625489 496.27188418 36.30101817 485.22116518 29.890625 470.60546875 C29.890625 469.61546875 29.890625 468.62546875 29.890625 467.60546875 C-35.779375 467.60546875 -101.449375 467.60546875 -169.109375 467.60546875 C-169.109375 406.11271513 -169.109375 406.11271513 -151.796875 386.79296875 C-138.52460735 374.1019683 -115.14129712 358.60546875 -96.109375 358.60546875 C-96.11121859 357.91268955 -96.11306217 357.21991035 -96.11496162 356.50613785 C-96.15935499 339.5583723 -96.19233491 322.61062545 -96.21299934 305.66281509 C-96.22326109 297.46659491 -96.23722233 289.27041382 -96.26025391 281.07421875 C-96.28034563 273.92074102 -96.29312838 266.76729163 -96.29755199 259.61378646 C-96.300133 255.83485763 -96.30608947 252.0560098 -96.32083511 248.27710724 C-96.39369926 228.84634019 -96.38353402 209.45274069 -92.296875 190.35546875 C-92.12510742 189.53377197 -91.95333984 188.7120752 -91.77636719 187.86547852 C-83.90928237 151.52419093 -65.14297252 121.62503017 -40.109375 94.60546875 C-40.53089844 93.74824219 -40.95242187 92.89101562 -41.38671875 92.0078125 C-41.93457031 90.86441406 -42.48242188 89.72101563 -43.046875 88.54296875 C-43.59214844 87.41761719 -44.13742188 86.29226562 -44.69921875 85.1328125 C-47.49194688 78.14712414 -47.26913078 70.96683692 -47.27734375 63.5546875 C-47.28233635 61.97371025 -47.28233635 61.97371025 -47.28742981 60.36079407 C-47.29247646 58.13775059 -47.29483884 55.91469959 -47.29467773 53.69165039 C-47.29686109 50.31448708 -47.31503261 46.93765237 -47.33398438 43.56054688 C-47.3369195 41.39192819 -47.3389035 39.22330797 -47.33984375 37.0546875 C-47.34702927 36.05644455 -47.35421478 35.0582016 -47.36161804 34.02970886 C-47.32542593 22.76412865 -45.75516822 12.39593428 -37.921875 3.85546875 C-26.83934036 -6.38357488 -13.39594522 -4.47177243 0 0 Z " fill="#646152" transform="translate(169.109375,3.39453125)"/>
<path d="M0 0 C1.175625 0.79083984 1.175625 0.79083984 2.375 1.59765625 C11.39630975 7.63659222 21.87678571 7.8104925 32.375 6.66015625 C38.33220885 5.43488545 44.28898269 3.56318958 48.82421875 -0.57421875 C51.375 -2.33984375 51.375 -2.33984375 54.6875 -2.2421875 C58.63986139 -1.27503127 62.51166931 -0.17185836 66.375 1.09765625 C67.16535645 1.35208496 67.95571289 1.60651367 68.77001953 1.86865234 C70.58480319 2.45368352 72.39870791 3.04144541 74.21191406 3.63134766 C78.5036556 5.0272568 82.79869384 6.41290853 87.09381104 7.79838562 C90.45385015 8.88229094 93.81348283 9.96739774 97.171875 11.05639648 C99.68857967 11.8722659 102.20704696 12.68180002 104.72680664 13.48828125 C107.15196918 14.26729351 109.57312049 15.05890939 111.98999023 15.86328125 C113.69070679 16.41628906 113.69070679 16.41628906 115.42578125 16.98046875 C116.42262939 17.31062988 117.41947754 17.64079102 118.4465332 17.98095703 C121.67974122 18.73083487 124.3891725 18.65339813 127.6875 18.41015625 C135.48866497 18.78793664 139.55449837 23.71553197 144.62841797 29.10424805 C146.57993584 31.26105177 148.48729818 33.44739588 150.375 35.66015625 C150.88224609 36.25006348 151.38949219 36.8399707 151.91210938 37.44775391 C158.73937401 45.52443686 164.25507011 54.43634095 169.375 63.66015625 C169.72304688 64.28229004 170.07109375 64.90442383 170.4296875 65.54541016 C204.36108242 127.07795386 189.375 209.61355654 189.375 272.66015625 C79.815 272.66015625 -29.745 272.66015625 -142.625 272.66015625 C-142.625 114.86408532 -142.625 114.86408532 -136.25 95.53515625 C-135.9403833 94.56416992 -135.6307666 93.59318359 -135.31176758 92.59277344 C-133.179545 86.0339616 -130.82968335 79.77590012 -127.625 73.66015625 C-126.89763211 72.20092201 -126.17115958 70.74124131 -125.4453125 69.28125 C-118.26875497 55.04540831 -109.74559732 42.534966 -99.19921875 30.58984375 C-97.63067451 28.80470236 -96.1004878 26.98356655 -94.64453125 25.10546875 C-91.90351083 21.82091976 -90.01620754 19.83921691 -85.65454102 19.27783203 C-84.53233154 19.26220215 -83.41012207 19.24657227 -82.25390625 19.23046875 C-74.42325353 18.82970126 -67.74871641 16.83837813 -60.375 14.28515625 C-59.05206277 13.84275533 -57.72847667 13.40229075 -56.40429688 12.96362305 C-52.88091353 11.79317006 -49.36345006 10.60594919 -45.84741211 9.41363525 C-39.69665687 7.32830422 -33.54081794 5.25942644 -27.37414551 3.22161865 C-25.1640366 2.48565538 -22.96056903 1.73185212 -20.75683594 0.97705078 C-19.39026424 0.52288864 -18.02341557 0.06955877 -16.65625 -0.3828125 C-14.87057617 -0.9864563 -14.87057617 -0.9864563 -13.04882812 -1.60229492 C-8.24311821 -2.63752379 -4.38291972 -2.23711527 0 0 Z " fill="#EFD255" transform="translate(232.625,86.33984375)"/>
<path d="M0 0 C4.15208298 0.00913514 8.30410125 -0.00496067 12.45617092 -0.01591969 C20.56797786 -0.03361964 28.67963599 -0.02990333 36.79144854 -0.01826912 C43.38893463 -0.00920191 49.98637927 -0.00802494 56.58386981 -0.01236439 C57.52612046 -0.01297732 58.46837111 -0.01359025 59.43917481 -0.01422176 C61.35387104 -0.01550077 63.26856726 -0.01679763 65.18326347 -0.01811212 C83.09786407 -0.02949278 101.01238252 -0.01644347 118.92696964 0.00508934 C134.27014394 0.02296095 149.61319716 0.01985081 164.95636928 0.0014143 C182.8124117 -0.02003192 200.66838232 -0.02839744 218.52443582 -0.01613665 C220.43142365 -0.01486257 222.3384115 -0.01360508 224.24539936 -0.01236439 C225.65248865 -0.01143873 225.65248865 -0.01143873 227.08800398 -0.01049438 C233.67157019 -0.00705294 240.25509053 -0.01284364 246.83864963 -0.0222826 C254.87032359 -0.03354564 262.90184136 -0.03037246 270.93349762 -0.00915962 C275.02469859 0.00129276 279.11563992 0.00557296 283.20683849 -0.00775623 C314.43748153 -0.10110068 314.43748153 -0.10110068 327.3477267 4.52289867 C328.8850475 5.02028168 328.8850475 5.02028168 330.45342529 5.52771282 C351.40463712 12.42233082 366.53663749 25.64267852 380.3477267 42.52289867 C380.3477267 55.06289867 380.3477267 67.60289867 380.3477267 80.52289867 C221.9477267 80.52289867 63.5477267 80.52289867 -99.6522733 80.52289867 C-99.6522733 41.35623201 -99.6522733 41.35623201 -87.2772733 27.83539867 C-62.53871917 3.95383834 -32.75007858 -0.10678731 0 0 Z " fill="#D9BF4E" transform="translate(115.65227329730988,374.47710132598877)"/>
<path d="M0 0 C-0.61746094 0.46148437 -1.23492187 0.92296875 -1.87109375 1.3984375 C-30.0129935 23.07241204 -48.53041865 58.68754101 -56.8125 92.6875 C-57.00739014 93.48115967 -57.20228027 94.27481934 -57.40307617 95.0925293 C-60.33375699 107.8911702 -61.29657885 120.75656868 -61.31884766 133.8515625 C-61.32818197 135.25292516 -61.3383556 136.65428244 -61.34928894 138.05563354 C-61.3762092 141.80248918 -61.39162324 145.54930811 -61.40471697 149.29623413 C-61.4205169 153.23333881 -61.44725175 157.1703702 -61.4727478 161.10742188 C-61.51924089 168.53713102 -61.55612603 175.96685441 -61.58942068 183.39663315 C-61.62785242 191.86605442 -61.67720622 200.33540155 -61.72740483 208.80475998 C-61.83028551 226.20312499 -61.91824523 243.60152201 -62 261 C-73.22 261 -84.44 261 -96 261 C-96.06802809 242.58741355 -96.1231614 224.17493069 -96.15543652 205.76224995 C-96.17082853 197.21067582 -96.19176909 188.65918599 -96.22631836 180.10766602 C-96.25645796 172.64397801 -96.2756305 165.18035112 -96.28226548 157.71660393 C-96.28613671 153.7738402 -96.29506908 149.83125116 -96.31719017 145.88854408 C-96.43058261 124.84994622 -96.28846085 104.07853917 -89.625 83.875 C-89.3153833 82.90401367 -89.0057666 81.93302734 -88.68676758 80.93261719 C-86.554545 74.37380535 -84.20468335 68.11574387 -81 62 C-80.27263211 60.54076576 -79.54615958 59.08108506 -78.8203125 57.62109375 C-71.64375497 43.38525206 -63.12059732 30.87480975 -52.57421875 18.9296875 C-51.00567451 17.14454611 -49.4754878 15.3234103 -48.01953125 13.4453125 C-45.33669175 10.23048137 -43.47366087 8.22511368 -39.23828125 7.578125 C-36.96395154 7.52325577 -34.6890054 7.49143141 -32.4140625 7.4765625 C-25.38981945 7.05156066 -18.72349752 4.09951161 -12.17578125 1.70507812 C-10.67724609 1.16657227 -10.67724609 1.16657227 -9.1484375 0.6171875 C-8.25302246 0.28315918 -7.35760742 -0.05086914 -6.43505859 -0.39501953 C-3.83512378 -1.04096283 -2.49176837 -0.89245472 0 0 Z " fill="#DEC453" transform="translate(186,98)"/>
<path d="M0 0 C1.12535156 -0.02513672 1.12535156 -0.02513672 2.2734375 -0.05078125 C8.40024125 0.89571833 11.72553463 5.34255519 15.30859375 9.97265625 C18.2399021 14.06928507 20.77903488 18.40007205 23.3125 22.75 C23.76383301 23.52408203 24.21516602 24.29816406 24.68017578 25.09570312 C42.75470396 56.83051827 45.81205543 89.13858118 45.86523438 124.89477539 C45.87178512 127.5646961 45.88377228 130.23381009 45.90625 132.90356445 C45.93664687 136.79127706 45.9472676 140.67858826 45.953125 144.56640625 C45.9654718 145.75706192 45.9778186 146.94771759 45.99053955 148.17445374 C45.97111344 155.37459853 45.42596233 160.08714944 40.5625 165.6875 C36.26060405 168.06727223 32.4307168 168.21213018 27.625 167.3125 C23.73636871 165.30059056 21.23714646 162.36242134 19.625 158.3125 C19.35998535 155.7953949 19.35998535 155.7953949 19.33789062 152.92749023 C19.32447632 151.84793564 19.31106201 150.76838104 19.29724121 149.65611267 C19.29196411 148.48955643 19.28668701 147.32300018 19.28125 146.12109375 C19.2666272 144.90664078 19.25200439 143.69218781 19.23693848 142.44093323 C19.19041581 138.54398947 19.15630196 134.64709388 19.125 130.75 C18.80383282 91.57995641 15.56655444 54.45336732 -9.03515625 22.15234375 C-12.27481226 17.7037199 -12.66526401 14.88072046 -11.921875 9.5 C-10.44444299 3.59027196 -5.9789783 0.0306091 0 0 Z " fill="#FEFEFD" transform="translate(367.375,134.6875)"/>
<path d="M0 0 C5.84134684 5.7231693 5.84134684 5.7231693 6.23725891 9.49604797 C6.2418663 10.48388779 6.24647369 11.4717276 6.2512207 12.48950195 C6.26075272 13.61109207 6.27028473 14.73268219 6.28010559 15.88825989 C6.27919418 17.10075912 6.27828278 18.31325836 6.27734375 19.5625 C6.28162888 20.80919968 6.285914 22.05589935 6.29032898 23.34037781 C6.29607781 25.98088625 6.2975019 28.62100455 6.29223633 31.26147461 C6.28760239 33.96476869 6.2945232 36.66761345 6.31274414 39.37084961 C6.33725581 43.26820582 6.34139859 47.16507627 6.33984375 51.0625 C6.3490535 52.26892654 6.35826324 53.47535309 6.36775208 54.71833801 C6.3303302 61.51353887 6.13245902 66.62205212 1.2890625 71.82421875 C-4.64367797 74.87076115 -9.43339273 74.11912694 -15.62304688 72.28930664 C-18.21133072 71.45381216 -20.79013492 70.60264157 -23.3671875 69.734375 C-24.74534465 69.28312045 -26.12397494 68.83330853 -27.50305176 68.38487244 C-31.11140952 67.20728944 -34.71305079 66.01035911 -38.31359863 64.80914307 C-41.99684143 63.58421 -45.68616276 62.37787959 -49.375 61.16992188 C-56.59718718 58.80191433 -63.81237344 56.41341337 -71.0234375 54.01171875 C-70.54484509 52.40738066 -70.06554192 50.80325459 -69.5859375 49.19921875 C-69.31910156 48.30589844 -69.05226563 47.41257813 -68.77734375 46.4921875 C-68.21955877 44.6569882 -67.62999175 42.83138149 -67.0234375 41.01171875 C-66.9271613 38.99275011 -66.89361925 36.97047585 -66.8984375 34.94921875 C-66.89457031 33.35400391 -66.89457031 33.35400391 -66.890625 31.7265625 C-67.05504854 27.12753945 -67.51914497 22.58423906 -68.0234375 18.01171875 C-58.34997082 14.76991681 -48.6731489 11.53846233 -38.98986816 8.32608032 C-34.32840064 6.779391 -29.67098993 5.22123615 -25.015625 3.65625 C-23.10187845 3.02378276 -21.18784558 2.39218077 -19.2734375 1.76171875 C-18.43216309 1.47482178 -17.59088867 1.1879248 -16.72412109 0.89233398 C-11.34193657 -0.85723598 -5.37736126 -2.62639459 0 0 Z " fill="#EB5D51" transform="translate(367.0234375,16.98828125)"/>
<path d="M0 0 C1.77225952 0.61488281 1.77225952 0.61488281 3.58032227 1.2421875 C4.23461212 1.46496872 4.88890198 1.68774994 5.5630188 1.9172821 C7.6781498 2.63976591 9.7872186 3.378472 11.89672852 4.1171875 C14.09962184 4.87347349 16.30396042 5.62544305 18.50834656 6.37736511 C19.99216273 6.88392059 21.47549071 7.3919083 22.95832825 7.90132141 C29.94885889 10.30029115 36.97699062 12.5696121 44.02172852 14.8046875 C45.08512451 15.14306641 46.14852051 15.48144531 47.24414062 15.83007812 C49.64858087 16.5943286 52.05354769 17.35685309 54.45922852 18.1171875 C54.30067383 18.96023437 54.14211914 19.80328125 53.97875977 20.671875 C52.49327343 30.52299493 52.92859443 39.43515921 56.58422852 48.7265625 C57.45922852 51.1171875 57.45922852 51.1171875 57.45922852 54.1171875 C47.07678395 57.64425268 36.70209085 61.1279462 26.15161133 64.12060547 C21.81932472 65.36932337 17.54689149 66.74689977 13.27954102 68.203125 C11.66559448 68.75335327 11.66559448 68.75335327 10.01904297 69.31469727 C7.89497029 70.04401385 5.77357037 70.78117366 3.65527344 71.52709961 C-5.74587885 74.75600548 -5.74587885 74.75600548 -10.54077148 74.1171875 C-15.50526122 71.58627117 -17.61460896 69.30599808 -19.54077148 64.1171875 C-20.01388465 59.8492006 -20.03267825 55.59975906 -20.04467773 51.30859375 C-20.05466293 50.06851059 -20.06464813 48.82842743 -20.07493591 47.55076599 C-20.09009945 44.93255951 -20.09716225 42.31429527 -20.09667969 39.69604492 C-20.09643537 37.01964727 -20.11733755 34.34478428 -20.15820312 31.66870117 C-20.21322057 27.79818853 -20.22789009 23.92945858 -20.23217773 20.05859375 C-20.25373428 18.86673965 -20.27529083 17.67488556 -20.29750061 16.44691467 C-20.24383126 9.92692352 -19.76091385 5.97277124 -15.02427673 1.29112244 C-10.60123507 -2.20894144 -5.14522232 -1.28284658 0 0 Z " fill="#EC5D51" transform="translate(158.540771484375,16.8828125)"/>
<path d="M0 0 C6.98401782 3.91696237 11.47375999 9.03435186 15.6875 15.75 C18.22305153 25.41679021 17.50344489 34.7864053 12.6875 43.5625 C9.46040373 48.82147169 3.71707948 53.11464244 -2.1171875 55.2109375 C-10.95112103 56.62562436 -20.33660161 56.84451386 -28.1953125 52.1875 C-34.66979688 47.21815406 -39.99247474 40.7258141 -41.3125 32.5625 C-41.99831263 22.14342353 -40.65423461 14.83360952 -34.1953125 6.4921875 C-25.03015218 -2.90115109 -11.92525458 -5.49229282 0 0 Z " fill="#D64F48" transform="translate(268.3125,22.4375)"/>
<path d="M0 0 C-2.75373429 2.18789848 -5.4375699 3.7756838 -8.625 5.25 C-18.29972573 10.01643379 -26.2073271 16.61612305 -34 24 C-34.72445312 24.68320312 -35.44890625 25.36640625 -36.1953125 26.0703125 C-38.19685632 28.01097285 -40.13899759 29.92285755 -42 32 C-42.48773895 32.53829941 -42.97547791 33.07659882 -43.47799683 33.63121033 C-47.88626659 38.91183511 -48.87873695 42.74297351 -48.8046875 49.53125 C-48.81839386 50.40777222 -48.83210022 51.28429443 -48.84622192 52.18737793 C-48.88330639 54.95878441 -48.87982188 57.72838209 -48.875 60.5 C-48.89314197 62.39065274 -48.91394936 64.2812819 -48.9375 66.171875 C-48.99411913 70.78229014 -48.99574544 75.38805832 -49 80 C-59.89 80 -70.78 80 -82 80 C-82.20818795 74.78502036 -82.38668856 69.58474358 -82.49438477 64.36889648 C-82.53930733 62.60049314 -82.60047359 60.83241759 -82.67895508 59.06518555 C-83.39472236 42.51833015 -83.39472236 42.51833015 -77.67578125 35.5 C-76.15528945 33.96139051 -74.59962324 32.45616619 -73 31 C-71.86761868 29.77763007 -70.74086263 28.54996769 -69.625 27.3125 C-51.56402092 9.87718994 -25.27053637 -1.58215532 0 0 Z " fill="#CAB24D" transform="translate(98,375)"/>
<path d="M0 0 C26.4 0 52.8 0 80 0 C72.69886902 12.77697922 64.43261137 19.96723879 50.19921875 24.3046875 C38.70062979 26.80377033 27.24532546 25.12660269 17.0234375 19.3046875 C10.05181847 14.56091367 2.73669755 8.21009265 0 0 Z " fill="#DDC353" transform="translate(216,471)"/>
<path d="M0 0 C38.03911885 8.99002168 38.03911885 8.99002168 48.01196289 23.31225586 C49.75436517 26.79706041 49.89670112 29.99381209 49.23852539 33.76538086 C46.83832916 38.65808855 44.37575018 40.9522427 39.23852539 42.76538086 C34.07410558 43.7780122 31.26975893 42.41290778 26.98852539 39.70288086 C25.06539884 38.3998645 23.14874682 37.08724372 21.23852539 35.76538086 C19.47404491 34.60978865 17.70322141 33.46382058 15.92602539 32.32788086 C14.58411133 31.46743164 14.58411133 31.46743164 13.21508789 30.58959961 C11.01924356 29.24385249 8.82745253 27.96465471 6.57446289 26.72241211 C5.94838135 26.37557373 5.3222998 26.02873535 4.67724609 25.67138672 C2.89184064 24.69028493 1.09857371 23.72352978 -0.69506836 22.75756836 C-4.58445356 20.23070664 -7.26455797 17.92782499 -8.32788086 13.30053711 C-8.32108168 8.9966548 -8.21695471 5.65213809 -5.63647461 2.07788086 C-2.76147461 -0.23461914 -2.76147461 -0.23461914 0 0 Z " fill="#FEFEFC" transform="translate(303.761474609375,89.234619140625)"/>
<path d="M0 0 C15.18 0 30.36 0 46 0 C39.50943148 11.35849491 32.50659341 18.51531246 20 23 C16.96463041 22.9051447 15.97560062 21.97823839 13.6875 19.9375 C12.800625 18.968125 11.91375 17.99875 11 17 C10.42765625 16.40832031 9.8553125 15.81664062 9.265625 15.20703125 C8.66234375 14.56121094 8.0590625 13.91539062 7.4375 13.25 C6.60025391 12.36054688 6.60025391 12.36054688 5.74609375 11.453125 C4 9 4 9 0 0 Z " fill="#EED254" transform="translate(250,471)"/>
</svg>
