<?xml version="1.0" encoding="UTF-8"?>
<svg version="1.1" xmlns="http://www.w3.org/2000/svg" width="512" height="512">
<path d="M0 0 C0.92554688 0.40089844 1.85109375 0.80179688 2.8046875 1.21484375 C17.61161165 8.45052198 28.05020379 20.9466269 33.4375 36.4375 C38.15775261 51.65661042 37.23487673 68.03049696 30.36328125 82.4296875 C29.91339844 83.27789062 29.46351563 84.12609375 29 85 C36.85886011 92.27511796 36.85886011 92.27511796 44.875 99.375 C53.13588768 106.56214546 61.48063244 113.82948055 68.50390625 122.25390625 C70.04235391 124.04943133 71.67293727 125.67219012 73.375 127.3125 C77.08746236 130.96721294 80.30916126 134.95449524 83.5703125 139.01171875 C85.60211164 141.5106357 87.67936798 143.95733336 89.78930664 146.39013672 C141.03610869 205.75811905 176.27425203 280.24485715 195 356 C196.66675781 356.12955078 196.66675781 356.12955078 198.3671875 356.26171875 C210.37235418 357.33394623 219.38129226 359.17508034 227.52734375 368.7421875 C231.43095456 374.72703378 232.44476252 379.63678268 232.40405273 386.63818359 C232.41434761 387.89087288 232.41434761 387.89087288 232.42485046 389.16886902 C232.44305694 391.9122346 232.43928937 394.65502483 232.43359375 397.3984375 C232.43815892 399.31743555 232.44346549 401.23643197 232.44947815 403.15542603 C232.4583975 407.17171888 232.45599999 411.18781278 232.44604492 415.20410156 C232.43456432 420.3341038 232.4547589 425.46341675 232.48396206 430.59332848 C232.50236853 434.55520951 232.50202262 438.51692678 232.49632454 442.47883987 C232.49617183 444.36935009 232.50217438 446.25987176 232.51461601 448.15034103 C232.57877193 459.49749352 232.28983955 467.6265241 225.8125 477.25 C219.26219371 483.65474393 212.34193496 486.15223015 203.31583214 486.13422108 C202.52153134 486.13657331 201.72723055 486.13892554 200.90886003 486.14134905 C198.22482015 486.14805061 195.54082856 486.14758048 192.85678101 486.14717102 C190.92194915 486.15046893 188.98711798 486.15419434 187.0522877 486.1583125 C181.71770055 486.16834898 176.38312465 486.17205194 171.04852939 486.17470181 C165.30193015 486.17859999 159.55533987 486.18817866 153.80874634 486.19691467 C139.92180993 486.21669298 126.03487277 486.22674708 112.14792579 486.23564246 C105.61204063 486.24002317 99.07615628 486.24539055 92.54027176 486.25063133 C70.81976409 486.26764507 49.09925738 486.28216477 27.37874413 486.28938007 C25.97378668 486.28985483 24.56882924 486.29033072 23.1638718 486.29080774 C22.11876656 486.2911623 22.11876656 486.2911623 21.05254808 486.29152403 C17.5224995 486.29272523 13.99245092 486.29394068 10.46240234 486.29516602 C9.76185177 486.29540617 9.06130119 486.29564632 8.33952181 486.29589374 C-14.37339647 486.30378646 -37.08626252 486.3272172 -59.79915799 486.35972196 C-83.80934948 486.39402059 -107.81950908 486.41373012 -131.82972562 486.41702431 C-144.91919744 486.41919135 -158.00859252 486.42796833 -171.09804153 486.45348549 C-182.24432961 486.47516405 -193.3905223 486.4832569 -204.53682907 486.47351871 C-210.22498792 486.46896577 -215.91294985 486.47091807 -221.60108185 486.49028015 C-226.80863585 486.50785345 -232.01584843 486.50696144 -237.22340576 486.49138286 C-239.10704797 486.48899792 -240.99071345 486.49337607 -242.87431999 486.50521151 C-253.83662084 486.56982378 -261.96602545 486.06132903 -271.25 479.8125 C-277.82036944 473.09280398 -280.14289259 466.06522636 -280.19287109 456.83178711 C-280.20513733 455.58238342 -280.20513733 455.58238342 -280.21765137 454.30773926 C-280.24248664 451.54761467 -280.25902058 448.78754162 -280.2734375 446.02734375 C-280.28142302 444.61044345 -280.28142302 444.61044345 -280.28956985 443.1649189 C-280.31629899 438.16081682 -280.33567081 433.15673962 -280.35009766 428.15258789 C-280.36341274 424.02150206 -280.39122077 419.89091301 -280.43212891 415.76000977 C-280.48160216 410.76386546 -280.50623729 405.76817024 -280.51332474 400.77179146 C-280.52001418 398.87369448 -280.53517571 396.9756066 -280.55921555 395.07765007 C-280.80830304 374.21424139 -280.80830304 374.21424139 -273.02304077 365.88487244 C-263.9467418 357.17041418 -254.04352944 356.82460879 -242 357 C-241.89115479 356.33427979 -241.78230957 355.66855957 -241.67016602 354.98266602 C-240.49917071 348.15554246 -238.90779097 341.5751564 -236.9375 334.9375 C-236.63295898 333.90802246 -236.32841797 332.87854492 -236.01464844 331.81787109 C-212.98082186 255.11175617 -171.76322568 185.11172307 -117.37207031 126.48535156 C-115.95645762 124.95286266 -114.55118683 123.41145483 -113.1484375 121.8671875 C-106.16526344 114.18378086 -99.11551325 106.7044706 -91.22265625 99.94140625 C-87.50840614 96.69714912 -83.92321522 93.30846436 -80.3203125 89.94140625 C-78 88 -78 88 -76 88 C-76.40992188 87.02160156 -76.81984375 86.04320313 -77.2421875 85.03515625 C-84.6856933 67.05166464 -86.55775299 50.6643739 -80 32 C-72.94873632 16.47260588 -61.19037785 5.96427801 -45.8359375 -0.95703125 C-31.57616876 -6.20132637 -13.92070134 -6.18482414 0 0 Z " fill="#D74F48" transform="translate(280,15)"/>
<path d="M0 0 C0.78370069 -0.00495952 1.56740138 -0.00991903 2.37485057 -0.01502883 C5.01091867 -0.02802142 7.64648327 -0.01958874 10.28256416 -0.01129913 C12.18755203 -0.0161863 14.09253692 -0.0223753 15.99751675 -0.02975702 C21.24027716 -0.04620173 26.48288763 -0.0438294 31.72566485 -0.03838205 C37.37677097 -0.03571744 43.02783661 -0.05023296 48.67892647 -0.06247711 C59.75313908 -0.08355732 70.82729936 -0.08807048 81.90152965 -0.08628923 C90.90069043 -0.08498291 99.89983484 -0.08877908 108.89899254 -0.09621429 C111.4886831 -0.09831343 114.07837367 -0.10041103 116.66806424 -0.10250711 C117.95692391 -0.10355064 119.24578358 -0.10459417 120.57369961 -0.10566932 C138.03214213 -0.11920744 155.49057355 -0.12679366 172.94902039 -0.12234497 C173.97333263 -0.12208704 173.97333263 -0.12208704 175.01833806 -0.1218239 C178.47949396 -0.12093499 181.94064986 -0.11999018 185.40180574 -0.11902589 C186.08921379 -0.11883485 186.77662183 -0.11864382 187.48486043 -0.118447 C188.8749669 -0.11805991 190.26507338 -0.11766958 191.65517985 -0.11727602 C213.28615545 -0.11130574 234.91702407 -0.12674449 256.54797554 -0.15888214 C280.8455341 -0.19495095 305.14300432 -0.21424912 329.44059575 -0.20934343 C342.30753569 -0.20709635 355.17436958 -0.21237681 368.04128838 -0.23723602 C378.99510766 -0.25821844 389.94876275 -0.26187151 400.90258871 -0.24293643 C406.49333629 -0.2337598 412.08377746 -0.23269467 417.67450142 -0.25329208 C422.79066424 -0.27193295 427.90626824 -0.26757597 433.02240933 -0.24474627 C434.87499744 -0.24054307 436.72762782 -0.24481792 438.58017133 -0.25834221 C441.09629079 -0.27546247 443.6104503 -0.26183735 446.12649536 -0.24050903 C446.84788462 -0.25278656 447.56927388 -0.26506408 448.31252342 -0.27771366 C453.83073203 -0.17981505 457.27746194 1.68376613 461.18908882 5.38311005 C463.63973405 9.0590779 463.47800381 11.82849682 463.46374702 16.07988739 C463.47141342 17.25355614 463.47141342 17.25355614 463.4792347 18.45093536 C463.49314717 21.04038368 463.4921725 23.62956627 463.48987007 26.21904755 C463.49375651 28.01882272 463.49809107 29.81859699 463.5028553 31.61837006 C463.51032137 35.39284486 463.51002374 39.16722614 463.50476265 42.9417038 C463.49897191 47.77615952 463.5158875 52.61023164 463.53910732 57.44462395 C463.55384856 61.16270431 463.55471576 64.88069243 463.5515976 68.59879684 C463.55211076 70.38096755 463.55734755 72.16314342 463.56740952 73.9452858 C463.57976226 76.4396241 463.57298918 78.93321704 463.56140327 81.42754364 C463.56904701 82.16226395 463.57669075 82.89698425 463.58456612 83.65396881 C463.53919534 88.07884097 463.01009472 90.92979023 460.18908882 94.38311005 C456.02918548 97.54751784 452.38144649 97.81081391 447.32573891 97.76622009 C446.1416914 97.77365937 446.1416914 97.77365937 444.93372375 97.78124893 C442.27840801 97.79424229 439.62359206 97.7858086 436.96826363 97.77751923 C435.049476 97.78240634 433.13069133 97.78859531 431.21191168 97.79597712 C425.93108565 97.81242219 420.65040845 97.81004943 415.36956573 97.80460215 C409.67759782 97.80193761 403.9856701 97.8164528 398.29371834 97.8286972 C387.1399654 97.84977694 375.98626441 97.85429063 364.8324939 97.85250932 C355.76991018 97.85120311 346.7073427 97.8549986 337.64476204 97.86243439 C335.03706598 97.86453351 332.42936993 97.86663111 329.82167387 97.86872721 C328.52387407 97.86977073 327.22607426 97.87081426 325.88894719 97.87188941 C308.30998969 97.88542716 290.73104095 97.89301387 273.15207863 97.88856506 C272.12071786 97.88830713 272.12071786 97.88830713 271.06852151 97.88804399 C267.58352003 97.88715508 264.09851857 97.88621027 260.61351711 97.88524598 C259.92136785 97.88505495 259.22921859 97.88486391 258.51609511 97.88466709 C257.1164015 97.88428 255.71670788 97.88388967 254.31701427 97.88349611 C232.5316533 97.87752441 210.74639851 97.89297107 188.96106148 97.92510223 C164.49285929 97.96115963 140.02473591 97.98047088 115.55650377 97.97556353 C102.59796607 97.97331551 89.63953365 97.97861067 76.68101692 98.00345612 C65.6506514 98.02442417 54.62044891 98.02810586 43.5900768 98.00915653 C37.95907248 97.99997141 32.32837249 97.99894051 26.69739151 98.01951218 C21.54679313 98.03812131 16.39675047 98.03383228 11.24617392 98.01096636 C9.37881667 98.00675508 7.51141764 98.01106467 5.64410442 98.0245623 C3.11286947 98.04161889 0.58359781 98.02811061 -1.94756126 98.00672913 C-2.67901759 98.01900665 -3.41047391 98.03128418 -4.16409558 98.04393375 C-8.02297435 97.97545367 -9.65529471 97.51076873 -12.67737055 95.03163385 C-16.44039421 90.36031069 -17.10859777 87.52171739 -17.10143852 81.6863327 C-17.10815575 80.90388687 -17.11487297 80.12144104 -17.12179375 79.31528473 C-17.14080843 76.72584959 -17.14469973 74.13667318 -17.14684868 71.54717255 C-17.15327443 69.74739729 -17.16000262 67.94762308 -17.1670208 66.14785004 C-17.1790024 62.37338082 -17.18270074 58.59900319 -17.18151665 54.8245163 C-17.18131346 49.98996719 -17.2086113 45.15600594 -17.24306107 40.32159615 C-17.26530906 36.60351113 -17.26935483 32.88556802 -17.2682972 29.16742325 C-17.27065649 27.38523966 -17.27949849 25.60305236 -17.29496193 23.8209343 C-17.31457895 21.32643094 -17.30880132 18.83320072 -17.29675102 16.33867645 C-17.30799004 15.60395615 -17.31922905 14.86923584 -17.33080864 14.11225128 C-17.28827427 10.64375945 -16.91545705 8.55410424 -15.09304619 5.57338715 C-10.3224854 0.99484556 -6.50989674 -0.05784633 0 0 Z " fill="#F0F1F1" transform="translate(32.81091117858887,387.6168899536133)"/>
<path d="M0 0 C0.92554688 0.40089844 1.85109375 0.80179688 2.8046875 1.21484375 C17.61161165 8.45052198 28.05020379 20.9466269 33.4375 36.4375 C38.15775261 51.65661042 37.23487673 68.03049696 30.36328125 82.4296875 C29.91339844 83.27789062 29.46351563 84.12609375 29 85 C36.85886011 92.27511796 36.85886011 92.27511796 44.875 99.375 C53.13588768 106.56214546 61.48063244 113.82948055 68.50390625 122.25390625 C70.04235391 124.04943133 71.67293727 125.67219012 73.375 127.3125 C77.08746236 130.96721294 80.30916126 134.95449524 83.5703125 139.01171875 C85.60211164 141.5106357 87.67936798 143.95733336 89.78930664 146.39013672 C141.03610869 205.75811905 176.27425203 280.24485715 195 356 C196.66675781 356.12955078 196.66675781 356.12955078 198.3671875 356.26171875 C210.37235418 357.33394623 219.38129226 359.17508034 227.52734375 368.7421875 C231.43095456 374.72703378 232.44476252 379.63678268 232.40405273 386.63818359 C232.41434761 387.89087288 232.41434761 387.89087288 232.42485046 389.16886902 C232.44305694 391.9122346 232.43928937 394.65502483 232.43359375 397.3984375 C232.43815892 399.31743555 232.44346549 401.23643197 232.44947815 403.15542603 C232.4583975 407.17171888 232.45599999 411.18781278 232.44604492 415.20410156 C232.43456432 420.3341038 232.4547589 425.46341675 232.48396206 430.59332848 C232.50236853 434.55520951 232.50202262 438.51692678 232.49632454 442.47883987 C232.49617183 444.36935009 232.50217438 446.25987176 232.51461601 448.15034103 C232.57877193 459.49749352 232.28983955 467.6265241 225.8125 477.25 C219.26219371 483.65474393 212.34193496 486.15223015 203.31583214 486.13422108 C202.52153134 486.13657331 201.72723055 486.13892554 200.90886003 486.14134905 C198.22482015 486.14805061 195.54082856 486.14758048 192.85678101 486.14717102 C190.92194915 486.15046893 188.98711798 486.15419434 187.0522877 486.1583125 C181.71770055 486.16834898 176.38312465 486.17205194 171.04852939 486.17470181 C165.30193015 486.17859999 159.55533987 486.18817866 153.80874634 486.19691467 C139.92180993 486.21669298 126.03487277 486.22674708 112.14792579 486.23564246 C105.61204063 486.24002317 99.07615628 486.24539055 92.54027176 486.25063133 C70.81976409 486.26764507 49.09925738 486.28216477 27.37874413 486.28938007 C25.97378668 486.28985483 24.56882924 486.29033072 23.1638718 486.29080774 C22.11876656 486.2911623 22.11876656 486.2911623 21.05254808 486.29152403 C17.5224995 486.29272523 13.99245092 486.29394068 10.46240234 486.29516602 C9.76185177 486.29540617 9.06130119 486.29564632 8.33952181 486.29589374 C-14.37339647 486.30378646 -37.08626252 486.3272172 -59.79915799 486.35972196 C-83.80934948 486.39402059 -107.81950908 486.41373012 -131.82972562 486.41702431 C-144.91919744 486.41919135 -158.00859252 486.42796833 -171.09804153 486.45348549 C-182.24432961 486.47516405 -193.3905223 486.4832569 -204.53682907 486.47351871 C-210.22498792 486.46896577 -215.91294985 486.47091807 -221.60108185 486.49028015 C-226.80863585 486.50785345 -232.01584843 486.50696144 -237.22340576 486.49138286 C-239.10704797 486.48899792 -240.99071345 486.49337607 -242.87431999 486.50521151 C-253.83662084 486.56982378 -261.96602545 486.06132903 -271.25 479.8125 C-277.82036944 473.09280398 -280.14289259 466.06522636 -280.19287109 456.83178711 C-280.20513733 455.58238342 -280.20513733 455.58238342 -280.21765137 454.30773926 C-280.24248664 451.54761467 -280.25902058 448.78754162 -280.2734375 446.02734375 C-280.28142302 444.61044345 -280.28142302 444.61044345 -280.28956985 443.1649189 C-280.31629899 438.16081682 -280.33567081 433.15673962 -280.35009766 428.15258789 C-280.36341274 424.02150206 -280.39122077 419.89091301 -280.43212891 415.76000977 C-280.48160216 410.76386546 -280.50623729 405.76817024 -280.51332474 400.77179146 C-280.52001418 398.87369448 -280.53517571 396.9756066 -280.55921555 395.07765007 C-280.80830304 374.21424139 -280.80830304 374.21424139 -273.02304077 365.88487244 C-263.9467418 357.17041418 -254.04352944 356.82460879 -242 357 C-241.89115479 356.33427979 -241.78230957 355.66855957 -241.67016602 354.98266602 C-240.49917071 348.15554246 -238.90779097 341.5751564 -236.9375 334.9375 C-236.63295898 333.90802246 -236.32841797 332.87854492 -236.01464844 331.81787109 C-212.98082186 255.11175617 -171.76322568 185.11172307 -117.37207031 126.48535156 C-115.95645762 124.95286266 -114.55118683 123.41145483 -113.1484375 121.8671875 C-106.16526344 114.18378086 -99.11551325 106.7044706 -91.22265625 99.94140625 C-87.50840614 96.69714912 -83.92321522 93.30846436 -80.3203125 89.94140625 C-78 88 -78 88 -76 88 C-76.40992188 87.02160156 -76.81984375 86.04320313 -77.2421875 85.03515625 C-84.6856933 67.05166464 -86.55775299 50.6643739 -80 32 C-72.94873632 16.47260588 -61.19037785 5.96427801 -45.8359375 -0.95703125 C-31.57616876 -6.20132637 -13.92070134 -6.18482414 0 0 Z M17 98 C16.13375 98.845625 15.2675 99.69125 14.375 100.5625 C0.89057227 112.08158604 -15.78561122 115.30848562 -33 114 C-45.00574813 112.45401619 -55.51423558 106.27977269 -65 99 C-65.94359375 99.85271484 -65.94359375 99.85271484 -66.90625 100.72265625 C-67.7621875 101.49480469 -68.618125 102.26695313 -69.5 103.0625 C-70.3353125 103.81660156 -71.170625 104.57070312 -72.03125 105.34765625 C-74.29702033 107.37194316 -76.57570368 109.37629268 -78.8671875 111.37109375 C-93.62133291 124.26618902 -107.57981753 137.95323631 -119.8125 153.2890625 C-121.76787626 155.71233236 -123.78162899 158.07168812 -125.82373047 160.421875 C-144.1017349 181.57279169 -160.23887762 205.67544152 -174 230 C-174.59385498 231.04776611 -174.59385498 231.04776611 -175.19970703 232.11669922 C-177.78187024 236.68971323 -180.32354508 241.28360925 -182.84179688 245.89208984 C-183.86520039 247.75466699 -184.90774091 249.60670141 -185.953125 251.45703125 C-204.28816676 284.5448482 -217.51789401 321.24420737 -226 358 C-92.68 358 40.64 358 178 358 C170.40343741 312.42062446 149.44800732 266.66196607 126 227 C125.46906738 226.10087891 124.93813477 225.20175781 124.39111328 224.27539062 C117.0295886 211.87397302 109.42354824 199.70845032 101 188 C100.46407227 187.25298828 99.92814453 186.50597656 99.37597656 185.73632812 C91.29168378 174.51147437 82.89381738 163.59505606 74 153 C73.45988281 152.35546875 72.91976563 151.7109375 72.36328125 151.046875 C64.96686189 142.26252896 57.22800865 134.01020842 49 126 C46.40385076 123.42012756 43.82833403 120.82390711 41.2734375 118.203125 C30.28823346 106.56134438 30.28823346 106.56134438 17 98 Z M-262 378 C-264.45064523 381.67596785 -264.28891499 384.44538677 -264.2746582 388.69677734 C-264.27976913 389.47922318 -264.28488007 390.26166901 -264.29014587 391.06782532 C-264.30405835 393.65727363 -264.30308368 396.24645623 -264.30078125 398.8359375 C-264.30466769 400.63571268 -264.30900225 402.43548694 -264.31376648 404.23526001 C-264.32123255 408.00973481 -264.32093492 411.78411609 -264.31567383 415.55859375 C-264.30988309 420.39304947 -264.32679868 425.22712159 -264.3500185 430.0615139 C-264.36475974 433.77959427 -264.36562694 437.49758239 -264.36250877 441.2156868 C-264.36302194 442.9978575 -264.36825873 444.78003338 -264.37832069 446.56217575 C-264.39067344 449.05651405 -264.38390036 451.550107 -264.37231445 454.04443359 C-264.37995819 454.7791539 -264.38760193 455.51387421 -264.39547729 456.27085876 C-264.34010737 461.67091658 -263.19387571 464.82078658 -259.37584823 468.6132971 C-256.06076317 470.54820102 -252.99070843 470.41322066 -249.25969791 470.37752342 C-248.47148676 470.38188374 -247.6832756 470.38624407 -246.87117925 470.39073652 C-244.21375689 470.40173832 -241.55684843 470.39124796 -238.89942932 470.38095093 C-236.98150568 470.38440555 -235.06358402 470.38916879 -233.14566654 470.39513266 C-227.86257151 470.40769927 -222.57963827 470.40144659 -217.29654253 470.39217401 C-211.60388279 470.38540692 -205.91125155 470.39585312 -200.21859741 470.40411377 C-189.06135737 470.41747862 -177.90417776 470.41456105 -166.74693532 470.40587585 C-157.68146864 470.39911018 -148.61601894 470.39817774 -139.55055046 470.4014473 C-138.26199306 470.401907 -136.97343566 470.40236669 -135.64583106 470.40284032 C-133.02842085 470.40379947 -130.41101064 470.40477211 -127.79360043 470.4057581 C-103.92988956 470.41407589 -80.06621307 470.4054388 -56.20250767 470.38973031 C-34.4106222 470.37549469 -12.61878931 470.37676543 9.1730957 470.39111328 C33.6460449 470.40717242 58.11896031 470.41349441 82.59191471 470.40427649 C85.20018804 470.40332081 87.80846136 470.4023777 90.4167347 470.4014473 C91.70016246 470.40098447 92.98359022 470.40052164 94.30590973 470.40004479 C103.36311587 470.3974513 112.42030339 470.40183367 121.47750664 470.40888596 C132.51152784 470.41728832 143.54548499 470.41504752 154.57949882 470.39904372 C160.21244811 470.39114374 165.8452905 470.38809876 171.47823906 470.39799118 C176.63061033 470.40690295 181.78277519 470.40206345 186.93512762 470.38605852 C188.80318487 470.38269574 190.67125941 470.38443818 192.53930562 470.39168589 C195.07107348 470.40075838 197.60212673 470.39150298 200.13385677 470.37752342 C200.86559895 470.38454692 201.59734112 470.39157042 202.35125729 470.39880675 C206.74467363 470.35004876 209.49176334 469.66984852 213 467 C216.30295085 462.94855626 216.43503085 459.11053069 216.40405273 454.07617188 C216.41091599 453.29343399 216.41777924 452.51069611 216.42485046 451.70423889 C216.44310171 449.12555634 216.43928391 446.54748307 216.43359375 443.96875 C216.43815597 442.1718323 216.44346166 440.37491635 216.44947815 438.57800293 C216.45840565 434.81543887 216.45598979 431.05308711 216.44604492 427.29052734 C216.4345485 422.47169608 216.45477866 417.65359686 216.48396206 412.83486176 C216.50231669 409.12533932 216.50203321 405.41599261 216.49632454 401.70643616 C216.49617127 399.92984489 216.50222008 398.15324175 216.51461601 396.37669373 C216.52951275 393.89193899 216.51886015 391.40854073 216.50170898 388.92382812 C216.51137695 388.19224991 216.52104492 387.46067169 216.53100586 386.70692444 C216.48106389 383.2475286 216.10037982 381.16396965 214.28114319 378.19226074 C209.51316869 373.61006557 205.6989109 372.55904429 199.18908882 372.61688995 C198.40538813 372.61193044 197.62168744 372.60697092 196.81423825 372.60186112 C194.17817015 372.58886854 191.54260555 372.59730121 188.90652466 372.60559082 C187.0015368 372.60070365 185.0965519 372.59451466 183.19157207 372.58713293 C177.94881167 372.57068822 172.70620119 372.57306055 167.46342397 372.5785079 C161.81231785 372.58117252 156.16125221 372.566657 150.51016235 372.55441284 C139.43594975 372.53333264 128.36178946 372.52881947 117.28755917 372.53060073 C108.28839839 372.53190705 99.28925398 372.52811088 90.29009628 372.52067566 C87.70040572 372.51857652 85.11071515 372.51647892 82.52102458 372.51438284 C81.23216491 372.51333931 79.94330524 372.51229578 78.61538921 372.51122063 C61.15694669 372.49768251 43.69851527 372.49009629 26.24006844 372.49454498 C25.21575619 372.49480292 25.21575619 372.49480292 24.17075077 372.49506606 C20.70959486 372.49595496 17.24843897 372.49689977 13.78728308 372.49786407 C13.09987503 372.4980551 12.41246699 372.49824613 11.7042284 372.49844296 C10.31412192 372.49883005 8.92401544 372.49922038 7.53390897 372.49961393 C-14.09706663 372.50558421 -35.72793525 372.49014547 -57.35888672 372.45800781 C-81.65644527 372.42193901 -105.9539155 372.40264083 -130.25150692 372.40754652 C-143.11844687 372.4097936 -155.98528076 372.40451315 -168.85219955 372.37965393 C-179.80601884 372.35867152 -190.75967393 372.35501845 -201.71349989 372.37395352 C-207.30424746 372.38313015 -212.89468864 372.38419528 -218.4854126 372.36359787 C-223.60157542 372.344957 -228.71717942 372.34931398 -233.83332051 372.37214369 C-235.68590862 372.37634688 -237.538539 372.37207203 -239.39108251 372.35854775 C-241.90720196 372.34142749 -244.42136148 372.3550526 -246.93740654 372.37638092 C-247.6587958 372.36410339 -248.38018506 372.35182587 -249.1234346 372.3391763 C-254.64164321 372.4370749 -258.08837311 374.30065608 -262 378 Z " fill="#646052" transform="translate(280,15)"/>
<path d="M0 0 C0.54527344 0.37511719 1.09054688 0.75023438 1.65234375 1.13671875 C6.95305535 4.7339538 12.35048832 7.98158478 18 11 C16.54811406 14.35043397 14.7180341 16.50486196 12.11328125 19.046875 C11.33919922 19.81 10.56511719 20.573125 9.76757812 21.359375 C8.95740234 22.14828125 8.14722656 22.9371875 7.3125 23.75 C1.62288253 29.31441807 -3.82977155 34.94991604 -9 41 C-10.02128821 42.15684891 -11.04467654 43.3118477 -12.0703125 44.46484375 C-20.17309697 53.64712398 -27.67825507 63.18769031 -35 73 C-35.92311131 74.22400794 -36.84628569 75.44796832 -37.76953125 76.671875 C-77.82964659 130.14869441 -108.94090245 191.74391061 -124 257 C57.17 257.495 57.17 257.495 242 258 C242.33 257.01 242.66 256.02 243 255 C243 256.32 243 257.64 243 259 C109.68 259 -23.64 259 -161 259 C-156.39123652 239.41275521 -156.39123652 239.41275521 -154.30078125 233.23828125 C-154.06456055 232.52270554 -153.82833984 231.80712982 -153.58496094 231.06987 C-152.83646268 228.81428399 -152.0758079 226.56311338 -151.3125 224.3125 C-150.91857559 223.14086304 -150.91857559 223.14086304 -150.51669312 221.94555664 C-146.18258295 209.07320193 -141.46099303 196.44141537 -136 184 C-135.45762695 182.74243896 -135.45762695 182.74243896 -134.90429688 181.45947266 C-107.41805455 117.79755426 -65.19892737 58.72873903 -14 12 C-13.20142578 11.26765137 -13.20142578 11.26765137 -12.38671875 10.52050781 C-8.37118323 6.8413661 -4.40290717 3.21293226 0 0 Z " fill="#BA4C47" transform="translate(215,114)"/>
<path d="M0 0 C0.83789062 0.42410156 1.67578125 0.84820313 2.5390625 1.28515625 C13.16843256 7.04942189 20.24612462 16.00859689 23.78125 27.55078125 C26.52492566 39.73486724 25.04029839 50.98662729 19.015625 61.8359375 C11.95302599 72.92257549 2.77753819 79.75668048 -10 83 C-13.11822633 83.42894143 -16.16732916 83.52554683 -19.3125 83.5 C-20.13991699 83.49427979 -20.96733398 83.48855957 -21.81982422 83.48266602 C-32.98835371 83.15930344 -41.961038 78.68270742 -50 71 C-58.4993684 61.93400705 -62.71120434 52.29011011 -63.12890625 39.84765625 C-62.78067314 29.45342551 -60.56204712 21.11001721 -54 13 C-53.2575 11.96875 -52.515 10.9375 -51.75 9.875 C-38.59006486 -3.88311401 -17.25756469 -9.7187338 0 0 Z " fill="#F0F1F1" transform="translate(275,31)"/>
<path d="M0 0 C0.78579786 -0.00346153 1.57159573 -0.00692307 2.38120565 -0.01048949 C5.02436601 -0.01845435 7.66698233 -0.00495173 10.31011486 0.00837994 C12.22008921 0.00707213 14.13006304 0.00444618 16.040034 0.00061244 C21.29633299 -0.00610943 26.55244929 0.00592357 31.808725 0.02094662 C37.4739934 0.03387819 43.13925114 0.02951956 48.80453014 0.0272398 C58.62261244 0.02566524 68.44063501 0.03509353 78.25870228 0.05195332 C92.45404524 0.07631401 106.64935926 0.08414559 120.84472086 0.08791729 C143.8746412 0.09448637 166.90452574 0.1144342 189.93442822 0.14282513 C212.30844997 0.17037567 234.68246321 0.19162786 257.05649853 0.20434856 C258.09089283 0.20494043 258.09089283 0.20494043 259.14618398 0.20554426 C266.07135659 0.2094998 272.99652926 0.21332724 279.92170198 0.21706083 C338.0043348 0.24838713 396.08693441 0.30132876 454.16953564 0.36914349 C454.16953564 0.69914349 454.16953564 1.02914349 454.16953564 1.36914349 C315.23953564 1.36914349 176.30953564 1.36914349 33.16953564 1.36914349 C31.44505705 6.54257925 30.88198698 10.27635263 30.91074657 15.55835247 C30.90724194 16.35753094 30.9037373 17.1567094 30.90012646 17.9801054 C30.89136064 20.60857238 30.89714059 23.23676776 30.90391064 25.86523724 C30.90256237 27.70077344 30.90062049 29.5363093 30.8981123 31.37184429 C30.8951679 35.21415903 30.89943619 39.05638061 30.90879345 42.8986845 C30.9201795 47.81237468 30.91362953 52.72584614 30.90164852 57.63952827 C30.89440459 61.42887791 30.89672962 65.21817612 30.90190411 69.00752735 C30.90323401 70.81873952 30.90161607 72.62995643 30.896945 74.44116306 C30.89183895 76.97774691 30.89964734 79.51398195 30.91074657 82.05053997 C30.90669811 82.79205807 30.90264965 83.53357616 30.89847851 84.29756451 C30.93681087 89.05084553 31.69490024 92.90235403 33.16953564 97.36914349 C27.1373036 97.49288744 21.10581278 97.58355162 15.07261181 97.64380169 C13.02104858 97.66892155 10.96957463 97.70302385 8.91831493 97.74634075 C5.96667473 97.80710351 3.01621913 97.83537841 0.06406689 97.85742474 C-0.8506992 97.88323116 -1.76546528 97.90903759 -2.70795155 97.93562603 C-7.21790757 97.93760532 -9.17187805 97.88463593 -12.82387257 95.02612591 C-16.39892722 90.29229944 -17.12810615 87.47122717 -17.12099171 81.67236614 C-17.12770893 80.88992031 -17.13442616 80.10747448 -17.14134693 79.30131817 C-17.16036161 76.71188303 -17.16425291 74.12270662 -17.16640186 71.53320599 C-17.17282761 69.73343073 -17.1795558 67.93365652 -17.18657398 66.13388348 C-17.19855558 62.35941426 -17.20225392 58.58503663 -17.20106983 54.81054974 C-17.20086664 49.97600063 -17.22816449 45.14203938 -17.26261425 40.30762959 C-17.28486224 36.58954457 -17.28890801 32.87160146 -17.28785038 29.15345669 C-17.29020967 27.3712731 -17.29905168 25.5890858 -17.31451511 23.80696774 C-17.33413213 21.31246438 -17.32835451 18.81923416 -17.31630421 16.32470989 C-17.32754322 15.58998959 -17.33878223 14.85526928 -17.35036182 14.09828472 C-17.30782745 10.62979289 -16.93501024 8.54013768 -15.11259937 5.55942059 C-10.33306152 0.97226327 -6.5216171 -0.07059342 0 0 Z " fill="#CAC9CA" transform="translate(32.830464363098145,387.63085651397705)"/>
<path d="M0 0 C1.5266671 3.0533342 1.01053537 6.22103711 0.9375 9.5625 C0.84617008 24.06953699 5.37297848 37.28648828 15.63671875 47.96875 C26.81468307 57.57625653 37.56343951 61.54425922 52.0625 61.1875 C53.11888672 61.17396484 54.17527344 61.16042969 55.26367188 61.14648438 C57.84299809 61.1114709 60.42121494 61.06236675 63 61 C60.00353594 64.80933463 57.48246175 67.71856398 53.25 70.1875 C52.47140625 70.65542969 51.6928125 71.12335938 50.890625 71.60546875 C43.88539874 74.9850171 37.46585932 76.56318018 29.6875 76.5 C28.86008301 76.49427979 28.03266602 76.48855957 27.18017578 76.48266602 C16.01164629 76.15930344 7.038962 71.68270742 -1 64 C-9.4993684 54.93400705 -13.71120434 45.29011011 -14.12890625 32.84765625 C-13.78192987 22.49093714 -11.59346036 14.06050529 -5 6 C-4.505 5.37996094 -4.01 4.75992188 -3.5 4.12109375 C-2.35997306 2.72520849 -1.1843314 1.35849778 0 0 Z " fill="#CDCDCD" transform="translate(226,38)"/>
</svg>
