<?xml version="1.0" encoding="UTF-8"?>
<svg version="1.1" xmlns="http://www.w3.org/2000/svg" width="512" height="512">
<path d="M0 0 C5.03741362 3.78944677 8.14853991 8.70489947 10.16015625 14.625 C10.43190002 17.73620605 10.43190002 17.73620605 10.46313477 21.26367188 C10.4715741 21.90985977 10.48001343 22.55604767 10.4887085 23.22181702 C10.51437919 25.34580268 10.52660307 27.46964947 10.5390625 29.59375 C10.55525046 31.07679323 10.57243181 32.55982591 10.59056091 34.04284668 C10.6361623 37.9403596 10.67100647 41.83788699 10.70275879 45.73553467 C10.7547034 51.97350936 10.81999558 58.21132798 10.89097404 64.44911194 C10.91371726 66.6232466 10.93004638 68.79736181 10.94569397 70.97155762 C10.95910803 72.3098166 10.97272347 73.64807358 10.98657227 74.98632812 C10.99608414 76.15039185 11.00559601 77.31445557 11.01539612 78.51379395 C11.09785227 81.96490332 11.09785227 81.96490332 12.16015625 86.625 C15.46015625 87.285 18.76015625 87.945 22.16015625 88.625 C22.13920898 87.88451416 22.11826172 87.14402832 22.09667969 86.38110352 C22.01285726 82.98337718 21.96128701 79.58586928 21.91015625 76.1875 C21.87664062 75.02283203 21.843125 73.85816406 21.80859375 72.65820312 C21.71046489 63.94926685 22.83875178 57.55824213 28.53515625 50.8125 C36.94656125 43.80299583 43.37697256 42.79828925 54.16015625 43.625 C60.90653102 45.31159369 65.19771856 50.13262109 69.16015625 55.625 C72.79768648 62.56937589 72.28665863 70.36894682 72.22265625 78 C72.21814453 79.02222656 72.21363281 80.04445313 72.20898438 81.09765625 C72.19725925 83.60683194 72.18084801 86.1158849 72.16015625 88.625 C73.41570312 88.56699219 74.67125 88.50898437 75.96484375 88.44921875 C94.23385992 87.850773 94.23385992 87.850773 101.16015625 93.625 C106.33658759 99.03028409 109.42277443 104.55601807 109.38720703 112.1496582 C109.38696533 113.24540161 109.38672363 114.34114502 109.38647461 115.47009277 C109.37624268 116.61046997 109.36601074 117.75084717 109.35546875 118.92578125 C109.35345459 119.98228882 109.35144043 121.03879639 109.34936523 122.12731934 C109.33892175 126.06409055 109.31099917 130.00079975 109.28515625 133.9375 C109.24390625 142.744375 109.20265625 151.55125 109.16015625 160.625 C134.57015625 160.625 159.98015625 160.625 186.16015625 160.625 C186.08128238 145.27849219 186.08128238 145.27849219 185.97998047 129.93212891 C185.97413173 127.98860902 185.96903708 126.04508666 185.96484375 124.1015625 C185.95461182 123.11631592 185.94437988 122.13106934 185.93383789 121.1159668 C185.9315741 111.99966563 186.39310685 103.64339043 192.375 96.3828125 C197.22982562 91.60234964 202.72619407 88.4811479 209.609375 88.52734375 C210.45693359 88.53056641 211.30449219 88.53378906 212.17773438 88.53710938 C213.4993457 88.54967773 213.4993457 88.54967773 214.84765625 88.5625 C216.18666992 88.56926758 216.18666992 88.56926758 217.55273438 88.57617188 C219.75527612 88.58795017 221.95768224 88.60439836 224.16015625 88.625 C224.13920898 87.95557373 224.11826172 87.28614746 224.09667969 86.59643555 C224.01246147 83.50194919 223.9611661 80.40770507 223.91015625 77.3125 C223.87664062 76.25998047 223.843125 75.20746094 223.80859375 74.12304688 C223.69600796 64.97545142 225.13314309 56.57111533 231.47265625 49.625 C238.21465132 43.71867238 243.95567371 43.05132461 252.78515625 43.28515625 C260.45780319 44.05774917 264.62157245 47.58612616 269.6171875 53.234375 C274.54435253 60.86836234 274.54530568 67.77638696 274.34765625 76.625 C274.33412109 77.78128906 274.32058594 78.93757813 274.30664062 80.12890625 C274.27152669 82.96143004 274.22234625 85.79296307 274.16015625 88.625 C275.62506758 88.25425084 277.08211194 87.85232811 278.53515625 87.4375 C279.34726562 87.21707031 280.159375 86.99664062 280.99609375 86.76953125 C283.96926963 85.19707541 284.17147999 83.80471755 285.16015625 80.625 C285.46496389 77.50313483 285.46496389 77.50313483 285.43139648 74.10986328 C285.4415831 72.81146515 285.45176971 71.51306702 285.46226501 70.17532349 C285.46320601 69.4863007 285.464147 68.79727791 285.4651165 68.08737564 C285.46879743 65.91735199 285.48557091 63.74777837 285.50587463 61.57785034 C285.56111887 55.41087233 285.59192712 49.24382879 285.61645508 43.07666016 C285.6323891 39.29709788 285.66266764 35.51785611 285.70121956 31.73846054 C285.71281716 30.30408014 285.71879945 28.86964228 285.71890068 27.435215 C285.7199151 16.88611081 286.39819008 10.09798741 293.61328125 2.1328125 C299.45774313 -3.56406196 305.96827038 -3.7984499 313.765625 -3.7109375 C319.91486052 -3.10238255 324.72591818 -0.88514986 329.0390625 3.5625 C333.68489778 9.47334585 335.40615338 14.37226763 335.45068359 21.94702148 C335.45740082 22.66653488 335.46411804 23.38604828 335.47103882 24.12736511 C335.48999284 26.50034559 335.49394304 28.87304231 335.49609375 31.24609375 C335.50252836 32.90934868 335.50925721 34.57260249 335.51626587 36.2358551 C335.52823567 39.72521582 335.53194749 43.21447762 335.53076172 46.70385742 C335.53055967 51.13840994 335.55774426 55.57231337 335.59230614 60.00671291 C335.61474629 63.44636338 335.61859392 66.88586258 335.61754227 70.32557869 C335.61987711 71.95798011 335.62857879 73.5903871 335.644207 75.22271538 C335.80551633 93.82789591 331.57794327 108.41085514 318.58203125 122.30078125 C306.50372161 133.89206227 293.1857431 137.97173753 276.78515625 137.8203125 C275.62008545 137.8174826 274.45501465 137.81465271 273.25463867 137.81173706 C269.55637063 137.80059807 265.85835033 137.77550479 262.16015625 137.75 C259.64323268 137.7399621 257.12630529 137.73083766 254.609375 137.72265625 C248.45946462 137.70238628 242.31008573 137.6632247 236.16015625 137.625 C236.16015625 145.215 236.16015625 152.805 236.16015625 160.625 C239.09053268 160.61167633 239.09053268 160.61167633 242.08010864 160.5980835 C260.47339076 160.51706484 278.86663683 160.45682642 297.26005745 160.41775131 C306.71673881 160.39712743 316.17328696 160.36901015 325.62988281 160.32324219 C333.87240655 160.2833691 342.11483381 160.25756592 350.35745132 160.24864602 C354.72176105 160.24343206 359.08579477 160.23118107 363.45001602 160.20207977 C367.55894121 160.17490315 371.66747701 160.16655949 375.77648354 160.17256927 C377.28333846 160.17147004 378.79020659 160.16352927 380.29698372 160.1481781 C382.35789849 160.12821358 384.41735194 160.13308248 386.478302 160.14398193 C387.63054323 160.14029476 388.78278446 160.13660759 389.96994209 160.13280869 C395.04914759 160.91643659 398.13506812 163.46138644 401.47265625 167.25 C405.62625576 173.09580672 404.74917783 180.68995296 404.16015625 187.625 C400.77328088 205.44964125 388.8332902 219.50873995 374.16015625 229.625 C365.10212505 235.04829512 355.45153152 239.20490943 345.16015625 241.625 C344.4515596 241.79335358 343.74296295 241.96170715 343.01289368 242.13516235 C334.50054759 243.93035555 326.11758952 243.85235261 317.47265625 243.75 C315.98112585 243.73994292 314.48958883 243.73082192 312.99804688 243.72265625 C309.38527651 243.70087544 305.77276032 243.6664985 302.16015625 243.625 C302.1690387 244.9166507 302.17792114 246.20830139 302.18707275 247.53909302 C302.26871433 259.80545523 302.32838558 272.0717612 302.36740494 284.33833504 C302.38814056 290.64233996 302.41619723 296.94612282 302.46191406 303.25 C302.50587787 309.35143034 302.52939831 315.45264922 302.53966522 321.55422592 C302.54696702 323.86384274 302.56122063 326.17345006 302.58307648 328.48297501 C302.75303715 347.21470199 301.29219062 365.66238066 294.91015625 383.4375 C294.61278564 384.29166504 294.31541504 385.14583008 294.0090332 386.02587891 C284.09255434 413.77138725 266.70885103 438.71992964 243.16015625 456.625 C241.85111328 457.64013672 241.85111328 457.64013672 240.515625 458.67578125 C223.23046091 471.70925051 204.02058323 480.20992915 183.16015625 485.625 C182.49419434 485.80579102 181.82823242 485.98658203 181.14208984 486.17285156 C170.72101303 488.90082535 160.17130084 488.90572376 149.47265625 488.9375 C148.42085678 488.94314972 148.42085678 488.94314972 147.34780884 488.94891357 C107.99522594 489.05595472 70.39345164 474.07557971 42.14453125 446.609375 C41.14716242 445.61716719 40.15231621 444.62241643 39.16015625 443.625 C38.68384766 443.15126953 38.20753906 442.67753906 37.71679688 442.18945312 C5.11395541 409.40673391 -6.1525915 365.83992448 -6.06643677 320.8006897 C-6.05623325 318.83847946 -6.04580144 316.87627039 -6.03515625 314.9140625 C-6.03141169 312.83800393 -6.02857158 310.76194356 -6.02658081 308.68588257 C-6.01905771 303.30371958 -5.99951114 297.92166994 -5.97717285 292.53955078 C-5.9564658 287.01466402 -5.94752675 281.48975839 -5.9375 275.96484375 C-5.9162508 265.18484688 -5.88225755 254.40493298 -5.83984375 243.625 C-6.75652328 243.63350983 -7.67320282 243.64201965 -8.61766052 243.65078735 C-12.06478076 243.67871555 -15.51177828 243.69896953 -18.95896912 243.71426392 C-20.4422853 243.72236469 -21.92558882 243.73339927 -23.40885925 243.74758911 C-34.66284356 243.85244505 -45.10532411 243.24974974 -55.83984375 239.625 C-56.50209961 239.40537598 -57.16435547 239.18575195 -57.84667969 238.95947266 C-77.23754165 232.3252625 -93.52973864 219.89898082 -103.08984375 201.625 C-106.70603733 194.01395383 -108.01213972 187.87717014 -108.21484375 179.5 C-108.2411084 178.8184082 -108.26737305 178.13681641 -108.29443359 177.43457031 C-108.31054958 172.34439771 -107.00474326 169.54647221 -103.83984375 165.625 C-99.16343707 161.5053084 -96.82892067 160.49980935 -90.63900757 160.50474548 C-89.67476771 160.50346385 -89.67476771 160.50346385 -88.69104826 160.50215632 C-86.52756542 160.50050342 -84.36415935 160.50601977 -82.20068359 160.51147461 C-80.65361025 160.51175655 -79.10653677 160.51159862 -77.5594635 160.5110321 C-73.35102682 160.51074439 -69.14261845 160.51663692 -64.93418837 160.52360606 C-60.53926708 160.52984393 -56.1443452 160.53044374 -51.74942017 160.53163147 C-43.42318658 160.5347435 -35.09696607 160.54295518 -26.77073824 160.55298096 C-17.29324399 160.56414606 -7.81574912 160.56965355 1.66175008 160.57467639 C21.16122643 160.58513789 40.66068981 160.60293555 60.16015625 160.625 C60.16015625 153.035 60.16015625 145.445 60.16015625 137.625 C56.48503906 137.67140625 52.80992187 137.7178125 49.0234375 137.765625 C45.42571389 137.79690651 41.82800599 137.82114538 38.23022461 137.84472656 C35.74838369 137.8647219 33.26658916 137.89192726 30.78491211 137.92675781 C27.19763678 137.97580964 23.61098947 137.99809058 20.0234375 138.015625 C18.93122391 138.03627014 17.83901031 138.05691528 16.71369934 138.07818604 C1.30242238 138.08257811 -11.3790502 132.44165254 -22.484375 122.0078125 C-32.9237704 111.44723009 -39.13147186 98.81683702 -39.14624023 83.80712891 C-39.15456375 83.07099869 -39.16288727 82.33486847 -39.17146301 81.57643127 C-39.19535324 79.16808627 -39.20430829 76.76001303 -39.2109375 74.3515625 C-39.21991849 72.66059293 -39.22904058 70.9696241 -39.23829651 69.27865601 C-39.25473115 65.74336831 -39.26247673 62.2081747 -39.26538086 58.67285156 C-39.27076463 54.16501025 -39.30846781 49.65806495 -39.35412502 45.15047646 C-39.38400847 41.66037844 -39.39110682 38.17049355 -39.39210701 34.68027878 C-39.3962855 33.0194322 -39.40862343 31.35858358 -39.42962456 29.69786453 C-39.54546401 19.74775966 -39.37264796 10.89612326 -32.43235779 3.0296936 C-23.37265339 -5.25634454 -10.5190767 -6.02067479 0 0 Z " fill="#636052" transform="translate(107.83984375,13.375)"/>
<path d="M0 0 C90.75 0 181.5 0 275 0 C275.0928125 41.1778125 275.0928125 41.1778125 275.1875 83.1875 C275.21481201 91.8193042 275.24212402 100.4511084 275.27026367 109.34448242 C275.28381348 119.97717285 275.28381348 119.97717285 275.28633118 124.97261047 C275.28909873 128.42258122 275.30022993 131.87241003 275.31672668 135.32234192 C275.53314613 182.68878688 275.53314613 182.68878688 268 203 C267.59136719 204.16273438 267.18273437 205.32546875 266.76171875 206.5234375 C257.18467326 232.26006116 237.37640549 261.56423078 212 274 C211.99453156 272.56871765 211.99453156 272.56871765 211.98895264 271.10852051 C211.95176319 262.04816223 211.89373392 252.98813633 211.81609726 243.92803192 C211.7768462 239.27183266 211.74454942 234.61581619 211.72900391 229.95947266 C211.71368813 225.45287671 211.67898474 220.94678411 211.63169098 216.44041443 C211.61702911 214.73437413 211.60896789 213.0282619 211.60811615 211.32215881 C211.58674597 189.94920364 206.69606544 171.25645849 192 155 C191.37351562 154.29230469 190.74703125 153.58460938 190.1015625 152.85546875 C177.22489678 139.11159901 157.8970237 131.14088335 139.21850586 130.52490234 C119.34182443 130.34282587 101.86558956 136.59233165 87 150 C86.31550781 150.59167969 85.63101563 151.18335938 84.92578125 151.79296875 C71.96041942 163.73944163 63.74590011 181.36287396 62.78620911 198.90869141 C62.64962096 203.61801258 62.6182663 208.32809113 62.5859375 213.0390625 C62.56719755 214.77355847 62.54762209 216.5080456 62.5272522 218.24252319 C62.47622336 222.77645622 62.43644235 227.31041871 62.39910889 231.84448242 C62.35888444 236.48363355 62.30787683 241.12266522 62.2578125 245.76171875 C62.16140019 254.84106156 62.07688592 263.92047229 62 273 C33.37100626 259.2474953 15.3775107 227.19461365 5.25 198.5 C0.90383805 184.65382988 -0.4412815 171.53378459 -0.34057617 157.11914062 C-0.33965451 155.36503876 -0.34006215 153.61093578 -0.34167194 151.85683441 C-0.34234202 147.21048889 -0.32510826 142.56438087 -0.30384064 137.91809082 C-0.28660176 133.53881176 -0.28594299 129.15958694 -0.28381348 124.78027344 C-0.26814701 112.02015152 -0.22626321 99.26007266 -0.1875 86.5 C-0.0946875 43.6825 -0.0946875 43.6825 0 0 Z " fill="#C59B6C" transform="translate(119,190)"/>
<path d="M0 0 C0.03738281 1.134375 0.07476562 2.26875 0.11328125 3.4375 C0.44477816 14.57815352 0.44477816 14.57815352 4 25 C4.38929688 25.79535156 4.77859375 26.59070313 5.1796875 27.41015625 C10.22304144 36.85575982 17.70090984 42.63190561 27.67578125 46.30859375 C38.19485334 49.43779671 48.04575802 48.61325836 58 44 C65.63254541 39.58587779 70.67530793 34.63978704 75 27 C75.99 25.515 75.99 25.515 77 24 C78.85862655 18.64474869 79.39451659 13.66612797 79.625 8.0625 C79.66367187 7.28326172 79.70234375 6.50402344 79.7421875 5.70117188 C79.83544127 3.80112621 79.91875962 1.90059722 80 0 C90.9685541 7.99790403 96.88577909 20.55893192 99.53611755 33.64761353 C100.07995171 37.57779514 100.13215274 41.43432607 100.11352539 45.39208984 C100.11367142 46.21226593 100.11381744 47.03244202 100.1139679 47.87747192 C100.11327462 50.57198792 100.10550972 53.26643367 100.09765625 55.9609375 C100.09578999 57.83566246 100.09436707 59.7103879 100.09336853 61.58511353 C100.08955973 66.50715493 100.07974346 71.42916659 100.06866455 76.35119629 C100.05841519 81.37865802 100.05386337 86.40612457 100.04882812 91.43359375 C100.03811968 101.28907553 100.02106297 111.14453529 100 121 C97.79936131 121.95723527 95.59737859 122.91115258 93.39453125 123.86328125 C92.77968872 124.13112427 92.16484619 124.39896729 91.53137207 124.67492676 C85.46773944 127.2901805 79.39003645 129.34930172 73 131 C71.30037109 131.45052734 71.30037109 131.45052734 69.56640625 131.91015625 C43.38656749 137.67132855 14.6944696 135.15232971 -10 125 C-11.76505261 124.29154104 -13.53067713 123.58450523 -15.296875 122.87890625 C-16.18213867 122.52513916 -17.06740234 122.17137207 -17.97949219 121.80688477 C-18.64625977 121.54061279 -19.31302734 121.27434082 -20 121 C-20.06982578 110.27232171 -20.1229756 99.54469841 -20.15543652 88.81683826 C-20.17102417 83.8342715 -20.19213486 78.8518614 -20.22631836 73.86938477 C-20.25915984 69.05180531 -20.27690476 64.23437558 -20.28463173 59.41669273 C-20.29013109 57.58808731 -20.30086863 55.75948911 -20.31719017 53.93094826 C-20.49233174 33.47688206 -16.8783391 16.67367596 -2.35546875 1.25390625 C-1 0 -1 0 0 0 Z " fill="#A57B51" transform="translate(216,352)"/>
<path d="M0 0 C7.92 0 15.84 0 24 0 C24.00879936 3.15349503 24.00879936 3.15349503 24.01777649 6.37069702 C24.07460074 26.23196319 24.14776006 46.09312208 24.23571491 65.95427513 C24.28054038 76.16384214 24.31998505 86.37337529 24.34643555 96.58300781 C24.36952351 105.48932728 24.40304047 114.39553841 24.44870156 123.30177176 C24.47248922 128.01064915 24.49131212 132.71942022 24.49761391 137.42835617 C24.50373097 141.8755 24.52396437 146.3223723 24.55427551 150.7694149 C24.56295109 152.38729263 24.56680057 154.00520601 24.56500816 155.623106 C24.55384499 170.37071754 26.24729392 184.87207157 30.6875 199 C31.06986816 200.23508301 31.06986816 200.23508301 31.45996094 201.49511719 C37.69463741 220.95892796 47.25102393 237.06377991 60 253 C60.33 236.17 60.66 219.34 61 202 C61.33 202 61.66 202 62 202 C62 225.43 62 248.86 62 273 C33.38985519 258.69492759 15.49915586 227.53927494 5.25 198.5 C0.90384485 184.65385156 -0.44153932 171.53387257 -0.34057617 157.11914062 C-0.33972745 155.39266474 -0.34020981 153.66618778 -0.34190369 151.93971252 C-0.3427555 147.30641246 -0.32526347 142.67335101 -0.30418181 138.04010582 C-0.28527749 133.17815779 -0.28365383 128.31620275 -0.28010559 123.45422363 C-0.27082518 114.27134408 -0.24626628 105.08857318 -0.21605712 95.90574121 C-0.1823876 85.44125574 -0.16599571 74.97676476 -0.15097082 64.5122385 C-0.11971262 43.00809698 -0.06641828 21.50405921 0 0 Z " fill="#AA8963" transform="translate(119,190)"/>
<path d="M0 0 C4.44202229 0.79321827 5.69148507 2.14765638 8.5 5.625 C9.11473083 8.70256042 9.11473083 8.70256042 9.09936523 12.18432617 C9.10544296 13.49306198 9.11152069 14.80179779 9.11778259 16.15019226 C9.09886678 17.57279548 9.0791161 18.9953878 9.05859375 20.41796875 C9.05433804 21.88901856 9.05201445 23.3600751 9.05152893 24.83113098 C9.04536906 27.91385383 9.02271032 30.99584853 8.98706055 34.07836914 C8.9419878 38.00425568 8.92704411 41.9294799 8.92332363 45.85560131 C8.91886308 48.89537431 8.9035005 51.93501204 8.8844471 54.97472572 C8.875644 56.4206056 8.86887632 57.86649952 8.86428642 59.31239891 C8.79650177 74.33379887 7.20119508 87.31181403 -3.4140625 98.73828125 C-11.33389954 105.90172936 -19.6856753 109.89272902 -30.44506836 109.85205078 C-31.09957977 109.85234283 -31.75409119 109.85263489 -32.42843628 109.85293579 C-34.56571276 109.85155594 -36.7026291 109.83605936 -38.83984375 109.8203125 C-40.33199371 109.81657757 -41.82414614 109.81373286 -43.31629944 109.81173706 C-47.22403863 109.80413839 -51.13162672 109.78452274 -55.03930664 109.7623291 C-59.73837411 109.73817122 -64.43749238 109.72907173 -69.13660431 109.71742249 C-76.25784096 109.69809575 -83.37874675 109.65974724 -90.5 109.625 C-90.5 122.495 -90.5 135.365 -90.5 148.625 C-96.11 148.625 -101.72 148.625 -107.5 148.625 C-107.62364115 141.4534331 -107.71436178 134.28248719 -107.7746582 127.11010742 C-107.79979496 124.67054436 -107.83390946 122.23105655 -107.87719727 119.79174805 C-107.93788229 116.28415354 -107.966219 112.7775551 -107.98828125 109.26953125 C-108.01408768 108.17977493 -108.0398941 107.09001862 -108.06648254 105.96723938 C-108.0682353 101.23010638 -108.04635402 98.47195221 -105.4375 94.42773438 C-101.70310077 92.13594549 -99.37931038 92.04971493 -95.01171875 92.13671875 C-94.30852005 92.14379349 -93.60532135 92.15086823 -92.8808136 92.15815735 C-90.64859773 92.18600788 -88.41894923 92.2487168 -86.1875 92.3125 C-84.66865619 92.33759549 -83.1497728 92.36040648 -81.63085938 92.38085938 C-77.91974752 92.43579993 -74.21012459 92.52200261 -70.5 92.625 C-70.52618408 91.47499512 -70.55236816 90.32499023 -70.5793457 89.14013672 C-70.67011176 84.85762119 -70.72734469 80.57519001 -70.7746582 76.29199219 C-70.79974245 74.44126062 -70.83381845 72.59062753 -70.87719727 70.74023438 C-70.93811995 68.07397117 -70.96626991 65.40902175 -70.98828125 62.7421875 C-71.01408768 61.92007782 -71.0398941 61.09796814 -71.06648254 60.25094604 C-71.068509 56.0636387 -70.77394319 53.42730003 -68.09838867 50.10498047 C-65.5 47.625 -65.5 47.625 -63.4375 46.828125 C-62.798125 46.84359375 -62.15875 46.8590625 -61.5 46.875 C-60.860625 46.85953125 -60.22125 46.8440625 -59.5625 46.828125 C-56.20727839 48.12446062 -54.24584829 50.5827022 -52.5 53.625 C-51.84447857 56.68267173 -51.91392076 59.62665855 -52.01171875 62.7421875 C-52.01879349 63.59934357 -52.02586823 64.45649963 -52.03315735 65.33963013 C-52.06100787 68.06066471 -52.12372544 70.77959407 -52.1875 73.5 C-52.2125951 75.35153265 -52.23540615 77.20309776 -52.25585938 79.0546875 C-52.31080349 83.57892846 -52.39700838 88.10160809 -52.5 92.625 C-48.66584287 92.54339341 -44.83319241 92.43061581 -41 92.3125 C-39.92234375 92.28994141 -38.8446875 92.26738281 -37.734375 92.24414062 C-29.0951873 91.95441177 -21.61070296 90.76203132 -15.16236877 84.5275116 C-8.92424388 77.38823833 -8.94966912 68.30711098 -9.04471016 59.31239891 C-9.06687868 57.12127437 -9.06279331 54.93150836 -9.05223083 52.74031067 C-9.03073097 47.30811897 -9.04797239 41.87624589 -9.07373047 36.4440918 C-9.09515275 31.8311609 -9.09707576 27.21911155 -9.07081413 22.60619545 C-9.06647806 20.45361734 -9.09103873 18.30259463 -9.11634827 16.15019226 C-9.10961594 14.84145645 -9.10288361 13.53272064 -9.09594727 12.18432617 C-9.10405174 10.46085213 -9.10405174 10.46085213 -9.11231995 8.70256042 C-8.0666006 3.44670602 -5.18627749 0.92612098 0 0 Z " fill="#00B393" transform="translate(418.5,25.375)"/>
<path d="M0 0 C4.44245341 0.79329525 5.69115724 2.14721622 8.5 5.625 C9.11904907 8.70928955 9.11904907 8.70928955 9.11181641 12.20019531 C9.12177643 13.51215881 9.13173645 14.82412231 9.14199829 16.17584229 C9.12859214 17.60160387 9.11511169 19.02736476 9.1015625 20.453125 C9.1070679 21.92658662 9.11519722 23.40004054 9.12582397 24.87347412 C9.14869034 28.74995399 9.14450298 32.62586974 9.13201904 36.50238037 C9.11370918 42.69159219 9.12388866 48.88046925 9.15787888 55.06960297 C9.16393249 57.21945504 9.15078339 59.36857692 9.13589478 61.51837158 C9.1283867 69.97777686 9.25735717 77.68124521 14.8125 84.4375 C20.68566747 89.21798515 24.8950674 91.68239255 32.48046875 91.94140625 C33.64384766 91.98330078 34.80722656 92.02519531 36.00585938 92.06835938 C37.22080078 92.10767578 38.43574219 92.14699219 39.6875 92.1875 C40.91404297 92.23068359 42.14058594 92.27386719 43.40429688 92.31835938 C46.43608381 92.4245309 49.46795315 92.52657952 52.5 92.625 C52.47381592 91.43946533 52.44763184 90.25393066 52.4206543 89.0324707 C52.33000979 84.62511134 52.27269912 80.217834 52.2253418 75.80981445 C52.20023001 73.90374893 52.16613355 71.99777941 52.12280273 70.09204102 C52.06200256 67.34888002 52.03375755 64.60699414 52.01171875 61.86328125 C51.98591232 61.01413651 51.9601059 60.16499176 51.93351746 59.29011536 C51.93146055 54.93042937 52.08905655 53.16509835 54.81176758 49.58666992 C57.5 47.625 57.5 47.625 61 47 C65.51675123 47.80656272 66.73299468 48.98835608 69.5 52.625 C70.17085402 55.71748724 70.08407456 58.71126081 69.98828125 61.86328125 C69.98120651 62.74404831 69.97413177 63.62481537 69.96684265 64.53227234 C69.93893848 67.33489285 69.87620943 70.13548735 69.8125 72.9375 C69.7874119 74.84176794 69.76459962 76.74606732 69.74414062 78.65039062 C69.68912503 83.30936984 69.60288151 87.96684189 69.5 92.625 C70.47348389 92.59881592 71.44696777 92.57263184 72.44995117 92.5456543 C76.07455302 92.45489979 79.69905527 92.39766099 83.32446289 92.3503418 C84.89104114 92.32525453 86.45750299 92.29117585 88.02368164 92.24780273 C90.28040309 92.18688774 92.53557294 92.15873501 94.79296875 92.13671875 C95.48899704 92.11091232 96.18502533 92.0851059 96.90214539 92.05851746 C100.41038118 92.05651096 102.44818925 92.59335121 105.45117188 94.42773438 C108.54915636 99.262244 108.12144906 103.64610807 107.98828125 109.26953125 C107.98120651 110.3944548 107.97413177 111.51937836 107.96684265 112.6783905 C107.93889144 116.26544149 107.87614717 119.85092212 107.8125 123.4375 C107.78741827 125.87172222 107.76460489 128.30596895 107.74414062 130.74023438 C107.68906162 136.70242644 107.60277994 142.66344713 107.5 148.625 C101.89 148.625 96.28 148.625 90.5 148.625 C90.5 135.755 90.5 122.885 90.5 109.625 C83.74402344 109.65980469 83.74402344 109.65980469 76.8515625 109.6953125 C73.98046291 109.70554407 71.10938612 109.71517288 68.23828125 109.72265625 C63.6915209 109.73456373 59.1448419 109.74857658 54.59814453 109.77587891 C50.92822763 109.79777575 47.2583981 109.80960373 43.58842087 109.81475449 C42.19554649 109.81842027 40.80267632 109.82557767 39.40983963 109.83646011 C24.89463332 109.94525183 14.12482342 108.68639274 3.16796875 98.4453125 C-4.33950181 90.39462979 -8.71169169 81.54600195 -8.80639648 70.41381836 C-8.81472 69.71871658 -8.82304352 69.02361481 -8.83161926 68.30744934 C-8.85557203 66.02652273 -8.86447067 63.74588248 -8.87109375 61.46484375 C-8.88006745 59.8711387 -8.88918943 58.27743447 -8.89845276 56.68373108 C-8.91490246 53.35090085 -8.92263619 50.01817064 -8.92553711 46.68530273 C-8.93093372 42.41902827 -8.96868242 38.15369487 -9.01428127 33.88768673 C-9.04404036 30.59937609 -9.05126031 27.31129317 -9.05226326 24.02285957 C-9.05646364 22.44998399 -9.06889083 20.87710762 -9.08978081 19.30436516 C-9.11668973 17.10446721 -9.11187538 14.90676648 -9.09936523 12.70678711 C-9.10443588 11.45691513 -9.10950653 10.20704315 -9.11473083 8.91929626 C-8.10762696 3.52230244 -5.34410501 0.95430447 0 0 Z " fill="#00B393" transform="translate(93.5,25.375)"/>
<path d="M0 0 C0.03738281 1.134375 0.07476562 2.26875 0.11328125 3.4375 C0.47407858 12.30505297 1.1660141 19.16373274 5.08920288 27.24308777 C6.24565234 30.74357059 6.19805354 33.67425718 6.13525391 37.3605957 C6.12579239 38.08309006 6.11633087 38.80558441 6.10658264 39.54997253 C6.07304646 41.92550753 6.02489365 44.30050511 5.9765625 46.67578125 C5.95038072 48.32771929 5.92511489 49.97967208 5.90072632 51.63163757 C5.8342188 55.97025278 5.75529524 60.30855614 5.67376709 64.64691162 C5.59270671 69.07763744 5.52341402 73.50854566 5.453125 77.93945312 C5.31358713 86.6265235 5.16092938 95.3132997 5 104 C5.94900177 104.31337311 6.89800354 104.62674622 7.87576294 104.94961548 C10.23668194 105.74336855 12.47196911 106.57688135 14.7421875 107.5859375 C42.15293547 119.50033431 69.4002965 120.27690027 99 118 C99 91.27 99 64.54 99 37 C99.33 37 99.66 37 100 37 C100 64.72 100 92.44 100 121 C82.23025048 128.61560694 82.23025048 128.61560694 73 131 C71.30037109 131.45052734 71.30037109 131.45052734 69.56640625 131.91015625 C43.38656749 137.67132855 14.6944696 135.15232971 -10 125 C-11.76505261 124.29154104 -13.53067713 123.58450523 -15.296875 122.87890625 C-16.18213867 122.52513916 -17.06740234 122.17137207 -17.97949219 121.80688477 C-18.64625977 121.54061279 -19.31302734 121.27434082 -20 121 C-20.06982578 110.27232171 -20.1229756 99.54469841 -20.15543652 88.81683826 C-20.17102417 83.8342715 -20.19213486 78.8518614 -20.22631836 73.86938477 C-20.25915984 69.05180531 -20.27690476 64.23437558 -20.28463173 59.41669273 C-20.29013109 57.58808731 -20.30086863 55.75948911 -20.31719017 53.93094826 C-20.49233174 33.47688206 -16.8783391 16.67367596 -2.35546875 1.25390625 C-1 0 -1 0 0 0 Z " fill="#916F4F" transform="translate(216,352)"/>
<path d="M0 0 C28.71 0 57.42 0 87 0 C87 16.83 87 33.66 87 51 C49.28831449 51.76649767 49.28831449 51.76649767 36 46 C35.34451172 45.72124023 34.68902344 45.44248047 34.01367188 45.15527344 C20.73511087 39.29479417 9.34671715 30.31697141 3 17 C2.66355469 16.31164062 2.32710937 15.62328125 1.98046875 14.9140625 C-0.3716365 9.47951795 0 6.41933383 0 0 Z " fill="#916F4F" transform="translate(16,190)"/>
<path d="M0 0 C28.38 0 56.76 0 86 0 C86 13.09567608 81.69197109 21.77062396 72.95703125 31.20703125 C64.07991467 39.93545241 52.02681875 45.86443654 40 49 C38.79537109 49.33773437 37.59074219 49.67546875 36.34960938 50.0234375 C32.25976146 51.04099378 28.44425589 51.22938916 24.21875 51.1953125 C22.93935547 51.19031738 21.65996094 51.18532227 20.34179688 51.18017578 C18.74400391 51.16196777 17.14621094 51.14375977 15.5 51.125 C10.385 51.08375 5.27 51.0425 0 51 C0 34.17 0 17.34 0 0 Z " fill="#A57B52" transform="translate(410,190)"/>
<path d="M0 0 C6.7963301 3.49624452 11.94638538 8.79277146 14.30078125 16.12109375 C15.33074908 25.00050061 14.84318295 32.8558732 9.30078125 40.12109375 C3.62183726 45.7184102 -2.13189069 48.14650022 -10.07421875 48.49609375 C-15.51046616 48.39268687 -19.18930306 47.07266329 -23.69921875 44.12109375 C-24.58609375 43.58484375 -25.47296875 43.04859375 -26.38671875 42.49609375 C-31.91086257 36.82264874 -34.02502569 30.87459144 -34.26171875 22.99609375 C-33.97906115 16.13792774 -32.82738997 11.43104731 -28.0859375 6.4140625 C-20.06753744 -0.89317125 -10.57223377 -3.44247844 0 0 Z " fill="#EB5D51" transform="translate(265.69921875,336.87890625)"/>
<path d="M0 0 C18.81 0 37.62 0 57 0 C57 12.21 57 24.42 57 37 C36.00636474 33.18297541 15.36690358 25.34393763 2.6171875 7.01171875 C0 2.59178322 0 2.59178322 0 0 Z " fill="#A57B51" transform="translate(46,190)"/>
<path d="M0 0 C4.01684726 2.93915653 6.95784056 6.06102168 8.5625 10.875 C9.34623488 17.38899317 8.35102352 22.47329873 4.5625 27.875 C-0.53321786 32.72214625 -4.84156309 33.23322448 -11.64453125 33.15234375 C-15.95721013 32.72409172 -18.00119156 31.53989226 -21.4375 28.875 C-25.38960428 23.77886554 -26.86404712 19.64374132 -26.78125 13.2890625 C-26.00144206 7.81268399 -22.72293736 4.12908523 -18.875 0.375 C-12.75257897 -2.29660191 -6.30450021 -2.06329098 0 0 Z " fill="#646052" transform="translate(196.4375,284.125)"/>
<path d="M0 0 C5.19429187 2.72728614 7.97630225 6.86640674 9.79296875 12.31640625 C10.48576315 19.12888456 9.11327287 23.00725868 4.79296875 28.31640625 C-0.39475247 33.13357596 -4.60834396 33.67018527 -11.48046875 33.59765625 C-16.5857745 33.07103445 -19.20679172 30.42477978 -22.51953125 26.75390625 C-26.01024574 21.71176309 -25.81836176 16.24291592 -25.20703125 10.31640625 C-20.21772774 0.1530102 -10.72113658 -3.32070602 0 0 Z " fill="#646052" transform="translate(333.20703125,283.68359375)"/>
</svg>
