<?xml version="1.0" encoding="UTF-8"?>
<svg version="1.1" xmlns="http://www.w3.org/2000/svg" width="512" height="512">
<path d="M0 0 C13.78388185 13.78388185 21.32487113 32.81188248 21.68603516 52.12353516 C21.50328779 69.41143624 16.72584924 83.9794761 7.49853516 98.49853516 C8.13017578 98.46373047 8.76181641 98.42892578 9.41259766 98.39306641 C29.79157961 97.77641133 48.37297192 106.19384012 63.08447266 119.99462891 C79.18271419 136.69199593 85.0159083 156.06298242 84.703125 178.72631836 C84.64877002 181.31772296 84.58221721 183.90793175 84.49853516 186.49853516 C85.27382568 186.79872559 86.04911621 187.09891602 86.84790039 187.40820312 C89.6532166 188.56216298 91.9995999 190.00141857 94.56103516 191.62353516 C111.12971407 201.36144583 129.3736143 206.40330711 148.33447266 208.81103516 C151.47015349 209.80720813 152.56862703 210.79336479 154.49853516 213.49853516 C155.43742509 216.7850382 155.88938088 220.11932408 156.37353516 223.49853516 C159.19454416 240.67717447 163.90474139 256.3195683 172.49853516 271.49853516 C172.82611816 272.0821582 173.15370117 272.66578125 173.49121094 273.26708984 C180.24122706 285.13931551 188.83005815 296.80361684 199.72900391 305.22119141 C201.85349763 307.95536324 202.04464811 309.95419247 201.86279297 313.37939453 C201.23541756 317.02927292 199.61276886 320.01243283 197.87353516 323.24853516 C194.64308126 329.66123795 192.1522786 336.0473817 190.12353516 342.93603516 C189.88554199 343.73944336 189.64754883 344.54285156 189.40234375 345.37060547 C183.73202207 365.2473928 183.61863472 384.12842702 186.99462891 404.49072266 C187.5880311 408.61395029 187.86547736 410.74936149 185.99853516 414.56103516 C182.63448278 417.16817575 180.77120502 417.430715 176.49853516 417.49853516 C174.83688033 417.20326392 173.18077542 416.87589747 171.52978516 416.52587891 C143.86098342 411.33038702 116.31012161 417.95456001 92.16772461 431.51489258 C83.95477513 436.09128707 83.95477513 436.09128707 79.02197266 434.90087891 C75.8132296 433.11769197 73.58174624 430.72846462 71.12353516 428.06103516 C61.70774912 418.27218483 50.705016 410.45291606 38.49853516 404.49853516 C37.50724609 403.99837891 36.51595703 403.49822266 35.49462891 402.98291016 C22.33224511 396.58744515 9.18043012 393.12441995 -5.2277832 390.9296875 C-6.12891846 390.7848291 -7.03005371 390.6399707 -7.95849609 390.49072266 C-8.76262939 390.37067871 -9.5667627 390.25063477 -10.39526367 390.12695312 C-12.92259431 389.37288461 -13.92376208 388.60183747 -15.50146484 386.49853516 C-16.12988281 384.51586914 -16.12988281 384.51586914 -16.49365234 382.24462891 C-16.63834961 381.39940674 -16.78304688 380.55418457 -16.93212891 379.68334961 C-17.07875977 378.77673584 -17.22539062 377.87012207 -17.37646484 376.93603516 C-22.35525329 348.96992143 -32.27673689 321.43691596 -53.50146484 301.49853516 C-67.91541433 307.73503427 -77.64984943 330.74660071 -83.36523438 344.59082031 C-87.34402391 354.7572731 -89.55725106 365.00335963 -91.12158203 375.7956543 C-92.51195547 385.05544505 -92.51195547 385.05544505 -95.50146484 388.49853516 C-98.91513442 390.43091597 -102.41519346 390.86556251 -106.27392578 391.38427734 C-136.43740866 395.47043088 -163.61654314 410.21186415 -184.21240234 432.52978516 C-186.84872605 434.7972035 -188.03126338 435.45758883 -191.50146484 435.49853516 C-193.98779519 434.61579625 -196.15905285 433.67542386 -198.50146484 432.49853516 C-199.26620117 432.12744629 -200.0309375 431.75635742 -200.81884766 431.37402344 C-202.52196909 430.54704933 -204.22315629 429.71608245 -205.92260742 428.8815918 C-214.60788191 424.63972726 -223.05509283 420.73583379 -232.50146484 418.49853516 C-233.63326172 418.20333984 -234.76505859 417.90814453 -235.93115234 417.60400391 C-244.56909176 415.63757071 -252.96075057 415.21857684 -261.81396484 415.18603516 C-262.89895264 415.18055664 -263.98394043 415.17507813 -265.10180664 415.16943359 C-271.29524508 415.2242386 -277.09630154 415.78594277 -283.15673828 417.078125 C-286.57183433 417.69045272 -289.19038092 417.51213227 -292.50146484 416.49853516 C-295.00146484 414.56103516 -295.00146484 414.56103516 -296.50146484 411.49853516 C-296.64569672 408.09597396 -296.05694805 404.8489299 -295.50146484 401.49853516 C-291.10493947 372.38376711 -295.55365468 344.44944491 -309.18115234 318.27197266 C-311.1281219 314.18218453 -311.07314312 312.00050156 -310.50146484 307.49853516 C-308.26318359 305.02978516 -308.26318359 305.02978516 -305.50146484 302.49853516 C-281.07049124 279.54573811 -267.95475594 248.92616449 -264.18896484 215.88134766 C-263.28922671 212.76293708 -261.97200043 211.58351866 -259.50146484 209.49853516 C-256.99047852 208.66479492 -256.99047852 208.66479492 -254.16943359 208.18994141 C-252.61180298 207.90993286 -252.61180298 207.90993286 -251.02270508 207.62426758 C-249.9225708 207.43840088 -248.82243652 207.25253418 -247.68896484 207.06103516 C-228.47393942 203.49223664 -211.94945288 197.0252475 -195.50146484 186.49853516 C-194.84146484 186.49853516 -194.18146484 186.49853516 -193.50146484 186.49853516 C-193.52241211 185.85005615 -193.54335937 185.20157715 -193.56494141 184.53344727 C-194.23930535 160.42920427 -190.21431277 139.60093144 -173.41162109 121.40087891 C-160.93255989 108.61141416 -142.7571308 98.78872445 -124.62646484 98.44384766 C-121.91712648 98.43693608 -119.21040405 98.45444754 -116.50146484 98.49853516 C-117.02095703 97.67353516 -117.54044922 96.84853516 -118.07568359 95.99853516 C-124.85463842 84.90200268 -130.16677667 72.70756165 -130.50146484 59.49853516 C-130.55173828 58.46728516 -130.60201172 57.43603516 -130.65380859 56.37353516 C-131.1895099 37.17400045 -125.57725616 20.39754684 -113.50146484 5.49853516 C-112.68742187 4.43892578 -112.68742187 4.43892578 -111.85693359 3.35791016 C-100.63428864 -10.51338823 -83.85042228 -18.65480129 -66.50146484 -21.50146484 C-65.64810547 -21.65486328 -64.79474609 -21.80826172 -63.91552734 -21.96630859 C-40.26070913 -25.20519909 -17.09378103 -16.08175329 0 0 Z M-55.50146484 216.49853516 C-56.74151869 217.95387259 -56.74151869 217.95387259 -58.00146484 219.87353516 C-61.30102991 224.53077663 -65.31152102 228.09613815 -69.62255859 231.81103516 C-71.86920405 234.46753442 -71.86920405 234.46753442 -71.45068359 238.27197266 C-70.598952 242.65641376 -69.31344597 246.89905105 -67.87646484 251.12353516 C-67.61575195 251.89898682 -67.35503906 252.67443848 -67.08642578 253.47338867 C-64.15757517 261.90291118 -60.46208286 270.05760813 -55.50146484 277.49853516 C-54.84146484 277.49853516 -54.18146484 277.49853516 -53.50146484 277.49853516 C-45.90535213 267.77459569 -37.3617 248.53054509 -37.53662109 235.97509766 C-38.9512332 232.34406902 -41.57131059 230.08689762 -44.37646484 227.49853516 C-48.09628297 224.01728018 -50.9092679 220.93298527 -53.50146484 216.49853516 C-54.16146484 216.49853516 -54.82146484 216.49853516 -55.50146484 216.49853516 Z " fill="#626052" transform="translate(310.50146484375,49.50146484375)"/>
<path d="M0 0 C0.63615234 1.25103516 0.63615234 1.25103516 1.28515625 2.52734375 C4.94639687 9.55209773 8.75905659 16.01687506 14 22 C14.58136719 22.67546875 15.16273438 23.3509375 15.76171875 24.046875 C24.81506947 33.84043678 36.82168074 39.17979567 49 44 C47.36743754 48.18167326 44.2913425 50.94467643 41.14453125 54.015625 C40.56466965 54.59028503 39.98480804 55.16494507 39.38737488 55.75701904 C37.5337814 57.59284019 35.6736614 59.42185415 33.8125 61.25 C31.97001075 63.06465708 30.12908013 64.88082553 28.29118347 66.70013428 C27.14976186 67.82953285 26.00568243 68.95625477 24.85835266 70.07965088 C21.97809983 72.92464973 19.24008759 75.83570131 16.59570312 78.90209961 C12.90275979 83.17181134 8.9631369 87.14685861 4.94921875 91.11328125 C3.83919243 92.21762764 3.83919243 92.21762764 2.70674133 93.34428406 C0.36943127 95.66949115 -1.97111686 97.99139484 -4.3125 100.3125 C-7.41562977 103.38905592 -10.51544338 106.46889795 -13.61328125 109.55078125 C-14.32470779 110.25390945 -15.03613434 110.95703766 -15.76911926 111.68147278 C-16.42707993 112.33613022 -17.08504059 112.99078766 -17.76293945 113.6652832 C-18.63061699 114.52510551 -18.63061699 114.52510551 -19.51582336 115.40229797 C-22.07185874 118.15384573 -22.97462543 119.71580479 -23.3125 123.5 C-23.2488492 126.85331695 -23.2488492 126.85331695 -21.9375 128.9375 C-18.94507644 130.57850647 -16.3453492 130.23895351 -13 130 C-9.92253334 129.3602563 -9.92253334 129.3602563 -9.06071472 127.19891357 C-8.71067886 126.47327209 -8.36064301 125.74763062 -8 125 C-6.72635732 123.55981885 -5.39508183 122.16975764 -4.02856445 120.81738281 C-3.21043777 120.00263489 -2.3923111 119.18788696 -1.5493927 118.34844971 C-0.66297592 117.47549255 0.22344086 116.6025354 1.13671875 115.703125 C2.53183885 114.31595494 3.92695623 112.92878214 5.32191944 111.54145432 C7.27790068 109.5985963 9.23837932 107.66030775 11.19891357 105.7220459 C14.60980742 102.34905243 18.01610753 98.97143834 21.4186554 95.59002686 C23.22785405 93.79297047 25.03971897 91.99859306 26.85466003 90.20733643 C31.20723696 85.8888484 35.40647645 81.51179674 39.40150452 76.86022949 C43.62798338 71.94171661 48.07105512 67.22462987 52.55712891 62.54345703 C53.76601741 61.26767865 54.96026226 59.97785837 56.13916016 58.67431641 C62.68689603 51.45268282 67.91439354 46.09354657 77.984375 45.28125 C79.36383913 45.22995924 80.74383267 45.19102472 82.12402344 45.16601562 C87.06250695 44.95449076 91.10064712 43.55212074 95.6796875 41.8046875 C98 41 98 41 101 41 C101.1952124 41.63800537 101.3904248 42.27601074 101.59155273 42.93334961 C105.46790898 55.45030511 109.60510752 67.23875242 116.1171875 78.63671875 C117.66351364 81.39893204 118.92198731 84.03262823 120 87 C119.45472656 87.57105469 118.90945312 88.14210938 118.34765625 88.73046875 C97.40168462 111.25186389 82.89156024 141.22771157 80 172 C78.20369141 172.34611328 78.20369141 172.34611328 76.37109375 172.69921875 C46.2636879 178.65538427 17.29126102 191.22330216 -4 214 C-8.64058675 212.54847595 -13.01823187 210.69512126 -17.4375 208.6875 C-37.4227564 199.82159928 -57.352867 195.75542801 -79.1875 195.9375 C-80.23486328 195.94201172 -81.28222656 195.94652344 -82.36132812 195.95117188 C-84.90761536 195.96279876 -87.4537746 195.97913719 -90 196 C-89.98428955 195.1656543 -89.9685791 194.33130859 -89.95239258 193.47167969 C-89.50751226 166.17817855 -90.66176441 140.16470643 -103.875 115.5 C-105 113 -105 113 -104.84375 111.109375 C-103.68934782 108.22336955 -101.92994947 106.82954432 -99.625 104.75 C-93.44809238 98.76778001 -88.83108238 91.99393599 -84.16748047 84.79931641 C-83.21282491 83.32800494 -82.23640461 81.87083545 -81.25390625 80.41796875 C-70.0745322 63.11872055 -64.29211954 42.12743004 -61 22 C-60.15743652 21.83564453 -60.15743652 21.83564453 -59.29785156 21.66796875 C-39.98350412 17.8129347 -21.16489729 11.77853577 -4.30859375 1.33203125 C-2 0 -2 0 0 0 Z " fill="#01B091" transform="translate(123,252)"/>
<path d="M0 0 C3.83238843 1.00852327 6.84130865 2.48244961 10.125 4.625 C25.68710544 14.10562887 43.37052693 18.22163392 61 22 C61.20753906 23.05574219 61.41507813 24.11148437 61.62890625 25.19921875 C67.79898853 55.34911185 79.62896171 87.6538702 103.69921875 108.21875 C105 110 105 110 104.8828125 112.3125 C103.8416841 115.48195283 102.56428361 118.46061948 101.1875 121.5 C92.66468549 140.88997699 89.80592977 160.55346536 89.9375 181.5625 C89.94252634 182.96679527 89.94708724 184.3710923 89.95117188 185.77539062 C89.96288407 189.18363903 89.97928628 192.5917964 90 196 C89.08524902 196.00410889 88.17049805 196.00821777 87.22802734 196.01245117 C59.11670409 196.2328699 33.37183935 198.89425914 8.453125 213.09375 C6 214 6 214 3.8515625 213.34375 C2.01862247 212.01351504 0.62799917 210.68985853 -0.875 209 C-21.11351064 188.28882775 -51.29065624 177.48370821 -79 172 C-79.41666667 170.33333333 -79.83333333 168.66666667 -80.25 167 C-80.66958984 165.34484375 -80.66958984 165.34484375 -81.09765625 163.65625 C-81.69746871 161.22584106 -82.26803395 158.78802038 -82.80859375 156.34375 C-88.85558807 129.89822819 -101.73659156 106.96642723 -120 87 C-118.63134616 83.243482 -116.86383074 79.85982623 -114.92797852 76.37841797 C-108.66345071 65.05942244 -104.47396115 53.4416283 -101 41 C-97.79737998 41.58789354 -94.82216832 42.37108186 -91.75 43.4375 C-87.81678939 44.72579539 -84.51723595 44.9934471 -80.39755249 44.94924927 C-68.78170811 45.20924608 -62.75646903 51.52686877 -55.05078125 59.58203125 C-53.49142748 61.26231583 -51.93283952 62.94331142 -50.375 64.625 C-48.78087015 66.28594384 -47.18323237 67.94352827 -45.58203125 69.59765625 C-40.12770186 75.26487342 -34.73245521 80.97192551 -29.5925293 86.92724609 C-22.86283197 94.66643362 -15.50238325 101.84127731 -8.28442383 109.12060547 C-6.37639965 111.04657267 -4.47729914 112.98074602 -2.58520508 114.92236328 C0.15676418 117.73594649 2.92297936 120.5249338 5.69140625 123.3125 C6.53530411 124.18422852 7.37920197 125.05595703 8.24867249 125.95410156 C9.04647629 126.74913086 9.84428009 127.54416016 10.66625977 128.36328125 C11.36018326 129.06751221 12.05410675 129.77174316 12.76905823 130.49731445 C15.6833707 132.46029497 17.55268107 132.35185192 21 132 C23.48105194 131.09764165 23.48105194 131.09764165 25 129 C25.818495 125.91490345 25.97441031 124.92742644 25 122 C18.04288971 112.61090426 8.65893797 104.57749476 0.375 96.375 C-2.37019554 93.65665547 -5.11187432 90.93483134 -7.8515625 88.2109375 C-8.77214951 87.302798 -8.77214951 87.302798 -9.71133423 86.37631226 C-13.40978063 82.69853495 -16.87431415 78.88477168 -20.28381348 74.93881226 C-22.92492651 71.95509094 -25.74413701 69.16982862 -28.58984375 66.3828125 C-29.79765045 65.18762571 -31.00532928 63.99230968 -32.21289062 62.796875 C-34.0897138 60.94505633 -35.96813095 59.09490506 -37.84887695 57.24707031 C-39.68350719 55.442454 -41.5120205 53.63181915 -43.33984375 51.8203125 C-43.90847641 51.26513947 -44.47710907 50.70996643 -45.06297302 50.13796997 C-46.41362049 48.79613293 -47.71240459 47.40245259 -49 46 C-49 45.34 -49 44.68 -49 44 C-47.98421875 43.5875 -46.9684375 43.175 -45.921875 42.75 C-24.18016145 33.7196835 -10.33406853 21.11057424 0 0 Z " fill="#00B393" transform="translate(389,252)"/>
<path d="M0 0 C11.28980343 9.37663376 19.04593591 23.35279208 21.1875 37.8125 C22.59951662 54.5725234 19.34322252 70.66119275 8.671875 84.12109375 C0.65099122 93.58378704 -9.02878906 99.9556604 -20.8125 103.8125 C-21.493125 104.03808594 -22.17375 104.26367188 -22.875 104.49609375 C-36.9340249 108.35700021 -53.5611968 106.19706413 -66.4375 99.8125 C-80.70869211 91.52824702 -90.63998283 79.56398444 -95.8125 63.8125 C-96.03808594 63.15507812 -96.26367188 62.49765625 -96.49609375 61.8203125 C-100.7785192 46.63985263 -97.79954094 30.45745235 -90.59765625 16.796875 C-82.02941609 2.47272733 -68.84419185 -7.70216079 -52.6875 -12 C-33.46869245 -15.96614543 -15.89488942 -11.3455668 0 0 Z " fill="#D74F48" transform="translate(357.8125,177.1875)"/>
<path d="M0 0 C1.69482716 1.36150261 3.363105 2.75686964 5 4.1875 C5.78761719 4.85394531 6.57523437 5.52039063 7.38671875 6.20703125 C16.80482209 14.82563515 24.02760632 27.22509921 25.28173828 40.07397461 C25.40060335 43.11796467 25.40978882 46.14154519 25.375 49.1875 C25.38660156 50.20328125 25.39820313 51.2190625 25.41015625 52.265625 C25.34972925 67.97664502 18.79773188 81.43762201 7.8515625 92.4921875 C0.11044016 99.80913875 -7.90719851 103.87288992 -18 107.1875 C-19.66289062 107.73857422 -19.66289062 107.73857422 -21.359375 108.30078125 C-35.58970982 111.76675336 -50.5503297 108.94765678 -63.25 102 C-77.84251679 92.89426952 -87.58722912 80.47963048 -92.38256836 63.97509766 C-93.46243391 59.09969043 -93.48773315 54.28835094 -93.4375 49.3125 C-93.42920166 48.25256836 -93.42090332 47.19263672 -93.41235352 46.10058594 C-93.2480892 38.5081842 -92.48059582 32.03474355 -89 25.1875 C-88.525625 24.20136719 -88.05125 23.21523437 -87.5625 22.19921875 C-79.9447055 7.78767002 -67.276721 -2.61956463 -52.0625 -8.3125 C-34.18563789 -13.11136746 -15.24422702 -10.52125766 0 0 Z " fill="#DF594D" transform="translate(290,53.8125)"/>
<path d="M0 0 C5.70147224 5.50373332 13.81691302 14.72820971 14.25 22.8125 C14.22125719 26.01444877 13.77943633 28.88310658 13.0625 32 C10.9738636 41.7718346 11.99475502 51.35094502 13.625 61.12109375 C14.77393759 69.50218313 12.89300249 73.54979651 8.0625 80.3125 C-1.66242123 92.74187551 -14.41457189 101.40598476 -30.19140625 104.03125 C-48.71247738 105.92814491 -64.02267744 102.37493686 -78.79296875 91.140625 C-90.39006273 81.24537386 -98.38102757 67.64036977 -99.9375 52.3125 C-101.12288296 35.66633647 -98.05088396 21.95491021 -87.9375 8.3125 C-87.215625 7.28125 -86.49375 6.25 -85.75 5.1875 C-63.28022115 -20.13674587 -25.39926252 -20.9955375 0 0 Z " fill="#EC5D51" transform="translate(232.9375,178.6875)"/>
<path d="M0 0 C3.91309563 0.59289328 6.14059403 2.49223978 9.1875 4.9375 C41.96008201 30.2992481 85.58269716 44.77374757 127 40 C148.24741521 37.05448605 165.35838089 29.1620253 183 17 C182.85485591 18.47923446 182.70883578 19.95838296 182.5625 21.4375 C182.44068359 22.67306641 182.44068359 22.67306641 182.31640625 23.93359375 C182.07715398 26.25227314 181.78535968 28.56561175 181.46875 30.875 C180.70089721 37.74552595 180.89427207 44.65989621 180.9375 51.5625 C180.94252634 52.96679527 180.94708724 54.3710923 180.95117188 55.77539062 C180.96288407 59.18363903 180.97928628 62.5917964 181 66 C179.62787354 66.00616333 179.62787354 66.00616333 178.22802734 66.01245117 C150.11670409 66.2328699 124.37183935 68.89425914 99.453125 83.09375 C97 84 97 84 94.8515625 83.34375 C93.01862247 82.01351504 91.62799917 80.68985853 90.125 79 C69.88648936 58.28882775 39.70934376 47.48370821 12 42 C11.58333333 40.33333333 11.16666667 38.66666667 10.75 37 C10.47414063 35.90429688 10.19828125 34.80859375 9.9140625 33.6796875 C9.29005379 31.16765244 8.68133061 28.65178334 8.0859375 26.1328125 C5.95084608 17.17070038 3.2836192 8.61277168 0 0 Z " fill="#06A88B" transform="translate(298,382)"/>
<path d="M0 0 C1.45148591 2.90297182 0.55027168 4.82973213 -0.0625 8 C-2.74994974 25.80663974 1.87709858 43.20653219 12 58 C21.74380767 70.70931435 36.73211274 81.84006203 53 84 C63.96893981 85.26801437 74.11339633 84.75170086 85 83 C74.98243692 93.38598484 61.55367142 98.95340378 47.16845703 99.54321289 C29.55960838 99.69129667 14.94122586 93.33402914 2.18359375 81.25 C-9.19087644 69.52961569 -14.60135945 55.35611695 -14.4375 39.125 C-14.42920166 38.06506836 -14.42090332 37.00513672 -14.41235352 35.91308594 C-14.13585022 23.13292648 -10.21573609 10.74171229 -1.28515625 1.16015625 C-0.86105469 0.77730469 -0.43695313 0.39445312 0 0 Z " fill="#CE574C" transform="translate(211,64)"/>
<path d="M0 0 C1.2562911 3.6292854 0.62289105 6.2626537 0 10 C-1.40699014 29.51333868 4.29935867 48.01131657 16.80859375 63.1953125 C27.80915649 74.85911083 43.72841049 83.34075399 59.92382812 84.08886719 C68.34019778 84.32502107 76.64152945 84.06139309 85 83 C75.90718814 92.87316511 62.46501624 97.28203402 49.34375 98.27734375 C31.81471793 98.73005636 17.84294869 93.956578 4.5625 82.625 C-7.32054465 71.18927127 -13.76731509 56.6595933 -14.34350586 40.15283203 C-14.55989304 25.79076226 -10.77338636 13.53578761 -2 2 C-1.34 1.34 -0.68 0.68 0 0 Z " fill="#DA5A50" transform="translate(147,185)"/>
<path d="M0 0 C1.52990399 3.05980797 0.49854865 5.6516395 0 9 C-1.02725755 28.95250234 3.09743253 47.0436038 16.21875 62.63671875 C28.02341036 75.15042527 44.32764407 83.50912344 61.69921875 84.1328125 C69.52497856 84.1174829 77.21623158 83.92349795 85 83 C76.24900189 92.51977738 62.89383476 97.35300997 50.1875 98.27734375 C32.85335411 98.89964905 17.70825688 94.44514019 4.625 82.75 C-3.37015059 75.24469132 -8.59367979 66.37301531 -12 56 C-12.22558594 55.34257812 -12.45117188 54.68515625 -12.68359375 54.0078125 C-17.04650185 38.54205551 -13.79418762 22.5865132 -6.5625 8.68359375 C-4.65725878 5.41134196 -2.59506897 2.74772008 0 0 Z " fill="#C84E47" transform="translate(274,185)"/>
<path d="M0 0 C6.22581849 3.16549217 11.72672214 7.18016643 14 14 C14.56583243 21.12948857 14.56583243 21.12948857 12.375 24.5 C9.26366038 26.4650566 7.63288013 26.50860322 4 26 C-2.14001925 23.61917621 -6.37758171 19.43362744 -10 14 C-11.19754817 10.40735548 -11.33094958 7.77282526 -11 4 C-8.09042574 -0.53893584 -5.14780504 -0.84390247 0 0 Z " fill="#FEFBFA" transform="translate(286,55)"/>
<path d="M0 0 C4.44542784 3.02667427 8.50968241 7.14436482 10.9375 12 C11.84117395 19.80715038 11.84117395 19.80715038 9.375 23.0625 C4.53815273 24.92282587 1.08125877 24.50164858 -3.625 22.4375 C-8.35396169 19.44854001 -12.28580023 15.33009931 -14.0625 10 C-14.43109373 6.48418288 -14.66569333 3.20638666 -13.0625 0 C-8.7435103 -2.15949485 -4.39801914 -1.43608788 0 0 Z " fill="#FEFCFC" transform="translate(354.0625,179)"/>
<path d="M0 0 C5.8605177 1.13518689 10.0781661 4.97555859 14.04296875 9.23046875 C15.97361775 13.59541431 16.37995394 17.77235255 15.48046875 22.48046875 C13.34858264 25.37420005 12.58158445 25.46477838 8.85546875 26.04296875 C3.39958875 25.83157857 -0.49899397 22.97073831 -4.51953125 19.48046875 C-7.81852232 15.70113008 -9.41016793 12.0115552 -9.76953125 6.98046875 C-9.51953125 3.48046875 -9.51953125 3.48046875 -8.26171875 1.796875 C-5.53771827 -0.26139442 -3.32776064 -0.11400159 0 0 Z " fill="#FEFCFB" transform="translate(222.51953125,177.51953125)"/>
</svg>
