<?xml version="1.0" encoding="UTF-8"?>
<svg version="1.1" xmlns="http://www.w3.org/2000/svg" width="512" height="512">
<path d="M0 0 C1.4540625 0.81404297 1.4540625 0.81404297 2.9375 1.64453125 C29.4378479 17.47540768 48.53250022 43.80032063 56.3972168 73.49560547 C59.44812706 86.17127882 60.39703331 97.97994277 60.1875 111 C60.1723989 112.66144596 60.15872026 114.32290547 60.14648438 115.984375 C60.11397011 119.98992862 60.06250102 123.99480673 60 128 C60.70487549 127.98259766 61.40975098 127.96519531 62.13598633 127.94726562 C80.44386738 127.6868538 98.39953864 134.64558481 112 147 C112.73347656 147.64195312 113.46695312 148.28390625 114.22265625 148.9453125 C128.05277322 161.80281404 136.58704412 179.79644729 137.3359375 198.69921875 C137.65763929 219.9526318 133.59829254 238.74011318 119 255 C118.28328125 255.80953125 117.5665625 256.6190625 116.828125 257.453125 C106.81756265 268.11797247 95.12853875 275.12554389 81 279 C80.38253466 279.17308622 79.76506931 279.34617245 79.1288929 279.52450371 C70.2576245 281.65663002 61.20762235 281.26479802 52.14794922 281.22705078 C50.24502061 281.22648594 48.34209156 281.22680465 46.43916321 281.22793579 C41.29731876 281.22850747 36.15556844 281.21678321 31.01374578 281.20278788 C25.63124925 281.19024956 20.24875034 281.18910758 14.86624146 281.18673706 C4.68446317 281.18053139 -5.49727194 281.16413295 -15.67903125 281.14403808 C-27.27516707 281.12165063 -38.87130499 281.1106785 -50.46745706 281.10064721 C-74.31166193 281.0797659 -98.15582854 281.04460771 -122 281 C-121.98686768 282.10941452 -121.97373535 283.21882904 -121.96020508 284.36186218 C-122.0152513 289.39430646 -122.0152513 289.39430646 -124 292 C-126.58203125 293.81518555 -126.58203125 293.81518555 -129.8125 295.63671875 C-130.66678589 296.12408257 -130.66678589 296.12408257 -131.53833008 296.62129211 C-133.35333437 297.65354628 -135.17638181 298.67055619 -137 299.6875 C-138.22711564 300.38248779 -139.45368492 301.07844121 -140.6796875 301.77539062 C-152.45666067 308.45338539 -152.45666067 308.45338539 -159 308 C-162.13378906 306.6706543 -162.13378906 306.6706543 -165.265625 304.82421875 C-166.40257812 304.16099609 -167.53953125 303.49777344 -168.7109375 302.81445312 C-169.29198242 302.46519775 -169.87302734 302.11594238 -170.47167969 301.75610352 C-172.25096832 300.68691813 -174.04176764 299.63968633 -175.8359375 298.59570312 C-185.84205112 292.69802226 -185.84205112 292.69802226 -188 290 C-188.29296875 287.73828125 -188.29296875 287.73828125 -188.1875 285.3125 C-188.14689453 284.10013672 -188.14689453 284.10013672 -188.10546875 282.86328125 C-188.07066406 282.24839844 -188.03585938 281.63351562 -188 281 C-188.60885292 281.00368717 -189.21770584 281.00737434 -189.84500885 281.01117325 C-204.73005725 281.09990603 -219.61507977 281.16589388 -234.50032806 281.20724869 C-241.69904643 281.22778442 -248.89758715 281.2557305 -256.09619141 281.30175781 C-262.37799445 281.34190367 -268.65966872 281.36749794 -274.94159651 281.37635398 C-278.26117589 281.38152252 -281.58009809 281.39564772 -284.89961243 281.42292023 C-298.84088092 281.53282204 -311.69599444 281.51843787 -325 277 C-325.94339233 276.69950745 -326.88678467 276.39901489 -327.85876465 276.0894165 C-345.16281994 270.31640922 -359.90594834 254.86884838 -368 239 C-376.73948575 219.57643703 -378.40842046 197.19286283 -371 177 C-367.39019435 167.99316945 -362.5245001 160.1952431 -356 153 C-355.30003906 152.21882812 -354.60007812 151.43765625 -353.87890625 150.6328125 C-342.17617354 138.24168375 -325.92816753 130.04863174 -309 128 C-305.33107588 127.91409713 -301.66909365 127.93295814 -298 128 C-298.01571045 127.40687012 -298.0314209 126.81374023 -298.04760742 126.20263672 C-298.63299099 100.6779371 -293.66029993 78.69699857 -276.625 58.7265625 C-261.10729969 42.60847498 -239.74379638 32.22091178 -217.25952148 31.65649414 C-200.55401819 31.47796627 -186.45359651 34.50458356 -171.78515625 42.546875 C-169.44936341 43.76554952 -167.56906358 44.52952089 -165 45 C-164.5875 44.32195312 -164.175 43.64390625 -163.75 42.9453125 C-145.59013089 13.67873772 -118.85213144 -5.47727419 -85.30859375 -13.65625 C-56.23399988 -19.84426998 -25.69470589 -14.69434537 0 0 Z " fill="#F0F1F1" transform="translate(375,42)"/>
<path d="M0 0 C1.4540625 0.81404297 1.4540625 0.81404297 2.9375 1.64453125 C29.4378479 17.47540768 48.53250022 43.80032063 56.3972168 73.49560547 C59.44812706 86.17127882 60.39703331 97.97994277 60.1875 111 C60.1723989 112.66144596 60.15872026 114.32290547 60.14648438 115.984375 C60.11397011 119.98992862 60.06250102 123.99480673 60 128 C60.70487549 127.98259766 61.40975098 127.96519531 62.13598633 127.94726562 C80.44386738 127.6868538 98.39953864 134.64558481 112 147 C112.73347656 147.64195312 113.46695312 148.28390625 114.22265625 148.9453125 C128.05277322 161.80281404 136.58704412 179.79644729 137.3359375 198.69921875 C137.65763929 219.9526318 133.59829254 238.74011318 119 255 C118.28328125 255.80953125 117.5665625 256.6190625 116.828125 257.453125 C106.81756265 268.11797247 95.12853875 275.12554389 81 279 C80.38253466 279.17308622 79.76506931 279.34617245 79.1288929 279.52450371 C70.2576245 281.65663002 61.20762235 281.26479802 52.14794922 281.22705078 C50.24502061 281.22648594 48.34209156 281.22680465 46.43916321 281.22793579 C41.29731876 281.22850747 36.15556844 281.21678321 31.01374578 281.20278788 C25.63124925 281.19024956 20.24875034 281.18910758 14.86624146 281.18673706 C4.68446317 281.18053139 -5.49727194 281.16413295 -15.67903125 281.14403808 C-27.27516707 281.12165063 -38.87130499 281.1106785 -50.46745706 281.10064721 C-74.31166193 281.0797659 -98.15582854 281.04460771 -122 281 C-121.98686768 282.10941452 -121.97373535 283.21882904 -121.96020508 284.36186218 C-122.0152513 289.39430646 -122.0152513 289.39430646 -124 292 C-126.58203125 293.81518555 -126.58203125 293.81518555 -129.8125 295.63671875 C-130.66678589 296.12408257 -130.66678589 296.12408257 -131.53833008 296.62129211 C-133.35333437 297.65354628 -135.17638181 298.67055619 -137 299.6875 C-138.22711564 300.38248779 -139.45368492 301.07844121 -140.6796875 301.77539062 C-152.45666067 308.45338539 -152.45666067 308.45338539 -159 308 C-162.13378906 306.6706543 -162.13378906 306.6706543 -165.265625 304.82421875 C-166.40257812 304.16099609 -167.53953125 303.49777344 -168.7109375 302.81445312 C-169.29198242 302.46519775 -169.87302734 302.11594238 -170.47167969 301.75610352 C-172.25096832 300.68691813 -174.04176764 299.63968633 -175.8359375 298.59570312 C-185.84205112 292.69802226 -185.84205112 292.69802226 -188 290 C-188.29296875 287.73828125 -188.29296875 287.73828125 -188.1875 285.3125 C-188.14689453 284.10013672 -188.14689453 284.10013672 -188.10546875 282.86328125 C-188.07066406 282.24839844 -188.03585938 281.63351562 -188 281 C-188.60885292 281.00368717 -189.21770584 281.00737434 -189.84500885 281.01117325 C-204.73005725 281.09990603 -219.61507977 281.16589388 -234.50032806 281.20724869 C-241.69904643 281.22778442 -248.89758715 281.2557305 -256.09619141 281.30175781 C-262.37799445 281.34190367 -268.65966872 281.36749794 -274.94159651 281.37635398 C-278.26117589 281.38152252 -281.58009809 281.39564772 -284.89961243 281.42292023 C-298.84088092 281.53282204 -311.69599444 281.51843787 -325 277 C-325.94339233 276.69950745 -326.88678467 276.39901489 -327.85876465 276.0894165 C-345.16281994 270.31640922 -359.90594834 254.86884838 -368 239 C-376.73948575 219.57643703 -378.40842046 197.19286283 -371 177 C-367.39019435 167.99316945 -362.5245001 160.1952431 -356 153 C-355.30003906 152.21882812 -354.60007812 151.43765625 -353.87890625 150.6328125 C-342.17617354 138.24168375 -325.92816753 130.04863174 -309 128 C-305.33107588 127.91409713 -301.66909365 127.93295814 -298 128 C-298.01571045 127.40687012 -298.0314209 126.81374023 -298.04760742 126.20263672 C-298.63299099 100.6779371 -293.66029993 78.69699857 -276.625 58.7265625 C-261.10729969 42.60847498 -239.74379638 32.22091178 -217.25952148 31.65649414 C-200.55401819 31.47796627 -186.45359651 34.50458356 -171.78515625 42.546875 C-169.44936341 43.76554952 -167.56906358 44.52952089 -165 45 C-164.5875 44.32195312 -164.175 43.64390625 -163.75 42.9453125 C-145.59013089 13.67873772 -118.85213144 -5.47727419 -85.30859375 -13.65625 C-56.23399988 -19.84426998 -25.69470589 -14.69434537 0 0 Z M-94.3125 5.5625 C-95.01906738 5.81862061 -95.72563477 6.07474121 -96.45361328 6.33862305 C-108.97613233 11.08427678 -120.11722509 17.96256353 -130 27 C-131.25876953 28.13695312 -131.25876953 28.13695312 -132.54296875 29.296875 C-142.33549528 38.58838855 -149.54816574 49.47474977 -155.625 61.453125 C-157 64 -157 64 -159 66 C-164.85040836 66.69077111 -167.54246716 65.42616995 -172.125 61.875 C-188.55299092 49.75434816 -206.44967081 46.1032207 -226.4765625 48.3984375 C-241.54152404 51.27685447 -253.53453261 59.13324935 -264 70 C-264.67546875 70.65613281 -265.3509375 71.31226562 -266.046875 71.98828125 C-277.02927473 83.33514115 -282.03602434 99.8916371 -282.17578125 115.32421875 C-282.19895089 116.69597937 -282.223067 118.06772428 -282.24804688 119.43945312 C-282.28328078 121.5724596 -282.31260846 123.70487107 -282.32592773 125.83813477 C-282.34140118 127.91752775 -282.38155353 129.99526454 -282.42578125 132.07421875 C-282.44036377 133.30744873 -282.45494629 134.54067871 -282.4699707 135.8112793 C-283 139 -283 139 -284.74853516 141.40136719 C-287.29901906 143.21231585 -288.50567793 143.4966429 -291.59765625 143.50390625 C-292.47607178 143.52018066 -293.3544873 143.53645508 -294.25952148 143.55322266 C-295.64699585 143.55781494 -295.64699585 143.55781494 -297.0625 143.5625 C-315.32135483 144.06723897 -330.09835978 149.73864862 -343 163 C-343.54914063 163.51691406 -344.09828125 164.03382813 -344.6640625 164.56640625 C-352.62870927 172.72271564 -358.31513664 185.72829049 -359 197 C-359.0515625 197.67901367 -359.103125 198.35802734 -359.15625 199.05761719 C-359.99886521 211.34400019 -358.33288795 220.91547539 -353 232 C-352.33291016 233.39992188 -352.33291016 233.39992188 -351.65234375 234.828125 C-344.05077631 248.92315966 -330.22915922 258.91007451 -315.0625 263.52734375 C-310.14136977 264.65510276 -305.45205732 265.12589429 -300.40469074 265.13142776 C-299.08628801 265.13526891 -297.76788527 265.13911005 -296.40953094 265.1430676 C-294.95305902 265.14228744 -293.49658716 265.14140867 -292.04011536 265.14044189 C-290.48772616 265.14302683 -288.93533762 265.14604036 -287.38295001 265.1494453 C-283.11934618 265.15750335 -278.8557592 265.1593042 -274.59214866 265.16004276 C-269.99281417 265.16189539 -265.39348838 265.16944376 -260.79415894 265.17617798 C-250.73831243 265.18975312 -240.68246991 265.19578468 -230.62661576 265.20018864 C-224.34655755 265.20295232 -218.06650088 265.20718989 -211.78644371 265.21169281 C-194.39531584 265.22388417 -177.00418919 265.2341839 -159.61305714 265.2375679 C-158.5002456 265.23778747 -157.38743407 265.23800703 -156.24090097 265.23823325 C-154.56771587 265.23856067 -154.56771587 265.23856067 -152.86072904 265.2388947 C-150.60043069 265.23933817 -148.34013234 265.23978473 -146.07983398 265.24023438 C-144.95865064 265.2404558 -143.83746729 265.24067723 -142.6823087 265.24090537 C-124.51593022 265.24485323 -106.34959187 265.26230749 -88.18322889 265.2855939 C-69.5276095 265.30931425 -50.87201024 265.32177006 -32.21637553 265.32293582 C-21.74372878 265.32385217 -11.27113431 265.32959447 -0.79850197 265.34775543 C8.11920968 265.3631656 17.03685289 265.36827144 25.95457532 265.36001733 C30.5027548 265.35611415 35.0507965 265.35702423 39.59895897 265.37107468 C43.76714482 265.3838333 47.93508961 265.38259893 52.10327522 265.37048396 C53.60664868 265.36853037 55.11003934 265.37158974 56.61338868 265.38032833 C74.32955483 265.47674176 89.89448473 260.82942977 102.82421875 248.23828125 C103.54222656 247.49964844 104.26023437 246.76101563 105 246 C105.64582031 245.37480469 106.29164063 244.74960937 106.95703125 244.10546875 C115.39983645 235.36836098 121.31495576 221.37973434 121.41772461 209.16455078 C121.40362549 208.38837402 121.38952637 207.61219727 121.375 206.8125 C121.36412354 205.98733887 121.35324707 205.16217773 121.34204102 204.31201172 C120.88184552 186.39390917 114.76347979 172.60249896 102 160 C101.45988281 159.43796875 100.91976563 158.8759375 100.36328125 158.296875 C88.44177492 146.88586138 72.12042886 143.60571934 56.25952148 143.55322266 C55.38110596 143.53694824 54.50269043 143.52067383 53.59765625 143.50390625 C52.80883057 143.50205322 52.02000488 143.5002002 51.20727539 143.49829102 C47.90860671 142.75361866 46.89736963 141.82395486 45 139 C44.44016242 135.68747662 44.51494215 132.41820544 44.56640625 129.06640625 C44.55677719 127.03320247 44.54700658 124.99999936 44.53710938 122.96679688 C44.54559666 119.79279329 44.56209733 116.61900179 44.5847168 113.44506836 C44.74150487 80.93853096 35.7709783 53.73146733 13 30 C1.863399 19.02623551 -11.28479166 11.25165519 -26 6 C-27.23105469 5.53335938 -28.46210938 5.06671875 -29.73046875 4.5859375 C-49.33752358 -2.20749935 -74.82824701 -1.59252614 -94.3125 5.5625 Z " fill="#636052" transform="translate(375,42)"/>
<path d="M0 0 C0 0.33 0 0.66 0 1 C-0.94359375 1.09796875 -1.8871875 1.1959375 -2.859375 1.296875 C-25.24395977 3.90391499 -42.81108787 12.99018332 -57.5625 29.9453125 C-68.77157414 44.14599765 -75.77369732 61.00645328 -76.31640625 79.1484375 C-76.3475779 80.13452499 -76.3475779 80.13452499 -76.37937927 81.14053345 C-76.44420753 83.21859362 -76.50344564 85.29676856 -76.5625 87.375 C-76.60574888 88.79298011 -76.64936509 90.21094907 -76.69335938 91.62890625 C-76.79981918 95.0858188 -76.90126984 98.54285706 -77 102 C-78.19753906 102.02578125 -79.39507812 102.0515625 -80.62890625 102.078125 C-101.57380629 102.72251693 -119.58086662 107.95637063 -135 123 C-149.02927685 138.80232922 -154.32212322 156.7850698 -153.22900391 177.54638672 C-152.66464679 183.59307014 -150.94059122 189.26321573 -149 195 C-148.62617188 196.12664062 -148.25234375 197.25328125 -147.8671875 198.4140625 C-147.58101562 199.26742187 -147.29484375 200.12078125 -147 201 C-153.27626872 198.87812979 -157.3201301 194.53316551 -162 190 C-162.65742188 189.36835938 -163.31484375 188.73671875 -163.9921875 188.0859375 C-173.1493138 178.52182781 -178.61449528 163.99705736 -178.375 150.8125 C-178.36412354 149.98733887 -178.35324707 149.16217773 -178.34204102 148.31201172 C-177.88157293 130.38329588 -171.75583289 116.61743326 -159 104 C-158.48308594 103.44957031 -157.96617187 102.89914063 -157.43359375 102.33203125 C-153.5543866 98.55410889 -148.90273625 96.19913331 -144.125 93.75 C-143.13487915 93.23735596 -143.13487915 93.23735596 -142.12475586 92.71435547 C-132.76269625 88.10848376 -123.66542625 87.6665729 -113.37695312 87.609375 C-112.48298828 87.58617187 -111.58902344 87.56296875 -110.66796875 87.5390625 C-109.86641357 87.53084473 -109.0648584 87.52262695 -108.23901367 87.51416016 C-105.05487513 86.78296446 -103.91493386 85.63018245 -102 83 C-101.39037329 79.78420022 -101.39037329 79.78420022 -101.4609375 76.1796875 C-101.44914459 75.52098663 -101.43735168 74.86228577 -101.42520142 74.18362427 C-101.3900113 72.08051016 -101.38079179 69.97838376 -101.375 67.875 C-101.2038204 46.26609225 -96.90534312 27.78155337 -81.375 11.8125 C-60.15768325 -9.05469601 -26.23595958 -15.30430976 0 0 Z " fill="#CDCDCE" transform="translate(194,98)"/>
<path d="M0 0 C2.54541016 1.03808594 2.54541016 1.03808594 5.0390625 2.484375 C6.40417969 3.26941406 6.40417969 3.26941406 7.796875 4.0703125 C9.19679688 4.90175781 9.19679688 4.90175781 10.625 5.75 C12.03652344 6.55824219 12.03652344 6.55824219 13.4765625 7.3828125 C24.21158013 13.63474038 24.21158013 13.63474038 26 19 C26.26089707 23.28740859 26.23142922 27.58050818 26.25 31.875 C26.270625 33.05964844 26.29125 34.24429688 26.3125 35.46484375 C26.32023437 37.17994141 26.32023437 37.17994141 26.328125 38.9296875 C26.34214355 40.49565674 26.34214355 40.49565674 26.35644531 42.09326172 C25.94427994 45.45438568 24.99249262 47.28484166 23 50 C19.4439781 52.65550412 15.61586769 54.81781188 11.75634766 56.99804688 C10.0838676 57.9521556 8.43748768 58.95159094 6.79296875 59.953125 C5.78878906 60.52546875 4.78460938 61.0978125 3.75 61.6875 C2.85796875 62.20699219 1.9659375 62.72648437 1.046875 63.26171875 C-6.36767998 65.05832246 -13.7343612 59.72824499 -19.875 56 C-20.62007813 55.56171875 -21.36515625 55.1234375 -22.1328125 54.671875 C-30.35432439 49.76262689 -30.35432439 49.76262689 -31.67700195 46.15185547 C-32.37348227 41.51181201 -32.1847166 36.8066772 -32.1875 32.125 C-32.19974609 31.04863281 -32.21199219 29.97226562 -32.22460938 28.86328125 C-32.24500653 17.83521949 -32.24500653 17.83521949 -30 14 C-27.44590866 11.9496017 -24.69367121 10.41909344 -21.8125 8.875 C-21.06935547 8.45863281 -20.32621094 8.04226563 -19.56054688 7.61328125 C-18.08500109 6.78821709 -16.60339376 5.97389341 -15.11572266 5.17089844 C-13.75626893 4.41853979 -12.41474437 3.63227967 -11.09912109 2.80566406 C-7.13087064 0.32318771 -4.640765 -0.3901641 0 0 Z " fill="#646153" transform="translate(345,333)"/>
<path d="M0 0 C2.28759926 1.19636488 4.47050236 2.49665329 6.66308594 3.85888672 C7.4171875 4.30232422 8.17128906 4.74576172 8.94824219 5.20263672 C12.68775103 7.46095467 15.63190023 9.2759592 17.91308594 13.10888672 C18.30126953 15.5949707 18.30126953 15.5949707 18.31152344 18.35498047 C18.31732422 19.85834961 18.31732422 19.85834961 18.32324219 21.39208984 C18.31164062 22.43300781 18.30003906 23.47392578 18.28808594 24.54638672 C18.2996875 25.5834375 18.31128906 26.62048828 18.32324219 27.68896484 C18.2850475 37.60048741 18.2850475 37.60048741 14.91308594 41.10888672 C12.09129236 43.11347027 9.14442408 44.77902801 6.10058594 46.42138672 C5.30587891 46.87578125 4.51117188 47.33017578 3.69238281 47.79833984 C-4.06486784 52.06514852 -4.06486784 52.06514852 -9.08691406 51.10888672 C-11.93437189 49.91024676 -14.55576983 48.43089045 -17.21191406 46.85888672 C-17.91445312 46.46314453 -18.61699219 46.06740234 -19.34082031 45.65966797 C-28.28987452 40.50000533 -28.28987452 40.50000533 -30.08691406 35.10888672 C-30.33979608 31.84249395 -30.31818541 28.57155905 -30.33691406 25.29638672 C-30.35753906 24.40628906 -30.37816406 23.51619141 -30.39941406 22.59912109 C-30.43030899 17.38946366 -30.32713685 13.41464431 -27.08691406 9.10888672 C-24.32712675 6.99835232 -21.39945403 5.36363066 -18.33691406 3.73388672 C-17.55058594 3.28400391 -16.76425781 2.83412109 -15.95410156 2.37060547 C-10.56873456 -0.57256022 -6.04113622 -2.57956799 0 0 Z " fill="#636052" transform="translate(208.0869140625,402.89111328125)"/>
<path d="M0 0 C2.72265625 1.9375 2.72265625 1.9375 4.72265625 4.9375 C5.21687414 9.23424216 5.13920913 13.55291074 5.16015625 17.875 C5.19302734 19.06802734 5.22589844 20.26105469 5.25976562 21.49023438 C5.26685547 22.63685547 5.27394531 23.78347656 5.28125 24.96484375 C5.29470459 26.01406006 5.30815918 27.06327637 5.32202148 28.14428711 C4.50979653 31.92948697 2.89800284 32.84760206 -0.27734375 34.9375 C-1.23036377 35.57909058 -1.23036377 35.57909058 -2.20263672 36.23364258 C-4.17469384 37.42583352 -6.15927515 38.59327514 -8.15234375 39.75 C-8.83425781 40.16958984 -9.51617187 40.58917969 -10.21875 41.02148438 C-13.61994815 42.98770083 -15.74488041 43.92727189 -19.734375 44.00390625 C-24.29795489 42.63030392 -28.04137949 40.54143822 -32.08984375 38.0625 C-33.23356445 37.39154297 -33.23356445 37.39154297 -34.40039062 36.70703125 C-40.00364161 33.3480532 -40.00364161 33.3480532 -42.27734375 29.9375 C-42.74218845 25.99452323 -42.64768166 22.02993699 -42.65234375 18.0625 C-42.67683594 16.97324219 -42.70132812 15.88398438 -42.7265625 14.76171875 C-42.75562002 6.84838797 -42.75562002 6.84838797 -40.72265625 2.9765625 C-37.57762173 0.35402572 -34.32026017 -1.76930354 -30.77734375 -3.8125 C-30.11347656 -4.21082031 -29.44960938 -4.60914063 -28.765625 -5.01953125 C-17.55944382 -11.61798125 -10.31998424 -6.3730429 0 0 Z " fill="#636052" transform="translate(317.27734375,442.0625)"/>
<path d="M0 0 C3.09446626 1.31654817 5.89715071 2.97754913 8.75 4.75 C9.50410156 5.1934375 10.25820312 5.636875 11.03515625 6.09375 C14.77431281 8.35185521 17.72383659 10.16444992 20 14 C20.6443004 17.95533017 20.50947856 21.93517767 20.5 25.9375 C20.52835938 27.02224609 20.55671875 28.10699219 20.5859375 29.22460938 C20.60535235 37.12160004 20.60535235 37.12160004 17.96484375 40.953125 C14.40458635 43.41106292 10.84025911 45.70439115 7.0625 47.8125 C6.02706055 48.42254883 6.02706055 48.42254883 4.97070312 49.04492188 C0.86090826 51.36276827 -2.18854091 52.89055284 -7 52 C-10.04679708 50.62673832 -12.85035461 48.94755827 -15.6875 47.1875 C-16.44611328 46.73568359 -17.20472656 46.28386719 -17.98632812 45.81835938 C-25.10265727 41.51590089 -25.10265727 41.51590089 -27 39 C-27.6495064 34.71796716 -27.46312334 30.38818556 -27.4375 26.0625 C-27.45748047 24.86947266 -27.47746094 23.67644531 -27.49804688 22.44726562 C-27.49740234 21.30064453 -27.49675781 20.15402344 -27.49609375 18.97265625 C-27.49794678 17.92343994 -27.4997998 16.87422363 -27.50170898 15.79321289 C-26.7558351 11.64063719 -24.51793229 10.0726367 -21.18823242 7.71972656 C-19.19663073 6.54710375 -17.19805201 5.38986975 -15.1875 4.25 C-14.50107422 3.83878906 -13.81464844 3.42757813 -13.10742188 3.00390625 C-8.5902111 0.43119018 -5.30838521 -0.84464914 0 0 Z " fill="#636052" transform="translate(115,343)"/>
<path d="M0 0 C1.05960937 0.31710937 1.05960937 0.31710937 2.140625 0.640625 C4.90826447 1.78251821 6.21355236 2.56474302 8 5 C8.7065339 10.41313667 8.45910679 15.57361281 8 21 C-1.75371901 27.14380165 -1.75371901 27.14380165 -6.25 26.625 C-7.1575 26.08875 -8.065 25.5525 -9 25 C-9.63164062 24.65453125 -10.26328125 24.3090625 -10.9140625 23.953125 C-12.63192064 23.00864523 -14.31899045 22.00860573 -16 21 C-17.18416162 9.92151015 -17.18416162 9.92151015 -16 5 C-11.98589987 0.15351864 -6.02169424 -2.48722153 0 0 Z " fill="#FDFCFC" transform="translate(346,352)"/>
<path d="M0 0 C2.8125 1.375 2.8125 1.375 5.8125 3.375 C6.10546875 5.7578125 6.10546875 5.7578125 6 8.5 C5.97292969 9.41007812 5.94585937 10.32015625 5.91796875 11.2578125 C5.88316406 11.95648438 5.84835938 12.65515625 5.8125 13.375 C0.5605916 16.42843511 0.5605916 16.42843511 -2.8125 16.1875 C-5.0656986 15.4166689 -7.07237265 14.45933744 -9.1875 13.375 C-9.53793662 9.97446691 -9.69591623 6.76444151 -9.1875 3.375 C-6.00154102 0.03732869 -4.576501 -0.89735314 0 0 Z " fill="#FAF9F9" transform="translate(113.1875,360.625)"/>
<path d="M0 0 C0.78375 0.45375 1.5675 0.9075 2.375 1.375 C3.695 2.035 5.015 2.695 6.375 3.375 C6.375 6.675 6.375 9.975 6.375 13.375 C3.06945468 15.3425865 1.07892348 16.41640726 -2.8125 16.1875 C-5.625 15.375 -5.625 15.375 -8.625 13.375 C-9.3889096 9.97589837 -9.30481245 6.78502697 -8.625 3.375 C-5.679811 0.36131823 -4.22218871 -1.00528303 0 0 Z " fill="#F9F8F8" transform="translate(203.625,419.625)"/>
<path d="M0 0 C5.20104364 3.17841556 5.20104364 3.17841556 5.75390625 5.3984375 C5.81498865 7.84987785 5.77745786 9.97591748 5.25 12.375 C2.5625 15 2.5625 15 -0.75 16.375 C-3.65455626 16.3058439 -5.41801957 15.5185591 -8.0625 14.375 C-10.79954638 11.13109318 -10.05745145 7.44873169 -9.75 3.375 C-3.49576271 -0.79449153 -3.49576271 -0.79449153 0 0 Z " fill="#FAFAFA" transform="translate(300.75,451.625)"/>
<path d="M0 0 C10.56 0 21.12 0 32 0 C20.73485388 9.01211689 20.73485388 9.01211689 15 10 C9.36734518 8.32410125 4.54216879 4.61760164 0 1 C0 0.67 0 0.34 0 0 Z " fill="#FAFAFA" transform="translate(204,323)"/>
</svg>
